<?xml version="1.0" encoding="utf-8" standalone="no"?>
<!DOCTYPE svg PUBLIC "-//W3C//DTD SVG 1.1//EN"
  "http://www.w3.org/Graphics/SVG/1.1/DTD/svg11.dtd">
<svg xmlns:xlink="http://www.w3.org/1999/xlink" width="432pt" height="288pt" viewBox="0 0 432 288" xmlns="http://www.w3.org/2000/svg" version="1.1">
 <metadata>
  <rdf:RDF xmlns:dc="http://purl.org/dc/elements/1.1/" xmlns:cc="http://creativecommons.org/ns#" xmlns:rdf="http://www.w3.org/1999/02/22-rdf-syntax-ns#">
   <cc:Work>
    <dc:type rdf:resource="http://purl.org/dc/dcmitype/StillImage"/>
    <dc:date>2022-06-21T16:34:13.676461</dc:date>
    <dc:format>image/svg+xml</dc:format>
    <dc:creator>
     <cc:Agent>
      <dc:title>omnetpp.scave 6.0.0; Matplotlib 3.5.1 w/ backend GTK3Agg; Pandas 1.4.2; Python 3.8.10; Linux-5.4.0-109-generic-x86_64-with-glibc2.29</dc:title>
     </cc:Agent>
    </dc:creator>
   </cc:Work>
  </rdf:RDF>
 </metadata>
 <defs>
  <style type="text/css">*{stroke-linejoin: round; stroke-linecap: butt}</style>
 </defs>
 <g id="figure_1">
  <g id="patch_1">
   <path d="M 0 288 
L 432 288 
L 432 0 
L 0 0 
z
" style="fill: #ffffff"/>
  </g>
  <g id="axes_1">
   <g id="patch_2">
    <path d="M 50.76875 246.7 
L 415.650618 246.7 
L 415.650618 25.8 
L 50.76875 25.8 
z
" style="fill: #ffffff"/>
   </g>
   <g id="matplotlib.axis_1">
    <g id="xtick_1">
     <g id="line2d_1">
      <path d="M 50.76875 246.7 
L 50.76875 25.8 
" clip-path="url(#p6210bc09c1)" style="fill: none; stroke: #b0b0b0; stroke-width: 0.8; stroke-linecap: square"/>
     </g>
     <g id="line2d_2">
      <defs>
       <path id="m6a0a805aea" d="M 0 0 
L 0 3.5 
" style="stroke: #000000; stroke-width: 0.8"/>
      </defs>
      <g>
       <use xlink:href="#m6a0a805aea" x="50.76875" y="246.7" style="stroke: #000000; stroke-width: 0.8"/>
      </g>
     </g>
     <g id="text_1">
      <!-- 0 -->
      <g transform="translate(47.5875 261.298437)scale(0.1 -0.1)">
       <defs>
        <path id="DejaVuSans-30" d="M 2034 4250 
Q 1547 4250 1301 3770 
Q 1056 3291 1056 2328 
Q 1056 1369 1301 889 
Q 1547 409 2034 409 
Q 2525 409 2770 889 
Q 3016 1369 3016 2328 
Q 3016 3291 2770 3770 
Q 2525 4250 2034 4250 
z
M 2034 4750 
Q 2819 4750 3233 4129 
Q 3647 3509 3647 2328 
Q 3647 1150 3233 529 
Q 2819 -91 2034 -91 
Q 1250 -91 836 529 
Q 422 1150 422 2328 
Q 422 3509 836 4129 
Q 1250 4750 2034 4750 
z
" transform="scale(0.015625)"/>
       </defs>
       <use xlink:href="#DejaVuSans-30"/>
      </g>
     </g>
    </g>
    <g id="xtick_2">
     <g id="line2d_3">
      <path d="M 95.879087 246.7 
L 95.879087 25.8 
" clip-path="url(#p6210bc09c1)" style="fill: none; stroke: #b0b0b0; stroke-width: 0.8; stroke-linecap: square"/>
     </g>
     <g id="line2d_4">
      <g>
       <use xlink:href="#m6a0a805aea" x="95.879087" y="246.7" style="stroke: #000000; stroke-width: 0.8"/>
      </g>
     </g>
     <g id="text_2">
      <!-- 25 -->
      <g transform="translate(89.516587 261.298437)scale(0.1 -0.1)">
       <defs>
        <path id="DejaVuSans-32" d="M 1228 531 
L 3431 531 
L 3431 0 
L 469 0 
L 469 531 
Q 828 903 1448 1529 
Q 2069 2156 2228 2338 
Q 2531 2678 2651 2914 
Q 2772 3150 2772 3378 
Q 2772 3750 2511 3984 
Q 2250 4219 1831 4219 
Q 1534 4219 1204 4116 
Q 875 4013 500 3803 
L 500 4441 
Q 881 4594 1212 4672 
Q 1544 4750 1819 4750 
Q 2544 4750 2975 4387 
Q 3406 4025 3406 3419 
Q 3406 3131 3298 2873 
Q 3191 2616 2906 2266 
Q 2828 2175 2409 1742 
Q 1991 1309 1228 531 
z
" transform="scale(0.015625)"/>
        <path id="DejaVuSans-35" d="M 691 4666 
L 3169 4666 
L 3169 4134 
L 1269 4134 
L 1269 2991 
Q 1406 3038 1543 3061 
Q 1681 3084 1819 3084 
Q 2600 3084 3056 2656 
Q 3513 2228 3513 1497 
Q 3513 744 3044 326 
Q 2575 -91 1722 -91 
Q 1428 -91 1123 -41 
Q 819 9 494 109 
L 494 744 
Q 775 591 1075 516 
Q 1375 441 1709 441 
Q 2250 441 2565 725 
Q 2881 1009 2881 1497 
Q 2881 1984 2565 2268 
Q 2250 2553 1709 2553 
Q 1456 2553 1204 2497 
Q 953 2441 691 2322 
L 691 4666 
z
" transform="scale(0.015625)"/>
       </defs>
       <use xlink:href="#DejaVuSans-32"/>
       <use xlink:href="#DejaVuSans-35" x="63.623047"/>
      </g>
     </g>
    </g>
    <g id="xtick_3">
     <g id="line2d_5">
      <path d="M 140.989424 246.7 
L 140.989424 25.8 
" clip-path="url(#p6210bc09c1)" style="fill: none; stroke: #b0b0b0; stroke-width: 0.8; stroke-linecap: square"/>
     </g>
     <g id="line2d_6">
      <g>
       <use xlink:href="#m6a0a805aea" x="140.989424" y="246.7" style="stroke: #000000; stroke-width: 0.8"/>
      </g>
     </g>
     <g id="text_3">
      <!-- 50 -->
      <g transform="translate(134.626924 261.298437)scale(0.1 -0.1)">
       <use xlink:href="#DejaVuSans-35"/>
       <use xlink:href="#DejaVuSans-30" x="63.623047"/>
      </g>
     </g>
    </g>
    <g id="xtick_4">
     <g id="line2d_7">
      <path d="M 186.099761 246.7 
L 186.099761 25.8 
" clip-path="url(#p6210bc09c1)" style="fill: none; stroke: #b0b0b0; stroke-width: 0.8; stroke-linecap: square"/>
     </g>
     <g id="line2d_8">
      <g>
       <use xlink:href="#m6a0a805aea" x="186.099761" y="246.7" style="stroke: #000000; stroke-width: 0.8"/>
      </g>
     </g>
     <g id="text_4">
      <!-- 75 -->
      <g transform="translate(179.737261 261.298437)scale(0.1 -0.1)">
       <defs>
        <path id="DejaVuSans-37" d="M 525 4666 
L 3525 4666 
L 3525 4397 
L 1831 0 
L 1172 0 
L 2766 4134 
L 525 4134 
L 525 4666 
z
" transform="scale(0.015625)"/>
       </defs>
       <use xlink:href="#DejaVuSans-37"/>
       <use xlink:href="#DejaVuSans-35" x="63.623047"/>
      </g>
     </g>
    </g>
    <g id="xtick_5">
     <g id="line2d_9">
      <path d="M 231.210099 246.7 
L 231.210099 25.8 
" clip-path="url(#p6210bc09c1)" style="fill: none; stroke: #b0b0b0; stroke-width: 0.8; stroke-linecap: square"/>
     </g>
     <g id="line2d_10">
      <g>
       <use xlink:href="#m6a0a805aea" x="231.210099" y="246.7" style="stroke: #000000; stroke-width: 0.8"/>
      </g>
     </g>
     <g id="text_5">
      <!-- 100 -->
      <g transform="translate(221.666349 261.298437)scale(0.1 -0.1)">
       <defs>
        <path id="DejaVuSans-31" d="M 794 531 
L 1825 531 
L 1825 4091 
L 703 3866 
L 703 4441 
L 1819 4666 
L 2450 4666 
L 2450 531 
L 3481 531 
L 3481 0 
L 794 0 
L 794 531 
z
" transform="scale(0.015625)"/>
       </defs>
       <use xlink:href="#DejaVuSans-31"/>
       <use xlink:href="#DejaVuSans-30" x="63.623047"/>
       <use xlink:href="#DejaVuSans-30" x="127.246094"/>
      </g>
     </g>
    </g>
    <g id="xtick_6">
     <g id="line2d_11">
      <path d="M 276.320436 246.7 
L 276.320436 25.8 
" clip-path="url(#p6210bc09c1)" style="fill: none; stroke: #b0b0b0; stroke-width: 0.8; stroke-linecap: square"/>
     </g>
     <g id="line2d_12">
      <g>
       <use xlink:href="#m6a0a805aea" x="276.320436" y="246.7" style="stroke: #000000; stroke-width: 0.8"/>
      </g>
     </g>
     <g id="text_6">
      <!-- 125 -->
      <g transform="translate(266.776686 261.298437)scale(0.1 -0.1)">
       <use xlink:href="#DejaVuSans-31"/>
       <use xlink:href="#DejaVuSans-32" x="63.623047"/>
       <use xlink:href="#DejaVuSans-35" x="127.246094"/>
      </g>
     </g>
    </g>
    <g id="xtick_7">
     <g id="line2d_13">
      <path d="M 321.430773 246.7 
L 321.430773 25.8 
" clip-path="url(#p6210bc09c1)" style="fill: none; stroke: #b0b0b0; stroke-width: 0.8; stroke-linecap: square"/>
     </g>
     <g id="line2d_14">
      <g>
       <use xlink:href="#m6a0a805aea" x="321.430773" y="246.7" style="stroke: #000000; stroke-width: 0.8"/>
      </g>
     </g>
     <g id="text_7">
      <!-- 150 -->
      <g transform="translate(311.887023 261.298437)scale(0.1 -0.1)">
       <use xlink:href="#DejaVuSans-31"/>
       <use xlink:href="#DejaVuSans-35" x="63.623047"/>
       <use xlink:href="#DejaVuSans-30" x="127.246094"/>
      </g>
     </g>
    </g>
    <g id="xtick_8">
     <g id="line2d_15">
      <path d="M 366.54111 246.7 
L 366.54111 25.8 
" clip-path="url(#p6210bc09c1)" style="fill: none; stroke: #b0b0b0; stroke-width: 0.8; stroke-linecap: square"/>
     </g>
     <g id="line2d_16">
      <g>
       <use xlink:href="#m6a0a805aea" x="366.54111" y="246.7" style="stroke: #000000; stroke-width: 0.8"/>
      </g>
     </g>
     <g id="text_8">
      <!-- 175 -->
      <g transform="translate(356.99736 261.298437)scale(0.1 -0.1)">
       <use xlink:href="#DejaVuSans-31"/>
       <use xlink:href="#DejaVuSans-37" x="63.623047"/>
       <use xlink:href="#DejaVuSans-35" x="127.246094"/>
      </g>
     </g>
    </g>
    <g id="xtick_9">
     <g id="line2d_17">
      <path d="M 411.651447 246.7 
L 411.651447 25.8 
" clip-path="url(#p6210bc09c1)" style="fill: none; stroke: #b0b0b0; stroke-width: 0.8; stroke-linecap: square"/>
     </g>
     <g id="line2d_18">
      <g>
       <use xlink:href="#m6a0a805aea" x="411.651447" y="246.7" style="stroke: #000000; stroke-width: 0.8"/>
      </g>
     </g>
     <g id="text_9">
      <!-- 200 -->
      <g transform="translate(402.107697 261.298437)scale(0.1 -0.1)">
       <use xlink:href="#DejaVuSans-32"/>
       <use xlink:href="#DejaVuSans-30" x="63.623047"/>
       <use xlink:href="#DejaVuSans-30" x="127.246094"/>
      </g>
     </g>
    </g>
    <g id="text_10">
     <!-- Tiempo -->
     <g transform="translate(214.742497 274.976562)scale(0.1 -0.1)">
      <defs>
       <path id="DejaVuSans-54" d="M -19 4666 
L 3928 4666 
L 3928 4134 
L 2272 4134 
L 2272 0 
L 1638 0 
L 1638 4134 
L -19 4134 
L -19 4666 
z
" transform="scale(0.015625)"/>
       <path id="DejaVuSans-69" d="M 603 3500 
L 1178 3500 
L 1178 0 
L 603 0 
L 603 3500 
z
M 603 4863 
L 1178 4863 
L 1178 4134 
L 603 4134 
L 603 4863 
z
" transform="scale(0.015625)"/>
       <path id="DejaVuSans-65" d="M 3597 1894 
L 3597 1613 
L 953 1613 
Q 991 1019 1311 708 
Q 1631 397 2203 397 
Q 2534 397 2845 478 
Q 3156 559 3463 722 
L 3463 178 
Q 3153 47 2828 -22 
Q 2503 -91 2169 -91 
Q 1331 -91 842 396 
Q 353 884 353 1716 
Q 353 2575 817 3079 
Q 1281 3584 2069 3584 
Q 2775 3584 3186 3129 
Q 3597 2675 3597 1894 
z
M 3022 2063 
Q 3016 2534 2758 2815 
Q 2500 3097 2075 3097 
Q 1594 3097 1305 2825 
Q 1016 2553 972 2059 
L 3022 2063 
z
" transform="scale(0.015625)"/>
       <path id="DejaVuSans-6d" d="M 3328 2828 
Q 3544 3216 3844 3400 
Q 4144 3584 4550 3584 
Q 5097 3584 5394 3201 
Q 5691 2819 5691 2113 
L 5691 0 
L 5113 0 
L 5113 2094 
Q 5113 2597 4934 2840 
Q 4756 3084 4391 3084 
Q 3944 3084 3684 2787 
Q 3425 2491 3425 1978 
L 3425 0 
L 2847 0 
L 2847 2094 
Q 2847 2600 2669 2842 
Q 2491 3084 2119 3084 
Q 1678 3084 1418 2786 
Q 1159 2488 1159 1978 
L 1159 0 
L 581 0 
L 581 3500 
L 1159 3500 
L 1159 2956 
Q 1356 3278 1631 3431 
Q 1906 3584 2284 3584 
Q 2666 3584 2933 3390 
Q 3200 3197 3328 2828 
z
" transform="scale(0.015625)"/>
       <path id="DejaVuSans-70" d="M 1159 525 
L 1159 -1331 
L 581 -1331 
L 581 3500 
L 1159 3500 
L 1159 2969 
Q 1341 3281 1617 3432 
Q 1894 3584 2278 3584 
Q 2916 3584 3314 3078 
Q 3713 2572 3713 1747 
Q 3713 922 3314 415 
Q 2916 -91 2278 -91 
Q 1894 -91 1617 61 
Q 1341 213 1159 525 
z
M 3116 1747 
Q 3116 2381 2855 2742 
Q 2594 3103 2138 3103 
Q 1681 3103 1420 2742 
Q 1159 2381 1159 1747 
Q 1159 1113 1420 752 
Q 1681 391 2138 391 
Q 2594 391 2855 752 
Q 3116 1113 3116 1747 
z
" transform="scale(0.015625)"/>
       <path id="DejaVuSans-6f" d="M 1959 3097 
Q 1497 3097 1228 2736 
Q 959 2375 959 1747 
Q 959 1119 1226 758 
Q 1494 397 1959 397 
Q 2419 397 2687 759 
Q 2956 1122 2956 1747 
Q 2956 2369 2687 2733 
Q 2419 3097 1959 3097 
z
M 1959 3584 
Q 2709 3584 3137 3096 
Q 3566 2609 3566 1747 
Q 3566 888 3137 398 
Q 2709 -91 1959 -91 
Q 1206 -91 779 398 
Q 353 888 353 1747 
Q 353 2609 779 3096 
Q 1206 3584 1959 3584 
z
" transform="scale(0.015625)"/>
      </defs>
      <use xlink:href="#DejaVuSans-54"/>
      <use xlink:href="#DejaVuSans-69" x="57.958984"/>
      <use xlink:href="#DejaVuSans-65" x="85.742188"/>
      <use xlink:href="#DejaVuSans-6d" x="147.265625"/>
      <use xlink:href="#DejaVuSans-70" x="244.677734"/>
      <use xlink:href="#DejaVuSans-6f" x="308.154297"/>
     </g>
    </g>
   </g>
   <g id="matplotlib.axis_2">
    <g id="ytick_1">
     <g id="line2d_19">
      <path d="M 50.76875 246.7 
L 415.650618 246.7 
" clip-path="url(#p6210bc09c1)" style="fill: none; stroke: #b0b0b0; stroke-width: 0.8; stroke-linecap: square"/>
     </g>
     <g id="line2d_20">
      <defs>
       <path id="m7c144c0b6f" d="M 0 0 
L -3.5 0 
" style="stroke: #000000; stroke-width: 0.8"/>
      </defs>
      <g>
       <use xlink:href="#m7c144c0b6f" x="50.76875" y="246.7" style="stroke: #000000; stroke-width: 0.8"/>
      </g>
     </g>
     <g id="text_11">
      <!-- 0 -->
      <g transform="translate(37.40625 250.499219)scale(0.1 -0.1)">
       <use xlink:href="#DejaVuSans-30"/>
      </g>
     </g>
    </g>
    <g id="ytick_2">
     <g id="line2d_21">
      <path d="M 50.76875 221.097522 
L 415.650618 221.097522 
" clip-path="url(#p6210bc09c1)" style="fill: none; stroke: #b0b0b0; stroke-width: 0.8; stroke-linecap: square"/>
     </g>
     <g id="line2d_22">
      <g>
       <use xlink:href="#m7c144c0b6f" x="50.76875" y="221.097522" style="stroke: #000000; stroke-width: 0.8"/>
      </g>
     </g>
     <g id="text_12">
      <!-- 25 -->
      <g transform="translate(31.04375 224.896741)scale(0.1 -0.1)">
       <use xlink:href="#DejaVuSans-32"/>
       <use xlink:href="#DejaVuSans-35" x="63.623047"/>
      </g>
     </g>
    </g>
    <g id="ytick_3">
     <g id="line2d_23">
      <path d="M 50.76875 195.495044 
L 415.650618 195.495044 
" clip-path="url(#p6210bc09c1)" style="fill: none; stroke: #b0b0b0; stroke-width: 0.8; stroke-linecap: square"/>
     </g>
     <g id="line2d_24">
      <g>
       <use xlink:href="#m7c144c0b6f" x="50.76875" y="195.495044" style="stroke: #000000; stroke-width: 0.8"/>
      </g>
     </g>
     <g id="text_13">
      <!-- 50 -->
      <g transform="translate(31.04375 199.294262)scale(0.1 -0.1)">
       <use xlink:href="#DejaVuSans-35"/>
       <use xlink:href="#DejaVuSans-30" x="63.623047"/>
      </g>
     </g>
    </g>
    <g id="ytick_4">
     <g id="line2d_25">
      <path d="M 50.76875 169.892565 
L 415.650618 169.892565 
" clip-path="url(#p6210bc09c1)" style="fill: none; stroke: #b0b0b0; stroke-width: 0.8; stroke-linecap: square"/>
     </g>
     <g id="line2d_26">
      <g>
       <use xlink:href="#m7c144c0b6f" x="50.76875" y="169.892565" style="stroke: #000000; stroke-width: 0.8"/>
      </g>
     </g>
     <g id="text_14">
      <!-- 75 -->
      <g transform="translate(31.04375 173.691784)scale(0.1 -0.1)">
       <use xlink:href="#DejaVuSans-37"/>
       <use xlink:href="#DejaVuSans-35" x="63.623047"/>
      </g>
     </g>
    </g>
    <g id="ytick_5">
     <g id="line2d_27">
      <path d="M 50.76875 144.290087 
L 415.650618 144.290087 
" clip-path="url(#p6210bc09c1)" style="fill: none; stroke: #b0b0b0; stroke-width: 0.8; stroke-linecap: square"/>
     </g>
     <g id="line2d_28">
      <g>
       <use xlink:href="#m7c144c0b6f" x="50.76875" y="144.290087" style="stroke: #000000; stroke-width: 0.8"/>
      </g>
     </g>
     <g id="text_15">
      <!-- 100 -->
      <g transform="translate(24.68125 148.089306)scale(0.1 -0.1)">
       <use xlink:href="#DejaVuSans-31"/>
       <use xlink:href="#DejaVuSans-30" x="63.623047"/>
       <use xlink:href="#DejaVuSans-30" x="127.246094"/>
      </g>
     </g>
    </g>
    <g id="ytick_6">
     <g id="line2d_29">
      <path d="M 50.76875 118.687609 
L 415.650618 118.687609 
" clip-path="url(#p6210bc09c1)" style="fill: none; stroke: #b0b0b0; stroke-width: 0.8; stroke-linecap: square"/>
     </g>
     <g id="line2d_30">
      <g>
       <use xlink:href="#m7c144c0b6f" x="50.76875" y="118.687609" style="stroke: #000000; stroke-width: 0.8"/>
      </g>
     </g>
     <g id="text_16">
      <!-- 125 -->
      <g transform="translate(24.68125 122.486828)scale(0.1 -0.1)">
       <use xlink:href="#DejaVuSans-31"/>
       <use xlink:href="#DejaVuSans-32" x="63.623047"/>
       <use xlink:href="#DejaVuSans-35" x="127.246094"/>
      </g>
     </g>
    </g>
    <g id="ytick_7">
     <g id="line2d_31">
      <path d="M 50.76875 93.085131 
L 415.650618 93.085131 
" clip-path="url(#p6210bc09c1)" style="fill: none; stroke: #b0b0b0; stroke-width: 0.8; stroke-linecap: square"/>
     </g>
     <g id="line2d_32">
      <g>
       <use xlink:href="#m7c144c0b6f" x="50.76875" y="93.085131" style="stroke: #000000; stroke-width: 0.8"/>
      </g>
     </g>
     <g id="text_17">
      <!-- 150 -->
      <g transform="translate(24.68125 96.88435)scale(0.1 -0.1)">
       <use xlink:href="#DejaVuSans-31"/>
       <use xlink:href="#DejaVuSans-35" x="63.623047"/>
       <use xlink:href="#DejaVuSans-30" x="127.246094"/>
      </g>
     </g>
    </g>
    <g id="ytick_8">
     <g id="line2d_33">
      <path d="M 50.76875 67.482653 
L 415.650618 67.482653 
" clip-path="url(#p6210bc09c1)" style="fill: none; stroke: #b0b0b0; stroke-width: 0.8; stroke-linecap: square"/>
     </g>
     <g id="line2d_34">
      <g>
       <use xlink:href="#m7c144c0b6f" x="50.76875" y="67.482653" style="stroke: #000000; stroke-width: 0.8"/>
      </g>
     </g>
     <g id="text_18">
      <!-- 175 -->
      <g transform="translate(24.68125 71.281871)scale(0.1 -0.1)">
       <use xlink:href="#DejaVuSans-31"/>
       <use xlink:href="#DejaVuSans-37" x="63.623047"/>
       <use xlink:href="#DejaVuSans-35" x="127.246094"/>
      </g>
     </g>
    </g>
    <g id="ytick_9">
     <g id="line2d_35">
      <path d="M 50.76875 41.880174 
L 415.650618 41.880174 
" clip-path="url(#p6210bc09c1)" style="fill: none; stroke: #b0b0b0; stroke-width: 0.8; stroke-linecap: square"/>
     </g>
     <g id="line2d_36">
      <g>
       <use xlink:href="#m7c144c0b6f" x="50.76875" y="41.880174" style="stroke: #000000; stroke-width: 0.8"/>
      </g>
     </g>
     <g id="text_19">
      <!-- 200 -->
      <g transform="translate(24.68125 45.679393)scale(0.1 -0.1)">
       <use xlink:href="#DejaVuSans-32"/>
       <use xlink:href="#DejaVuSans-30" x="63.623047"/>
       <use xlink:href="#DejaVuSans-30" x="127.246094"/>
      </g>
     </g>
    </g>
    <g id="text_20">
     <!-- Tiempo -->
     <g transform="translate(18.601562 154.717187)rotate(-90)scale(0.1 -0.1)">
      <use xlink:href="#DejaVuSans-54"/>
      <use xlink:href="#DejaVuSans-69" x="57.958984"/>
      <use xlink:href="#DejaVuSans-65" x="85.742188"/>
      <use xlink:href="#DejaVuSans-6d" x="147.265625"/>
      <use xlink:href="#DejaVuSans-70" x="244.677734"/>
      <use xlink:href="#DejaVuSans-6f" x="308.154297"/>
     </g>
    </g>
   </g>
   <g id="line2d_37">
    <path d="M 53.315939 245.675798 
L 56.757512 245.675798 
L 60.038339 244.452889 
L 60.366339 242.253417 
L 63.647166 243.623851 
L 65.474387 245.675798 
L 68.227188 245.675798 
L 72.669233 243.101284 
L 77.181125 246.7 
L 77.84121 245.675798 
L 79.886887 244.520974 
L 83.219969 245.675798 
L 83.794735 246.7 
L 85.300128 242.222928 
L 89.809291 245.675798 
L 90.713368 239.972038 
L 91.613705 244.759109 
L 95.056192 246.7 
L 98.754541 245.01288 
L 100.558954 244.948504 
L 115.975157 235.279284 
L 117.77957 241.705787 
L 121.388397 233.136831 
L 126.801638 230.117462 
L 134.019292 238.766682 
L 137.628119 236.602464 
L 140.484308 246.7 
L 141.236946 238.926412 
L 144.845773 237.944487 
L 160.8444 246.7 
L 164.694321 225.823027 
L 166.498735 225.905043 
L 168.303148 235.025766 
L 168.910348 246.7 
L 180.934042 232.499439 
L 184.542869 206.764192 
L 190.503611 246.7 
L 198.978177 217.204617 
L 199.330823 246.7 
L 199.941511 246.7 
L 208.000245 225.554193 
L 209.245909 246.7 
L 210.035772 246.7 
L 211.609072 196.090712 
L 213.292495 246.7 
L 218.826726 210.305031 
L 229.653207 194.017642 
L 236.147058 246.7 
L 238.675274 171.748041 
L 242.284101 218.947936 
L 242.613555 246.7 
L 247.697341 204.831078 
L 254.914995 202.328077 
L 259.823151 246.7 
L 262.132649 213.844819 
L 263.937063 213.216528 
L 278.372371 211.46935 
L 280.176784 154.920669 
L 292.608021 246.7 
L 296.416506 191.99074 
L 298.220919 145.971166 
L 303.63416 168.474817 
L 305.438573 194.644432 
L 310.851813 193.180801 
L 313.211271 246.7 
L 314.46064 165.303678 
L 318.419402 246.7 
L 318.555701 246.7 
L 320.714614 246.7 
L 321.426816 246.7 
L 321.678294 163.994631 
L 326.935342 246.7 
L 330.32806 214.817038 
L 331.017847 246.7 
L 334.309189 187.965702 
L 346.940083 127.063315 
L 356.113608 207.232876 
L 357.766564 150.452917 
L 357.918022 207.457385 
L 361.656158 246.7 
L 363.331262 211.794123 
L 368.744503 205.002946 
L 371.921615 246.7 
L 374.006285 182.853291 
L 378.84487 201.919702 
L 386.63718 144.443585 
L 390.57793 209.737828 
L 392.382344 208.777944 
L 395.803135 246.7 
L 396.218225 246.7 
L 402.876901 81.025 
L 404.833867 197.701048 
" clip-path="url(#p6210bc09c1)" style="fill: none; stroke: #1f77b4; stroke-width: 1.5; stroke-linecap: square"/>
   </g>
   <g id="line2d_38">
    <path d="M 55.374593 245.675798 
L 60.038519 244.651597 
L 61.784083 246.7 
L 63.469994 244.641711 
L 69.060587 244.666214 
L 70.865 239.928564 
L 74.473827 238.492517 
L 77.761448 244.651597 
L 78.082654 239.921538 
L 81.370275 242.493115 
L 88.909135 237.486029 
L 98.723721 246.7 
L 99.284835 246.7 
L 112.157328 246.7 
L 112.36651 235.055216 
L 114.170924 229.224233 
L 116.320431 246.7 
L 117.779751 239.708264 
L 119.584164 239.35109 
L 121.388578 225.642253 
L 124.935463 246.7 
L 128.606232 232.716309 
L 132.215059 232.863685 
L 142.959368 246.7 
L 144.834093 246.7 
L 145.121016 246.7 
L 146.650367 226.37653 
L 152.063607 226.52057 
L 153.082687 246.7 
L 155.033343 246.7 
L 159.281261 208.611357 
L 161.085675 225.804088 
L 163.359259 246.7 
L 167.814554 246.7 
L 168.303328 225.518112 
L 171.912155 219.880798 
L 174.242084 246.7 
L 175.520982 222.950319 
L 176.966428 246.7 
L 184.54305 232.704873 
L 186.347463 213.208016 
L 189.95629 211.163972 
L 191.760704 232.322816 
L 200.559757 242.157575 
L 202.587185 206.73663 
L 206.196012 229.66453 
L 209.342615 246.7 
L 218.826906 201.65408 
L 223.66513 225.089234 
L 225.469543 225.510616 
L 225.920631 246.7 
L 226.04456 210.805779 
L 227.848974 170.937715 
L 229.325407 246.7 
L 229.653387 209.936303 
L 233.262214 195.825152 
L 235.066627 226.879899 
L 242.072609 246.7 
L 251.306349 173.308074 
L 252.535745 242.145155 
L 253.110762 223.334588 
L 254.340159 223.384128 
L 256.144572 240.647086 
L 257.948986 221.446069 
L 260.328416 198.444495 
L 262.149087 246.7 
L 266.971053 222.686453 
L 268.11684 246.7 
L 272.959311 218.278854 
L 279.601948 221.613549 
L 283.210775 222.045039 
L 285.590205 216.821514 
L 291.003446 189.285042 
L 295.841669 220.752802 
L 296.416686 213.874853 
L 297.646083 219.99779 
L 301.775746 243.627395 
L 309.04758 184.833869 
L 319.299044 217.837951 
L 323.482888 179.426483 
L 328.896129 212.361595 
L 330.125525 243.156157 
L 333.734352 215.535312 
L 335.538766 215.214764 
L 345.13585 118.513797 
L 346.940264 175.020481 
L 347.805665 246.7 
L 355.962331 134.636141 
L 358.996141 242.841837 
L 361.375572 111.639005 
L 365.117394 246.7 
L 368.018209 213.713536 
L 375.340572 246.7 
L 377.615293 207.991684 
L 386.126302 246.7 
L 386.63736 169.830809 
L 388.441774 206.66033 
L 390.246187 98.068616 
L 395.659428 204.886905 
L 407.483522 243.627395 
L 409.287935 208.498465 
L 410.536382 246.7 
" clip-path="url(#p6210bc09c1)" style="fill: none; stroke: #ff7f0e; stroke-width: 1.5; stroke-linecap: square"/>
   </g>
   <g id="line2d_39">
    <path d="M 58.056573 244.651597 
L 59.860986 242.036499 
L 68.29258 241.413556 
L 69.508623 245.675798 
L 77.761268 244.740561 
L 79.119061 240.500447 
L 80.923474 240.206104 
L 81.370095 245.508608 
L 84.532301 239.285506 
L 85.759721 241.502761 
L 89.945542 235.081636 
L 104.573659 237.086612 
L 106.185263 230.842379 
L 107.989676 238.670904 
L 109.9869 234.946942 
L 111.598503 231.888578 
L 131.447052 239.603537 
L 137.053102 234.707806 
L 142.273533 239.021948 
L 144.077946 228.832164 
L 149.491187 238.968319 
L 158.706064 232.436646 
L 160.510477 231.708012 
L 167.535322 234.209339 
L 169.339735 200.707709 
L 172.948562 235.800618 
L 174.752975 204.132481 
L 176.750199 229.150625 
L 180.359026 227.294537 
L 181.970629 201.786302 
L 183.775043 233.455304 
L 189.733095 226.66928 
L 194.601524 221.652035 
L 195.146336 228.112028 
L 196.405937 223.455068 
L 198.210351 234.316437 
L 201.819178 184.947396 
L 202.36399 224.817525 
L 205.620814 224.557094 
L 209.229641 226.838096 
L 210.841245 233.293461 
L 220.056122 224.71211 
L 225.469363 224.492264 
L 227.080967 192.849511 
L 232.494207 232.401023 
L 234.29862 166.583947 
L 241.516274 213.14666 
L 246.929515 230.536312 
L 247.122325 221.617389 
L 259.560409 206.713469 
L 259.753219 223.020648 
L 270.38689 229.121924 
L 274.188527 221.872136 
L 277.604544 227.495414 
L 279.408958 203.775175 
L 285.015008 220.68171 
L 290.235439 225.640406 
L 293.844266 200.657225 
L 295.648679 226.345469 
L 299.257506 226.380241 
L 308.279573 197.16875 
L 311.8884 159.882625 
L 313.692814 195.098322 
L 315.497227 194.794325 
L 324.519295 159.492077 
L 331.736949 223.600224 
L 335.345776 222.883401 
L 338.954603 152.84725 
L 344.367843 221.651253 
L 349.781084 146.728184 
L 351.585497 108.823174 
L 364.216391 120.269749 
L 366.020805 218.316537 
L 380.456113 112.250373 
L 393.087007 108.564756 
L 396.695834 88.83782 
L 398.500248 181.391822 
L 400.304661 181.752123 
L 403.913488 216.770721 
L 405.717902 216.67375 
" clip-path="url(#p6210bc09c1)" style="fill: none; stroke: #2ca02c; stroke-width: 1.5; stroke-linecap: square"/>
   </g>
   <g id="line2d_40">
    <path d="M 54.159178 246.7 
L 57.733433 244.651597 
L 60.032059 246.7 
L 62.321527 242.603194 
L 63.648321 242.049812 
L 64.125941 243.140948 
L 65.930354 245.038416 
L 67.257148 241.369604 
L 74.895879 246.7 
L 74.912842 246.7 
L 76.279215 237.691993 
L 80.3463 245.675798 
L 81.692456 237.019155 
L 82.150714 243.490962 
L 88.910109 237.091816 
L 90.714523 236.318002 
L 99.160238 241.10618 
L 100.964652 240.269018 
L 104.573479 245.653765 
L 106.377892 234.981735 
L 106.954244 226.594577 
L 110.563071 226.687111 
L 112.367485 227.225655 
L 114.171898 232.400966 
L 121.076269 235.68407 
L 121.389552 230.188638 
L 124.685096 236.807501 
L 126.48951 237.06783 
L 131.442657 246.7 
L 137.629274 218.069712 
L 138.857335 233.969037 
L 142.453145 246.7 
L 143.94272 246.7 
L 145.515518 246.7 
L 146.651341 225.476861 
L 150.260168 213.51398 
L 153.292643 234.310878 
L 155.55509 246.7 
L 155.673408 222.654768 
L 160.510297 232.287647 
L 164.119124 232.502415 
L 166.499889 211.072425 
L 171.336778 231.149473 
L 177.32637 202.334539 
L 180.358845 229.146367 
L 186.348438 213.875453 
L 189.732915 245.361924 
L 191.537328 227.704818 
L 195.260217 246.7 
L 198.754982 225.108948 
L 199.284863 246.7 
L 201.629315 246.7 
L 213.731821 246.7 
L 215.219054 205.492939 
L 216.447115 225.067944 
L 220.168077 246.7 
L 220.632294 192.376545 
L 227.849948 184.201591 
L 231.436875 245.675798 
L 236.872015 199.651359 
L 238.100077 224.564434 
L 243.513317 243.953161 
L 244.445126 246.7 
L 247.122144 222.683886 
L 247.711315 246.7 
L 249.50291 178.977221 
L 259.753038 244.118298 
L 260.61031 246.7 
L 269.351458 195.556992 
L 283.152135 246.7 
L 284.698379 246.7 
L 289.200006 177.457598 
L 298.222074 161.300024 
L 302.935407 246.7 
L 305.439728 135.548167 
L 307.15495 246.7 
L 307.98984 217.24863 
L 315.103227 246.7 
L 317.49427 216.172511 
L 320.430145 246.7 
L 328.320751 244.545692 
L 332.50593 146.415476 
L 363.180959 166.523241 
L 364.604935 246.7 
L 367.287023 246.7 
L 369.348367 246.7 
L 373.975161 246.7 
L 375.235502 199.507963 
L 377.616267 144.168511 
L 380.648742 201.76506 
L 385.585504 246.7 
L 391.745083 245.675798 
L 395.04234 246.7 
L 397.464816 117.543036 
L 400.49729 196.901834 
L 407.861022 246.7 
" clip-path="url(#p6210bc09c1)" style="fill: none; stroke: #d62728; stroke-width: 1.5; stroke-linecap: square"/>
   </g>
   <g id="line2d_41">
    <path d="M 64.125761 243.121285 
L 65.452915 244.707732 
L 74.474982 239.537378 
L 80.750759 246.7 
L 88.333577 243.640982 
L 90.13799 240.556454 
L 92.519117 229.594724 
L 101.208981 246.7 
L 108.182125 234.539584 
L 109.986539 240.152986 
L 112.367665 236.054799 
L 113.595366 235.023507 
L 114.986771 246.7 
L 117.780906 233.831061 
L 124.99856 220.797189 
L 129.835087 237.086589 
L 140.661568 236.713949 
L 142.465981 232.694523 
L 144.847108 226.309187 
L 146.074808 236.963055 
L 146.651521 227.470068 
L 149.683635 235.991226 
L 153.869175 227.000967 
L 160.510116 230.246881 
L 161.086829 224.691439 
L 167.72777 230.040466 
L 168.226702 246.7 
L 169.24469 246.7 
L 174.945424 230.872566 
L 174.962019 246.7 
L 175.522137 220.297875 
L 175.819729 246.7 
L 180.358665 226.724139 
L 180.935378 189.555611 
L 183.967492 228.701081 
L 186.158107 246.7 
L 193.566272 188.238298 
L 195.512803 246.7 
L 196.598386 229.258012 
L 200.737967 246.7 
L 201.228525 246.7 
L 212.838107 224.753477 
L 215.219234 213.042511 
L 220.632474 211.00419 
L 223.664588 224.014104 
L 231.458955 181.155964 
L 232.503468 246.7 
L 234.491069 225.807093 
L 236.872196 179.528938 
L 241.0647 246.7 
L 256.144031 226.507706 
L 260.329571 202.772574 
L 264.104342 246.7 
L 265.742812 202.488641 
L 266.377303 246.7 
L 266.970512 221.813208 
L 269.520256 246.7 
L 271.156052 200.482181 
L 278.373706 198.728016 
L 278.543028 246.7 
L 280.178119 150.598969 
L 286.81906 221.420119 
L 287.395773 161.188207 
L 287.856856 246.7 
L 288.623474 222.156788 
L 294.326732 246.7 
L 297.645541 221.883272 
L 300.026668 193.786988 
L 305.439908 136.885304 
L 306.667609 222.60435 
L 308.472022 222.009102 
L 314.461976 150.023741 
L 316.513333 246.7 
L 319.040003 246.7 
L 321.102917 219.389101 
L 330.124984 216.196114 
L 340.951465 209.5543 
L 342.755878 208.892936 
L 343.332591 140.6173 
L 349.973532 205.550064 
L 357.191186 203.613152 
L 357.767899 185.434358 
L 363.671325 246.7 
L 364.40884 203.463676 
L 365.749142 246.7 
L 366.213254 215.449615 
L 368.017667 202.545537 
L 368.59438 182.030125 
L 369.822081 215.140352 
L 379.420861 179.891476 
L 384.834102 178.043707 
L 384.874525 246.7 
L 387.866216 198.446589 
L 392.051756 175.264183 
L 396.888283 197.117705 
L 399.26941 174.115206 
L 400.49711 203.31901 
L 407.714764 198.115022 
L 409.6601 246.7 
" clip-path="url(#p6210bc09c1)" style="fill: none; stroke: #9467bd; stroke-width: 1.5; stroke-linecap: square"/>
   </g>
   <g id="line2d_42">
    <path d="M 55.236439 245.675798 
L 55.253129 245.316797 
L 70.093142 245.675798 
L 71.897556 243.041154 
L 72.670749 240.118661 
L 75.445383 242.577696 
L 84.724569 242.765454 
L 84.865172 244.238352 
L 86.669585 241.919279 
L 90.13781 243.720795 
L 91.942223 241.807501 
L 93.746637 239.9957 
L 93.887239 239.44768 
L 99.30048 228.026084 
L 100.964291 239.239904 
L 101.104893 237.283912 
L 102.909307 237.549198 
L 109.986358 236.217051 
L 113.595185 236.380748 
L 115.399599 231.716444 
L 120.812839 231.050961 
L 124.421666 235.89209 
L 126.22608 234.827809 
L 129.834907 237.74026 
L 131.779923 234.49197 
L 133.443734 236.094267 
L 137.052561 235.630368 
L 142.465801 232.825806 
L 144.410817 218.90923 
L 146.074628 236.721977 
L 151.487868 227.391525 
L 155.237298 215.718695 
L 157.041711 214.939102 
L 158.846125 214.167812 
L 162.314349 233.812049 
L 164.118763 231.327264 
L 169.532003 228.999998 
L 180.358484 228.842729 
L 187.576138 230.696023 
L 191.184965 227.706031 
L 198.402619 223.643434 
L 200.347635 223.64726 
L 202.011446 229.739636 
L 202.152049 223.669502 
L 205.620273 229.972396 
L 205.760876 222.650455 
L 207.424687 227.386629 
L 209.2291 225.46982 
L 212.97853 197.124688 
L 216.587356 176.716888 
L 223.664408 225.990213 
L 225.468821 227.030182 
L 227.273235 230.078248 
L 229.077648 227.503975 
L 230.882062 229.07051 
L 236.295302 230.939527 
L 239.904129 219.232573 
L 240.044732 188.139038 
L 243.653559 215.785648 
L 247.121783 222.559734 
L 248.926197 222.467125 
L 250.73061 222.631268 
L 256.143851 221.206916 
L 257.948264 224.039201 
L 261.557091 222.458199 
L 263.361505 223.389288 
L 265.306521 181.255066 
L 266.970332 224.755553 
L 270.579159 221.397342 
L 274.187985 219.706873 
L 277.796812 215.539245 
L 281.405639 225.091622 
L 283.210053 219.629591 
L 285.155069 175.273016 
L 292.23212 216.123654 
L 294.036534 221.527267 
L 297.645361 221.744234 
L 299.449774 222.42241 
L 301.254188 219.742351 
L 301.39479 209.994493 
L 306.808031 209.158036 
L 308.471842 213.262537 
L 310.276255 221.196014 
L 315.689496 218.140911 
L 317.493909 221.741819 
L 326.515977 214.95557 
L 330.124804 220.299364 
L 331.929217 207.731398 
L 332.06982 203.416988 
L 333.733631 215.75845 
L 335.538044 211.58651 
L 337.342458 220.434214 
L 344.560111 206.098244 
L 350.113954 155.319016 
L 351.777765 202.903984 
L 353.582179 203.578449 
L 358.995419 218.28532 
L 364.549262 197.934364 
L 373.430727 197.248296 
L 375.235141 202.562272 
L 378.843968 207.641696 
L 384.257208 200.417979 
L 387.866035 198.060924 
L 389.670449 195.600927 
L 391.474862 199.507913 
L 398.833119 139.975718 
L 402.301343 196.170404 
L 402.441946 138.45539 
L 404.105756 196.374379 
L 407.714583 197.658498 
" clip-path="url(#p6210bc09c1)" style="fill: none; stroke: #8c564b; stroke-width: 1.5; stroke-linecap: square"/>
   </g>
   <g id="line2d_43">
    <path d="M 53.210589 245.675798 
L 55.015003 245.037519 
L 58.845446 244.048994 
L 60.64986 243.836945 
L 62.495993 245.675798 
L 64.258687 243.344636 
L 66.527044 243.151446 
L 81.115562 244.651597 
L 83.060939 244.651597 
L 99.30066 237.527681 
L 113.735968 231.956925 
L 114.20119 243.627395 
L 118.365949 243.443204 
L 119.819995 246.7 
L 142.606584 232.666888 
L 144.410997 231.893896 
L 146.006091 246.7 
L 146.055169 243.200203 
L 151.184097 246.7 
L 154.724358 243.627395 
L 159.42663 246.7 
L 164.259546 211.802894 
L 171.4772 227.698343 
L 176.687194 246.7 
L 178.694854 226.212144 
L 181.406223 246.7 
L 185.912508 223.67494 
L 186.864996 243.378585 
L 187.716921 188.706414 
L 194.392953 243.465 
L 194.71148 246.7 
L 197.676768 246.7 
L 200.708016 246.7 
L 202.3521 246.7 
L 214.264014 246.7 
L 228.754178 246.7 
L 234.631672 217.371793 
L 235.017382 246.7 
L 236.489133 239.696377 
L 240.044912 216.442483 
L 249.495138 241.971768 
L 252.675807 159.571275 
L 253.273943 246.7 
L 259.893461 183.434693 
L 261.697874 213.85421 
L 262.35388 246.7 
L 269.61291 246.7 
L 270.752877 241.725852 
L 274.328768 210.846812 
L 274.361704 240.040594 
L 277.937595 177.34769 
L 279.742009 176.699707 
L 279.774944 239.274913 
L 281.546422 211.065695 
L 290.601425 236.607582 
L 292.648572 246.7 
L 306.808211 169.516442 
L 312.254387 233.144152 
L 314.025865 208.364829 
L 329.809583 246.7 
L 339.287654 112.458333 
L 339.707096 246.7 
L 344.700894 200.642861 
L 344.73383 226.993014 
L 348.499912 246.7 
L 350.6902 246.7 
L 351.951484 230.083571 
L 362.723805 246.7 
L 368.191205 235.41185 
L 375.375924 195.439843 
L 378.330015 246.7 
L 378.984751 145.880033 
L 380.789164 194.796289 
L 380.8221 231.725042 
L 386.202405 95.909175 
L 388.006818 95.090349 
L 388.555149 246.7 
L 389.811232 192.945091 
L 397.028886 192.544501 
L 398.866235 232.686111 
L 409.65978 84.387501 
L 409.692715 233.803058 
" clip-path="url(#p6210bc09c1)" style="fill: none; stroke: #e377c2; stroke-width: 1.5; stroke-linecap: square"/>
   </g>
   <g id="line2d_44">
    <path d="M 54.194718 245.675798 
L 59.309209 245.675798 
L 59.688045 245.545043 
L 62.918036 245.083219 
L 64.289198 246.7 
L 66.526863 244.649481 
L 66.905699 241.592388 
L 68.331277 244.657693 
L 68.710112 241.07572 
L 72.318939 244.471251 
L 73.640609 244.795665 
L 89.209497 246.7 
L 95.692014 245.311749 
L 96.950308 241.578992 
L 99.300841 238.828634 
L 110.127322 233.849057 
L 114.201009 244.296157 
L 122.758216 227.793888 
L 125.448237 240.551239 
L 127.252651 243.142252 
L 130.861478 240.931289 
L 138.909786 246.7 
L 142.300493 246.7 
L 142.606764 218.606704 
L 146.054988 239.760966 
L 146.215591 225.916145 
L 148.416493 246.7 
L 149.663815 244.26365 
L 154.724177 243.732521 
L 155.237659 236.708629 
L 157.042072 236.282014 
L 162.455313 233.722075 
L 165.69174 246.7 
L 172.799011 246.7 
L 182.303861 201.470497 
L 191.400597 246.7 
L 194.392773 240.982887 
L 200.553208 246.7 
L 207.56565 211.207251 
L 213.829153 240.439056 
L 215.955336 244.651597 
L 216.394982 246.7 
L 228.466017 246.7 
L 229.271298 242.67327 
L 231.023025 164.338354 
L 231.075712 242.276911 
L 232.827439 231.880998 
L 241.849506 230.560911 
L 247.690544 240.842214 
L 247.690599 246.7 
L 248.508512 246.7 
L 253.292394 244.012724 
L 261.698055 147.376229 
L 265.306881 170.202762 
L 270.720122 226.5964 
L 272.728549 238.611498 
L 277.937776 226.158078 
L 281.546603 165.269986 
L 287.234549 246.7 
L 306.808392 157.802194 
L 307.012405 241.003317 
L 314.143416 246.7 
L 314.229887 246.7 
L 317.634873 224.210935 
L 317.721853 246.7 
L 321.447713 237.013652 
L 321.750925 246.7 
L 328.461353 225.049554 
L 337.687434 238.726059 
L 344.701075 224.339055 
L 344.905088 237.345359 
L 348.513915 239.290368 
L 350.114315 146.563572 
L 353.927155 242.820328 
L 360.940796 103.325135 
L 366.55805 236.923126 
L 366.822717 246.7 
L 369.962864 180.995289 
L 370.166877 240.122859 
L 373.571691 222.148657 
L 373.775704 241.153194 
L 380.94185 246.7 
L 383.269473 244.651597 
L 385.073887 240.314379 
L 386.202585 221.888797 
L 400.349569 244.084482 
L 404.24672 219.953946 
L 405.76281 243.100377 
L 409.65996 81.079622 
L 411.17605 238.500332 
" clip-path="url(#p6210bc09c1)" style="fill: none; stroke: #7f7f7f; stroke-width: 1.5; stroke-linecap: square"/>
   </g>
   <g id="patch_3">
    <path d="M 50.76875 246.7 
L 50.76875 25.8 
" style="fill: none; stroke: #000000; stroke-width: 0.8; stroke-linejoin: miter; stroke-linecap: square"/>
   </g>
   <g id="patch_4">
    <path d="M 415.650618 246.7 
L 415.650618 25.8 
" style="fill: none; stroke: #000000; stroke-width: 0.8; stroke-linejoin: miter; stroke-linecap: square"/>
   </g>
   <g id="patch_5">
    <path d="M 50.76875 246.7 
L 415.650618 246.7 
" style="fill: none; stroke: #000000; stroke-width: 0.8; stroke-linejoin: miter; stroke-linecap: square"/>
   </g>
   <g id="patch_6">
    <path d="M 50.76875 25.8 
L 415.650618 25.8 
" style="fill: none; stroke: #000000; stroke-width: 0.8; stroke-linejoin: miter; stroke-linecap: square"/>
   </g>
   <g id="text_21">
    <!-- Demora -->
    <g transform="translate(209.238747 19.8)scale(0.12 -0.12)">
     <defs>
      <path id="DejaVuSans-44" d="M 1259 4147 
L 1259 519 
L 2022 519 
Q 2988 519 3436 956 
Q 3884 1394 3884 2338 
Q 3884 3275 3436 3711 
Q 2988 4147 2022 4147 
L 1259 4147 
z
M 628 4666 
L 1925 4666 
Q 3281 4666 3915 4102 
Q 4550 3538 4550 2338 
Q 4550 1131 3912 565 
Q 3275 0 1925 0 
L 628 0 
L 628 4666 
z
" transform="scale(0.015625)"/>
      <path id="DejaVuSans-72" d="M 2631 2963 
Q 2534 3019 2420 3045 
Q 2306 3072 2169 3072 
Q 1681 3072 1420 2755 
Q 1159 2438 1159 1844 
L 1159 0 
L 581 0 
L 581 3500 
L 1159 3500 
L 1159 2956 
Q 1341 3275 1631 3429 
Q 1922 3584 2338 3584 
Q 2397 3584 2469 3576 
Q 2541 3569 2628 3553 
L 2631 2963 
z
" transform="scale(0.015625)"/>
      <path id="DejaVuSans-61" d="M 2194 1759 
Q 1497 1759 1228 1600 
Q 959 1441 959 1056 
Q 959 750 1161 570 
Q 1363 391 1709 391 
Q 2188 391 2477 730 
Q 2766 1069 2766 1631 
L 2766 1759 
L 2194 1759 
z
M 3341 1997 
L 3341 0 
L 2766 0 
L 2766 531 
Q 2569 213 2275 61 
Q 1981 -91 1556 -91 
Q 1019 -91 701 211 
Q 384 513 384 1019 
Q 384 1609 779 1909 
Q 1175 2209 1959 2209 
L 2766 2209 
L 2766 2266 
Q 2766 2663 2505 2880 
Q 2244 3097 1772 3097 
Q 1472 3097 1187 3025 
Q 903 2953 641 2809 
L 641 3341 
Q 956 3463 1253 3523 
Q 1550 3584 1831 3584 
Q 2591 3584 2966 3190 
Q 3341 2797 3341 1997 
z
" transform="scale(0.015625)"/>
     </defs>
     <use xlink:href="#DejaVuSans-44"/>
     <use xlink:href="#DejaVuSans-65" x="77.001953"/>
     <use xlink:href="#DejaVuSans-6d" x="138.525391"/>
     <use xlink:href="#DejaVuSans-6f" x="235.9375"/>
     <use xlink:href="#DejaVuSans-72" x="297.119141"/>
     <use xlink:href="#DejaVuSans-61" x="338.232422"/>
    </g>
   </g>
   <g id="legend_1">
    <g id="patch_7">
     <path d="M 270.592806 151.225 
L 408.650618 151.225 
Q 410.650618 151.225 410.650618 149.225 
L 410.650618 32.8 
Q 410.650618 30.8 408.650618 30.8 
L 270.592806 30.8 
Q 268.592806 30.8 268.592806 32.8 
L 268.592806 149.225 
Q 268.592806 151.225 270.592806 151.225 
z
" style="fill: #ffffff; opacity: 0.8; stroke: #cccccc; stroke-linejoin: miter"/>
    </g>
    <g id="line2d_45">
     <path d="M 272.592806 38.898438 
L 282.592806 38.898438 
L 292.592806 38.898438 
" style="fill: none; stroke: #1f77b4; stroke-width: 1.5; stroke-linecap: square"/>
    </g>
    <g id="text_22">
     <!-- Network.node[0].app -->
     <g transform="translate(300.592806 42.398438)scale(0.1 -0.1)">
      <defs>
       <path id="DejaVuSans-4e" d="M 628 4666 
L 1478 4666 
L 3547 763 
L 3547 4666 
L 4159 4666 
L 4159 0 
L 3309 0 
L 1241 3903 
L 1241 0 
L 628 0 
L 628 4666 
z
" transform="scale(0.015625)"/>
       <path id="DejaVuSans-74" d="M 1172 4494 
L 1172 3500 
L 2356 3500 
L 2356 3053 
L 1172 3053 
L 1172 1153 
Q 1172 725 1289 603 
Q 1406 481 1766 481 
L 2356 481 
L 2356 0 
L 1766 0 
Q 1100 0 847 248 
Q 594 497 594 1153 
L 594 3053 
L 172 3053 
L 172 3500 
L 594 3500 
L 594 4494 
L 1172 4494 
z
" transform="scale(0.015625)"/>
       <path id="DejaVuSans-77" d="M 269 3500 
L 844 3500 
L 1563 769 
L 2278 3500 
L 2956 3500 
L 3675 769 
L 4391 3500 
L 4966 3500 
L 4050 0 
L 3372 0 
L 2619 2869 
L 1863 0 
L 1184 0 
L 269 3500 
z
" transform="scale(0.015625)"/>
       <path id="DejaVuSans-6b" d="M 581 4863 
L 1159 4863 
L 1159 1991 
L 2875 3500 
L 3609 3500 
L 1753 1863 
L 3688 0 
L 2938 0 
L 1159 1709 
L 1159 0 
L 581 0 
L 581 4863 
z
" transform="scale(0.015625)"/>
       <path id="DejaVuSans-2e" d="M 684 794 
L 1344 794 
L 1344 0 
L 684 0 
L 684 794 
z
" transform="scale(0.015625)"/>
       <path id="DejaVuSans-6e" d="M 3513 2113 
L 3513 0 
L 2938 0 
L 2938 2094 
Q 2938 2591 2744 2837 
Q 2550 3084 2163 3084 
Q 1697 3084 1428 2787 
Q 1159 2491 1159 1978 
L 1159 0 
L 581 0 
L 581 3500 
L 1159 3500 
L 1159 2956 
Q 1366 3272 1645 3428 
Q 1925 3584 2291 3584 
Q 2894 3584 3203 3211 
Q 3513 2838 3513 2113 
z
" transform="scale(0.015625)"/>
       <path id="DejaVuSans-64" d="M 2906 2969 
L 2906 4863 
L 3481 4863 
L 3481 0 
L 2906 0 
L 2906 525 
Q 2725 213 2448 61 
Q 2172 -91 1784 -91 
Q 1150 -91 751 415 
Q 353 922 353 1747 
Q 353 2572 751 3078 
Q 1150 3584 1784 3584 
Q 2172 3584 2448 3432 
Q 2725 3281 2906 2969 
z
M 947 1747 
Q 947 1113 1208 752 
Q 1469 391 1925 391 
Q 2381 391 2643 752 
Q 2906 1113 2906 1747 
Q 2906 2381 2643 2742 
Q 2381 3103 1925 3103 
Q 1469 3103 1208 2742 
Q 947 2381 947 1747 
z
" transform="scale(0.015625)"/>
       <path id="DejaVuSans-5b" d="M 550 4863 
L 1875 4863 
L 1875 4416 
L 1125 4416 
L 1125 -397 
L 1875 -397 
L 1875 -844 
L 550 -844 
L 550 4863 
z
" transform="scale(0.015625)"/>
       <path id="DejaVuSans-5d" d="M 1947 4863 
L 1947 -844 
L 622 -844 
L 622 -397 
L 1369 -397 
L 1369 4416 
L 622 4416 
L 622 4863 
L 1947 4863 
z
" transform="scale(0.015625)"/>
      </defs>
      <use xlink:href="#DejaVuSans-4e"/>
      <use xlink:href="#DejaVuSans-65" x="74.804688"/>
      <use xlink:href="#DejaVuSans-74" x="136.328125"/>
      <use xlink:href="#DejaVuSans-77" x="175.537109"/>
      <use xlink:href="#DejaVuSans-6f" x="257.324219"/>
      <use xlink:href="#DejaVuSans-72" x="318.505859"/>
      <use xlink:href="#DejaVuSans-6b" x="359.619141"/>
      <use xlink:href="#DejaVuSans-2e" x="417.529297"/>
      <use xlink:href="#DejaVuSans-6e" x="449.316406"/>
      <use xlink:href="#DejaVuSans-6f" x="512.695312"/>
      <use xlink:href="#DejaVuSans-64" x="573.876953"/>
      <use xlink:href="#DejaVuSans-65" x="637.353516"/>
      <use xlink:href="#DejaVuSans-5b" x="698.876953"/>
      <use xlink:href="#DejaVuSans-30" x="737.890625"/>
      <use xlink:href="#DejaVuSans-5d" x="801.513672"/>
      <use xlink:href="#DejaVuSans-2e" x="840.527344"/>
      <use xlink:href="#DejaVuSans-61" x="872.314453"/>
      <use xlink:href="#DejaVuSans-70" x="933.59375"/>
      <use xlink:href="#DejaVuSans-70" x="997.070312"/>
     </g>
    </g>
    <g id="line2d_46">
     <path d="M 272.592806 53.576563 
L 282.592806 53.576563 
L 292.592806 53.576563 
" style="fill: none; stroke: #ff7f0e; stroke-width: 1.5; stroke-linecap: square"/>
    </g>
    <g id="text_23">
     <!-- Network.node[1].app -->
     <g transform="translate(300.592806 57.076563)scale(0.1 -0.1)">
      <use xlink:href="#DejaVuSans-4e"/>
      <use xlink:href="#DejaVuSans-65" x="74.804688"/>
      <use xlink:href="#DejaVuSans-74" x="136.328125"/>
      <use xlink:href="#DejaVuSans-77" x="175.537109"/>
      <use xlink:href="#DejaVuSans-6f" x="257.324219"/>
      <use xlink:href="#DejaVuSans-72" x="318.505859"/>
      <use xlink:href="#DejaVuSans-6b" x="359.619141"/>
      <use xlink:href="#DejaVuSans-2e" x="417.529297"/>
      <use xlink:href="#DejaVuSans-6e" x="449.316406"/>
      <use xlink:href="#DejaVuSans-6f" x="512.695312"/>
      <use xlink:href="#DejaVuSans-64" x="573.876953"/>
      <use xlink:href="#DejaVuSans-65" x="637.353516"/>
      <use xlink:href="#DejaVuSans-5b" x="698.876953"/>
      <use xlink:href="#DejaVuSans-31" x="737.890625"/>
      <use xlink:href="#DejaVuSans-5d" x="801.513672"/>
      <use xlink:href="#DejaVuSans-2e" x="840.527344"/>
      <use xlink:href="#DejaVuSans-61" x="872.314453"/>
      <use xlink:href="#DejaVuSans-70" x="933.59375"/>
      <use xlink:href="#DejaVuSans-70" x="997.070312"/>
     </g>
    </g>
    <g id="line2d_47">
     <path d="M 272.592806 68.254687 
L 282.592806 68.254687 
L 292.592806 68.254687 
" style="fill: none; stroke: #2ca02c; stroke-width: 1.5; stroke-linecap: square"/>
    </g>
    <g id="text_24">
     <!-- Network.node[2].app -->
     <g transform="translate(300.592806 71.754687)scale(0.1 -0.1)">
      <use xlink:href="#DejaVuSans-4e"/>
      <use xlink:href="#DejaVuSans-65" x="74.804688"/>
      <use xlink:href="#DejaVuSans-74" x="136.328125"/>
      <use xlink:href="#DejaVuSans-77" x="175.537109"/>
      <use xlink:href="#DejaVuSans-6f" x="257.324219"/>
      <use xlink:href="#DejaVuSans-72" x="318.505859"/>
      <use xlink:href="#DejaVuSans-6b" x="359.619141"/>
      <use xlink:href="#DejaVuSans-2e" x="417.529297"/>
      <use xlink:href="#DejaVuSans-6e" x="449.316406"/>
      <use xlink:href="#DejaVuSans-6f" x="512.695312"/>
      <use xlink:href="#DejaVuSans-64" x="573.876953"/>
      <use xlink:href="#DejaVuSans-65" x="637.353516"/>
      <use xlink:href="#DejaVuSans-5b" x="698.876953"/>
      <use xlink:href="#DejaVuSans-32" x="737.890625"/>
      <use xlink:href="#DejaVuSans-5d" x="801.513672"/>
      <use xlink:href="#DejaVuSans-2e" x="840.527344"/>
      <use xlink:href="#DejaVuSans-61" x="872.314453"/>
      <use xlink:href="#DejaVuSans-70" x="933.59375"/>
      <use xlink:href="#DejaVuSans-70" x="997.070312"/>
     </g>
    </g>
    <g id="line2d_48">
     <path d="M 272.592806 82.932813 
L 282.592806 82.932813 
L 292.592806 82.932813 
" style="fill: none; stroke: #d62728; stroke-width: 1.5; stroke-linecap: square"/>
    </g>
    <g id="text_25">
     <!-- Network.node[3].app -->
     <g transform="translate(300.592806 86.432813)scale(0.1 -0.1)">
      <defs>
       <path id="DejaVuSans-33" d="M 2597 2516 
Q 3050 2419 3304 2112 
Q 3559 1806 3559 1356 
Q 3559 666 3084 287 
Q 2609 -91 1734 -91 
Q 1441 -91 1130 -33 
Q 819 25 488 141 
L 488 750 
Q 750 597 1062 519 
Q 1375 441 1716 441 
Q 2309 441 2620 675 
Q 2931 909 2931 1356 
Q 2931 1769 2642 2001 
Q 2353 2234 1838 2234 
L 1294 2234 
L 1294 2753 
L 1863 2753 
Q 2328 2753 2575 2939 
Q 2822 3125 2822 3475 
Q 2822 3834 2567 4026 
Q 2313 4219 1838 4219 
Q 1578 4219 1281 4162 
Q 984 4106 628 3988 
L 628 4550 
Q 988 4650 1302 4700 
Q 1616 4750 1894 4750 
Q 2613 4750 3031 4423 
Q 3450 4097 3450 3541 
Q 3450 3153 3228 2886 
Q 3006 2619 2597 2516 
z
" transform="scale(0.015625)"/>
      </defs>
      <use xlink:href="#DejaVuSans-4e"/>
      <use xlink:href="#DejaVuSans-65" x="74.804688"/>
      <use xlink:href="#DejaVuSans-74" x="136.328125"/>
      <use xlink:href="#DejaVuSans-77" x="175.537109"/>
      <use xlink:href="#DejaVuSans-6f" x="257.324219"/>
      <use xlink:href="#DejaVuSans-72" x="318.505859"/>
      <use xlink:href="#DejaVuSans-6b" x="359.619141"/>
      <use xlink:href="#DejaVuSans-2e" x="417.529297"/>
      <use xlink:href="#DejaVuSans-6e" x="449.316406"/>
      <use xlink:href="#DejaVuSans-6f" x="512.695312"/>
      <use xlink:href="#DejaVuSans-64" x="573.876953"/>
      <use xlink:href="#DejaVuSans-65" x="637.353516"/>
      <use xlink:href="#DejaVuSans-5b" x="698.876953"/>
      <use xlink:href="#DejaVuSans-33" x="737.890625"/>
      <use xlink:href="#DejaVuSans-5d" x="801.513672"/>
      <use xlink:href="#DejaVuSans-2e" x="840.527344"/>
      <use xlink:href="#DejaVuSans-61" x="872.314453"/>
      <use xlink:href="#DejaVuSans-70" x="933.59375"/>
      <use xlink:href="#DejaVuSans-70" x="997.070312"/>
     </g>
    </g>
    <g id="line2d_49">
     <path d="M 272.592806 97.610938 
L 282.592806 97.610938 
L 292.592806 97.610938 
" style="fill: none; stroke: #9467bd; stroke-width: 1.5; stroke-linecap: square"/>
    </g>
    <g id="text_26">
     <!-- Network.node[4].app -->
     <g transform="translate(300.592806 101.110938)scale(0.1 -0.1)">
      <defs>
       <path id="DejaVuSans-34" d="M 2419 4116 
L 825 1625 
L 2419 1625 
L 2419 4116 
z
M 2253 4666 
L 3047 4666 
L 3047 1625 
L 3713 1625 
L 3713 1100 
L 3047 1100 
L 3047 0 
L 2419 0 
L 2419 1100 
L 313 1100 
L 313 1709 
L 2253 4666 
z
" transform="scale(0.015625)"/>
      </defs>
      <use xlink:href="#DejaVuSans-4e"/>
      <use xlink:href="#DejaVuSans-65" x="74.804688"/>
      <use xlink:href="#DejaVuSans-74" x="136.328125"/>
      <use xlink:href="#DejaVuSans-77" x="175.537109"/>
      <use xlink:href="#DejaVuSans-6f" x="257.324219"/>
      <use xlink:href="#DejaVuSans-72" x="318.505859"/>
      <use xlink:href="#DejaVuSans-6b" x="359.619141"/>
      <use xlink:href="#DejaVuSans-2e" x="417.529297"/>
      <use xlink:href="#DejaVuSans-6e" x="449.316406"/>
      <use xlink:href="#DejaVuSans-6f" x="512.695312"/>
      <use xlink:href="#DejaVuSans-64" x="573.876953"/>
      <use xlink:href="#DejaVuSans-65" x="637.353516"/>
      <use xlink:href="#DejaVuSans-5b" x="698.876953"/>
      <use xlink:href="#DejaVuSans-34" x="737.890625"/>
      <use xlink:href="#DejaVuSans-5d" x="801.513672"/>
      <use xlink:href="#DejaVuSans-2e" x="840.527344"/>
      <use xlink:href="#DejaVuSans-61" x="872.314453"/>
      <use xlink:href="#DejaVuSans-70" x="933.59375"/>
      <use xlink:href="#DejaVuSans-70" x="997.070312"/>
     </g>
    </g>
    <g id="line2d_50">
     <path d="M 272.592806 112.289062 
L 282.592806 112.289062 
L 292.592806 112.289062 
" style="fill: none; stroke: #8c564b; stroke-width: 1.5; stroke-linecap: square"/>
    </g>
    <g id="text_27">
     <!-- Network.node[5].app -->
     <g transform="translate(300.592806 115.789062)scale(0.1 -0.1)">
      <use xlink:href="#DejaVuSans-4e"/>
      <use xlink:href="#DejaVuSans-65" x="74.804688"/>
      <use xlink:href="#DejaVuSans-74" x="136.328125"/>
      <use xlink:href="#DejaVuSans-77" x="175.537109"/>
      <use xlink:href="#DejaVuSans-6f" x="257.324219"/>
      <use xlink:href="#DejaVuSans-72" x="318.505859"/>
      <use xlink:href="#DejaVuSans-6b" x="359.619141"/>
      <use xlink:href="#DejaVuSans-2e" x="417.529297"/>
      <use xlink:href="#DejaVuSans-6e" x="449.316406"/>
      <use xlink:href="#DejaVuSans-6f" x="512.695312"/>
      <use xlink:href="#DejaVuSans-64" x="573.876953"/>
      <use xlink:href="#DejaVuSans-65" x="637.353516"/>
      <use xlink:href="#DejaVuSans-5b" x="698.876953"/>
      <use xlink:href="#DejaVuSans-35" x="737.890625"/>
      <use xlink:href="#DejaVuSans-5d" x="801.513672"/>
      <use xlink:href="#DejaVuSans-2e" x="840.527344"/>
      <use xlink:href="#DejaVuSans-61" x="872.314453"/>
      <use xlink:href="#DejaVuSans-70" x="933.59375"/>
      <use xlink:href="#DejaVuSans-70" x="997.070312"/>
     </g>
    </g>
    <g id="line2d_51">
     <path d="M 272.592806 126.967187 
L 282.592806 126.967187 
L 292.592806 126.967187 
" style="fill: none; stroke: #e377c2; stroke-width: 1.5; stroke-linecap: square"/>
    </g>
    <g id="text_28">
     <!-- Network.node[6].app -->
     <g transform="translate(300.592806 130.467187)scale(0.1 -0.1)">
      <defs>
       <path id="DejaVuSans-36" d="M 2113 2584 
Q 1688 2584 1439 2293 
Q 1191 2003 1191 1497 
Q 1191 994 1439 701 
Q 1688 409 2113 409 
Q 2538 409 2786 701 
Q 3034 994 3034 1497 
Q 3034 2003 2786 2293 
Q 2538 2584 2113 2584 
z
M 3366 4563 
L 3366 3988 
Q 3128 4100 2886 4159 
Q 2644 4219 2406 4219 
Q 1781 4219 1451 3797 
Q 1122 3375 1075 2522 
Q 1259 2794 1537 2939 
Q 1816 3084 2150 3084 
Q 2853 3084 3261 2657 
Q 3669 2231 3669 1497 
Q 3669 778 3244 343 
Q 2819 -91 2113 -91 
Q 1303 -91 875 529 
Q 447 1150 447 2328 
Q 447 3434 972 4092 
Q 1497 4750 2381 4750 
Q 2619 4750 2861 4703 
Q 3103 4656 3366 4563 
z
" transform="scale(0.015625)"/>
      </defs>
      <use xlink:href="#DejaVuSans-4e"/>
      <use xlink:href="#DejaVuSans-65" x="74.804688"/>
      <use xlink:href="#DejaVuSans-74" x="136.328125"/>
      <use xlink:href="#DejaVuSans-77" x="175.537109"/>
      <use xlink:href="#DejaVuSans-6f" x="257.324219"/>
      <use xlink:href="#DejaVuSans-72" x="318.505859"/>
      <use xlink:href="#DejaVuSans-6b" x="359.619141"/>
      <use xlink:href="#DejaVuSans-2e" x="417.529297"/>
      <use xlink:href="#DejaVuSans-6e" x="449.316406"/>
      <use xlink:href="#DejaVuSans-6f" x="512.695312"/>
      <use xlink:href="#DejaVuSans-64" x="573.876953"/>
      <use xlink:href="#DejaVuSans-65" x="637.353516"/>
      <use xlink:href="#DejaVuSans-5b" x="698.876953"/>
      <use xlink:href="#DejaVuSans-36" x="737.890625"/>
      <use xlink:href="#DejaVuSans-5d" x="801.513672"/>
      <use xlink:href="#DejaVuSans-2e" x="840.527344"/>
      <use xlink:href="#DejaVuSans-61" x="872.314453"/>
      <use xlink:href="#DejaVuSans-70" x="933.59375"/>
      <use xlink:href="#DejaVuSans-70" x="997.070312"/>
     </g>
    </g>
    <g id="line2d_52">
     <path d="M 272.592806 141.645312 
L 282.592806 141.645312 
L 292.592806 141.645312 
" style="fill: none; stroke: #7f7f7f; stroke-width: 1.5; stroke-linecap: square"/>
    </g>
    <g id="text_29">
     <!-- Network.node[7].app -->
     <g transform="translate(300.592806 145.145312)scale(0.1 -0.1)">
      <use xlink:href="#DejaVuSans-4e"/>
      <use xlink:href="#DejaVuSans-65" x="74.804688"/>
      <use xlink:href="#DejaVuSans-74" x="136.328125"/>
      <use xlink:href="#DejaVuSans-77" x="175.537109"/>
      <use xlink:href="#DejaVuSans-6f" x="257.324219"/>
      <use xlink:href="#DejaVuSans-72" x="318.505859"/>
      <use xlink:href="#DejaVuSans-6b" x="359.619141"/>
      <use xlink:href="#DejaVuSans-2e" x="417.529297"/>
      <use xlink:href="#DejaVuSans-6e" x="449.316406"/>
      <use xlink:href="#DejaVuSans-6f" x="512.695312"/>
      <use xlink:href="#DejaVuSans-64" x="573.876953"/>
      <use xlink:href="#DejaVuSans-65" x="637.353516"/>
      <use xlink:href="#DejaVuSans-5b" x="698.876953"/>
      <use xlink:href="#DejaVuSans-37" x="737.890625"/>
      <use xlink:href="#DejaVuSans-5d" x="801.513672"/>
      <use xlink:href="#DejaVuSans-2e" x="840.527344"/>
      <use xlink:href="#DejaVuSans-61" x="872.314453"/>
      <use xlink:href="#DejaVuSans-70" x="933.59375"/>
      <use xlink:href="#DejaVuSans-70" x="997.070312"/>
     </g>
    </g>
   </g>
  </g>
 </g>
 <defs>
  <clipPath id="p6210bc09c1">
   <rect x="50.76875" y="25.8" width="364.881868" height="220.9"/>
  </clipPath>
 </defs>
</svg>
