<?xml version="1.0" encoding="utf-8" standalone="no"?>
<!DOCTYPE svg PUBLIC "-//W3C//DTD SVG 1.1//EN"
  "http://www.w3.org/Graphics/SVG/1.1/DTD/svg11.dtd">
<svg xmlns:xlink="http://www.w3.org/1999/xlink" width="460.8pt" height="345.6pt" viewBox="0 0 460.8 345.6" xmlns="http://www.w3.org/2000/svg" version="1.1">
 <metadata>
  <rdf:RDF xmlns:dc="http://purl.org/dc/elements/1.1/" xmlns:cc="http://creativecommons.org/ns#" xmlns:rdf="http://www.w3.org/1999/02/22-rdf-syntax-ns#">
   <cc:Work>
    <dc:type rdf:resource="http://purl.org/dc/dcmitype/StillImage"/>
    <dc:date>2022-06-21T16:34:16.249010</dc:date>
    <dc:format>image/svg+xml</dc:format>
    <dc:creator>
     <cc:Agent>
      <dc:title>Matplotlib v3.5.1, https://matplotlib.org/</dc:title>
     </cc:Agent>
    </dc:creator>
   </cc:Work>
  </rdf:RDF>
 </metadata>
 <defs>
  <style type="text/css">*{stroke-linejoin: round; stroke-linecap: butt}</style>
 </defs>
 <g id="figure_1">
  <g id="patch_1">
   <path d="M 0 345.6 
L 460.8 345.6 
L 460.8 0 
L 0 0 
z
" style="fill: #ffffff"/>
  </g>
  <g id="axes_1">
   <g id="patch_2">
    <path d="M 57.6 307.584 
L 414.72 307.584 
L 414.72 41.472 
L 57.6 41.472 
z
" style="fill: #ffffff"/>
   </g>
   <g id="matplotlib.axis_1">
    <g id="xtick_1">
     <g id="line2d_1">
      <path d="M 73.832727 307.584 
L 73.832727 41.472 
" clip-path="url(#p38cccb9cb7)" style="fill: none; stroke: #b0b0b0; stroke-width: 0.8; stroke-linecap: square"/>
     </g>
     <g id="line2d_2">
      <defs>
       <path id="m9b414ede91" d="M 0 0 
L 0 3.5 
" style="stroke: #000000; stroke-width: 0.8"/>
      </defs>
      <g>
       <use xlink:href="#m9b414ede91" x="73.832727" y="307.584" style="stroke: #000000; stroke-width: 0.8"/>
      </g>
     </g>
     <g id="text_1">
      <!-- 0 -->
      <g transform="translate(70.651477 322.182437)scale(0.1 -0.1)">
       <defs>
        <path id="DejaVuSans-30" d="M 2034 4250 
Q 1547 4250 1301 3770 
Q 1056 3291 1056 2328 
Q 1056 1369 1301 889 
Q 1547 409 2034 409 
Q 2525 409 2770 889 
Q 3016 1369 3016 2328 
Q 3016 3291 2770 3770 
Q 2525 4250 2034 4250 
z
M 2034 4750 
Q 2819 4750 3233 4129 
Q 3647 3509 3647 2328 
Q 3647 1150 3233 529 
Q 2819 -91 2034 -91 
Q 1250 -91 836 529 
Q 422 1150 422 2328 
Q 422 3509 836 4129 
Q 1250 4750 2034 4750 
z
" transform="scale(0.015625)"/>
       </defs>
       <use xlink:href="#DejaVuSans-30"/>
      </g>
     </g>
    </g>
    <g id="xtick_2">
     <g id="line2d_3">
      <path d="M 117.12 307.584 
L 117.12 41.472 
" clip-path="url(#p38cccb9cb7)" style="fill: none; stroke: #b0b0b0; stroke-width: 0.8; stroke-linecap: square"/>
     </g>
     <g id="line2d_4">
      <g>
       <use xlink:href="#m9b414ede91" x="117.12" y="307.584" style="stroke: #000000; stroke-width: 0.8"/>
      </g>
     </g>
     <g id="text_2">
      <!-- 2 -->
      <g transform="translate(113.93875 322.182437)scale(0.1 -0.1)">
       <defs>
        <path id="DejaVuSans-32" d="M 1228 531 
L 3431 531 
L 3431 0 
L 469 0 
L 469 531 
Q 828 903 1448 1529 
Q 2069 2156 2228 2338 
Q 2531 2678 2651 2914 
Q 2772 3150 2772 3378 
Q 2772 3750 2511 3984 
Q 2250 4219 1831 4219 
Q 1534 4219 1204 4116 
Q 875 4013 500 3803 
L 500 4441 
Q 881 4594 1212 4672 
Q 1544 4750 1819 4750 
Q 2544 4750 2975 4387 
Q 3406 4025 3406 3419 
Q 3406 3131 3298 2873 
Q 3191 2616 2906 2266 
Q 2828 2175 2409 1742 
Q 1991 1309 1228 531 
z
" transform="scale(0.015625)"/>
       </defs>
       <use xlink:href="#DejaVuSans-32"/>
      </g>
     </g>
    </g>
    <g id="xtick_3">
     <g id="line2d_5">
      <path d="M 160.407273 307.584 
L 160.407273 41.472 
" clip-path="url(#p38cccb9cb7)" style="fill: none; stroke: #b0b0b0; stroke-width: 0.8; stroke-linecap: square"/>
     </g>
     <g id="line2d_6">
      <g>
       <use xlink:href="#m9b414ede91" x="160.407273" y="307.584" style="stroke: #000000; stroke-width: 0.8"/>
      </g>
     </g>
     <g id="text_3">
      <!-- 4 -->
      <g transform="translate(157.226023 322.182437)scale(0.1 -0.1)">
       <defs>
        <path id="DejaVuSans-34" d="M 2419 4116 
L 825 1625 
L 2419 1625 
L 2419 4116 
z
M 2253 4666 
L 3047 4666 
L 3047 1625 
L 3713 1625 
L 3713 1100 
L 3047 1100 
L 3047 0 
L 2419 0 
L 2419 1100 
L 313 1100 
L 313 1709 
L 2253 4666 
z
" transform="scale(0.015625)"/>
       </defs>
       <use xlink:href="#DejaVuSans-34"/>
      </g>
     </g>
    </g>
    <g id="xtick_4">
     <g id="line2d_7">
      <path d="M 203.694545 307.584 
L 203.694545 41.472 
" clip-path="url(#p38cccb9cb7)" style="fill: none; stroke: #b0b0b0; stroke-width: 0.8; stroke-linecap: square"/>
     </g>
     <g id="line2d_8">
      <g>
       <use xlink:href="#m9b414ede91" x="203.694545" y="307.584" style="stroke: #000000; stroke-width: 0.8"/>
      </g>
     </g>
     <g id="text_4">
      <!-- 6 -->
      <g transform="translate(200.513295 322.182437)scale(0.1 -0.1)">
       <defs>
        <path id="DejaVuSans-36" d="M 2113 2584 
Q 1688 2584 1439 2293 
Q 1191 2003 1191 1497 
Q 1191 994 1439 701 
Q 1688 409 2113 409 
Q 2538 409 2786 701 
Q 3034 994 3034 1497 
Q 3034 2003 2786 2293 
Q 2538 2584 2113 2584 
z
M 3366 4563 
L 3366 3988 
Q 3128 4100 2886 4159 
Q 2644 4219 2406 4219 
Q 1781 4219 1451 3797 
Q 1122 3375 1075 2522 
Q 1259 2794 1537 2939 
Q 1816 3084 2150 3084 
Q 2853 3084 3261 2657 
Q 3669 2231 3669 1497 
Q 3669 778 3244 343 
Q 2819 -91 2113 -91 
Q 1303 -91 875 529 
Q 447 1150 447 2328 
Q 447 3434 972 4092 
Q 1497 4750 2381 4750 
Q 2619 4750 2861 4703 
Q 3103 4656 3366 4563 
z
" transform="scale(0.015625)"/>
       </defs>
       <use xlink:href="#DejaVuSans-36"/>
      </g>
     </g>
    </g>
    <g id="xtick_5">
     <g id="line2d_9">
      <path d="M 246.981818 307.584 
L 246.981818 41.472 
" clip-path="url(#p38cccb9cb7)" style="fill: none; stroke: #b0b0b0; stroke-width: 0.8; stroke-linecap: square"/>
     </g>
     <g id="line2d_10">
      <g>
       <use xlink:href="#m9b414ede91" x="246.981818" y="307.584" style="stroke: #000000; stroke-width: 0.8"/>
      </g>
     </g>
     <g id="text_5">
      <!-- 8 -->
      <g transform="translate(243.800568 322.182437)scale(0.1 -0.1)">
       <defs>
        <path id="DejaVuSans-38" d="M 2034 2216 
Q 1584 2216 1326 1975 
Q 1069 1734 1069 1313 
Q 1069 891 1326 650 
Q 1584 409 2034 409 
Q 2484 409 2743 651 
Q 3003 894 3003 1313 
Q 3003 1734 2745 1975 
Q 2488 2216 2034 2216 
z
M 1403 2484 
Q 997 2584 770 2862 
Q 544 3141 544 3541 
Q 544 4100 942 4425 
Q 1341 4750 2034 4750 
Q 2731 4750 3128 4425 
Q 3525 4100 3525 3541 
Q 3525 3141 3298 2862 
Q 3072 2584 2669 2484 
Q 3125 2378 3379 2068 
Q 3634 1759 3634 1313 
Q 3634 634 3220 271 
Q 2806 -91 2034 -91 
Q 1263 -91 848 271 
Q 434 634 434 1313 
Q 434 1759 690 2068 
Q 947 2378 1403 2484 
z
M 1172 3481 
Q 1172 3119 1398 2916 
Q 1625 2713 2034 2713 
Q 2441 2713 2670 2916 
Q 2900 3119 2900 3481 
Q 2900 3844 2670 4047 
Q 2441 4250 2034 4250 
Q 1625 4250 1398 4047 
Q 1172 3844 1172 3481 
z
" transform="scale(0.015625)"/>
       </defs>
       <use xlink:href="#DejaVuSans-38"/>
      </g>
     </g>
    </g>
    <g id="xtick_6">
     <g id="line2d_11">
      <path d="M 290.269091 307.584 
L 290.269091 41.472 
" clip-path="url(#p38cccb9cb7)" style="fill: none; stroke: #b0b0b0; stroke-width: 0.8; stroke-linecap: square"/>
     </g>
     <g id="line2d_12">
      <g>
       <use xlink:href="#m9b414ede91" x="290.269091" y="307.584" style="stroke: #000000; stroke-width: 0.8"/>
      </g>
     </g>
     <g id="text_6">
      <!-- 10 -->
      <g transform="translate(283.906591 322.182437)scale(0.1 -0.1)">
       <defs>
        <path id="DejaVuSans-31" d="M 794 531 
L 1825 531 
L 1825 4091 
L 703 3866 
L 703 4441 
L 1819 4666 
L 2450 4666 
L 2450 531 
L 3481 531 
L 3481 0 
L 794 0 
L 794 531 
z
" transform="scale(0.015625)"/>
       </defs>
       <use xlink:href="#DejaVuSans-31"/>
       <use xlink:href="#DejaVuSans-30" x="63.623047"/>
      </g>
     </g>
    </g>
    <g id="xtick_7">
     <g id="line2d_13">
      <path d="M 333.556364 307.584 
L 333.556364 41.472 
" clip-path="url(#p38cccb9cb7)" style="fill: none; stroke: #b0b0b0; stroke-width: 0.8; stroke-linecap: square"/>
     </g>
     <g id="line2d_14">
      <g>
       <use xlink:href="#m9b414ede91" x="333.556364" y="307.584" style="stroke: #000000; stroke-width: 0.8"/>
      </g>
     </g>
     <g id="text_7">
      <!-- 12 -->
      <g transform="translate(327.193864 322.182437)scale(0.1 -0.1)">
       <use xlink:href="#DejaVuSans-31"/>
       <use xlink:href="#DejaVuSans-32" x="63.623047"/>
      </g>
     </g>
    </g>
    <g id="xtick_8">
     <g id="line2d_15">
      <path d="M 376.843636 307.584 
L 376.843636 41.472 
" clip-path="url(#p38cccb9cb7)" style="fill: none; stroke: #b0b0b0; stroke-width: 0.8; stroke-linecap: square"/>
     </g>
     <g id="line2d_16">
      <g>
       <use xlink:href="#m9b414ede91" x="376.843636" y="307.584" style="stroke: #000000; stroke-width: 0.8"/>
      </g>
     </g>
     <g id="text_8">
      <!-- 14 -->
      <g transform="translate(370.481136 322.182437)scale(0.1 -0.1)">
       <use xlink:href="#DejaVuSans-31"/>
       <use xlink:href="#DejaVuSans-34" x="63.623047"/>
      </g>
     </g>
    </g>
    <g id="text_9">
     <!-- Intervalo de generación -->
     <g transform="translate(176.54125 336.260562)scale(0.1 -0.1)">
      <defs>
       <path id="DejaVuSans-49" d="M 628 4666 
L 1259 4666 
L 1259 0 
L 628 0 
L 628 4666 
z
" transform="scale(0.015625)"/>
       <path id="DejaVuSans-6e" d="M 3513 2113 
L 3513 0 
L 2938 0 
L 2938 2094 
Q 2938 2591 2744 2837 
Q 2550 3084 2163 3084 
Q 1697 3084 1428 2787 
Q 1159 2491 1159 1978 
L 1159 0 
L 581 0 
L 581 3500 
L 1159 3500 
L 1159 2956 
Q 1366 3272 1645 3428 
Q 1925 3584 2291 3584 
Q 2894 3584 3203 3211 
Q 3513 2838 3513 2113 
z
" transform="scale(0.015625)"/>
       <path id="DejaVuSans-74" d="M 1172 4494 
L 1172 3500 
L 2356 3500 
L 2356 3053 
L 1172 3053 
L 1172 1153 
Q 1172 725 1289 603 
Q 1406 481 1766 481 
L 2356 481 
L 2356 0 
L 1766 0 
Q 1100 0 847 248 
Q 594 497 594 1153 
L 594 3053 
L 172 3053 
L 172 3500 
L 594 3500 
L 594 4494 
L 1172 4494 
z
" transform="scale(0.015625)"/>
       <path id="DejaVuSans-65" d="M 3597 1894 
L 3597 1613 
L 953 1613 
Q 991 1019 1311 708 
Q 1631 397 2203 397 
Q 2534 397 2845 478 
Q 3156 559 3463 722 
L 3463 178 
Q 3153 47 2828 -22 
Q 2503 -91 2169 -91 
Q 1331 -91 842 396 
Q 353 884 353 1716 
Q 353 2575 817 3079 
Q 1281 3584 2069 3584 
Q 2775 3584 3186 3129 
Q 3597 2675 3597 1894 
z
M 3022 2063 
Q 3016 2534 2758 2815 
Q 2500 3097 2075 3097 
Q 1594 3097 1305 2825 
Q 1016 2553 972 2059 
L 3022 2063 
z
" transform="scale(0.015625)"/>
       <path id="DejaVuSans-72" d="M 2631 2963 
Q 2534 3019 2420 3045 
Q 2306 3072 2169 3072 
Q 1681 3072 1420 2755 
Q 1159 2438 1159 1844 
L 1159 0 
L 581 0 
L 581 3500 
L 1159 3500 
L 1159 2956 
Q 1341 3275 1631 3429 
Q 1922 3584 2338 3584 
Q 2397 3584 2469 3576 
Q 2541 3569 2628 3553 
L 2631 2963 
z
" transform="scale(0.015625)"/>
       <path id="DejaVuSans-76" d="M 191 3500 
L 800 3500 
L 1894 563 
L 2988 3500 
L 3597 3500 
L 2284 0 
L 1503 0 
L 191 3500 
z
" transform="scale(0.015625)"/>
       <path id="DejaVuSans-61" d="M 2194 1759 
Q 1497 1759 1228 1600 
Q 959 1441 959 1056 
Q 959 750 1161 570 
Q 1363 391 1709 391 
Q 2188 391 2477 730 
Q 2766 1069 2766 1631 
L 2766 1759 
L 2194 1759 
z
M 3341 1997 
L 3341 0 
L 2766 0 
L 2766 531 
Q 2569 213 2275 61 
Q 1981 -91 1556 -91 
Q 1019 -91 701 211 
Q 384 513 384 1019 
Q 384 1609 779 1909 
Q 1175 2209 1959 2209 
L 2766 2209 
L 2766 2266 
Q 2766 2663 2505 2880 
Q 2244 3097 1772 3097 
Q 1472 3097 1187 3025 
Q 903 2953 641 2809 
L 641 3341 
Q 956 3463 1253 3523 
Q 1550 3584 1831 3584 
Q 2591 3584 2966 3190 
Q 3341 2797 3341 1997 
z
" transform="scale(0.015625)"/>
       <path id="DejaVuSans-6c" d="M 603 4863 
L 1178 4863 
L 1178 0 
L 603 0 
L 603 4863 
z
" transform="scale(0.015625)"/>
       <path id="DejaVuSans-6f" d="M 1959 3097 
Q 1497 3097 1228 2736 
Q 959 2375 959 1747 
Q 959 1119 1226 758 
Q 1494 397 1959 397 
Q 2419 397 2687 759 
Q 2956 1122 2956 1747 
Q 2956 2369 2687 2733 
Q 2419 3097 1959 3097 
z
M 1959 3584 
Q 2709 3584 3137 3096 
Q 3566 2609 3566 1747 
Q 3566 888 3137 398 
Q 2709 -91 1959 -91 
Q 1206 -91 779 398 
Q 353 888 353 1747 
Q 353 2609 779 3096 
Q 1206 3584 1959 3584 
z
" transform="scale(0.015625)"/>
       <path id="DejaVuSans-20" transform="scale(0.015625)"/>
       <path id="DejaVuSans-64" d="M 2906 2969 
L 2906 4863 
L 3481 4863 
L 3481 0 
L 2906 0 
L 2906 525 
Q 2725 213 2448 61 
Q 2172 -91 1784 -91 
Q 1150 -91 751 415 
Q 353 922 353 1747 
Q 353 2572 751 3078 
Q 1150 3584 1784 3584 
Q 2172 3584 2448 3432 
Q 2725 3281 2906 2969 
z
M 947 1747 
Q 947 1113 1208 752 
Q 1469 391 1925 391 
Q 2381 391 2643 752 
Q 2906 1113 2906 1747 
Q 2906 2381 2643 2742 
Q 2381 3103 1925 3103 
Q 1469 3103 1208 2742 
Q 947 2381 947 1747 
z
" transform="scale(0.015625)"/>
       <path id="DejaVuSans-67" d="M 2906 1791 
Q 2906 2416 2648 2759 
Q 2391 3103 1925 3103 
Q 1463 3103 1205 2759 
Q 947 2416 947 1791 
Q 947 1169 1205 825 
Q 1463 481 1925 481 
Q 2391 481 2648 825 
Q 2906 1169 2906 1791 
z
M 3481 434 
Q 3481 -459 3084 -895 
Q 2688 -1331 1869 -1331 
Q 1566 -1331 1297 -1286 
Q 1028 -1241 775 -1147 
L 775 -588 
Q 1028 -725 1275 -790 
Q 1522 -856 1778 -856 
Q 2344 -856 2625 -561 
Q 2906 -266 2906 331 
L 2906 616 
Q 2728 306 2450 153 
Q 2172 0 1784 0 
Q 1141 0 747 490 
Q 353 981 353 1791 
Q 353 2603 747 3093 
Q 1141 3584 1784 3584 
Q 2172 3584 2450 3431 
Q 2728 3278 2906 2969 
L 2906 3500 
L 3481 3500 
L 3481 434 
z
" transform="scale(0.015625)"/>
       <path id="DejaVuSans-63" d="M 3122 3366 
L 3122 2828 
Q 2878 2963 2633 3030 
Q 2388 3097 2138 3097 
Q 1578 3097 1268 2742 
Q 959 2388 959 1747 
Q 959 1106 1268 751 
Q 1578 397 2138 397 
Q 2388 397 2633 464 
Q 2878 531 3122 666 
L 3122 134 
Q 2881 22 2623 -34 
Q 2366 -91 2075 -91 
Q 1284 -91 818 406 
Q 353 903 353 1747 
Q 353 2603 823 3093 
Q 1294 3584 2113 3584 
Q 2378 3584 2631 3529 
Q 2884 3475 3122 3366 
z
" transform="scale(0.015625)"/>
       <path id="DejaVuSans-69" d="M 603 3500 
L 1178 3500 
L 1178 0 
L 603 0 
L 603 3500 
z
M 603 4863 
L 1178 4863 
L 1178 4134 
L 603 4134 
L 603 4863 
z
" transform="scale(0.015625)"/>
       <path id="DejaVuSans-f3" d="M 1959 3097 
Q 1497 3097 1228 2736 
Q 959 2375 959 1747 
Q 959 1119 1226 758 
Q 1494 397 1959 397 
Q 2419 397 2687 759 
Q 2956 1122 2956 1747 
Q 2956 2369 2687 2733 
Q 2419 3097 1959 3097 
z
M 1959 3584 
Q 2709 3584 3137 3096 
Q 3566 2609 3566 1747 
Q 3566 888 3137 398 
Q 2709 -91 1959 -91 
Q 1206 -91 779 398 
Q 353 888 353 1747 
Q 353 2609 779 3096 
Q 1206 3584 1959 3584 
z
M 2394 5119 
L 3016 5119 
L 1998 3944 
L 1519 3944 
L 2394 5119 
z
" transform="scale(0.015625)"/>
      </defs>
      <use xlink:href="#DejaVuSans-49"/>
      <use xlink:href="#DejaVuSans-6e" x="29.492188"/>
      <use xlink:href="#DejaVuSans-74" x="92.871094"/>
      <use xlink:href="#DejaVuSans-65" x="132.080078"/>
      <use xlink:href="#DejaVuSans-72" x="193.603516"/>
      <use xlink:href="#DejaVuSans-76" x="234.716797"/>
      <use xlink:href="#DejaVuSans-61" x="293.896484"/>
      <use xlink:href="#DejaVuSans-6c" x="355.175781"/>
      <use xlink:href="#DejaVuSans-6f" x="382.958984"/>
      <use xlink:href="#DejaVuSans-20" x="444.140625"/>
      <use xlink:href="#DejaVuSans-64" x="475.927734"/>
      <use xlink:href="#DejaVuSans-65" x="539.404297"/>
      <use xlink:href="#DejaVuSans-20" x="600.927734"/>
      <use xlink:href="#DejaVuSans-67" x="632.714844"/>
      <use xlink:href="#DejaVuSans-65" x="696.191406"/>
      <use xlink:href="#DejaVuSans-6e" x="757.714844"/>
      <use xlink:href="#DejaVuSans-65" x="821.09375"/>
      <use xlink:href="#DejaVuSans-72" x="882.617188"/>
      <use xlink:href="#DejaVuSans-61" x="923.730469"/>
      <use xlink:href="#DejaVuSans-63" x="985.009766"/>
      <use xlink:href="#DejaVuSans-69" x="1039.990234"/>
      <use xlink:href="#DejaVuSans-f3" x="1067.773438"/>
      <use xlink:href="#DejaVuSans-6e" x="1128.955078"/>
     </g>
    </g>
   </g>
   <g id="matplotlib.axis_2">
    <g id="ytick_1">
     <g id="line2d_17">
      <path d="M 57.6 295.488 
L 414.72 295.488 
" clip-path="url(#p38cccb9cb7)" style="fill: none; stroke: #b0b0b0; stroke-width: 0.8; stroke-linecap: square"/>
     </g>
     <g id="line2d_18">
      <defs>
       <path id="m6ec74c3115" d="M 0 0 
L -3.5 0 
" style="stroke: #000000; stroke-width: 0.8"/>
      </defs>
      <g>
       <use xlink:href="#m6ec74c3115" x="57.6" y="295.488" style="stroke: #000000; stroke-width: 0.8"/>
      </g>
     </g>
     <g id="text_10">
      <!-- 0.0 -->
      <g transform="translate(34.696875 299.287219)scale(0.1 -0.1)">
       <defs>
        <path id="DejaVuSans-2e" d="M 684 794 
L 1344 794 
L 1344 0 
L 684 0 
L 684 794 
z
" transform="scale(0.015625)"/>
       </defs>
       <use xlink:href="#DejaVuSans-30"/>
       <use xlink:href="#DejaVuSans-2e" x="63.623047"/>
       <use xlink:href="#DejaVuSans-30" x="95.410156"/>
      </g>
     </g>
    </g>
    <g id="ytick_2">
     <g id="line2d_19">
      <path d="M 57.6 239.965377 
L 414.72 239.965377 
" clip-path="url(#p38cccb9cb7)" style="fill: none; stroke: #b0b0b0; stroke-width: 0.8; stroke-linecap: square"/>
     </g>
     <g id="line2d_20">
      <g>
       <use xlink:href="#m6ec74c3115" x="57.6" y="239.965377" style="stroke: #000000; stroke-width: 0.8"/>
      </g>
     </g>
     <g id="text_11">
      <!-- 0.2 -->
      <g transform="translate(34.696875 243.764596)scale(0.1 -0.1)">
       <use xlink:href="#DejaVuSans-30"/>
       <use xlink:href="#DejaVuSans-2e" x="63.623047"/>
       <use xlink:href="#DejaVuSans-32" x="95.410156"/>
      </g>
     </g>
    </g>
    <g id="ytick_3">
     <g id="line2d_21">
      <path d="M 57.6 184.442754 
L 414.72 184.442754 
" clip-path="url(#p38cccb9cb7)" style="fill: none; stroke: #b0b0b0; stroke-width: 0.8; stroke-linecap: square"/>
     </g>
     <g id="line2d_22">
      <g>
       <use xlink:href="#m6ec74c3115" x="57.6" y="184.442754" style="stroke: #000000; stroke-width: 0.8"/>
      </g>
     </g>
     <g id="text_12">
      <!-- 0.4 -->
      <g transform="translate(34.696875 188.241973)scale(0.1 -0.1)">
       <use xlink:href="#DejaVuSans-30"/>
       <use xlink:href="#DejaVuSans-2e" x="63.623047"/>
       <use xlink:href="#DejaVuSans-34" x="95.410156"/>
      </g>
     </g>
    </g>
    <g id="ytick_4">
     <g id="line2d_23">
      <path d="M 57.6 128.920131 
L 414.72 128.920131 
" clip-path="url(#p38cccb9cb7)" style="fill: none; stroke: #b0b0b0; stroke-width: 0.8; stroke-linecap: square"/>
     </g>
     <g id="line2d_24">
      <g>
       <use xlink:href="#m6ec74c3115" x="57.6" y="128.920131" style="stroke: #000000; stroke-width: 0.8"/>
      </g>
     </g>
     <g id="text_13">
      <!-- 0.6 -->
      <g transform="translate(34.696875 132.71935)scale(0.1 -0.1)">
       <use xlink:href="#DejaVuSans-30"/>
       <use xlink:href="#DejaVuSans-2e" x="63.623047"/>
       <use xlink:href="#DejaVuSans-36" x="95.410156"/>
      </g>
     </g>
    </g>
    <g id="ytick_5">
     <g id="line2d_25">
      <path d="M 57.6 73.397508 
L 414.72 73.397508 
" clip-path="url(#p38cccb9cb7)" style="fill: none; stroke: #b0b0b0; stroke-width: 0.8; stroke-linecap: square"/>
     </g>
     <g id="line2d_26">
      <g>
       <use xlink:href="#m6ec74c3115" x="57.6" y="73.397508" style="stroke: #000000; stroke-width: 0.8"/>
      </g>
     </g>
     <g id="text_14">
      <!-- 0.8 -->
      <g transform="translate(34.696875 77.196727)scale(0.1 -0.1)">
       <use xlink:href="#DejaVuSans-30"/>
       <use xlink:href="#DejaVuSans-2e" x="63.623047"/>
       <use xlink:href="#DejaVuSans-38" x="95.410156"/>
      </g>
     </g>
    </g>
    <g id="text_15">
     <!-- paquetes recibidos / paquetes enviados -->
     <g transform="translate(28.617187 274.222531)rotate(-90)scale(0.1 -0.1)">
      <defs>
       <path id="DejaVuSans-70" d="M 1159 525 
L 1159 -1331 
L 581 -1331 
L 581 3500 
L 1159 3500 
L 1159 2969 
Q 1341 3281 1617 3432 
Q 1894 3584 2278 3584 
Q 2916 3584 3314 3078 
Q 3713 2572 3713 1747 
Q 3713 922 3314 415 
Q 2916 -91 2278 -91 
Q 1894 -91 1617 61 
Q 1341 213 1159 525 
z
M 3116 1747 
Q 3116 2381 2855 2742 
Q 2594 3103 2138 3103 
Q 1681 3103 1420 2742 
Q 1159 2381 1159 1747 
Q 1159 1113 1420 752 
Q 1681 391 2138 391 
Q 2594 391 2855 752 
Q 3116 1113 3116 1747 
z
" transform="scale(0.015625)"/>
       <path id="DejaVuSans-71" d="M 947 1747 
Q 947 1113 1208 752 
Q 1469 391 1925 391 
Q 2381 391 2643 752 
Q 2906 1113 2906 1747 
Q 2906 2381 2643 2742 
Q 2381 3103 1925 3103 
Q 1469 3103 1208 2742 
Q 947 2381 947 1747 
z
M 2906 525 
Q 2725 213 2448 61 
Q 2172 -91 1784 -91 
Q 1150 -91 751 415 
Q 353 922 353 1747 
Q 353 2572 751 3078 
Q 1150 3584 1784 3584 
Q 2172 3584 2448 3432 
Q 2725 3281 2906 2969 
L 2906 3500 
L 3481 3500 
L 3481 -1331 
L 2906 -1331 
L 2906 525 
z
" transform="scale(0.015625)"/>
       <path id="DejaVuSans-75" d="M 544 1381 
L 544 3500 
L 1119 3500 
L 1119 1403 
Q 1119 906 1312 657 
Q 1506 409 1894 409 
Q 2359 409 2629 706 
Q 2900 1003 2900 1516 
L 2900 3500 
L 3475 3500 
L 3475 0 
L 2900 0 
L 2900 538 
Q 2691 219 2414 64 
Q 2138 -91 1772 -91 
Q 1169 -91 856 284 
Q 544 659 544 1381 
z
M 1991 3584 
L 1991 3584 
z
" transform="scale(0.015625)"/>
       <path id="DejaVuSans-73" d="M 2834 3397 
L 2834 2853 
Q 2591 2978 2328 3040 
Q 2066 3103 1784 3103 
Q 1356 3103 1142 2972 
Q 928 2841 928 2578 
Q 928 2378 1081 2264 
Q 1234 2150 1697 2047 
L 1894 2003 
Q 2506 1872 2764 1633 
Q 3022 1394 3022 966 
Q 3022 478 2636 193 
Q 2250 -91 1575 -91 
Q 1294 -91 989 -36 
Q 684 19 347 128 
L 347 722 
Q 666 556 975 473 
Q 1284 391 1588 391 
Q 1994 391 2212 530 
Q 2431 669 2431 922 
Q 2431 1156 2273 1281 
Q 2116 1406 1581 1522 
L 1381 1569 
Q 847 1681 609 1914 
Q 372 2147 372 2553 
Q 372 3047 722 3315 
Q 1072 3584 1716 3584 
Q 2034 3584 2315 3537 
Q 2597 3491 2834 3397 
z
" transform="scale(0.015625)"/>
       <path id="DejaVuSans-62" d="M 3116 1747 
Q 3116 2381 2855 2742 
Q 2594 3103 2138 3103 
Q 1681 3103 1420 2742 
Q 1159 2381 1159 1747 
Q 1159 1113 1420 752 
Q 1681 391 2138 391 
Q 2594 391 2855 752 
Q 3116 1113 3116 1747 
z
M 1159 2969 
Q 1341 3281 1617 3432 
Q 1894 3584 2278 3584 
Q 2916 3584 3314 3078 
Q 3713 2572 3713 1747 
Q 3713 922 3314 415 
Q 2916 -91 2278 -91 
Q 1894 -91 1617 61 
Q 1341 213 1159 525 
L 1159 0 
L 581 0 
L 581 4863 
L 1159 4863 
L 1159 2969 
z
" transform="scale(0.015625)"/>
       <path id="DejaVuSans-2f" d="M 1625 4666 
L 2156 4666 
L 531 -594 
L 0 -594 
L 1625 4666 
z
" transform="scale(0.015625)"/>
      </defs>
      <use xlink:href="#DejaVuSans-70"/>
      <use xlink:href="#DejaVuSans-61" x="63.476562"/>
      <use xlink:href="#DejaVuSans-71" x="124.755859"/>
      <use xlink:href="#DejaVuSans-75" x="188.232422"/>
      <use xlink:href="#DejaVuSans-65" x="251.611328"/>
      <use xlink:href="#DejaVuSans-74" x="313.134766"/>
      <use xlink:href="#DejaVuSans-65" x="352.34375"/>
      <use xlink:href="#DejaVuSans-73" x="413.867188"/>
      <use xlink:href="#DejaVuSans-20" x="465.966797"/>
      <use xlink:href="#DejaVuSans-72" x="497.753906"/>
      <use xlink:href="#DejaVuSans-65" x="536.617188"/>
      <use xlink:href="#DejaVuSans-63" x="598.140625"/>
      <use xlink:href="#DejaVuSans-69" x="653.121094"/>
      <use xlink:href="#DejaVuSans-62" x="680.904297"/>
      <use xlink:href="#DejaVuSans-69" x="744.380859"/>
      <use xlink:href="#DejaVuSans-64" x="772.164062"/>
      <use xlink:href="#DejaVuSans-6f" x="835.640625"/>
      <use xlink:href="#DejaVuSans-73" x="896.822266"/>
      <use xlink:href="#DejaVuSans-20" x="948.921875"/>
      <use xlink:href="#DejaVuSans-2f" x="980.708984"/>
      <use xlink:href="#DejaVuSans-20" x="1014.400391"/>
      <use xlink:href="#DejaVuSans-70" x="1046.1875"/>
      <use xlink:href="#DejaVuSans-61" x="1109.664062"/>
      <use xlink:href="#DejaVuSans-71" x="1170.943359"/>
      <use xlink:href="#DejaVuSans-75" x="1234.419922"/>
      <use xlink:href="#DejaVuSans-65" x="1297.798828"/>
      <use xlink:href="#DejaVuSans-74" x="1359.322266"/>
      <use xlink:href="#DejaVuSans-65" x="1398.53125"/>
      <use xlink:href="#DejaVuSans-73" x="1460.054688"/>
      <use xlink:href="#DejaVuSans-20" x="1512.154297"/>
      <use xlink:href="#DejaVuSans-65" x="1543.941406"/>
      <use xlink:href="#DejaVuSans-6e" x="1605.464844"/>
      <use xlink:href="#DejaVuSans-76" x="1668.84375"/>
      <use xlink:href="#DejaVuSans-69" x="1728.023438"/>
      <use xlink:href="#DejaVuSans-61" x="1755.806641"/>
      <use xlink:href="#DejaVuSans-64" x="1817.085938"/>
      <use xlink:href="#DejaVuSans-6f" x="1880.5625"/>
      <use xlink:href="#DejaVuSans-73" x="1941.744141"/>
     </g>
    </g>
   </g>
   <g id="line2d_27">
    <path d="M 73.832727 295.488 
L 74.2656 261.820942 
L 75.997091 248.121041 
L 76.429964 245.699595 
L 78.161455 233.189626 
L 78.594327 231.113944 
L 79.0272 228.316456 
L 79.460073 224.324017 
L 80.325818 219.4799 
L 81.191564 216.785366 
L 82.490182 205.117266 
L 83.7888 196.51289 
L 84.654545 192.012191 
L 85.520291 188.08785 
L 85.953164 184.895077 
L 86.818909 180.750898 
L 87.251782 180.156536 
L 87.684655 177.058475 
L 88.117527 177.148194 
L 88.5504 175.560221 
L 89.416145 170.67753 
L 89.849018 168.828868 
L 90.281891 165.74232 
L 91.147636 162.099839 
L 91.580509 159.226093 
L 92.446255 156.595707 
L 92.879127 156.151647 
L 93.312 153.870859 
L 93.744873 152.615205 
L 95.043491 145.883196 
L 95.909236 143.301267 
L 97.207855 134.328462 
L 97.640727 133.381376 
L 98.506473 127.002409 
L 98.939345 127.938671 
L 99.372218 127.546278 
L 99.805091 125.461975 
L 100.237964 124.272863 
L 100.670836 120.205818 
L 101.103709 119.674781 
L 101.536582 117.968421 
L 102.402327 115.763111 
L 102.8352 113.909655 
L 103.268073 112.962842 
L 103.700945 113.001057 
L 104.133818 110.97857 
L 104.566691 109.553107 
L 104.999564 106.816062 
L 105.432436 106.699356 
L 105.865309 105.370472 
L 106.298182 105.920469 
L 106.731055 103.527947 
L 107.163927 104.379745 
L 107.5968 103.270418 
L 108.029673 101.753481 
L 108.895418 96.870487 
L 109.328291 95.841436 
L 109.761164 95.118011 
L 110.194036 95.953574 
L 110.626909 91.722709 
L 111.059782 89.449731 
L 111.492655 88.067835 
L 111.925527 90.18834 
L 112.3584 88.442348 
L 112.791273 90.626171 
L 113.224145 88.832651 
L 113.657018 89.67138 
L 114.089891 88.114348 
L 114.522764 87.74774 
L 114.955636 86.896827 
L 115.388509 83.513591 
L 115.821382 83.080779 
L 116.254255 81.295123 
L 116.687127 81.47789 
L 117.12 80.639589 
L 117.552873 80.509576 
L 117.985745 79.794502 
L 118.418618 76.712292 
L 118.851491 78.135217 
L 119.284364 76.941505 
L 119.717236 76.723748 
L 120.150109 75.208029 
L 120.582982 73.223183 
L 121.015855 73.047208 
L 121.8816 71.347716 
L 122.747345 68.39137 
L 123.613091 69.812438 
L 124.045964 67.714824 
L 124.478836 66.562514 
L 124.911709 63.588194 
L 125.344582 64.383473 
L 125.777455 62.525946 
L 126.210327 62.667072 
L 126.6432 63.564342 
L 127.508945 62.21237 
L 128.374691 62.700489 
L 128.807564 61.924199 
L 129.240436 62.087344 
L 129.673309 62.851312 
L 130.106182 61.708535 
L 130.539055 62.124414 
L 130.971927 59.969772 
L 131.4048 56.147761 
L 131.837673 56.990627 
L 132.270545 59.163724 
L 133.136291 57.533902 
L 133.569164 57.771381 
L 134.002036 56.975324 
L 134.434909 58.092479 
L 134.867782 57.69414 
L 135.300655 60.584595 
L 135.733527 62.450975 
L 136.599273 60.271867 
L 137.032145 61.524746 
L 137.465018 59.398214 
L 137.897891 60.263124 
L 138.330764 59.247034 
L 138.763636 59.426523 
L 139.196509 56.838129 
L 139.629382 57.708997 
L 140.062255 56.827282 
L 140.495127 57.533902 
L 140.928 57.265935 
L 141.360873 56.362158 
L 141.793745 56.078525 
L 142.226618 56.80454 
L 142.659491 58.173563 
L 143.092364 57.074885 
L 143.525236 58.548435 
L 143.958109 57.533902 
L 144.390982 57.067325 
L 144.823855 59.778752 
L 145.256727 60.736768 
L 145.6896 60.380243 
L 146.122473 58.977798 
L 146.555345 59.1783 
L 146.988218 57.533902 
L 147.421091 57.730233 
L 147.853964 57.237939 
L 148.286836 55.635863 
L 149.585455 54.271463 
L 150.018327 53.649771 
L 150.4512 56.611599 
L 150.884073 57.431158 
L 151.316945 57.533902 
L 152.182691 60.640352 
L 153.048436 58.591475 
L 153.481309 58.173563 
L 153.914182 59.1417 
L 154.347055 59.1417 
L 154.779927 57.966152 
L 155.645673 59.821922 
L 156.078545 59.516852 
L 156.511418 58.539341 
L 156.944291 58.211834 
L 157.377164 59.002754 
L 158.242909 56.611599 
L 158.675782 56.724534 
L 159.108655 55.434307 
L 159.541527 58.001855 
L 159.9744 58.120573 
L 160.407273 59.186361 
L 161.273018 62.624462 
L 161.705891 63.58962 
L 162.138764 61.619982 
L 162.571636 61.172344 
L 163.004509 59.002754 
L 163.437382 59.516852 
L 163.870255 58.777131 
L 164.303127 59.647392 
L 164.736 55.891968 
L 165.168873 56.013428 
L 166.034618 54.591458 
L 166.467491 55.608707 
L 166.900364 55.608707 
L 167.766109 57.533902 
L 168.198982 56.103576 
L 168.631855 57.013783 
L 169.064727 56.229329 
L 169.4976 57.14253 
L 169.930473 56.611599 
L 170.363345 58.456204 
L 170.796218 57.933153 
L 171.229091 57.133306 
L 171.661964 58.203817 
L 172.527709 58.478164 
L 172.960582 59.706998 
L 173.393455 61.758745 
L 174.2592 60.288 
L 174.692073 57.812211 
L 175.124945 56.975324 
L 175.557818 56.975324 
L 175.990691 54.428925 
L 176.423564 53.568 
L 176.856436 53.568 
L 177.289309 55.550951 
L 177.722182 56.68102 
L 178.155055 59.666107 
L 178.587927 58.817827 
L 179.0208 58.817827 
L 179.886545 57.245472 
L 180.319418 56.375974 
L 180.752291 57.389161 
L 181.185164 57.679707 
L 181.618036 56.802185 
L 182.050909 56.946361 
L 182.483782 60.187665 
L 182.916655 61.544364 
L 183.7824 59.778752 
L 184.215273 61.873945 
L 184.648145 61.873945 
L 185.081018 60.989043 
L 185.513891 59.198975 
L 185.946764 58.44911 
L 186.379636 59.677632 
L 186.812509 58.763639 
L 187.245382 59.083082 
L 187.678255 61.251934 
L 188.111127 61.593486 
L 188.544 61.766287 
L 188.976873 61.766287 
L 189.409745 61.182531 
L 189.842618 62.47137 
L 190.275491 60.584595 
L 191.141236 54.889967 
L 192.006982 57.20341 
L 192.439855 57.20341 
L 192.872727 55.201018 
L 193.3056 56.529876 
L 193.738473 55.677522 
L 194.171345 55.677522 
L 194.604218 55.839072 
L 195.037091 57.025453 
L 195.469964 57.193481 
L 196.335709 55.130325 
L 196.768582 56.332113 
L 197.201455 55.292305 
L 197.634327 55.4557 
L 198.0672 55.4557 
L 198.500073 56.838129 
L 198.932945 57.182937 
L 199.365818 59.63969 
L 199.798691 58.591475 
L 200.231564 55.390171 
L 200.664436 57.89119 
L 201.530182 58.254975 
L 201.963055 59.516852 
L 203.261673 59.516852 
L 203.694545 63.509918 
L 204.127418 61.371871 
L 204.993164 63.930517 
L 205.858909 61.776494 
L 206.291782 63.067718 
L 207.157527 61.088247 
L 207.5904 61.29305 
L 208.456145 59.249917 
L 208.889018 58.30398 
L 209.321891 58.30398 
L 209.754764 57.146984 
L 210.187636 58.501195 
L 211.053382 56.166349 
L 211.919127 56.166349 
L 212.352 54.981589 
L 212.784873 54.981589 
L 213.217745 56.355911 
L 214.083491 53.96459 
L 214.516364 55.352656 
L 215.382109 55.352656 
L 216.247855 58.128787 
L 216.680727 56.936027 
L 217.1136 54.51418 
L 217.546473 54.51418 
L 217.979345 55.923383 
L 218.412218 55.923383 
L 219.710836 60.150994 
L 220.576582 60.150994 
L 221.009455 61.783082 
L 221.442327 60.584595 
L 222.308073 60.584595 
L 222.740945 62.008252 
L 223.173818 62.008252 
L 223.606691 63.431909 
L 224.472436 58.572096 
L 224.905309 57.32517 
L 225.771055 57.32517 
L 226.203927 58.786292 
L 227.069673 58.786292 
L 227.935418 56.4735 
L 228.368291 56.4735 
L 228.801164 58.173563 
L 229.234036 57.102825 
L 230.099782 57.102825 
L 230.532655 57.317186 
L 231.3984 57.317186 
L 231.831273 58.834197 
L 232.264145 58.834197 
L 232.697018 60.351209 
L 233.129891 60.351209 
L 233.562764 59.059248 
L 234.428509 59.059248 
L 234.861382 59.286786 
L 235.727127 56.865491 
L 236.592873 56.865491 
L 237.025745 58.654213 
L 237.458618 58.654213 
L 237.891491 58.885914 
L 240.488727 58.885914 
L 241.354473 56.387687 
L 243.085964 56.387687 
L 243.518836 57.992387 
L 245.250327 57.992387 
L 245.6832 56.611599 
L 246.116073 56.611599 
L 246.981818 59.839658 
L 247.414691 57.067325 
L 247.847564 58.700343 
L 248.280436 58.700343 
L 248.713309 57.299233 
L 249.146182 57.533902 
L 249.579055 57.533902 
L 250.011927 54.666985 
L 250.4448 56.572471 
L 250.877673 56.572471 
L 251.310545 58.254975 
L 252.176291 58.254975 
L 252.609164 59.937478 
L 253.042036 58.501195 
L 254.340655 63.579483 
L 254.773527 63.579483 
L 255.2064 65.563028 
L 256.072145 65.563028 
L 256.505018 64.143738 
L 256.937891 67.57106 
L 257.370764 67.57106 
L 257.803636 63.27074 
L 258.669382 60.312559 
L 259.102255 57.278037 
L 259.535127 59.069089 
L 260.400873 59.069089 
L 260.833745 60.860142 
L 261.266618 60.860142 
L 261.699491 62.651194 
L 262.565236 59.607576 
L 263.430982 59.607576 
L 263.863855 61.422041 
L 264.296727 58.321829 
L 265.162473 58.321829 
L 265.595345 58.591475 
L 269.058327 58.591475 
L 269.4912 60.44223 
L 269.924073 60.44223 
L 270.356945 58.864741 
L 270.789818 60.727916 
L 271.222691 60.727916 
L 272.088436 64.454267 
L 274.2528 64.454267 
L 274.685673 68.180617 
L 275.118545 66.644757 
L 275.551418 66.644757 
L 275.984291 66.976525 
L 276.417164 68.865049 
L 276.850036 67.653789 
L 277.282909 67.999475 
L 277.715782 67.999475 
L 278.581527 64.795412 
L 279.0144 66.750434 
L 280.313018 66.750434 
L 280.745891 68.705456 
L 281.611636 68.705456 
L 282.044509 69.065956 
L 282.477382 71.034843 
L 282.910255 71.414557 
L 283.343127 73.397508 
L 283.776 73.796952 
L 284.208873 72.190495 
L 284.641745 72.190495 
L 285.074618 68.906708 
L 285.940364 65.524897 
L 286.373236 65.524897 
L 286.806109 65.883168 
L 287.238982 65.883168 
L 287.671855 67.970485 
L 288.104727 67.970485 
L 288.5376 68.349997 
L 290.269091 68.349997 
L 291.567709 63.067718 
L 292.000582 67.371797 
L 293.2992 67.371797 
L 293.732073 69.523837 
L 294.164945 67.758492 
L 294.597818 69.927344 
L 295.896436 69.927344 
L 296.329309 68.151276 
L 297.195055 68.151276 
L 297.627927 66.347016 
L 298.493673 66.347016 
L 298.926545 62.651194 
L 299.792291 58.834197 
L 300.658036 58.834197 
L 301.090909 61.109715 
L 301.523782 61.109715 
L 301.956655 63.385232 
L 302.389527 63.385232 
L 302.8224 61.467027 
L 303.255273 63.76135 
L 304.986764 63.76135 
L 305.419636 61.830295 
L 306.718255 61.830295 
L 307.584 57.869995 
L 309.315491 57.869995 
L 310.181236 62.575302 
L 310.614109 62.957357 
L 311.479855 62.957357 
L 311.912727 65.330119 
L 313.211345 65.330119 
L 314.077091 61.327373 
L 314.509964 63.7414 
L 314.942836 63.7414 
L 315.375709 61.708535 
L 316.241455 61.708535 
L 316.674327 59.63969 
L 319.271564 59.63969 
L 319.704436 60.01259 
L 320.137309 62.491279 
L 324.033164 62.491279 
L 324.898909 58.254975 
L 327.063273 58.254975 
L 327.496145 63.302486 
L 328.361891 63.302486 
L 328.794764 61.172344 
L 330.959127 61.172344 
L 331.392 59.002754 
L 331.824873 59.002754 
L 332.257745 61.573246 
L 332.690618 56.792612 
L 333.989236 56.792612 
L 334.422109 57.15976 
L 334.854982 57.15976 
L 335.287855 59.778752 
L 336.1536 59.778752 
L 336.586473 57.533902 
L 337.885091 57.533902 
L 338.317964 60.177836 
L 338.750836 60.177836 
L 339.183709 57.915238 
L 341.780945 57.915238 
L 343.079564 65.923309 
L 346.109673 65.923309 
L 346.542545 66.389799 
L 346.975418 66.389799 
L 347.841164 61.8532 
L 348.274036 62.292984 
L 351.737018 62.292984 
L 352.169891 59.937478 
L 352.602764 62.741651 
L 353.468509 62.741651 
L 353.901382 65.545824 
L 354.767127 65.545824 
L 355.2 63.199475 
L 355.632873 66.032262 
L 356.065745 66.032262 
L 356.498618 63.666739 
L 356.931491 63.666739 
L 357.364364 66.52873 
L 357.797236 66.52873 
L 358.230109 61.708535 
L 358.662982 64.630778 
L 359.9616 64.630778 
L 360.394473 62.17485 
L 362.558836 62.17485 
L 362.991709 59.666107 
L 363.857455 59.666107 
L 364.290327 62.651194 
L 365.588945 62.651194 
L 366.021818 60.120359 
L 366.887564 60.120359 
L 367.320436 57.533902 
L 368.619055 57.533902 
L 369.051927 60.584595 
L 369.4848 60.584595 
L 369.917673 61.059148 
L 372.082036 61.059148 
L 372.947782 67.228328 
L 375.977891 67.228328 
L 376.410764 64.663612 
L 377.276509 64.663612 
L 377.709382 62.040608 
L 381.172364 62.040608 
L 381.605236 65.195303 
L 382.470982 65.195303 
L 383.336727 59.839658 
L 386.799709 59.839658 
L 387.232582 63.067718 
L 391.994182 63.067718 
L 392.427055 60.333362 
L 393.725673 60.333362 
L 394.158545 63.599398 
L 397.188655 63.599398 
L 397.621527 64.701194 
L 398.0544 68.04593 
L 398.487273 68.04593 
L 398.487273 68.04593 
" clip-path="url(#p38cccb9cb7)" style="fill: none; stroke: #1f77b4; stroke-width: 1.5; stroke-linecap: square"/>
   </g>
   <g id="patch_3">
    <path d="M 57.6 307.584 
L 57.6 41.472 
" style="fill: none; stroke: #000000; stroke-width: 0.8; stroke-linejoin: miter; stroke-linecap: square"/>
   </g>
   <g id="patch_4">
    <path d="M 414.72 307.584 
L 414.72 41.472 
" style="fill: none; stroke: #000000; stroke-width: 0.8; stroke-linejoin: miter; stroke-linecap: square"/>
   </g>
   <g id="patch_5">
    <path d="M 57.6 307.584 
L 414.72 307.584 
" style="fill: none; stroke: #000000; stroke-width: 0.8; stroke-linejoin: miter; stroke-linecap: square"/>
   </g>
   <g id="patch_6">
    <path d="M 57.6 41.472 
L 414.72 41.472 
" style="fill: none; stroke: #000000; stroke-width: 0.8; stroke-linejoin: miter; stroke-linecap: square"/>
   </g>
   <g id="text_16">
    <!-- Gráfico de intervalo de generación vs aprovechamiento -->
    <g transform="translate(68.834063 35.472)scale(0.12 -0.12)">
     <defs>
      <path id="DejaVuSans-47" d="M 3809 666 
L 3809 1919 
L 2778 1919 
L 2778 2438 
L 4434 2438 
L 4434 434 
Q 4069 175 3628 42 
Q 3188 -91 2688 -91 
Q 1594 -91 976 548 
Q 359 1188 359 2328 
Q 359 3472 976 4111 
Q 1594 4750 2688 4750 
Q 3144 4750 3555 4637 
Q 3966 4525 4313 4306 
L 4313 3634 
Q 3963 3931 3569 4081 
Q 3175 4231 2741 4231 
Q 1884 4231 1454 3753 
Q 1025 3275 1025 2328 
Q 1025 1384 1454 906 
Q 1884 428 2741 428 
Q 3075 428 3337 486 
Q 3600 544 3809 666 
z
" transform="scale(0.015625)"/>
      <path id="DejaVuSans-e1" d="M 2194 1759 
Q 1497 1759 1228 1600 
Q 959 1441 959 1056 
Q 959 750 1161 570 
Q 1363 391 1709 391 
Q 2188 391 2477 730 
Q 2766 1069 2766 1631 
L 2766 1759 
L 2194 1759 
z
M 3341 1997 
L 3341 0 
L 2766 0 
L 2766 531 
Q 2569 213 2275 61 
Q 1981 -91 1556 -91 
Q 1019 -91 701 211 
Q 384 513 384 1019 
Q 384 1609 779 1909 
Q 1175 2209 1959 2209 
L 2766 2209 
L 2766 2266 
Q 2766 2663 2505 2880 
Q 2244 3097 1772 3097 
Q 1472 3097 1187 3025 
Q 903 2953 641 2809 
L 641 3341 
Q 956 3463 1253 3523 
Q 1550 3584 1831 3584 
Q 2591 3584 2966 3190 
Q 3341 2797 3341 1997 
z
M 2290 5119 
L 2912 5119 
L 1894 3944 
L 1415 3944 
L 2290 5119 
z
" transform="scale(0.015625)"/>
      <path id="DejaVuSans-66" d="M 2375 4863 
L 2375 4384 
L 1825 4384 
Q 1516 4384 1395 4259 
Q 1275 4134 1275 3809 
L 1275 3500 
L 2222 3500 
L 2222 3053 
L 1275 3053 
L 1275 0 
L 697 0 
L 697 3053 
L 147 3053 
L 147 3500 
L 697 3500 
L 697 3744 
Q 697 4328 969 4595 
Q 1241 4863 1831 4863 
L 2375 4863 
z
" transform="scale(0.015625)"/>
      <path id="DejaVuSans-68" d="M 3513 2113 
L 3513 0 
L 2938 0 
L 2938 2094 
Q 2938 2591 2744 2837 
Q 2550 3084 2163 3084 
Q 1697 3084 1428 2787 
Q 1159 2491 1159 1978 
L 1159 0 
L 581 0 
L 581 4863 
L 1159 4863 
L 1159 2956 
Q 1366 3272 1645 3428 
Q 1925 3584 2291 3584 
Q 2894 3584 3203 3211 
Q 3513 2838 3513 2113 
z
" transform="scale(0.015625)"/>
      <path id="DejaVuSans-6d" d="M 3328 2828 
Q 3544 3216 3844 3400 
Q 4144 3584 4550 3584 
Q 5097 3584 5394 3201 
Q 5691 2819 5691 2113 
L 5691 0 
L 5113 0 
L 5113 2094 
Q 5113 2597 4934 2840 
Q 4756 3084 4391 3084 
Q 3944 3084 3684 2787 
Q 3425 2491 3425 1978 
L 3425 0 
L 2847 0 
L 2847 2094 
Q 2847 2600 2669 2842 
Q 2491 3084 2119 3084 
Q 1678 3084 1418 2786 
Q 1159 2488 1159 1978 
L 1159 0 
L 581 0 
L 581 3500 
L 1159 3500 
L 1159 2956 
Q 1356 3278 1631 3431 
Q 1906 3584 2284 3584 
Q 2666 3584 2933 3390 
Q 3200 3197 3328 2828 
z
" transform="scale(0.015625)"/>
     </defs>
     <use xlink:href="#DejaVuSans-47"/>
     <use xlink:href="#DejaVuSans-72" x="77.490234"/>
     <use xlink:href="#DejaVuSans-e1" x="118.603516"/>
     <use xlink:href="#DejaVuSans-66" x="179.882812"/>
     <use xlink:href="#DejaVuSans-69" x="215.087891"/>
     <use xlink:href="#DejaVuSans-63" x="242.871094"/>
     <use xlink:href="#DejaVuSans-6f" x="297.851562"/>
     <use xlink:href="#DejaVuSans-20" x="359.033203"/>
     <use xlink:href="#DejaVuSans-64" x="390.820312"/>
     <use xlink:href="#DejaVuSans-65" x="454.296875"/>
     <use xlink:href="#DejaVuSans-20" x="515.820312"/>
     <use xlink:href="#DejaVuSans-69" x="547.607422"/>
     <use xlink:href="#DejaVuSans-6e" x="575.390625"/>
     <use xlink:href="#DejaVuSans-74" x="638.769531"/>
     <use xlink:href="#DejaVuSans-65" x="677.978516"/>
     <use xlink:href="#DejaVuSans-72" x="739.501953"/>
     <use xlink:href="#DejaVuSans-76" x="780.615234"/>
     <use xlink:href="#DejaVuSans-61" x="839.794922"/>
     <use xlink:href="#DejaVuSans-6c" x="901.074219"/>
     <use xlink:href="#DejaVuSans-6f" x="928.857422"/>
     <use xlink:href="#DejaVuSans-20" x="990.039062"/>
     <use xlink:href="#DejaVuSans-64" x="1021.826172"/>
     <use xlink:href="#DejaVuSans-65" x="1085.302734"/>
     <use xlink:href="#DejaVuSans-20" x="1146.826172"/>
     <use xlink:href="#DejaVuSans-67" x="1178.613281"/>
     <use xlink:href="#DejaVuSans-65" x="1242.089844"/>
     <use xlink:href="#DejaVuSans-6e" x="1303.613281"/>
     <use xlink:href="#DejaVuSans-65" x="1366.992188"/>
     <use xlink:href="#DejaVuSans-72" x="1428.515625"/>
     <use xlink:href="#DejaVuSans-61" x="1469.628906"/>
     <use xlink:href="#DejaVuSans-63" x="1530.908203"/>
     <use xlink:href="#DejaVuSans-69" x="1585.888672"/>
     <use xlink:href="#DejaVuSans-f3" x="1613.671875"/>
     <use xlink:href="#DejaVuSans-6e" x="1674.853516"/>
     <use xlink:href="#DejaVuSans-20" x="1738.232422"/>
     <use xlink:href="#DejaVuSans-76" x="1770.019531"/>
     <use xlink:href="#DejaVuSans-73" x="1829.199219"/>
     <use xlink:href="#DejaVuSans-20" x="1881.298828"/>
     <use xlink:href="#DejaVuSans-61" x="1913.085938"/>
     <use xlink:href="#DejaVuSans-70" x="1974.365234"/>
     <use xlink:href="#DejaVuSans-72" x="2037.841797"/>
     <use xlink:href="#DejaVuSans-6f" x="2076.705078"/>
     <use xlink:href="#DejaVuSans-76" x="2137.886719"/>
     <use xlink:href="#DejaVuSans-65" x="2197.066406"/>
     <use xlink:href="#DejaVuSans-63" x="2258.589844"/>
     <use xlink:href="#DejaVuSans-68" x="2313.570312"/>
     <use xlink:href="#DejaVuSans-61" x="2376.949219"/>
     <use xlink:href="#DejaVuSans-6d" x="2438.228516"/>
     <use xlink:href="#DejaVuSans-69" x="2535.640625"/>
     <use xlink:href="#DejaVuSans-65" x="2563.423828"/>
     <use xlink:href="#DejaVuSans-6e" x="2624.947266"/>
     <use xlink:href="#DejaVuSans-74" x="2688.326172"/>
     <use xlink:href="#DejaVuSans-6f" x="2727.535156"/>
    </g>
   </g>
  </g>
 </g>
 <defs>
  <clipPath id="p38cccb9cb7">
   <rect x="57.6" y="41.472" width="357.12" height="266.112"/>
  </clipPath>
 </defs>
</svg>
