<?xml version="1.0" encoding="utf-8" standalone="no"?>
<!DOCTYPE svg PUBLIC "-//W3C//DTD SVG 1.1//EN"
  "http://www.w3.org/Graphics/SVG/1.1/DTD/svg11.dtd">
<svg xmlns:xlink="http://www.w3.org/1999/xlink" width="460.8pt" height="345.6pt" viewBox="0 0 460.8 345.6" xmlns="http://www.w3.org/2000/svg" version="1.1">
 <metadata>
  <rdf:RDF xmlns:dc="http://purl.org/dc/elements/1.1/" xmlns:cc="http://creativecommons.org/ns#" xmlns:rdf="http://www.w3.org/1999/02/22-rdf-syntax-ns#">
   <cc:Work>
    <dc:type rdf:resource="http://purl.org/dc/dcmitype/StillImage"/>
    <dc:date>2022-06-21T16:51:50.208628</dc:date>
    <dc:format>image/svg+xml</dc:format>
    <dc:creator>
     <cc:Agent>
      <dc:title>Matplotlib v3.5.1, https://matplotlib.org/</dc:title>
     </cc:Agent>
    </dc:creator>
   </cc:Work>
  </rdf:RDF>
 </metadata>
 <defs>
  <style type="text/css">*{stroke-linejoin: round; stroke-linecap: butt}</style>
 </defs>
 <g id="figure_1">
  <g id="patch_1">
   <path d="M 0 345.6 
L 460.8 345.6 
L 460.8 0 
L 0 0 
z
" style="fill: #ffffff"/>
  </g>
  <g id="axes_1">
   <g id="patch_2">
    <path d="M 57.6 307.584 
L 414.72 307.584 
L 414.72 41.472 
L 57.6 41.472 
z
" style="fill: #ffffff"/>
   </g>
   <g id="matplotlib.axis_1">
    <g id="xtick_1">
     <g id="line2d_1">
      <path d="M 73.832727 307.584 
L 73.832727 41.472 
" clip-path="url(#p1447800c7d)" style="fill: none; stroke: #b0b0b0; stroke-width: 0.8; stroke-linecap: square"/>
     </g>
     <g id="line2d_2">
      <defs>
       <path id="mfa353df1ea" d="M 0 0 
L 0 3.5 
" style="stroke: #000000; stroke-width: 0.8"/>
      </defs>
      <g>
       <use xlink:href="#mfa353df1ea" x="73.832727" y="307.584" style="stroke: #000000; stroke-width: 0.8"/>
      </g>
     </g>
     <g id="text_1">
      <!-- 0 -->
      <g transform="translate(70.651477 322.182437)scale(0.1 -0.1)">
       <defs>
        <path id="DejaVuSans-30" d="M 2034 4250 
Q 1547 4250 1301 3770 
Q 1056 3291 1056 2328 
Q 1056 1369 1301 889 
Q 1547 409 2034 409 
Q 2525 409 2770 889 
Q 3016 1369 3016 2328 
Q 3016 3291 2770 3770 
Q 2525 4250 2034 4250 
z
M 2034 4750 
Q 2819 4750 3233 4129 
Q 3647 3509 3647 2328 
Q 3647 1150 3233 529 
Q 2819 -91 2034 -91 
Q 1250 -91 836 529 
Q 422 1150 422 2328 
Q 422 3509 836 4129 
Q 1250 4750 2034 4750 
z
" transform="scale(0.015625)"/>
       </defs>
       <use xlink:href="#DejaVuSans-30"/>
      </g>
     </g>
    </g>
    <g id="xtick_2">
     <g id="line2d_3">
      <path d="M 117.12 307.584 
L 117.12 41.472 
" clip-path="url(#p1447800c7d)" style="fill: none; stroke: #b0b0b0; stroke-width: 0.8; stroke-linecap: square"/>
     </g>
     <g id="line2d_4">
      <g>
       <use xlink:href="#mfa353df1ea" x="117.12" y="307.584" style="stroke: #000000; stroke-width: 0.8"/>
      </g>
     </g>
     <g id="text_2">
      <!-- 2 -->
      <g transform="translate(113.93875 322.182437)scale(0.1 -0.1)">
       <defs>
        <path id="DejaVuSans-32" d="M 1228 531 
L 3431 531 
L 3431 0 
L 469 0 
L 469 531 
Q 828 903 1448 1529 
Q 2069 2156 2228 2338 
Q 2531 2678 2651 2914 
Q 2772 3150 2772 3378 
Q 2772 3750 2511 3984 
Q 2250 4219 1831 4219 
Q 1534 4219 1204 4116 
Q 875 4013 500 3803 
L 500 4441 
Q 881 4594 1212 4672 
Q 1544 4750 1819 4750 
Q 2544 4750 2975 4387 
Q 3406 4025 3406 3419 
Q 3406 3131 3298 2873 
Q 3191 2616 2906 2266 
Q 2828 2175 2409 1742 
Q 1991 1309 1228 531 
z
" transform="scale(0.015625)"/>
       </defs>
       <use xlink:href="#DejaVuSans-32"/>
      </g>
     </g>
    </g>
    <g id="xtick_3">
     <g id="line2d_5">
      <path d="M 160.407273 307.584 
L 160.407273 41.472 
" clip-path="url(#p1447800c7d)" style="fill: none; stroke: #b0b0b0; stroke-width: 0.8; stroke-linecap: square"/>
     </g>
     <g id="line2d_6">
      <g>
       <use xlink:href="#mfa353df1ea" x="160.407273" y="307.584" style="stroke: #000000; stroke-width: 0.8"/>
      </g>
     </g>
     <g id="text_3">
      <!-- 4 -->
      <g transform="translate(157.226023 322.182437)scale(0.1 -0.1)">
       <defs>
        <path id="DejaVuSans-34" d="M 2419 4116 
L 825 1625 
L 2419 1625 
L 2419 4116 
z
M 2253 4666 
L 3047 4666 
L 3047 1625 
L 3713 1625 
L 3713 1100 
L 3047 1100 
L 3047 0 
L 2419 0 
L 2419 1100 
L 313 1100 
L 313 1709 
L 2253 4666 
z
" transform="scale(0.015625)"/>
       </defs>
       <use xlink:href="#DejaVuSans-34"/>
      </g>
     </g>
    </g>
    <g id="xtick_4">
     <g id="line2d_7">
      <path d="M 203.694545 307.584 
L 203.694545 41.472 
" clip-path="url(#p1447800c7d)" style="fill: none; stroke: #b0b0b0; stroke-width: 0.8; stroke-linecap: square"/>
     </g>
     <g id="line2d_8">
      <g>
       <use xlink:href="#mfa353df1ea" x="203.694545" y="307.584" style="stroke: #000000; stroke-width: 0.8"/>
      </g>
     </g>
     <g id="text_4">
      <!-- 6 -->
      <g transform="translate(200.513295 322.182437)scale(0.1 -0.1)">
       <defs>
        <path id="DejaVuSans-36" d="M 2113 2584 
Q 1688 2584 1439 2293 
Q 1191 2003 1191 1497 
Q 1191 994 1439 701 
Q 1688 409 2113 409 
Q 2538 409 2786 701 
Q 3034 994 3034 1497 
Q 3034 2003 2786 2293 
Q 2538 2584 2113 2584 
z
M 3366 4563 
L 3366 3988 
Q 3128 4100 2886 4159 
Q 2644 4219 2406 4219 
Q 1781 4219 1451 3797 
Q 1122 3375 1075 2522 
Q 1259 2794 1537 2939 
Q 1816 3084 2150 3084 
Q 2853 3084 3261 2657 
Q 3669 2231 3669 1497 
Q 3669 778 3244 343 
Q 2819 -91 2113 -91 
Q 1303 -91 875 529 
Q 447 1150 447 2328 
Q 447 3434 972 4092 
Q 1497 4750 2381 4750 
Q 2619 4750 2861 4703 
Q 3103 4656 3366 4563 
z
" transform="scale(0.015625)"/>
       </defs>
       <use xlink:href="#DejaVuSans-36"/>
      </g>
     </g>
    </g>
    <g id="xtick_5">
     <g id="line2d_9">
      <path d="M 246.981818 307.584 
L 246.981818 41.472 
" clip-path="url(#p1447800c7d)" style="fill: none; stroke: #b0b0b0; stroke-width: 0.8; stroke-linecap: square"/>
     </g>
     <g id="line2d_10">
      <g>
       <use xlink:href="#mfa353df1ea" x="246.981818" y="307.584" style="stroke: #000000; stroke-width: 0.8"/>
      </g>
     </g>
     <g id="text_5">
      <!-- 8 -->
      <g transform="translate(243.800568 322.182437)scale(0.1 -0.1)">
       <defs>
        <path id="DejaVuSans-38" d="M 2034 2216 
Q 1584 2216 1326 1975 
Q 1069 1734 1069 1313 
Q 1069 891 1326 650 
Q 1584 409 2034 409 
Q 2484 409 2743 651 
Q 3003 894 3003 1313 
Q 3003 1734 2745 1975 
Q 2488 2216 2034 2216 
z
M 1403 2484 
Q 997 2584 770 2862 
Q 544 3141 544 3541 
Q 544 4100 942 4425 
Q 1341 4750 2034 4750 
Q 2731 4750 3128 4425 
Q 3525 4100 3525 3541 
Q 3525 3141 3298 2862 
Q 3072 2584 2669 2484 
Q 3125 2378 3379 2068 
Q 3634 1759 3634 1313 
Q 3634 634 3220 271 
Q 2806 -91 2034 -91 
Q 1263 -91 848 271 
Q 434 634 434 1313 
Q 434 1759 690 2068 
Q 947 2378 1403 2484 
z
M 1172 3481 
Q 1172 3119 1398 2916 
Q 1625 2713 2034 2713 
Q 2441 2713 2670 2916 
Q 2900 3119 2900 3481 
Q 2900 3844 2670 4047 
Q 2441 4250 2034 4250 
Q 1625 4250 1398 4047 
Q 1172 3844 1172 3481 
z
" transform="scale(0.015625)"/>
       </defs>
       <use xlink:href="#DejaVuSans-38"/>
      </g>
     </g>
    </g>
    <g id="xtick_6">
     <g id="line2d_11">
      <path d="M 290.269091 307.584 
L 290.269091 41.472 
" clip-path="url(#p1447800c7d)" style="fill: none; stroke: #b0b0b0; stroke-width: 0.8; stroke-linecap: square"/>
     </g>
     <g id="line2d_12">
      <g>
       <use xlink:href="#mfa353df1ea" x="290.269091" y="307.584" style="stroke: #000000; stroke-width: 0.8"/>
      </g>
     </g>
     <g id="text_6">
      <!-- 10 -->
      <g transform="translate(283.906591 322.182437)scale(0.1 -0.1)">
       <defs>
        <path id="DejaVuSans-31" d="M 794 531 
L 1825 531 
L 1825 4091 
L 703 3866 
L 703 4441 
L 1819 4666 
L 2450 4666 
L 2450 531 
L 3481 531 
L 3481 0 
L 794 0 
L 794 531 
z
" transform="scale(0.015625)"/>
       </defs>
       <use xlink:href="#DejaVuSans-31"/>
       <use xlink:href="#DejaVuSans-30" x="63.623047"/>
      </g>
     </g>
    </g>
    <g id="xtick_7">
     <g id="line2d_13">
      <path d="M 333.556364 307.584 
L 333.556364 41.472 
" clip-path="url(#p1447800c7d)" style="fill: none; stroke: #b0b0b0; stroke-width: 0.8; stroke-linecap: square"/>
     </g>
     <g id="line2d_14">
      <g>
       <use xlink:href="#mfa353df1ea" x="333.556364" y="307.584" style="stroke: #000000; stroke-width: 0.8"/>
      </g>
     </g>
     <g id="text_7">
      <!-- 12 -->
      <g transform="translate(327.193864 322.182437)scale(0.1 -0.1)">
       <use xlink:href="#DejaVuSans-31"/>
       <use xlink:href="#DejaVuSans-32" x="63.623047"/>
      </g>
     </g>
    </g>
    <g id="xtick_8">
     <g id="line2d_15">
      <path d="M 376.843636 307.584 
L 376.843636 41.472 
" clip-path="url(#p1447800c7d)" style="fill: none; stroke: #b0b0b0; stroke-width: 0.8; stroke-linecap: square"/>
     </g>
     <g id="line2d_16">
      <g>
       <use xlink:href="#mfa353df1ea" x="376.843636" y="307.584" style="stroke: #000000; stroke-width: 0.8"/>
      </g>
     </g>
     <g id="text_8">
      <!-- 14 -->
      <g transform="translate(370.481136 322.182437)scale(0.1 -0.1)">
       <use xlink:href="#DejaVuSans-31"/>
       <use xlink:href="#DejaVuSans-34" x="63.623047"/>
      </g>
     </g>
    </g>
    <g id="text_9">
     <!-- Intervalo de generación -->
     <g transform="translate(176.54125 336.260562)scale(0.1 -0.1)">
      <defs>
       <path id="DejaVuSans-49" d="M 628 4666 
L 1259 4666 
L 1259 0 
L 628 0 
L 628 4666 
z
" transform="scale(0.015625)"/>
       <path id="DejaVuSans-6e" d="M 3513 2113 
L 3513 0 
L 2938 0 
L 2938 2094 
Q 2938 2591 2744 2837 
Q 2550 3084 2163 3084 
Q 1697 3084 1428 2787 
Q 1159 2491 1159 1978 
L 1159 0 
L 581 0 
L 581 3500 
L 1159 3500 
L 1159 2956 
Q 1366 3272 1645 3428 
Q 1925 3584 2291 3584 
Q 2894 3584 3203 3211 
Q 3513 2838 3513 2113 
z
" transform="scale(0.015625)"/>
       <path id="DejaVuSans-74" d="M 1172 4494 
L 1172 3500 
L 2356 3500 
L 2356 3053 
L 1172 3053 
L 1172 1153 
Q 1172 725 1289 603 
Q 1406 481 1766 481 
L 2356 481 
L 2356 0 
L 1766 0 
Q 1100 0 847 248 
Q 594 497 594 1153 
L 594 3053 
L 172 3053 
L 172 3500 
L 594 3500 
L 594 4494 
L 1172 4494 
z
" transform="scale(0.015625)"/>
       <path id="DejaVuSans-65" d="M 3597 1894 
L 3597 1613 
L 953 1613 
Q 991 1019 1311 708 
Q 1631 397 2203 397 
Q 2534 397 2845 478 
Q 3156 559 3463 722 
L 3463 178 
Q 3153 47 2828 -22 
Q 2503 -91 2169 -91 
Q 1331 -91 842 396 
Q 353 884 353 1716 
Q 353 2575 817 3079 
Q 1281 3584 2069 3584 
Q 2775 3584 3186 3129 
Q 3597 2675 3597 1894 
z
M 3022 2063 
Q 3016 2534 2758 2815 
Q 2500 3097 2075 3097 
Q 1594 3097 1305 2825 
Q 1016 2553 972 2059 
L 3022 2063 
z
" transform="scale(0.015625)"/>
       <path id="DejaVuSans-72" d="M 2631 2963 
Q 2534 3019 2420 3045 
Q 2306 3072 2169 3072 
Q 1681 3072 1420 2755 
Q 1159 2438 1159 1844 
L 1159 0 
L 581 0 
L 581 3500 
L 1159 3500 
L 1159 2956 
Q 1341 3275 1631 3429 
Q 1922 3584 2338 3584 
Q 2397 3584 2469 3576 
Q 2541 3569 2628 3553 
L 2631 2963 
z
" transform="scale(0.015625)"/>
       <path id="DejaVuSans-76" d="M 191 3500 
L 800 3500 
L 1894 563 
L 2988 3500 
L 3597 3500 
L 2284 0 
L 1503 0 
L 191 3500 
z
" transform="scale(0.015625)"/>
       <path id="DejaVuSans-61" d="M 2194 1759 
Q 1497 1759 1228 1600 
Q 959 1441 959 1056 
Q 959 750 1161 570 
Q 1363 391 1709 391 
Q 2188 391 2477 730 
Q 2766 1069 2766 1631 
L 2766 1759 
L 2194 1759 
z
M 3341 1997 
L 3341 0 
L 2766 0 
L 2766 531 
Q 2569 213 2275 61 
Q 1981 -91 1556 -91 
Q 1019 -91 701 211 
Q 384 513 384 1019 
Q 384 1609 779 1909 
Q 1175 2209 1959 2209 
L 2766 2209 
L 2766 2266 
Q 2766 2663 2505 2880 
Q 2244 3097 1772 3097 
Q 1472 3097 1187 3025 
Q 903 2953 641 2809 
L 641 3341 
Q 956 3463 1253 3523 
Q 1550 3584 1831 3584 
Q 2591 3584 2966 3190 
Q 3341 2797 3341 1997 
z
" transform="scale(0.015625)"/>
       <path id="DejaVuSans-6c" d="M 603 4863 
L 1178 4863 
L 1178 0 
L 603 0 
L 603 4863 
z
" transform="scale(0.015625)"/>
       <path id="DejaVuSans-6f" d="M 1959 3097 
Q 1497 3097 1228 2736 
Q 959 2375 959 1747 
Q 959 1119 1226 758 
Q 1494 397 1959 397 
Q 2419 397 2687 759 
Q 2956 1122 2956 1747 
Q 2956 2369 2687 2733 
Q 2419 3097 1959 3097 
z
M 1959 3584 
Q 2709 3584 3137 3096 
Q 3566 2609 3566 1747 
Q 3566 888 3137 398 
Q 2709 -91 1959 -91 
Q 1206 -91 779 398 
Q 353 888 353 1747 
Q 353 2609 779 3096 
Q 1206 3584 1959 3584 
z
" transform="scale(0.015625)"/>
       <path id="DejaVuSans-20" transform="scale(0.015625)"/>
       <path id="DejaVuSans-64" d="M 2906 2969 
L 2906 4863 
L 3481 4863 
L 3481 0 
L 2906 0 
L 2906 525 
Q 2725 213 2448 61 
Q 2172 -91 1784 -91 
Q 1150 -91 751 415 
Q 353 922 353 1747 
Q 353 2572 751 3078 
Q 1150 3584 1784 3584 
Q 2172 3584 2448 3432 
Q 2725 3281 2906 2969 
z
M 947 1747 
Q 947 1113 1208 752 
Q 1469 391 1925 391 
Q 2381 391 2643 752 
Q 2906 1113 2906 1747 
Q 2906 2381 2643 2742 
Q 2381 3103 1925 3103 
Q 1469 3103 1208 2742 
Q 947 2381 947 1747 
z
" transform="scale(0.015625)"/>
       <path id="DejaVuSans-67" d="M 2906 1791 
Q 2906 2416 2648 2759 
Q 2391 3103 1925 3103 
Q 1463 3103 1205 2759 
Q 947 2416 947 1791 
Q 947 1169 1205 825 
Q 1463 481 1925 481 
Q 2391 481 2648 825 
Q 2906 1169 2906 1791 
z
M 3481 434 
Q 3481 -459 3084 -895 
Q 2688 -1331 1869 -1331 
Q 1566 -1331 1297 -1286 
Q 1028 -1241 775 -1147 
L 775 -588 
Q 1028 -725 1275 -790 
Q 1522 -856 1778 -856 
Q 2344 -856 2625 -561 
Q 2906 -266 2906 331 
L 2906 616 
Q 2728 306 2450 153 
Q 2172 0 1784 0 
Q 1141 0 747 490 
Q 353 981 353 1791 
Q 353 2603 747 3093 
Q 1141 3584 1784 3584 
Q 2172 3584 2450 3431 
Q 2728 3278 2906 2969 
L 2906 3500 
L 3481 3500 
L 3481 434 
z
" transform="scale(0.015625)"/>
       <path id="DejaVuSans-63" d="M 3122 3366 
L 3122 2828 
Q 2878 2963 2633 3030 
Q 2388 3097 2138 3097 
Q 1578 3097 1268 2742 
Q 959 2388 959 1747 
Q 959 1106 1268 751 
Q 1578 397 2138 397 
Q 2388 397 2633 464 
Q 2878 531 3122 666 
L 3122 134 
Q 2881 22 2623 -34 
Q 2366 -91 2075 -91 
Q 1284 -91 818 406 
Q 353 903 353 1747 
Q 353 2603 823 3093 
Q 1294 3584 2113 3584 
Q 2378 3584 2631 3529 
Q 2884 3475 3122 3366 
z
" transform="scale(0.015625)"/>
       <path id="DejaVuSans-69" d="M 603 3500 
L 1178 3500 
L 1178 0 
L 603 0 
L 603 3500 
z
M 603 4863 
L 1178 4863 
L 1178 4134 
L 603 4134 
L 603 4863 
z
" transform="scale(0.015625)"/>
       <path id="DejaVuSans-f3" d="M 1959 3097 
Q 1497 3097 1228 2736 
Q 959 2375 959 1747 
Q 959 1119 1226 758 
Q 1494 397 1959 397 
Q 2419 397 2687 759 
Q 2956 1122 2956 1747 
Q 2956 2369 2687 2733 
Q 2419 3097 1959 3097 
z
M 1959 3584 
Q 2709 3584 3137 3096 
Q 3566 2609 3566 1747 
Q 3566 888 3137 398 
Q 2709 -91 1959 -91 
Q 1206 -91 779 398 
Q 353 888 353 1747 
Q 353 2609 779 3096 
Q 1206 3584 1959 3584 
z
M 2394 5119 
L 3016 5119 
L 1998 3944 
L 1519 3944 
L 2394 5119 
z
" transform="scale(0.015625)"/>
      </defs>
      <use xlink:href="#DejaVuSans-49"/>
      <use xlink:href="#DejaVuSans-6e" x="29.492188"/>
      <use xlink:href="#DejaVuSans-74" x="92.871094"/>
      <use xlink:href="#DejaVuSans-65" x="132.080078"/>
      <use xlink:href="#DejaVuSans-72" x="193.603516"/>
      <use xlink:href="#DejaVuSans-76" x="234.716797"/>
      <use xlink:href="#DejaVuSans-61" x="293.896484"/>
      <use xlink:href="#DejaVuSans-6c" x="355.175781"/>
      <use xlink:href="#DejaVuSans-6f" x="382.958984"/>
      <use xlink:href="#DejaVuSans-20" x="444.140625"/>
      <use xlink:href="#DejaVuSans-64" x="475.927734"/>
      <use xlink:href="#DejaVuSans-65" x="539.404297"/>
      <use xlink:href="#DejaVuSans-20" x="600.927734"/>
      <use xlink:href="#DejaVuSans-67" x="632.714844"/>
      <use xlink:href="#DejaVuSans-65" x="696.191406"/>
      <use xlink:href="#DejaVuSans-6e" x="757.714844"/>
      <use xlink:href="#DejaVuSans-65" x="821.09375"/>
      <use xlink:href="#DejaVuSans-72" x="882.617188"/>
      <use xlink:href="#DejaVuSans-61" x="923.730469"/>
      <use xlink:href="#DejaVuSans-63" x="985.009766"/>
      <use xlink:href="#DejaVuSans-69" x="1039.990234"/>
      <use xlink:href="#DejaVuSans-f3" x="1067.773438"/>
      <use xlink:href="#DejaVuSans-6e" x="1128.955078"/>
     </g>
    </g>
   </g>
   <g id="matplotlib.axis_2">
    <g id="ytick_1">
     <g id="line2d_17">
      <path d="M 57.6 295.488 
L 414.72 295.488 
" clip-path="url(#p1447800c7d)" style="fill: none; stroke: #b0b0b0; stroke-width: 0.8; stroke-linecap: square"/>
     </g>
     <g id="line2d_18">
      <defs>
       <path id="m41e6b8e11a" d="M 0 0 
L -3.5 0 
" style="stroke: #000000; stroke-width: 0.8"/>
      </defs>
      <g>
       <use xlink:href="#m41e6b8e11a" x="57.6" y="295.488" style="stroke: #000000; stroke-width: 0.8"/>
      </g>
     </g>
     <g id="text_10">
      <!-- 0.0 -->
      <g transform="translate(34.696875 299.287219)scale(0.1 -0.1)">
       <defs>
        <path id="DejaVuSans-2e" d="M 684 794 
L 1344 794 
L 1344 0 
L 684 0 
L 684 794 
z
" transform="scale(0.015625)"/>
       </defs>
       <use xlink:href="#DejaVuSans-30"/>
       <use xlink:href="#DejaVuSans-2e" x="63.623047"/>
       <use xlink:href="#DejaVuSans-30" x="95.410156"/>
      </g>
     </g>
    </g>
    <g id="ytick_2">
     <g id="line2d_19">
      <path d="M 57.6 247.104 
L 414.72 247.104 
" clip-path="url(#p1447800c7d)" style="fill: none; stroke: #b0b0b0; stroke-width: 0.8; stroke-linecap: square"/>
     </g>
     <g id="line2d_20">
      <g>
       <use xlink:href="#m41e6b8e11a" x="57.6" y="247.104" style="stroke: #000000; stroke-width: 0.8"/>
      </g>
     </g>
     <g id="text_11">
      <!-- 0.2 -->
      <g transform="translate(34.696875 250.903219)scale(0.1 -0.1)">
       <use xlink:href="#DejaVuSans-30"/>
       <use xlink:href="#DejaVuSans-2e" x="63.623047"/>
       <use xlink:href="#DejaVuSans-32" x="95.410156"/>
      </g>
     </g>
    </g>
    <g id="ytick_3">
     <g id="line2d_21">
      <path d="M 57.6 198.72 
L 414.72 198.72 
" clip-path="url(#p1447800c7d)" style="fill: none; stroke: #b0b0b0; stroke-width: 0.8; stroke-linecap: square"/>
     </g>
     <g id="line2d_22">
      <g>
       <use xlink:href="#m41e6b8e11a" x="57.6" y="198.72" style="stroke: #000000; stroke-width: 0.8"/>
      </g>
     </g>
     <g id="text_12">
      <!-- 0.4 -->
      <g transform="translate(34.696875 202.519219)scale(0.1 -0.1)">
       <use xlink:href="#DejaVuSans-30"/>
       <use xlink:href="#DejaVuSans-2e" x="63.623047"/>
       <use xlink:href="#DejaVuSans-34" x="95.410156"/>
      </g>
     </g>
    </g>
    <g id="ytick_4">
     <g id="line2d_23">
      <path d="M 57.6 150.336 
L 414.72 150.336 
" clip-path="url(#p1447800c7d)" style="fill: none; stroke: #b0b0b0; stroke-width: 0.8; stroke-linecap: square"/>
     </g>
     <g id="line2d_24">
      <g>
       <use xlink:href="#m41e6b8e11a" x="57.6" y="150.336" style="stroke: #000000; stroke-width: 0.8"/>
      </g>
     </g>
     <g id="text_13">
      <!-- 0.6 -->
      <g transform="translate(34.696875 154.135219)scale(0.1 -0.1)">
       <use xlink:href="#DejaVuSans-30"/>
       <use xlink:href="#DejaVuSans-2e" x="63.623047"/>
       <use xlink:href="#DejaVuSans-36" x="95.410156"/>
      </g>
     </g>
    </g>
    <g id="ytick_5">
     <g id="line2d_25">
      <path d="M 57.6 101.952 
L 414.72 101.952 
" clip-path="url(#p1447800c7d)" style="fill: none; stroke: #b0b0b0; stroke-width: 0.8; stroke-linecap: square"/>
     </g>
     <g id="line2d_26">
      <g>
       <use xlink:href="#m41e6b8e11a" x="57.6" y="101.952" style="stroke: #000000; stroke-width: 0.8"/>
      </g>
     </g>
     <g id="text_14">
      <!-- 0.8 -->
      <g transform="translate(34.696875 105.751219)scale(0.1 -0.1)">
       <use xlink:href="#DejaVuSans-30"/>
       <use xlink:href="#DejaVuSans-2e" x="63.623047"/>
       <use xlink:href="#DejaVuSans-38" x="95.410156"/>
      </g>
     </g>
    </g>
    <g id="ytick_6">
     <g id="line2d_27">
      <path d="M 57.6 53.568 
L 414.72 53.568 
" clip-path="url(#p1447800c7d)" style="fill: none; stroke: #b0b0b0; stroke-width: 0.8; stroke-linecap: square"/>
     </g>
     <g id="line2d_28">
      <g>
       <use xlink:href="#m41e6b8e11a" x="57.6" y="53.568" style="stroke: #000000; stroke-width: 0.8"/>
      </g>
     </g>
     <g id="text_15">
      <!-- 1.0 -->
      <g transform="translate(34.696875 57.367219)scale(0.1 -0.1)">
       <use xlink:href="#DejaVuSans-31"/>
       <use xlink:href="#DejaVuSans-2e" x="63.623047"/>
       <use xlink:href="#DejaVuSans-30" x="95.410156"/>
      </g>
     </g>
    </g>
    <g id="text_16">
     <!-- paquetes recibidos / paquetes enviados -->
     <g transform="translate(28.617187 274.222531)rotate(-90)scale(0.1 -0.1)">
      <defs>
       <path id="DejaVuSans-70" d="M 1159 525 
L 1159 -1331 
L 581 -1331 
L 581 3500 
L 1159 3500 
L 1159 2969 
Q 1341 3281 1617 3432 
Q 1894 3584 2278 3584 
Q 2916 3584 3314 3078 
Q 3713 2572 3713 1747 
Q 3713 922 3314 415 
Q 2916 -91 2278 -91 
Q 1894 -91 1617 61 
Q 1341 213 1159 525 
z
M 3116 1747 
Q 3116 2381 2855 2742 
Q 2594 3103 2138 3103 
Q 1681 3103 1420 2742 
Q 1159 2381 1159 1747 
Q 1159 1113 1420 752 
Q 1681 391 2138 391 
Q 2594 391 2855 752 
Q 3116 1113 3116 1747 
z
" transform="scale(0.015625)"/>
       <path id="DejaVuSans-71" d="M 947 1747 
Q 947 1113 1208 752 
Q 1469 391 1925 391 
Q 2381 391 2643 752 
Q 2906 1113 2906 1747 
Q 2906 2381 2643 2742 
Q 2381 3103 1925 3103 
Q 1469 3103 1208 2742 
Q 947 2381 947 1747 
z
M 2906 525 
Q 2725 213 2448 61 
Q 2172 -91 1784 -91 
Q 1150 -91 751 415 
Q 353 922 353 1747 
Q 353 2572 751 3078 
Q 1150 3584 1784 3584 
Q 2172 3584 2448 3432 
Q 2725 3281 2906 2969 
L 2906 3500 
L 3481 3500 
L 3481 -1331 
L 2906 -1331 
L 2906 525 
z
" transform="scale(0.015625)"/>
       <path id="DejaVuSans-75" d="M 544 1381 
L 544 3500 
L 1119 3500 
L 1119 1403 
Q 1119 906 1312 657 
Q 1506 409 1894 409 
Q 2359 409 2629 706 
Q 2900 1003 2900 1516 
L 2900 3500 
L 3475 3500 
L 3475 0 
L 2900 0 
L 2900 538 
Q 2691 219 2414 64 
Q 2138 -91 1772 -91 
Q 1169 -91 856 284 
Q 544 659 544 1381 
z
M 1991 3584 
L 1991 3584 
z
" transform="scale(0.015625)"/>
       <path id="DejaVuSans-73" d="M 2834 3397 
L 2834 2853 
Q 2591 2978 2328 3040 
Q 2066 3103 1784 3103 
Q 1356 3103 1142 2972 
Q 928 2841 928 2578 
Q 928 2378 1081 2264 
Q 1234 2150 1697 2047 
L 1894 2003 
Q 2506 1872 2764 1633 
Q 3022 1394 3022 966 
Q 3022 478 2636 193 
Q 2250 -91 1575 -91 
Q 1294 -91 989 -36 
Q 684 19 347 128 
L 347 722 
Q 666 556 975 473 
Q 1284 391 1588 391 
Q 1994 391 2212 530 
Q 2431 669 2431 922 
Q 2431 1156 2273 1281 
Q 2116 1406 1581 1522 
L 1381 1569 
Q 847 1681 609 1914 
Q 372 2147 372 2553 
Q 372 3047 722 3315 
Q 1072 3584 1716 3584 
Q 2034 3584 2315 3537 
Q 2597 3491 2834 3397 
z
" transform="scale(0.015625)"/>
       <path id="DejaVuSans-62" d="M 3116 1747 
Q 3116 2381 2855 2742 
Q 2594 3103 2138 3103 
Q 1681 3103 1420 2742 
Q 1159 2381 1159 1747 
Q 1159 1113 1420 752 
Q 1681 391 2138 391 
Q 2594 391 2855 752 
Q 3116 1113 3116 1747 
z
M 1159 2969 
Q 1341 3281 1617 3432 
Q 1894 3584 2278 3584 
Q 2916 3584 3314 3078 
Q 3713 2572 3713 1747 
Q 3713 922 3314 415 
Q 2916 -91 2278 -91 
Q 1894 -91 1617 61 
Q 1341 213 1159 525 
L 1159 0 
L 581 0 
L 581 4863 
L 1159 4863 
L 1159 2969 
z
" transform="scale(0.015625)"/>
       <path id="DejaVuSans-2f" d="M 1625 4666 
L 2156 4666 
L 531 -594 
L 0 -594 
L 1625 4666 
z
" transform="scale(0.015625)"/>
      </defs>
      <use xlink:href="#DejaVuSans-70"/>
      <use xlink:href="#DejaVuSans-61" x="63.476562"/>
      <use xlink:href="#DejaVuSans-71" x="124.755859"/>
      <use xlink:href="#DejaVuSans-75" x="188.232422"/>
      <use xlink:href="#DejaVuSans-65" x="251.611328"/>
      <use xlink:href="#DejaVuSans-74" x="313.134766"/>
      <use xlink:href="#DejaVuSans-65" x="352.34375"/>
      <use xlink:href="#DejaVuSans-73" x="413.867188"/>
      <use xlink:href="#DejaVuSans-20" x="465.966797"/>
      <use xlink:href="#DejaVuSans-72" x="497.753906"/>
      <use xlink:href="#DejaVuSans-65" x="536.617188"/>
      <use xlink:href="#DejaVuSans-63" x="598.140625"/>
      <use xlink:href="#DejaVuSans-69" x="653.121094"/>
      <use xlink:href="#DejaVuSans-62" x="680.904297"/>
      <use xlink:href="#DejaVuSans-69" x="744.380859"/>
      <use xlink:href="#DejaVuSans-64" x="772.164062"/>
      <use xlink:href="#DejaVuSans-6f" x="835.640625"/>
      <use xlink:href="#DejaVuSans-73" x="896.822266"/>
      <use xlink:href="#DejaVuSans-20" x="948.921875"/>
      <use xlink:href="#DejaVuSans-2f" x="980.708984"/>
      <use xlink:href="#DejaVuSans-20" x="1014.400391"/>
      <use xlink:href="#DejaVuSans-70" x="1046.1875"/>
      <use xlink:href="#DejaVuSans-61" x="1109.664062"/>
      <use xlink:href="#DejaVuSans-71" x="1170.943359"/>
      <use xlink:href="#DejaVuSans-75" x="1234.419922"/>
      <use xlink:href="#DejaVuSans-65" x="1297.798828"/>
      <use xlink:href="#DejaVuSans-74" x="1359.322266"/>
      <use xlink:href="#DejaVuSans-65" x="1398.53125"/>
      <use xlink:href="#DejaVuSans-73" x="1460.054688"/>
      <use xlink:href="#DejaVuSans-20" x="1512.154297"/>
      <use xlink:href="#DejaVuSans-65" x="1543.941406"/>
      <use xlink:href="#DejaVuSans-6e" x="1605.464844"/>
      <use xlink:href="#DejaVuSans-76" x="1668.84375"/>
      <use xlink:href="#DejaVuSans-69" x="1728.023438"/>
      <use xlink:href="#DejaVuSans-61" x="1755.806641"/>
      <use xlink:href="#DejaVuSans-64" x="1817.085938"/>
      <use xlink:href="#DejaVuSans-6f" x="1880.5625"/>
      <use xlink:href="#DejaVuSans-73" x="1941.744141"/>
     </g>
    </g>
   </g>
   <g id="line2d_29">
    <path d="M 73.832727 295.488 
L 76.862836 290.520531 
L 83.355927 278.130206 
L 83.7888 277.229887 
L 84.221673 276.056675 
L 85.087418 274.451478 
L 87.251782 269.405242 
L 88.5504 267.157895 
L 89.416145 264.599799 
L 89.849018 263.842499 
L 90.281891 262.703342 
L 90.714764 262.069622 
L 93.312 254.578181 
L 93.744873 254.230326 
L 94.177745 252.614236 
L 94.610618 251.585121 
L 95.043491 250.147409 
L 95.476364 249.287451 
L 95.909236 248.134818 
L 96.342109 247.367673 
L 97.640727 243.23328 
L 98.0736 242.640531 
L 98.939345 240.789851 
L 99.372218 239.861333 
L 100.670836 235.008 
L 101.103709 233.861223 
L 101.536582 233.037474 
L 101.969455 232.458253 
L 102.402327 231.347233 
L 102.8352 230.836966 
L 103.700945 227.854452 
L 104.133818 226.900174 
L 104.566691 226.368 
L 106.731055 221.972505 
L 107.163927 221.416322 
L 107.5968 219.978179 
L 108.029673 218.989631 
L 108.462545 216.993998 
L 108.895418 217.01395 
L 110.194036 213.219775 
L 110.626909 212.59597 
L 111.059782 211.158588 
L 111.492655 210.13585 
L 111.925527 208.548 
L 112.791273 207.115397 
L 113.224145 206.022194 
L 114.089891 202.681263 
L 114.522764 201.471697 
L 114.955636 200.911409 
L 115.388509 199.88588 
L 116.254255 196.452932 
L 117.12 194.204974 
L 117.552873 193.302962 
L 117.985745 192.119351 
L 119.284364 187.4304 
L 119.717236 186.380456 
L 120.150109 184.989405 
L 120.582982 184.086147 
L 121.015855 184.138521 
L 121.448727 182.056631 
L 121.8816 180.947665 
L 122.314473 179.447832 
L 122.747345 178.805228 
L 123.613091 174.875586 
L 124.045964 174.877595 
L 124.478836 171.508441 
L 124.911709 170.603044 
L 125.344582 168.352865 
L 125.777455 167.197091 
L 126.210327 165.051871 
L 127.941818 159.625728 
L 128.374691 159.359383 
L 128.807564 157.695379 
L 129.240436 157.58572 
L 129.673309 155.429053 
L 130.106182 154.668896 
L 130.971927 152.609074 
L 131.4048 150.581604 
L 132.270545 149.430857 
L 133.569164 145.22973 
L 134.002036 143.120842 
L 134.867782 140.122562 
L 135.300655 137.561924 
L 135.733527 137.427746 
L 136.1664 136.271912 
L 137.032145 132.405989 
L 137.465018 131.182109 
L 137.897891 130.418526 
L 138.330764 128.882717 
L 138.763636 128.251636 
L 139.196509 128.852402 
L 139.629382 128.2176 
L 140.062255 126.975023 
L 140.495127 126.933374 
L 140.928 125.629277 
L 141.793745 124.499883 
L 142.226618 122.688 
L 142.659491 122.009022 
L 144.390982 117.07806 
L 144.823855 115.397452 
L 145.256727 114.663886 
L 145.6896 112.305778 
L 146.122473 112.169739 
L 146.555345 112.29132 
L 146.988218 110.638898 
L 147.421091 109.863849 
L 147.853964 108.572968 
L 148.286836 106.759712 
L 148.719709 105.847322 
L 149.152582 105.66591 
L 149.585455 104.743385 
L 150.018327 103.206013 
L 150.4512 103.421362 
L 150.884073 106.159304 
L 151.749818 101.520962 
L 152.182691 98.347774 
L 152.615564 98.103273 
L 153.048436 96.194636 
L 153.481309 96.390621 
L 153.914182 93.98155 
L 154.347055 93.042126 
L 154.779927 94.169958 
L 155.2128 92.660459 
L 155.645673 92.844424 
L 156.078545 91.886298 
L 156.511418 91.886298 
L 156.944291 91.008 
L 157.377164 91.187139 
L 158.242909 88.211883 
L 158.675782 87.790829 
L 159.108655 88.465995 
L 159.541527 86.259892 
L 159.9744 86.340414 
L 160.407273 85.824 
L 162.138764 81.599033 
L 162.571636 82.891636 
L 163.004509 81.884336 
L 163.437382 81.884336 
L 163.870255 79.065995 
L 164.736 76.697302 
L 165.168873 76.189091 
L 165.601745 75.100147 
L 166.034618 78.266639 
L 166.467491 77.63334 
L 166.900364 74.048 
L 167.333236 71.679658 
L 168.198982 70.521962 
L 168.631855 69.345391 
L 169.064727 68.729199 
L 169.4976 68.812274 
L 170.363345 66.265459 
L 170.796218 66.40733 
L 171.229091 67.197296 
L 171.661964 66.58919 
L 172.094836 65.284923 
L 173.393455 67.471448 
L 173.826327 69.556966 
L 174.2592 68.950197 
L 174.692073 70.397217 
L 175.124945 69.084735 
L 175.557818 69.130105 
L 175.990691 67.882793 
L 176.423564 65.881293 
L 176.856436 66.644757 
L 177.289309 64.564364 
L 177.722182 63.156293 
L 178.587927 64.665248 
L 179.0208 64.021333 
L 179.453673 64.021333 
L 179.886545 63.334957 
L 180.319418 61.884 
L 180.752291 62.64 
L 181.185164 62.697057 
L 181.618036 63.520405 
L 182.050909 62.069981 
L 182.483782 63.648 
L 183.349527 60.660117 
L 183.7824 60.730105 
L 184.215273 61.552158 
L 184.648145 59.997767 
L 185.081018 62.40893 
L 185.513891 60.874309 
L 186.379636 59.308475 
L 187.245382 59.308475 
L 188.111127 60.99899 
L 188.544 60.195945 
L 189.842618 60.218722 
L 190.275491 61.910069 
L 190.708364 61.910069 
L 191.141236 61.101841 
L 191.574109 63.648 
L 192.006982 63.683122 
L 192.439855 62.905263 
L 192.872727 64.602947 
L 193.3056 64.602947 
L 193.738473 62.971251 
L 194.171345 63.004596 
L 194.604218 62.177253 
L 195.037091 62.208 
L 195.902836 63.973161 
L 196.335709 61.456696 
L 198.0672 58.031469 
L 198.500073 56.265993 
L 198.932945 58.963985 
L 199.365818 58.081433 
L 199.798691 58.115368 
L 200.231564 59.934316 
L 200.664436 60.843789 
L 202.395927 60.871245 
L 202.8288 59.982545 
L 203.694545 59.982545 
L 204.127418 59.087087 
L 204.560291 60.006935 
L 204.993164 60.031511 
L 205.426036 59.150769 
L 206.724655 62.00707 
L 207.157527 62.00707 
L 207.5904 63.922553 
L 208.023273 63.055059 
L 208.456145 63.055059 
L 208.889018 62.17385 
L 209.321891 63.130055 
L 209.754764 66.954877 
L 210.187636 67.008 
L 210.620509 68.025371 
L 211.053382 70.916845 
L 211.486255 70.01856 
L 212.352 70.084627 
L 212.784873 69.238931 
L 213.217745 70.286049 
L 213.650618 70.286049 
L 214.949236 67.505778 
L 215.382109 65.664 
L 215.814982 64.702393 
L 216.680727 64.749176 
L 217.1136 65.765647 
L 217.546473 63.775595 
L 218.412218 63.862468 
L 218.845091 65.974154 
L 219.277964 64.989116 
L 219.710836 66.027399 
L 220.143709 66.081103 
L 220.576582 63.075773 
L 221.009455 62.093815 
L 222.308073 62.13154 
L 222.740945 64.272425 
L 223.173818 62.208 
L 223.606691 65.448 
L 224.039564 62.325285 
L 224.472436 62.325285 
L 225.338182 58.027355 
L 225.771055 61.371871 
L 226.203927 61.371871 
L 226.6368 62.48671 
L 227.502545 60.350804 
L 227.935418 60.350804 
L 228.368291 58.154161 
L 229.234036 58.176 
L 229.666909 57.040536 
L 230.099782 58.198048 
L 230.532655 57.057231 
L 230.965527 57.057231 
L 231.3984 55.905391 
L 232.264145 55.905391 
L 233.129891 58.265476 
L 233.562764 58.265476 
L 233.995636 59.439845 
L 234.428509 58.28839 
L 234.861382 58.311529 
L 235.294255 59.526621 
L 236.16 59.556119 
L 237.025745 61.951366 
L 237.458618 61.951366 
L 237.891491 60.789493 
L 239.190109 60.789493 
L 239.622982 59.616 
L 240.9216 59.616 
L 241.354473 54.802286 
L 241.787345 57.270857 
L 242.220218 57.270857 
L 242.653091 56.049231 
L 243.085964 56.062021 
L 243.518836 54.821472 
L 244.384582 57.328415 
L 244.817455 56.088 
L 245.250327 57.348 
L 245.6832 56.101194 
L 246.981818 56.101194 
L 247.414691 57.367791 
L 247.847564 56.114526 
L 248.280436 56.114526 
L 248.713309 54.848 
L 249.579055 54.848 
L 250.011927 56.128 
L 250.4448 56.128 
L 250.877673 54.854809 
L 251.310545 54.854809 
L 251.743418 56.141617 
L 252.176291 56.141617 
L 252.609164 57.428426 
L 253.042036 57.428426 
L 253.474909 56.15538 
L 253.907782 56.15538 
L 254.340655 54.868645 
L 254.773527 54.868645 
L 255.2064 57.469935 
L 256.505018 57.469935 
L 256.937891 60.071226 
L 257.370764 58.798703 
L 258.669382 58.798703 
L 259.102255 60.106378 
L 259.535127 58.82713 
L 259.968 60.141913 
L 262.132364 60.177836 
L 262.565236 61.543385 
L 262.998109 61.543385 
L 263.430982 62.872615 
L 263.863855 62.872615 
L 264.296727 61.587448 
L 264.7296 61.587448 
L 265.595345 58.974034 
L 266.028218 58.974034 
L 266.461091 56.301559 
L 266.893964 57.668339 
L 268.192582 57.691636 
L 268.625455 59.066182 
L 269.058327 59.066182 
L 269.4912 56.34869 
L 269.924073 54.966382 
L 270.356945 54.966382 
L 270.789818 56.364763 
L 271.222691 56.364763 
L 271.655564 59.161526 
L 272.088436 56.397474 
L 274.2528 56.397474 
L 274.685673 57.812211 
L 275.118545 57.812211 
L 275.551418 60.641684 
L 276.417164 60.641684 
L 276.850036 59.260235 
L 278.148655 59.260235 
L 278.581527 57.862438 
L 279.447273 57.888 
L 279.880145 56.465246 
L 280.313018 56.465246 
L 280.745891 59.362491 
L 281.611636 59.362491 
L 282.044509 60.811114 
L 282.477382 60.811114 
L 282.910255 59.397398 
L 285.507491 59.397398 
L 286.373236 56.518244 
L 286.806109 57.993366 
L 288.5376 57.993366 
L 289.403345 55.061333 
L 290.269091 55.061333 
L 290.701964 56.554667 
L 291.134836 56.554667 
L 291.567709 58.048 
L 294.597818 58.075826 
L 295.030691 56.592 
L 295.463564 58.104 
L 297.195055 58.132528 
L 297.627927 59.654038 
L 298.0608 59.654038 
L 298.493673 62.697057 
L 298.926545 64.218566 
L 299.359418 64.218566 
L 299.792291 62.754835 
L 300.658036 62.754835 
L 301.090909 65.817114 
L 301.523782 65.817114 
L 301.956655 64.354242 
L 302.389527 61.371871 
L 303.688145 61.371871 
L 304.121018 59.851636 
L 305.419636 59.892706 
L 305.852509 59.892706 
L 306.285382 61.473882 
L 306.718255 61.473882 
L 307.151127 59.934316 
L 307.584 59.934316 
L 308.016873 58.374358 
L 308.449745 58.374358 
L 308.882618 59.976477 
L 309.315491 58.4064 
L 309.748364 60.062497 
L 312.778473 60.106378 
L 313.644218 63.375568 
L 314.077091 63.375568 
L 314.509964 58.573241 
L 315.375709 61.910069 
L 315.808582 60.288 
L 316.241455 60.288 
L 316.674327 58.643245 
L 317.1072 58.643245 
L 317.540073 56.975324 
L 319.704436 56.975324 
L 320.137309 58.678986 
L 320.570182 56.999489 
L 321.003055 56.999489 
L 321.435927 55.296 
L 323.600291 55.296 
L 324.033164 53.568 
L 324.466036 55.308432 
L 326.197527 55.308432 
L 326.6304 57.048863 
L 329.227636 57.048863 
L 329.660509 58.82713 
L 330.526255 58.82713 
L 330.959127 57.099679 
L 333.989236 57.125647 
L 334.422109 60.683294 
L 335.287855 60.683294 
L 335.720727 58.944 
L 340.9152 58.984119 
L 341.348073 57.205895 
L 343.512436 57.205895 
L 343.945309 59.024842 
L 344.811055 59.024842 
L 345.243927 57.233455 
L 346.542545 57.233455 
L 346.975418 59.066182 
L 347.408291 59.066182 
L 347.841164 57.261435 
L 348.706909 57.261435 
L 349.139782 55.428923 
L 350.005527 55.428923 
L 350.4384 57.289846 
L 350.871273 57.289846 
L 351.304145 62.872615 
L 352.169891 62.944744 
L 352.602764 62.944744 
L 353.035636 64.820093 
L 353.468509 63.018 
L 354.334255 63.018 
L 354.767127 64.908 
L 355.2 63.092409 
L 356.065745 63.092409 
L 357.364364 57.469935 
L 358.662982 57.469935 
L 359.095855 59.420903 
L 359.528727 59.468488 
L 359.9616 57.533902 
L 361.693091 57.533902 
L 362.125964 55.567339 
L 363.424582 55.567339 
L 363.857455 53.568 
L 365.588945 53.568 
L 366.021818 55.584 
L 371.216291 55.584 
L 371.649164 57.6 
L 374.2464 57.6 
L 375.112145 61.632 
L 375.545018 65.664 
L 376.410764 65.765647 
L 376.843636 63.818847 
L 377.709382 63.818847 
L 378.142255 59.824552 
L 378.575127 59.824552 
L 379.008 57.775304 
L 381.172364 57.775304 
L 381.605236 55.690105 
L 382.038109 57.812211 
L 384.635345 57.812211 
L 385.068218 55.708885 
L 385.501091 55.708885 
L 385.933964 57.84977 
L 387.232582 57.84977 
L 387.665455 59.990655 
L 388.098327 59.990655 
L 388.964073 55.747459 
L 389.829818 55.747459 
L 390.262691 60.106378 
L 390.695564 57.966545 
L 391.561309 57.966545 
L 391.994182 60.165818 
L 392.859927 60.165818 
L 393.2928 58.006899 
L 393.725673 60.226349 
L 398.487273 60.226349 
L 398.487273 60.226349 
" clip-path="url(#p1447800c7d)" style="fill: none; stroke: #1f77b4; stroke-width: 1.5; stroke-linecap: square"/>
   </g>
   <g id="patch_3">
    <path d="M 57.6 307.584 
L 57.6 41.472 
" style="fill: none; stroke: #000000; stroke-width: 0.8; stroke-linejoin: miter; stroke-linecap: square"/>
   </g>
   <g id="patch_4">
    <path d="M 414.72 307.584 
L 414.72 41.472 
" style="fill: none; stroke: #000000; stroke-width: 0.8; stroke-linejoin: miter; stroke-linecap: square"/>
   </g>
   <g id="patch_5">
    <path d="M 57.6 307.584 
L 414.72 307.584 
" style="fill: none; stroke: #000000; stroke-width: 0.8; stroke-linejoin: miter; stroke-linecap: square"/>
   </g>
   <g id="patch_6">
    <path d="M 57.6 41.472 
L 414.72 41.472 
" style="fill: none; stroke: #000000; stroke-width: 0.8; stroke-linejoin: miter; stroke-linecap: square"/>
   </g>
   <g id="text_17">
    <!-- Gráfico de intervalo de generación vs aprovechamiento -->
    <g transform="translate(68.834063 35.472)scale(0.12 -0.12)">
     <defs>
      <path id="DejaVuSans-47" d="M 3809 666 
L 3809 1919 
L 2778 1919 
L 2778 2438 
L 4434 2438 
L 4434 434 
Q 4069 175 3628 42 
Q 3188 -91 2688 -91 
Q 1594 -91 976 548 
Q 359 1188 359 2328 
Q 359 3472 976 4111 
Q 1594 4750 2688 4750 
Q 3144 4750 3555 4637 
Q 3966 4525 4313 4306 
L 4313 3634 
Q 3963 3931 3569 4081 
Q 3175 4231 2741 4231 
Q 1884 4231 1454 3753 
Q 1025 3275 1025 2328 
Q 1025 1384 1454 906 
Q 1884 428 2741 428 
Q 3075 428 3337 486 
Q 3600 544 3809 666 
z
" transform="scale(0.015625)"/>
      <path id="DejaVuSans-e1" d="M 2194 1759 
Q 1497 1759 1228 1600 
Q 959 1441 959 1056 
Q 959 750 1161 570 
Q 1363 391 1709 391 
Q 2188 391 2477 730 
Q 2766 1069 2766 1631 
L 2766 1759 
L 2194 1759 
z
M 3341 1997 
L 3341 0 
L 2766 0 
L 2766 531 
Q 2569 213 2275 61 
Q 1981 -91 1556 -91 
Q 1019 -91 701 211 
Q 384 513 384 1019 
Q 384 1609 779 1909 
Q 1175 2209 1959 2209 
L 2766 2209 
L 2766 2266 
Q 2766 2663 2505 2880 
Q 2244 3097 1772 3097 
Q 1472 3097 1187 3025 
Q 903 2953 641 2809 
L 641 3341 
Q 956 3463 1253 3523 
Q 1550 3584 1831 3584 
Q 2591 3584 2966 3190 
Q 3341 2797 3341 1997 
z
M 2290 5119 
L 2912 5119 
L 1894 3944 
L 1415 3944 
L 2290 5119 
z
" transform="scale(0.015625)"/>
      <path id="DejaVuSans-66" d="M 2375 4863 
L 2375 4384 
L 1825 4384 
Q 1516 4384 1395 4259 
Q 1275 4134 1275 3809 
L 1275 3500 
L 2222 3500 
L 2222 3053 
L 1275 3053 
L 1275 0 
L 697 0 
L 697 3053 
L 147 3053 
L 147 3500 
L 697 3500 
L 697 3744 
Q 697 4328 969 4595 
Q 1241 4863 1831 4863 
L 2375 4863 
z
" transform="scale(0.015625)"/>
      <path id="DejaVuSans-68" d="M 3513 2113 
L 3513 0 
L 2938 0 
L 2938 2094 
Q 2938 2591 2744 2837 
Q 2550 3084 2163 3084 
Q 1697 3084 1428 2787 
Q 1159 2491 1159 1978 
L 1159 0 
L 581 0 
L 581 4863 
L 1159 4863 
L 1159 2956 
Q 1366 3272 1645 3428 
Q 1925 3584 2291 3584 
Q 2894 3584 3203 3211 
Q 3513 2838 3513 2113 
z
" transform="scale(0.015625)"/>
      <path id="DejaVuSans-6d" d="M 3328 2828 
Q 3544 3216 3844 3400 
Q 4144 3584 4550 3584 
Q 5097 3584 5394 3201 
Q 5691 2819 5691 2113 
L 5691 0 
L 5113 0 
L 5113 2094 
Q 5113 2597 4934 2840 
Q 4756 3084 4391 3084 
Q 3944 3084 3684 2787 
Q 3425 2491 3425 1978 
L 3425 0 
L 2847 0 
L 2847 2094 
Q 2847 2600 2669 2842 
Q 2491 3084 2119 3084 
Q 1678 3084 1418 2786 
Q 1159 2488 1159 1978 
L 1159 0 
L 581 0 
L 581 3500 
L 1159 3500 
L 1159 2956 
Q 1356 3278 1631 3431 
Q 1906 3584 2284 3584 
Q 2666 3584 2933 3390 
Q 3200 3197 3328 2828 
z
" transform="scale(0.015625)"/>
     </defs>
     <use xlink:href="#DejaVuSans-47"/>
     <use xlink:href="#DejaVuSans-72" x="77.490234"/>
     <use xlink:href="#DejaVuSans-e1" x="118.603516"/>
     <use xlink:href="#DejaVuSans-66" x="179.882812"/>
     <use xlink:href="#DejaVuSans-69" x="215.087891"/>
     <use xlink:href="#DejaVuSans-63" x="242.871094"/>
     <use xlink:href="#DejaVuSans-6f" x="297.851562"/>
     <use xlink:href="#DejaVuSans-20" x="359.033203"/>
     <use xlink:href="#DejaVuSans-64" x="390.820312"/>
     <use xlink:href="#DejaVuSans-65" x="454.296875"/>
     <use xlink:href="#DejaVuSans-20" x="515.820312"/>
     <use xlink:href="#DejaVuSans-69" x="547.607422"/>
     <use xlink:href="#DejaVuSans-6e" x="575.390625"/>
     <use xlink:href="#DejaVuSans-74" x="638.769531"/>
     <use xlink:href="#DejaVuSans-65" x="677.978516"/>
     <use xlink:href="#DejaVuSans-72" x="739.501953"/>
     <use xlink:href="#DejaVuSans-76" x="780.615234"/>
     <use xlink:href="#DejaVuSans-61" x="839.794922"/>
     <use xlink:href="#DejaVuSans-6c" x="901.074219"/>
     <use xlink:href="#DejaVuSans-6f" x="928.857422"/>
     <use xlink:href="#DejaVuSans-20" x="990.039062"/>
     <use xlink:href="#DejaVuSans-64" x="1021.826172"/>
     <use xlink:href="#DejaVuSans-65" x="1085.302734"/>
     <use xlink:href="#DejaVuSans-20" x="1146.826172"/>
     <use xlink:href="#DejaVuSans-67" x="1178.613281"/>
     <use xlink:href="#DejaVuSans-65" x="1242.089844"/>
     <use xlink:href="#DejaVuSans-6e" x="1303.613281"/>
     <use xlink:href="#DejaVuSans-65" x="1366.992188"/>
     <use xlink:href="#DejaVuSans-72" x="1428.515625"/>
     <use xlink:href="#DejaVuSans-61" x="1469.628906"/>
     <use xlink:href="#DejaVuSans-63" x="1530.908203"/>
     <use xlink:href="#DejaVuSans-69" x="1585.888672"/>
     <use xlink:href="#DejaVuSans-f3" x="1613.671875"/>
     <use xlink:href="#DejaVuSans-6e" x="1674.853516"/>
     <use xlink:href="#DejaVuSans-20" x="1738.232422"/>
     <use xlink:href="#DejaVuSans-76" x="1770.019531"/>
     <use xlink:href="#DejaVuSans-73" x="1829.199219"/>
     <use xlink:href="#DejaVuSans-20" x="1881.298828"/>
     <use xlink:href="#DejaVuSans-61" x="1913.085938"/>
     <use xlink:href="#DejaVuSans-70" x="1974.365234"/>
     <use xlink:href="#DejaVuSans-72" x="2037.841797"/>
     <use xlink:href="#DejaVuSans-6f" x="2076.705078"/>
     <use xlink:href="#DejaVuSans-76" x="2137.886719"/>
     <use xlink:href="#DejaVuSans-65" x="2197.066406"/>
     <use xlink:href="#DejaVuSans-63" x="2258.589844"/>
     <use xlink:href="#DejaVuSans-68" x="2313.570312"/>
     <use xlink:href="#DejaVuSans-61" x="2376.949219"/>
     <use xlink:href="#DejaVuSans-6d" x="2438.228516"/>
     <use xlink:href="#DejaVuSans-69" x="2535.640625"/>
     <use xlink:href="#DejaVuSans-65" x="2563.423828"/>
     <use xlink:href="#DejaVuSans-6e" x="2624.947266"/>
     <use xlink:href="#DejaVuSans-74" x="2688.326172"/>
     <use xlink:href="#DejaVuSans-6f" x="2727.535156"/>
    </g>
   </g>
  </g>
 </g>
 <defs>
  <clipPath id="p1447800c7d">
   <rect x="57.6" y="41.472" width="357.12" height="266.112"/>
  </clipPath>
 </defs>
</svg>
