<?xml version="1.0" encoding="utf-8" standalone="no"?>
<!DOCTYPE svg PUBLIC "-//W3C//DTD SVG 1.1//EN"
  "http://www.w3.org/Graphics/SVG/1.1/DTD/svg11.dtd">
<svg xmlns:xlink="http://www.w3.org/1999/xlink" width="432pt" height="288pt" viewBox="0 0 432 288" xmlns="http://www.w3.org/2000/svg" version="1.1">
 <metadata>
  <rdf:RDF xmlns:dc="http://purl.org/dc/elements/1.1/" xmlns:cc="http://creativecommons.org/ns#" xmlns:rdf="http://www.w3.org/1999/02/22-rdf-syntax-ns#">
   <cc:Work>
    <dc:type rdf:resource="http://purl.org/dc/dcmitype/StillImage"/>
    <dc:date>2022-06-05T08:55:21.011766</dc:date>
    <dc:format>image/svg+xml</dc:format>
    <dc:creator>
     <cc:Agent>
      <dc:title>omnetpp.scave 6.0.0; Matplotlib 3.5.1 w/ backend GTK3Agg; Pandas 1.4.2; Python 3.8.10; Linux-5.4.0-109-generic-x86_64-with-glibc2.29</dc:title>
     </cc:Agent>
    </dc:creator>
   </cc:Work>
  </rdf:RDF>
 </metadata>
 <defs>
  <style type="text/css">*{stroke-linejoin: round; stroke-linecap: butt}</style>
 </defs>
 <g id="figure_1">
  <g id="patch_1">
   <path d="M 0 288 
L 432 288 
L 432 0 
L 0 0 
z
" style="fill: #ffffff"/>
  </g>
  <g id="axes_1">
   <g id="patch_2">
    <path d="M 37.01875 260.45 
L 415.918145 260.45 
L 415.918145 25.8 
L 37.01875 25.8 
z
" style="fill: #ffffff"/>
   </g>
   <g id="matplotlib.axis_1">
    <g id="xtick_1">
     <g id="line2d_1">
      <path d="M 37.01875 260.45 
L 37.01875 25.8 
" clip-path="url(#ped8c8f7a65)" style="fill: none; stroke: #b0b0b0; stroke-width: 0.8; stroke-linecap: square"/>
     </g>
     <g id="line2d_2">
      <defs>
       <path id="m689874a124" d="M 0 0 
L 0 3.5 
" style="stroke: #000000; stroke-width: 0.8"/>
      </defs>
      <g>
       <use xlink:href="#m689874a124" x="37.01875" y="260.45" style="stroke: #000000; stroke-width: 0.8"/>
      </g>
     </g>
     <g id="text_1">
      <!-- 0 -->
      <g transform="translate(33.8375 275.048437)scale(0.1 -0.1)">
       <defs>
        <path id="DejaVuSans-30" d="M 2034 4250 
Q 1547 4250 1301 3770 
Q 1056 3291 1056 2328 
Q 1056 1369 1301 889 
Q 1547 409 2034 409 
Q 2525 409 2770 889 
Q 3016 1369 3016 2328 
Q 3016 3291 2770 3770 
Q 2525 4250 2034 4250 
z
M 2034 4750 
Q 2819 4750 3233 4129 
Q 3647 3509 3647 2328 
Q 3647 1150 3233 529 
Q 2819 -91 2034 -91 
Q 1250 -91 836 529 
Q 422 1150 422 2328 
Q 422 3509 836 4129 
Q 1250 4750 2034 4750 
z
" transform="scale(0.015625)"/>
       </defs>
       <use xlink:href="#DejaVuSans-30"/>
      </g>
     </g>
    </g>
    <g id="xtick_2">
     <g id="line2d_3">
      <path d="M 83.852083 260.45 
L 83.852083 25.8 
" clip-path="url(#ped8c8f7a65)" style="fill: none; stroke: #b0b0b0; stroke-width: 0.8; stroke-linecap: square"/>
     </g>
     <g id="line2d_4">
      <g>
       <use xlink:href="#m689874a124" x="83.852083" y="260.45" style="stroke: #000000; stroke-width: 0.8"/>
      </g>
     </g>
     <g id="text_2">
      <!-- 25 -->
      <g transform="translate(77.489583 275.048437)scale(0.1 -0.1)">
       <defs>
        <path id="DejaVuSans-32" d="M 1228 531 
L 3431 531 
L 3431 0 
L 469 0 
L 469 531 
Q 828 903 1448 1529 
Q 2069 2156 2228 2338 
Q 2531 2678 2651 2914 
Q 2772 3150 2772 3378 
Q 2772 3750 2511 3984 
Q 2250 4219 1831 4219 
Q 1534 4219 1204 4116 
Q 875 4013 500 3803 
L 500 4441 
Q 881 4594 1212 4672 
Q 1544 4750 1819 4750 
Q 2544 4750 2975 4387 
Q 3406 4025 3406 3419 
Q 3406 3131 3298 2873 
Q 3191 2616 2906 2266 
Q 2828 2175 2409 1742 
Q 1991 1309 1228 531 
z
" transform="scale(0.015625)"/>
        <path id="DejaVuSans-35" d="M 691 4666 
L 3169 4666 
L 3169 4134 
L 1269 4134 
L 1269 2991 
Q 1406 3038 1543 3061 
Q 1681 3084 1819 3084 
Q 2600 3084 3056 2656 
Q 3513 2228 3513 1497 
Q 3513 744 3044 326 
Q 2575 -91 1722 -91 
Q 1428 -91 1123 -41 
Q 819 9 494 109 
L 494 744 
Q 775 591 1075 516 
Q 1375 441 1709 441 
Q 2250 441 2565 725 
Q 2881 1009 2881 1497 
Q 2881 1984 2565 2268 
Q 2250 2553 1709 2553 
Q 1456 2553 1204 2497 
Q 953 2441 691 2322 
L 691 4666 
z
" transform="scale(0.015625)"/>
       </defs>
       <use xlink:href="#DejaVuSans-32"/>
       <use xlink:href="#DejaVuSans-35" x="63.623047"/>
      </g>
     </g>
    </g>
    <g id="xtick_3">
     <g id="line2d_5">
      <path d="M 130.685415 260.45 
L 130.685415 25.8 
" clip-path="url(#ped8c8f7a65)" style="fill: none; stroke: #b0b0b0; stroke-width: 0.8; stroke-linecap: square"/>
     </g>
     <g id="line2d_6">
      <g>
       <use xlink:href="#m689874a124" x="130.685415" y="260.45" style="stroke: #000000; stroke-width: 0.8"/>
      </g>
     </g>
     <g id="text_3">
      <!-- 50 -->
      <g transform="translate(124.322915 275.048437)scale(0.1 -0.1)">
       <use xlink:href="#DejaVuSans-35"/>
       <use xlink:href="#DejaVuSans-30" x="63.623047"/>
      </g>
     </g>
    </g>
    <g id="xtick_4">
     <g id="line2d_7">
      <path d="M 177.518748 260.45 
L 177.518748 25.8 
" clip-path="url(#ped8c8f7a65)" style="fill: none; stroke: #b0b0b0; stroke-width: 0.8; stroke-linecap: square"/>
     </g>
     <g id="line2d_8">
      <g>
       <use xlink:href="#m689874a124" x="177.518748" y="260.45" style="stroke: #000000; stroke-width: 0.8"/>
      </g>
     </g>
     <g id="text_4">
      <!-- 75 -->
      <g transform="translate(171.156248 275.048437)scale(0.1 -0.1)">
       <defs>
        <path id="DejaVuSans-37" d="M 525 4666 
L 3525 4666 
L 3525 4397 
L 1831 0 
L 1172 0 
L 2766 4134 
L 525 4134 
L 525 4666 
z
" transform="scale(0.015625)"/>
       </defs>
       <use xlink:href="#DejaVuSans-37"/>
       <use xlink:href="#DejaVuSans-35" x="63.623047"/>
      </g>
     </g>
    </g>
    <g id="xtick_5">
     <g id="line2d_9">
      <path d="M 224.352081 260.45 
L 224.352081 25.8 
" clip-path="url(#ped8c8f7a65)" style="fill: none; stroke: #b0b0b0; stroke-width: 0.8; stroke-linecap: square"/>
     </g>
     <g id="line2d_10">
      <g>
       <use xlink:href="#m689874a124" x="224.352081" y="260.45" style="stroke: #000000; stroke-width: 0.8"/>
      </g>
     </g>
     <g id="text_5">
      <!-- 100 -->
      <g transform="translate(214.808331 275.048437)scale(0.1 -0.1)">
       <defs>
        <path id="DejaVuSans-31" d="M 794 531 
L 1825 531 
L 1825 4091 
L 703 3866 
L 703 4441 
L 1819 4666 
L 2450 4666 
L 2450 531 
L 3481 531 
L 3481 0 
L 794 0 
L 794 531 
z
" transform="scale(0.015625)"/>
       </defs>
       <use xlink:href="#DejaVuSans-31"/>
       <use xlink:href="#DejaVuSans-30" x="63.623047"/>
       <use xlink:href="#DejaVuSans-30" x="127.246094"/>
      </g>
     </g>
    </g>
    <g id="xtick_6">
     <g id="line2d_11">
      <path d="M 271.185414 260.45 
L 271.185414 25.8 
" clip-path="url(#ped8c8f7a65)" style="fill: none; stroke: #b0b0b0; stroke-width: 0.8; stroke-linecap: square"/>
     </g>
     <g id="line2d_12">
      <g>
       <use xlink:href="#m689874a124" x="271.185414" y="260.45" style="stroke: #000000; stroke-width: 0.8"/>
      </g>
     </g>
     <g id="text_6">
      <!-- 125 -->
      <g transform="translate(261.641664 275.048437)scale(0.1 -0.1)">
       <use xlink:href="#DejaVuSans-31"/>
       <use xlink:href="#DejaVuSans-32" x="63.623047"/>
       <use xlink:href="#DejaVuSans-35" x="127.246094"/>
      </g>
     </g>
    </g>
    <g id="xtick_7">
     <g id="line2d_13">
      <path d="M 318.018746 260.45 
L 318.018746 25.8 
" clip-path="url(#ped8c8f7a65)" style="fill: none; stroke: #b0b0b0; stroke-width: 0.8; stroke-linecap: square"/>
     </g>
     <g id="line2d_14">
      <g>
       <use xlink:href="#m689874a124" x="318.018746" y="260.45" style="stroke: #000000; stroke-width: 0.8"/>
      </g>
     </g>
     <g id="text_7">
      <!-- 150 -->
      <g transform="translate(308.474996 275.048437)scale(0.1 -0.1)">
       <use xlink:href="#DejaVuSans-31"/>
       <use xlink:href="#DejaVuSans-35" x="63.623047"/>
       <use xlink:href="#DejaVuSans-30" x="127.246094"/>
      </g>
     </g>
    </g>
    <g id="xtick_8">
     <g id="line2d_15">
      <path d="M 364.852079 260.45 
L 364.852079 25.8 
" clip-path="url(#ped8c8f7a65)" style="fill: none; stroke: #b0b0b0; stroke-width: 0.8; stroke-linecap: square"/>
     </g>
     <g id="line2d_16">
      <g>
       <use xlink:href="#m689874a124" x="364.852079" y="260.45" style="stroke: #000000; stroke-width: 0.8"/>
      </g>
     </g>
     <g id="text_8">
      <!-- 175 -->
      <g transform="translate(355.308329 275.048437)scale(0.1 -0.1)">
       <use xlink:href="#DejaVuSans-31"/>
       <use xlink:href="#DejaVuSans-37" x="63.623047"/>
       <use xlink:href="#DejaVuSans-35" x="127.246094"/>
      </g>
     </g>
    </g>
    <g id="xtick_9">
     <g id="line2d_17">
      <path d="M 411.685412 260.45 
L 411.685412 25.8 
" clip-path="url(#ped8c8f7a65)" style="fill: none; stroke: #b0b0b0; stroke-width: 0.8; stroke-linecap: square"/>
     </g>
     <g id="line2d_18">
      <g>
       <use xlink:href="#m689874a124" x="411.685412" y="260.45" style="stroke: #000000; stroke-width: 0.8"/>
      </g>
     </g>
     <g id="text_9">
      <!-- 200 -->
      <g transform="translate(402.141662 275.048437)scale(0.1 -0.1)">
       <use xlink:href="#DejaVuSans-32"/>
       <use xlink:href="#DejaVuSans-30" x="63.623047"/>
       <use xlink:href="#DejaVuSans-30" x="127.246094"/>
      </g>
     </g>
    </g>
   </g>
   <g id="matplotlib.axis_2">
    <g id="ytick_1">
     <g id="line2d_19">
      <path d="M 37.01875 260.45 
L 415.918145 260.45 
" clip-path="url(#ped8c8f7a65)" style="fill: none; stroke: #b0b0b0; stroke-width: 0.8; stroke-linecap: square"/>
     </g>
     <g id="line2d_20">
      <defs>
       <path id="mfb1719a733" d="M 0 0 
L -3.5 0 
" style="stroke: #000000; stroke-width: 0.8"/>
      </defs>
      <g>
       <use xlink:href="#mfb1719a733" x="37.01875" y="260.45" style="stroke: #000000; stroke-width: 0.8"/>
      </g>
     </g>
     <g id="text_10">
      <!-- 0 -->
      <g transform="translate(23.65625 264.249219)scale(0.1 -0.1)">
       <use xlink:href="#DejaVuSans-30"/>
      </g>
     </g>
    </g>
    <g id="ytick_2">
     <g id="line2d_21">
      <path d="M 37.01875 214.1375 
L 415.918145 214.1375 
" clip-path="url(#ped8c8f7a65)" style="fill: none; stroke: #b0b0b0; stroke-width: 0.8; stroke-linecap: square"/>
     </g>
     <g id="line2d_22">
      <g>
       <use xlink:href="#mfb1719a733" x="37.01875" y="214.1375" style="stroke: #000000; stroke-width: 0.8"/>
      </g>
     </g>
     <g id="text_11">
      <!-- 50 -->
      <g transform="translate(17.29375 217.936719)scale(0.1 -0.1)">
       <use xlink:href="#DejaVuSans-35"/>
       <use xlink:href="#DejaVuSans-30" x="63.623047"/>
      </g>
     </g>
    </g>
    <g id="ytick_3">
     <g id="line2d_23">
      <path d="M 37.01875 167.825 
L 415.918145 167.825 
" clip-path="url(#ped8c8f7a65)" style="fill: none; stroke: #b0b0b0; stroke-width: 0.8; stroke-linecap: square"/>
     </g>
     <g id="line2d_24">
      <g>
       <use xlink:href="#mfb1719a733" x="37.01875" y="167.825" style="stroke: #000000; stroke-width: 0.8"/>
      </g>
     </g>
     <g id="text_12">
      <!-- 100 -->
      <g transform="translate(10.93125 171.624219)scale(0.1 -0.1)">
       <use xlink:href="#DejaVuSans-31"/>
       <use xlink:href="#DejaVuSans-30" x="63.623047"/>
       <use xlink:href="#DejaVuSans-30" x="127.246094"/>
      </g>
     </g>
    </g>
    <g id="ytick_4">
     <g id="line2d_25">
      <path d="M 37.01875 121.5125 
L 415.918145 121.5125 
" clip-path="url(#ped8c8f7a65)" style="fill: none; stroke: #b0b0b0; stroke-width: 0.8; stroke-linecap: square"/>
     </g>
     <g id="line2d_26">
      <g>
       <use xlink:href="#mfb1719a733" x="37.01875" y="121.5125" style="stroke: #000000; stroke-width: 0.8"/>
      </g>
     </g>
     <g id="text_13">
      <!-- 150 -->
      <g transform="translate(10.93125 125.311719)scale(0.1 -0.1)">
       <use xlink:href="#DejaVuSans-31"/>
       <use xlink:href="#DejaVuSans-35" x="63.623047"/>
       <use xlink:href="#DejaVuSans-30" x="127.246094"/>
      </g>
     </g>
    </g>
    <g id="ytick_5">
     <g id="line2d_27">
      <path d="M 37.01875 75.2 
L 415.918145 75.2 
" clip-path="url(#ped8c8f7a65)" style="fill: none; stroke: #b0b0b0; stroke-width: 0.8; stroke-linecap: square"/>
     </g>
     <g id="line2d_28">
      <g>
       <use xlink:href="#mfb1719a733" x="37.01875" y="75.2" style="stroke: #000000; stroke-width: 0.8"/>
      </g>
     </g>
     <g id="text_14">
      <!-- 200 -->
      <g transform="translate(10.93125 78.999219)scale(0.1 -0.1)">
       <use xlink:href="#DejaVuSans-32"/>
       <use xlink:href="#DejaVuSans-30" x="63.623047"/>
       <use xlink:href="#DejaVuSans-30" x="127.246094"/>
      </g>
     </g>
    </g>
    <g id="ytick_6">
     <g id="line2d_29">
      <path d="M 37.01875 28.8875 
L 415.918145 28.8875 
" clip-path="url(#ped8c8f7a65)" style="fill: none; stroke: #b0b0b0; stroke-width: 0.8; stroke-linecap: square"/>
     </g>
     <g id="line2d_30">
      <g>
       <use xlink:href="#mfb1719a733" x="37.01875" y="28.8875" style="stroke: #000000; stroke-width: 0.8"/>
      </g>
     </g>
     <g id="text_15">
      <!-- 250 -->
      <g transform="translate(10.93125 32.686719)scale(0.1 -0.1)">
       <use xlink:href="#DejaVuSans-32"/>
       <use xlink:href="#DejaVuSans-35" x="63.623047"/>
       <use xlink:href="#DejaVuSans-30" x="127.246094"/>
      </g>
     </g>
    </g>
   </g>
   <g id="line2d_31">
    <path d="M 38.702053 259.52375 
L 38.702053 260.45 
L 40.431558 259.52375 
L 40.575386 260.45 
L 44.087453 259.52375 
L 44.087453 260.45 
L 44.24945 259.52375 
L 45.11975 258.5975 
L 45.960786 259.52375 
L 46.122783 258.5975 
L 46.950009 257.67125 
L 47.834119 258.5975 
L 47.858816 257.67125 
L 48.5204 256.745 
L 48.629774 255.81875 
L 49.244066 254.8925 
L 49.707453 255.81875 
L 51.188884 254.8925 
L 51.580786 255.81875 
L 53.062218 254.8925 
L 53.454119 255.81875 
L 54.83971 254.8925 
L 55.327452 255.81875 
L 56.432426 254.8925 
L 57.200786 255.81875 
L 58.305759 253.96625 
L 59.074119 254.8925 
L 59.188785 253.96625 
L 60.179093 253.04 
L 60.761322 252.11375 
L 60.947452 253.04 
L 62.052426 252.11375 
L 62.820786 253.04 
L 63.925759 252.11375 
L 64.287038 250.26125 
L 64.694119 251.1875 
L 65.058061 250.26125 
L 65.228836 249.335 
L 65.799092 248.40875 
L 66.567452 249.335 
L 67.672426 247.4825 
L 68.440786 248.40875 
L 69.545759 247.4825 
L 70.314119 248.40875 
L 71.419092 247.4825 
L 72.187452 248.40875 
L 73.087061 247.4825 
L 73.292426 246.55625 
L 74.060786 247.4825 
L 75.165759 246.55625 
L 75.934119 247.4825 
L 76.910333 246.55625 
L 77.039092 245.63 
L 77.807452 246.55625 
L 78.112468 245.63 
L 78.912426 244.70375 
L 79.680786 245.63 
L 80.785759 244.70375 
L 81.119617 243.7775 
L 81.554119 244.70375 
L 83.427452 245.63 
L 84.14318 244.70375 
L 85.300785 245.63 
L 85.520014 244.70375 
L 87.174119 245.63 
L 87.648006 244.70375 
L 87.68775 243.7775 
L 87.883811 242.85125 
L 89.047452 243.7775 
L 89.561084 242.85125 
L 90.272737 241.925 
L 90.562597 240.99875 
L 90.920785 241.925 
L 91.688189 240.99875 
L 92.006628 240.0725 
L 92.794119 240.99875 
L 93.601671 240.0725 
L 94.667452 240.99875 
L 94.669318 240.0725 
L 95.475004 239.14625 
L 96.051514 238.22 
L 96.261226 237.29375 
L 96.540785 238.22 
L 97.26452 237.29375 
L 97.840158 236.3675 
L 98.226446 235.44125 
L 98.414119 236.3675 
L 100.287452 237.29375 
L 100.658034 236.3675 
L 100.727889 235.44125 
L 101.868903 234.515 
L 102.141058 233.58875 
L 102.160785 234.515 
L 102.176592 233.58875 
L 102.910509 231.73625 
L 104.034119 232.6625 
L 104.648139 231.73625 
L 104.711496 230.81 
L 105.182531 229.88375 
L 105.907452 230.81 
L 106.097761 229.88375 
L 106.521473 228.9575 
L 107.780785 229.88375 
L 108.394806 228.9575 
L 109.654118 229.88375 
L 110.268139 228.9575 
L 111.489055 228.03125 
L 111.527452 228.9575 
L 112.141472 228.03125 
L 112.608833 227.105 
L 113.400785 228.03125 
L 113.443437 227.105 
L 114.519728 225.2525 
L 115.274118 226.17875 
L 115.888139 225.2525 
L 117.147452 226.17875 
L 117.761472 225.2525 
L 118.877759 224.32625 
L 119.020785 225.2525 
L 119.634806 224.32625 
L 120.894118 225.2525 
L 120.936388 224.32625 
L 121.508139 223.4 
L 122.767452 224.32625 
L 122.919938 223.4 
L 123.381472 222.47375 
L 124.640785 223.4 
L 125.254806 221.5475 
L 125.259031 220.62125 
L 126.514118 221.5475 
L 127.861171 220.62125 
L 127.951674 219.695 
L 128.387452 220.62125 
L 128.708108 219.695 
L 129.825007 218.76875 
L 130.260785 219.695 
L 130.290003 218.76875 
L 131.69834 217.8425 
L 132.134118 218.76875 
L 133.571674 217.8425 
L 134.007451 218.76875 
L 135.445007 217.8425 
L 135.880785 218.76875 
L 137.31834 217.8425 
L 137.754118 218.76875 
L 138.63476 217.8425 
L 139.073685 216.91625 
L 139.191673 215.99 
L 139.627451 216.91625 
L 140.962041 215.99 
L 141.065007 215.06375 
L 141.500785 215.99 
L 142.93834 215.06375 
L 142.945419 214.1375 
L 143.374118 215.06375 
L 144.578808 214.1375 
L 145.125972 212.285 
L 145.247451 213.21125 
L 146.128327 212.285 
L 146.685007 211.35875 
L 147.120785 212.285 
L 147.304671 211.35875 
L 148.510687 210.4325 
L 148.55834 209.50625 
L 148.994118 210.4325 
L 149.035739 209.50625 
L 150.431673 208.58 
L 150.865731 207.65375 
L 150.867451 208.58 
L 152.305007 206.7275 
L 152.740785 207.65375 
L 153.639339 206.7275 
L 153.917927 205.80125 
L 154.350637 204.875 
L 154.614118 205.80125 
L 156.22397 204.875 
L 156.487451 205.80125 
L 156.740357 204.875 
L 157.602116 203.94875 
L 158.097303 203.0225 
L 158.360784 203.94875 
L 159.637061 203.0225 
L 159.970637 202.09625 
L 160.234118 203.0225 
L 161.84397 202.09625 
L 162.107451 203.0225 
L 163.717303 201.17 
L 163.980784 202.09625 
L 164.957601 201.17 
L 165.146873 200.24375 
L 165.590637 199.3175 
L 165.854118 200.24375 
L 167.46397 199.3175 
L 167.727451 200.24375 
L 169.337303 199.3175 
L 169.600784 200.24375 
L 171.210637 199.3175 
L 171.474118 200.24375 
L 171.841395 199.3175 
L 173.08397 198.39125 
L 173.347451 199.3175 
L 175.220784 200.24375 
L 175.785363 199.3175 
L 175.892756 198.39125 
L 176.194901 197.465 
L 177.094118 198.39125 
L 178.756006 195.6125 
L 178.967451 196.53875 
L 179.941567 195.6125 
L 180.840784 196.53875 
L 181.274226 195.6125 
L 181.386937 193.76 
L 182.478863 192.83375 
L 182.714117 193.76 
L 184.587451 194.68625 
L 185.761728 193.76 
L 186.460784 194.68625 
L 187.635062 193.76 
L 188.334117 194.68625 
L 189.508395 193.76 
L 189.769071 192.83375 
L 190.207451 193.76 
L 191.381728 191.9075 
L 192.080784 192.83375 
L 193.255061 191.9075 
L 193.954117 192.83375 
L 195.128395 191.9075 
L 195.461749 190.98125 
L 195.827451 191.9075 
L 197.001728 190.98125 
L 197.021942 190.055 
L 197.700784 190.98125 
L 198.875061 190.055 
L 199.574117 190.98125 
L 200.748395 190.055 
L 200.77468 189.12875 
L 200.959484 188.2025 
L 201.447451 189.12875 
L 202.621728 188.2025 
L 203.320784 189.12875 
L 204.495061 188.2025 
L 205.194117 189.12875 
L 205.718321 188.2025 
L 205.880872 187.27625 
L 206.368395 186.35 
L 207.067451 187.27625 
L 208.241728 186.35 
L 208.940784 187.27625 
L 210.115061 186.35 
L 210.814117 187.27625 
L 210.843811 186.35 
L 211.10857 185.42375 
L 211.988395 184.4975 
L 212.68745 185.42375 
L 213.060173 184.4975 
L 213.861728 183.57125 
L 214.560784 184.4975 
L 215.420449 183.57125 
L 216.060481 181.71875 
L 216.434117 182.645 
L 216.636564 181.71875 
L 217.015634 180.7925 
L 217.608394 179.86625 
L 218.30745 180.7925 
L 218.670029 179.86625 
L 218.708081 178.94 
L 219.481728 177.0875 
L 220.180784 178.01375 
L 221.355061 177.0875 
L 222.054117 178.01375 
L 222.353575 177.0875 
L 223.228394 176.16125 
L 223.92745 177.0875 
L 223.932951 176.16125 
L 225.101728 175.235 
L 225.800784 176.16125 
L 226.975061 174.30875 
L 227.486031 173.3825 
L 227.674117 174.30875 
L 228.021843 173.3825 
L 228.848394 172.45625 
L 229.54745 173.3825 
L 230.665162 172.45625 
L 230.721728 171.53 
L 231.420784 172.45625 
L 232.273219 171.53 
L 232.595061 170.60375 
L 233.218023 169.6775 
L 233.294117 170.60375 
L 234.468394 169.6775 
L 235.16745 170.60375 
L 236.341728 169.6775 
L 237.040783 170.60375 
L 238.215061 167.825 
L 238.914117 168.75125 
L 240.088394 167.825 
L 240.78745 168.75125 
L 241.961727 167.825 
L 242.660783 168.75125 
L 243.649558 167.825 
L 243.835061 166.89875 
L 244.534117 167.825 
L 244.75974 166.89875 
L 245.708394 165.9725 
L 246.40745 166.89875 
L 247.581727 165.9725 
L 248.269355 165.04625 
L 248.280783 165.9725 
L 249.455061 165.04625 
L 250.154117 165.9725 
L 250.521548 165.04625 
L 250.752955 164.12 
L 251.328394 163.19375 
L 251.414279 162.2675 
L 252.02745 163.19375 
L 253.201727 162.2675 
L 253.900783 163.19375 
L 254.143386 162.2675 
L 255.075061 161.34125 
L 255.137606 160.415 
L 255.774117 161.34125 
L 256.083675 160.415 
L 256.948394 159.48875 
L 257.64745 160.415 
L 258.821727 159.48875 
L 259.520783 160.415 
L 260.695061 158.5625 
L 261.394116 159.48875 
L 262.568394 158.5625 
L 263.26745 159.48875 
L 264.072186 158.5625 
L 264.441727 157.63625 
L 265.140783 158.5625 
L 266.281563 157.63625 
L 266.31506 156.71 
L 267.014116 157.63625 
L 267.944824 156.71 
L 268.188394 155.78375 
L 268.88745 156.71 
L 269.963968 155.78375 
L 270.061727 154.8575 
L 270.760783 155.78375 
L 271.3912 154.8575 
L 271.88212 153.93125 
L 271.93506 153.005 
L 272.634116 153.93125 
L 273.808394 153.005 
L 273.816893 152.07875 
L 274.50745 153.005 
L 274.757889 152.07875 
L 275.681727 151.1525 
L 275.790837 150.22625 
L 276.380783 151.1525 
L 277.55506 150.22625 
L 277.59758 149.3 
L 278.254116 150.22625 
L 279.895013 147.4475 
L 280.12745 148.37375 
L 281.49852 147.4475 
L 281.768347 146.52125 
L 282.000783 147.4475 
L 282.140323 146.52125 
L 283.64168 145.595 
L 283.874116 146.52125 
L 283.943173 145.595 
L 284.992166 144.66875 
L 285.515013 143.7425 
L 285.747449 144.66875 
L 287.388346 143.7425 
L 287.620783 144.66875 
L 288.940118 143.7425 
L 289.26168 142.81625 
L 289.494116 143.7425 
L 290.614371 142.81625 
L 291.135013 141.89 
L 291.367449 142.81625 
L 293.008346 140.96375 
L 293.240783 141.89 
L 294.88168 140.96375 
L 295.114116 141.89 
L 296.755013 140.96375 
L 296.987449 141.89 
L 298.628346 140.96375 
L 298.719563 140.0375 
L 298.860783 140.96375 
L 299.00486 140.0375 
L 299.86317 139.11125 
L 300.054851 138.185 
L 300.50168 137.25875 
L 300.734116 138.185 
L 301.127262 137.25875 
L 302.375013 136.3325 
L 302.607449 137.25875 
L 304.248346 136.3325 
L 304.480783 137.25875 
L 306.12168 136.3325 
L 306.354116 137.25875 
L 307.995013 136.3325 
L 308.227449 137.25875 
L 308.878759 136.3325 
L 309.868346 135.40625 
L 310.100782 136.3325 
L 310.32137 135.40625 
L 311.434267 134.48 
L 311.741679 132.6275 
L 311.974116 133.55375 
L 313.615013 132.6275 
L 313.847449 133.55375 
L 315.488346 132.6275 
L 315.720782 133.55375 
L 316.35157 132.6275 
L 317.361679 131.70125 
L 317.594116 132.6275 
L 319.235013 131.70125 
L 319.467449 132.6275 
L 320.101239 130.775 
L 321.108346 129.84875 
L 321.340782 130.775 
L 322.981679 129.84875 
L 323.214116 130.775 
L 324.503905 129.84875 
L 324.855013 128.9225 
L 325.087449 129.84875 
L 326.728346 128.9225 
L 326.960782 129.84875 
L 328.299107 128.9225 
L 328.370824 127.99625 
L 328.601679 127.07 
L 328.703014 126.14375 
L 328.834116 127.07 
L 330.475013 126.14375 
L 330.493858 125.2175 
L 330.707449 126.14375 
L 332.348346 125.2175 
L 332.580782 126.14375 
L 333.32226 125.2175 
L 334.221679 124.29125 
L 334.454116 125.2175 
L 336.095013 124.29125 
L 336.327449 125.2175 
L 337.072648 124.29125 
L 337.968346 123.365 
L 338.06552 122.43875 
L 338.200782 123.365 
L 338.348002 122.43875 
L 339.327512 121.5125 
L 339.841679 120.58625 
L 340.074115 121.5125 
L 341.566967 120.58625 
L 341.715012 119.66 
L 341.947449 120.58625 
L 342.442324 119.66 
L 343.574378 118.73375 
L 343.588346 117.8075 
L 343.820782 118.73375 
L 345.461679 116.88125 
L 345.694115 117.8075 
L 346.993569 116.88125 
L 347.335012 115.955 
L 347.567449 116.88125 
L 347.845771 115.955 
L 349.208346 115.02875 
L 349.440782 115.955 
L 351.081679 115.02875 
L 351.314115 115.955 
L 352.955012 115.02875 
L 353.187449 115.955 
L 354.795764 115.02875 
L 354.828346 114.1025 
L 355.060782 115.02875 
L 355.631744 114.1025 
L 356.701679 113.17625 
L 356.934115 114.1025 
L 358.575012 113.17625 
L 358.807449 114.1025 
L 360.448346 113.17625 
L 360.680782 114.1025 
L 361.388322 112.25 
L 362.16503 111.32375 
L 362.321679 110.3975 
L 362.554115 111.32375 
L 363.544049 110.3975 
L 363.648712 109.47125 
L 364.066726 108.545 
L 364.195012 107.61875 
L 364.427448 108.545 
L 364.437327 107.61875 
L 366.068345 106.6925 
L 366.300782 107.61875 
L 367.39422 106.6925 
L 367.941679 105.76625 
L 368.174115 106.6925 
L 368.187871 105.76625 
L 369.815012 104.84 
L 370.047448 105.76625 
L 371.688345 104.84 
L 371.920782 105.76625 
L 373.561679 104.84 
L 373.591584 103.91375 
L 373.794115 104.84 
L 375.347157 103.91375 
L 375.435012 102.9875 
L 375.667448 103.91375 
L 377.048076 102.9875 
L 377.108691 102.06125 
L 377.308345 101.135 
L 377.540782 102.06125 
L 379.181679 101.135 
L 379.414115 102.06125 
L 379.976448 101.135 
L 380.073268 100.20875 
L 381.055012 99.2825 
L 381.287448 100.20875 
L 382.194989 98.35625 
L 382.928345 97.43 
L 383.160782 98.35625 
L 384.801679 97.43 
L 385.034115 98.35625 
L 386.675012 97.43 
L 386.907448 98.35625 
L 388.548345 97.43 
L 388.780781 98.35625 
L 390.421678 97.43 
L 390.654115 98.35625 
L 391.335232 97.43 
L 392.295012 96.50375 
L 392.527448 97.43 
L 392.772227 96.50375 
L 394.168345 95.5775 
L 394.400781 96.50375 
L 396.041678 95.5775 
L 396.274115 96.50375 
L 396.513596 95.5775 
L 397.915012 94.65125 
L 398.147448 95.5775 
L 399.667675 93.725 
L 399.788345 92.79875 
L 400.020781 93.725 
L 401.181291 92.79875 
L 401.661678 91.8725 
L 401.894115 92.79875 
L 402.132691 91.8725 
L 403.492499 89.09375 
L 403.535012 88.1675 
L 403.767448 89.09375 
L 403.954949 88.1675 
L 405.408345 87.24125 
L 405.534129 86.315 
L 405.640781 87.24125 
L 407.281678 86.315 
L 407.514115 87.24125 
L 408.054413 86.315 
L 409.155012 85.38875 
L 409.181559 84.4625 
L 409.387448 85.38875 
L 411.260781 86.315 
L 411.260781 86.315 
" clip-path="url(#ped8c8f7a65)" style="fill: none; stroke: #1f77b4; stroke-width: 1.5; stroke-linecap: square"/>
   </g>
   <g id="line2d_32">
    <path d="M 42.375929 259.52375 
L 42.375929 260.45 
L 44.249262 259.52375 
L 44.249262 260.45 
L 47.370545 259.52375 
L 47.370545 260.45 
L 49.315364 259.52375 
L 49.315364 260.45 
L 51.188697 259.52375 
L 51.188697 260.45 
L 54.558905 259.52375 
L 54.558905 260.45 
L 56.432239 259.52375 
L 56.432239 260.45 
L 58.305572 259.52375 
L 58.305572 260.45 
L 60.178905 259.52375 
L 60.178905 260.45 
L 62.052238 259.52375 
L 62.052238 260.45 
L 63.925572 259.52375 
L 63.925572 260.45 
L 65.798905 259.52375 
L 65.798905 260.45 
L 67.672238 259.52375 
L 67.672238 260.45 
L 69.545572 259.52375 
L 69.545572 260.45 
L 71.418905 259.52375 
L 71.418905 260.45 
L 73.292238 259.52375 
L 73.292238 260.45 
L 75.165572 259.52375 
L 75.165572 260.45 
L 77.038905 259.52375 
L 77.038905 260.45 
L 78.912238 259.52375 
L 78.912238 260.45 
L 85.81423 259.52375 
L 85.81423 260.45 
L 87.687563 259.52375 
L 87.687563 260.45 
L 89.814668 259.52375 
L 89.814668 260.45 
L 91.728151 259.52375 
L 91.728151 260.45 
L 93.601484 259.52375 
L 93.601484 260.45 
L 98.784513 259.52375 
L 98.784513 260.45 
L 100.657846 259.52375 
L 100.657846 260.45 
L 102.774619 259.52375 
L 102.774619 260.45 
L 104.647952 259.52375 
L 104.647952 260.45 
L 106.521285 259.52375 
L 106.521285 260.45 
L 108.394619 259.52375 
L 108.394619 260.45 
L 110.267952 259.52375 
L 110.267952 260.45 
L 112.141285 259.52375 
L 112.141285 260.45 
L 114.014618 259.52375 
L 114.014618 260.45 
L 115.887952 259.52375 
L 115.887952 260.45 
L 117.761285 259.52375 
L 117.761285 260.45 
L 119.634618 259.52375 
L 119.634618 260.45 
L 121.507952 259.52375 
L 121.507952 260.45 
L 123.381285 259.52375 
L 123.381285 260.45 
L 126.078153 259.52375 
L 126.078153 260.45 
L 127.951486 259.52375 
L 127.951486 260.45 
L 129.82482 259.52375 
L 129.82482 260.45 
L 131.698153 259.52375 
L 131.698153 260.45 
L 133.571486 259.52375 
L 133.571486 260.45 
L 135.444819 259.52375 
L 135.444819 260.45 
L 137.318153 259.52375 
L 137.318153 260.45 
L 139.191486 259.52375 
L 139.191486 260.45 
L 141.064819 259.52375 
L 141.064819 260.45 
L 142.938153 259.52375 
L 142.938153 260.45 
L 144.811486 259.52375 
L 144.811486 260.45 
L 146.684819 259.52375 
L 146.684819 260.45 
L 148.558153 259.52375 
L 148.558153 260.45 
L 150.431486 259.52375 
L 150.431486 260.45 
L 152.477116 259.52375 
L 152.477116 260.45 
L 154.350449 259.52375 
L 154.350449 260.45 
L 156.223783 259.52375 
L 156.223783 260.45 
L 158.097116 259.52375 
L 158.097116 260.45 
L 159.970449 259.52375 
L 159.970449 260.45 
L 161.843783 259.52375 
L 161.843783 260.45 
L 163.717116 259.52375 
L 163.717116 260.45 
L 165.590449 259.52375 
L 165.590449 260.45 
L 167.463783 259.52375 
L 167.463783 260.45 
L 169.337116 259.52375 
L 169.337116 260.45 
L 171.210449 259.52375 
L 171.210449 260.45 
L 174.32138 259.52375 
L 174.32138 260.45 
L 176.194713 259.52375 
L 176.194713 260.45 
L 178.068047 259.52375 
L 178.068047 260.45 
L 183.888208 259.52375 
L 183.888208 260.45 
L 185.761541 259.52375 
L 185.761541 260.45 
L 187.634874 259.52375 
L 187.634874 260.45 
L 189.508207 259.52375 
L 189.508207 260.45 
L 191.381541 259.52375 
L 191.381541 260.45 
L 193.254874 259.52375 
L 193.254874 260.45 
L 195.128207 259.52375 
L 195.128207 260.45 
L 197.001541 259.52375 
L 197.001541 260.45 
L 198.874874 259.52375 
L 198.874874 260.45 
L 200.748207 259.52375 
L 200.748207 260.45 
L 202.621541 259.52375 
L 202.621541 260.45 
L 204.494874 259.52375 
L 204.494874 260.45 
L 206.368207 259.52375 
L 206.368207 260.45 
L 208.241541 259.52375 
L 208.241541 260.45 
L 210.114874 259.52375 
L 210.114874 260.45 
L 211.988207 259.52375 
L 211.988207 260.45 
L 213.86154 259.52375 
L 213.86154 260.45 
L 215.734874 259.52375 
L 215.734874 260.45 
L 217.608207 259.52375 
L 217.608207 260.45 
L 219.48154 259.52375 
L 219.48154 260.45 
L 221.354874 259.52375 
L 221.354874 260.45 
L 223.228207 259.52375 
L 223.228207 260.45 
L 225.10154 259.52375 
L 225.10154 260.45 
L 226.974874 259.52375 
L 226.974874 260.45 
L 228.848207 259.52375 
L 228.848207 260.45 
L 230.72154 259.52375 
L 230.72154 260.45 
L 232.594874 259.52375 
L 232.594874 260.45 
L 234.468207 259.52375 
L 234.468207 260.45 
L 236.34154 259.52375 
L 236.34154 260.45 
L 238.214874 259.52375 
L 238.214874 260.45 
L 240.088207 259.52375 
L 240.088207 260.45 
L 241.96154 259.52375 
L 241.96154 260.45 
L 243.834873 259.52375 
L 243.834873 260.45 
L 245.708207 259.52375 
L 245.708207 260.45 
L 247.58154 259.52375 
L 247.58154 260.45 
L 249.454873 259.52375 
L 249.454873 260.45 
L 251.328207 259.52375 
L 251.328207 260.45 
L 253.20154 259.52375 
L 253.20154 260.45 
L 255.074873 259.52375 
L 255.074873 260.45 
L 256.948207 259.52375 
L 256.948207 260.45 
L 258.82154 259.52375 
L 258.82154 260.45 
L 260.694873 259.52375 
L 260.694873 260.45 
L 262.568207 259.52375 
L 262.568207 260.45 
L 264.44154 259.52375 
L 264.44154 260.45 
L 266.314873 259.52375 
L 266.314873 260.45 
L 268.188206 259.52375 
L 268.188206 260.45 
L 270.06154 259.52375 
L 270.06154 260.45 
L 271.934873 259.52375 
L 271.934873 260.45 
L 273.808206 259.52375 
L 273.808206 260.45 
L 275.68154 259.52375 
L 275.68154 260.45 
L 278.021493 259.52375 
L 278.021493 260.45 
L 279.894826 259.52375 
L 279.894826 260.45 
L 281.768159 259.52375 
L 281.768159 260.45 
L 283.641493 259.52375 
L 283.641493 260.45 
L 285.514826 259.52375 
L 285.514826 260.45 
L 287.388159 259.52375 
L 287.388159 260.45 
L 289.261492 259.52375 
L 289.261492 260.45 
L 291.134826 259.52375 
L 291.134826 260.45 
L 293.008159 259.52375 
L 293.008159 260.45 
L 294.881492 259.52375 
L 294.881492 260.45 
L 296.754826 259.52375 
L 296.754826 260.45 
L 298.628159 259.52375 
L 298.628159 260.45 
L 300.501492 259.52375 
L 300.501492 260.45 
L 302.374826 259.52375 
L 302.374826 260.45 
L 304.248159 259.52375 
L 304.248159 260.45 
L 306.121492 259.52375 
L 306.121492 260.45 
L 307.994826 259.52375 
L 307.994826 260.45 
L 309.868159 259.52375 
L 309.868159 260.45 
L 311.741492 259.52375 
L 311.741492 260.45 
L 313.614825 259.52375 
L 313.614825 260.45 
L 315.488159 259.52375 
L 315.488159 260.45 
L 317.361492 259.52375 
L 317.361492 260.45 
L 319.234825 259.52375 
L 319.234825 260.45 
L 321.108159 259.52375 
L 321.108159 260.45 
L 322.981492 259.52375 
L 322.981492 260.45 
L 324.854825 259.52375 
L 324.854825 260.45 
L 326.728159 259.52375 
L 326.728159 260.45 
L 328.601492 259.52375 
L 328.601492 260.45 
L 330.474825 259.52375 
L 330.474825 260.45 
L 332.348159 259.52375 
L 332.348159 260.45 
L 334.221492 259.52375 
L 334.221492 260.45 
L 336.094825 259.52375 
L 336.094825 260.45 
L 337.968158 259.52375 
L 337.968158 260.45 
L 339.841492 259.52375 
L 339.841492 260.45 
L 341.714825 259.52375 
L 341.714825 260.45 
L 343.588158 259.52375 
L 343.588158 260.45 
L 345.461492 259.52375 
L 345.461492 260.45 
L 347.334825 259.52375 
L 347.334825 260.45 
L 349.208158 259.52375 
L 349.208158 260.45 
L 351.081492 259.52375 
L 351.081492 260.45 
L 352.954825 259.52375 
L 352.954825 260.45 
L 354.828158 259.52375 
L 354.828158 260.45 
L 356.701492 259.52375 
L 356.701492 260.45 
L 358.574825 259.52375 
L 358.574825 260.45 
L 360.448158 259.52375 
L 360.448158 260.45 
L 362.321491 259.52375 
L 362.321491 260.45 
L 364.194825 259.52375 
L 364.194825 260.45 
L 366.068158 259.52375 
L 366.068158 260.45 
L 367.941491 259.52375 
L 367.941491 260.45 
L 369.814825 259.52375 
L 369.814825 260.45 
L 371.688158 259.52375 
L 371.688158 260.45 
L 373.561491 259.52375 
L 373.561491 260.45 
L 375.434825 259.52375 
L 375.434825 260.45 
L 377.308158 259.52375 
L 377.308158 260.45 
L 379.181491 259.52375 
L 379.181491 260.45 
L 381.054825 259.52375 
L 381.054825 260.45 
L 382.928158 259.52375 
L 382.928158 260.45 
L 384.801491 259.52375 
L 384.801491 260.45 
L 386.674825 259.52375 
L 386.674825 260.45 
L 388.548158 259.52375 
L 388.548158 260.45 
L 390.421491 259.52375 
L 390.421491 260.45 
L 392.294824 259.52375 
L 392.294824 260.45 
L 394.168158 259.52375 
L 394.168158 260.45 
L 396.041491 259.52375 
L 396.041491 260.45 
L 397.914824 259.52375 
L 397.914824 260.45 
L 399.788158 259.52375 
L 399.788158 260.45 
L 401.661491 259.52375 
L 401.661491 260.45 
L 403.534824 259.52375 
L 403.534824 260.45 
L 405.408158 259.52375 
L 405.408158 260.45 
L 407.281491 259.52375 
L 407.281491 260.45 
L 411.027844 259.52375 
L 411.027844 260.45 
L 411.027844 260.45 
" clip-path="url(#ped8c8f7a65)" style="fill: none; stroke: #ff7f0e; stroke-width: 1.5; stroke-linecap: square"/>
   </g>
   <g id="line2d_33">
    <path d="M 40.502409 259.52375 
L 40.502409 260.45 
L 41.977099 259.52375 
L 42.375742 260.45 
L 45.497025 259.52375 
L 45.497025 260.45 
L 47.441843 259.52375 
L 47.441843 260.45 
L 48.519982 259.52375 
L 49.315176 260.45 
L 52.685385 259.52375 
L 52.685385 260.45 
L 53.281772 259.52375 
L 54.18772 258.5975 
L 54.558718 259.52375 
L 55.404349 258.5975 
L 56.432051 259.52375 
L 58.305385 260.45 
L 58.536958 259.52375 
L 59.761898 258.5975 
L 60.178718 259.52375 
L 60.696452 258.5975 
L 62.052051 259.52375 
L 63.925384 260.45 
L 65.563848 259.52375 
L 65.602112 258.5975 
L 65.798718 259.52375 
L 66.462436 258.5975 
L 67.672051 259.52375 
L 69.545384 260.45 
L 69.810997 259.52375 
L 71.418718 260.45 
L 72.631832 259.52375 
L 72.915138 258.5975 
L 73.292051 259.52375 
L 75.165384 260.45 
L 76.737327 259.52375 
L 77.038718 260.45 
L 83.940709 259.52375 
L 83.940709 260.45 
L 85.10017 259.52375 
L 85.814042 260.45 
L 87.941148 259.52375 
L 87.941148 260.45 
L 89.85463 259.52375 
L 89.85463 260.45 
L 91.488778 259.52375 
L 91.727963 260.45 
L 96.910993 259.52375 
L 96.910993 260.45 
L 98.113101 259.52375 
L 98.784326 260.45 
L 100.901098 259.52375 
L 100.901098 260.45 
L 101.358282 259.52375 
L 102.774431 260.45 
L 102.932509 259.52375 
L 103.236245 258.5975 
L 104.647765 259.52375 
L 105.010285 258.5975 
L 106.521098 259.52375 
L 106.807838 258.5975 
L 108.394431 259.52375 
L 110.267764 260.45 
L 111.170669 259.52375 
L 112.141098 260.45 
L 113.315896 259.52375 
L 114.014431 260.45 
L 115.094616 259.52375 
L 115.887764 260.45 
L 117.335325 259.52375 
L 117.647565 257.67125 
L 117.761098 258.5975 
L 121.507764 260.45 
L 124.204632 259.52375 
L 124.204632 260.45 
L 124.998238 258.5975 
L 125.828881 257.67125 
L 126.077966 258.5975 
L 126.538803 257.67125 
L 127.951299 258.5975 
L 128.292359 257.67125 
L 129.028789 256.745 
L 129.102193 255.81875 
L 129.824632 256.745 
L 130.183713 255.81875 
L 131.697966 256.745 
L 132.068045 255.81875 
L 133.571299 256.745 
L 137.317965 258.5975 
L 138.049498 257.67125 
L 138.251135 256.745 
L 139.191299 257.67125 
L 140.232796 256.745 
L 140.562341 255.81875 
L 141.064632 256.745 
L 148.557965 260.45 
L 150.603595 259.52375 
L 150.603595 260.45 
L 151.147017 258.5975 
L 152.476929 259.52375 
L 153.965867 257.67125 
L 154.350262 258.5975 
L 154.375904 257.67125 
L 159.970262 260.45 
L 159.997504 258.5975 
L 160.188856 257.67125 
L 161.843595 258.5975 
L 162.015547 257.67125 
L 163.716929 258.5975 
L 165.424674 257.67125 
L 165.590262 258.5975 
L 169.336929 260.45 
L 172.447859 259.52375 
L 172.447859 260.45 
L 173.632437 259.52375 
L 174.321193 260.45 
L 174.967343 259.52375 
L 176.194526 260.45 
L 182.014687 259.52375 
L 182.014687 260.45 
L 182.637402 259.52375 
L 182.877295 258.5975 
L 183.711714 257.67125 
L 183.88802 258.5975 
L 184.369584 257.67125 
L 185.597828 256.745 
L 185.761354 257.67125 
L 185.834596 256.745 
L 187.634687 257.67125 
L 188.020539 256.745 
L 188.737466 255.81875 
L 189.50802 256.745 
L 191.381353 257.67125 
L 192.71687 256.745 
L 192.841067 255.81875 
L 193.254687 256.745 
L 193.298901 255.81875 
L 195.12802 256.745 
L 195.507916 255.81875 
L 197.001353 256.745 
L 197.074206 255.81875 
L 197.651969 254.8925 
L 198.874687 255.81875 
L 198.984374 254.8925 
L 200.372062 253.96625 
L 200.74802 254.8925 
L 204.494687 256.745 
L 205.028386 255.81875 
L 206.36802 256.745 
L 206.635511 255.81875 
L 207.963518 253.96625 
L 207.981129 253.04 
L 208.241353 253.96625 
L 210.04338 253.04 
L 210.114687 253.96625 
L 211.98802 254.8925 
L 213.504041 253.96625 
L 213.861353 254.8925 
L 215.734686 255.81875 
L 216.953376 254.8925 
L 217.60802 255.81875 
L 217.903531 254.8925 
L 219.411185 253.96625 
L 219.481353 254.8925 
L 220.276161 253.96625 
L 220.284978 253.04 
L 220.581604 252.11375 
L 221.354686 253.04 
L 222.703405 252.11375 
L 223.22802 253.04 
L 223.292984 252.11375 
L 225.101353 253.04 
L 225.57191 252.11375 
L 226.209493 251.1875 
L 226.974686 252.11375 
L 230.721353 253.96625 
L 232.344928 253.04 
L 232.594686 253.96625 
L 234.024541 253.04 
L 234.46802 253.96625 
L 235.615415 253.04 
L 236.341353 253.96625 
L 237.523702 253.04 
L 238.214686 253.96625 
L 240.088019 254.8925 
L 241.685325 253.96625 
L 241.961353 254.8925 
L 243.820191 253.96625 
L 243.834686 254.8925 
L 244.937408 253.96625 
L 245.708019 254.8925 
L 251.328019 257.67125 
L 252.13664 256.745 
L 253.201353 257.67125 
L 255.074686 258.5975 
L 255.285568 257.67125 
L 256.948019 258.5975 
L 257.932012 256.745 
L 258.821353 257.67125 
L 260.2667 255.81875 
L 260.694686 256.745 
L 266.314686 259.52375 
L 266.569287 258.5975 
L 268.188019 259.52375 
L 268.989464 258.5975 
L 270.061352 259.52375 
L 270.292928 258.5975 
L 271.934686 259.52375 
L 273.808019 260.45 
L 276.147972 259.52375 
L 276.147972 260.45 
L 277.894673 259.52375 
L 277.930978 258.5975 
L 278.021305 259.52375 
L 279.120784 258.5975 
L 279.894639 259.52375 
L 281.479392 258.5975 
L 281.767972 259.52375 
L 282.115697 258.5975 
L 283.021708 257.67125 
L 283.641305 258.5975 
L 285.514638 259.52375 
L 285.612489 258.5975 
L 286.088543 256.745 
L 286.752123 255.81875 
L 286.933691 254.8925 
L 287.387972 255.81875 
L 288.514576 254.8925 
L 289.261305 255.81875 
L 289.333275 254.8925 
L 290.836722 253.96625 
L 290.900797 253.04 
L 291.134638 253.96625 
L 292.884674 253.04 
L 293.007972 253.96625 
L 294.862632 253.04 
L 294.881305 253.96625 
L 295.587856 253.04 
L 296.64556 252.11375 
L 296.754638 253.04 
L 297.114046 252.11375 
L 298.627972 253.04 
L 300.501305 253.96625 
L 301.363953 253.04 
L 302.374638 253.96625 
L 304.247972 254.8925 
L 305.53196 253.96625 
L 306.096894 253.04 
L 306.121305 253.96625 
L 307.994638 254.8925 
L 309.170842 253.96625 
L 309.867972 254.8925 
L 311.450725 253.96625 
L 311.647203 253.04 
L 311.741305 253.96625 
L 312.460878 253.04 
L 313.614638 253.96625 
L 314.807429 253.04 
L 315.487971 253.96625 
L 315.994116 253.04 
L 317.361305 253.96625 
L 328.601305 259.52375 
L 328.667947 258.5975 
L 329.99786 257.67125 
L 330.339816 256.745 
L 330.474638 257.67125 
L 330.58744 256.745 
L 332.347971 257.67125 
L 334.116666 256.745 
L 334.221305 257.67125 
L 336.094638 258.5975 
L 337.20152 257.67125 
L 337.967971 258.5975 
L 338.778644 257.67125 
L 338.97621 255.81875 
L 339.841304 256.745 
L 345.461304 259.52375 
L 346.562923 258.5975 
L 346.660172 257.67125 
L 347.334638 258.5975 
L 349.207971 259.52375 
L 350.430766 258.5975 
L 350.462178 257.67125 
L 351.081304 258.5975 
L 352.954638 259.52375 
L 354.090033 258.5975 
L 354.581463 257.67125 
L 354.603537 256.745 
L 354.827971 257.67125 
L 356.701304 258.5975 
L 357.315738 257.67125 
L 358.574638 258.5975 
L 359.76849 257.67125 
L 360.447971 258.5975 
L 362.321304 259.52375 
L 362.365476 258.5975 
L 363.625218 257.67125 
L 364.194637 258.5975 
L 364.400739 257.67125 
L 364.435762 256.745 
L 364.787047 255.81875 
L 365.95338 254.8925 
L 366.067971 255.81875 
L 366.42828 254.8925 
L 367.941304 255.81875 
L 369.814637 256.745 
L 370.317378 255.81875 
L 371.687971 256.745 
L 373.561304 257.67125 
L 375.248402 256.745 
L 375.434637 257.67125 
L 377.307971 258.5975 
L 377.868734 256.745 
L 379.167329 255.81875 
L 379.181304 256.745 
L 380.987238 255.81875 
L 381.054637 256.745 
L 382.927971 257.67125 
L 383.237057 256.745 
L 384.801304 257.67125 
L 386.674637 258.5975 
L 388.33505 257.67125 
L 388.54797 258.5975 
L 388.917596 257.67125 
L 390.421304 258.5975 
L 390.70069 257.67125 
L 392.294637 258.5975 
L 392.829914 257.67125 
L 394.16797 258.5975 
L 394.499763 257.67125 
L 396.041304 258.5975 
L 397.103092 257.67125 
L 397.914637 258.5975 
L 401.661304 260.45 
L 403.356155 259.52375 
L 403.534637 260.45 
L 403.742122 259.52375 
L 405.40797 260.45 
L 409.154324 259.52375 
L 409.154324 260.45 
L 410.417408 259.52375 
L 410.900752 258.5975 
L 411.027657 259.52375 
L 411.027657 259.52375 
" clip-path="url(#ped8c8f7a65)" style="fill: none; stroke: #2ca02c; stroke-width: 1.5; stroke-linecap: square"/>
   </g>
   <g id="line2d_34">
    <path d="M 42.449094 259.52375 
L 42.449094 260.45 
L 44.322428 259.52375 
L 44.322428 260.45 
L 47.834494 259.52375 
L 47.834494 260.45 
L 49.707827 259.52375 
L 49.707827 260.45 
L 51.581161 259.52375 
L 51.581161 260.45 
L 53.454494 259.52375 
L 53.454494 260.45 
L 55.327827 259.52375 
L 55.327827 260.45 
L 57.20116 259.52375 
L 57.20116 260.45 
L 59.074494 259.52375 
L 59.074494 260.45 
L 60.947827 259.52375 
L 60.947827 260.45 
L 62.82116 259.52375 
L 62.82116 260.45 
L 64.694494 259.52375 
L 64.694494 260.45 
L 66.567827 259.52375 
L 66.567827 260.45 
L 68.44116 259.52375 
L 68.44116 260.45 
L 70.314494 259.52375 
L 70.314494 260.45 
L 72.187827 259.52375 
L 72.187827 260.45 
L 74.06116 259.52375 
L 74.06116 260.45 
L 75.934494 259.52375 
L 75.934494 260.45 
L 77.807827 259.52375 
L 77.807827 260.45 
L 79.68116 259.52375 
L 79.68116 260.45 
L 81.554493 259.52375 
L 81.554493 260.45 
L 83.427827 259.52375 
L 83.427827 260.45 
L 85.30116 259.52375 
L 85.30116 260.45 
L 87.174493 259.52375 
L 87.174493 260.45 
L 89.047827 259.52375 
L 89.047827 260.45 
L 90.92116 259.52375 
L 90.92116 260.45 
L 92.794493 259.52375 
L 92.794493 260.45 
L 94.667827 259.52375 
L 94.667827 260.45 
L 96.54116 259.52375 
L 96.54116 260.45 
L 98.414493 259.52375 
L 98.414493 260.45 
L 100.287827 259.52375 
L 100.287827 260.45 
L 102.16116 259.52375 
L 102.16116 260.45 
L 104.034493 259.52375 
L 104.034493 260.45 
L 105.907826 259.52375 
L 105.907826 260.45 
L 107.78116 259.52375 
L 107.78116 260.45 
L 109.654493 259.52375 
L 109.654493 260.45 
L 111.527826 259.52375 
L 111.527826 260.45 
L 113.40116 259.52375 
L 113.40116 260.45 
L 115.274493 259.52375 
L 115.274493 260.45 
L 117.147826 259.52375 
L 117.147826 260.45 
L 119.02116 259.52375 
L 119.02116 260.45 
L 120.894493 259.52375 
L 120.894493 260.45 
L 122.767826 259.52375 
L 122.767826 260.45 
L 124.64116 259.52375 
L 124.64116 260.45 
L 126.514493 259.52375 
L 126.514493 260.45 
L 128.387826 259.52375 
L 128.387826 260.45 
L 130.26116 259.52375 
L 130.26116 260.45 
L 132.134493 259.52375 
L 132.134493 260.45 
L 134.007826 259.52375 
L 134.007826 260.45 
L 135.881159 259.52375 
L 135.881159 260.45 
L 137.754493 259.52375 
L 137.754493 260.45 
L 139.627826 259.52375 
L 139.627826 260.45 
L 141.501159 259.52375 
L 141.501159 260.45 
L 143.374493 259.52375 
L 143.374493 260.45 
L 145.247826 259.52375 
L 145.247826 260.45 
L 147.121159 259.52375 
L 147.121159 260.45 
L 148.994493 259.52375 
L 148.994493 260.45 
L 150.867826 259.52375 
L 150.867826 260.45 
L 152.741159 259.52375 
L 152.741159 260.45 
L 154.614493 259.52375 
L 154.614493 260.45 
L 156.487826 259.52375 
L 156.487826 260.45 
L 158.361159 259.52375 
L 158.361159 260.45 
L 160.234492 259.52375 
L 160.234492 260.45 
L 162.107826 259.52375 
L 162.107826 260.45 
L 163.981159 259.52375 
L 163.981159 260.45 
L 165.854492 259.52375 
L 165.854492 260.45 
L 167.727826 259.52375 
L 167.727826 260.45 
L 169.601159 259.52375 
L 169.601159 260.45 
L 171.474492 259.52375 
L 171.474492 260.45 
L 173.347826 259.52375 
L 173.347826 260.45 
L 175.221159 259.52375 
L 175.221159 260.45 
L 177.094492 259.52375 
L 177.094492 260.45 
L 178.967826 259.52375 
L 178.967826 260.45 
L 180.841159 259.52375 
L 180.841159 260.45 
L 182.714492 259.52375 
L 182.714492 260.45 
L 184.587825 259.52375 
L 184.587825 260.45 
L 186.461159 259.52375 
L 186.461159 260.45 
L 188.334492 259.52375 
L 188.334492 260.45 
L 190.207825 259.52375 
L 190.207825 260.45 
L 192.081159 259.52375 
L 192.081159 260.45 
L 193.954492 259.52375 
L 193.954492 260.45 
L 195.827825 259.52375 
L 195.827825 260.45 
L 197.701159 259.52375 
L 197.701159 260.45 
L 199.574492 259.52375 
L 199.574492 260.45 
L 201.447825 259.52375 
L 201.447825 260.45 
L 203.321159 259.52375 
L 203.321159 260.45 
L 205.194492 259.52375 
L 205.194492 260.45 
L 207.067825 259.52375 
L 207.067825 260.45 
L 208.941158 259.52375 
L 208.941158 260.45 
L 210.814492 259.52375 
L 210.814492 260.45 
L 212.687825 259.52375 
L 212.687825 260.45 
L 214.561158 259.52375 
L 214.561158 260.45 
L 216.434492 259.52375 
L 216.434492 260.45 
L 218.307825 259.52375 
L 218.307825 260.45 
L 220.181158 259.52375 
L 220.181158 260.45 
L 222.054492 259.52375 
L 222.054492 260.45 
L 223.927825 259.52375 
L 223.927825 260.45 
L 225.801158 259.52375 
L 225.801158 260.45 
L 227.674492 259.52375 
L 227.674492 260.45 
L 229.547825 259.52375 
L 229.547825 260.45 
L 231.421158 259.52375 
L 231.421158 260.45 
L 233.294491 259.52375 
L 233.294491 260.45 
L 235.167825 259.52375 
L 235.167825 260.45 
L 237.041158 259.52375 
L 237.041158 260.45 
L 238.914491 259.52375 
L 238.914491 260.45 
L 240.787825 259.52375 
L 240.787825 260.45 
L 242.661158 259.52375 
L 242.661158 260.45 
L 244.534491 259.52375 
L 244.534491 260.45 
L 246.407825 259.52375 
L 246.407825 260.45 
L 248.281158 259.52375 
L 248.281158 260.45 
L 250.154491 259.52375 
L 250.154491 260.45 
L 252.027825 259.52375 
L 252.027825 260.45 
L 253.901158 259.52375 
L 253.901158 260.45 
L 255.774491 259.52375 
L 255.774491 260.45 
L 257.647825 259.52375 
L 257.647825 260.45 
L 259.521158 259.52375 
L 259.521158 260.45 
L 261.394491 259.52375 
L 261.394491 260.45 
L 263.267824 259.52375 
L 263.267824 260.45 
L 265.141158 259.52375 
L 265.141158 260.45 
L 267.014491 259.52375 
L 267.014491 260.45 
L 268.887824 259.52375 
L 268.887824 260.45 
L 270.761158 259.52375 
L 270.761158 260.45 
L 272.634491 259.52375 
L 272.634491 260.45 
L 274.507824 259.52375 
L 274.507824 260.45 
L 276.381158 259.52375 
L 276.381158 260.45 
L 278.254491 259.52375 
L 278.254491 260.45 
L 280.127824 259.52375 
L 280.127824 260.45 
L 282.001158 259.52375 
L 282.001158 260.45 
L 283.874491 259.52375 
L 283.874491 260.45 
L 285.747824 259.52375 
L 285.747824 260.45 
L 287.621157 259.52375 
L 287.621157 260.45 
L 289.494491 259.52375 
L 289.494491 260.45 
L 291.367824 259.52375 
L 291.367824 260.45 
L 293.241157 259.52375 
L 293.241157 260.45 
L 295.114491 259.52375 
L 295.114491 260.45 
L 296.987824 259.52375 
L 296.987824 260.45 
L 298.861157 259.52375 
L 298.861157 260.45 
L 300.734491 259.52375 
L 300.734491 260.45 
L 302.607824 259.52375 
L 302.607824 260.45 
L 304.481157 259.52375 
L 304.481157 260.45 
L 306.354491 259.52375 
L 306.354491 260.45 
L 308.227824 259.52375 
L 308.227824 260.45 
L 310.101157 259.52375 
L 310.101157 260.45 
L 311.97449 259.52375 
L 311.97449 260.45 
L 313.847824 259.52375 
L 313.847824 260.45 
L 315.721157 259.52375 
L 315.721157 260.45 
L 317.59449 259.52375 
L 317.59449 260.45 
L 319.467824 259.52375 
L 319.467824 260.45 
L 321.341157 259.52375 
L 321.341157 260.45 
L 323.21449 259.52375 
L 323.21449 260.45 
L 325.087824 259.52375 
L 325.087824 260.45 
L 326.961157 259.52375 
L 326.961157 260.45 
L 328.83449 259.52375 
L 328.83449 260.45 
L 330.707824 259.52375 
L 330.707824 260.45 
L 332.581157 259.52375 
L 332.581157 260.45 
L 334.45449 259.52375 
L 334.45449 260.45 
L 336.327823 259.52375 
L 336.327823 260.45 
L 338.201157 259.52375 
L 338.201157 260.45 
L 340.07449 259.52375 
L 340.07449 260.45 
L 341.947823 259.52375 
L 341.947823 260.45 
L 343.821157 259.52375 
L 343.821157 260.45 
L 345.69449 259.52375 
L 345.69449 260.45 
L 347.567823 259.52375 
L 347.567823 260.45 
L 349.441157 259.52375 
L 349.441157 260.45 
L 351.31449 259.52375 
L 351.31449 260.45 
L 353.187823 259.52375 
L 353.187823 260.45 
L 355.061157 259.52375 
L 355.061157 260.45 
L 356.93449 259.52375 
L 356.93449 260.45 
L 358.807823 259.52375 
L 358.807823 260.45 
L 360.681157 259.52375 
L 360.681157 260.45 
L 362.55449 259.52375 
L 362.55449 260.45 
L 364.427823 259.52375 
L 364.427823 260.45 
L 366.301156 259.52375 
L 366.301156 260.45 
L 368.17449 259.52375 
L 368.17449 260.45 
L 370.047823 259.52375 
L 370.047823 260.45 
L 371.921156 259.52375 
L 371.921156 260.45 
L 373.79449 259.52375 
L 373.79449 260.45 
L 375.667823 259.52375 
L 375.667823 260.45 
L 377.541156 259.52375 
L 377.541156 260.45 
L 379.41449 259.52375 
L 379.41449 260.45 
L 381.287823 259.52375 
L 381.287823 260.45 
L 383.161156 259.52375 
L 383.161156 260.45 
L 385.03449 259.52375 
L 385.03449 260.45 
L 386.907823 259.52375 
L 386.907823 260.45 
L 388.781156 259.52375 
L 388.781156 260.45 
L 390.654489 259.52375 
L 390.654489 260.45 
L 392.527823 259.52375 
L 392.527823 260.45 
L 394.401156 259.52375 
L 394.401156 260.45 
L 396.274489 259.52375 
L 396.274489 260.45 
L 398.147823 259.52375 
L 398.147823 260.45 
L 400.021156 259.52375 
L 400.021156 260.45 
L 401.894489 259.52375 
L 401.894489 260.45 
L 403.767823 259.52375 
L 403.767823 260.45 
L 405.641156 259.52375 
L 405.641156 260.45 
L 407.514489 259.52375 
L 407.514489 260.45 
L 409.387823 259.52375 
L 409.387823 260.45 
L 411.261156 259.52375 
L 411.261156 260.45 
L 411.261156 260.45 
" clip-path="url(#ped8c8f7a65)" style="fill: none; stroke: #d62728; stroke-width: 1.5; stroke-linecap: square"/>
   </g>
   <g id="line2d_35">
    <path d="M 40.575574 259.52375 
L 40.575574 260.45 
L 42.448907 259.52375 
L 42.448907 260.45 
L 45.960973 259.52375 
L 45.960973 260.45 
L 47.834307 259.52375 
L 47.834307 260.45 
L 49.70764 259.52375 
L 49.70764 260.45 
L 51.580973 259.52375 
L 51.580973 260.45 
L 53.454307 259.52375 
L 53.454307 260.45 
L 55.32764 259.52375 
L 55.32764 260.45 
L 57.200973 259.52375 
L 57.200973 260.45 
L 59.074306 259.52375 
L 59.074306 260.45 
L 60.94764 259.52375 
L 60.94764 260.45 
L 62.820973 259.52375 
L 62.820973 260.45 
L 64.694306 259.52375 
L 64.694306 260.45 
L 66.56764 259.52375 
L 66.56764 260.45 
L 68.440973 259.52375 
L 68.440973 260.45 
L 70.314306 259.52375 
L 70.314306 260.45 
L 72.18764 259.52375 
L 72.18764 260.45 
L 74.060973 259.52375 
L 74.060973 260.45 
L 75.934306 259.52375 
L 75.934306 260.45 
L 77.80764 259.52375 
L 77.80764 260.45 
L 79.680973 259.52375 
L 79.680973 260.45 
L 81.554306 259.52375 
L 81.554306 260.45 
L 83.427639 259.52375 
L 83.427639 260.45 
L 85.300973 259.52375 
L 85.300973 260.45 
L 87.174306 259.52375 
L 87.174306 260.45 
L 89.047639 259.52375 
L 89.047639 260.45 
L 90.920973 259.52375 
L 90.920973 260.45 
L 92.794306 259.52375 
L 92.794306 260.45 
L 94.667639 259.52375 
L 94.667639 260.45 
L 96.540973 259.52375 
L 96.540973 260.45 
L 98.414306 259.52375 
L 98.414306 260.45 
L 100.287639 259.52375 
L 100.287639 260.45 
L 102.160973 259.52375 
L 102.160973 260.45 
L 104.034306 259.52375 
L 104.034306 260.45 
L 105.907639 259.52375 
L 105.907639 260.45 
L 107.780972 259.52375 
L 107.780972 260.45 
L 109.654306 259.52375 
L 109.654306 260.45 
L 111.527639 259.52375 
L 111.527639 260.45 
L 113.400972 259.52375 
L 113.400972 260.45 
L 115.274306 259.52375 
L 115.274306 260.45 
L 117.147639 259.52375 
L 117.147639 260.45 
L 119.020972 259.52375 
L 119.020972 260.45 
L 120.894306 259.52375 
L 120.894306 260.45 
L 122.767639 259.52375 
L 122.767639 260.45 
L 124.640972 259.52375 
L 124.640972 260.45 
L 126.514306 259.52375 
L 126.514306 260.45 
L 128.387639 259.52375 
L 128.387639 260.45 
L 130.260972 259.52375 
L 130.260972 260.45 
L 132.134305 259.52375 
L 132.134305 260.45 
L 134.007639 259.52375 
L 134.007639 260.45 
L 135.880972 259.52375 
L 135.880972 260.45 
L 137.754305 259.52375 
L 137.754305 260.45 
L 139.627639 259.52375 
L 139.627639 260.45 
L 141.500972 259.52375 
L 141.500972 260.45 
L 143.374305 259.52375 
L 143.374305 260.45 
L 145.247639 259.52375 
L 145.247639 260.45 
L 147.120972 259.52375 
L 147.120972 260.45 
L 148.994305 259.52375 
L 148.994305 260.45 
L 150.867639 259.52375 
L 150.867639 260.45 
L 152.740972 259.52375 
L 152.740972 260.45 
L 154.614305 259.52375 
L 154.614305 260.45 
L 156.487638 259.52375 
L 156.487638 260.45 
L 158.360972 259.52375 
L 158.360972 260.45 
L 160.234305 259.52375 
L 160.234305 260.45 
L 162.107638 259.52375 
L 162.107638 260.45 
L 163.980972 259.52375 
L 163.980972 260.45 
L 165.854305 259.52375 
L 165.854305 260.45 
L 167.727638 259.52375 
L 167.727638 260.45 
L 169.600972 259.52375 
L 169.600972 260.45 
L 171.474305 259.52375 
L 171.474305 260.45 
L 173.347638 259.52375 
L 173.347638 260.45 
L 175.220972 259.52375 
L 175.220972 260.45 
L 177.094305 259.52375 
L 177.094305 260.45 
L 178.967638 259.52375 
L 178.967638 260.45 
L 180.840972 259.52375 
L 180.840972 260.45 
L 182.714305 259.52375 
L 182.714305 260.45 
L 184.587638 259.52375 
L 184.587638 260.45 
L 186.460971 259.52375 
L 186.460971 260.45 
L 188.334305 259.52375 
L 188.334305 260.45 
L 190.207638 259.52375 
L 190.207638 260.45 
L 192.080971 259.52375 
L 192.080971 260.45 
L 193.954305 259.52375 
L 193.954305 260.45 
L 195.827638 259.52375 
L 195.827638 260.45 
L 197.700971 259.52375 
L 197.700971 260.45 
L 199.574305 259.52375 
L 199.574305 260.45 
L 201.447638 259.52375 
L 201.447638 260.45 
L 203.320971 259.52375 
L 203.320971 260.45 
L 205.194305 259.52375 
L 205.194305 260.45 
L 207.067638 259.52375 
L 207.067638 260.45 
L 208.940971 259.52375 
L 208.940971 260.45 
L 210.814304 259.52375 
L 210.814304 260.45 
L 212.687638 259.52375 
L 212.687638 260.45 
L 214.560971 259.52375 
L 214.560971 260.45 
L 216.434304 259.52375 
L 216.434304 260.45 
L 218.307638 259.52375 
L 218.307638 260.45 
L 220.180971 259.52375 
L 220.180971 260.45 
L 222.054304 259.52375 
L 222.054304 260.45 
L 223.927638 259.52375 
L 223.927638 260.45 
L 225.800971 259.52375 
L 225.800971 260.45 
L 227.674304 259.52375 
L 227.674304 260.45 
L 229.547638 259.52375 
L 229.547638 260.45 
L 231.420971 259.52375 
L 231.420971 260.45 
L 233.294304 259.52375 
L 233.294304 260.45 
L 235.167637 259.52375 
L 235.167637 260.45 
L 237.040971 259.52375 
L 237.040971 260.45 
L 238.914304 259.52375 
L 238.914304 260.45 
L 240.787637 259.52375 
L 240.787637 260.45 
L 242.660971 259.52375 
L 242.660971 260.45 
L 244.534304 259.52375 
L 244.534304 260.45 
L 246.407637 259.52375 
L 246.407637 260.45 
L 248.280971 259.52375 
L 248.280971 260.45 
L 250.154304 259.52375 
L 250.154304 260.45 
L 252.027637 259.52375 
L 252.027637 260.45 
L 253.900971 259.52375 
L 253.900971 260.45 
L 255.774304 259.52375 
L 255.774304 260.45 
L 257.647637 259.52375 
L 257.647637 260.45 
L 259.52097 259.52375 
L 259.52097 260.45 
L 261.394304 259.52375 
L 261.394304 260.45 
L 263.267637 259.52375 
L 263.267637 260.45 
L 265.14097 259.52375 
L 265.14097 260.45 
L 267.014304 259.52375 
L 267.014304 260.45 
L 268.887637 259.52375 
L 268.887637 260.45 
L 270.76097 259.52375 
L 270.76097 260.45 
L 272.634304 259.52375 
L 272.634304 260.45 
L 274.507637 259.52375 
L 274.507637 260.45 
L 276.38097 259.52375 
L 276.38097 260.45 
L 278.254304 259.52375 
L 278.254304 260.45 
L 280.127637 259.52375 
L 280.127637 260.45 
L 282.00097 259.52375 
L 282.00097 260.45 
L 283.874304 259.52375 
L 283.874304 260.45 
L 285.747637 259.52375 
L 285.747637 260.45 
L 287.62097 259.52375 
L 287.62097 260.45 
L 289.494303 259.52375 
L 289.494303 260.45 
L 291.367637 259.52375 
L 291.367637 260.45 
L 293.24097 259.52375 
L 293.24097 260.45 
L 295.114303 259.52375 
L 295.114303 260.45 
L 296.987637 259.52375 
L 296.987637 260.45 
L 298.86097 259.52375 
L 298.86097 260.45 
L 300.734303 259.52375 
L 300.734303 260.45 
L 302.607637 259.52375 
L 302.607637 260.45 
L 304.48097 259.52375 
L 304.48097 260.45 
L 306.354303 259.52375 
L 306.354303 260.45 
L 308.227637 259.52375 
L 308.227637 260.45 
L 310.10097 259.52375 
L 310.10097 260.45 
L 311.974303 259.52375 
L 311.974303 260.45 
L 313.847636 259.52375 
L 313.847636 260.45 
L 315.72097 259.52375 
L 315.72097 260.45 
L 317.594303 259.52375 
L 317.594303 260.45 
L 319.467636 259.52375 
L 319.467636 260.45 
L 321.34097 259.52375 
L 321.34097 260.45 
L 323.214303 259.52375 
L 323.214303 260.45 
L 325.087636 259.52375 
L 325.087636 260.45 
L 326.96097 259.52375 
L 326.96097 260.45 
L 328.834303 259.52375 
L 328.834303 260.45 
L 330.707636 259.52375 
L 330.707636 260.45 
L 332.58097 259.52375 
L 332.58097 260.45 
L 334.454303 259.52375 
L 334.454303 260.45 
L 336.327636 259.52375 
L 336.327636 260.45 
L 338.200969 259.52375 
L 338.200969 260.45 
L 340.074303 259.52375 
L 340.074303 260.45 
L 341.947636 259.52375 
L 341.947636 260.45 
L 343.820969 259.52375 
L 343.820969 260.45 
L 345.694303 259.52375 
L 345.694303 260.45 
L 347.567636 259.52375 
L 347.567636 260.45 
L 349.440969 259.52375 
L 349.440969 260.45 
L 351.314303 259.52375 
L 351.314303 260.45 
L 353.187636 259.52375 
L 353.187636 260.45 
L 355.060969 259.52375 
L 355.060969 260.45 
L 356.934303 259.52375 
L 356.934303 260.45 
L 358.807636 259.52375 
L 358.807636 260.45 
L 360.680969 259.52375 
L 360.680969 260.45 
L 362.554302 259.52375 
L 362.554302 260.45 
L 364.427636 259.52375 
L 364.427636 260.45 
L 366.300969 259.52375 
L 366.300969 260.45 
L 368.174302 259.52375 
L 368.174302 260.45 
L 370.047636 259.52375 
L 370.047636 260.45 
L 371.920969 259.52375 
L 371.920969 260.45 
L 373.794302 259.52375 
L 373.794302 260.45 
L 375.667636 259.52375 
L 375.667636 260.45 
L 377.540969 259.52375 
L 377.540969 260.45 
L 379.414302 259.52375 
L 379.414302 260.45 
L 381.287636 259.52375 
L 381.287636 260.45 
L 383.160969 259.52375 
L 383.160969 260.45 
L 385.034302 259.52375 
L 385.034302 260.45 
L 386.907635 259.52375 
L 386.907635 260.45 
L 388.780969 259.52375 
L 388.780969 260.45 
L 390.654302 259.52375 
L 390.654302 260.45 
L 392.527635 259.52375 
L 392.527635 260.45 
L 394.400969 259.52375 
L 394.400969 260.45 
L 396.274302 259.52375 
L 396.274302 260.45 
L 398.147635 259.52375 
L 398.147635 260.45 
L 400.020969 259.52375 
L 400.020969 260.45 
L 401.894302 259.52375 
L 401.894302 260.45 
L 403.767635 259.52375 
L 403.767635 260.45 
L 405.640969 259.52375 
L 405.640969 260.45 
L 407.514302 259.52375 
L 407.514302 260.45 
L 409.387635 259.52375 
L 409.387635 260.45 
L 411.260969 259.52375 
L 411.260969 260.45 
L 411.260969 260.45 
" clip-path="url(#ped8c8f7a65)" style="fill: none; stroke: #9467bd; stroke-width: 1.5; stroke-linecap: square"/>
   </g>
   <g id="patch_3">
    <path d="M 37.01875 260.45 
L 37.01875 25.8 
" style="fill: none; stroke: #000000; stroke-width: 0.8; stroke-linejoin: miter; stroke-linecap: square"/>
   </g>
   <g id="patch_4">
    <path d="M 415.918145 260.45 
L 415.918145 25.8 
" style="fill: none; stroke: #000000; stroke-width: 0.8; stroke-linejoin: miter; stroke-linecap: square"/>
   </g>
   <g id="patch_5">
    <path d="M 37.01875 260.45 
L 415.918145 260.45 
" style="fill: none; stroke: #000000; stroke-width: 0.8; stroke-linejoin: miter; stroke-linecap: square"/>
   </g>
   <g id="patch_6">
    <path d="M 37.01875 25.8 
L 415.918145 25.8 
" style="fill: none; stroke: #000000; stroke-width: 0.8; stroke-linejoin: miter; stroke-linecap: square"/>
   </g>
   <g id="text_16">
    <!-- Tamaos de buffer -->
    <g transform="translate(170.687197 19.8)scale(0.12 -0.12)">
     <defs>
      <path id="DejaVuSans-54" d="M -19 4666 
L 3928 4666 
L 3928 4134 
L 2272 4134 
L 2272 0 
L 1638 0 
L 1638 4134 
L -19 4134 
L -19 4666 
z
" transform="scale(0.015625)"/>
      <path id="DejaVuSans-61" d="M 2194 1759 
Q 1497 1759 1228 1600 
Q 959 1441 959 1056 
Q 959 750 1161 570 
Q 1363 391 1709 391 
Q 2188 391 2477 730 
Q 2766 1069 2766 1631 
L 2766 1759 
L 2194 1759 
z
M 3341 1997 
L 3341 0 
L 2766 0 
L 2766 531 
Q 2569 213 2275 61 
Q 1981 -91 1556 -91 
Q 1019 -91 701 211 
Q 384 513 384 1019 
Q 384 1609 779 1909 
Q 1175 2209 1959 2209 
L 2766 2209 
L 2766 2266 
Q 2766 2663 2505 2880 
Q 2244 3097 1772 3097 
Q 1472 3097 1187 3025 
Q 903 2953 641 2809 
L 641 3341 
Q 956 3463 1253 3523 
Q 1550 3584 1831 3584 
Q 2591 3584 2966 3190 
Q 3341 2797 3341 1997 
z
" transform="scale(0.015625)"/>
      <path id="DejaVuSans-6d" d="M 3328 2828 
Q 3544 3216 3844 3400 
Q 4144 3584 4550 3584 
Q 5097 3584 5394 3201 
Q 5691 2819 5691 2113 
L 5691 0 
L 5113 0 
L 5113 2094 
Q 5113 2597 4934 2840 
Q 4756 3084 4391 3084 
Q 3944 3084 3684 2787 
Q 3425 2491 3425 1978 
L 3425 0 
L 2847 0 
L 2847 2094 
Q 2847 2600 2669 2842 
Q 2491 3084 2119 3084 
Q 1678 3084 1418 2786 
Q 1159 2488 1159 1978 
L 1159 0 
L 581 0 
L 581 3500 
L 1159 3500 
L 1159 2956 
Q 1356 3278 1631 3431 
Q 1906 3584 2284 3584 
Q 2666 3584 2933 3390 
Q 3200 3197 3328 2828 
z
" transform="scale(0.015625)"/>
      <path id="DejaVuSans-f1" d="M 3513 2113 
L 3513 0 
L 2938 0 
L 2938 2094 
Q 2938 2591 2744 2837 
Q 2550 3084 2163 3084 
Q 1697 3084 1428 2787 
Q 1159 2491 1159 1978 
L 1159 0 
L 581 0 
L 581 3500 
L 1159 3500 
L 1159 2956 
Q 1366 3272 1645 3428 
Q 1925 3584 2291 3584 
Q 2894 3584 3203 3211 
Q 3513 2838 3513 2113 
z
M 2060 4281 
L 1881 4453 
Q 1813 4516 1761 4545 
Q 1710 4575 1669 4575 
Q 1550 4575 1494 4461 
Q 1438 4347 1431 4091 
L 1041 4091 
Q 1047 4513 1206 4742 
Q 1366 4972 1650 4972 
Q 1769 4972 1869 4928 
Q 1969 4884 2085 4781 
L 2263 4609 
Q 2331 4547 2383 4517 
Q 2435 4488 2475 4488 
Q 2594 4488 2650 4602 
Q 2706 4716 2713 4972 
L 3103 4972 
Q 3097 4550 2937 4320 
Q 2778 4091 2494 4091 
Q 2375 4091 2275 4134 
Q 2175 4178 2060 4281 
z
" transform="scale(0.015625)"/>
      <path id="DejaVuSans-6f" d="M 1959 3097 
Q 1497 3097 1228 2736 
Q 959 2375 959 1747 
Q 959 1119 1226 758 
Q 1494 397 1959 397 
Q 2419 397 2687 759 
Q 2956 1122 2956 1747 
Q 2956 2369 2687 2733 
Q 2419 3097 1959 3097 
z
M 1959 3584 
Q 2709 3584 3137 3096 
Q 3566 2609 3566 1747 
Q 3566 888 3137 398 
Q 2709 -91 1959 -91 
Q 1206 -91 779 398 
Q 353 888 353 1747 
Q 353 2609 779 3096 
Q 1206 3584 1959 3584 
z
" transform="scale(0.015625)"/>
      <path id="DejaVuSans-73" d="M 2834 3397 
L 2834 2853 
Q 2591 2978 2328 3040 
Q 2066 3103 1784 3103 
Q 1356 3103 1142 2972 
Q 928 2841 928 2578 
Q 928 2378 1081 2264 
Q 1234 2150 1697 2047 
L 1894 2003 
Q 2506 1872 2764 1633 
Q 3022 1394 3022 966 
Q 3022 478 2636 193 
Q 2250 -91 1575 -91 
Q 1294 -91 989 -36 
Q 684 19 347 128 
L 347 722 
Q 666 556 975 473 
Q 1284 391 1588 391 
Q 1994 391 2212 530 
Q 2431 669 2431 922 
Q 2431 1156 2273 1281 
Q 2116 1406 1581 1522 
L 1381 1569 
Q 847 1681 609 1914 
Q 372 2147 372 2553 
Q 372 3047 722 3315 
Q 1072 3584 1716 3584 
Q 2034 3584 2315 3537 
Q 2597 3491 2834 3397 
z
" transform="scale(0.015625)"/>
      <path id="DejaVuSans-20" transform="scale(0.015625)"/>
      <path id="DejaVuSans-64" d="M 2906 2969 
L 2906 4863 
L 3481 4863 
L 3481 0 
L 2906 0 
L 2906 525 
Q 2725 213 2448 61 
Q 2172 -91 1784 -91 
Q 1150 -91 751 415 
Q 353 922 353 1747 
Q 353 2572 751 3078 
Q 1150 3584 1784 3584 
Q 2172 3584 2448 3432 
Q 2725 3281 2906 2969 
z
M 947 1747 
Q 947 1113 1208 752 
Q 1469 391 1925 391 
Q 2381 391 2643 752 
Q 2906 1113 2906 1747 
Q 2906 2381 2643 2742 
Q 2381 3103 1925 3103 
Q 1469 3103 1208 2742 
Q 947 2381 947 1747 
z
" transform="scale(0.015625)"/>
      <path id="DejaVuSans-65" d="M 3597 1894 
L 3597 1613 
L 953 1613 
Q 991 1019 1311 708 
Q 1631 397 2203 397 
Q 2534 397 2845 478 
Q 3156 559 3463 722 
L 3463 178 
Q 3153 47 2828 -22 
Q 2503 -91 2169 -91 
Q 1331 -91 842 396 
Q 353 884 353 1716 
Q 353 2575 817 3079 
Q 1281 3584 2069 3584 
Q 2775 3584 3186 3129 
Q 3597 2675 3597 1894 
z
M 3022 2063 
Q 3016 2534 2758 2815 
Q 2500 3097 2075 3097 
Q 1594 3097 1305 2825 
Q 1016 2553 972 2059 
L 3022 2063 
z
" transform="scale(0.015625)"/>
      <path id="DejaVuSans-62" d="M 3116 1747 
Q 3116 2381 2855 2742 
Q 2594 3103 2138 3103 
Q 1681 3103 1420 2742 
Q 1159 2381 1159 1747 
Q 1159 1113 1420 752 
Q 1681 391 2138 391 
Q 2594 391 2855 752 
Q 3116 1113 3116 1747 
z
M 1159 2969 
Q 1341 3281 1617 3432 
Q 1894 3584 2278 3584 
Q 2916 3584 3314 3078 
Q 3713 2572 3713 1747 
Q 3713 922 3314 415 
Q 2916 -91 2278 -91 
Q 1894 -91 1617 61 
Q 1341 213 1159 525 
L 1159 0 
L 581 0 
L 581 4863 
L 1159 4863 
L 1159 2969 
z
" transform="scale(0.015625)"/>
      <path id="DejaVuSans-75" d="M 544 1381 
L 544 3500 
L 1119 3500 
L 1119 1403 
Q 1119 906 1312 657 
Q 1506 409 1894 409 
Q 2359 409 2629 706 
Q 2900 1003 2900 1516 
L 2900 3500 
L 3475 3500 
L 3475 0 
L 2900 0 
L 2900 538 
Q 2691 219 2414 64 
Q 2138 -91 1772 -91 
Q 1169 -91 856 284 
Q 544 659 544 1381 
z
M 1991 3584 
L 1991 3584 
z
" transform="scale(0.015625)"/>
      <path id="DejaVuSans-66" d="M 2375 4863 
L 2375 4384 
L 1825 4384 
Q 1516 4384 1395 4259 
Q 1275 4134 1275 3809 
L 1275 3500 
L 2222 3500 
L 2222 3053 
L 1275 3053 
L 1275 0 
L 697 0 
L 697 3053 
L 147 3053 
L 147 3500 
L 697 3500 
L 697 3744 
Q 697 4328 969 4595 
Q 1241 4863 1831 4863 
L 2375 4863 
z
" transform="scale(0.015625)"/>
      <path id="DejaVuSans-72" d="M 2631 2963 
Q 2534 3019 2420 3045 
Q 2306 3072 2169 3072 
Q 1681 3072 1420 2755 
Q 1159 2438 1159 1844 
L 1159 0 
L 581 0 
L 581 3500 
L 1159 3500 
L 1159 2956 
Q 1341 3275 1631 3429 
Q 1922 3584 2338 3584 
Q 2397 3584 2469 3576 
Q 2541 3569 2628 3553 
L 2631 2963 
z
" transform="scale(0.015625)"/>
     </defs>
     <use xlink:href="#DejaVuSans-54"/>
     <use xlink:href="#DejaVuSans-61" x="44.583984"/>
     <use xlink:href="#DejaVuSans-6d" x="105.863281"/>
     <use xlink:href="#DejaVuSans-61" x="203.275391"/>
     <use xlink:href="#DejaVuSans-f1" x="264.554688"/>
     <use xlink:href="#DejaVuSans-6f" x="327.933594"/>
     <use xlink:href="#DejaVuSans-73" x="389.115234"/>
     <use xlink:href="#DejaVuSans-20" x="441.214844"/>
     <use xlink:href="#DejaVuSans-64" x="473.001953"/>
     <use xlink:href="#DejaVuSans-65" x="536.478516"/>
     <use xlink:href="#DejaVuSans-20" x="598.001953"/>
     <use xlink:href="#DejaVuSans-62" x="629.789062"/>
     <use xlink:href="#DejaVuSans-75" x="693.265625"/>
     <use xlink:href="#DejaVuSans-66" x="756.644531"/>
     <use xlink:href="#DejaVuSans-66" x="791.849609"/>
     <use xlink:href="#DejaVuSans-65" x="827.054688"/>
     <use xlink:href="#DejaVuSans-72" x="888.578125"/>
    </g>
   </g>
   <g id="legend_1">
    <g id="patch_7">
     <path d="M 260.613457 107.190625 
L 408.918145 107.190625 
Q 410.918145 107.190625 410.918145 105.190625 
L 410.918145 32.8 
Q 410.918145 30.8 408.918145 30.8 
L 260.613457 30.8 
Q 258.613457 30.8 258.613457 32.8 
L 258.613457 105.190625 
Q 258.613457 107.190625 260.613457 107.190625 
z
" style="fill: #ffffff; opacity: 0.8; stroke: #cccccc; stroke-linejoin: miter"/>
    </g>
    <g id="line2d_36">
     <path d="M 262.613457 38.898437 
L 272.613457 38.898437 
L 282.613457 38.898437 
" style="fill: none; stroke: #1f77b4; stroke-width: 1.5; stroke-linecap: square"/>
    </g>
    <g id="text_17">
     <!-- Network.node[0].lnk[0] -->
     <g transform="translate(290.613457 42.398437)scale(0.1 -0.1)">
      <defs>
       <path id="DejaVuSans-4e" d="M 628 4666 
L 1478 4666 
L 3547 763 
L 3547 4666 
L 4159 4666 
L 4159 0 
L 3309 0 
L 1241 3903 
L 1241 0 
L 628 0 
L 628 4666 
z
" transform="scale(0.015625)"/>
       <path id="DejaVuSans-74" d="M 1172 4494 
L 1172 3500 
L 2356 3500 
L 2356 3053 
L 1172 3053 
L 1172 1153 
Q 1172 725 1289 603 
Q 1406 481 1766 481 
L 2356 481 
L 2356 0 
L 1766 0 
Q 1100 0 847 248 
Q 594 497 594 1153 
L 594 3053 
L 172 3053 
L 172 3500 
L 594 3500 
L 594 4494 
L 1172 4494 
z
" transform="scale(0.015625)"/>
       <path id="DejaVuSans-77" d="M 269 3500 
L 844 3500 
L 1563 769 
L 2278 3500 
L 2956 3500 
L 3675 769 
L 4391 3500 
L 4966 3500 
L 4050 0 
L 3372 0 
L 2619 2869 
L 1863 0 
L 1184 0 
L 269 3500 
z
" transform="scale(0.015625)"/>
       <path id="DejaVuSans-6b" d="M 581 4863 
L 1159 4863 
L 1159 1991 
L 2875 3500 
L 3609 3500 
L 1753 1863 
L 3688 0 
L 2938 0 
L 1159 1709 
L 1159 0 
L 581 0 
L 581 4863 
z
" transform="scale(0.015625)"/>
       <path id="DejaVuSans-2e" d="M 684 794 
L 1344 794 
L 1344 0 
L 684 0 
L 684 794 
z
" transform="scale(0.015625)"/>
       <path id="DejaVuSans-6e" d="M 3513 2113 
L 3513 0 
L 2938 0 
L 2938 2094 
Q 2938 2591 2744 2837 
Q 2550 3084 2163 3084 
Q 1697 3084 1428 2787 
Q 1159 2491 1159 1978 
L 1159 0 
L 581 0 
L 581 3500 
L 1159 3500 
L 1159 2956 
Q 1366 3272 1645 3428 
Q 1925 3584 2291 3584 
Q 2894 3584 3203 3211 
Q 3513 2838 3513 2113 
z
" transform="scale(0.015625)"/>
       <path id="DejaVuSans-5b" d="M 550 4863 
L 1875 4863 
L 1875 4416 
L 1125 4416 
L 1125 -397 
L 1875 -397 
L 1875 -844 
L 550 -844 
L 550 4863 
z
" transform="scale(0.015625)"/>
       <path id="DejaVuSans-5d" d="M 1947 4863 
L 1947 -844 
L 622 -844 
L 622 -397 
L 1369 -397 
L 1369 4416 
L 622 4416 
L 622 4863 
L 1947 4863 
z
" transform="scale(0.015625)"/>
       <path id="DejaVuSans-6c" d="M 603 4863 
L 1178 4863 
L 1178 0 
L 603 0 
L 603 4863 
z
" transform="scale(0.015625)"/>
      </defs>
      <use xlink:href="#DejaVuSans-4e"/>
      <use xlink:href="#DejaVuSans-65" x="74.804688"/>
      <use xlink:href="#DejaVuSans-74" x="136.328125"/>
      <use xlink:href="#DejaVuSans-77" x="175.537109"/>
      <use xlink:href="#DejaVuSans-6f" x="257.324219"/>
      <use xlink:href="#DejaVuSans-72" x="318.505859"/>
      <use xlink:href="#DejaVuSans-6b" x="359.619141"/>
      <use xlink:href="#DejaVuSans-2e" x="417.529297"/>
      <use xlink:href="#DejaVuSans-6e" x="449.316406"/>
      <use xlink:href="#DejaVuSans-6f" x="512.695312"/>
      <use xlink:href="#DejaVuSans-64" x="573.876953"/>
      <use xlink:href="#DejaVuSans-65" x="637.353516"/>
      <use xlink:href="#DejaVuSans-5b" x="698.876953"/>
      <use xlink:href="#DejaVuSans-30" x="737.890625"/>
      <use xlink:href="#DejaVuSans-5d" x="801.513672"/>
      <use xlink:href="#DejaVuSans-2e" x="840.527344"/>
      <use xlink:href="#DejaVuSans-6c" x="872.314453"/>
      <use xlink:href="#DejaVuSans-6e" x="900.097656"/>
      <use xlink:href="#DejaVuSans-6b" x="963.476562"/>
      <use xlink:href="#DejaVuSans-5b" x="1021.386719"/>
      <use xlink:href="#DejaVuSans-30" x="1060.400391"/>
      <use xlink:href="#DejaVuSans-5d" x="1124.023438"/>
     </g>
    </g>
    <g id="line2d_37">
     <path d="M 262.613457 53.576562 
L 272.613457 53.576562 
L 282.613457 53.576562 
" style="fill: none; stroke: #ff7f0e; stroke-width: 1.5; stroke-linecap: square"/>
    </g>
    <g id="text_18">
     <!-- Network.node[1].lnk[0] -->
     <g transform="translate(290.613457 57.076562)scale(0.1 -0.1)">
      <use xlink:href="#DejaVuSans-4e"/>
      <use xlink:href="#DejaVuSans-65" x="74.804688"/>
      <use xlink:href="#DejaVuSans-74" x="136.328125"/>
      <use xlink:href="#DejaVuSans-77" x="175.537109"/>
      <use xlink:href="#DejaVuSans-6f" x="257.324219"/>
      <use xlink:href="#DejaVuSans-72" x="318.505859"/>
      <use xlink:href="#DejaVuSans-6b" x="359.619141"/>
      <use xlink:href="#DejaVuSans-2e" x="417.529297"/>
      <use xlink:href="#DejaVuSans-6e" x="449.316406"/>
      <use xlink:href="#DejaVuSans-6f" x="512.695312"/>
      <use xlink:href="#DejaVuSans-64" x="573.876953"/>
      <use xlink:href="#DejaVuSans-65" x="637.353516"/>
      <use xlink:href="#DejaVuSans-5b" x="698.876953"/>
      <use xlink:href="#DejaVuSans-31" x="737.890625"/>
      <use xlink:href="#DejaVuSans-5d" x="801.513672"/>
      <use xlink:href="#DejaVuSans-2e" x="840.527344"/>
      <use xlink:href="#DejaVuSans-6c" x="872.314453"/>
      <use xlink:href="#DejaVuSans-6e" x="900.097656"/>
      <use xlink:href="#DejaVuSans-6b" x="963.476562"/>
      <use xlink:href="#DejaVuSans-5b" x="1021.386719"/>
      <use xlink:href="#DejaVuSans-30" x="1060.400391"/>
      <use xlink:href="#DejaVuSans-5d" x="1124.023438"/>
     </g>
    </g>
    <g id="line2d_38">
     <path d="M 262.613457 68.254687 
L 272.613457 68.254687 
L 282.613457 68.254687 
" style="fill: none; stroke: #2ca02c; stroke-width: 1.5; stroke-linecap: square"/>
    </g>
    <g id="text_19">
     <!-- Network.node[2].lnk[0] -->
     <g transform="translate(290.613457 71.754687)scale(0.1 -0.1)">
      <use xlink:href="#DejaVuSans-4e"/>
      <use xlink:href="#DejaVuSans-65" x="74.804688"/>
      <use xlink:href="#DejaVuSans-74" x="136.328125"/>
      <use xlink:href="#DejaVuSans-77" x="175.537109"/>
      <use xlink:href="#DejaVuSans-6f" x="257.324219"/>
      <use xlink:href="#DejaVuSans-72" x="318.505859"/>
      <use xlink:href="#DejaVuSans-6b" x="359.619141"/>
      <use xlink:href="#DejaVuSans-2e" x="417.529297"/>
      <use xlink:href="#DejaVuSans-6e" x="449.316406"/>
      <use xlink:href="#DejaVuSans-6f" x="512.695312"/>
      <use xlink:href="#DejaVuSans-64" x="573.876953"/>
      <use xlink:href="#DejaVuSans-65" x="637.353516"/>
      <use xlink:href="#DejaVuSans-5b" x="698.876953"/>
      <use xlink:href="#DejaVuSans-32" x="737.890625"/>
      <use xlink:href="#DejaVuSans-5d" x="801.513672"/>
      <use xlink:href="#DejaVuSans-2e" x="840.527344"/>
      <use xlink:href="#DejaVuSans-6c" x="872.314453"/>
      <use xlink:href="#DejaVuSans-6e" x="900.097656"/>
      <use xlink:href="#DejaVuSans-6b" x="963.476562"/>
      <use xlink:href="#DejaVuSans-5b" x="1021.386719"/>
      <use xlink:href="#DejaVuSans-30" x="1060.400391"/>
      <use xlink:href="#DejaVuSans-5d" x="1124.023438"/>
     </g>
    </g>
    <g id="line2d_39">
     <path d="M 262.613457 82.932812 
L 272.613457 82.932812 
L 282.613457 82.932812 
" style="fill: none; stroke: #d62728; stroke-width: 1.5; stroke-linecap: square"/>
    </g>
    <g id="text_20">
     <!-- Network.node[6].lnk[0] -->
     <g transform="translate(290.613457 86.432812)scale(0.1 -0.1)">
      <defs>
       <path id="DejaVuSans-36" d="M 2113 2584 
Q 1688 2584 1439 2293 
Q 1191 2003 1191 1497 
Q 1191 994 1439 701 
Q 1688 409 2113 409 
Q 2538 409 2786 701 
Q 3034 994 3034 1497 
Q 3034 2003 2786 2293 
Q 2538 2584 2113 2584 
z
M 3366 4563 
L 3366 3988 
Q 3128 4100 2886 4159 
Q 2644 4219 2406 4219 
Q 1781 4219 1451 3797 
Q 1122 3375 1075 2522 
Q 1259 2794 1537 2939 
Q 1816 3084 2150 3084 
Q 2853 3084 3261 2657 
Q 3669 2231 3669 1497 
Q 3669 778 3244 343 
Q 2819 -91 2113 -91 
Q 1303 -91 875 529 
Q 447 1150 447 2328 
Q 447 3434 972 4092 
Q 1497 4750 2381 4750 
Q 2619 4750 2861 4703 
Q 3103 4656 3366 4563 
z
" transform="scale(0.015625)"/>
      </defs>
      <use xlink:href="#DejaVuSans-4e"/>
      <use xlink:href="#DejaVuSans-65" x="74.804688"/>
      <use xlink:href="#DejaVuSans-74" x="136.328125"/>
      <use xlink:href="#DejaVuSans-77" x="175.537109"/>
      <use xlink:href="#DejaVuSans-6f" x="257.324219"/>
      <use xlink:href="#DejaVuSans-72" x="318.505859"/>
      <use xlink:href="#DejaVuSans-6b" x="359.619141"/>
      <use xlink:href="#DejaVuSans-2e" x="417.529297"/>
      <use xlink:href="#DejaVuSans-6e" x="449.316406"/>
      <use xlink:href="#DejaVuSans-6f" x="512.695312"/>
      <use xlink:href="#DejaVuSans-64" x="573.876953"/>
      <use xlink:href="#DejaVuSans-65" x="637.353516"/>
      <use xlink:href="#DejaVuSans-5b" x="698.876953"/>
      <use xlink:href="#DejaVuSans-36" x="737.890625"/>
      <use xlink:href="#DejaVuSans-5d" x="801.513672"/>
      <use xlink:href="#DejaVuSans-2e" x="840.527344"/>
      <use xlink:href="#DejaVuSans-6c" x="872.314453"/>
      <use xlink:href="#DejaVuSans-6e" x="900.097656"/>
      <use xlink:href="#DejaVuSans-6b" x="963.476562"/>
      <use xlink:href="#DejaVuSans-5b" x="1021.386719"/>
      <use xlink:href="#DejaVuSans-30" x="1060.400391"/>
      <use xlink:href="#DejaVuSans-5d" x="1124.023438"/>
     </g>
    </g>
    <g id="line2d_40">
     <path d="M 262.613457 97.610937 
L 272.613457 97.610937 
L 282.613457 97.610937 
" style="fill: none; stroke: #9467bd; stroke-width: 1.5; stroke-linecap: square"/>
    </g>
    <g id="text_21">
     <!-- Network.node[7].lnk[0] -->
     <g transform="translate(290.613457 101.110937)scale(0.1 -0.1)">
      <use xlink:href="#DejaVuSans-4e"/>
      <use xlink:href="#DejaVuSans-65" x="74.804688"/>
      <use xlink:href="#DejaVuSans-74" x="136.328125"/>
      <use xlink:href="#DejaVuSans-77" x="175.537109"/>
      <use xlink:href="#DejaVuSans-6f" x="257.324219"/>
      <use xlink:href="#DejaVuSans-72" x="318.505859"/>
      <use xlink:href="#DejaVuSans-6b" x="359.619141"/>
      <use xlink:href="#DejaVuSans-2e" x="417.529297"/>
      <use xlink:href="#DejaVuSans-6e" x="449.316406"/>
      <use xlink:href="#DejaVuSans-6f" x="512.695312"/>
      <use xlink:href="#DejaVuSans-64" x="573.876953"/>
      <use xlink:href="#DejaVuSans-65" x="637.353516"/>
      <use xlink:href="#DejaVuSans-5b" x="698.876953"/>
      <use xlink:href="#DejaVuSans-37" x="737.890625"/>
      <use xlink:href="#DejaVuSans-5d" x="801.513672"/>
      <use xlink:href="#DejaVuSans-2e" x="840.527344"/>
      <use xlink:href="#DejaVuSans-6c" x="872.314453"/>
      <use xlink:href="#DejaVuSans-6e" x="900.097656"/>
      <use xlink:href="#DejaVuSans-6b" x="963.476562"/>
      <use xlink:href="#DejaVuSans-5b" x="1021.386719"/>
      <use xlink:href="#DejaVuSans-30" x="1060.400391"/>
      <use xlink:href="#DejaVuSans-5d" x="1124.023438"/>
     </g>
    </g>
   </g>
  </g>
 </g>
 <defs>
  <clipPath id="ped8c8f7a65">
   <rect x="37.01875" y="25.8" width="378.899395" height="234.65"/>
  </clipPath>
 </defs>
</svg>
