<?xml version="1.0" encoding="utf-8" standalone="no"?>
<!DOCTYPE svg PUBLIC "-//W3C//DTD SVG 1.1//EN"
  "http://www.w3.org/Graphics/SVG/1.1/DTD/svg11.dtd">
<svg xmlns:xlink="http://www.w3.org/1999/xlink" width="432pt" height="288pt" viewBox="0 0 432 288" xmlns="http://www.w3.org/2000/svg" version="1.1">
 <metadata>
  <rdf:RDF xmlns:dc="http://purl.org/dc/elements/1.1/" xmlns:cc="http://creativecommons.org/ns#" xmlns:rdf="http://www.w3.org/1999/02/22-rdf-syntax-ns#">
   <cc:Work>
    <dc:type rdf:resource="http://purl.org/dc/dcmitype/StillImage"/>
    <dc:date>2022-06-17T12:02:46.771378</dc:date>
    <dc:format>image/svg+xml</dc:format>
    <dc:creator>
     <cc:Agent>
      <dc:title>omnetpp.scave 6.0.0; Matplotlib 3.5.1 w/ backend GTK3Agg; Pandas 1.4.2; Python 3.8.10; Linux-5.4.0-109-generic-x86_64-with-glibc2.29</dc:title>
     </cc:Agent>
    </dc:creator>
   </cc:Work>
  </rdf:RDF>
 </metadata>
 <defs>
  <style type="text/css">*{stroke-linejoin: round; stroke-linecap: butt}</style>
 </defs>
 <g id="figure_1">
  <g id="patch_1">
   <path d="M 0 288 
L 432 288 
L 432 0 
L 0 0 
z
" style="fill: #ffffff"/>
  </g>
  <g id="axes_1">
   <g id="patch_2">
    <path d="M 50.76875 246.7 
L 415.770686 246.7 
L 415.770686 25.8 
L 50.76875 25.8 
z
" style="fill: #ffffff"/>
   </g>
   <g id="matplotlib.axis_1">
    <g id="xtick_1">
     <g id="line2d_1">
      <path d="M 50.76875 246.7 
L 50.76875 25.8 
" clip-path="url(#p4e4c55d5a2)" style="fill: none; stroke: #b0b0b0; stroke-width: 0.8; stroke-linecap: square"/>
     </g>
     <g id="line2d_2">
      <defs>
       <path id="m4eb5ab81e8" d="M 0 0 
L 0 3.5 
" style="stroke: #000000; stroke-width: 0.8"/>
      </defs>
      <g>
       <use xlink:href="#m4eb5ab81e8" x="50.76875" y="246.7" style="stroke: #000000; stroke-width: 0.8"/>
      </g>
     </g>
     <g id="text_1">
      <!-- 0 -->
      <g transform="translate(47.5875 261.298437)scale(0.1 -0.1)">
       <defs>
        <path id="DejaVuSans-30" d="M 2034 4250 
Q 1547 4250 1301 3770 
Q 1056 3291 1056 2328 
Q 1056 1369 1301 889 
Q 1547 409 2034 409 
Q 2525 409 2770 889 
Q 3016 1369 3016 2328 
Q 3016 3291 2770 3770 
Q 2525 4250 2034 4250 
z
M 2034 4750 
Q 2819 4750 3233 4129 
Q 3647 3509 3647 2328 
Q 3647 1150 3233 529 
Q 2819 -91 2034 -91 
Q 1250 -91 836 529 
Q 422 1150 422 2328 
Q 422 3509 836 4129 
Q 1250 4750 2034 4750 
z
" transform="scale(0.015625)"/>
       </defs>
       <use xlink:href="#DejaVuSans-30"/>
      </g>
     </g>
    </g>
    <g id="xtick_2">
     <g id="line2d_3">
      <path d="M 95.884307 246.7 
L 95.884307 25.8 
" clip-path="url(#p4e4c55d5a2)" style="fill: none; stroke: #b0b0b0; stroke-width: 0.8; stroke-linecap: square"/>
     </g>
     <g id="line2d_4">
      <g>
       <use xlink:href="#m4eb5ab81e8" x="95.884307" y="246.7" style="stroke: #000000; stroke-width: 0.8"/>
      </g>
     </g>
     <g id="text_2">
      <!-- 25 -->
      <g transform="translate(89.521807 261.298437)scale(0.1 -0.1)">
       <defs>
        <path id="DejaVuSans-32" d="M 1228 531 
L 3431 531 
L 3431 0 
L 469 0 
L 469 531 
Q 828 903 1448 1529 
Q 2069 2156 2228 2338 
Q 2531 2678 2651 2914 
Q 2772 3150 2772 3378 
Q 2772 3750 2511 3984 
Q 2250 4219 1831 4219 
Q 1534 4219 1204 4116 
Q 875 4013 500 3803 
L 500 4441 
Q 881 4594 1212 4672 
Q 1544 4750 1819 4750 
Q 2544 4750 2975 4387 
Q 3406 4025 3406 3419 
Q 3406 3131 3298 2873 
Q 3191 2616 2906 2266 
Q 2828 2175 2409 1742 
Q 1991 1309 1228 531 
z
" transform="scale(0.015625)"/>
        <path id="DejaVuSans-35" d="M 691 4666 
L 3169 4666 
L 3169 4134 
L 1269 4134 
L 1269 2991 
Q 1406 3038 1543 3061 
Q 1681 3084 1819 3084 
Q 2600 3084 3056 2656 
Q 3513 2228 3513 1497 
Q 3513 744 3044 326 
Q 2575 -91 1722 -91 
Q 1428 -91 1123 -41 
Q 819 9 494 109 
L 494 744 
Q 775 591 1075 516 
Q 1375 441 1709 441 
Q 2250 441 2565 725 
Q 2881 1009 2881 1497 
Q 2881 1984 2565 2268 
Q 2250 2553 1709 2553 
Q 1456 2553 1204 2497 
Q 953 2441 691 2322 
L 691 4666 
z
" transform="scale(0.015625)"/>
       </defs>
       <use xlink:href="#DejaVuSans-32"/>
       <use xlink:href="#DejaVuSans-35" x="63.623047"/>
      </g>
     </g>
    </g>
    <g id="xtick_3">
     <g id="line2d_5">
      <path d="M 140.999863 246.7 
L 140.999863 25.8 
" clip-path="url(#p4e4c55d5a2)" style="fill: none; stroke: #b0b0b0; stroke-width: 0.8; stroke-linecap: square"/>
     </g>
     <g id="line2d_6">
      <g>
       <use xlink:href="#m4eb5ab81e8" x="140.999863" y="246.7" style="stroke: #000000; stroke-width: 0.8"/>
      </g>
     </g>
     <g id="text_3">
      <!-- 50 -->
      <g transform="translate(134.637363 261.298437)scale(0.1 -0.1)">
       <use xlink:href="#DejaVuSans-35"/>
       <use xlink:href="#DejaVuSans-30" x="63.623047"/>
      </g>
     </g>
    </g>
    <g id="xtick_4">
     <g id="line2d_7">
      <path d="M 186.11542 246.7 
L 186.11542 25.8 
" clip-path="url(#p4e4c55d5a2)" style="fill: none; stroke: #b0b0b0; stroke-width: 0.8; stroke-linecap: square"/>
     </g>
     <g id="line2d_8">
      <g>
       <use xlink:href="#m4eb5ab81e8" x="186.11542" y="246.7" style="stroke: #000000; stroke-width: 0.8"/>
      </g>
     </g>
     <g id="text_4">
      <!-- 75 -->
      <g transform="translate(179.75292 261.298437)scale(0.1 -0.1)">
       <defs>
        <path id="DejaVuSans-37" d="M 525 4666 
L 3525 4666 
L 3525 4397 
L 1831 0 
L 1172 0 
L 2766 4134 
L 525 4134 
L 525 4666 
z
" transform="scale(0.015625)"/>
       </defs>
       <use xlink:href="#DejaVuSans-37"/>
       <use xlink:href="#DejaVuSans-35" x="63.623047"/>
      </g>
     </g>
    </g>
    <g id="xtick_5">
     <g id="line2d_9">
      <path d="M 231.230977 246.7 
L 231.230977 25.8 
" clip-path="url(#p4e4c55d5a2)" style="fill: none; stroke: #b0b0b0; stroke-width: 0.8; stroke-linecap: square"/>
     </g>
     <g id="line2d_10">
      <g>
       <use xlink:href="#m4eb5ab81e8" x="231.230977" y="246.7" style="stroke: #000000; stroke-width: 0.8"/>
      </g>
     </g>
     <g id="text_5">
      <!-- 100 -->
      <g transform="translate(221.687227 261.298437)scale(0.1 -0.1)">
       <defs>
        <path id="DejaVuSans-31" d="M 794 531 
L 1825 531 
L 1825 4091 
L 703 3866 
L 703 4441 
L 1819 4666 
L 2450 4666 
L 2450 531 
L 3481 531 
L 3481 0 
L 794 0 
L 794 531 
z
" transform="scale(0.015625)"/>
       </defs>
       <use xlink:href="#DejaVuSans-31"/>
       <use xlink:href="#DejaVuSans-30" x="63.623047"/>
       <use xlink:href="#DejaVuSans-30" x="127.246094"/>
      </g>
     </g>
    </g>
    <g id="xtick_6">
     <g id="line2d_11">
      <path d="M 276.346533 246.7 
L 276.346533 25.8 
" clip-path="url(#p4e4c55d5a2)" style="fill: none; stroke: #b0b0b0; stroke-width: 0.8; stroke-linecap: square"/>
     </g>
     <g id="line2d_12">
      <g>
       <use xlink:href="#m4eb5ab81e8" x="276.346533" y="246.7" style="stroke: #000000; stroke-width: 0.8"/>
      </g>
     </g>
     <g id="text_6">
      <!-- 125 -->
      <g transform="translate(266.802783 261.298437)scale(0.1 -0.1)">
       <use xlink:href="#DejaVuSans-31"/>
       <use xlink:href="#DejaVuSans-32" x="63.623047"/>
       <use xlink:href="#DejaVuSans-35" x="127.246094"/>
      </g>
     </g>
    </g>
    <g id="xtick_7">
     <g id="line2d_13">
      <path d="M 321.46209 246.7 
L 321.46209 25.8 
" clip-path="url(#p4e4c55d5a2)" style="fill: none; stroke: #b0b0b0; stroke-width: 0.8; stroke-linecap: square"/>
     </g>
     <g id="line2d_14">
      <g>
       <use xlink:href="#m4eb5ab81e8" x="321.46209" y="246.7" style="stroke: #000000; stroke-width: 0.8"/>
      </g>
     </g>
     <g id="text_7">
      <!-- 150 -->
      <g transform="translate(311.91834 261.298437)scale(0.1 -0.1)">
       <use xlink:href="#DejaVuSans-31"/>
       <use xlink:href="#DejaVuSans-35" x="63.623047"/>
       <use xlink:href="#DejaVuSans-30" x="127.246094"/>
      </g>
     </g>
    </g>
    <g id="xtick_8">
     <g id="line2d_15">
      <path d="M 366.577647 246.7 
L 366.577647 25.8 
" clip-path="url(#p4e4c55d5a2)" style="fill: none; stroke: #b0b0b0; stroke-width: 0.8; stroke-linecap: square"/>
     </g>
     <g id="line2d_16">
      <g>
       <use xlink:href="#m4eb5ab81e8" x="366.577647" y="246.7" style="stroke: #000000; stroke-width: 0.8"/>
      </g>
     </g>
     <g id="text_8">
      <!-- 175 -->
      <g transform="translate(357.033897 261.298437)scale(0.1 -0.1)">
       <use xlink:href="#DejaVuSans-31"/>
       <use xlink:href="#DejaVuSans-37" x="63.623047"/>
       <use xlink:href="#DejaVuSans-35" x="127.246094"/>
      </g>
     </g>
    </g>
    <g id="xtick_9">
     <g id="line2d_17">
      <path d="M 411.693203 246.7 
L 411.693203 25.8 
" clip-path="url(#p4e4c55d5a2)" style="fill: none; stroke: #b0b0b0; stroke-width: 0.8; stroke-linecap: square"/>
     </g>
     <g id="line2d_18">
      <g>
       <use xlink:href="#m4eb5ab81e8" x="411.693203" y="246.7" style="stroke: #000000; stroke-width: 0.8"/>
      </g>
     </g>
     <g id="text_9">
      <!-- 200 -->
      <g transform="translate(402.149453 261.298437)scale(0.1 -0.1)">
       <use xlink:href="#DejaVuSans-32"/>
       <use xlink:href="#DejaVuSans-30" x="63.623047"/>
       <use xlink:href="#DejaVuSans-30" x="127.246094"/>
      </g>
     </g>
    </g>
    <g id="text_10">
     <!-- Tiempo -->
     <g transform="translate(214.80253 274.976562)scale(0.1 -0.1)">
      <defs>
       <path id="DejaVuSans-54" d="M -19 4666 
L 3928 4666 
L 3928 4134 
L 2272 4134 
L 2272 0 
L 1638 0 
L 1638 4134 
L -19 4134 
L -19 4666 
z
" transform="scale(0.015625)"/>
       <path id="DejaVuSans-69" d="M 603 3500 
L 1178 3500 
L 1178 0 
L 603 0 
L 603 3500 
z
M 603 4863 
L 1178 4863 
L 1178 4134 
L 603 4134 
L 603 4863 
z
" transform="scale(0.015625)"/>
       <path id="DejaVuSans-65" d="M 3597 1894 
L 3597 1613 
L 953 1613 
Q 991 1019 1311 708 
Q 1631 397 2203 397 
Q 2534 397 2845 478 
Q 3156 559 3463 722 
L 3463 178 
Q 3153 47 2828 -22 
Q 2503 -91 2169 -91 
Q 1331 -91 842 396 
Q 353 884 353 1716 
Q 353 2575 817 3079 
Q 1281 3584 2069 3584 
Q 2775 3584 3186 3129 
Q 3597 2675 3597 1894 
z
M 3022 2063 
Q 3016 2534 2758 2815 
Q 2500 3097 2075 3097 
Q 1594 3097 1305 2825 
Q 1016 2553 972 2059 
L 3022 2063 
z
" transform="scale(0.015625)"/>
       <path id="DejaVuSans-6d" d="M 3328 2828 
Q 3544 3216 3844 3400 
Q 4144 3584 4550 3584 
Q 5097 3584 5394 3201 
Q 5691 2819 5691 2113 
L 5691 0 
L 5113 0 
L 5113 2094 
Q 5113 2597 4934 2840 
Q 4756 3084 4391 3084 
Q 3944 3084 3684 2787 
Q 3425 2491 3425 1978 
L 3425 0 
L 2847 0 
L 2847 2094 
Q 2847 2600 2669 2842 
Q 2491 3084 2119 3084 
Q 1678 3084 1418 2786 
Q 1159 2488 1159 1978 
L 1159 0 
L 581 0 
L 581 3500 
L 1159 3500 
L 1159 2956 
Q 1356 3278 1631 3431 
Q 1906 3584 2284 3584 
Q 2666 3584 2933 3390 
Q 3200 3197 3328 2828 
z
" transform="scale(0.015625)"/>
       <path id="DejaVuSans-70" d="M 1159 525 
L 1159 -1331 
L 581 -1331 
L 581 3500 
L 1159 3500 
L 1159 2969 
Q 1341 3281 1617 3432 
Q 1894 3584 2278 3584 
Q 2916 3584 3314 3078 
Q 3713 2572 3713 1747 
Q 3713 922 3314 415 
Q 2916 -91 2278 -91 
Q 1894 -91 1617 61 
Q 1341 213 1159 525 
z
M 3116 1747 
Q 3116 2381 2855 2742 
Q 2594 3103 2138 3103 
Q 1681 3103 1420 2742 
Q 1159 2381 1159 1747 
Q 1159 1113 1420 752 
Q 1681 391 2138 391 
Q 2594 391 2855 752 
Q 3116 1113 3116 1747 
z
" transform="scale(0.015625)"/>
       <path id="DejaVuSans-6f" d="M 1959 3097 
Q 1497 3097 1228 2736 
Q 959 2375 959 1747 
Q 959 1119 1226 758 
Q 1494 397 1959 397 
Q 2419 397 2687 759 
Q 2956 1122 2956 1747 
Q 2956 2369 2687 2733 
Q 2419 3097 1959 3097 
z
M 1959 3584 
Q 2709 3584 3137 3096 
Q 3566 2609 3566 1747 
Q 3566 888 3137 398 
Q 2709 -91 1959 -91 
Q 1206 -91 779 398 
Q 353 888 353 1747 
Q 353 2609 779 3096 
Q 1206 3584 1959 3584 
z
" transform="scale(0.015625)"/>
      </defs>
      <use xlink:href="#DejaVuSans-54"/>
      <use xlink:href="#DejaVuSans-69" x="57.958984"/>
      <use xlink:href="#DejaVuSans-65" x="85.742188"/>
      <use xlink:href="#DejaVuSans-6d" x="147.265625"/>
      <use xlink:href="#DejaVuSans-70" x="244.677734"/>
      <use xlink:href="#DejaVuSans-6f" x="308.154297"/>
     </g>
    </g>
   </g>
   <g id="matplotlib.axis_2">
    <g id="ytick_1">
     <g id="line2d_19">
      <path d="M 50.76875 246.7 
L 415.770686 246.7 
" clip-path="url(#p4e4c55d5a2)" style="fill: none; stroke: #b0b0b0; stroke-width: 0.8; stroke-linecap: square"/>
     </g>
     <g id="line2d_20">
      <defs>
       <path id="m22934e4f83" d="M 0 0 
L -3.5 0 
" style="stroke: #000000; stroke-width: 0.8"/>
      </defs>
      <g>
       <use xlink:href="#m22934e4f83" x="50.76875" y="246.7" style="stroke: #000000; stroke-width: 0.8"/>
      </g>
     </g>
     <g id="text_11">
      <!-- 0 -->
      <g transform="translate(37.40625 250.499219)scale(0.1 -0.1)">
       <use xlink:href="#DejaVuSans-30"/>
      </g>
     </g>
    </g>
    <g id="ytick_2">
     <g id="line2d_21">
      <path d="M 50.76875 203.101316 
L 415.770686 203.101316 
" clip-path="url(#p4e4c55d5a2)" style="fill: none; stroke: #b0b0b0; stroke-width: 0.8; stroke-linecap: square"/>
     </g>
     <g id="line2d_22">
      <g>
       <use xlink:href="#m22934e4f83" x="50.76875" y="203.101316" style="stroke: #000000; stroke-width: 0.8"/>
      </g>
     </g>
     <g id="text_12">
      <!-- 50 -->
      <g transform="translate(31.04375 206.900535)scale(0.1 -0.1)">
       <use xlink:href="#DejaVuSans-35"/>
       <use xlink:href="#DejaVuSans-30" x="63.623047"/>
      </g>
     </g>
    </g>
    <g id="ytick_3">
     <g id="line2d_23">
      <path d="M 50.76875 159.502632 
L 415.770686 159.502632 
" clip-path="url(#p4e4c55d5a2)" style="fill: none; stroke: #b0b0b0; stroke-width: 0.8; stroke-linecap: square"/>
     </g>
     <g id="line2d_24">
      <g>
       <use xlink:href="#m22934e4f83" x="50.76875" y="159.502632" style="stroke: #000000; stroke-width: 0.8"/>
      </g>
     </g>
     <g id="text_13">
      <!-- 100 -->
      <g transform="translate(24.68125 163.30185)scale(0.1 -0.1)">
       <use xlink:href="#DejaVuSans-31"/>
       <use xlink:href="#DejaVuSans-30" x="63.623047"/>
       <use xlink:href="#DejaVuSans-30" x="127.246094"/>
      </g>
     </g>
    </g>
    <g id="ytick_4">
     <g id="line2d_25">
      <path d="M 50.76875 115.903947 
L 415.770686 115.903947 
" clip-path="url(#p4e4c55d5a2)" style="fill: none; stroke: #b0b0b0; stroke-width: 0.8; stroke-linecap: square"/>
     </g>
     <g id="line2d_26">
      <g>
       <use xlink:href="#m22934e4f83" x="50.76875" y="115.903947" style="stroke: #000000; stroke-width: 0.8"/>
      </g>
     </g>
     <g id="text_14">
      <!-- 150 -->
      <g transform="translate(24.68125 119.703166)scale(0.1 -0.1)">
       <use xlink:href="#DejaVuSans-31"/>
       <use xlink:href="#DejaVuSans-35" x="63.623047"/>
       <use xlink:href="#DejaVuSans-30" x="127.246094"/>
      </g>
     </g>
    </g>
    <g id="ytick_5">
     <g id="line2d_27">
      <path d="M 50.76875 72.305263 
L 415.770686 72.305263 
" clip-path="url(#p4e4c55d5a2)" style="fill: none; stroke: #b0b0b0; stroke-width: 0.8; stroke-linecap: square"/>
     </g>
     <g id="line2d_28">
      <g>
       <use xlink:href="#m22934e4f83" x="50.76875" y="72.305263" style="stroke: #000000; stroke-width: 0.8"/>
      </g>
     </g>
     <g id="text_15">
      <!-- 200 -->
      <g transform="translate(24.68125 76.104482)scale(0.1 -0.1)">
       <use xlink:href="#DejaVuSans-32"/>
       <use xlink:href="#DejaVuSans-30" x="63.623047"/>
       <use xlink:href="#DejaVuSans-30" x="127.246094"/>
      </g>
     </g>
    </g>
    <g id="ytick_6">
     <g id="line2d_29">
      <path d="M 50.76875 28.706579 
L 415.770686 28.706579 
" clip-path="url(#p4e4c55d5a2)" style="fill: none; stroke: #b0b0b0; stroke-width: 0.8; stroke-linecap: square"/>
     </g>
     <g id="line2d_30">
      <g>
       <use xlink:href="#m22934e4f83" x="50.76875" y="28.706579" style="stroke: #000000; stroke-width: 0.8"/>
      </g>
     </g>
     <g id="text_16">
      <!-- 250 -->
      <g transform="translate(24.68125 32.505798)scale(0.1 -0.1)">
       <use xlink:href="#DejaVuSans-32"/>
       <use xlink:href="#DejaVuSans-35" x="63.623047"/>
       <use xlink:href="#DejaVuSans-30" x="127.246094"/>
      </g>
     </g>
    </g>
    <g id="text_17">
     <!-- Paquetes -->
     <g transform="translate(18.601562 159.164844)rotate(-90)scale(0.1 -0.1)">
      <defs>
       <path id="DejaVuSans-50" d="M 1259 4147 
L 1259 2394 
L 2053 2394 
Q 2494 2394 2734 2622 
Q 2975 2850 2975 3272 
Q 2975 3691 2734 3919 
Q 2494 4147 2053 4147 
L 1259 4147 
z
M 628 4666 
L 2053 4666 
Q 2838 4666 3239 4311 
Q 3641 3956 3641 3272 
Q 3641 2581 3239 2228 
Q 2838 1875 2053 1875 
L 1259 1875 
L 1259 0 
L 628 0 
L 628 4666 
z
" transform="scale(0.015625)"/>
       <path id="DejaVuSans-61" d="M 2194 1759 
Q 1497 1759 1228 1600 
Q 959 1441 959 1056 
Q 959 750 1161 570 
Q 1363 391 1709 391 
Q 2188 391 2477 730 
Q 2766 1069 2766 1631 
L 2766 1759 
L 2194 1759 
z
M 3341 1997 
L 3341 0 
L 2766 0 
L 2766 531 
Q 2569 213 2275 61 
Q 1981 -91 1556 -91 
Q 1019 -91 701 211 
Q 384 513 384 1019 
Q 384 1609 779 1909 
Q 1175 2209 1959 2209 
L 2766 2209 
L 2766 2266 
Q 2766 2663 2505 2880 
Q 2244 3097 1772 3097 
Q 1472 3097 1187 3025 
Q 903 2953 641 2809 
L 641 3341 
Q 956 3463 1253 3523 
Q 1550 3584 1831 3584 
Q 2591 3584 2966 3190 
Q 3341 2797 3341 1997 
z
" transform="scale(0.015625)"/>
       <path id="DejaVuSans-71" d="M 947 1747 
Q 947 1113 1208 752 
Q 1469 391 1925 391 
Q 2381 391 2643 752 
Q 2906 1113 2906 1747 
Q 2906 2381 2643 2742 
Q 2381 3103 1925 3103 
Q 1469 3103 1208 2742 
Q 947 2381 947 1747 
z
M 2906 525 
Q 2725 213 2448 61 
Q 2172 -91 1784 -91 
Q 1150 -91 751 415 
Q 353 922 353 1747 
Q 353 2572 751 3078 
Q 1150 3584 1784 3584 
Q 2172 3584 2448 3432 
Q 2725 3281 2906 2969 
L 2906 3500 
L 3481 3500 
L 3481 -1331 
L 2906 -1331 
L 2906 525 
z
" transform="scale(0.015625)"/>
       <path id="DejaVuSans-75" d="M 544 1381 
L 544 3500 
L 1119 3500 
L 1119 1403 
Q 1119 906 1312 657 
Q 1506 409 1894 409 
Q 2359 409 2629 706 
Q 2900 1003 2900 1516 
L 2900 3500 
L 3475 3500 
L 3475 0 
L 2900 0 
L 2900 538 
Q 2691 219 2414 64 
Q 2138 -91 1772 -91 
Q 1169 -91 856 284 
Q 544 659 544 1381 
z
M 1991 3584 
L 1991 3584 
z
" transform="scale(0.015625)"/>
       <path id="DejaVuSans-74" d="M 1172 4494 
L 1172 3500 
L 2356 3500 
L 2356 3053 
L 1172 3053 
L 1172 1153 
Q 1172 725 1289 603 
Q 1406 481 1766 481 
L 2356 481 
L 2356 0 
L 1766 0 
Q 1100 0 847 248 
Q 594 497 594 1153 
L 594 3053 
L 172 3053 
L 172 3500 
L 594 3500 
L 594 4494 
L 1172 4494 
z
" transform="scale(0.015625)"/>
       <path id="DejaVuSans-73" d="M 2834 3397 
L 2834 2853 
Q 2591 2978 2328 3040 
Q 2066 3103 1784 3103 
Q 1356 3103 1142 2972 
Q 928 2841 928 2578 
Q 928 2378 1081 2264 
Q 1234 2150 1697 2047 
L 1894 2003 
Q 2506 1872 2764 1633 
Q 3022 1394 3022 966 
Q 3022 478 2636 193 
Q 2250 -91 1575 -91 
Q 1294 -91 989 -36 
Q 684 19 347 128 
L 347 722 
Q 666 556 975 473 
Q 1284 391 1588 391 
Q 1994 391 2212 530 
Q 2431 669 2431 922 
Q 2431 1156 2273 1281 
Q 2116 1406 1581 1522 
L 1381 1569 
Q 847 1681 609 1914 
Q 372 2147 372 2553 
Q 372 3047 722 3315 
Q 1072 3584 1716 3584 
Q 2034 3584 2315 3537 
Q 2597 3491 2834 3397 
z
" transform="scale(0.015625)"/>
      </defs>
      <use xlink:href="#DejaVuSans-50"/>
      <use xlink:href="#DejaVuSans-61" x="55.802734"/>
      <use xlink:href="#DejaVuSans-71" x="117.082031"/>
      <use xlink:href="#DejaVuSans-75" x="180.558594"/>
      <use xlink:href="#DejaVuSans-65" x="243.9375"/>
      <use xlink:href="#DejaVuSans-74" x="305.460938"/>
      <use xlink:href="#DejaVuSans-65" x="344.669922"/>
      <use xlink:href="#DejaVuSans-73" x="406.193359"/>
     </g>
    </g>
   </g>
   <g id="line2d_31">
    <path d="M 52.390312 245.828026 
L 52.390312 246.7 
L 54.056381 245.828026 
L 54.194934 246.7 
L 57.578183 245.828026 
L 57.578183 246.7 
L 57.734239 245.828026 
L 58.572618 244.956053 
L 59.382806 245.828026 
L 59.538861 244.956053 
L 60.335745 244.084079 
L 61.187428 244.956053 
L 61.211218 244.084079 
L 61.848537 243.212105 
L 61.953899 242.340132 
L 62.54566 241.468158 
L 62.99205 242.340132 
L 64.419145 241.468158 
L 64.796672 242.340132 
L 66.223767 241.468158 
L 66.601295 242.340132 
L 67.936064 241.468158 
L 68.405917 242.340132 
L 69.470362 241.468158 
L 70.210539 242.340132 
L 71.274984 240.596184 
L 72.015161 241.468158 
L 72.125621 240.596184 
L 73.079606 239.724211 
L 73.64048 238.852237 
L 73.819784 239.724211 
L 74.884228 238.852237 
L 75.624406 239.724211 
L 76.688851 238.852237 
L 77.036878 237.108289 
L 77.429028 237.980263 
L 77.779621 237.108289 
L 77.944132 236.236316 
L 78.493473 235.364342 
L 79.23365 236.236316 
L 80.298095 234.492368 
L 81.038273 235.364342 
L 82.102717 234.492368 
L 82.842895 235.364342 
L 83.90734 234.492368 
L 84.647517 235.364342 
L 85.51413 234.492368 
L 85.711962 233.620395 
L 86.45214 234.492368 
L 87.516584 233.620395 
L 88.256762 234.492368 
L 89.197169 233.620395 
L 89.321206 232.748421 
L 90.061384 233.620395 
L 90.355212 232.748421 
L 91.125829 231.876447 
L 91.866006 232.748421 
L 92.930451 231.876447 
L 93.252063 231.004474 
L 93.670629 231.876447 
L 95.475251 232.748421 
L 96.164727 231.876447 
L 97.279873 232.748421 
L 97.49106 231.876447 
L 99.084495 232.748421 
L 99.541001 231.876447 
L 99.579288 231.004474 
L 99.768157 230.1325 
L 100.889118 231.004474 
L 101.38391 230.1325 
L 102.069461 229.260526 
L 102.34869 228.388553 
L 102.69374 229.260526 
L 103.432996 228.388553 
L 103.739755 227.516579 
L 104.498362 228.388553 
L 105.276295 227.516579 
L 106.302984 228.388553 
L 106.304782 227.516579 
L 107.080917 226.644605 
L 107.636281 225.772632 
L 107.838302 224.900658 
L 108.107607 225.772632 
L 108.804795 224.900658 
L 109.35932 224.028684 
L 109.731439 223.156711 
L 109.912229 224.028684 
L 111.716851 224.900658 
L 112.073841 224.028684 
L 112.141134 223.156711 
L 113.240298 222.284737 
L 113.50247 221.412763 
L 113.521474 222.284737 
L 113.536701 221.412763 
L 114.243699 219.668816 
L 115.326096 220.540789 
L 115.917595 219.668816 
L 115.978628 218.796842 
L 116.432386 217.924868 
L 117.130718 218.796842 
L 117.314047 217.924868 
L 117.722217 217.052895 
L 118.93534 217.924868 
L 119.52684 217.052895 
L 120.739963 217.924868 
L 121.331462 217.052895 
L 122.507597 216.180921 
L 122.544585 217.052895 
L 123.136084 216.180921 
L 123.586302 215.308947 
L 124.349207 216.180921 
L 124.390295 215.308947 
L 125.427109 213.565 
L 126.153829 214.436974 
L 126.745329 213.565 
L 127.958452 214.436974 
L 128.549951 213.565 
L 129.625294 212.693026 
L 129.763074 213.565 
L 130.354573 212.693026 
L 131.567696 213.565 
L 131.608416 212.693026 
L 132.159196 211.821053 
L 133.372318 212.693026 
L 133.519212 211.821053 
L 133.963818 210.949079 
L 135.176941 211.821053 
L 135.76844 210.077105 
L 135.77251 209.205132 
L 136.981563 210.077105 
L 138.279207 209.205132 
L 138.366391 208.333158 
L 138.786185 209.205132 
L 139.095081 208.333158 
L 140.171013 207.461184 
L 140.590808 208.333158 
L 140.618954 207.461184 
L 141.975635 206.589211 
L 142.39543 207.461184 
L 143.780258 206.589211 
L 144.200052 207.461184 
L 145.58488 206.589211 
L 146.004674 207.461184 
L 147.389502 206.589211 
L 147.809297 207.461184 
L 148.657638 206.589211 
L 149.080464 205.717237 
L 149.194125 204.845263 
L 149.613919 205.717237 
L 150.899558 204.845263 
L 150.998747 203.973289 
L 151.418541 204.845263 
L 152.803369 203.973289 
L 152.810189 203.101316 
L 153.223163 203.973289 
L 154.383667 203.101316 
L 154.910762 201.357368 
L 155.027786 202.229342 
L 155.876352 201.357368 
L 156.412614 200.485395 
L 156.832408 201.357368 
L 157.009549 200.485395 
L 158.171331 199.613421 
L 158.217236 198.741447 
L 158.63703 199.613421 
L 158.677125 198.741447 
L 160.021858 197.869474 
L 160.439996 196.9975 
L 160.441652 197.869474 
L 161.82648 196.125526 
L 162.246275 196.9975 
L 163.111872 196.125526 
L 163.380241 195.253553 
L 163.79708 194.381579 
L 164.050897 195.253553 
L 165.601702 194.381579 
L 165.855519 195.253553 
L 166.099149 194.381579 
L 166.9293 193.509605 
L 167.406324 192.637632 
L 167.660141 193.509605 
L 168.889606 192.637632 
L 169.210947 191.765658 
L 169.464764 192.637632 
L 171.015569 191.765658 
L 171.269386 192.637632 
L 172.820191 190.893684 
L 173.074008 191.765658 
L 174.014997 190.893684 
L 174.197326 190.021711 
L 174.624814 189.149737 
L 174.878631 190.021711 
L 176.429436 189.149737 
L 176.683253 190.021711 
L 178.234058 189.149737 
L 178.487875 190.021711 
L 180.03868 189.149737 
L 180.292497 190.021711 
L 180.646304 189.149737 
L 181.843303 188.277763 
L 182.09712 189.149737 
L 183.901742 190.021711 
L 184.445613 189.149737 
L 184.549067 188.277763 
L 184.840129 187.405789 
L 185.706364 188.277763 
L 187.307297 185.661842 
L 187.510986 186.533816 
L 188.449374 185.661842 
L 189.315609 186.533816 
L 189.733152 185.661842 
L 189.84173 183.917895 
L 190.893605 183.045921 
L 191.120231 183.917895 
L 192.924853 184.789868 
L 194.05606 183.917895 
L 194.729475 184.789868 
L 195.860682 183.917895 
L 196.534098 184.789868 
L 197.665304 183.917895 
L 197.916419 183.045921 
L 198.33872 183.917895 
L 199.469927 182.173947 
L 200.143342 183.045921 
L 201.274549 182.173947 
L 201.947965 183.045921 
L 203.079171 182.173947 
L 203.400298 181.301974 
L 203.752587 182.173947 
L 204.883793 181.301974 
L 204.903266 180.43 
L 205.557209 181.301974 
L 206.688416 180.43 
L 207.361831 181.301974 
L 208.493038 180.43 
L 208.518359 179.558026 
L 208.696385 178.686053 
L 209.166454 179.558026 
L 210.29766 178.686053 
L 210.971076 179.558026 
L 212.102283 178.686053 
L 212.775698 179.558026 
L 213.280675 178.686053 
L 213.437263 177.814079 
L 213.906905 176.942105 
L 214.58032 177.814079 
L 215.711527 176.942105 
L 216.384943 177.814079 
L 217.516149 176.942105 
L 218.189565 177.814079 
L 218.21817 176.942105 
L 218.473218 176.070132 
L 219.320772 175.198158 
L 219.994187 176.070132 
L 220.353239 175.198158 
L 221.125394 174.326184 
L 221.798809 175.198158 
L 222.626943 174.326184 
L 223.2435 172.582237 
L 223.603432 173.454211 
L 223.798453 172.582237 
L 224.163619 171.710263 
L 224.734638 170.838289 
L 225.408054 171.710263 
L 225.757334 170.838289 
L 225.79399 169.966316 
L 226.539261 168.222368 
L 227.212676 169.094342 
L 228.343883 168.222368 
L 229.017299 169.094342 
L 229.305773 168.222368 
L 230.148505 167.350395 
L 230.821921 168.222368 
L 230.827219 167.350395 
L 231.953127 166.478421 
L 232.626543 167.350395 
L 233.75775 165.606447 
L 234.249978 164.734474 
L 234.431165 165.606447 
L 234.766138 164.734474 
L 235.562372 163.8625 
L 236.235788 164.734474 
L 237.312504 163.8625 
L 237.366994 162.990526 
L 238.04041 163.8625 
L 238.861579 162.990526 
L 239.171617 162.118553 
L 239.771729 161.246579 
L 239.845032 162.118553 
L 240.976239 161.246579 
L 241.649654 162.118553 
L 242.780861 161.246579 
L 243.454277 162.118553 
L 244.585483 159.502632 
L 245.258899 160.374605 
L 246.390106 159.502632 
L 247.063521 160.374605 
L 248.194728 159.502632 
L 248.868143 160.374605 
L 249.820651 159.502632 
L 249.99935 158.630658 
L 250.672766 159.502632 
L 250.890114 158.630658 
L 251.803972 157.758684 
L 252.477388 158.630658 
L 253.608595 157.758684 
L 254.271001 156.886711 
L 254.28201 157.758684 
L 255.413217 156.886711 
L 256.086633 157.758684 
L 256.440588 156.886711 
L 256.663506 156.014737 
L 257.217839 155.142763 
L 257.300574 154.270789 
L 257.891255 155.142763 
L 259.022461 154.270789 
L 259.695877 155.142763 
L 259.929582 154.270789 
L 260.827084 153.398816 
L 260.887335 152.526842 
L 261.500499 153.398816 
L 261.798703 152.526842 
L 262.631706 151.654868 
L 263.305122 152.526842 
L 264.436328 151.654868 
L 265.109744 152.526842 
L 266.240951 150.782895 
L 266.914366 151.654868 
L 268.045573 150.782895 
L 268.718988 151.654868 
L 269.494208 150.782895 
L 269.850195 149.910921 
L 270.523611 150.782895 
L 271.622549 149.910921 
L 271.654817 149.038947 
L 272.328233 149.910921 
L 273.224803 149.038947 
L 273.45944 148.166974 
L 274.132855 149.038947 
L 275.169888 148.166974 
L 275.264062 147.295 
L 275.937477 148.166974 
L 277.017686 146.423026 
L 277.068684 145.551053 
L 277.7421 146.423026 
L 278.873306 145.551053 
L 278.881494 144.679079 
L 279.546722 145.551053 
L 279.787976 144.679079 
L 280.677929 143.807105 
L 280.783037 142.935132 
L 281.351344 143.807105 
L 282.482551 142.935132 
L 282.523511 142.063158 
L 283.155967 142.935132 
L 284.736678 140.319211 
L 284.960589 141.191184 
L 286.28137 140.319211 
L 286.5413 139.447237 
L 286.765211 140.319211 
L 286.899633 139.447237 
L 288.345922 138.575263 
L 288.569833 139.447237 
L 288.636357 138.575263 
L 289.646875 137.703289 
L 290.150545 136.831316 
L 290.374456 137.703289 
L 291.955167 136.831316 
L 292.179078 137.703289 
L 293.450022 136.831316 
L 293.759789 135.959342 
L 293.9837 136.831316 
L 295.062865 135.959342 
L 295.564411 135.087368 
L 295.788322 135.959342 
L 297.369034 134.215395 
L 297.592945 135.087368 
L 299.173656 134.215395 
L 299.397567 135.087368 
L 300.978278 134.215395 
L 301.202189 135.087368 
L 302.782901 134.215395 
L 302.870771 133.343421 
L 303.006811 134.215395 
L 303.145604 133.343421 
L 303.972433 132.471447 
L 304.157083 131.599474 
L 304.587523 130.7275 
L 304.811434 131.599474 
L 305.19016 130.7275 
L 306.392145 129.855526 
L 306.616056 130.7275 
L 308.196767 129.855526 
L 308.420678 130.7275 
L 310.00139 129.855526 
L 310.2253 130.7275 
L 311.806012 129.855526 
L 312.029923 130.7275 
L 312.657343 129.855526 
L 313.610634 128.983553 
L 313.834545 129.855526 
L 314.047041 128.983553 
L 315.11912 128.111579 
L 315.415256 126.367632 
L 315.639167 127.239605 
L 317.219879 126.367632 
L 317.44379 127.239605 
L 319.024501 126.367632 
L 319.248412 127.239605 
L 319.856063 126.367632 
L 320.829123 125.495658 
L 321.053034 126.367632 
L 322.633745 125.495658 
L 322.857656 126.367632 
L 323.4682 124.623684 
L 324.438368 123.751711 
L 324.662279 124.623684 
L 326.24299 123.751711 
L 326.466901 124.623684 
L 327.709383 123.751711 
L 328.047612 122.879737 
L 328.271523 123.751711 
L 329.852235 122.879737 
L 330.076145 123.751711 
L 331.365383 122.879737 
L 331.434469 122.007763 
L 331.656857 121.135789 
L 331.754475 120.263816 
L 331.880768 121.135789 
L 333.461479 120.263816 
L 333.479633 119.391842 
L 333.68539 120.263816 
L 335.266101 119.391842 
L 335.490012 120.263816 
L 336.204294 119.391842 
L 337.070724 118.519868 
L 337.294634 119.391842 
L 338.875346 118.519868 
L 339.099257 119.391842 
L 339.817123 118.519868 
L 340.679968 117.647895 
L 340.773578 116.775921 
L 340.903879 117.647895 
L 341.045699 116.775921 
L 341.989282 115.903947 
L 342.48459 115.031974 
L 342.708501 115.903947 
L 344.146597 115.031974 
L 344.289213 114.16 
L 344.513124 115.031974 
L 344.989848 114.16 
L 346.080379 113.288026 
L 346.093835 112.416053 
L 346.317746 113.288026 
L 347.898457 111.544079 
L 348.122368 112.416053 
L 349.37416 111.544079 
L 349.703079 110.672105 
L 349.92699 111.544079 
L 350.195104 110.672105 
L 351.507702 109.800132 
L 351.731613 110.672105 
L 353.312324 109.800132 
L 353.536235 110.672105 
L 355.116946 109.800132 
L 355.340857 110.672105 
L 356.890182 109.800132 
L 356.921569 108.928158 
L 357.145479 109.800132 
L 357.695499 108.928158 
L 358.726191 108.056184 
L 358.950102 108.928158 
L 360.530813 108.056184 
L 360.754724 108.928158 
L 362.335435 108.056184 
L 362.559346 108.928158 
L 363.240935 107.184211 
L 363.989154 106.312237 
L 364.140058 105.440263 
L 364.363968 106.312237 
L 365.317593 105.440263 
L 365.418417 104.568289 
L 365.821099 103.696316 
L 365.94468 102.824342 
L 366.168591 103.696316 
L 366.178107 102.824342 
L 367.749302 101.952368 
L 367.973213 102.824342 
L 369.026545 101.952368 
L 369.553924 101.080395 
L 369.777835 101.952368 
L 369.791086 101.080395 
L 371.358547 100.208421 
L 371.582458 101.080395 
L 373.163169 100.208421 
L 373.38708 101.080395 
L 374.967791 100.208421 
L 374.996599 99.336447 
L 375.191702 100.208421 
L 376.687781 99.336447 
L 376.772413 98.464474 
L 376.996324 99.336447 
L 378.326313 98.464474 
L 378.384705 97.5925 
L 378.577036 96.720526 
L 378.800947 97.5925 
L 380.381658 96.720526 
L 380.605569 97.5925 
L 381.147277 96.720526 
L 381.240545 95.848553 
L 382.18628 94.976579 
L 382.410191 95.848553 
L 383.284445 94.104605 
L 383.990902 93.232632 
L 384.214813 94.104605 
L 385.795525 93.232632 
L 386.019436 94.104605 
L 387.600147 93.232632 
L 387.824058 94.104605 
L 389.404769 93.232632 
L 389.62868 94.104605 
L 391.209392 93.232632 
L 391.433302 94.104605 
L 392.089437 93.232632 
L 393.014014 92.360658 
L 393.237925 93.232632 
L 393.473726 92.360658 
L 394.818636 91.488684 
L 395.042547 92.360658 
L 396.623258 91.488684 
L 396.847169 92.360658 
L 397.077867 91.488684 
L 398.427881 90.616711 
L 398.651792 91.488684 
L 400.116259 89.744737 
L 400.232503 88.872763 
L 400.456414 89.744737 
L 401.574357 88.872763 
L 402.037125 88.000789 
L 402.261036 88.872763 
L 402.490862 88.000789 
L 403.800794 85.384868 
L 403.841747 84.512895 
L 404.065658 85.384868 
L 404.246282 84.512895 
L 405.64637 83.640921 
L 405.76754 82.768947 
L 405.870281 83.640921 
L 407.450992 82.768947 
L 407.674903 83.640921 
L 408.195384 82.768947 
L 409.255614 81.896974 
L 409.281187 81.025 
L 409.479525 81.896974 
L 411.284147 82.768947 
L 411.284147 82.768947 
" clip-path="url(#p4e4c55d5a2)" style="fill: none; stroke: #1f77b4; stroke-width: 1.5; stroke-linecap: square"/>
   </g>
   <g id="line2d_32">
    <path d="M 55.929436 245.828026 
L 55.929436 246.7 
L 57.734058 245.828026 
L 57.734058 246.7 
L 60.740857 245.828026 
L 60.740857 246.7 
L 62.614342 245.828026 
L 62.614342 246.7 
L 64.418965 245.828026 
L 64.418965 246.7 
L 67.665559 245.828026 
L 67.665559 246.7 
L 69.470181 245.828026 
L 69.470181 246.7 
L 71.274803 245.828026 
L 71.274803 246.7 
L 73.079426 245.828026 
L 73.079426 246.7 
L 74.884048 245.828026 
L 74.884048 246.7 
L 76.68867 245.828026 
L 76.68867 246.7 
L 78.493292 245.828026 
L 78.493292 246.7 
L 80.297915 245.828026 
L 80.297915 246.7 
L 82.102537 245.828026 
L 82.102537 246.7 
L 83.907159 245.828026 
L 83.907159 246.7 
L 85.711781 245.828026 
L 85.711781 246.7 
L 87.516404 245.828026 
L 87.516404 246.7 
L 89.321026 245.828026 
L 89.321026 246.7 
L 91.125648 245.828026 
L 91.125648 246.7 
L 97.774485 245.828026 
L 97.774485 246.7 
L 99.579107 245.828026 
L 99.579107 246.7 
L 101.628193 245.828026 
L 101.628193 246.7 
L 103.471492 245.828026 
L 103.471492 246.7 
L 105.276114 245.828026 
L 105.276114 246.7 
L 110.269038 245.828026 
L 110.269038 246.7 
L 112.07366 245.828026 
L 112.07366 246.7 
L 114.112792 245.828026 
L 114.112792 246.7 
L 115.917415 245.828026 
L 115.917415 246.7 
L 117.722037 245.828026 
L 117.722037 246.7 
L 119.526659 245.828026 
L 119.526659 246.7 
L 121.331281 245.828026 
L 121.331281 246.7 
L 123.135904 245.828026 
L 123.135904 246.7 
L 124.940526 245.828026 
L 124.940526 246.7 
L 126.745148 245.828026 
L 126.745148 246.7 
L 128.549771 245.828026 
L 128.549771 246.7 
L 130.354393 245.828026 
L 130.354393 246.7 
L 132.159015 245.828026 
L 132.159015 246.7 
L 133.963637 245.828026 
L 133.963637 246.7 
L 136.561588 245.828026 
L 136.561588 246.7 
L 138.366211 245.828026 
L 138.366211 246.7 
L 140.170833 245.828026 
L 140.170833 246.7 
L 141.975455 245.828026 
L 141.975455 246.7 
L 143.780077 245.828026 
L 143.780077 246.7 
L 145.5847 245.828026 
L 145.5847 246.7 
L 147.389322 245.828026 
L 147.389322 246.7 
L 149.193944 245.828026 
L 149.193944 246.7 
L 150.998566 245.828026 
L 150.998566 246.7 
L 152.803189 245.828026 
L 152.803189 246.7 
L 154.607811 245.828026 
L 154.607811 246.7 
L 156.412433 245.828026 
L 156.412433 246.7 
L 158.217055 245.828026 
L 158.217055 246.7 
L 160.021678 245.828026 
L 160.021678 246.7 
L 161.992277 245.828026 
L 161.992277 246.7 
L 163.796899 245.828026 
L 163.796899 246.7 
L 165.601522 245.828026 
L 165.601522 246.7 
L 167.406144 245.828026 
L 167.406144 246.7 
L 169.210766 245.828026 
L 169.210766 246.7 
L 171.015389 245.828026 
L 171.015389 246.7 
L 172.820011 245.828026 
L 172.820011 246.7 
L 174.624633 245.828026 
L 174.624633 246.7 
L 176.429255 245.828026 
L 176.429255 246.7 
L 178.233878 245.828026 
L 178.233878 246.7 
L 180.0385 245.828026 
L 180.0385 246.7 
L 183.035326 245.828026 
L 183.035326 246.7 
L 184.839949 245.828026 
L 184.839949 246.7 
L 186.644571 245.828026 
L 186.644571 246.7 
L 192.251257 245.828026 
L 192.251257 246.7 
L 194.055879 245.828026 
L 194.055879 246.7 
L 195.860502 245.828026 
L 195.860502 246.7 
L 197.665124 245.828026 
L 197.665124 246.7 
L 199.469746 245.828026 
L 199.469746 246.7 
L 201.274368 245.828026 
L 201.274368 246.7 
L 203.078991 245.828026 
L 203.078991 246.7 
L 204.883613 245.828026 
L 204.883613 246.7 
L 206.688235 245.828026 
L 206.688235 246.7 
L 208.492858 245.828026 
L 208.492858 246.7 
L 210.29748 245.828026 
L 210.29748 246.7 
L 212.102102 245.828026 
L 212.102102 246.7 
L 213.906724 245.828026 
L 213.906724 246.7 
L 215.711347 245.828026 
L 215.711347 246.7 
L 217.515969 245.828026 
L 217.515969 246.7 
L 219.320591 245.828026 
L 219.320591 246.7 
L 221.125213 245.828026 
L 221.125213 246.7 
L 222.929836 245.828026 
L 222.929836 246.7 
L 224.734458 245.828026 
L 224.734458 246.7 
L 226.53908 245.828026 
L 226.53908 246.7 
L 228.343702 245.828026 
L 228.343702 246.7 
L 230.148325 245.828026 
L 230.148325 246.7 
L 231.952947 245.828026 
L 231.952947 246.7 
L 233.757569 245.828026 
L 233.757569 246.7 
L 235.562192 245.828026 
L 235.562192 246.7 
L 237.366814 245.828026 
L 237.366814 246.7 
L 239.171436 245.828026 
L 239.171436 246.7 
L 240.976058 245.828026 
L 240.976058 246.7 
L 242.780681 245.828026 
L 242.780681 246.7 
L 244.585303 245.828026 
L 244.585303 246.7 
L 246.389925 245.828026 
L 246.389925 246.7 
L 248.194547 245.828026 
L 248.194547 246.7 
L 249.99917 245.828026 
L 249.99917 246.7 
L 251.803792 245.828026 
L 251.803792 246.7 
L 253.608414 245.828026 
L 253.608414 246.7 
L 255.413036 245.828026 
L 255.413036 246.7 
L 257.217659 245.828026 
L 257.217659 246.7 
L 259.022281 245.828026 
L 259.022281 246.7 
L 260.826903 245.828026 
L 260.826903 246.7 
L 262.631526 245.828026 
L 262.631526 246.7 
L 264.436148 245.828026 
L 264.436148 246.7 
L 266.24077 245.828026 
L 266.24077 246.7 
L 268.045392 245.828026 
L 268.045392 246.7 
L 269.850015 245.828026 
L 269.850015 246.7 
L 271.654637 245.828026 
L 271.654637 246.7 
L 273.459259 245.828026 
L 273.459259 246.7 
L 275.263881 245.828026 
L 275.263881 246.7 
L 277.068504 245.828026 
L 277.068504 246.7 
L 278.873126 245.828026 
L 278.873126 246.7 
L 280.677748 245.828026 
L 280.677748 246.7 
L 282.931875 245.828026 
L 282.931875 246.7 
L 284.736497 245.828026 
L 284.736497 246.7 
L 286.54112 245.828026 
L 286.54112 246.7 
L 288.345742 245.828026 
L 288.345742 246.7 
L 290.150364 245.828026 
L 290.150364 246.7 
L 291.954986 245.828026 
L 291.954986 246.7 
L 293.759609 245.828026 
L 293.759609 246.7 
L 295.564231 245.828026 
L 295.564231 246.7 
L 297.368853 245.828026 
L 297.368853 246.7 
L 299.173476 245.828026 
L 299.173476 246.7 
L 300.978098 245.828026 
L 300.978098 246.7 
L 302.78272 245.828026 
L 302.78272 246.7 
L 304.587342 245.828026 
L 304.587342 246.7 
L 306.391965 245.828026 
L 306.391965 246.7 
L 308.196587 245.828026 
L 308.196587 246.7 
L 310.001209 245.828026 
L 310.001209 246.7 
L 311.805831 245.828026 
L 311.805831 246.7 
L 313.610454 245.828026 
L 313.610454 246.7 
L 315.415076 245.828026 
L 315.415076 246.7 
L 317.219698 245.828026 
L 317.219698 246.7 
L 319.02432 245.828026 
L 319.02432 246.7 
L 320.828943 245.828026 
L 320.828943 246.7 
L 322.633565 245.828026 
L 322.633565 246.7 
L 324.438187 245.828026 
L 324.438187 246.7 
L 326.24281 245.828026 
L 326.24281 246.7 
L 328.047432 245.828026 
L 328.047432 246.7 
L 329.852054 245.828026 
L 329.852054 246.7 
L 331.656676 245.828026 
L 331.656676 246.7 
L 333.461299 245.828026 
L 333.461299 246.7 
L 335.265921 245.828026 
L 335.265921 246.7 
L 337.070543 245.828026 
L 337.070543 246.7 
L 338.875165 245.828026 
L 338.875165 246.7 
L 340.679788 245.828026 
L 340.679788 246.7 
L 342.48441 245.828026 
L 342.48441 246.7 
L 344.289032 245.828026 
L 344.289032 246.7 
L 346.093654 245.828026 
L 346.093654 246.7 
L 347.898277 245.828026 
L 347.898277 246.7 
L 349.702899 245.828026 
L 349.702899 246.7 
L 351.507521 245.828026 
L 351.507521 246.7 
L 353.312144 245.828026 
L 353.312144 246.7 
L 355.116766 245.828026 
L 355.116766 246.7 
L 356.921388 245.828026 
L 356.921388 246.7 
L 358.72601 245.828026 
L 358.72601 246.7 
L 360.530633 245.828026 
L 360.530633 246.7 
L 362.335255 245.828026 
L 362.335255 246.7 
L 364.139877 245.828026 
L 364.139877 246.7 
L 365.944499 245.828026 
L 365.944499 246.7 
L 367.749122 245.828026 
L 367.749122 246.7 
L 369.553744 245.828026 
L 369.553744 246.7 
L 371.358366 245.828026 
L 371.358366 246.7 
L 373.162988 245.828026 
L 373.162988 246.7 
L 374.967611 245.828026 
L 374.967611 246.7 
L 376.772233 245.828026 
L 376.772233 246.7 
L 378.576855 245.828026 
L 378.576855 246.7 
L 380.381478 245.828026 
L 380.381478 246.7 
L 382.1861 245.828026 
L 382.1861 246.7 
L 383.990722 245.828026 
L 383.990722 246.7 
L 385.795344 245.828026 
L 385.795344 246.7 
L 387.599967 245.828026 
L 387.599967 246.7 
L 389.404589 245.828026 
L 389.404589 246.7 
L 391.209211 245.828026 
L 391.209211 246.7 
L 393.013833 245.828026 
L 393.013833 246.7 
L 394.818456 245.828026 
L 394.818456 246.7 
L 396.623078 245.828026 
L 396.623078 246.7 
L 398.4277 245.828026 
L 398.4277 246.7 
L 400.232322 245.828026 
L 400.232322 246.7 
L 402.036945 245.828026 
L 402.036945 246.7 
L 403.841567 245.828026 
L 403.841567 246.7 
L 405.646189 245.828026 
L 405.646189 246.7 
L 407.450811 245.828026 
L 407.450811 246.7 
L 411.059754 245.828026 
L 411.059754 246.7 
L 411.059754 246.7 
" clip-path="url(#p4e4c55d5a2)" style="fill: none; stroke: #ff7f0e; stroke-width: 1.5; stroke-linecap: square"/>
   </g>
   <g id="line2d_33">
    <path d="M 54.124633 245.828026 
L 54.124633 246.7 
L 55.545234 245.828026 
L 55.929255 246.7 
L 58.936054 245.828026 
L 58.936054 246.7 
L 60.80954 245.828026 
L 60.80954 246.7 
L 61.848134 245.828026 
L 62.614162 246.7 
L 65.860756 245.828026 
L 65.860756 246.7 
L 66.435269 245.828026 
L 67.307988 244.956053 
L 67.665378 245.828026 
L 68.479993 244.956053 
L 69.470001 245.828026 
L 71.274623 246.7 
L 71.497703 245.828026 
L 72.677714 244.956053 
L 73.079245 245.828026 
L 73.577989 244.956053 
L 74.883867 245.828026 
L 76.68849 246.7 
L 78.266856 245.828026 
L 78.303717 244.956053 
L 78.493112 245.828026 
L 79.132486 244.956053 
L 80.297734 245.828026 
L 82.102356 246.7 
L 82.358226 245.828026 
L 83.906979 246.7 
L 85.075598 245.828026 
L 85.348513 244.956053 
L 85.711601 245.828026 
L 87.516223 246.7 
L 89.030509 245.828026 
L 89.320846 246.7 
L 95.969682 245.828026 
L 95.969682 246.7 
L 97.086616 245.828026 
L 97.774305 246.7 
L 99.823391 245.828026 
L 99.823391 246.7 
L 101.666689 245.828026 
L 101.666689 246.7 
L 103.2409 245.828026 
L 103.471312 246.7 
L 108.464235 245.828026 
L 108.464235 246.7 
L 109.622252 245.828026 
L 110.268858 246.7 
L 112.30799 245.828026 
L 112.30799 246.7 
L 112.748405 245.828026 
L 114.112612 246.7 
L 114.264892 245.828026 
L 114.557487 244.956053 
L 115.917234 245.828026 
L 116.266458 244.956053 
L 117.721856 245.828026 
L 117.99808 244.956053 
L 119.526479 245.828026 
L 121.331101 246.7 
L 122.200889 245.828026 
L 123.135723 246.7 
L 124.267432 245.828026 
L 124.940346 246.7 
L 125.980911 245.828026 
L 126.744968 246.7 
L 128.139434 245.828026 
L 128.440222 244.084079 
L 128.54959 244.956053 
L 132.158835 246.7 
L 134.756786 245.828026 
L 134.756786 246.7 
L 135.521283 244.956053 
L 136.321459 244.084079 
L 136.561408 244.956053 
L 137.005343 244.084079 
L 138.36603 244.956053 
L 138.69458 244.084079 
L 139.404 243.212105 
L 139.474711 242.340132 
L 140.170652 243.212105 
L 140.516563 242.340132 
L 141.975275 243.212105 
L 142.33178 242.340132 
L 143.779897 243.212105 
L 147.389141 244.956053 
L 148.093843 244.084079 
L 148.288083 243.212105 
L 149.193764 244.084079 
L 150.197061 243.212105 
L 150.514518 242.340132 
L 150.998386 243.212105 
L 158.216875 246.7 
L 160.187475 245.828026 
L 160.187475 246.7 
L 160.710965 244.956053 
L 161.992097 245.828026 
L 163.426423 244.084079 
L 163.796719 244.956053 
L 163.82142 244.084079 
L 169.210586 246.7 
L 169.236829 244.956053 
L 169.421162 244.084079 
L 171.015208 244.956053 
L 171.180852 244.084079 
L 172.81983 244.956053 
L 174.464938 244.084079 
L 174.624453 244.956053 
L 178.233697 246.7 
L 181.230524 245.828026 
L 181.230524 246.7 
L 182.371652 245.828026 
L 183.035146 246.7 
L 183.657597 245.828026 
L 184.839768 246.7 
L 190.446454 245.828026 
L 190.446454 246.7 
L 191.046329 245.828026 
L 191.277423 244.956053 
L 192.081237 244.084079 
L 192.251077 244.956053 
L 192.714978 244.084079 
L 193.898171 243.212105 
L 194.055699 244.084079 
L 194.126255 243.212105 
L 195.860321 244.084079 
L 196.232021 243.212105 
L 196.922652 242.340132 
L 197.664943 243.212105 
L 199.469566 244.084079 
L 200.756097 243.212105 
L 200.875739 242.340132 
L 201.274188 243.212105 
L 201.316781 242.340132 
L 203.07881 243.212105 
L 203.444772 242.340132 
L 204.883433 243.212105 
L 204.953613 242.340132 
L 205.510185 241.468158 
L 206.688055 242.340132 
L 206.793719 241.468158 
L 208.130509 240.596184 
L 208.492677 241.468158 
L 212.101922 243.212105 
L 212.616046 242.340132 
L 213.906544 243.212105 
L 214.164224 242.340132 
L 215.443522 240.596184 
L 215.460486 239.724211 
L 215.711166 240.596184 
L 217.447097 239.724211 
L 217.515788 240.596184 
L 219.320411 241.468158 
L 220.780826 240.596184 
L 221.125033 241.468158 
L 222.929655 242.340132 
L 224.103645 241.468158 
L 224.734277 242.340132 
L 225.01895 241.468158 
L 226.471305 240.596184 
L 226.5389 241.468158 
L 227.304555 240.596184 
L 227.313049 239.724211 
L 227.598795 238.852237 
L 228.343522 239.724211 
L 229.642772 238.852237 
L 230.148144 239.724211 
L 230.210726 238.852237 
L 231.952767 239.724211 
L 232.406064 238.852237 
L 233.020262 237.980263 
L 233.757389 238.852237 
L 237.366633 240.596184 
L 238.930658 239.724211 
L 239.171256 240.596184 
L 240.548666 239.724211 
L 240.975878 240.596184 
L 242.081189 239.724211 
L 242.7805 240.596184 
L 243.919483 239.724211 
L 244.585122 240.596184 
L 246.389745 241.468158 
L 247.928464 240.596184 
L 248.194367 241.468158 
L 249.985026 240.596184 
L 249.998989 241.468158 
L 251.061265 240.596184 
L 251.803611 241.468158 
L 257.217478 244.084079 
L 257.99644 243.212105 
L 259.022101 244.084079 
L 260.826723 244.956053 
L 261.02987 244.084079 
L 262.631345 244.956053 
L 263.579246 243.212105 
L 264.435967 244.084079 
L 265.828301 242.340132 
L 266.24059 243.212105 
L 271.654456 245.828026 
L 271.899719 244.956053 
L 273.459079 245.828026 
L 274.231127 244.956053 
L 275.263701 245.828026 
L 275.486783 244.956053 
L 278.872945 246.7 
L 281.127072 245.828026 
L 281.127072 246.7 
L 282.809707 245.828026 
L 282.844681 244.956053 
L 282.931695 245.828026 
L 283.990846 244.956053 
L 284.736317 245.828026 
L 286.262944 244.956053 
L 286.540939 245.828026 
L 286.875911 244.956053 
L 287.74869 244.084079 
L 288.345561 244.956053 
L 290.150184 245.828026 
L 290.244446 244.956053 
L 290.703038 243.212105 
L 291.342279 242.340132 
L 291.517188 241.468158 
L 291.954806 242.340132 
L 293.040088 241.468158 
L 293.759428 242.340132 
L 293.828758 241.468158 
L 295.277061 240.596184 
L 295.338786 239.724211 
L 295.564051 240.596184 
L 297.249898 239.724211 
L 297.368673 240.596184 
L 299.155307 239.724211 
L 299.173295 240.596184 
L 299.853931 239.724211 
L 300.87284 238.852237 
L 300.977917 239.724211 
L 301.324142 238.852237 
L 302.78254 239.724211 
L 304.587162 240.596184 
L 305.41817 239.724211 
L 306.391784 240.596184 
L 308.196406 241.468158 
L 309.4333 240.596184 
L 309.977513 239.724211 
L 310.001029 240.596184 
L 311.805651 241.468158 
L 312.938713 240.596184 
L 313.610273 241.468158 
L 315.134973 240.596184 
L 315.324246 239.724211 
L 315.414895 240.596184 
L 316.108075 239.724211 
L 317.219518 240.596184 
L 318.368559 239.724211 
L 319.02414 240.596184 
L 319.51172 239.724211 
L 320.828762 240.596184 
L 331.656496 245.828026 
L 331.720694 244.956053 
L 333.001828 244.084079 
L 333.331241 243.212105 
L 333.461118 244.084079 
L 333.569783 243.212105 
L 335.26574 244.084079 
L 336.969563 243.212105 
L 337.070363 244.084079 
L 338.874985 244.956053 
L 339.941269 244.084079 
L 340.679607 244.956053 
L 341.460546 244.084079 
L 341.650865 242.340132 
L 342.484229 243.212105 
L 347.898096 245.828026 
L 348.959309 244.956053 
L 349.052991 244.084079 
L 349.702719 244.956053 
L 351.507341 245.828026 
L 352.685286 244.956053 
L 352.715545 244.084079 
L 353.311963 244.956053 
L 355.116585 245.828026 
L 356.210336 244.956053 
L 356.683741 244.084079 
L 356.705005 243.212105 
L 356.921208 244.084079 
L 358.72583 244.956053 
L 359.317727 244.084079 
L 360.530452 244.956053 
L 361.680516 244.084079 
L 362.335074 244.956053 
L 364.139697 245.828026 
L 364.182248 244.956053 
L 365.395785 244.084079 
L 365.944319 244.956053 
L 366.142861 244.084079 
L 366.176599 243.212105 
L 366.515 242.340132 
L 367.638553 241.468158 
L 367.748941 242.340132 
L 368.096035 241.468158 
L 369.553563 242.340132 
L 371.358186 243.212105 
L 371.842487 242.340132 
L 373.162808 243.212105 
L 374.96743 244.084079 
L 376.592648 243.212105 
L 376.772053 244.084079 
L 378.576675 244.956053 
L 379.116871 243.212105 
L 380.367834 242.340132 
L 380.381297 243.212105 
L 382.120993 242.340132 
L 382.185919 243.212105 
L 383.990542 244.084079 
L 384.288291 243.212105 
L 385.795164 244.084079 
L 387.599786 244.956053 
L 389.199297 244.084079 
L 389.404408 244.956053 
L 389.760476 244.084079 
L 391.209031 244.956053 
L 391.47817 244.084079 
L 393.013653 244.956053 
L 393.529297 244.084079 
L 394.818275 244.956053 
L 395.137899 244.084079 
L 396.622897 244.956053 
L 397.645741 244.084079 
L 398.42752 244.956053 
L 402.036764 246.7 
L 403.669451 245.828026 
L 403.841386 246.7 
L 404.041261 245.828026 
L 405.646009 246.7 
L 409.254952 245.828026 
L 409.254952 246.7 
L 410.471708 245.828026 
L 410.937324 244.956053 
L 411.059574 245.828026 
L 411.059574 245.828026 
" clip-path="url(#p4e4c55d5a2)" style="fill: none; stroke: #2ca02c; stroke-width: 1.5; stroke-linecap: square"/>
   </g>
   <g id="line2d_34">
    <path d="M 55.999918 245.828026 
L 55.999918 246.7 
L 57.80454 245.828026 
L 57.80454 246.7 
L 61.187789 245.828026 
L 61.187789 246.7 
L 62.992411 245.828026 
L 62.992411 246.7 
L 64.797033 245.828026 
L 64.797033 246.7 
L 66.601656 245.828026 
L 66.601656 246.7 
L 68.406278 245.828026 
L 68.406278 246.7 
L 70.2109 245.828026 
L 70.2109 246.7 
L 72.015522 245.828026 
L 72.015522 246.7 
L 73.820145 245.828026 
L 73.820145 246.7 
L 75.624767 245.828026 
L 75.624767 246.7 
L 77.429389 245.828026 
L 77.429389 246.7 
L 79.234011 245.828026 
L 79.234011 246.7 
L 81.038634 245.828026 
L 81.038634 246.7 
L 82.843256 245.828026 
L 82.843256 246.7 
L 84.647878 245.828026 
L 84.647878 246.7 
L 86.4525 245.828026 
L 86.4525 246.7 
L 88.257123 245.828026 
L 88.257123 246.7 
L 90.061745 245.828026 
L 90.061745 246.7 
L 91.866367 245.828026 
L 91.866367 246.7 
L 93.67099 245.828026 
L 93.67099 246.7 
L 95.475612 245.828026 
L 95.475612 246.7 
L 97.280234 245.828026 
L 97.280234 246.7 
L 99.084856 245.828026 
L 99.084856 246.7 
L 100.889479 245.828026 
L 100.889479 246.7 
L 102.694101 245.828026 
L 102.694101 246.7 
L 104.498723 245.828026 
L 104.498723 246.7 
L 106.303345 245.828026 
L 106.303345 246.7 
L 108.107968 245.828026 
L 108.107968 246.7 
L 109.91259 245.828026 
L 109.91259 246.7 
L 111.717212 245.828026 
L 111.717212 246.7 
L 113.521834 245.828026 
L 113.521834 246.7 
L 115.326457 245.828026 
L 115.326457 246.7 
L 117.131079 245.828026 
L 117.131079 246.7 
L 118.935701 245.828026 
L 118.935701 246.7 
L 120.740324 245.828026 
L 120.740324 246.7 
L 122.544946 245.828026 
L 122.544946 246.7 
L 124.349568 245.828026 
L 124.349568 246.7 
L 126.15419 245.828026 
L 126.15419 246.7 
L 127.958813 245.828026 
L 127.958813 246.7 
L 129.763435 245.828026 
L 129.763435 246.7 
L 131.568057 245.828026 
L 131.568057 246.7 
L 133.372679 245.828026 
L 133.372679 246.7 
L 135.177302 245.828026 
L 135.177302 246.7 
L 136.981924 245.828026 
L 136.981924 246.7 
L 138.786546 245.828026 
L 138.786546 246.7 
L 140.591168 245.828026 
L 140.591168 246.7 
L 142.395791 245.828026 
L 142.395791 246.7 
L 144.200413 245.828026 
L 144.200413 246.7 
L 146.005035 245.828026 
L 146.005035 246.7 
L 147.809657 245.828026 
L 147.809657 246.7 
L 149.61428 245.828026 
L 149.61428 246.7 
L 151.418902 245.828026 
L 151.418902 246.7 
L 153.223524 245.828026 
L 153.223524 246.7 
L 155.028147 245.828026 
L 155.028147 246.7 
L 156.832769 245.828026 
L 156.832769 246.7 
L 158.637391 245.828026 
L 158.637391 246.7 
L 160.442013 245.828026 
L 160.442013 246.7 
L 162.246636 245.828026 
L 162.246636 246.7 
L 164.051258 245.828026 
L 164.051258 246.7 
L 165.85588 245.828026 
L 165.85588 246.7 
L 167.660502 245.828026 
L 167.660502 246.7 
L 169.465125 245.828026 
L 169.465125 246.7 
L 171.269747 245.828026 
L 171.269747 246.7 
L 173.074369 245.828026 
L 173.074369 246.7 
L 174.878991 245.828026 
L 174.878991 246.7 
L 176.683614 245.828026 
L 176.683614 246.7 
L 178.488236 245.828026 
L 178.488236 246.7 
L 180.292858 245.828026 
L 180.292858 246.7 
L 182.097481 245.828026 
L 182.097481 246.7 
L 183.902103 245.828026 
L 183.902103 246.7 
L 185.706725 245.828026 
L 185.706725 246.7 
L 187.511347 245.828026 
L 187.511347 246.7 
L 189.31597 245.828026 
L 189.31597 246.7 
L 191.120592 245.828026 
L 191.120592 246.7 
L 192.925214 245.828026 
L 192.925214 246.7 
L 194.729836 245.828026 
L 194.729836 246.7 
L 196.534459 245.828026 
L 196.534459 246.7 
L 198.339081 245.828026 
L 198.339081 246.7 
L 200.143703 245.828026 
L 200.143703 246.7 
L 201.948325 245.828026 
L 201.948325 246.7 
L 203.752948 245.828026 
L 203.752948 246.7 
L 205.55757 245.828026 
L 205.55757 246.7 
L 207.362192 245.828026 
L 207.362192 246.7 
L 209.166815 245.828026 
L 209.166815 246.7 
L 210.971437 245.828026 
L 210.971437 246.7 
L 212.776059 245.828026 
L 212.776059 246.7 
L 214.580681 245.828026 
L 214.580681 246.7 
L 216.385304 245.828026 
L 216.385304 246.7 
L 218.189926 245.828026 
L 218.189926 246.7 
L 219.994548 245.828026 
L 219.994548 246.7 
L 221.79917 245.828026 
L 221.79917 246.7 
L 223.603793 245.828026 
L 223.603793 246.7 
L 225.408415 245.828026 
L 225.408415 246.7 
L 227.213037 245.828026 
L 227.213037 246.7 
L 229.017659 245.828026 
L 229.017659 246.7 
L 230.822282 245.828026 
L 230.822282 246.7 
L 232.626904 245.828026 
L 232.626904 246.7 
L 234.431526 245.828026 
L 234.431526 246.7 
L 236.236149 245.828026 
L 236.236149 246.7 
L 238.040771 245.828026 
L 238.040771 246.7 
L 239.845393 245.828026 
L 239.845393 246.7 
L 241.650015 245.828026 
L 241.650015 246.7 
L 243.454638 245.828026 
L 243.454638 246.7 
L 245.25926 245.828026 
L 245.25926 246.7 
L 247.063882 245.828026 
L 247.063882 246.7 
L 248.868504 245.828026 
L 248.868504 246.7 
L 250.673127 245.828026 
L 250.673127 246.7 
L 252.477749 245.828026 
L 252.477749 246.7 
L 254.282371 245.828026 
L 254.282371 246.7 
L 256.086993 245.828026 
L 256.086993 246.7 
L 257.891616 245.828026 
L 257.891616 246.7 
L 259.696238 245.828026 
L 259.696238 246.7 
L 261.50086 245.828026 
L 261.50086 246.7 
L 263.305483 245.828026 
L 263.305483 246.7 
L 265.110105 245.828026 
L 265.110105 246.7 
L 266.914727 245.828026 
L 266.914727 246.7 
L 268.719349 245.828026 
L 268.719349 246.7 
L 270.523972 245.828026 
L 270.523972 246.7 
L 272.328594 245.828026 
L 272.328594 246.7 
L 274.133216 245.828026 
L 274.133216 246.7 
L 275.937838 245.828026 
L 275.937838 246.7 
L 277.742461 245.828026 
L 277.742461 246.7 
L 279.547083 245.828026 
L 279.547083 246.7 
L 281.351705 245.828026 
L 281.351705 246.7 
L 283.156327 245.828026 
L 283.156327 246.7 
L 284.96095 245.828026 
L 284.96095 246.7 
L 286.765572 245.828026 
L 286.765572 246.7 
L 288.570194 245.828026 
L 288.570194 246.7 
L 290.374816 245.828026 
L 290.374816 246.7 
L 292.179439 245.828026 
L 292.179439 246.7 
L 293.984061 245.828026 
L 293.984061 246.7 
L 295.788683 245.828026 
L 295.788683 246.7 
L 297.593306 245.828026 
L 297.593306 246.7 
L 299.397928 245.828026 
L 299.397928 246.7 
L 301.20255 245.828026 
L 301.20255 246.7 
L 303.007172 245.828026 
L 303.007172 246.7 
L 304.811795 245.828026 
L 304.811795 246.7 
L 306.616417 245.828026 
L 306.616417 246.7 
L 308.421039 245.828026 
L 308.421039 246.7 
L 310.225661 245.828026 
L 310.225661 246.7 
L 312.030284 245.828026 
L 312.030284 246.7 
L 313.834906 245.828026 
L 313.834906 246.7 
L 315.639528 245.828026 
L 315.639528 246.7 
L 317.44415 245.828026 
L 317.44415 246.7 
L 319.248773 245.828026 
L 319.248773 246.7 
L 321.053395 245.828026 
L 321.053395 246.7 
L 322.858017 245.828026 
L 322.858017 246.7 
L 324.66264 245.828026 
L 324.66264 246.7 
L 326.467262 245.828026 
L 326.467262 246.7 
L 328.271884 245.828026 
L 328.271884 246.7 
L 330.076506 245.828026 
L 330.076506 246.7 
L 331.881129 245.828026 
L 331.881129 246.7 
L 333.685751 245.828026 
L 333.685751 246.7 
L 335.490373 245.828026 
L 335.490373 246.7 
L 337.294995 245.828026 
L 337.294995 246.7 
L 339.099618 245.828026 
L 339.099618 246.7 
L 340.90424 245.828026 
L 340.90424 246.7 
L 342.708862 245.828026 
L 342.708862 246.7 
L 344.513484 245.828026 
L 344.513484 246.7 
L 346.318107 245.828026 
L 346.318107 246.7 
L 348.122729 245.828026 
L 348.122729 246.7 
L 349.927351 245.828026 
L 349.927351 246.7 
L 351.731974 245.828026 
L 351.731974 246.7 
L 353.536596 245.828026 
L 353.536596 246.7 
L 355.341218 245.828026 
L 355.341218 246.7 
L 357.14584 245.828026 
L 357.14584 246.7 
L 358.950463 245.828026 
L 358.950463 246.7 
L 360.755085 245.828026 
L 360.755085 246.7 
L 362.559707 245.828026 
L 362.559707 246.7 
L 364.364329 245.828026 
L 364.364329 246.7 
L 366.168952 245.828026 
L 366.168952 246.7 
L 367.973574 245.828026 
L 367.973574 246.7 
L 369.778196 245.828026 
L 369.778196 246.7 
L 371.582818 245.828026 
L 371.582818 246.7 
L 373.387441 245.828026 
L 373.387441 246.7 
L 375.192063 245.828026 
L 375.192063 246.7 
L 376.996685 245.828026 
L 376.996685 246.7 
L 378.801308 245.828026 
L 378.801308 246.7 
L 380.60593 245.828026 
L 380.60593 246.7 
L 382.410552 245.828026 
L 382.410552 246.7 
L 384.215174 245.828026 
L 384.215174 246.7 
L 386.019797 245.828026 
L 386.019797 246.7 
L 387.824419 245.828026 
L 387.824419 246.7 
L 389.629041 245.828026 
L 389.629041 246.7 
L 391.433663 245.828026 
L 391.433663 246.7 
L 393.238286 245.828026 
L 393.238286 246.7 
L 395.042908 245.828026 
L 395.042908 246.7 
L 396.84753 245.828026 
L 396.84753 246.7 
L 398.652152 245.828026 
L 398.652152 246.7 
L 400.456775 245.828026 
L 400.456775 246.7 
L 402.261397 245.828026 
L 402.261397 246.7 
L 404.066019 245.828026 
L 404.066019 246.7 
L 405.870642 245.828026 
L 405.870642 246.7 
L 407.675264 245.828026 
L 407.675264 246.7 
L 409.479886 245.828026 
L 409.479886 246.7 
L 411.284508 245.828026 
L 411.284508 246.7 
L 411.284508 246.7 
" clip-path="url(#p4e4c55d5a2)" style="fill: none; stroke: #d62728; stroke-width: 1.5; stroke-linecap: square"/>
   </g>
   <g id="line2d_35">
    <path d="M 54.195115 245.828026 
L 54.195115 246.7 
L 55.999737 245.828026 
L 55.999737 246.7 
L 59.382986 245.828026 
L 59.382986 246.7 
L 61.187608 245.828026 
L 61.187608 246.7 
L 62.992231 245.828026 
L 62.992231 246.7 
L 64.796853 245.828026 
L 64.796853 246.7 
L 66.601475 245.828026 
L 66.601475 246.7 
L 68.406097 245.828026 
L 68.406097 246.7 
L 70.21072 245.828026 
L 70.21072 246.7 
L 72.015342 245.828026 
L 72.015342 246.7 
L 73.819964 245.828026 
L 73.819964 246.7 
L 75.624586 245.828026 
L 75.624586 246.7 
L 77.429209 245.828026 
L 77.429209 246.7 
L 79.233831 245.828026 
L 79.233831 246.7 
L 81.038453 245.828026 
L 81.038453 246.7 
L 82.843075 245.828026 
L 82.843075 246.7 
L 84.647698 245.828026 
L 84.647698 246.7 
L 86.45232 245.828026 
L 86.45232 246.7 
L 88.256942 245.828026 
L 88.256942 246.7 
L 90.061565 245.828026 
L 90.061565 246.7 
L 91.866187 245.828026 
L 91.866187 246.7 
L 93.670809 245.828026 
L 93.670809 246.7 
L 95.475431 245.828026 
L 95.475431 246.7 
L 97.280054 245.828026 
L 97.280054 246.7 
L 99.084676 245.828026 
L 99.084676 246.7 
L 100.889298 245.828026 
L 100.889298 246.7 
L 102.69392 245.828026 
L 102.69392 246.7 
L 104.498543 245.828026 
L 104.498543 246.7 
L 106.303165 245.828026 
L 106.303165 246.7 
L 108.107787 245.828026 
L 108.107787 246.7 
L 109.912409 245.828026 
L 109.912409 246.7 
L 111.717032 245.828026 
L 111.717032 246.7 
L 113.521654 245.828026 
L 113.521654 246.7 
L 115.326276 245.828026 
L 115.326276 246.7 
L 117.130899 245.828026 
L 117.130899 246.7 
L 118.935521 245.828026 
L 118.935521 246.7 
L 120.740143 245.828026 
L 120.740143 246.7 
L 122.544765 245.828026 
L 122.544765 246.7 
L 124.349388 245.828026 
L 124.349388 246.7 
L 126.15401 245.828026 
L 126.15401 246.7 
L 127.958632 245.828026 
L 127.958632 246.7 
L 129.763254 245.828026 
L 129.763254 246.7 
L 131.567877 245.828026 
L 131.567877 246.7 
L 133.372499 245.828026 
L 133.372499 246.7 
L 135.177121 245.828026 
L 135.177121 246.7 
L 136.981743 245.828026 
L 136.981743 246.7 
L 138.786366 245.828026 
L 138.786366 246.7 
L 140.590988 245.828026 
L 140.590988 246.7 
L 142.39561 245.828026 
L 142.39561 246.7 
L 144.200232 245.828026 
L 144.200232 246.7 
L 146.004855 245.828026 
L 146.004855 246.7 
L 147.809477 245.828026 
L 147.809477 246.7 
L 149.614099 245.828026 
L 149.614099 246.7 
L 151.418722 245.828026 
L 151.418722 246.7 
L 153.223344 245.828026 
L 153.223344 246.7 
L 155.027966 245.828026 
L 155.027966 246.7 
L 156.832588 245.828026 
L 156.832588 246.7 
L 158.637211 245.828026 
L 158.637211 246.7 
L 160.441833 245.828026 
L 160.441833 246.7 
L 162.246455 245.828026 
L 162.246455 246.7 
L 164.051077 245.828026 
L 164.051077 246.7 
L 165.8557 245.828026 
L 165.8557 246.7 
L 167.660322 245.828026 
L 167.660322 246.7 
L 169.464944 245.828026 
L 169.464944 246.7 
L 171.269566 245.828026 
L 171.269566 246.7 
L 173.074189 245.828026 
L 173.074189 246.7 
L 174.878811 245.828026 
L 174.878811 246.7 
L 176.683433 245.828026 
L 176.683433 246.7 
L 178.488056 245.828026 
L 178.488056 246.7 
L 180.292678 245.828026 
L 180.292678 246.7 
L 182.0973 245.828026 
L 182.0973 246.7 
L 183.901922 245.828026 
L 183.901922 246.7 
L 185.706545 245.828026 
L 185.706545 246.7 
L 187.511167 245.828026 
L 187.511167 246.7 
L 189.315789 245.828026 
L 189.315789 246.7 
L 191.120411 245.828026 
L 191.120411 246.7 
L 192.925034 245.828026 
L 192.925034 246.7 
L 194.729656 245.828026 
L 194.729656 246.7 
L 196.534278 245.828026 
L 196.534278 246.7 
L 198.3389 245.828026 
L 198.3389 246.7 
L 200.143523 245.828026 
L 200.143523 246.7 
L 201.948145 245.828026 
L 201.948145 246.7 
L 203.752767 245.828026 
L 203.752767 246.7 
L 205.55739 245.828026 
L 205.55739 246.7 
L 207.362012 245.828026 
L 207.362012 246.7 
L 209.166634 245.828026 
L 209.166634 246.7 
L 210.971256 245.828026 
L 210.971256 246.7 
L 212.775879 245.828026 
L 212.775879 246.7 
L 214.580501 245.828026 
L 214.580501 246.7 
L 216.385123 245.828026 
L 216.385123 246.7 
L 218.189745 245.828026 
L 218.189745 246.7 
L 219.994368 245.828026 
L 219.994368 246.7 
L 221.79899 245.828026 
L 221.79899 246.7 
L 223.603612 245.828026 
L 223.603612 246.7 
L 225.408234 245.828026 
L 225.408234 246.7 
L 227.212857 245.828026 
L 227.212857 246.7 
L 229.017479 245.828026 
L 229.017479 246.7 
L 230.822101 245.828026 
L 230.822101 246.7 
L 232.626724 245.828026 
L 232.626724 246.7 
L 234.431346 245.828026 
L 234.431346 246.7 
L 236.235968 245.828026 
L 236.235968 246.7 
L 238.04059 245.828026 
L 238.04059 246.7 
L 239.845213 245.828026 
L 239.845213 246.7 
L 241.649835 245.828026 
L 241.649835 246.7 
L 243.454457 245.828026 
L 243.454457 246.7 
L 245.259079 245.828026 
L 245.259079 246.7 
L 247.063702 245.828026 
L 247.063702 246.7 
L 248.868324 245.828026 
L 248.868324 246.7 
L 250.672946 245.828026 
L 250.672946 246.7 
L 252.477568 245.828026 
L 252.477568 246.7 
L 254.282191 245.828026 
L 254.282191 246.7 
L 256.086813 245.828026 
L 256.086813 246.7 
L 257.891435 245.828026 
L 257.891435 246.7 
L 259.696058 245.828026 
L 259.696058 246.7 
L 261.50068 245.828026 
L 261.50068 246.7 
L 263.305302 245.828026 
L 263.305302 246.7 
L 265.109924 245.828026 
L 265.109924 246.7 
L 266.914547 245.828026 
L 266.914547 246.7 
L 268.719169 245.828026 
L 268.719169 246.7 
L 270.523791 245.828026 
L 270.523791 246.7 
L 272.328413 245.828026 
L 272.328413 246.7 
L 274.133036 245.828026 
L 274.133036 246.7 
L 275.937658 245.828026 
L 275.937658 246.7 
L 277.74228 245.828026 
L 277.74228 246.7 
L 279.546902 245.828026 
L 279.546902 246.7 
L 281.351525 245.828026 
L 281.351525 246.7 
L 283.156147 245.828026 
L 283.156147 246.7 
L 284.960769 245.828026 
L 284.960769 246.7 
L 286.765392 245.828026 
L 286.765392 246.7 
L 288.570014 245.828026 
L 288.570014 246.7 
L 290.374636 245.828026 
L 290.374636 246.7 
L 292.179258 245.828026 
L 292.179258 246.7 
L 293.983881 245.828026 
L 293.983881 246.7 
L 295.788503 245.828026 
L 295.788503 246.7 
L 297.593125 245.828026 
L 297.593125 246.7 
L 299.397747 245.828026 
L 299.397747 246.7 
L 301.20237 245.828026 
L 301.20237 246.7 
L 303.006992 245.828026 
L 303.006992 246.7 
L 304.811614 245.828026 
L 304.811614 246.7 
L 306.616236 245.828026 
L 306.616236 246.7 
L 308.420859 245.828026 
L 308.420859 246.7 
L 310.225481 245.828026 
L 310.225481 246.7 
L 312.030103 245.828026 
L 312.030103 246.7 
L 313.834725 245.828026 
L 313.834725 246.7 
L 315.639348 245.828026 
L 315.639348 246.7 
L 317.44397 245.828026 
L 317.44397 246.7 
L 319.248592 245.828026 
L 319.248592 246.7 
L 321.053215 245.828026 
L 321.053215 246.7 
L 322.857837 245.828026 
L 322.857837 246.7 
L 324.662459 245.828026 
L 324.662459 246.7 
L 326.467081 245.828026 
L 326.467081 246.7 
L 328.271704 245.828026 
L 328.271704 246.7 
L 330.076326 245.828026 
L 330.076326 246.7 
L 331.880948 245.828026 
L 331.880948 246.7 
L 333.68557 245.828026 
L 333.68557 246.7 
L 335.490193 245.828026 
L 335.490193 246.7 
L 337.294815 245.828026 
L 337.294815 246.7 
L 339.099437 245.828026 
L 339.099437 246.7 
L 340.904059 245.828026 
L 340.904059 246.7 
L 342.708682 245.828026 
L 342.708682 246.7 
L 344.513304 245.828026 
L 344.513304 246.7 
L 346.317926 245.828026 
L 346.317926 246.7 
L 348.122549 245.828026 
L 348.122549 246.7 
L 349.927171 245.828026 
L 349.927171 246.7 
L 351.731793 245.828026 
L 351.731793 246.7 
L 353.536415 245.828026 
L 353.536415 246.7 
L 355.341038 245.828026 
L 355.341038 246.7 
L 357.14566 245.828026 
L 357.14566 246.7 
L 358.950282 245.828026 
L 358.950282 246.7 
L 360.754904 245.828026 
L 360.754904 246.7 
L 362.559527 245.828026 
L 362.559527 246.7 
L 364.364149 245.828026 
L 364.364149 246.7 
L 366.168771 245.828026 
L 366.168771 246.7 
L 367.973393 245.828026 
L 367.973393 246.7 
L 369.778016 245.828026 
L 369.778016 246.7 
L 371.582638 245.828026 
L 371.582638 246.7 
L 373.38726 245.828026 
L 373.38726 246.7 
L 375.191883 245.828026 
L 375.191883 246.7 
L 376.996505 245.828026 
L 376.996505 246.7 
L 378.801127 245.828026 
L 378.801127 246.7 
L 380.605749 245.828026 
L 380.605749 246.7 
L 382.410372 245.828026 
L 382.410372 246.7 
L 384.214994 245.828026 
L 384.214994 246.7 
L 386.019616 245.828026 
L 386.019616 246.7 
L 387.824238 245.828026 
L 387.824238 246.7 
L 389.628861 245.828026 
L 389.628861 246.7 
L 391.433483 245.828026 
L 391.433483 246.7 
L 393.238105 245.828026 
L 393.238105 246.7 
L 395.042727 245.828026 
L 395.042727 246.7 
L 396.84735 245.828026 
L 396.84735 246.7 
L 398.651972 245.828026 
L 398.651972 246.7 
L 400.456594 245.828026 
L 400.456594 246.7 
L 402.261217 245.828026 
L 402.261217 246.7 
L 404.065839 245.828026 
L 404.065839 246.7 
L 405.870461 245.828026 
L 405.870461 246.7 
L 407.675083 245.828026 
L 407.675083 246.7 
L 409.479706 245.828026 
L 409.479706 246.7 
L 411.284328 245.828026 
L 411.284328 246.7 
L 411.284328 246.7 
" clip-path="url(#p4e4c55d5a2)" style="fill: none; stroke: #9467bd; stroke-width: 1.5; stroke-linecap: square"/>
   </g>
   <g id="patch_3">
    <path d="M 50.76875 246.7 
L 50.76875 25.8 
" style="fill: none; stroke: #000000; stroke-width: 0.8; stroke-linejoin: miter; stroke-linecap: square"/>
   </g>
   <g id="patch_4">
    <path d="M 415.770686 246.7 
L 415.770686 25.8 
" style="fill: none; stroke: #000000; stroke-width: 0.8; stroke-linejoin: miter; stroke-linecap: square"/>
   </g>
   <g id="patch_5">
    <path d="M 50.76875 246.7 
L 415.770686 246.7 
" style="fill: none; stroke: #000000; stroke-width: 0.8; stroke-linejoin: miter; stroke-linecap: square"/>
   </g>
   <g id="patch_6">
    <path d="M 50.76875 25.8 
L 415.770686 25.8 
" style="fill: none; stroke: #000000; stroke-width: 0.8; stroke-linejoin: miter; stroke-linecap: square"/>
   </g>
   <g id="text_18">
    <!-- Tamaos de buffer -->
    <g transform="translate(177.488468 19.8)scale(0.12 -0.12)">
     <defs>
      <path id="DejaVuSans-f1" d="M 3513 2113 
L 3513 0 
L 2938 0 
L 2938 2094 
Q 2938 2591 2744 2837 
Q 2550 3084 2163 3084 
Q 1697 3084 1428 2787 
Q 1159 2491 1159 1978 
L 1159 0 
L 581 0 
L 581 3500 
L 1159 3500 
L 1159 2956 
Q 1366 3272 1645 3428 
Q 1925 3584 2291 3584 
Q 2894 3584 3203 3211 
Q 3513 2838 3513 2113 
z
M 2060 4281 
L 1881 4453 
Q 1813 4516 1761 4545 
Q 1710 4575 1669 4575 
Q 1550 4575 1494 4461 
Q 1438 4347 1431 4091 
L 1041 4091 
Q 1047 4513 1206 4742 
Q 1366 4972 1650 4972 
Q 1769 4972 1869 4928 
Q 1969 4884 2085 4781 
L 2263 4609 
Q 2331 4547 2383 4517 
Q 2435 4488 2475 4488 
Q 2594 4488 2650 4602 
Q 2706 4716 2713 4972 
L 3103 4972 
Q 3097 4550 2937 4320 
Q 2778 4091 2494 4091 
Q 2375 4091 2275 4134 
Q 2175 4178 2060 4281 
z
" transform="scale(0.015625)"/>
      <path id="DejaVuSans-20" transform="scale(0.015625)"/>
      <path id="DejaVuSans-64" d="M 2906 2969 
L 2906 4863 
L 3481 4863 
L 3481 0 
L 2906 0 
L 2906 525 
Q 2725 213 2448 61 
Q 2172 -91 1784 -91 
Q 1150 -91 751 415 
Q 353 922 353 1747 
Q 353 2572 751 3078 
Q 1150 3584 1784 3584 
Q 2172 3584 2448 3432 
Q 2725 3281 2906 2969 
z
M 947 1747 
Q 947 1113 1208 752 
Q 1469 391 1925 391 
Q 2381 391 2643 752 
Q 2906 1113 2906 1747 
Q 2906 2381 2643 2742 
Q 2381 3103 1925 3103 
Q 1469 3103 1208 2742 
Q 947 2381 947 1747 
z
" transform="scale(0.015625)"/>
      <path id="DejaVuSans-62" d="M 3116 1747 
Q 3116 2381 2855 2742 
Q 2594 3103 2138 3103 
Q 1681 3103 1420 2742 
Q 1159 2381 1159 1747 
Q 1159 1113 1420 752 
Q 1681 391 2138 391 
Q 2594 391 2855 752 
Q 3116 1113 3116 1747 
z
M 1159 2969 
Q 1341 3281 1617 3432 
Q 1894 3584 2278 3584 
Q 2916 3584 3314 3078 
Q 3713 2572 3713 1747 
Q 3713 922 3314 415 
Q 2916 -91 2278 -91 
Q 1894 -91 1617 61 
Q 1341 213 1159 525 
L 1159 0 
L 581 0 
L 581 4863 
L 1159 4863 
L 1159 2969 
z
" transform="scale(0.015625)"/>
      <path id="DejaVuSans-66" d="M 2375 4863 
L 2375 4384 
L 1825 4384 
Q 1516 4384 1395 4259 
Q 1275 4134 1275 3809 
L 1275 3500 
L 2222 3500 
L 2222 3053 
L 1275 3053 
L 1275 0 
L 697 0 
L 697 3053 
L 147 3053 
L 147 3500 
L 697 3500 
L 697 3744 
Q 697 4328 969 4595 
Q 1241 4863 1831 4863 
L 2375 4863 
z
" transform="scale(0.015625)"/>
      <path id="DejaVuSans-72" d="M 2631 2963 
Q 2534 3019 2420 3045 
Q 2306 3072 2169 3072 
Q 1681 3072 1420 2755 
Q 1159 2438 1159 1844 
L 1159 0 
L 581 0 
L 581 3500 
L 1159 3500 
L 1159 2956 
Q 1341 3275 1631 3429 
Q 1922 3584 2338 3584 
Q 2397 3584 2469 3576 
Q 2541 3569 2628 3553 
L 2631 2963 
z
" transform="scale(0.015625)"/>
     </defs>
     <use xlink:href="#DejaVuSans-54"/>
     <use xlink:href="#DejaVuSans-61" x="44.583984"/>
     <use xlink:href="#DejaVuSans-6d" x="105.863281"/>
     <use xlink:href="#DejaVuSans-61" x="203.275391"/>
     <use xlink:href="#DejaVuSans-f1" x="264.554688"/>
     <use xlink:href="#DejaVuSans-6f" x="327.933594"/>
     <use xlink:href="#DejaVuSans-73" x="389.115234"/>
     <use xlink:href="#DejaVuSans-20" x="441.214844"/>
     <use xlink:href="#DejaVuSans-64" x="473.001953"/>
     <use xlink:href="#DejaVuSans-65" x="536.478516"/>
     <use xlink:href="#DejaVuSans-20" x="598.001953"/>
     <use xlink:href="#DejaVuSans-62" x="629.789062"/>
     <use xlink:href="#DejaVuSans-75" x="693.265625"/>
     <use xlink:href="#DejaVuSans-66" x="756.644531"/>
     <use xlink:href="#DejaVuSans-66" x="791.849609"/>
     <use xlink:href="#DejaVuSans-65" x="827.054688"/>
     <use xlink:href="#DejaVuSans-72" x="888.578125"/>
    </g>
   </g>
   <g id="legend_1">
    <g id="patch_7">
     <path d="M 260.465998 107.190625 
L 408.770686 107.190625 
Q 410.770686 107.190625 410.770686 105.190625 
L 410.770686 32.8 
Q 410.770686 30.8 408.770686 30.8 
L 260.465998 30.8 
Q 258.465998 30.8 258.465998 32.8 
L 258.465998 105.190625 
Q 258.465998 107.190625 260.465998 107.190625 
z
" style="fill: #ffffff; opacity: 0.8; stroke: #cccccc; stroke-linejoin: miter"/>
    </g>
    <g id="line2d_36">
     <path d="M 262.465998 38.898437 
L 272.465998 38.898437 
L 282.465998 38.898437 
" style="fill: none; stroke: #1f77b4; stroke-width: 1.5; stroke-linecap: square"/>
    </g>
    <g id="text_19">
     <!-- Network.node[0].lnk[0] -->
     <g transform="translate(290.465998 42.398437)scale(0.1 -0.1)">
      <defs>
       <path id="DejaVuSans-4e" d="M 628 4666 
L 1478 4666 
L 3547 763 
L 3547 4666 
L 4159 4666 
L 4159 0 
L 3309 0 
L 1241 3903 
L 1241 0 
L 628 0 
L 628 4666 
z
" transform="scale(0.015625)"/>
       <path id="DejaVuSans-77" d="M 269 3500 
L 844 3500 
L 1563 769 
L 2278 3500 
L 2956 3500 
L 3675 769 
L 4391 3500 
L 4966 3500 
L 4050 0 
L 3372 0 
L 2619 2869 
L 1863 0 
L 1184 0 
L 269 3500 
z
" transform="scale(0.015625)"/>
       <path id="DejaVuSans-6b" d="M 581 4863 
L 1159 4863 
L 1159 1991 
L 2875 3500 
L 3609 3500 
L 1753 1863 
L 3688 0 
L 2938 0 
L 1159 1709 
L 1159 0 
L 581 0 
L 581 4863 
z
" transform="scale(0.015625)"/>
       <path id="DejaVuSans-2e" d="M 684 794 
L 1344 794 
L 1344 0 
L 684 0 
L 684 794 
z
" transform="scale(0.015625)"/>
       <path id="DejaVuSans-6e" d="M 3513 2113 
L 3513 0 
L 2938 0 
L 2938 2094 
Q 2938 2591 2744 2837 
Q 2550 3084 2163 3084 
Q 1697 3084 1428 2787 
Q 1159 2491 1159 1978 
L 1159 0 
L 581 0 
L 581 3500 
L 1159 3500 
L 1159 2956 
Q 1366 3272 1645 3428 
Q 1925 3584 2291 3584 
Q 2894 3584 3203 3211 
Q 3513 2838 3513 2113 
z
" transform="scale(0.015625)"/>
       <path id="DejaVuSans-5b" d="M 550 4863 
L 1875 4863 
L 1875 4416 
L 1125 4416 
L 1125 -397 
L 1875 -397 
L 1875 -844 
L 550 -844 
L 550 4863 
z
" transform="scale(0.015625)"/>
       <path id="DejaVuSans-5d" d="M 1947 4863 
L 1947 -844 
L 622 -844 
L 622 -397 
L 1369 -397 
L 1369 4416 
L 622 4416 
L 622 4863 
L 1947 4863 
z
" transform="scale(0.015625)"/>
       <path id="DejaVuSans-6c" d="M 603 4863 
L 1178 4863 
L 1178 0 
L 603 0 
L 603 4863 
z
" transform="scale(0.015625)"/>
      </defs>
      <use xlink:href="#DejaVuSans-4e"/>
      <use xlink:href="#DejaVuSans-65" x="74.804688"/>
      <use xlink:href="#DejaVuSans-74" x="136.328125"/>
      <use xlink:href="#DejaVuSans-77" x="175.537109"/>
      <use xlink:href="#DejaVuSans-6f" x="257.324219"/>
      <use xlink:href="#DejaVuSans-72" x="318.505859"/>
      <use xlink:href="#DejaVuSans-6b" x="359.619141"/>
      <use xlink:href="#DejaVuSans-2e" x="417.529297"/>
      <use xlink:href="#DejaVuSans-6e" x="449.316406"/>
      <use xlink:href="#DejaVuSans-6f" x="512.695312"/>
      <use xlink:href="#DejaVuSans-64" x="573.876953"/>
      <use xlink:href="#DejaVuSans-65" x="637.353516"/>
      <use xlink:href="#DejaVuSans-5b" x="698.876953"/>
      <use xlink:href="#DejaVuSans-30" x="737.890625"/>
      <use xlink:href="#DejaVuSans-5d" x="801.513672"/>
      <use xlink:href="#DejaVuSans-2e" x="840.527344"/>
      <use xlink:href="#DejaVuSans-6c" x="872.314453"/>
      <use xlink:href="#DejaVuSans-6e" x="900.097656"/>
      <use xlink:href="#DejaVuSans-6b" x="963.476562"/>
      <use xlink:href="#DejaVuSans-5b" x="1021.386719"/>
      <use xlink:href="#DejaVuSans-30" x="1060.400391"/>
      <use xlink:href="#DejaVuSans-5d" x="1124.023438"/>
     </g>
    </g>
    <g id="line2d_37">
     <path d="M 262.465998 53.576562 
L 272.465998 53.576562 
L 282.465998 53.576562 
" style="fill: none; stroke: #ff7f0e; stroke-width: 1.5; stroke-linecap: square"/>
    </g>
    <g id="text_20">
     <!-- Network.node[1].lnk[0] -->
     <g transform="translate(290.465998 57.076562)scale(0.1 -0.1)">
      <use xlink:href="#DejaVuSans-4e"/>
      <use xlink:href="#DejaVuSans-65" x="74.804688"/>
      <use xlink:href="#DejaVuSans-74" x="136.328125"/>
      <use xlink:href="#DejaVuSans-77" x="175.537109"/>
      <use xlink:href="#DejaVuSans-6f" x="257.324219"/>
      <use xlink:href="#DejaVuSans-72" x="318.505859"/>
      <use xlink:href="#DejaVuSans-6b" x="359.619141"/>
      <use xlink:href="#DejaVuSans-2e" x="417.529297"/>
      <use xlink:href="#DejaVuSans-6e" x="449.316406"/>
      <use xlink:href="#DejaVuSans-6f" x="512.695312"/>
      <use xlink:href="#DejaVuSans-64" x="573.876953"/>
      <use xlink:href="#DejaVuSans-65" x="637.353516"/>
      <use xlink:href="#DejaVuSans-5b" x="698.876953"/>
      <use xlink:href="#DejaVuSans-31" x="737.890625"/>
      <use xlink:href="#DejaVuSans-5d" x="801.513672"/>
      <use xlink:href="#DejaVuSans-2e" x="840.527344"/>
      <use xlink:href="#DejaVuSans-6c" x="872.314453"/>
      <use xlink:href="#DejaVuSans-6e" x="900.097656"/>
      <use xlink:href="#DejaVuSans-6b" x="963.476562"/>
      <use xlink:href="#DejaVuSans-5b" x="1021.386719"/>
      <use xlink:href="#DejaVuSans-30" x="1060.400391"/>
      <use xlink:href="#DejaVuSans-5d" x="1124.023438"/>
     </g>
    </g>
    <g id="line2d_38">
     <path d="M 262.465998 68.254687 
L 272.465998 68.254687 
L 282.465998 68.254687 
" style="fill: none; stroke: #2ca02c; stroke-width: 1.5; stroke-linecap: square"/>
    </g>
    <g id="text_21">
     <!-- Network.node[2].lnk[0] -->
     <g transform="translate(290.465998 71.754687)scale(0.1 -0.1)">
      <use xlink:href="#DejaVuSans-4e"/>
      <use xlink:href="#DejaVuSans-65" x="74.804688"/>
      <use xlink:href="#DejaVuSans-74" x="136.328125"/>
      <use xlink:href="#DejaVuSans-77" x="175.537109"/>
      <use xlink:href="#DejaVuSans-6f" x="257.324219"/>
      <use xlink:href="#DejaVuSans-72" x="318.505859"/>
      <use xlink:href="#DejaVuSans-6b" x="359.619141"/>
      <use xlink:href="#DejaVuSans-2e" x="417.529297"/>
      <use xlink:href="#DejaVuSans-6e" x="449.316406"/>
      <use xlink:href="#DejaVuSans-6f" x="512.695312"/>
      <use xlink:href="#DejaVuSans-64" x="573.876953"/>
      <use xlink:href="#DejaVuSans-65" x="637.353516"/>
      <use xlink:href="#DejaVuSans-5b" x="698.876953"/>
      <use xlink:href="#DejaVuSans-32" x="737.890625"/>
      <use xlink:href="#DejaVuSans-5d" x="801.513672"/>
      <use xlink:href="#DejaVuSans-2e" x="840.527344"/>
      <use xlink:href="#DejaVuSans-6c" x="872.314453"/>
      <use xlink:href="#DejaVuSans-6e" x="900.097656"/>
      <use xlink:href="#DejaVuSans-6b" x="963.476562"/>
      <use xlink:href="#DejaVuSans-5b" x="1021.386719"/>
      <use xlink:href="#DejaVuSans-30" x="1060.400391"/>
      <use xlink:href="#DejaVuSans-5d" x="1124.023438"/>
     </g>
    </g>
    <g id="line2d_39">
     <path d="M 262.465998 82.932812 
L 272.465998 82.932812 
L 282.465998 82.932812 
" style="fill: none; stroke: #d62728; stroke-width: 1.5; stroke-linecap: square"/>
    </g>
    <g id="text_22">
     <!-- Network.node[6].lnk[0] -->
     <g transform="translate(290.465998 86.432812)scale(0.1 -0.1)">
      <defs>
       <path id="DejaVuSans-36" d="M 2113 2584 
Q 1688 2584 1439 2293 
Q 1191 2003 1191 1497 
Q 1191 994 1439 701 
Q 1688 409 2113 409 
Q 2538 409 2786 701 
Q 3034 994 3034 1497 
Q 3034 2003 2786 2293 
Q 2538 2584 2113 2584 
z
M 3366 4563 
L 3366 3988 
Q 3128 4100 2886 4159 
Q 2644 4219 2406 4219 
Q 1781 4219 1451 3797 
Q 1122 3375 1075 2522 
Q 1259 2794 1537 2939 
Q 1816 3084 2150 3084 
Q 2853 3084 3261 2657 
Q 3669 2231 3669 1497 
Q 3669 778 3244 343 
Q 2819 -91 2113 -91 
Q 1303 -91 875 529 
Q 447 1150 447 2328 
Q 447 3434 972 4092 
Q 1497 4750 2381 4750 
Q 2619 4750 2861 4703 
Q 3103 4656 3366 4563 
z
" transform="scale(0.015625)"/>
      </defs>
      <use xlink:href="#DejaVuSans-4e"/>
      <use xlink:href="#DejaVuSans-65" x="74.804688"/>
      <use xlink:href="#DejaVuSans-74" x="136.328125"/>
      <use xlink:href="#DejaVuSans-77" x="175.537109"/>
      <use xlink:href="#DejaVuSans-6f" x="257.324219"/>
      <use xlink:href="#DejaVuSans-72" x="318.505859"/>
      <use xlink:href="#DejaVuSans-6b" x="359.619141"/>
      <use xlink:href="#DejaVuSans-2e" x="417.529297"/>
      <use xlink:href="#DejaVuSans-6e" x="449.316406"/>
      <use xlink:href="#DejaVuSans-6f" x="512.695312"/>
      <use xlink:href="#DejaVuSans-64" x="573.876953"/>
      <use xlink:href="#DejaVuSans-65" x="637.353516"/>
      <use xlink:href="#DejaVuSans-5b" x="698.876953"/>
      <use xlink:href="#DejaVuSans-36" x="737.890625"/>
      <use xlink:href="#DejaVuSans-5d" x="801.513672"/>
      <use xlink:href="#DejaVuSans-2e" x="840.527344"/>
      <use xlink:href="#DejaVuSans-6c" x="872.314453"/>
      <use xlink:href="#DejaVuSans-6e" x="900.097656"/>
      <use xlink:href="#DejaVuSans-6b" x="963.476562"/>
      <use xlink:href="#DejaVuSans-5b" x="1021.386719"/>
      <use xlink:href="#DejaVuSans-30" x="1060.400391"/>
      <use xlink:href="#DejaVuSans-5d" x="1124.023438"/>
     </g>
    </g>
    <g id="line2d_40">
     <path d="M 262.465998 97.610937 
L 272.465998 97.610937 
L 282.465998 97.610937 
" style="fill: none; stroke: #9467bd; stroke-width: 1.5; stroke-linecap: square"/>
    </g>
    <g id="text_23">
     <!-- Network.node[7].lnk[0] -->
     <g transform="translate(290.465998 101.110937)scale(0.1 -0.1)">
      <use xlink:href="#DejaVuSans-4e"/>
      <use xlink:href="#DejaVuSans-65" x="74.804688"/>
      <use xlink:href="#DejaVuSans-74" x="136.328125"/>
      <use xlink:href="#DejaVuSans-77" x="175.537109"/>
      <use xlink:href="#DejaVuSans-6f" x="257.324219"/>
      <use xlink:href="#DejaVuSans-72" x="318.505859"/>
      <use xlink:href="#DejaVuSans-6b" x="359.619141"/>
      <use xlink:href="#DejaVuSans-2e" x="417.529297"/>
      <use xlink:href="#DejaVuSans-6e" x="449.316406"/>
      <use xlink:href="#DejaVuSans-6f" x="512.695312"/>
      <use xlink:href="#DejaVuSans-64" x="573.876953"/>
      <use xlink:href="#DejaVuSans-65" x="637.353516"/>
      <use xlink:href="#DejaVuSans-5b" x="698.876953"/>
      <use xlink:href="#DejaVuSans-37" x="737.890625"/>
      <use xlink:href="#DejaVuSans-5d" x="801.513672"/>
      <use xlink:href="#DejaVuSans-2e" x="840.527344"/>
      <use xlink:href="#DejaVuSans-6c" x="872.314453"/>
      <use xlink:href="#DejaVuSans-6e" x="900.097656"/>
      <use xlink:href="#DejaVuSans-6b" x="963.476562"/>
      <use xlink:href="#DejaVuSans-5b" x="1021.386719"/>
      <use xlink:href="#DejaVuSans-30" x="1060.400391"/>
      <use xlink:href="#DejaVuSans-5d" x="1124.023438"/>
     </g>
    </g>
   </g>
  </g>
 </g>
 <defs>
  <clipPath id="p4e4c55d5a2">
   <rect x="50.76875" y="25.8" width="365.001936" height="220.9"/>
  </clipPath>
 </defs>
</svg>
