<?xml version="1.0" encoding="utf-8" standalone="no"?>
<!DOCTYPE svg PUBLIC "-//W3C//DTD SVG 1.1//EN"
  "http://www.w3.org/Graphics/SVG/1.1/DTD/svg11.dtd">
<svg xmlns:xlink="http://www.w3.org/1999/xlink" width="432pt" height="288pt" viewBox="0 0 432 288" xmlns="http://www.w3.org/2000/svg" version="1.1">
 <metadata>
  <rdf:RDF xmlns:dc="http://purl.org/dc/elements/1.1/" xmlns:cc="http://creativecommons.org/ns#" xmlns:rdf="http://www.w3.org/1999/02/22-rdf-syntax-ns#">
   <cc:Work>
    <dc:type rdf:resource="http://purl.org/dc/dcmitype/StillImage"/>
    <dc:date>2022-06-05T09:03:12.904562</dc:date>
    <dc:format>image/svg+xml</dc:format>
    <dc:creator>
     <cc:Agent>
      <dc:title>omnetpp.scave 6.0.0; Matplotlib 3.5.1 w/ backend GTK3Agg; Pandas 1.4.2; Python 3.8.10; Linux-5.4.0-109-generic-x86_64-with-glibc2.29</dc:title>
     </cc:Agent>
    </dc:creator>
   </cc:Work>
  </rdf:RDF>
 </metadata>
 <defs>
  <style type="text/css">*{stroke-linejoin: round; stroke-linecap: butt}</style>
 </defs>
 <g id="figure_1">
  <g id="patch_1">
   <path d="M 0 288 
L 432 288 
L 432 0 
L 0 0 
z
" style="fill: #ffffff"/>
  </g>
  <g id="axes_1">
   <g id="patch_2">
    <path d="M 30.64375 260.45 
L 415.763134 260.45 
L 415.763134 25.8 
L 30.64375 25.8 
z
" style="fill: #ffffff"/>
   </g>
   <g id="matplotlib.axis_1">
    <g id="xtick_1">
     <g id="line2d_1">
      <path d="M 30.64375 260.45 
L 30.64375 25.8 
" clip-path="url(#pd75ead718c)" style="fill: none; stroke: #b0b0b0; stroke-width: 0.8; stroke-linecap: square"/>
     </g>
     <g id="line2d_2">
      <defs>
       <path id="m2f2df1125d" d="M 0 0 
L 0 3.5 
" style="stroke: #000000; stroke-width: 0.8"/>
      </defs>
      <g>
       <use xlink:href="#m2f2df1125d" x="30.64375" y="260.45" style="stroke: #000000; stroke-width: 0.8"/>
      </g>
     </g>
     <g id="text_1">
      <!-- 0 -->
      <g transform="translate(27.4625 275.048437)scale(0.1 -0.1)">
       <defs>
        <path id="DejaVuSans-30" d="M 2034 4250 
Q 1547 4250 1301 3770 
Q 1056 3291 1056 2328 
Q 1056 1369 1301 889 
Q 1547 409 2034 409 
Q 2525 409 2770 889 
Q 3016 1369 3016 2328 
Q 3016 3291 2770 3770 
Q 2525 4250 2034 4250 
z
M 2034 4750 
Q 2819 4750 3233 4129 
Q 3647 3509 3647 2328 
Q 3647 1150 3233 529 
Q 2819 -91 2034 -91 
Q 1250 -91 836 529 
Q 422 1150 422 2328 
Q 422 3509 836 4129 
Q 1250 4750 2034 4750 
z
" transform="scale(0.015625)"/>
       </defs>
       <use xlink:href="#DejaVuSans-30"/>
      </g>
     </g>
    </g>
    <g id="xtick_2">
     <g id="line2d_3">
      <path d="M 78.272946 260.45 
L 78.272946 25.8 
" clip-path="url(#pd75ead718c)" style="fill: none; stroke: #b0b0b0; stroke-width: 0.8; stroke-linecap: square"/>
     </g>
     <g id="line2d_4">
      <g>
       <use xlink:href="#m2f2df1125d" x="78.272946" y="260.45" style="stroke: #000000; stroke-width: 0.8"/>
      </g>
     </g>
     <g id="text_2">
      <!-- 25 -->
      <g transform="translate(71.910446 275.048437)scale(0.1 -0.1)">
       <defs>
        <path id="DejaVuSans-32" d="M 1228 531 
L 3431 531 
L 3431 0 
L 469 0 
L 469 531 
Q 828 903 1448 1529 
Q 2069 2156 2228 2338 
Q 2531 2678 2651 2914 
Q 2772 3150 2772 3378 
Q 2772 3750 2511 3984 
Q 2250 4219 1831 4219 
Q 1534 4219 1204 4116 
Q 875 4013 500 3803 
L 500 4441 
Q 881 4594 1212 4672 
Q 1544 4750 1819 4750 
Q 2544 4750 2975 4387 
Q 3406 4025 3406 3419 
Q 3406 3131 3298 2873 
Q 3191 2616 2906 2266 
Q 2828 2175 2409 1742 
Q 1991 1309 1228 531 
z
" transform="scale(0.015625)"/>
        <path id="DejaVuSans-35" d="M 691 4666 
L 3169 4666 
L 3169 4134 
L 1269 4134 
L 1269 2991 
Q 1406 3038 1543 3061 
Q 1681 3084 1819 3084 
Q 2600 3084 3056 2656 
Q 3513 2228 3513 1497 
Q 3513 744 3044 326 
Q 2575 -91 1722 -91 
Q 1428 -91 1123 -41 
Q 819 9 494 109 
L 494 744 
Q 775 591 1075 516 
Q 1375 441 1709 441 
Q 2250 441 2565 725 
Q 2881 1009 2881 1497 
Q 2881 1984 2565 2268 
Q 2250 2553 1709 2553 
Q 1456 2553 1204 2497 
Q 953 2441 691 2322 
L 691 4666 
z
" transform="scale(0.015625)"/>
       </defs>
       <use xlink:href="#DejaVuSans-32"/>
       <use xlink:href="#DejaVuSans-35" x="63.623047"/>
      </g>
     </g>
    </g>
    <g id="xtick_3">
     <g id="line2d_5">
      <path d="M 125.902141 260.45 
L 125.902141 25.8 
" clip-path="url(#pd75ead718c)" style="fill: none; stroke: #b0b0b0; stroke-width: 0.8; stroke-linecap: square"/>
     </g>
     <g id="line2d_6">
      <g>
       <use xlink:href="#m2f2df1125d" x="125.902141" y="260.45" style="stroke: #000000; stroke-width: 0.8"/>
      </g>
     </g>
     <g id="text_3">
      <!-- 50 -->
      <g transform="translate(119.539641 275.048437)scale(0.1 -0.1)">
       <use xlink:href="#DejaVuSans-35"/>
       <use xlink:href="#DejaVuSans-30" x="63.623047"/>
      </g>
     </g>
    </g>
    <g id="xtick_4">
     <g id="line2d_7">
      <path d="M 173.531337 260.45 
L 173.531337 25.8 
" clip-path="url(#pd75ead718c)" style="fill: none; stroke: #b0b0b0; stroke-width: 0.8; stroke-linecap: square"/>
     </g>
     <g id="line2d_8">
      <g>
       <use xlink:href="#m2f2df1125d" x="173.531337" y="260.45" style="stroke: #000000; stroke-width: 0.8"/>
      </g>
     </g>
     <g id="text_4">
      <!-- 75 -->
      <g transform="translate(167.168837 275.048437)scale(0.1 -0.1)">
       <defs>
        <path id="DejaVuSans-37" d="M 525 4666 
L 3525 4666 
L 3525 4397 
L 1831 0 
L 1172 0 
L 2766 4134 
L 525 4134 
L 525 4666 
z
" transform="scale(0.015625)"/>
       </defs>
       <use xlink:href="#DejaVuSans-37"/>
       <use xlink:href="#DejaVuSans-35" x="63.623047"/>
      </g>
     </g>
    </g>
    <g id="xtick_5">
     <g id="line2d_9">
      <path d="M 221.160533 260.45 
L 221.160533 25.8 
" clip-path="url(#pd75ead718c)" style="fill: none; stroke: #b0b0b0; stroke-width: 0.8; stroke-linecap: square"/>
     </g>
     <g id="line2d_10">
      <g>
       <use xlink:href="#m2f2df1125d" x="221.160533" y="260.45" style="stroke: #000000; stroke-width: 0.8"/>
      </g>
     </g>
     <g id="text_5">
      <!-- 100 -->
      <g transform="translate(211.616783 275.048437)scale(0.1 -0.1)">
       <defs>
        <path id="DejaVuSans-31" d="M 794 531 
L 1825 531 
L 1825 4091 
L 703 3866 
L 703 4441 
L 1819 4666 
L 2450 4666 
L 2450 531 
L 3481 531 
L 3481 0 
L 794 0 
L 794 531 
z
" transform="scale(0.015625)"/>
       </defs>
       <use xlink:href="#DejaVuSans-31"/>
       <use xlink:href="#DejaVuSans-30" x="63.623047"/>
       <use xlink:href="#DejaVuSans-30" x="127.246094"/>
      </g>
     </g>
    </g>
    <g id="xtick_6">
     <g id="line2d_11">
      <path d="M 268.789728 260.45 
L 268.789728 25.8 
" clip-path="url(#pd75ead718c)" style="fill: none; stroke: #b0b0b0; stroke-width: 0.8; stroke-linecap: square"/>
     </g>
     <g id="line2d_12">
      <g>
       <use xlink:href="#m2f2df1125d" x="268.789728" y="260.45" style="stroke: #000000; stroke-width: 0.8"/>
      </g>
     </g>
     <g id="text_6">
      <!-- 125 -->
      <g transform="translate(259.245978 275.048437)scale(0.1 -0.1)">
       <use xlink:href="#DejaVuSans-31"/>
       <use xlink:href="#DejaVuSans-32" x="63.623047"/>
       <use xlink:href="#DejaVuSans-35" x="127.246094"/>
      </g>
     </g>
    </g>
    <g id="xtick_7">
     <g id="line2d_13">
      <path d="M 316.418924 260.45 
L 316.418924 25.8 
" clip-path="url(#pd75ead718c)" style="fill: none; stroke: #b0b0b0; stroke-width: 0.8; stroke-linecap: square"/>
     </g>
     <g id="line2d_14">
      <g>
       <use xlink:href="#m2f2df1125d" x="316.418924" y="260.45" style="stroke: #000000; stroke-width: 0.8"/>
      </g>
     </g>
     <g id="text_7">
      <!-- 150 -->
      <g transform="translate(306.875174 275.048437)scale(0.1 -0.1)">
       <use xlink:href="#DejaVuSans-31"/>
       <use xlink:href="#DejaVuSans-35" x="63.623047"/>
       <use xlink:href="#DejaVuSans-30" x="127.246094"/>
      </g>
     </g>
    </g>
    <g id="xtick_8">
     <g id="line2d_15">
      <path d="M 364.04812 260.45 
L 364.04812 25.8 
" clip-path="url(#pd75ead718c)" style="fill: none; stroke: #b0b0b0; stroke-width: 0.8; stroke-linecap: square"/>
     </g>
     <g id="line2d_16">
      <g>
       <use xlink:href="#m2f2df1125d" x="364.04812" y="260.45" style="stroke: #000000; stroke-width: 0.8"/>
      </g>
     </g>
     <g id="text_8">
      <!-- 175 -->
      <g transform="translate(354.50437 275.048437)scale(0.1 -0.1)">
       <use xlink:href="#DejaVuSans-31"/>
       <use xlink:href="#DejaVuSans-37" x="63.623047"/>
       <use xlink:href="#DejaVuSans-35" x="127.246094"/>
      </g>
     </g>
    </g>
    <g id="xtick_9">
     <g id="line2d_17">
      <path d="M 411.677316 260.45 
L 411.677316 25.8 
" clip-path="url(#pd75ead718c)" style="fill: none; stroke: #b0b0b0; stroke-width: 0.8; stroke-linecap: square"/>
     </g>
     <g id="line2d_18">
      <g>
       <use xlink:href="#m2f2df1125d" x="411.677316" y="260.45" style="stroke: #000000; stroke-width: 0.8"/>
      </g>
     </g>
     <g id="text_9">
      <!-- 200 -->
      <g transform="translate(402.133566 275.048437)scale(0.1 -0.1)">
       <use xlink:href="#DejaVuSans-32"/>
       <use xlink:href="#DejaVuSans-30" x="63.623047"/>
       <use xlink:href="#DejaVuSans-30" x="127.246094"/>
      </g>
     </g>
    </g>
   </g>
   <g id="matplotlib.axis_2">
    <g id="ytick_1">
     <g id="line2d_19">
      <path d="M 30.64375 260.45 
L 415.763134 260.45 
" clip-path="url(#pd75ead718c)" style="fill: none; stroke: #b0b0b0; stroke-width: 0.8; stroke-linecap: square"/>
     </g>
     <g id="line2d_20">
      <defs>
       <path id="mfcc9b1e334" d="M 0 0 
L -3.5 0 
" style="stroke: #000000; stroke-width: 0.8"/>
      </defs>
      <g>
       <use xlink:href="#mfcc9b1e334" x="30.64375" y="260.45" style="stroke: #000000; stroke-width: 0.8"/>
      </g>
     </g>
     <g id="text_10">
      <!-- 0 -->
      <g transform="translate(17.28125 264.249219)scale(0.1 -0.1)">
       <use xlink:href="#DejaVuSans-30"/>
      </g>
     </g>
    </g>
    <g id="ytick_2">
     <g id="line2d_21">
      <path d="M 30.64375 225.2525 
L 415.763134 225.2525 
" clip-path="url(#pd75ead718c)" style="fill: none; stroke: #b0b0b0; stroke-width: 0.8; stroke-linecap: square"/>
     </g>
     <g id="line2d_22">
      <g>
       <use xlink:href="#mfcc9b1e334" x="30.64375" y="225.2525" style="stroke: #000000; stroke-width: 0.8"/>
      </g>
     </g>
     <g id="text_11">
      <!-- 2 -->
      <g transform="translate(17.28125 229.051719)scale(0.1 -0.1)">
       <use xlink:href="#DejaVuSans-32"/>
      </g>
     </g>
    </g>
    <g id="ytick_3">
     <g id="line2d_23">
      <path d="M 30.64375 190.055 
L 415.763134 190.055 
" clip-path="url(#pd75ead718c)" style="fill: none; stroke: #b0b0b0; stroke-width: 0.8; stroke-linecap: square"/>
     </g>
     <g id="line2d_24">
      <g>
       <use xlink:href="#mfcc9b1e334" x="30.64375" y="190.055" style="stroke: #000000; stroke-width: 0.8"/>
      </g>
     </g>
     <g id="text_12">
      <!-- 4 -->
      <g transform="translate(17.28125 193.854219)scale(0.1 -0.1)">
       <defs>
        <path id="DejaVuSans-34" d="M 2419 4116 
L 825 1625 
L 2419 1625 
L 2419 4116 
z
M 2253 4666 
L 3047 4666 
L 3047 1625 
L 3713 1625 
L 3713 1100 
L 3047 1100 
L 3047 0 
L 2419 0 
L 2419 1100 
L 313 1100 
L 313 1709 
L 2253 4666 
z
" transform="scale(0.015625)"/>
       </defs>
       <use xlink:href="#DejaVuSans-34"/>
      </g>
     </g>
    </g>
    <g id="ytick_4">
     <g id="line2d_25">
      <path d="M 30.64375 154.8575 
L 415.763134 154.8575 
" clip-path="url(#pd75ead718c)" style="fill: none; stroke: #b0b0b0; stroke-width: 0.8; stroke-linecap: square"/>
     </g>
     <g id="line2d_26">
      <g>
       <use xlink:href="#mfcc9b1e334" x="30.64375" y="154.8575" style="stroke: #000000; stroke-width: 0.8"/>
      </g>
     </g>
     <g id="text_13">
      <!-- 6 -->
      <g transform="translate(17.28125 158.656719)scale(0.1 -0.1)">
       <defs>
        <path id="DejaVuSans-36" d="M 2113 2584 
Q 1688 2584 1439 2293 
Q 1191 2003 1191 1497 
Q 1191 994 1439 701 
Q 1688 409 2113 409 
Q 2538 409 2786 701 
Q 3034 994 3034 1497 
Q 3034 2003 2786 2293 
Q 2538 2584 2113 2584 
z
M 3366 4563 
L 3366 3988 
Q 3128 4100 2886 4159 
Q 2644 4219 2406 4219 
Q 1781 4219 1451 3797 
Q 1122 3375 1075 2522 
Q 1259 2794 1537 2939 
Q 1816 3084 2150 3084 
Q 2853 3084 3261 2657 
Q 3669 2231 3669 1497 
Q 3669 778 3244 343 
Q 2819 -91 2113 -91 
Q 1303 -91 875 529 
Q 447 1150 447 2328 
Q 447 3434 972 4092 
Q 1497 4750 2381 4750 
Q 2619 4750 2861 4703 
Q 3103 4656 3366 4563 
z
" transform="scale(0.015625)"/>
       </defs>
       <use xlink:href="#DejaVuSans-36"/>
      </g>
     </g>
    </g>
    <g id="ytick_5">
     <g id="line2d_27">
      <path d="M 30.64375 119.66 
L 415.763134 119.66 
" clip-path="url(#pd75ead718c)" style="fill: none; stroke: #b0b0b0; stroke-width: 0.8; stroke-linecap: square"/>
     </g>
     <g id="line2d_28">
      <g>
       <use xlink:href="#mfcc9b1e334" x="30.64375" y="119.66" style="stroke: #000000; stroke-width: 0.8"/>
      </g>
     </g>
     <g id="text_14">
      <!-- 8 -->
      <g transform="translate(17.28125 123.459219)scale(0.1 -0.1)">
       <defs>
        <path id="DejaVuSans-38" d="M 2034 2216 
Q 1584 2216 1326 1975 
Q 1069 1734 1069 1313 
Q 1069 891 1326 650 
Q 1584 409 2034 409 
Q 2484 409 2743 651 
Q 3003 894 3003 1313 
Q 3003 1734 2745 1975 
Q 2488 2216 2034 2216 
z
M 1403 2484 
Q 997 2584 770 2862 
Q 544 3141 544 3541 
Q 544 4100 942 4425 
Q 1341 4750 2034 4750 
Q 2731 4750 3128 4425 
Q 3525 4100 3525 3541 
Q 3525 3141 3298 2862 
Q 3072 2584 2669 2484 
Q 3125 2378 3379 2068 
Q 3634 1759 3634 1313 
Q 3634 634 3220 271 
Q 2806 -91 2034 -91 
Q 1263 -91 848 271 
Q 434 634 434 1313 
Q 434 1759 690 2068 
Q 947 2378 1403 2484 
z
M 1172 3481 
Q 1172 3119 1398 2916 
Q 1625 2713 2034 2713 
Q 2441 2713 2670 2916 
Q 2900 3119 2900 3481 
Q 2900 3844 2670 4047 
Q 2441 4250 2034 4250 
Q 1625 4250 1398 4047 
Q 1172 3844 1172 3481 
z
" transform="scale(0.015625)"/>
       </defs>
       <use xlink:href="#DejaVuSans-38"/>
      </g>
     </g>
    </g>
    <g id="ytick_6">
     <g id="line2d_29">
      <path d="M 30.64375 84.4625 
L 415.763134 84.4625 
" clip-path="url(#pd75ead718c)" style="fill: none; stroke: #b0b0b0; stroke-width: 0.8; stroke-linecap: square"/>
     </g>
     <g id="line2d_30">
      <g>
       <use xlink:href="#mfcc9b1e334" x="30.64375" y="84.4625" style="stroke: #000000; stroke-width: 0.8"/>
      </g>
     </g>
     <g id="text_15">
      <!-- 10 -->
      <g transform="translate(10.91875 88.261719)scale(0.1 -0.1)">
       <use xlink:href="#DejaVuSans-31"/>
       <use xlink:href="#DejaVuSans-30" x="63.623047"/>
      </g>
     </g>
    </g>
    <g id="ytick_7">
     <g id="line2d_31">
      <path d="M 30.64375 49.265 
L 415.763134 49.265 
" clip-path="url(#pd75ead718c)" style="fill: none; stroke: #b0b0b0; stroke-width: 0.8; stroke-linecap: square"/>
     </g>
     <g id="line2d_32">
      <g>
       <use xlink:href="#mfcc9b1e334" x="30.64375" y="49.265" style="stroke: #000000; stroke-width: 0.8"/>
      </g>
     </g>
     <g id="text_16">
      <!-- 12 -->
      <g transform="translate(10.91875 53.064219)scale(0.1 -0.1)">
       <use xlink:href="#DejaVuSans-31"/>
       <use xlink:href="#DejaVuSans-32" x="63.623047"/>
      </g>
     </g>
    </g>
   </g>
   <g id="line2d_33">
    <path d="M 30.64375 242.85125 
L 30.64375 260.45 
L 30.64519 260.45 
L 32.355658 242.85125 
L 32.355658 260.45 
L 34.114553 242.85125 
L 34.260826 260.45 
L 37.832575 242.85125 
L 37.832575 260.45 
L 38.882415 242.85125 
L 39.737743 260.45 
L 40.743776 242.85125 
L 41.64291 260.45 
L 41.668026 242.85125 
L 42.340854 225.2525 
L 42.452086 207.65375 
L 43.548078 225.2525 
L 47.358414 260.45 
L 48.767551 242.85125 
L 49.263582 260.45 
L 51.756561 242.85125 
L 51.756561 260.45 
L 53.190532 242.85125 
L 53.661729 260.45 
L 54.789792 242.85125 
L 55.566897 260.45 
L 58.235039 242.85125 
L 58.235039 260.45 
L 58.375422 242.85125 
L 59.159547 225.2525 
L 59.333224 207.65375 
L 60.140207 225.2525 
L 61.323386 207.65375 
L 62.045375 225.2525 
L 65.85571 260.45 
L 67.324989 242.85125 
L 67.760878 260.45 
L 71.213231 242.85125 
L 71.213231 260.45 
L 72.435795 242.85125 
L 73.118399 260.45 
L 75.494045 242.85125 
L 75.494045 260.45 
L 78.56899 242.85125 
L 78.56899 260.45 
L 79.969221 242.85125 
L 80.474158 260.45 
L 82.133375 242.85125 
L 82.373187 225.2525 
L 82.379326 242.85125 
L 84.284494 260.45 
L 84.80271 242.85125 
L 85.097496 225.2525 
L 86.189661 242.85125 
L 86.566065 225.2525 
L 88.094829 242.85125 
L 89.274003 225.2525 
L 89.999997 242.85125 
L 90.679688 225.2525 
L 90.892964 207.65375 
L 91.905165 225.2525 
L 91.913307 207.65375 
L 92.498728 190.055 
L 92.891579 172.45625 
L 93.810333 190.055 
L 95.435531 172.45625 
L 95.715501 190.055 
L 96.595936 172.45625 
L 96.872715 154.8575 
L 96.908853 137.25875 
L 97.620668 154.8575 
L 97.655242 137.25875 
L 99.486834 119.66 
L 99.525836 137.25875 
L 99.965873 119.66 
L 100.896656 102.06125 
L 101.431004 119.66 
L 105.24134 154.8575 
L 106.379567 137.25875 
L 107.146508 154.8575 
L 107.518374 137.25875 
L 108.367162 119.66 
L 109.051675 137.25875 
L 109.461742 119.66 
L 110.956843 137.25875 
L 112.862011 154.8575 
L 113.893831 137.25875 
L 114.767179 154.8575 
L 115.987444 137.25875 
L 116.672347 154.8575 
L 118.004701 137.25875 
L 118.577514 154.8575 
L 120.120575 137.25875 
L 120.383543 119.66 
L 120.482682 137.25875 
L 122.38785 154.8575 
L 123.029903 137.25875 
L 123.891233 119.66 
L 124.293018 137.25875 
L 125.50001 119.66 
L 126.198186 137.25875 
L 133.818857 207.65375 
L 133.986574 190.055 
L 134.432957 172.45625 
L 135.724025 190.055 
L 136.353403 172.45625 
L 137.629193 190.055 
L 138.370486 172.45625 
L 139.534361 190.055 
L 140.588094 154.8575 
L 141.439528 172.45625 
L 141.607482 154.8575 
L 142.803816 137.25875 
L 143.344696 154.8575 
L 144.030327 137.25875 
L 144.564302 119.66 
L 145.249864 137.25875 
L 146.425392 119.66 
L 147.155032 137.25875 
L 147.211276 119.66 
L 149.0602 137.25875 
L 149.529455 102.06125 
L 150.965368 119.66 
L 152.399848 102.06125 
L 152.870535 119.66 
L 153.276252 102.06125 
L 154.775703 119.66 
L 155.345777 102.06125 
L 156.680871 119.66 
L 158.586039 137.25875 
L 158.623298 119.66 
L 160.491207 137.25875 
L 160.94922 102.06125 
L 162.396375 119.66 
L 166.20671 154.8575 
L 167.757506 137.25875 
L 168.111878 154.8575 
L 170.017046 172.45625 
L 171.768496 154.8575 
L 171.877714 137.25875 
L 171.922214 154.8575 
L 173.646621 137.25875 
L 173.827381 154.8575 
L 174.78962 137.25875 
L 175.732549 154.8575 
L 177.350633 137.25875 
L 177.46526 102.06125 
L 177.637717 119.66 
L 178.575742 102.06125 
L 179.542885 119.66 
L 185.258388 172.45625 
L 185.989836 154.8575 
L 187.00888 137.25875 
L 187.163556 154.8575 
L 190.973892 190.055 
L 191.779252 172.45625 
L 192.87906 190.055 
L 193.365959 172.45625 
L 194.784228 190.055 
L 196.689395 207.65375 
L 197.182468 190.055 
L 197.370414 172.45625 
L 198.594563 190.055 
L 200.499731 207.65375 
L 202.21012 190.055 
L 202.375433 172.45625 
L 202.404899 190.055 
L 206.215235 225.2525 
L 207.42271 207.65375 
L 207.691968 190.055 
L 208.120402 207.65375 
L 209.676735 190.055 
L 210.02557 207.65375 
L 211.930738 225.2525 
L 212.077121 207.65375 
L 213.313902 172.45625 
L 213.699414 154.8575 
L 213.835906 172.45625 
L 215.381923 154.8575 
L 215.420621 137.25875 
L 215.741074 154.8575 
L 215.764032 137.25875 
L 217.646242 154.8575 
L 219.128065 137.25875 
L 219.551409 154.8575 
L 220.73428 137.25875 
L 221.456577 154.8575 
L 223.265787 137.25875 
L 223.361745 154.8575 
L 224.347739 137.25875 
L 224.892657 119.66 
L 225.266913 137.25875 
L 227.172081 154.8575 
L 227.580896 137.25875 
L 229.077248 154.8575 
L 229.216278 137.25875 
L 230.177138 119.66 
L 230.982416 137.25875 
L 232.887584 154.8575 
L 234.48993 137.25875 
L 234.792752 154.8575 
L 234.970833 137.25875 
L 236.69792 154.8575 
L 240.508255 190.055 
L 240.785942 172.45625 
L 241.91499 154.8575 
L 242.413423 172.45625 
L 244.318591 190.055 
L 245.484245 172.45625 
L 246.223759 190.055 
L 247.774712 172.45625 
L 248.010051 154.8575 
L 248.128927 172.45625 
L 248.682613 154.8575 
L 250.034095 172.45625 
L 251.458097 154.8575 
L 251.939262 172.45625 
L 252.469212 154.8575 
L 253.431358 137.25875 
L 253.84443 154.8575 
L 255.749598 172.45625 
L 257.488412 154.8575 
L 257.654766 172.45625 
L 261.465102 207.65375 
L 261.555622 190.055 
L 263.370269 207.65375 
L 263.802544 190.055 
L 265.275437 207.65375 
L 265.494069 190.055 
L 267.180605 207.65375 
L 267.547526 190.055 
L 268.999012 172.45625 
L 269.085773 190.055 
L 269.498275 172.45625 
L 270.990941 190.055 
L 271.465926 172.45625 
L 272.422913 154.8575 
L 272.896109 172.45625 
L 273.473415 154.8575 
L 274.801276 172.45625 
L 275.310861 154.8575 
L 276.537988 137.25875 
L 276.706444 154.8575 
L 277.221805 137.25875 
L 278.611612 154.8575 
L 279.930801 119.66 
L 280.51678 137.25875 
L 281.764287 119.66 
L 282.421948 137.25875 
L 282.831106 119.66 
L 284.327116 137.25875 
L 286.232283 154.8575 
L 286.846148 137.25875 
L 288.137451 154.8575 
L 288.548852 137.25875 
L 290.042619 154.8575 
L 290.176017 137.25875 
L 291.947787 154.8575 
L 295.758122 190.055 
L 296.79178 172.45625 
L 297.081925 154.8575 
L 297.66329 172.45625 
L 298.149759 137.25875 
L 299.240394 119.66 
L 299.568458 137.25875 
L 305.283962 190.055 
L 307.123616 172.45625 
L 307.189129 190.055 
L 308.590742 172.45625 
L 309.094297 190.055 
L 309.722552 172.45625 
L 309.923761 154.8575 
L 310.999465 172.45625 
L 312.904633 190.055 
L 314.723417 172.45625 
L 314.809801 190.055 
L 316.714969 207.65375 
L 318.228416 190.055 
L 318.536806 172.45625 
L 318.620136 190.055 
L 322.430472 225.2525 
L 323.014288 207.65375 
L 324.33564 225.2525 
L 326.240808 242.85125 
L 326.873985 225.2525 
L 326.94692 207.65375 
L 327.284755 190.055 
L 328.145976 207.65375 
L 329.106031 190.055 
L 330.051143 207.65375 
L 331.956311 225.2525 
L 331.982498 207.65375 
L 335.766647 242.85125 
L 335.796619 225.2525 
L 336.806363 207.65375 
L 337.093645 190.055 
L 337.671815 207.65375 
L 338.0898 190.055 
L 339.576983 207.65375 
L 341.257544 172.45625 
L 341.48215 190.055 
L 342.408835 172.45625 
L 343.387318 190.055 
L 343.44688 172.45625 
L 345.292486 190.055 
L 345.886131 172.45625 
L 346.752815 154.8575 
L 347.197654 172.45625 
L 352.913157 225.2525 
L 354.671099 190.055 
L 354.818325 207.65375 
L 358.628661 242.85125 
L 360.166768 225.2525 
L 360.525502 207.65375 
L 360.533829 225.2525 
L 361.315408 207.65375 
L 362.438996 225.2525 
L 362.717861 207.65375 
L 362.824303 190.055 
L 363.626319 154.8575 
L 364.344164 172.45625 
L 366.249332 190.055 
L 366.633461 172.45625 
L 367.440598 154.8575 
L 368.1545 172.45625 
L 371.964836 207.65375 
L 372.936139 190.055 
L 373.870003 207.65375 
L 374.721546 190.055 
L 375.775171 207.65375 
L 376.45137 190.055 
L 376.513015 172.45625 
L 377.680339 190.055 
L 379.429505 172.45625 
L 379.52797 154.8575 
L 379.585507 172.45625 
L 381.168174 154.8575 
L 381.490675 172.45625 
L 381.685747 154.8575 
L 383.395843 172.45625 
L 389.111346 225.2525 
L 390.981314 207.65375 
L 391.016514 225.2525 
L 392.44273 207.65375 
L 392.921682 225.2525 
L 394.82685 242.85125 
L 396.247677 225.2525 
L 396.732017 242.85125 
L 398.637185 260.45 
L 398.743038 242.85125 
L 399.455355 225.2525 
L 400.542353 242.85125 
L 400.994693 225.2525 
L 401.962261 207.65375 
L 402.417125 190.055 
L 402.447521 207.65375 
L 403.345177 172.45625 
L 403.815485 154.8575 
L 404.352689 172.45625 
L 405.421501 154.8575 
L 406.257856 172.45625 
L 407.984614 154.8575 
L 408.163024 172.45625 
L 409.130913 154.8575 
L 410.068192 172.45625 
L 410.068192 172.45625 
" clip-path="url(#pd75ead718c)" style="fill: none; stroke: #1f77b4; stroke-width: 1.5; stroke-linecap: square"/>
   </g>
   <g id="line2d_34">
    <path d="M 30.64375 242.85125 
L 30.64375 260.45 
L 30.643956 242.85125 
L 30.643956 260.45 
L 30.644162 242.85125 
L 30.644162 260.45 
L 30.644367 242.85125 
L 30.644367 260.45 
L 30.644573 242.85125 
L 30.644573 260.45 
L 30.644779 242.85125 
L 30.644779 260.45 
L 30.644985 242.85125 
L 30.644985 260.45 
L 30.64519 242.85125 
L 30.64519 260.45 
" clip-path="url(#pd75ead718c)" style="fill: none; stroke: #ff7f0e; stroke-width: 1.5; stroke-linecap: square"/>
   </g>
   <g id="line2d_35">
    <path d="M 30.64375 242.85125 
L 30.64375 260.45 
L 30.643956 242.85125 
L 30.643956 260.45 
L 30.644162 242.85125 
L 30.644162 260.45 
L 30.644367 242.85125 
L 30.644367 260.45 
L 30.644573 242.85125 
L 30.644573 260.45 
L 30.644779 242.85125 
L 30.644779 260.45 
L 30.644985 242.85125 
L 30.644985 260.45 
L 30.64519 242.85125 
L 30.64519 260.45 
" clip-path="url(#pd75ead718c)" style="fill: none; stroke: #2ca02c; stroke-width: 1.5; stroke-linecap: square"/>
   </g>
   <g id="line2d_36">
    <path d="M 34.186608 242.85125 
L 34.186608 260.45 
L 35.686358 242.85125 
L 36.091776 260.45 
L 39.2661 242.85125 
L 39.2661 260.45 
L 41.243968 242.85125 
L 41.243968 260.45 
L 42.340429 242.85125 
L 43.149136 260.45 
L 46.576616 242.85125 
L 46.576616 260.45 
L 47.183138 242.85125 
L 48.104481 225.2525 
L 48.481784 242.85125 
L 49.341785 225.2525 
L 50.386951 242.85125 
L 52.292119 260.45 
L 52.527628 242.85125 
L 53.773384 225.2525 
L 54.197287 242.85125 
L 54.723819 225.2525 
L 56.102455 242.85125 
L 58.007623 260.45 
L 59.673929 242.85125 
L 59.712843 225.2525 
L 59.912791 242.85125 
L 60.587788 225.2525 
L 61.817958 242.85125 
L 63.723126 260.45 
L 63.993252 242.85125 
L 65.628294 260.45 
L 66.862024 242.85125 
L 67.150144 225.2525 
L 67.533462 242.85125 
L 69.43863 260.45 
L 71.037285 242.85125 
L 71.343798 260.45 
L 78.363078 242.85125 
L 78.363078 260.45 
L 79.542243 242.85125 
L 80.268246 260.45 
L 82.431498 242.85125 
L 82.431498 260.45 
L 84.377497 242.85125 
L 84.377497 260.45 
L 86.039416 242.85125 
L 86.282665 260.45 
L 91.553772 242.85125 
L 91.553772 260.45 
L 92.776308 242.85125 
L 93.45894 260.45 
L 95.611684 242.85125 
L 95.611684 260.45 
L 96.076637 242.85125 
L 97.516851 260.45 
L 97.677616 242.85125 
L 97.986513 225.2525 
L 99.422019 242.85125 
L 99.7907 225.2525 
L 101.327187 242.85125 
L 101.6188 225.2525 
L 103.232355 242.85125 
L 105.137523 260.45 
L 106.055771 242.85125 
L 107.042691 260.45 
L 108.237453 242.85125 
L 108.947858 260.45 
L 110.0464 242.85125 
L 110.853026 260.45 
L 112.325186 242.85125 
L 112.642732 207.65375 
L 112.758194 225.2525 
L 116.56853 260.45 
L 119.311227 242.85125 
L 119.311227 260.45 
L 120.118318 225.2525 
L 120.963078 207.65375 
L 121.216395 225.2525 
L 121.685064 207.65375 
L 123.121563 225.2525 
L 123.468418 207.65375 
L 124.217363 190.055 
L 124.292014 172.45625 
L 125.02673 190.055 
L 125.391914 172.45625 
L 126.931898 190.055 
L 127.308267 172.45625 
L 128.837066 190.055 
L 132.647402 225.2525 
L 133.391366 207.65375 
L 133.596429 190.055 
L 134.55257 207.65375 
L 135.611766 190.055 
L 135.946911 172.45625 
L 136.457737 190.055 
L 144.078409 260.45 
L 146.158801 242.85125 
L 146.158801 260.45 
L 146.711458 225.2525 
L 148.063969 242.85125 
L 149.57821 207.65375 
L 149.969137 225.2525 
L 149.995214 207.65375 
L 155.68464 260.45 
L 155.712346 225.2525 
L 155.906949 207.65375 
L 157.589808 225.2525 
L 157.764682 207.65375 
L 159.494976 225.2525 
L 161.231742 207.65375 
L 161.400144 225.2525 
L 165.21048 260.45 
L 168.374276 242.85125 
L 168.374276 260.45 
L 169.578983 242.85125 
L 170.279444 260.45 
L 170.936575 242.85125 
L 172.184612 260.45 
L 178.103678 242.85125 
L 178.103678 260.45 
L 178.736975 242.85125 
L 178.980945 225.2525 
L 179.829543 207.65375 
L 180.008845 225.2525 
L 180.498593 207.65375 
L 181.747709 190.055 
L 181.914013 207.65375 
L 181.988501 190.055 
L 183.819181 207.65375 
L 184.21159 190.055 
L 184.9407 172.45625 
L 185.724349 190.055 
L 187.629517 207.65375 
L 188.987728 190.055 
L 189.114036 172.45625 
L 189.534685 190.055 
L 189.57965 172.45625 
L 191.439852 190.055 
L 191.826204 172.45625 
L 193.34502 190.055 
L 193.41911 172.45625 
L 194.006692 154.8575 
L 195.250188 172.45625 
L 195.361739 154.8575 
L 196.773009 137.25875 
L 197.155356 154.8575 
L 200.965692 190.055 
L 201.508461 172.45625 
L 202.870859 190.055 
L 203.142896 172.45625 
L 204.493471 137.25875 
L 204.511381 119.66 
L 204.776027 137.25875 
L 206.608677 119.66 
L 206.681195 137.25875 
L 208.586363 154.8575 
L 210.128146 137.25875 
L 210.491531 154.8575 
L 212.396699 172.45625 
L 213.636098 154.8575 
L 214.301866 172.45625 
L 214.6024 154.8575 
L 216.135674 137.25875 
L 216.207034 154.8575 
L 217.015349 137.25875 
L 217.024315 119.66 
L 217.325982 102.06125 
L 218.112202 119.66 
L 219.483841 102.06125 
L 220.01737 119.66 
L 220.083438 102.06125 
L 221.922538 119.66 
L 222.401091 102.06125 
L 223.049509 84.4625 
L 223.827705 102.06125 
L 227.638041 137.25875 
L 229.289206 119.66 
L 229.543209 137.25875 
L 230.997362 119.66 
L 231.448377 137.25875 
L 232.615271 119.66 
L 233.353545 137.25875 
L 234.555986 119.66 
L 235.258712 137.25875 
L 237.16388 154.8575 
L 238.78833 137.25875 
L 239.069048 154.8575 
L 240.959474 137.25875 
L 240.974216 154.8575 
L 242.095677 137.25875 
L 242.879384 154.8575 
L 248.594887 207.65375 
L 249.41725 190.055 
L 250.500055 207.65375 
L 252.405223 225.2525 
L 252.619689 207.65375 
L 254.310391 225.2525 
L 255.311105 190.055 
L 256.215559 207.65375 
L 257.685467 172.45625 
L 258.120726 190.055 
L 263.83623 242.85125 
L 264.095158 225.2525 
L 265.741398 242.85125 
L 266.556462 225.2525 
L 267.646566 242.85125 
L 267.882076 225.2525 
L 269.551733 242.85125 
L 271.456901 260.45 
L 273.836618 242.85125 
L 273.836618 260.45 
L 275.613002 242.85125 
L 275.649924 225.2525 
L 275.741786 242.85125 
L 276.859949 225.2525 
L 277.646954 242.85125 
L 279.258638 225.2525 
L 279.552122 242.85125 
L 279.905756 225.2525 
L 280.827163 207.65375 
L 281.457289 225.2525 
L 283.362457 242.85125 
L 283.461971 225.2525 
L 283.946114 190.055 
L 284.620971 172.45625 
L 284.805625 154.8575 
L 285.267625 172.45625 
L 286.413374 154.8575 
L 287.172793 172.45625 
L 287.245986 154.8575 
L 288.774982 137.25875 
L 288.840145 119.66 
L 289.077961 137.25875 
L 290.857736 119.66 
L 290.983129 137.25875 
L 292.869306 119.66 
L 292.888296 137.25875 
L 293.606854 119.66 
L 294.682532 102.06125 
L 294.793464 119.66 
L 295.158979 102.06125 
L 296.698632 119.66 
L 298.6038 137.25875 
L 299.481108 119.66 
L 300.508968 137.25875 
L 302.414136 154.8575 
L 303.719943 137.25875 
L 304.294477 119.66 
L 304.319303 137.25875 
L 306.224471 154.8575 
L 307.420662 137.25875 
L 308.129639 154.8575 
L 309.739289 137.25875 
L 309.939106 119.66 
L 310.034807 137.25875 
L 310.766608 119.66 
L 311.939975 137.25875 
L 313.153035 119.66 
L 313.845142 137.25875 
L 314.359888 119.66 
L 315.75031 137.25875 
L 327.181317 242.85125 
L 327.249092 225.2525 
L 328.601605 207.65375 
L 328.949372 190.055 
L 329.086485 207.65375 
L 329.201204 190.055 
L 330.991653 207.65375 
L 332.790405 190.055 
L 332.896821 207.65375 
L 334.801989 225.2525 
L 335.927681 207.65375 
L 336.707156 225.2525 
L 337.531605 207.65375 
L 337.732528 172.45625 
L 338.612324 190.055 
L 344.327828 242.85125 
L 345.448166 225.2525 
L 345.547068 207.65375 
L 346.232996 225.2525 
L 348.138163 242.85125 
L 349.381738 225.2525 
L 349.413684 207.65375 
L 350.043331 225.2525 
L 351.948499 242.85125 
L 353.103188 225.2525 
L 353.60297 207.65375 
L 353.625419 190.055 
L 353.853667 207.65375 
L 355.758835 225.2525 
L 356.383709 207.65375 
L 357.664003 225.2525 
L 358.878143 207.65375 
L 359.56917 225.2525 
L 361.474338 242.85125 
L 361.51926 225.2525 
L 362.80041 207.65375 
L 363.379506 225.2525 
L 363.58911 207.65375 
L 363.624728 190.055 
L 363.981983 172.45625 
L 365.168135 154.8575 
L 365.284674 172.45625 
L 365.651106 154.8575 
L 367.189842 172.45625 
L 369.095009 190.055 
L 369.606294 172.45625 
L 371.000177 190.055 
L 372.905345 207.65375 
L 374.621112 190.055 
L 374.810513 207.65375 
L 376.715681 225.2525 
L 376.943125 207.65375 
L 377.285974 190.055 
L 378.606636 172.45625 
L 378.620849 190.055 
L 380.457472 172.45625 
L 380.526016 190.055 
L 382.431184 207.65375 
L 382.745523 190.055 
L 384.336352 207.65375 
L 386.24152 225.2525 
L 387.930149 207.65375 
L 388.146688 225.2525 
L 388.522594 207.65375 
L 390.051856 225.2525 
L 390.33599 207.65375 
L 391.957023 225.2525 
L 392.501397 207.65375 
L 393.862191 225.2525 
L 394.199623 207.65375 
L 395.767359 225.2525 
L 396.847191 207.65375 
L 397.672527 225.2525 
L 401.482863 260.45 
L 403.206516 242.85125 
L 403.38803 260.45 
L 403.599041 242.85125 
L 405.293198 260.45 
L 409.103215 242.85125 
L 409.103215 260.45 
L 410.387764 242.85125 
L 410.879322 225.2525 
L 411.008383 242.85125 
L 411.008383 242.85125 
" clip-path="url(#pd75ead718c)" style="fill: none; stroke: #d62728; stroke-width: 1.5; stroke-linecap: square"/>
   </g>
   <g id="line2d_37">
    <path d="M 30.64375 242.85125 
L 30.64375 260.45 
L 30.643956 242.85125 
L 30.643956 260.45 
L 30.644162 242.85125 
L 30.644162 260.45 
L 30.644367 242.85125 
L 30.644367 260.45 
L 30.644573 242.85125 
L 30.644573 260.45 
L 30.644779 242.85125 
L 30.644779 260.45 
L 30.644985 242.85125 
L 30.644985 260.45 
L 30.64519 242.85125 
L 30.64519 260.45 
" clip-path="url(#pd75ead718c)" style="fill: none; stroke: #9467bd; stroke-width: 1.5; stroke-linecap: square"/>
   </g>
   <g id="line2d_38">
    <path d="M 36.091966 242.85125 
L 36.091966 260.45 
L 37.997134 242.85125 
L 37.997134 260.45 
L 41.171459 242.85125 
L 41.171459 260.45 
L 43.149326 242.85125 
L 43.149326 260.45 
L 45.054494 242.85125 
L 45.054494 260.45 
L 48.481974 242.85125 
L 48.481974 260.45 
L 50.387142 242.85125 
L 50.387142 260.45 
L 52.29231 242.85125 
L 52.29231 260.45 
L 54.197478 242.85125 
L 54.197478 260.45 
L 56.102645 242.85125 
L 56.102645 260.45 
L 58.007813 242.85125 
L 58.007813 260.45 
L 59.912981 242.85125 
L 59.912981 260.45 
L 61.818149 242.85125 
L 61.818149 260.45 
L 63.723317 242.85125 
L 63.723317 260.45 
L 65.628485 242.85125 
L 65.628485 260.45 
L 67.533652 242.85125 
L 67.533652 260.45 
L 69.43882 242.85125 
L 69.43882 260.45 
L 71.343988 242.85125 
L 71.343988 260.45 
L 73.249156 242.85125 
L 73.249156 260.45 
L 80.268436 242.85125 
L 80.268436 260.45 
L 82.173604 242.85125 
L 82.173604 260.45 
L 84.336856 242.85125 
L 84.336856 260.45 
L 86.282856 242.85125 
L 86.282856 260.45 
L 88.188023 242.85125 
L 88.188023 260.45 
L 93.459131 242.85125 
L 93.459131 260.45 
L 95.364298 242.85125 
L 95.364298 260.45 
L 97.517042 242.85125 
L 97.517042 260.45 
L 99.42221 242.85125 
L 99.42221 260.45 
L 101.327378 242.85125 
L 101.327378 260.45 
L 103.232545 242.85125 
L 103.232545 260.45 
L 105.137713 242.85125 
L 105.137713 260.45 
L 107.042881 242.85125 
L 107.042881 260.45 
L 108.948049 242.85125 
L 108.948049 260.45 
L 110.853217 242.85125 
L 110.853217 260.45 
L 112.758385 242.85125 
L 112.758385 260.45 
L 114.663552 242.85125 
L 114.663552 260.45 
L 116.56872 242.85125 
L 116.56872 260.45 
L 118.473888 242.85125 
L 118.473888 260.45 
L 121.216585 242.85125 
L 121.216585 260.45 
L 123.121753 242.85125 
L 123.121753 260.45 
L 125.026921 242.85125 
L 125.026921 260.45 
L 126.932089 242.85125 
L 126.932089 260.45 
L 128.837257 242.85125 
L 128.837257 260.45 
L 130.742424 242.85125 
L 130.742424 260.45 
L 132.647592 242.85125 
L 132.647592 260.45 
L 134.55276 242.85125 
L 134.55276 260.45 
L 136.457928 242.85125 
L 136.457928 260.45 
L 138.363096 242.85125 
L 138.363096 260.45 
L 140.268264 242.85125 
L 140.268264 260.45 
L 142.173431 242.85125 
L 142.173431 260.45 
L 144.078599 242.85125 
L 144.078599 260.45 
L 145.983767 242.85125 
L 145.983767 260.45 
L 148.06416 242.85125 
L 148.06416 260.45 
L 149.969327 242.85125 
L 149.969327 260.45 
L 151.874495 242.85125 
L 151.874495 260.45 
L 153.779663 242.85125 
L 153.779663 260.45 
L 155.684831 242.85125 
L 155.684831 260.45 
L 157.589999 242.85125 
L 157.589999 260.45 
L 159.495167 242.85125 
L 159.495167 260.45 
L 161.400334 242.85125 
L 161.400334 260.45 
L 163.305502 242.85125 
L 163.305502 260.45 
L 165.21067 242.85125 
L 165.21067 260.45 
L 167.115838 242.85125 
L 167.115838 260.45 
L 170.279634 242.85125 
L 170.279634 260.45 
L 172.184802 242.85125 
L 172.184802 260.45 
L 174.08997 242.85125 
L 174.08997 260.45 
L 180.009036 242.85125 
L 180.009036 260.45 
L 181.914204 242.85125 
L 181.914204 260.45 
L 183.819372 242.85125 
L 183.819372 260.45 
L 185.724539 242.85125 
L 185.724539 260.45 
L 187.629707 242.85125 
L 187.629707 260.45 
L 189.534875 242.85125 
L 189.534875 260.45 
L 191.440043 242.85125 
L 191.440043 260.45 
L 193.345211 242.85125 
L 193.345211 260.45 
L 195.250379 242.85125 
L 195.250379 260.45 
L 197.155546 242.85125 
L 197.155546 260.45 
L 199.060714 242.85125 
L 199.060714 260.45 
L 200.965882 242.85125 
L 200.965882 260.45 
L 202.87105 242.85125 
L 202.87105 260.45 
L 204.776218 242.85125 
L 204.776218 260.45 
L 206.681386 242.85125 
L 206.681386 260.45 
L 208.586553 242.85125 
L 208.586553 260.45 
L 210.491721 242.85125 
L 210.491721 260.45 
L 212.396889 242.85125 
L 212.396889 260.45 
L 214.302057 242.85125 
L 214.302057 260.45 
L 216.207225 242.85125 
L 216.207225 260.45 
L 218.112393 242.85125 
L 218.112393 260.45 
L 220.01756 242.85125 
L 220.01756 260.45 
L 221.922728 242.85125 
L 221.922728 260.45 
L 223.827896 242.85125 
L 223.827896 260.45 
L 225.733064 242.85125 
L 225.733064 260.45 
L 227.638232 242.85125 
L 227.638232 260.45 
L 229.543399 242.85125 
L 229.543399 260.45 
L 231.448567 242.85125 
L 231.448567 260.45 
L 233.353735 242.85125 
L 233.353735 260.45 
L 235.258903 242.85125 
L 235.258903 260.45 
L 237.164071 242.85125 
L 237.164071 260.45 
L 239.069239 242.85125 
L 239.069239 260.45 
L 240.974406 242.85125 
L 240.974406 260.45 
L 242.879574 242.85125 
L 242.879574 260.45 
L 244.784742 242.85125 
L 244.784742 260.45 
L 246.68991 242.85125 
L 246.68991 260.45 
L 248.595078 242.85125 
L 248.595078 260.45 
L 250.500246 242.85125 
L 250.500246 260.45 
L 252.405413 242.85125 
L 252.405413 260.45 
L 254.310581 242.85125 
L 254.310581 260.45 
L 256.215749 242.85125 
L 256.215749 260.45 
L 258.120917 242.85125 
L 258.120917 260.45 
L 260.026085 242.85125 
L 260.026085 260.45 
L 261.931253 242.85125 
L 261.931253 260.45 
L 263.83642 242.85125 
L 263.83642 260.45 
L 265.741588 242.85125 
L 265.741588 260.45 
L 267.646756 242.85125 
L 267.646756 260.45 
L 269.551924 242.85125 
L 269.551924 260.45 
L 271.457092 242.85125 
L 271.457092 260.45 
L 273.36226 242.85125 
L 273.36226 260.45 
L 275.741976 242.85125 
L 275.741976 260.45 
L 277.647144 242.85125 
L 277.647144 260.45 
L 279.552312 242.85125 
L 279.552312 260.45 
L 281.45748 242.85125 
L 281.45748 260.45 
L 283.362648 242.85125 
L 283.362648 260.45 
L 285.267816 242.85125 
L 285.267816 260.45 
L 287.172983 242.85125 
L 287.172983 260.45 
L 289.078151 242.85125 
L 289.078151 260.45 
L 290.983319 242.85125 
L 290.983319 260.45 
L 292.888487 242.85125 
L 292.888487 260.45 
L 294.793655 242.85125 
L 294.793655 260.45 
L 296.698823 242.85125 
L 296.698823 260.45 
L 298.60399 242.85125 
L 298.60399 260.45 
L 300.509158 242.85125 
L 300.509158 260.45 
L 302.414326 242.85125 
L 302.414326 260.45 
L 304.319494 242.85125 
L 304.319494 260.45 
L 306.224662 242.85125 
L 306.224662 260.45 
L 308.12983 242.85125 
L 308.12983 260.45 
L 310.034997 242.85125 
L 310.034997 260.45 
L 311.940165 242.85125 
L 311.940165 260.45 
L 313.845333 242.85125 
L 313.845333 260.45 
L 315.750501 242.85125 
L 315.750501 260.45 
L 317.655669 242.85125 
L 317.655669 260.45 
L 319.560836 242.85125 
L 319.560836 260.45 
L 321.466004 242.85125 
L 321.466004 260.45 
L 323.371172 242.85125 
L 323.371172 260.45 
L 325.27634 242.85125 
L 325.27634 260.45 
L 327.181508 242.85125 
L 327.181508 260.45 
L 329.086676 242.85125 
L 329.086676 260.45 
L 330.991843 242.85125 
L 330.991843 260.45 
L 332.897011 242.85125 
L 332.897011 260.45 
L 334.802179 242.85125 
L 334.802179 260.45 
L 336.707347 242.85125 
L 336.707347 260.45 
L 338.612515 242.85125 
L 338.612515 260.45 
L 340.517683 242.85125 
L 340.517683 260.45 
L 342.42285 242.85125 
L 342.42285 260.45 
L 344.328018 242.85125 
L 344.328018 260.45 
L 346.233186 242.85125 
L 346.233186 260.45 
L 348.138354 242.85125 
L 348.138354 260.45 
L 350.043522 242.85125 
L 350.043522 260.45 
L 351.94869 242.85125 
L 351.94869 260.45 
L 353.853857 242.85125 
L 353.853857 260.45 
L 355.759025 242.85125 
L 355.759025 260.45 
L 357.664193 242.85125 
L 357.664193 260.45 
L 359.569361 242.85125 
L 359.569361 260.45 
L 361.474529 242.85125 
L 361.474529 260.45 
L 363.379697 242.85125 
L 363.379697 260.45 
L 365.284864 242.85125 
L 365.284864 260.45 
L 367.190032 242.85125 
L 367.190032 260.45 
L 369.0952 242.85125 
L 369.0952 260.45 
L 371.000368 242.85125 
L 371.000368 260.45 
L 372.905536 242.85125 
L 372.905536 260.45 
L 374.810703 242.85125 
L 374.810703 260.45 
L 376.715871 242.85125 
L 376.715871 260.45 
L 378.621039 242.85125 
L 378.621039 260.45 
L 380.526207 242.85125 
L 380.526207 260.45 
L 382.431375 242.85125 
L 382.431375 260.45 
L 384.336543 242.85125 
L 384.336543 260.45 
L 386.24171 242.85125 
L 386.24171 260.45 
L 388.146878 242.85125 
L 388.146878 260.45 
L 390.052046 242.85125 
L 390.052046 260.45 
L 391.957214 242.85125 
L 391.957214 260.45 
L 393.862382 242.85125 
L 393.862382 260.45 
L 395.76755 242.85125 
L 395.76755 260.45 
L 397.672717 242.85125 
L 397.672717 260.45 
L 399.577885 242.85125 
L 399.577885 260.45 
L 401.483053 242.85125 
L 401.483053 260.45 
L 403.388221 242.85125 
L 403.388221 260.45 
L 405.293389 242.85125 
L 405.293389 260.45 
L 407.198557 242.85125 
L 407.198557 260.45 
L 411.008574 242.85125 
L 411.008574 260.45 
L 411.008574 260.45 
" clip-path="url(#pd75ead718c)" style="fill: none; stroke: #8c564b; stroke-width: 1.5; stroke-linecap: square"/>
   </g>
   <g id="line2d_39">
    <path d="M 30.64375 242.85125 
L 30.64375 260.45 
L 30.643956 242.85125 
L 30.643956 260.45 
L 30.644162 242.85125 
L 30.644162 260.45 
L 30.644367 242.85125 
L 30.644367 260.45 
L 30.644573 242.85125 
L 30.644573 260.45 
L 30.644779 242.85125 
L 30.644779 260.45 
L 30.644985 242.85125 
L 30.644985 260.45 
L 30.64519 242.85125 
L 30.64519 260.45 
" clip-path="url(#pd75ead718c)" style="fill: none; stroke: #e377c2; stroke-width: 1.5; stroke-linecap: square"/>
   </g>
   <g id="line2d_40">
    <path d="M 37.997325 242.85125 
L 37.997325 260.45 
L 39.902493 242.85125 
L 39.902493 260.45 
L 43.076817 242.85125 
L 43.076817 260.45 
L 45.054685 242.85125 
L 45.054685 260.45 
L 46.959852 242.85125 
L 46.959852 260.45 
L 50.387333 242.85125 
L 50.387333 260.45 
L 52.2925 242.85125 
L 52.2925 260.45 
L 54.197668 242.85125 
L 54.197668 260.45 
L 56.102836 242.85125 
L 56.102836 260.45 
L 58.008004 242.85125 
L 58.008004 260.45 
L 59.913172 242.85125 
L 59.913172 260.45 
L 61.818339 242.85125 
L 61.818339 260.45 
L 63.723507 242.85125 
L 63.723507 260.45 
L 65.628675 242.85125 
L 65.628675 260.45 
L 67.533843 242.85125 
L 67.533843 260.45 
L 69.439011 242.85125 
L 69.439011 260.45 
L 71.344179 242.85125 
L 71.344179 260.45 
L 73.249346 242.85125 
L 73.249346 260.45 
L 75.154514 242.85125 
L 75.154514 260.45 
L 82.173795 242.85125 
L 82.173795 260.45 
L 84.078963 242.85125 
L 84.078963 260.45 
L 86.242215 242.85125 
L 86.242215 260.45 
L 88.188214 242.85125 
L 88.188214 260.45 
L 90.093382 242.85125 
L 90.093382 260.45 
L 95.364489 242.85125 
L 95.364489 260.45 
L 97.269657 242.85125 
L 97.269657 260.45 
L 99.4224 242.85125 
L 99.4224 260.45 
L 101.327568 242.85125 
L 101.327568 260.45 
L 103.232736 242.85125 
L 103.232736 260.45 
L 105.137904 242.85125 
L 105.137904 260.45 
L 107.043072 242.85125 
L 107.043072 260.45 
L 108.948239 242.85125 
L 108.948239 260.45 
L 110.853407 242.85125 
L 110.853407 260.45 
L 112.758575 242.85125 
L 112.758575 260.45 
L 114.663743 242.85125 
L 114.663743 260.45 
L 116.568911 242.85125 
L 116.568911 260.45 
L 118.474079 242.85125 
L 118.474079 260.45 
L 120.379246 242.85125 
L 120.379246 260.45 
L 123.121944 242.85125 
L 123.121944 260.45 
L 125.027111 242.85125 
L 125.027111 260.45 
L 126.932279 242.85125 
L 126.932279 260.45 
L 128.837447 242.85125 
L 128.837447 260.45 
L 130.742615 242.85125 
L 130.742615 260.45 
L 132.647783 242.85125 
L 132.647783 260.45 
L 134.552951 242.85125 
L 134.552951 260.45 
L 136.458118 242.85125 
L 136.458118 260.45 
L 138.363286 242.85125 
L 138.363286 260.45 
L 140.268454 242.85125 
L 140.268454 260.45 
L 142.173622 242.85125 
L 142.173622 260.45 
L 144.07879 242.85125 
L 144.07879 260.45 
L 145.983958 242.85125 
L 145.983958 260.45 
L 147.889125 242.85125 
L 147.889125 260.45 
L 149.969518 242.85125 
L 149.969518 260.45 
L 151.874686 242.85125 
L 151.874686 260.45 
L 153.779854 242.85125 
L 153.779854 260.45 
L 155.685021 242.85125 
L 155.685021 260.45 
L 157.590189 242.85125 
L 157.590189 260.45 
L 159.495357 242.85125 
L 159.495357 260.45 
L 161.400525 242.85125 
L 161.400525 260.45 
L 163.305693 242.85125 
L 163.305693 260.45 
L 165.210861 242.85125 
L 165.210861 260.45 
L 167.116028 242.85125 
L 167.116028 260.45 
L 169.021196 242.85125 
L 169.021196 260.45 
L 172.184993 242.85125 
L 172.184993 260.45 
L 174.090161 242.85125 
L 174.090161 260.45 
L 175.995328 242.85125 
L 175.995328 260.45 
L 181.914394 242.85125 
L 181.914394 260.45 
L 183.819562 242.85125 
L 183.819562 260.45 
L 185.72473 242.85125 
L 185.72473 260.45 
L 187.629898 242.85125 
L 187.629898 260.45 
L 189.535066 242.85125 
L 189.535066 260.45 
L 191.440233 242.85125 
L 191.440233 260.45 
L 193.345401 242.85125 
L 193.345401 260.45 
L 195.250569 242.85125 
L 195.250569 260.45 
L 197.155737 242.85125 
L 197.155737 260.45 
L 199.060905 242.85125 
L 199.060905 260.45 
L 200.966073 242.85125 
L 200.966073 260.45 
L 202.87124 242.85125 
L 202.87124 260.45 
L 204.776408 242.85125 
L 204.776408 260.45 
L 206.681576 242.85125 
L 206.681576 260.45 
L 208.586744 242.85125 
L 208.586744 260.45 
L 210.491912 242.85125 
L 210.491912 260.45 
L 212.39708 242.85125 
L 212.39708 260.45 
L 214.302247 242.85125 
L 214.302247 260.45 
L 216.207415 242.85125 
L 216.207415 260.45 
L 218.112583 242.85125 
L 218.112583 260.45 
L 220.017751 242.85125 
L 220.017751 260.45 
L 221.922919 242.85125 
L 221.922919 260.45 
L 223.828087 242.85125 
L 223.828087 260.45 
L 225.733254 242.85125 
L 225.733254 260.45 
L 227.638422 242.85125 
L 227.638422 260.45 
L 229.54359 242.85125 
L 229.54359 260.45 
L 231.448758 242.85125 
L 231.448758 260.45 
L 233.353926 242.85125 
L 233.353926 260.45 
L 235.259093 242.85125 
L 235.259093 260.45 
L 237.164261 242.85125 
L 237.164261 260.45 
L 239.069429 242.85125 
L 239.069429 260.45 
L 240.974597 242.85125 
L 240.974597 260.45 
L 242.879765 242.85125 
L 242.879765 260.45 
L 244.784933 242.85125 
L 244.784933 260.45 
L 246.6901 242.85125 
L 246.6901 260.45 
L 248.595268 242.85125 
L 248.595268 260.45 
L 250.500436 242.85125 
L 250.500436 260.45 
L 252.405604 242.85125 
L 252.405604 260.45 
L 254.310772 242.85125 
L 254.310772 260.45 
L 256.21594 242.85125 
L 256.21594 260.45 
L 258.121107 242.85125 
L 258.121107 260.45 
L 260.026275 242.85125 
L 260.026275 260.45 
L 261.931443 242.85125 
L 261.931443 260.45 
L 263.836611 242.85125 
L 263.836611 260.45 
L 265.741779 242.85125 
L 265.741779 260.45 
L 267.646947 242.85125 
L 267.646947 260.45 
L 269.552114 242.85125 
L 269.552114 260.45 
L 271.457282 242.85125 
L 271.457282 260.45 
L 273.36245 242.85125 
L 273.36245 260.45 
L 275.267618 242.85125 
L 275.267618 260.45 
L 277.647335 242.85125 
L 277.647335 260.45 
L 279.552503 242.85125 
L 279.552503 260.45 
L 281.45767 242.85125 
L 281.45767 260.45 
L 283.362838 242.85125 
L 283.362838 260.45 
L 285.268006 242.85125 
L 285.268006 260.45 
L 287.173174 242.85125 
L 287.173174 260.45 
L 289.078342 242.85125 
L 289.078342 260.45 
L 290.98351 242.85125 
L 290.98351 260.45 
L 292.888677 242.85125 
L 292.888677 260.45 
L 294.793845 242.85125 
L 294.793845 260.45 
L 296.699013 242.85125 
L 296.699013 260.45 
L 298.604181 242.85125 
L 298.604181 260.45 
L 300.509349 242.85125 
L 300.509349 260.45 
L 302.414517 242.85125 
L 302.414517 260.45 
L 304.319684 242.85125 
L 304.319684 260.45 
L 306.224852 242.85125 
L 306.224852 260.45 
L 308.13002 242.85125 
L 308.13002 260.45 
L 310.035188 242.85125 
L 310.035188 260.45 
L 311.940356 242.85125 
L 311.940356 260.45 
L 313.845524 242.85125 
L 313.845524 260.45 
L 315.750691 242.85125 
L 315.750691 260.45 
L 317.655859 242.85125 
L 317.655859 260.45 
L 319.561027 242.85125 
L 319.561027 260.45 
L 321.466195 242.85125 
L 321.466195 260.45 
L 323.371363 242.85125 
L 323.371363 260.45 
L 325.27653 242.85125 
L 325.27653 260.45 
L 327.181698 242.85125 
L 327.181698 260.45 
L 329.086866 242.85125 
L 329.086866 260.45 
L 330.992034 242.85125 
L 330.992034 260.45 
L 332.897202 242.85125 
L 332.897202 260.45 
L 334.80237 242.85125 
L 334.80237 260.45 
L 336.707537 242.85125 
L 336.707537 260.45 
L 338.612705 242.85125 
L 338.612705 260.45 
L 340.517873 242.85125 
L 340.517873 260.45 
L 342.423041 242.85125 
L 342.423041 260.45 
L 344.328209 242.85125 
L 344.328209 260.45 
L 346.233377 242.85125 
L 346.233377 260.45 
L 348.138544 242.85125 
L 348.138544 260.45 
L 350.043712 242.85125 
L 350.043712 260.45 
L 351.94888 242.85125 
L 351.94888 260.45 
L 353.854048 242.85125 
L 353.854048 260.45 
L 355.759216 242.85125 
L 355.759216 260.45 
L 357.664384 242.85125 
L 357.664384 260.45 
L 359.569551 242.85125 
L 359.569551 260.45 
L 361.474719 242.85125 
L 361.474719 260.45 
L 363.379887 242.85125 
L 363.379887 260.45 
L 365.285055 242.85125 
L 365.285055 260.45 
L 367.190223 242.85125 
L 367.190223 260.45 
L 369.095391 242.85125 
L 369.095391 260.45 
L 371.000558 242.85125 
L 371.000558 260.45 
L 372.905726 242.85125 
L 372.905726 260.45 
L 374.810894 242.85125 
L 374.810894 260.45 
L 376.716062 242.85125 
L 376.716062 260.45 
L 378.62123 242.85125 
L 378.62123 260.45 
L 380.526397 242.85125 
L 380.526397 260.45 
L 382.431565 242.85125 
L 382.431565 260.45 
L 384.336733 242.85125 
L 384.336733 260.45 
L 386.241901 242.85125 
L 386.241901 260.45 
L 388.147069 242.85125 
L 388.147069 260.45 
L 390.052237 242.85125 
L 390.052237 260.45 
L 391.957404 242.85125 
L 391.957404 260.45 
L 393.862572 242.85125 
L 393.862572 260.45 
L 395.76774 242.85125 
L 395.76774 260.45 
L 397.672908 242.85125 
L 397.672908 260.45 
L 399.578076 242.85125 
L 399.578076 260.45 
L 401.483244 242.85125 
L 401.483244 260.45 
L 403.388411 242.85125 
L 403.388411 260.45 
L 405.293579 242.85125 
L 405.293579 260.45 
L 407.198747 242.85125 
L 407.198747 260.45 
L 409.103915 242.85125 
L 409.103915 260.45 
L 409.103915 260.45 
" clip-path="url(#pd75ead718c)" style="fill: none; stroke: #7f7f7f; stroke-width: 1.5; stroke-linecap: square"/>
   </g>
   <g id="line2d_41">
    <path d="M 30.64375 242.85125 
L 30.64375 260.45 
L 30.643956 242.85125 
L 30.643956 260.45 
L 30.644162 242.85125 
L 30.644162 260.45 
L 30.644367 242.85125 
L 30.644367 260.45 
L 30.644573 242.85125 
L 30.644573 260.45 
L 30.644779 242.85125 
L 30.644779 260.45 
L 30.644985 242.85125 
L 30.644985 260.45 
L 30.64519 242.85125 
L 30.64519 260.45 
" clip-path="url(#pd75ead718c)" style="fill: none; stroke: #bcbd22; stroke-width: 1.5; stroke-linecap: square"/>
   </g>
   <g id="line2d_42">
    <path d="M 30.64375 242.85125 
L 30.64375 260.45 
L 30.64519 260.45 
L 36.166375 242.85125 
L 36.166375 260.45 
L 38.071543 242.85125 
L 38.071543 260.45 
L 41.643291 242.85125 
L 41.643291 260.45 
L 43.548459 242.85125 
L 43.548459 260.45 
L 45.453627 242.85125 
L 45.453627 260.45 
L 47.358795 242.85125 
L 47.358795 260.45 
L 49.263963 242.85125 
L 49.263963 260.45 
L 51.169131 242.85125 
L 51.169131 260.45 
L 53.074298 242.85125 
L 53.074298 260.45 
L 55.567278 242.85125 
L 55.567278 260.45 
L 57.472446 242.85125 
L 57.472446 260.45 
L 59.377613 242.85125 
L 59.377613 260.45 
L 62.045756 242.85125 
L 62.045756 260.45 
L 63.950923 242.85125 
L 63.950923 260.45 
L 65.856091 242.85125 
L 65.856091 260.45 
L 67.761259 242.85125 
L 67.761259 260.45 
L 69.666427 242.85125 
L 69.666427 260.45 
L 71.571595 242.85125 
L 71.571595 260.45 
L 75.023948 242.85125 
L 75.023948 260.45 
L 76.929115 242.85125 
L 76.929115 260.45 
L 79.304762 242.85125 
L 79.304762 260.45 
L 82.379707 242.85125 
L 82.379707 260.45 
L 84.284875 242.85125 
L 84.284875 260.45 
L 86.190042 242.85125 
L 86.190042 260.45 
L 88.09521 242.85125 
L 88.09521 260.45 
L 90.000378 242.85125 
L 90.000378 260.45 
L 91.905546 242.85125 
L 91.905546 260.45 
L 93.810714 242.85125 
L 93.810714 260.45 
L 95.715882 242.85125 
L 95.715882 260.45 
L 97.621049 242.85125 
L 97.621049 260.45 
L 99.526217 242.85125 
L 99.526217 260.45 
L 101.431385 242.85125 
L 101.431385 260.45 
L 103.336553 242.85125 
L 103.336553 260.45 
L 105.241721 242.85125 
L 105.241721 260.45 
L 107.146889 242.85125 
L 107.146889 260.45 
L 109.052056 242.85125 
L 109.052056 260.45 
L 110.957224 242.85125 
L 110.957224 260.45 
L 112.862392 242.85125 
L 112.862392 260.45 
L 114.76756 242.85125 
L 114.76756 260.45 
L 116.672728 242.85125 
L 116.672728 260.45 
L 118.577896 242.85125 
L 118.577896 260.45 
L 120.483063 242.85125 
L 120.483063 260.45 
L 122.388231 242.85125 
L 122.388231 260.45 
L 124.293399 242.85125 
L 124.293399 260.45 
L 126.198567 242.85125 
L 126.198567 260.45 
L 128.103735 242.85125 
L 128.103735 260.45 
L 130.008902 242.85125 
L 130.008902 260.45 
L 131.91407 242.85125 
L 131.91407 260.45 
L 133.819238 242.85125 
L 133.819238 260.45 
L 135.724406 242.85125 
L 135.724406 260.45 
L 137.629574 242.85125 
L 137.629574 260.45 
L 139.534742 242.85125 
L 139.534742 260.45 
L 141.439909 242.85125 
L 141.439909 260.45 
L 143.345077 242.85125 
L 143.345077 260.45 
L 145.250245 242.85125 
L 145.250245 260.45 
L 147.155413 242.85125 
L 147.155413 260.45 
L 149.060581 242.85125 
L 149.060581 260.45 
L 150.965749 242.85125 
L 150.965749 260.45 
L 152.870916 242.85125 
L 152.870916 260.45 
L 154.776084 242.85125 
L 154.776084 260.45 
L 156.681252 242.85125 
L 156.681252 260.45 
L 158.58642 242.85125 
L 158.58642 260.45 
L 160.491588 242.85125 
L 160.491588 260.45 
L 162.396756 242.85125 
L 162.396756 260.45 
L 164.301923 242.85125 
L 164.301923 260.45 
L 166.207091 242.85125 
L 166.207091 260.45 
L 168.112259 242.85125 
L 168.112259 260.45 
L 170.017427 242.85125 
L 170.017427 260.45 
L 171.922595 242.85125 
L 171.922595 260.45 
L 173.827763 242.85125 
L 173.827763 260.45 
L 175.73293 242.85125 
L 175.73293 260.45 
L 177.638098 242.85125 
L 177.638098 260.45 
L 179.543266 242.85125 
L 179.543266 260.45 
L 181.448434 242.85125 
L 181.448434 260.45 
L 183.353602 242.85125 
L 183.353602 260.45 
L 185.258769 242.85125 
L 185.258769 260.45 
L 187.163937 242.85125 
L 187.163937 260.45 
L 189.069105 242.85125 
L 189.069105 260.45 
L 190.974273 242.85125 
L 190.974273 260.45 
L 192.879441 242.85125 
L 192.879441 260.45 
L 194.784609 242.85125 
L 194.784609 260.45 
L 196.689776 242.85125 
L 196.689776 260.45 
L 198.594944 242.85125 
L 198.594944 260.45 
L 200.500112 242.85125 
L 200.500112 260.45 
L 202.40528 242.85125 
L 202.40528 260.45 
L 204.310448 242.85125 
L 204.310448 260.45 
L 206.215616 242.85125 
L 206.215616 260.45 
L 208.120783 242.85125 
L 208.120783 260.45 
L 210.025951 242.85125 
L 210.025951 260.45 
L 211.931119 242.85125 
L 211.931119 260.45 
L 213.836287 242.85125 
L 213.836287 260.45 
L 215.741455 242.85125 
L 215.741455 260.45 
L 217.646623 242.85125 
L 217.646623 260.45 
L 219.55179 242.85125 
L 219.55179 260.45 
L 221.456958 242.85125 
L 221.456958 260.45 
L 223.362126 242.85125 
L 223.362126 260.45 
L 225.267294 242.85125 
L 225.267294 260.45 
L 227.172462 242.85125 
L 227.172462 260.45 
L 229.07763 242.85125 
L 229.07763 260.45 
L 230.982797 242.85125 
L 230.982797 260.45 
L 232.887965 242.85125 
L 232.887965 260.45 
L 234.793133 242.85125 
L 234.793133 260.45 
L 236.698301 242.85125 
L 236.698301 260.45 
L 238.603469 242.85125 
L 238.603469 260.45 
L 240.508636 242.85125 
L 240.508636 260.45 
L 242.413804 242.85125 
L 242.413804 260.45 
L 244.318972 242.85125 
L 244.318972 260.45 
L 246.22414 242.85125 
L 246.22414 260.45 
L 248.129308 242.85125 
L 248.129308 260.45 
L 250.034476 242.85125 
L 250.034476 260.45 
L 251.939643 242.85125 
L 251.939643 260.45 
L 253.844811 242.85125 
L 253.844811 260.45 
L 255.749979 242.85125 
L 255.749979 260.45 
L 257.655147 242.85125 
L 257.655147 260.45 
L 259.560315 242.85125 
L 259.560315 260.45 
L 261.465483 242.85125 
L 261.465483 260.45 
L 263.37065 242.85125 
L 263.37065 260.45 
L 265.275818 242.85125 
L 265.275818 260.45 
L 267.180986 242.85125 
L 267.180986 260.45 
L 269.086154 242.85125 
L 269.086154 260.45 
L 270.991322 242.85125 
L 270.991322 260.45 
L 272.89649 242.85125 
L 272.89649 260.45 
L 274.801657 242.85125 
L 274.801657 260.45 
L 276.706825 242.85125 
L 276.706825 260.45 
L 278.611993 242.85125 
L 278.611993 260.45 
L 280.517161 242.85125 
L 280.517161 260.45 
L 282.422329 242.85125 
L 282.422329 260.45 
L 284.327497 242.85125 
L 284.327497 260.45 
L 286.232664 242.85125 
L 286.232664 260.45 
L 288.137832 242.85125 
L 288.137832 260.45 
L 290.043 242.85125 
L 290.043 260.45 
L 291.948168 242.85125 
L 291.948168 260.45 
L 293.853336 242.85125 
L 293.853336 260.45 
L 295.758504 242.85125 
L 295.758504 260.45 
L 297.663671 242.85125 
L 297.663671 260.45 
L 299.568839 242.85125 
L 299.568839 260.45 
L 301.474007 242.85125 
L 301.474007 260.45 
L 303.379175 242.85125 
L 303.379175 260.45 
L 305.284343 242.85125 
L 305.284343 260.45 
L 307.18951 242.85125 
L 307.18951 260.45 
L 309.094678 242.85125 
L 309.094678 260.45 
L 310.999846 242.85125 
L 310.999846 260.45 
L 312.905014 242.85125 
L 312.905014 260.45 
L 314.810182 242.85125 
L 314.810182 260.45 
L 316.71535 242.85125 
L 316.71535 260.45 
L 318.620517 242.85125 
L 318.620517 260.45 
L 320.525685 242.85125 
L 320.525685 260.45 
L 322.430853 242.85125 
L 322.430853 260.45 
L 324.336021 242.85125 
L 324.336021 260.45 
L 326.241189 242.85125 
L 326.241189 260.45 
L 328.146357 242.85125 
L 328.146357 260.45 
L 330.051524 242.85125 
L 330.051524 260.45 
L 331.956692 242.85125 
L 331.956692 260.45 
L 333.86186 242.85125 
L 333.86186 260.45 
L 335.767028 242.85125 
L 335.767028 260.45 
L 337.672196 242.85125 
L 337.672196 260.45 
L 339.577364 242.85125 
L 339.577364 260.45 
L 341.482531 242.85125 
L 341.482531 260.45 
L 343.387699 242.85125 
L 343.387699 260.45 
L 345.292867 242.85125 
L 345.292867 260.45 
L 347.198035 242.85125 
L 347.198035 260.45 
L 349.103203 242.85125 
L 349.103203 260.45 
L 351.008371 242.85125 
L 351.008371 260.45 
L 352.913538 242.85125 
L 352.913538 260.45 
L 354.818706 242.85125 
L 354.818706 260.45 
L 356.723874 242.85125 
L 356.723874 260.45 
L 358.629042 242.85125 
L 358.629042 260.45 
L 360.53421 242.85125 
L 360.53421 260.45 
L 362.439377 242.85125 
L 362.439377 260.45 
L 364.344545 242.85125 
L 364.344545 260.45 
L 366.249713 242.85125 
L 366.249713 260.45 
L 368.154881 242.85125 
L 368.154881 260.45 
L 370.060049 242.85125 
L 370.060049 260.45 
L 371.965217 242.85125 
L 371.965217 260.45 
L 373.870384 242.85125 
L 373.870384 260.45 
L 375.775552 242.85125 
L 375.775552 260.45 
L 377.68072 242.85125 
L 377.68072 260.45 
L 379.585888 242.85125 
L 379.585888 260.45 
L 381.491056 242.85125 
L 381.491056 260.45 
L 383.396224 242.85125 
L 383.396224 260.45 
L 385.301391 242.85125 
L 385.301391 260.45 
L 387.206559 242.85125 
L 387.206559 260.45 
L 389.111727 242.85125 
L 389.111727 260.45 
L 391.016895 242.85125 
L 391.016895 260.45 
L 392.922063 242.85125 
L 392.922063 260.45 
L 394.827231 242.85125 
L 394.827231 260.45 
L 396.732398 242.85125 
L 396.732398 260.45 
L 398.637566 242.85125 
L 398.637566 260.45 
L 400.542734 242.85125 
L 400.542734 260.45 
L 402.447902 242.85125 
L 402.447902 260.45 
L 404.35307 242.85125 
L 404.35307 260.45 
L 406.258238 242.85125 
L 406.258238 260.45 
L 408.163405 242.85125 
L 408.163405 260.45 
L 410.068573 242.85125 
L 410.068573 260.45 
L 410.068573 260.45 
" clip-path="url(#pd75ead718c)" style="fill: none; stroke: #17becf; stroke-width: 1.5; stroke-linecap: square"/>
   </g>
   <g id="line2d_43">
    <path d="M 30.64375 242.85125 
L 30.64375 260.45 
L 30.64519 260.45 
L 34.261017 242.85125 
L 34.261017 260.45 
L 36.166185 242.85125 
L 36.166185 260.45 
L 39.737933 242.85125 
L 39.737933 260.45 
L 41.643101 242.85125 
L 41.643101 260.45 
L 43.548269 242.85125 
L 43.548269 260.45 
L 45.453437 242.85125 
L 45.453437 260.45 
L 47.358604 242.85125 
L 47.358604 260.45 
L 49.263772 242.85125 
L 49.263772 260.45 
L 51.16894 242.85125 
L 51.16894 260.45 
L 53.661919 242.85125 
L 53.661919 260.45 
L 55.567087 242.85125 
L 55.567087 260.45 
L 57.472255 242.85125 
L 57.472255 260.45 
L 60.140397 242.85125 
L 60.140397 260.45 
L 62.045565 242.85125 
L 62.045565 260.45 
L 63.950733 242.85125 
L 63.950733 260.45 
L 65.855901 242.85125 
L 65.855901 260.45 
L 67.761069 242.85125 
L 67.761069 260.45 
L 69.666236 242.85125 
L 69.666236 260.45 
L 73.118589 242.85125 
L 73.118589 260.45 
L 75.023757 242.85125 
L 75.023757 260.45 
L 77.399404 242.85125 
L 77.399404 260.45 
L 80.474348 242.85125 
L 80.474348 260.45 
L 82.379516 242.85125 
L 82.379516 260.45 
L 84.284684 242.85125 
L 84.284684 260.45 
L 86.189852 242.85125 
L 86.189852 260.45 
L 88.09502 242.85125 
L 88.09502 260.45 
L 90.000188 242.85125 
L 90.000188 260.45 
L 91.905355 242.85125 
L 91.905355 260.45 
L 93.810523 242.85125 
L 93.810523 260.45 
L 95.715691 242.85125 
L 95.715691 260.45 
L 97.620859 242.85125 
L 97.620859 260.45 
L 99.526027 242.85125 
L 99.526027 260.45 
L 101.431195 242.85125 
L 101.431195 260.45 
L 103.336362 242.85125 
L 103.336362 260.45 
L 105.24153 242.85125 
L 105.24153 260.45 
L 107.146698 242.85125 
L 107.146698 260.45 
L 109.051866 242.85125 
L 109.051866 260.45 
L 110.957034 242.85125 
L 110.957034 260.45 
L 112.862202 242.85125 
L 112.862202 260.45 
L 114.767369 242.85125 
L 114.767369 260.45 
L 116.672537 242.85125 
L 116.672537 260.45 
L 118.577705 242.85125 
L 118.577705 260.45 
L 120.482873 242.85125 
L 120.482873 260.45 
L 122.388041 242.85125 
L 122.388041 260.45 
L 124.293208 242.85125 
L 124.293208 260.45 
L 126.198376 242.85125 
L 126.198376 260.45 
L 128.103544 242.85125 
L 128.103544 260.45 
L 130.008712 242.85125 
L 130.008712 260.45 
L 131.91388 242.85125 
L 131.91388 260.45 
L 133.819048 242.85125 
L 133.819048 260.45 
L 135.724215 242.85125 
L 135.724215 260.45 
L 137.629383 242.85125 
L 137.629383 260.45 
L 139.534551 242.85125 
L 139.534551 260.45 
L 141.439719 242.85125 
L 141.439719 260.45 
L 143.344887 242.85125 
L 143.344887 260.45 
L 145.250055 242.85125 
L 145.250055 260.45 
L 147.155222 242.85125 
L 147.155222 260.45 
L 149.06039 242.85125 
L 149.06039 260.45 
L 150.965558 242.85125 
L 150.965558 260.45 
L 152.870726 242.85125 
L 152.870726 260.45 
L 154.775894 242.85125 
L 154.775894 260.45 
L 156.681062 242.85125 
L 156.681062 260.45 
L 158.586229 242.85125 
L 158.586229 260.45 
L 160.491397 242.85125 
L 160.491397 260.45 
L 162.396565 242.85125 
L 162.396565 260.45 
L 164.301733 242.85125 
L 164.301733 260.45 
L 166.206901 242.85125 
L 166.206901 260.45 
L 168.112069 242.85125 
L 168.112069 260.45 
L 170.017236 242.85125 
L 170.017236 260.45 
L 171.922404 242.85125 
L 171.922404 260.45 
L 173.827572 242.85125 
L 173.827572 260.45 
L 175.73274 242.85125 
L 175.73274 260.45 
L 177.637908 242.85125 
L 177.637908 260.45 
L 179.543075 242.85125 
L 179.543075 260.45 
L 181.448243 242.85125 
L 181.448243 260.45 
L 183.353411 242.85125 
L 183.353411 260.45 
L 185.258579 242.85125 
L 185.258579 260.45 
L 187.163747 242.85125 
L 187.163747 260.45 
L 189.068915 242.85125 
L 189.068915 260.45 
L 190.974082 242.85125 
L 190.974082 260.45 
L 192.87925 242.85125 
L 192.87925 260.45 
L 194.784418 242.85125 
L 194.784418 260.45 
L 196.689586 242.85125 
L 196.689586 260.45 
L 198.594754 242.85125 
L 198.594754 260.45 
L 200.499922 242.85125 
L 200.499922 260.45 
L 202.405089 242.85125 
L 202.405089 260.45 
L 204.310257 242.85125 
L 204.310257 260.45 
L 206.215425 242.85125 
L 206.215425 260.45 
L 208.120593 242.85125 
L 208.120593 260.45 
L 210.025761 242.85125 
L 210.025761 260.45 
L 211.930929 242.85125 
L 211.930929 260.45 
L 213.836096 242.85125 
L 213.836096 260.45 
L 215.741264 242.85125 
L 215.741264 260.45 
L 217.646432 242.85125 
L 217.646432 260.45 
L 219.5516 242.85125 
L 219.5516 260.45 
L 221.456768 242.85125 
L 221.456768 260.45 
L 223.361936 242.85125 
L 223.361936 260.45 
L 225.267103 242.85125 
L 225.267103 260.45 
L 227.172271 242.85125 
L 227.172271 260.45 
L 229.077439 242.85125 
L 229.077439 260.45 
L 230.982607 242.85125 
L 230.982607 260.45 
L 232.887775 242.85125 
L 232.887775 260.45 
L 234.792942 242.85125 
L 234.792942 260.45 
L 236.69811 242.85125 
L 236.69811 260.45 
L 238.603278 242.85125 
L 238.603278 260.45 
L 240.508446 242.85125 
L 240.508446 260.45 
L 242.413614 242.85125 
L 242.413614 260.45 
L 244.318782 242.85125 
L 244.318782 260.45 
L 246.223949 242.85125 
L 246.223949 260.45 
L 248.129117 242.85125 
L 248.129117 260.45 
L 250.034285 242.85125 
L 250.034285 260.45 
L 251.939453 242.85125 
L 251.939453 260.45 
L 253.844621 242.85125 
L 253.844621 260.45 
L 255.749789 242.85125 
L 255.749789 260.45 
L 257.654956 242.85125 
L 257.654956 260.45 
L 259.560124 242.85125 
L 259.560124 260.45 
L 261.465292 242.85125 
L 261.465292 260.45 
L 263.37046 242.85125 
L 263.37046 260.45 
L 265.275628 242.85125 
L 265.275628 260.45 
L 267.180796 242.85125 
L 267.180796 260.45 
L 269.085963 242.85125 
L 269.085963 260.45 
L 270.991131 242.85125 
L 270.991131 260.45 
L 272.896299 242.85125 
L 272.896299 260.45 
L 274.801467 242.85125 
L 274.801467 260.45 
L 276.706635 242.85125 
L 276.706635 260.45 
L 278.611803 242.85125 
L 278.611803 260.45 
L 280.51697 242.85125 
L 280.51697 260.45 
L 282.422138 242.85125 
L 282.422138 260.45 
L 284.327306 242.85125 
L 284.327306 260.45 
L 286.232474 242.85125 
L 286.232474 260.45 
L 288.137642 242.85125 
L 288.137642 260.45 
L 290.04281 242.85125 
L 290.04281 260.45 
L 291.947977 242.85125 
L 291.947977 260.45 
L 293.853145 242.85125 
L 293.853145 260.45 
L 295.758313 242.85125 
L 295.758313 260.45 
L 297.663481 242.85125 
L 297.663481 260.45 
L 299.568649 242.85125 
L 299.568649 260.45 
L 301.473816 242.85125 
L 301.473816 260.45 
L 303.378984 242.85125 
L 303.378984 260.45 
L 305.284152 242.85125 
L 305.284152 260.45 
L 307.18932 242.85125 
L 307.18932 260.45 
L 309.094488 242.85125 
L 309.094488 260.45 
L 310.999656 242.85125 
L 310.999656 260.45 
L 312.904823 242.85125 
L 312.904823 260.45 
L 314.809991 242.85125 
L 314.809991 260.45 
L 316.715159 242.85125 
L 316.715159 260.45 
L 318.620327 242.85125 
L 318.620327 260.45 
L 320.525495 242.85125 
L 320.525495 260.45 
L 322.430663 242.85125 
L 322.430663 260.45 
L 324.33583 242.85125 
L 324.33583 260.45 
L 326.240998 242.85125 
L 326.240998 260.45 
L 328.146166 242.85125 
L 328.146166 260.45 
L 330.051334 242.85125 
L 330.051334 260.45 
L 331.956502 242.85125 
L 331.956502 260.45 
L 333.86167 242.85125 
L 333.86167 260.45 
L 335.766837 242.85125 
L 335.766837 260.45 
L 337.672005 242.85125 
L 337.672005 260.45 
L 339.577173 242.85125 
L 339.577173 260.45 
L 341.482341 242.85125 
L 341.482341 260.45 
L 343.387509 242.85125 
L 343.387509 260.45 
L 345.292677 242.85125 
L 345.292677 260.45 
L 347.197844 242.85125 
L 347.197844 260.45 
L 349.103012 242.85125 
L 349.103012 260.45 
L 351.00818 242.85125 
L 351.00818 260.45 
L 352.913348 242.85125 
L 352.913348 260.45 
L 354.818516 242.85125 
L 354.818516 260.45 
L 356.723683 242.85125 
L 356.723683 260.45 
L 358.628851 242.85125 
L 358.628851 260.45 
L 360.534019 242.85125 
L 360.534019 260.45 
L 362.439187 242.85125 
L 362.439187 260.45 
L 364.344355 242.85125 
L 364.344355 260.45 
L 366.249523 242.85125 
L 366.249523 260.45 
L 368.15469 242.85125 
L 368.15469 260.45 
L 370.059858 242.85125 
L 370.059858 260.45 
L 371.965026 242.85125 
L 371.965026 260.45 
L 373.870194 242.85125 
L 373.870194 260.45 
L 375.775362 242.85125 
L 375.775362 260.45 
L 377.68053 242.85125 
L 377.68053 260.45 
L 379.585697 242.85125 
L 379.585697 260.45 
L 381.490865 242.85125 
L 381.490865 260.45 
L 383.396033 242.85125 
L 383.396033 260.45 
L 385.301201 242.85125 
L 385.301201 260.45 
L 387.206369 242.85125 
L 387.206369 260.45 
L 389.111537 242.85125 
L 389.111537 260.45 
L 391.016704 242.85125 
L 391.016704 260.45 
L 392.921872 242.85125 
L 392.921872 260.45 
L 394.82704 242.85125 
L 394.82704 260.45 
L 396.732208 242.85125 
L 396.732208 260.45 
L 398.637376 242.85125 
L 398.637376 260.45 
L 400.542544 242.85125 
L 400.542544 260.45 
L 402.447711 242.85125 
L 402.447711 260.45 
L 404.352879 242.85125 
L 404.352879 260.45 
L 406.258047 242.85125 
L 406.258047 260.45 
L 408.163215 242.85125 
L 408.163215 260.45 
L 410.068383 242.85125 
L 410.068383 260.45 
L 410.068383 260.45 
" clip-path="url(#pd75ead718c)" style="fill: none; stroke: #1f77b4; stroke-width: 1.5; stroke-linecap: square"/>
   </g>
   <g id="patch_3">
    <path d="M 30.64375 260.45 
L 30.64375 25.8 
" style="fill: none; stroke: #000000; stroke-width: 0.8; stroke-linejoin: miter; stroke-linecap: square"/>
   </g>
   <g id="patch_4">
    <path d="M 415.763134 260.45 
L 415.763134 25.8 
" style="fill: none; stroke: #000000; stroke-width: 0.8; stroke-linejoin: miter; stroke-linecap: square"/>
   </g>
   <g id="patch_5">
    <path d="M 30.64375 260.45 
L 415.763134 260.45 
" style="fill: none; stroke: #000000; stroke-width: 0.8; stroke-linejoin: miter; stroke-linecap: square"/>
   </g>
   <g id="patch_6">
    <path d="M 30.64375 25.8 
L 415.763134 25.8 
" style="fill: none; stroke: #000000; stroke-width: 0.8; stroke-linejoin: miter; stroke-linecap: square"/>
   </g>
   <g id="text_17">
    <!-- Tamaos de buffer -->
    <g transform="translate(167.422192 19.8)scale(0.12 -0.12)">
     <defs>
      <path id="DejaVuSans-54" d="M -19 4666 
L 3928 4666 
L 3928 4134 
L 2272 4134 
L 2272 0 
L 1638 0 
L 1638 4134 
L -19 4134 
L -19 4666 
z
" transform="scale(0.015625)"/>
      <path id="DejaVuSans-61" d="M 2194 1759 
Q 1497 1759 1228 1600 
Q 959 1441 959 1056 
Q 959 750 1161 570 
Q 1363 391 1709 391 
Q 2188 391 2477 730 
Q 2766 1069 2766 1631 
L 2766 1759 
L 2194 1759 
z
M 3341 1997 
L 3341 0 
L 2766 0 
L 2766 531 
Q 2569 213 2275 61 
Q 1981 -91 1556 -91 
Q 1019 -91 701 211 
Q 384 513 384 1019 
Q 384 1609 779 1909 
Q 1175 2209 1959 2209 
L 2766 2209 
L 2766 2266 
Q 2766 2663 2505 2880 
Q 2244 3097 1772 3097 
Q 1472 3097 1187 3025 
Q 903 2953 641 2809 
L 641 3341 
Q 956 3463 1253 3523 
Q 1550 3584 1831 3584 
Q 2591 3584 2966 3190 
Q 3341 2797 3341 1997 
z
" transform="scale(0.015625)"/>
      <path id="DejaVuSans-6d" d="M 3328 2828 
Q 3544 3216 3844 3400 
Q 4144 3584 4550 3584 
Q 5097 3584 5394 3201 
Q 5691 2819 5691 2113 
L 5691 0 
L 5113 0 
L 5113 2094 
Q 5113 2597 4934 2840 
Q 4756 3084 4391 3084 
Q 3944 3084 3684 2787 
Q 3425 2491 3425 1978 
L 3425 0 
L 2847 0 
L 2847 2094 
Q 2847 2600 2669 2842 
Q 2491 3084 2119 3084 
Q 1678 3084 1418 2786 
Q 1159 2488 1159 1978 
L 1159 0 
L 581 0 
L 581 3500 
L 1159 3500 
L 1159 2956 
Q 1356 3278 1631 3431 
Q 1906 3584 2284 3584 
Q 2666 3584 2933 3390 
Q 3200 3197 3328 2828 
z
" transform="scale(0.015625)"/>
      <path id="DejaVuSans-f1" d="M 3513 2113 
L 3513 0 
L 2938 0 
L 2938 2094 
Q 2938 2591 2744 2837 
Q 2550 3084 2163 3084 
Q 1697 3084 1428 2787 
Q 1159 2491 1159 1978 
L 1159 0 
L 581 0 
L 581 3500 
L 1159 3500 
L 1159 2956 
Q 1366 3272 1645 3428 
Q 1925 3584 2291 3584 
Q 2894 3584 3203 3211 
Q 3513 2838 3513 2113 
z
M 2060 4281 
L 1881 4453 
Q 1813 4516 1761 4545 
Q 1710 4575 1669 4575 
Q 1550 4575 1494 4461 
Q 1438 4347 1431 4091 
L 1041 4091 
Q 1047 4513 1206 4742 
Q 1366 4972 1650 4972 
Q 1769 4972 1869 4928 
Q 1969 4884 2085 4781 
L 2263 4609 
Q 2331 4547 2383 4517 
Q 2435 4488 2475 4488 
Q 2594 4488 2650 4602 
Q 2706 4716 2713 4972 
L 3103 4972 
Q 3097 4550 2937 4320 
Q 2778 4091 2494 4091 
Q 2375 4091 2275 4134 
Q 2175 4178 2060 4281 
z
" transform="scale(0.015625)"/>
      <path id="DejaVuSans-6f" d="M 1959 3097 
Q 1497 3097 1228 2736 
Q 959 2375 959 1747 
Q 959 1119 1226 758 
Q 1494 397 1959 397 
Q 2419 397 2687 759 
Q 2956 1122 2956 1747 
Q 2956 2369 2687 2733 
Q 2419 3097 1959 3097 
z
M 1959 3584 
Q 2709 3584 3137 3096 
Q 3566 2609 3566 1747 
Q 3566 888 3137 398 
Q 2709 -91 1959 -91 
Q 1206 -91 779 398 
Q 353 888 353 1747 
Q 353 2609 779 3096 
Q 1206 3584 1959 3584 
z
" transform="scale(0.015625)"/>
      <path id="DejaVuSans-73" d="M 2834 3397 
L 2834 2853 
Q 2591 2978 2328 3040 
Q 2066 3103 1784 3103 
Q 1356 3103 1142 2972 
Q 928 2841 928 2578 
Q 928 2378 1081 2264 
Q 1234 2150 1697 2047 
L 1894 2003 
Q 2506 1872 2764 1633 
Q 3022 1394 3022 966 
Q 3022 478 2636 193 
Q 2250 -91 1575 -91 
Q 1294 -91 989 -36 
Q 684 19 347 128 
L 347 722 
Q 666 556 975 473 
Q 1284 391 1588 391 
Q 1994 391 2212 530 
Q 2431 669 2431 922 
Q 2431 1156 2273 1281 
Q 2116 1406 1581 1522 
L 1381 1569 
Q 847 1681 609 1914 
Q 372 2147 372 2553 
Q 372 3047 722 3315 
Q 1072 3584 1716 3584 
Q 2034 3584 2315 3537 
Q 2597 3491 2834 3397 
z
" transform="scale(0.015625)"/>
      <path id="DejaVuSans-20" transform="scale(0.015625)"/>
      <path id="DejaVuSans-64" d="M 2906 2969 
L 2906 4863 
L 3481 4863 
L 3481 0 
L 2906 0 
L 2906 525 
Q 2725 213 2448 61 
Q 2172 -91 1784 -91 
Q 1150 -91 751 415 
Q 353 922 353 1747 
Q 353 2572 751 3078 
Q 1150 3584 1784 3584 
Q 2172 3584 2448 3432 
Q 2725 3281 2906 2969 
z
M 947 1747 
Q 947 1113 1208 752 
Q 1469 391 1925 391 
Q 2381 391 2643 752 
Q 2906 1113 2906 1747 
Q 2906 2381 2643 2742 
Q 2381 3103 1925 3103 
Q 1469 3103 1208 2742 
Q 947 2381 947 1747 
z
" transform="scale(0.015625)"/>
      <path id="DejaVuSans-65" d="M 3597 1894 
L 3597 1613 
L 953 1613 
Q 991 1019 1311 708 
Q 1631 397 2203 397 
Q 2534 397 2845 478 
Q 3156 559 3463 722 
L 3463 178 
Q 3153 47 2828 -22 
Q 2503 -91 2169 -91 
Q 1331 -91 842 396 
Q 353 884 353 1716 
Q 353 2575 817 3079 
Q 1281 3584 2069 3584 
Q 2775 3584 3186 3129 
Q 3597 2675 3597 1894 
z
M 3022 2063 
Q 3016 2534 2758 2815 
Q 2500 3097 2075 3097 
Q 1594 3097 1305 2825 
Q 1016 2553 972 2059 
L 3022 2063 
z
" transform="scale(0.015625)"/>
      <path id="DejaVuSans-62" d="M 3116 1747 
Q 3116 2381 2855 2742 
Q 2594 3103 2138 3103 
Q 1681 3103 1420 2742 
Q 1159 2381 1159 1747 
Q 1159 1113 1420 752 
Q 1681 391 2138 391 
Q 2594 391 2855 752 
Q 3116 1113 3116 1747 
z
M 1159 2969 
Q 1341 3281 1617 3432 
Q 1894 3584 2278 3584 
Q 2916 3584 3314 3078 
Q 3713 2572 3713 1747 
Q 3713 922 3314 415 
Q 2916 -91 2278 -91 
Q 1894 -91 1617 61 
Q 1341 213 1159 525 
L 1159 0 
L 581 0 
L 581 4863 
L 1159 4863 
L 1159 2969 
z
" transform="scale(0.015625)"/>
      <path id="DejaVuSans-75" d="M 544 1381 
L 544 3500 
L 1119 3500 
L 1119 1403 
Q 1119 906 1312 657 
Q 1506 409 1894 409 
Q 2359 409 2629 706 
Q 2900 1003 2900 1516 
L 2900 3500 
L 3475 3500 
L 3475 0 
L 2900 0 
L 2900 538 
Q 2691 219 2414 64 
Q 2138 -91 1772 -91 
Q 1169 -91 856 284 
Q 544 659 544 1381 
z
M 1991 3584 
L 1991 3584 
z
" transform="scale(0.015625)"/>
      <path id="DejaVuSans-66" d="M 2375 4863 
L 2375 4384 
L 1825 4384 
Q 1516 4384 1395 4259 
Q 1275 4134 1275 3809 
L 1275 3500 
L 2222 3500 
L 2222 3053 
L 1275 3053 
L 1275 0 
L 697 0 
L 697 3053 
L 147 3053 
L 147 3500 
L 697 3500 
L 697 3744 
Q 697 4328 969 4595 
Q 1241 4863 1831 4863 
L 2375 4863 
z
" transform="scale(0.015625)"/>
      <path id="DejaVuSans-72" d="M 2631 2963 
Q 2534 3019 2420 3045 
Q 2306 3072 2169 3072 
Q 1681 3072 1420 2755 
Q 1159 2438 1159 1844 
L 1159 0 
L 581 0 
L 581 3500 
L 1159 3500 
L 1159 2956 
Q 1341 3275 1631 3429 
Q 1922 3584 2338 3584 
Q 2397 3584 2469 3576 
Q 2541 3569 2628 3553 
L 2631 2963 
z
" transform="scale(0.015625)"/>
     </defs>
     <use xlink:href="#DejaVuSans-54"/>
     <use xlink:href="#DejaVuSans-61" x="44.583984"/>
     <use xlink:href="#DejaVuSans-6d" x="105.863281"/>
     <use xlink:href="#DejaVuSans-61" x="203.275391"/>
     <use xlink:href="#DejaVuSans-f1" x="264.554688"/>
     <use xlink:href="#DejaVuSans-6f" x="327.933594"/>
     <use xlink:href="#DejaVuSans-73" x="389.115234"/>
     <use xlink:href="#DejaVuSans-20" x="441.214844"/>
     <use xlink:href="#DejaVuSans-64" x="473.001953"/>
     <use xlink:href="#DejaVuSans-65" x="536.478516"/>
     <use xlink:href="#DejaVuSans-20" x="598.001953"/>
     <use xlink:href="#DejaVuSans-62" x="629.789062"/>
     <use xlink:href="#DejaVuSans-75" x="693.265625"/>
     <use xlink:href="#DejaVuSans-66" x="756.644531"/>
     <use xlink:href="#DejaVuSans-66" x="791.849609"/>
     <use xlink:href="#DejaVuSans-65" x="827.054688"/>
     <use xlink:href="#DejaVuSans-72" x="888.578125"/>
    </g>
   </g>
   <g id="legend_1">
    <g id="patch_7">
     <path d="M 260.458446 195.259375 
L 408.763134 195.259375 
Q 410.763134 195.259375 410.763134 193.259375 
L 410.763134 32.8 
Q 410.763134 30.8 408.763134 30.8 
L 260.458446 30.8 
Q 258.458446 30.8 258.458446 32.8 
L 258.458446 193.259375 
Q 258.458446 195.259375 260.458446 195.259375 
z
" style="fill: #ffffff; opacity: 0.8; stroke: #cccccc; stroke-linejoin: miter"/>
    </g>
    <g id="line2d_44">
     <path d="M 262.458446 38.898437 
L 272.458446 38.898437 
L 282.458446 38.898437 
" style="fill: none; stroke: #1f77b4; stroke-width: 1.5; stroke-linecap: square"/>
    </g>
    <g id="text_18">
     <!-- Network.node[0].lnk[0] -->
     <g transform="translate(290.458446 42.398437)scale(0.1 -0.1)">
      <defs>
       <path id="DejaVuSans-4e" d="M 628 4666 
L 1478 4666 
L 3547 763 
L 3547 4666 
L 4159 4666 
L 4159 0 
L 3309 0 
L 1241 3903 
L 1241 0 
L 628 0 
L 628 4666 
z
" transform="scale(0.015625)"/>
       <path id="DejaVuSans-74" d="M 1172 4494 
L 1172 3500 
L 2356 3500 
L 2356 3053 
L 1172 3053 
L 1172 1153 
Q 1172 725 1289 603 
Q 1406 481 1766 481 
L 2356 481 
L 2356 0 
L 1766 0 
Q 1100 0 847 248 
Q 594 497 594 1153 
L 594 3053 
L 172 3053 
L 172 3500 
L 594 3500 
L 594 4494 
L 1172 4494 
z
" transform="scale(0.015625)"/>
       <path id="DejaVuSans-77" d="M 269 3500 
L 844 3500 
L 1563 769 
L 2278 3500 
L 2956 3500 
L 3675 769 
L 4391 3500 
L 4966 3500 
L 4050 0 
L 3372 0 
L 2619 2869 
L 1863 0 
L 1184 0 
L 269 3500 
z
" transform="scale(0.015625)"/>
       <path id="DejaVuSans-6b" d="M 581 4863 
L 1159 4863 
L 1159 1991 
L 2875 3500 
L 3609 3500 
L 1753 1863 
L 3688 0 
L 2938 0 
L 1159 1709 
L 1159 0 
L 581 0 
L 581 4863 
z
" transform="scale(0.015625)"/>
       <path id="DejaVuSans-2e" d="M 684 794 
L 1344 794 
L 1344 0 
L 684 0 
L 684 794 
z
" transform="scale(0.015625)"/>
       <path id="DejaVuSans-6e" d="M 3513 2113 
L 3513 0 
L 2938 0 
L 2938 2094 
Q 2938 2591 2744 2837 
Q 2550 3084 2163 3084 
Q 1697 3084 1428 2787 
Q 1159 2491 1159 1978 
L 1159 0 
L 581 0 
L 581 3500 
L 1159 3500 
L 1159 2956 
Q 1366 3272 1645 3428 
Q 1925 3584 2291 3584 
Q 2894 3584 3203 3211 
Q 3513 2838 3513 2113 
z
" transform="scale(0.015625)"/>
       <path id="DejaVuSans-5b" d="M 550 4863 
L 1875 4863 
L 1875 4416 
L 1125 4416 
L 1125 -397 
L 1875 -397 
L 1875 -844 
L 550 -844 
L 550 4863 
z
" transform="scale(0.015625)"/>
       <path id="DejaVuSans-5d" d="M 1947 4863 
L 1947 -844 
L 622 -844 
L 622 -397 
L 1369 -397 
L 1369 4416 
L 622 4416 
L 622 4863 
L 1947 4863 
z
" transform="scale(0.015625)"/>
       <path id="DejaVuSans-6c" d="M 603 4863 
L 1178 4863 
L 1178 0 
L 603 0 
L 603 4863 
z
" transform="scale(0.015625)"/>
      </defs>
      <use xlink:href="#DejaVuSans-4e"/>
      <use xlink:href="#DejaVuSans-65" x="74.804688"/>
      <use xlink:href="#DejaVuSans-74" x="136.328125"/>
      <use xlink:href="#DejaVuSans-77" x="175.537109"/>
      <use xlink:href="#DejaVuSans-6f" x="257.324219"/>
      <use xlink:href="#DejaVuSans-72" x="318.505859"/>
      <use xlink:href="#DejaVuSans-6b" x="359.619141"/>
      <use xlink:href="#DejaVuSans-2e" x="417.529297"/>
      <use xlink:href="#DejaVuSans-6e" x="449.316406"/>
      <use xlink:href="#DejaVuSans-6f" x="512.695312"/>
      <use xlink:href="#DejaVuSans-64" x="573.876953"/>
      <use xlink:href="#DejaVuSans-65" x="637.353516"/>
      <use xlink:href="#DejaVuSans-5b" x="698.876953"/>
      <use xlink:href="#DejaVuSans-30" x="737.890625"/>
      <use xlink:href="#DejaVuSans-5d" x="801.513672"/>
      <use xlink:href="#DejaVuSans-2e" x="840.527344"/>
      <use xlink:href="#DejaVuSans-6c" x="872.314453"/>
      <use xlink:href="#DejaVuSans-6e" x="900.097656"/>
      <use xlink:href="#DejaVuSans-6b" x="963.476562"/>
      <use xlink:href="#DejaVuSans-5b" x="1021.386719"/>
      <use xlink:href="#DejaVuSans-30" x="1060.400391"/>
      <use xlink:href="#DejaVuSans-5d" x="1124.023438"/>
     </g>
    </g>
    <g id="line2d_45">
     <path d="M 262.458446 53.576562 
L 272.458446 53.576562 
L 282.458446 53.576562 
" style="fill: none; stroke: #ff7f0e; stroke-width: 1.5; stroke-linecap: square"/>
    </g>
    <g id="text_19">
     <!-- Network.node[1].lnk[0] -->
     <g transform="translate(290.458446 57.076562)scale(0.1 -0.1)">
      <use xlink:href="#DejaVuSans-4e"/>
      <use xlink:href="#DejaVuSans-65" x="74.804688"/>
      <use xlink:href="#DejaVuSans-74" x="136.328125"/>
      <use xlink:href="#DejaVuSans-77" x="175.537109"/>
      <use xlink:href="#DejaVuSans-6f" x="257.324219"/>
      <use xlink:href="#DejaVuSans-72" x="318.505859"/>
      <use xlink:href="#DejaVuSans-6b" x="359.619141"/>
      <use xlink:href="#DejaVuSans-2e" x="417.529297"/>
      <use xlink:href="#DejaVuSans-6e" x="449.316406"/>
      <use xlink:href="#DejaVuSans-6f" x="512.695312"/>
      <use xlink:href="#DejaVuSans-64" x="573.876953"/>
      <use xlink:href="#DejaVuSans-65" x="637.353516"/>
      <use xlink:href="#DejaVuSans-5b" x="698.876953"/>
      <use xlink:href="#DejaVuSans-31" x="737.890625"/>
      <use xlink:href="#DejaVuSans-5d" x="801.513672"/>
      <use xlink:href="#DejaVuSans-2e" x="840.527344"/>
      <use xlink:href="#DejaVuSans-6c" x="872.314453"/>
      <use xlink:href="#DejaVuSans-6e" x="900.097656"/>
      <use xlink:href="#DejaVuSans-6b" x="963.476562"/>
      <use xlink:href="#DejaVuSans-5b" x="1021.386719"/>
      <use xlink:href="#DejaVuSans-30" x="1060.400391"/>
      <use xlink:href="#DejaVuSans-5d" x="1124.023438"/>
     </g>
    </g>
    <g id="line2d_46">
     <path d="M 262.458446 68.254687 
L 272.458446 68.254687 
L 282.458446 68.254687 
" style="fill: none; stroke: #2ca02c; stroke-width: 1.5; stroke-linecap: square"/>
    </g>
    <g id="text_20">
     <!-- Network.node[2].lnk[0] -->
     <g transform="translate(290.458446 71.754687)scale(0.1 -0.1)">
      <use xlink:href="#DejaVuSans-4e"/>
      <use xlink:href="#DejaVuSans-65" x="74.804688"/>
      <use xlink:href="#DejaVuSans-74" x="136.328125"/>
      <use xlink:href="#DejaVuSans-77" x="175.537109"/>
      <use xlink:href="#DejaVuSans-6f" x="257.324219"/>
      <use xlink:href="#DejaVuSans-72" x="318.505859"/>
      <use xlink:href="#DejaVuSans-6b" x="359.619141"/>
      <use xlink:href="#DejaVuSans-2e" x="417.529297"/>
      <use xlink:href="#DejaVuSans-6e" x="449.316406"/>
      <use xlink:href="#DejaVuSans-6f" x="512.695312"/>
      <use xlink:href="#DejaVuSans-64" x="573.876953"/>
      <use xlink:href="#DejaVuSans-65" x="637.353516"/>
      <use xlink:href="#DejaVuSans-5b" x="698.876953"/>
      <use xlink:href="#DejaVuSans-32" x="737.890625"/>
      <use xlink:href="#DejaVuSans-5d" x="801.513672"/>
      <use xlink:href="#DejaVuSans-2e" x="840.527344"/>
      <use xlink:href="#DejaVuSans-6c" x="872.314453"/>
      <use xlink:href="#DejaVuSans-6e" x="900.097656"/>
      <use xlink:href="#DejaVuSans-6b" x="963.476562"/>
      <use xlink:href="#DejaVuSans-5b" x="1021.386719"/>
      <use xlink:href="#DejaVuSans-30" x="1060.400391"/>
      <use xlink:href="#DejaVuSans-5d" x="1124.023438"/>
     </g>
    </g>
    <g id="line2d_47">
     <path d="M 262.458446 82.932812 
L 272.458446 82.932812 
L 282.458446 82.932812 
" style="fill: none; stroke: #d62728; stroke-width: 1.5; stroke-linecap: square"/>
    </g>
    <g id="text_21">
     <!-- Network.node[2].lnk[1] -->
     <g transform="translate(290.458446 86.432812)scale(0.1 -0.1)">
      <use xlink:href="#DejaVuSans-4e"/>
      <use xlink:href="#DejaVuSans-65" x="74.804688"/>
      <use xlink:href="#DejaVuSans-74" x="136.328125"/>
      <use xlink:href="#DejaVuSans-77" x="175.537109"/>
      <use xlink:href="#DejaVuSans-6f" x="257.324219"/>
      <use xlink:href="#DejaVuSans-72" x="318.505859"/>
      <use xlink:href="#DejaVuSans-6b" x="359.619141"/>
      <use xlink:href="#DejaVuSans-2e" x="417.529297"/>
      <use xlink:href="#DejaVuSans-6e" x="449.316406"/>
      <use xlink:href="#DejaVuSans-6f" x="512.695312"/>
      <use xlink:href="#DejaVuSans-64" x="573.876953"/>
      <use xlink:href="#DejaVuSans-65" x="637.353516"/>
      <use xlink:href="#DejaVuSans-5b" x="698.876953"/>
      <use xlink:href="#DejaVuSans-32" x="737.890625"/>
      <use xlink:href="#DejaVuSans-5d" x="801.513672"/>
      <use xlink:href="#DejaVuSans-2e" x="840.527344"/>
      <use xlink:href="#DejaVuSans-6c" x="872.314453"/>
      <use xlink:href="#DejaVuSans-6e" x="900.097656"/>
      <use xlink:href="#DejaVuSans-6b" x="963.476562"/>
      <use xlink:href="#DejaVuSans-5b" x="1021.386719"/>
      <use xlink:href="#DejaVuSans-31" x="1060.400391"/>
      <use xlink:href="#DejaVuSans-5d" x="1124.023438"/>
     </g>
    </g>
    <g id="line2d_48">
     <path d="M 262.458446 97.610937 
L 272.458446 97.610937 
L 282.458446 97.610937 
" style="fill: none; stroke: #9467bd; stroke-width: 1.5; stroke-linecap: square"/>
    </g>
    <g id="text_22">
     <!-- Network.node[3].lnk[0] -->
     <g transform="translate(290.458446 101.110937)scale(0.1 -0.1)">
      <defs>
       <path id="DejaVuSans-33" d="M 2597 2516 
Q 3050 2419 3304 2112 
Q 3559 1806 3559 1356 
Q 3559 666 3084 287 
Q 2609 -91 1734 -91 
Q 1441 -91 1130 -33 
Q 819 25 488 141 
L 488 750 
Q 750 597 1062 519 
Q 1375 441 1716 441 
Q 2309 441 2620 675 
Q 2931 909 2931 1356 
Q 2931 1769 2642 2001 
Q 2353 2234 1838 2234 
L 1294 2234 
L 1294 2753 
L 1863 2753 
Q 2328 2753 2575 2939 
Q 2822 3125 2822 3475 
Q 2822 3834 2567 4026 
Q 2313 4219 1838 4219 
Q 1578 4219 1281 4162 
Q 984 4106 628 3988 
L 628 4550 
Q 988 4650 1302 4700 
Q 1616 4750 1894 4750 
Q 2613 4750 3031 4423 
Q 3450 4097 3450 3541 
Q 3450 3153 3228 2886 
Q 3006 2619 2597 2516 
z
" transform="scale(0.015625)"/>
      </defs>
      <use xlink:href="#DejaVuSans-4e"/>
      <use xlink:href="#DejaVuSans-65" x="74.804688"/>
      <use xlink:href="#DejaVuSans-74" x="136.328125"/>
      <use xlink:href="#DejaVuSans-77" x="175.537109"/>
      <use xlink:href="#DejaVuSans-6f" x="257.324219"/>
      <use xlink:href="#DejaVuSans-72" x="318.505859"/>
      <use xlink:href="#DejaVuSans-6b" x="359.619141"/>
      <use xlink:href="#DejaVuSans-2e" x="417.529297"/>
      <use xlink:href="#DejaVuSans-6e" x="449.316406"/>
      <use xlink:href="#DejaVuSans-6f" x="512.695312"/>
      <use xlink:href="#DejaVuSans-64" x="573.876953"/>
      <use xlink:href="#DejaVuSans-65" x="637.353516"/>
      <use xlink:href="#DejaVuSans-5b" x="698.876953"/>
      <use xlink:href="#DejaVuSans-33" x="737.890625"/>
      <use xlink:href="#DejaVuSans-5d" x="801.513672"/>
      <use xlink:href="#DejaVuSans-2e" x="840.527344"/>
      <use xlink:href="#DejaVuSans-6c" x="872.314453"/>
      <use xlink:href="#DejaVuSans-6e" x="900.097656"/>
      <use xlink:href="#DejaVuSans-6b" x="963.476562"/>
      <use xlink:href="#DejaVuSans-5b" x="1021.386719"/>
      <use xlink:href="#DejaVuSans-30" x="1060.400391"/>
      <use xlink:href="#DejaVuSans-5d" x="1124.023438"/>
     </g>
    </g>
    <g id="line2d_49">
     <path d="M 262.458446 112.289062 
L 272.458446 112.289062 
L 282.458446 112.289062 
" style="fill: none; stroke: #8c564b; stroke-width: 1.5; stroke-linecap: square"/>
    </g>
    <g id="text_23">
     <!-- Network.node[3].lnk[1] -->
     <g transform="translate(290.458446 115.789062)scale(0.1 -0.1)">
      <use xlink:href="#DejaVuSans-4e"/>
      <use xlink:href="#DejaVuSans-65" x="74.804688"/>
      <use xlink:href="#DejaVuSans-74" x="136.328125"/>
      <use xlink:href="#DejaVuSans-77" x="175.537109"/>
      <use xlink:href="#DejaVuSans-6f" x="257.324219"/>
      <use xlink:href="#DejaVuSans-72" x="318.505859"/>
      <use xlink:href="#DejaVuSans-6b" x="359.619141"/>
      <use xlink:href="#DejaVuSans-2e" x="417.529297"/>
      <use xlink:href="#DejaVuSans-6e" x="449.316406"/>
      <use xlink:href="#DejaVuSans-6f" x="512.695312"/>
      <use xlink:href="#DejaVuSans-64" x="573.876953"/>
      <use xlink:href="#DejaVuSans-65" x="637.353516"/>
      <use xlink:href="#DejaVuSans-5b" x="698.876953"/>
      <use xlink:href="#DejaVuSans-33" x="737.890625"/>
      <use xlink:href="#DejaVuSans-5d" x="801.513672"/>
      <use xlink:href="#DejaVuSans-2e" x="840.527344"/>
      <use xlink:href="#DejaVuSans-6c" x="872.314453"/>
      <use xlink:href="#DejaVuSans-6e" x="900.097656"/>
      <use xlink:href="#DejaVuSans-6b" x="963.476562"/>
      <use xlink:href="#DejaVuSans-5b" x="1021.386719"/>
      <use xlink:href="#DejaVuSans-31" x="1060.400391"/>
      <use xlink:href="#DejaVuSans-5d" x="1124.023438"/>
     </g>
    </g>
    <g id="line2d_50">
     <path d="M 262.458446 126.967187 
L 272.458446 126.967187 
L 282.458446 126.967187 
" style="fill: none; stroke: #e377c2; stroke-width: 1.5; stroke-linecap: square"/>
    </g>
    <g id="text_24">
     <!-- Network.node[4].lnk[0] -->
     <g transform="translate(290.458446 130.467187)scale(0.1 -0.1)">
      <use xlink:href="#DejaVuSans-4e"/>
      <use xlink:href="#DejaVuSans-65" x="74.804688"/>
      <use xlink:href="#DejaVuSans-74" x="136.328125"/>
      <use xlink:href="#DejaVuSans-77" x="175.537109"/>
      <use xlink:href="#DejaVuSans-6f" x="257.324219"/>
      <use xlink:href="#DejaVuSans-72" x="318.505859"/>
      <use xlink:href="#DejaVuSans-6b" x="359.619141"/>
      <use xlink:href="#DejaVuSans-2e" x="417.529297"/>
      <use xlink:href="#DejaVuSans-6e" x="449.316406"/>
      <use xlink:href="#DejaVuSans-6f" x="512.695312"/>
      <use xlink:href="#DejaVuSans-64" x="573.876953"/>
      <use xlink:href="#DejaVuSans-65" x="637.353516"/>
      <use xlink:href="#DejaVuSans-5b" x="698.876953"/>
      <use xlink:href="#DejaVuSans-34" x="737.890625"/>
      <use xlink:href="#DejaVuSans-5d" x="801.513672"/>
      <use xlink:href="#DejaVuSans-2e" x="840.527344"/>
      <use xlink:href="#DejaVuSans-6c" x="872.314453"/>
      <use xlink:href="#DejaVuSans-6e" x="900.097656"/>
      <use xlink:href="#DejaVuSans-6b" x="963.476562"/>
      <use xlink:href="#DejaVuSans-5b" x="1021.386719"/>
      <use xlink:href="#DejaVuSans-30" x="1060.400391"/>
      <use xlink:href="#DejaVuSans-5d" x="1124.023438"/>
     </g>
    </g>
    <g id="line2d_51">
     <path d="M 262.458446 141.645312 
L 272.458446 141.645312 
L 282.458446 141.645312 
" style="fill: none; stroke: #7f7f7f; stroke-width: 1.5; stroke-linecap: square"/>
    </g>
    <g id="text_25">
     <!-- Network.node[4].lnk[1] -->
     <g transform="translate(290.458446 145.145312)scale(0.1 -0.1)">
      <use xlink:href="#DejaVuSans-4e"/>
      <use xlink:href="#DejaVuSans-65" x="74.804688"/>
      <use xlink:href="#DejaVuSans-74" x="136.328125"/>
      <use xlink:href="#DejaVuSans-77" x="175.537109"/>
      <use xlink:href="#DejaVuSans-6f" x="257.324219"/>
      <use xlink:href="#DejaVuSans-72" x="318.505859"/>
      <use xlink:href="#DejaVuSans-6b" x="359.619141"/>
      <use xlink:href="#DejaVuSans-2e" x="417.529297"/>
      <use xlink:href="#DejaVuSans-6e" x="449.316406"/>
      <use xlink:href="#DejaVuSans-6f" x="512.695312"/>
      <use xlink:href="#DejaVuSans-64" x="573.876953"/>
      <use xlink:href="#DejaVuSans-65" x="637.353516"/>
      <use xlink:href="#DejaVuSans-5b" x="698.876953"/>
      <use xlink:href="#DejaVuSans-34" x="737.890625"/>
      <use xlink:href="#DejaVuSans-5d" x="801.513672"/>
      <use xlink:href="#DejaVuSans-2e" x="840.527344"/>
      <use xlink:href="#DejaVuSans-6c" x="872.314453"/>
      <use xlink:href="#DejaVuSans-6e" x="900.097656"/>
      <use xlink:href="#DejaVuSans-6b" x="963.476562"/>
      <use xlink:href="#DejaVuSans-5b" x="1021.386719"/>
      <use xlink:href="#DejaVuSans-31" x="1060.400391"/>
      <use xlink:href="#DejaVuSans-5d" x="1124.023438"/>
     </g>
    </g>
    <g id="line2d_52">
     <path d="M 262.458446 156.323437 
L 272.458446 156.323437 
L 282.458446 156.323437 
" style="fill: none; stroke: #bcbd22; stroke-width: 1.5; stroke-linecap: square"/>
    </g>
    <g id="text_26">
     <!-- Network.node[5].lnk[0] -->
     <g transform="translate(290.458446 159.823437)scale(0.1 -0.1)">
      <use xlink:href="#DejaVuSans-4e"/>
      <use xlink:href="#DejaVuSans-65" x="74.804688"/>
      <use xlink:href="#DejaVuSans-74" x="136.328125"/>
      <use xlink:href="#DejaVuSans-77" x="175.537109"/>
      <use xlink:href="#DejaVuSans-6f" x="257.324219"/>
      <use xlink:href="#DejaVuSans-72" x="318.505859"/>
      <use xlink:href="#DejaVuSans-6b" x="359.619141"/>
      <use xlink:href="#DejaVuSans-2e" x="417.529297"/>
      <use xlink:href="#DejaVuSans-6e" x="449.316406"/>
      <use xlink:href="#DejaVuSans-6f" x="512.695312"/>
      <use xlink:href="#DejaVuSans-64" x="573.876953"/>
      <use xlink:href="#DejaVuSans-65" x="637.353516"/>
      <use xlink:href="#DejaVuSans-5b" x="698.876953"/>
      <use xlink:href="#DejaVuSans-35" x="737.890625"/>
      <use xlink:href="#DejaVuSans-5d" x="801.513672"/>
      <use xlink:href="#DejaVuSans-2e" x="840.527344"/>
      <use xlink:href="#DejaVuSans-6c" x="872.314453"/>
      <use xlink:href="#DejaVuSans-6e" x="900.097656"/>
      <use xlink:href="#DejaVuSans-6b" x="963.476562"/>
      <use xlink:href="#DejaVuSans-5b" x="1021.386719"/>
      <use xlink:href="#DejaVuSans-30" x="1060.400391"/>
      <use xlink:href="#DejaVuSans-5d" x="1124.023438"/>
     </g>
    </g>
    <g id="line2d_53">
     <path d="M 262.458446 171.001562 
L 272.458446 171.001562 
L 282.458446 171.001562 
" style="fill: none; stroke: #17becf; stroke-width: 1.5; stroke-linecap: square"/>
    </g>
    <g id="text_27">
     <!-- Network.node[6].lnk[0] -->
     <g transform="translate(290.458446 174.501562)scale(0.1 -0.1)">
      <use xlink:href="#DejaVuSans-4e"/>
      <use xlink:href="#DejaVuSans-65" x="74.804688"/>
      <use xlink:href="#DejaVuSans-74" x="136.328125"/>
      <use xlink:href="#DejaVuSans-77" x="175.537109"/>
      <use xlink:href="#DejaVuSans-6f" x="257.324219"/>
      <use xlink:href="#DejaVuSans-72" x="318.505859"/>
      <use xlink:href="#DejaVuSans-6b" x="359.619141"/>
      <use xlink:href="#DejaVuSans-2e" x="417.529297"/>
      <use xlink:href="#DejaVuSans-6e" x="449.316406"/>
      <use xlink:href="#DejaVuSans-6f" x="512.695312"/>
      <use xlink:href="#DejaVuSans-64" x="573.876953"/>
      <use xlink:href="#DejaVuSans-65" x="637.353516"/>
      <use xlink:href="#DejaVuSans-5b" x="698.876953"/>
      <use xlink:href="#DejaVuSans-36" x="737.890625"/>
      <use xlink:href="#DejaVuSans-5d" x="801.513672"/>
      <use xlink:href="#DejaVuSans-2e" x="840.527344"/>
      <use xlink:href="#DejaVuSans-6c" x="872.314453"/>
      <use xlink:href="#DejaVuSans-6e" x="900.097656"/>
      <use xlink:href="#DejaVuSans-6b" x="963.476562"/>
      <use xlink:href="#DejaVuSans-5b" x="1021.386719"/>
      <use xlink:href="#DejaVuSans-30" x="1060.400391"/>
      <use xlink:href="#DejaVuSans-5d" x="1124.023438"/>
     </g>
    </g>
    <g id="line2d_54">
     <path d="M 262.458446 185.679687 
L 272.458446 185.679687 
L 282.458446 185.679687 
" style="fill: none; stroke: #1f77b4; stroke-width: 1.5; stroke-linecap: square"/>
    </g>
    <g id="text_28">
     <!-- Network.node[7].lnk[0] -->
     <g transform="translate(290.458446 189.179687)scale(0.1 -0.1)">
      <use xlink:href="#DejaVuSans-4e"/>
      <use xlink:href="#DejaVuSans-65" x="74.804688"/>
      <use xlink:href="#DejaVuSans-74" x="136.328125"/>
      <use xlink:href="#DejaVuSans-77" x="175.537109"/>
      <use xlink:href="#DejaVuSans-6f" x="257.324219"/>
      <use xlink:href="#DejaVuSans-72" x="318.505859"/>
      <use xlink:href="#DejaVuSans-6b" x="359.619141"/>
      <use xlink:href="#DejaVuSans-2e" x="417.529297"/>
      <use xlink:href="#DejaVuSans-6e" x="449.316406"/>
      <use xlink:href="#DejaVuSans-6f" x="512.695312"/>
      <use xlink:href="#DejaVuSans-64" x="573.876953"/>
      <use xlink:href="#DejaVuSans-65" x="637.353516"/>
      <use xlink:href="#DejaVuSans-5b" x="698.876953"/>
      <use xlink:href="#DejaVuSans-37" x="737.890625"/>
      <use xlink:href="#DejaVuSans-5d" x="801.513672"/>
      <use xlink:href="#DejaVuSans-2e" x="840.527344"/>
      <use xlink:href="#DejaVuSans-6c" x="872.314453"/>
      <use xlink:href="#DejaVuSans-6e" x="900.097656"/>
      <use xlink:href="#DejaVuSans-6b" x="963.476562"/>
      <use xlink:href="#DejaVuSans-5b" x="1021.386719"/>
      <use xlink:href="#DejaVuSans-30" x="1060.400391"/>
      <use xlink:href="#DejaVuSans-5d" x="1124.023438"/>
     </g>
    </g>
   </g>
  </g>
 </g>
 <defs>
  <clipPath id="pd75ead718c">
   <rect x="30.64375" y="25.8" width="385.119384" height="234.65"/>
  </clipPath>
 </defs>
</svg>
