<?xml version="1.0" encoding="utf-8" standalone="no"?>
<!DOCTYPE svg PUBLIC "-//W3C//DTD SVG 1.1//EN"
  "http://www.w3.org/Graphics/SVG/1.1/DTD/svg11.dtd">
<svg xmlns:xlink="http://www.w3.org/1999/xlink" width="432pt" height="288pt" viewBox="0 0 432 288" xmlns="http://www.w3.org/2000/svg" version="1.1">
 <metadata>
  <rdf:RDF xmlns:dc="http://purl.org/dc/elements/1.1/" xmlns:cc="http://creativecommons.org/ns#" xmlns:rdf="http://www.w3.org/1999/02/22-rdf-syntax-ns#">
   <cc:Work>
    <dc:type rdf:resource="http://purl.org/dc/dcmitype/StillImage"/>
    <dc:date>2022-06-21T15:42:29.661973</dc:date>
    <dc:format>image/svg+xml</dc:format>
    <dc:creator>
     <cc:Agent>
      <dc:title>omnetpp.scave 6.0.0; Matplotlib 3.5.1 w/ backend GTK3Agg; Pandas 1.4.2; Python 3.8.10; Linux-5.4.0-109-generic-x86_64-with-glibc2.29</dc:title>
     </cc:Agent>
    </dc:creator>
   </cc:Work>
  </rdf:RDF>
 </metadata>
 <defs>
  <style type="text/css">*{stroke-linejoin: round; stroke-linecap: butt}</style>
 </defs>
 <g id="figure_1">
  <g id="patch_1">
   <path d="M 0 288 
L 432 288 
L 432 0 
L 0 0 
z
" style="fill: #ffffff"/>
  </g>
  <g id="axes_1">
   <g id="patch_2">
    <path d="M 44.39375 246.7 
L 415.623092 246.7 
L 415.623092 25.8 
L 44.39375 25.8 
z
" style="fill: #ffffff"/>
   </g>
   <g id="matplotlib.axis_1">
    <g id="xtick_1">
     <g id="line2d_1">
      <path d="M 44.39375 246.7 
L 44.39375 25.8 
" clip-path="url(#pceec0393b4)" style="fill: none; stroke: #b0b0b0; stroke-width: 0.8; stroke-linecap: square"/>
     </g>
     <g id="line2d_2">
      <defs>
       <path id="mbf22d6d3f8" d="M 0 0 
L 0 3.5 
" style="stroke: #000000; stroke-width: 0.8"/>
      </defs>
      <g>
       <use xlink:href="#mbf22d6d3f8" x="44.39375" y="246.7" style="stroke: #000000; stroke-width: 0.8"/>
      </g>
     </g>
     <g id="text_1">
      <!-- 0 -->
      <g transform="translate(41.2125 261.298437)scale(0.1 -0.1)">
       <defs>
        <path id="DejaVuSans-30" d="M 2034 4250 
Q 1547 4250 1301 3770 
Q 1056 3291 1056 2328 
Q 1056 1369 1301 889 
Q 1547 409 2034 409 
Q 2525 409 2770 889 
Q 3016 1369 3016 2328 
Q 3016 3291 2770 3770 
Q 2525 4250 2034 4250 
z
M 2034 4750 
Q 2819 4750 3233 4129 
Q 3647 3509 3647 2328 
Q 3647 1150 3233 529 
Q 2819 -91 2034 -91 
Q 1250 -91 836 529 
Q 422 1150 422 2328 
Q 422 3509 836 4129 
Q 1250 4750 2034 4750 
z
" transform="scale(0.015625)"/>
       </defs>
       <use xlink:href="#DejaVuSans-30"/>
      </g>
     </g>
    </g>
    <g id="xtick_2">
     <g id="line2d_3">
      <path d="M 90.305111 246.7 
L 90.305111 25.8 
" clip-path="url(#pceec0393b4)" style="fill: none; stroke: #b0b0b0; stroke-width: 0.8; stroke-linecap: square"/>
     </g>
     <g id="line2d_4">
      <g>
       <use xlink:href="#mbf22d6d3f8" x="90.305111" y="246.7" style="stroke: #000000; stroke-width: 0.8"/>
      </g>
     </g>
     <g id="text_2">
      <!-- 25 -->
      <g transform="translate(83.942611 261.298437)scale(0.1 -0.1)">
       <defs>
        <path id="DejaVuSans-32" d="M 1228 531 
L 3431 531 
L 3431 0 
L 469 0 
L 469 531 
Q 828 903 1448 1529 
Q 2069 2156 2228 2338 
Q 2531 2678 2651 2914 
Q 2772 3150 2772 3378 
Q 2772 3750 2511 3984 
Q 2250 4219 1831 4219 
Q 1534 4219 1204 4116 
Q 875 4013 500 3803 
L 500 4441 
Q 881 4594 1212 4672 
Q 1544 4750 1819 4750 
Q 2544 4750 2975 4387 
Q 3406 4025 3406 3419 
Q 3406 3131 3298 2873 
Q 3191 2616 2906 2266 
Q 2828 2175 2409 1742 
Q 1991 1309 1228 531 
z
" transform="scale(0.015625)"/>
        <path id="DejaVuSans-35" d="M 691 4666 
L 3169 4666 
L 3169 4134 
L 1269 4134 
L 1269 2991 
Q 1406 3038 1543 3061 
Q 1681 3084 1819 3084 
Q 2600 3084 3056 2656 
Q 3513 2228 3513 1497 
Q 3513 744 3044 326 
Q 2575 -91 1722 -91 
Q 1428 -91 1123 -41 
Q 819 9 494 109 
L 494 744 
Q 775 591 1075 516 
Q 1375 441 1709 441 
Q 2250 441 2565 725 
Q 2881 1009 2881 1497 
Q 2881 1984 2565 2268 
Q 2250 2553 1709 2553 
Q 1456 2553 1204 2497 
Q 953 2441 691 2322 
L 691 4666 
z
" transform="scale(0.015625)"/>
       </defs>
       <use xlink:href="#DejaVuSans-32"/>
       <use xlink:href="#DejaVuSans-35" x="63.623047"/>
      </g>
     </g>
    </g>
    <g id="xtick_3">
     <g id="line2d_5">
      <path d="M 136.216472 246.7 
L 136.216472 25.8 
" clip-path="url(#pceec0393b4)" style="fill: none; stroke: #b0b0b0; stroke-width: 0.8; stroke-linecap: square"/>
     </g>
     <g id="line2d_6">
      <g>
       <use xlink:href="#mbf22d6d3f8" x="136.216472" y="246.7" style="stroke: #000000; stroke-width: 0.8"/>
      </g>
     </g>
     <g id="text_3">
      <!-- 50 -->
      <g transform="translate(129.853972 261.298437)scale(0.1 -0.1)">
       <use xlink:href="#DejaVuSans-35"/>
       <use xlink:href="#DejaVuSans-30" x="63.623047"/>
      </g>
     </g>
    </g>
    <g id="xtick_4">
     <g id="line2d_7">
      <path d="M 182.127832 246.7 
L 182.127832 25.8 
" clip-path="url(#pceec0393b4)" style="fill: none; stroke: #b0b0b0; stroke-width: 0.8; stroke-linecap: square"/>
     </g>
     <g id="line2d_8">
      <g>
       <use xlink:href="#mbf22d6d3f8" x="182.127832" y="246.7" style="stroke: #000000; stroke-width: 0.8"/>
      </g>
     </g>
     <g id="text_4">
      <!-- 75 -->
      <g transform="translate(175.765332 261.298437)scale(0.1 -0.1)">
       <defs>
        <path id="DejaVuSans-37" d="M 525 4666 
L 3525 4666 
L 3525 4397 
L 1831 0 
L 1172 0 
L 2766 4134 
L 525 4134 
L 525 4666 
z
" transform="scale(0.015625)"/>
       </defs>
       <use xlink:href="#DejaVuSans-37"/>
       <use xlink:href="#DejaVuSans-35" x="63.623047"/>
      </g>
     </g>
    </g>
    <g id="xtick_5">
     <g id="line2d_9">
      <path d="M 228.039193 246.7 
L 228.039193 25.8 
" clip-path="url(#pceec0393b4)" style="fill: none; stroke: #b0b0b0; stroke-width: 0.8; stroke-linecap: square"/>
     </g>
     <g id="line2d_10">
      <g>
       <use xlink:href="#mbf22d6d3f8" x="228.039193" y="246.7" style="stroke: #000000; stroke-width: 0.8"/>
      </g>
     </g>
     <g id="text_5">
      <!-- 100 -->
      <g transform="translate(218.495443 261.298437)scale(0.1 -0.1)">
       <defs>
        <path id="DejaVuSans-31" d="M 794 531 
L 1825 531 
L 1825 4091 
L 703 3866 
L 703 4441 
L 1819 4666 
L 2450 4666 
L 2450 531 
L 3481 531 
L 3481 0 
L 794 0 
L 794 531 
z
" transform="scale(0.015625)"/>
       </defs>
       <use xlink:href="#DejaVuSans-31"/>
       <use xlink:href="#DejaVuSans-30" x="63.623047"/>
       <use xlink:href="#DejaVuSans-30" x="127.246094"/>
      </g>
     </g>
    </g>
    <g id="xtick_6">
     <g id="line2d_11">
      <path d="M 273.950554 246.7 
L 273.950554 25.8 
" clip-path="url(#pceec0393b4)" style="fill: none; stroke: #b0b0b0; stroke-width: 0.8; stroke-linecap: square"/>
     </g>
     <g id="line2d_12">
      <g>
       <use xlink:href="#mbf22d6d3f8" x="273.950554" y="246.7" style="stroke: #000000; stroke-width: 0.8"/>
      </g>
     </g>
     <g id="text_6">
      <!-- 125 -->
      <g transform="translate(264.406804 261.298437)scale(0.1 -0.1)">
       <use xlink:href="#DejaVuSans-31"/>
       <use xlink:href="#DejaVuSans-32" x="63.623047"/>
       <use xlink:href="#DejaVuSans-35" x="127.246094"/>
      </g>
     </g>
    </g>
    <g id="xtick_7">
     <g id="line2d_13">
      <path d="M 319.861915 246.7 
L 319.861915 25.8 
" clip-path="url(#pceec0393b4)" style="fill: none; stroke: #b0b0b0; stroke-width: 0.8; stroke-linecap: square"/>
     </g>
     <g id="line2d_14">
      <g>
       <use xlink:href="#mbf22d6d3f8" x="319.861915" y="246.7" style="stroke: #000000; stroke-width: 0.8"/>
      </g>
     </g>
     <g id="text_7">
      <!-- 150 -->
      <g transform="translate(310.318165 261.298437)scale(0.1 -0.1)">
       <use xlink:href="#DejaVuSans-31"/>
       <use xlink:href="#DejaVuSans-35" x="63.623047"/>
       <use xlink:href="#DejaVuSans-30" x="127.246094"/>
      </g>
     </g>
    </g>
    <g id="xtick_8">
     <g id="line2d_15">
      <path d="M 365.773276 246.7 
L 365.773276 25.8 
" clip-path="url(#pceec0393b4)" style="fill: none; stroke: #b0b0b0; stroke-width: 0.8; stroke-linecap: square"/>
     </g>
     <g id="line2d_16">
      <g>
       <use xlink:href="#mbf22d6d3f8" x="365.773276" y="246.7" style="stroke: #000000; stroke-width: 0.8"/>
      </g>
     </g>
     <g id="text_8">
      <!-- 175 -->
      <g transform="translate(356.229526 261.298437)scale(0.1 -0.1)">
       <use xlink:href="#DejaVuSans-31"/>
       <use xlink:href="#DejaVuSans-37" x="63.623047"/>
       <use xlink:href="#DejaVuSans-35" x="127.246094"/>
      </g>
     </g>
    </g>
    <g id="xtick_9">
     <g id="line2d_17">
      <path d="M 411.684636 246.7 
L 411.684636 25.8 
" clip-path="url(#pceec0393b4)" style="fill: none; stroke: #b0b0b0; stroke-width: 0.8; stroke-linecap: square"/>
     </g>
     <g id="line2d_18">
      <g>
       <use xlink:href="#mbf22d6d3f8" x="411.684636" y="246.7" style="stroke: #000000; stroke-width: 0.8"/>
      </g>
     </g>
     <g id="text_9">
      <!-- 200 -->
      <g transform="translate(402.140886 261.298437)scale(0.1 -0.1)">
       <use xlink:href="#DejaVuSans-32"/>
       <use xlink:href="#DejaVuSans-30" x="63.623047"/>
       <use xlink:href="#DejaVuSans-30" x="127.246094"/>
      </g>
     </g>
    </g>
    <g id="text_10">
     <!-- Tiempo -->
     <g transform="translate(211.541234 274.976562)scale(0.1 -0.1)">
      <defs>
       <path id="DejaVuSans-54" d="M -19 4666 
L 3928 4666 
L 3928 4134 
L 2272 4134 
L 2272 0 
L 1638 0 
L 1638 4134 
L -19 4134 
L -19 4666 
z
" transform="scale(0.015625)"/>
       <path id="DejaVuSans-69" d="M 603 3500 
L 1178 3500 
L 1178 0 
L 603 0 
L 603 3500 
z
M 603 4863 
L 1178 4863 
L 1178 4134 
L 603 4134 
L 603 4863 
z
" transform="scale(0.015625)"/>
       <path id="DejaVuSans-65" d="M 3597 1894 
L 3597 1613 
L 953 1613 
Q 991 1019 1311 708 
Q 1631 397 2203 397 
Q 2534 397 2845 478 
Q 3156 559 3463 722 
L 3463 178 
Q 3153 47 2828 -22 
Q 2503 -91 2169 -91 
Q 1331 -91 842 396 
Q 353 884 353 1716 
Q 353 2575 817 3079 
Q 1281 3584 2069 3584 
Q 2775 3584 3186 3129 
Q 3597 2675 3597 1894 
z
M 3022 2063 
Q 3016 2534 2758 2815 
Q 2500 3097 2075 3097 
Q 1594 3097 1305 2825 
Q 1016 2553 972 2059 
L 3022 2063 
z
" transform="scale(0.015625)"/>
       <path id="DejaVuSans-6d" d="M 3328 2828 
Q 3544 3216 3844 3400 
Q 4144 3584 4550 3584 
Q 5097 3584 5394 3201 
Q 5691 2819 5691 2113 
L 5691 0 
L 5113 0 
L 5113 2094 
Q 5113 2597 4934 2840 
Q 4756 3084 4391 3084 
Q 3944 3084 3684 2787 
Q 3425 2491 3425 1978 
L 3425 0 
L 2847 0 
L 2847 2094 
Q 2847 2600 2669 2842 
Q 2491 3084 2119 3084 
Q 1678 3084 1418 2786 
Q 1159 2488 1159 1978 
L 1159 0 
L 581 0 
L 581 3500 
L 1159 3500 
L 1159 2956 
Q 1356 3278 1631 3431 
Q 1906 3584 2284 3584 
Q 2666 3584 2933 3390 
Q 3200 3197 3328 2828 
z
" transform="scale(0.015625)"/>
       <path id="DejaVuSans-70" d="M 1159 525 
L 1159 -1331 
L 581 -1331 
L 581 3500 
L 1159 3500 
L 1159 2969 
Q 1341 3281 1617 3432 
Q 1894 3584 2278 3584 
Q 2916 3584 3314 3078 
Q 3713 2572 3713 1747 
Q 3713 922 3314 415 
Q 2916 -91 2278 -91 
Q 1894 -91 1617 61 
Q 1341 213 1159 525 
z
M 3116 1747 
Q 3116 2381 2855 2742 
Q 2594 3103 2138 3103 
Q 1681 3103 1420 2742 
Q 1159 2381 1159 1747 
Q 1159 1113 1420 752 
Q 1681 391 2138 391 
Q 2594 391 2855 752 
Q 3116 1113 3116 1747 
z
" transform="scale(0.015625)"/>
       <path id="DejaVuSans-6f" d="M 1959 3097 
Q 1497 3097 1228 2736 
Q 959 2375 959 1747 
Q 959 1119 1226 758 
Q 1494 397 1959 397 
Q 2419 397 2687 759 
Q 2956 1122 2956 1747 
Q 2956 2369 2687 2733 
Q 2419 3097 1959 3097 
z
M 1959 3584 
Q 2709 3584 3137 3096 
Q 3566 2609 3566 1747 
Q 3566 888 3137 398 
Q 2709 -91 1959 -91 
Q 1206 -91 779 398 
Q 353 888 353 1747 
Q 353 2609 779 3096 
Q 1206 3584 1959 3584 
z
" transform="scale(0.015625)"/>
      </defs>
      <use xlink:href="#DejaVuSans-54"/>
      <use xlink:href="#DejaVuSans-69" x="57.958984"/>
      <use xlink:href="#DejaVuSans-65" x="85.742188"/>
      <use xlink:href="#DejaVuSans-6d" x="147.265625"/>
      <use xlink:href="#DejaVuSans-70" x="244.677734"/>
      <use xlink:href="#DejaVuSans-6f" x="308.154297"/>
     </g>
    </g>
   </g>
   <g id="matplotlib.axis_2">
    <g id="ytick_1">
     <g id="line2d_19">
      <path d="M 44.39375 246.7 
L 415.623092 246.7 
" clip-path="url(#pceec0393b4)" style="fill: none; stroke: #b0b0b0; stroke-width: 0.8; stroke-linecap: square"/>
     </g>
     <g id="line2d_20">
      <defs>
       <path id="m1f02265221" d="M 0 0 
L -3.5 0 
" style="stroke: #000000; stroke-width: 0.8"/>
      </defs>
      <g>
       <use xlink:href="#m1f02265221" x="44.39375" y="246.7" style="stroke: #000000; stroke-width: 0.8"/>
      </g>
     </g>
     <g id="text_11">
      <!-- 0 -->
      <g transform="translate(31.03125 250.499219)scale(0.1 -0.1)">
       <use xlink:href="#DejaVuSans-30"/>
      </g>
     </g>
    </g>
    <g id="ytick_2">
     <g id="line2d_21">
      <path d="M 44.39375 213.565 
L 415.623092 213.565 
" clip-path="url(#pceec0393b4)" style="fill: none; stroke: #b0b0b0; stroke-width: 0.8; stroke-linecap: square"/>
     </g>
     <g id="line2d_22">
      <g>
       <use xlink:href="#m1f02265221" x="44.39375" y="213.565" style="stroke: #000000; stroke-width: 0.8"/>
      </g>
     </g>
     <g id="text_12">
      <!-- 2 -->
      <g transform="translate(31.03125 217.364219)scale(0.1 -0.1)">
       <use xlink:href="#DejaVuSans-32"/>
      </g>
     </g>
    </g>
    <g id="ytick_3">
     <g id="line2d_23">
      <path d="M 44.39375 180.43 
L 415.623092 180.43 
" clip-path="url(#pceec0393b4)" style="fill: none; stroke: #b0b0b0; stroke-width: 0.8; stroke-linecap: square"/>
     </g>
     <g id="line2d_24">
      <g>
       <use xlink:href="#m1f02265221" x="44.39375" y="180.43" style="stroke: #000000; stroke-width: 0.8"/>
      </g>
     </g>
     <g id="text_13">
      <!-- 4 -->
      <g transform="translate(31.03125 184.229219)scale(0.1 -0.1)">
       <defs>
        <path id="DejaVuSans-34" d="M 2419 4116 
L 825 1625 
L 2419 1625 
L 2419 4116 
z
M 2253 4666 
L 3047 4666 
L 3047 1625 
L 3713 1625 
L 3713 1100 
L 3047 1100 
L 3047 0 
L 2419 0 
L 2419 1100 
L 313 1100 
L 313 1709 
L 2253 4666 
z
" transform="scale(0.015625)"/>
       </defs>
       <use xlink:href="#DejaVuSans-34"/>
      </g>
     </g>
    </g>
    <g id="ytick_4">
     <g id="line2d_25">
      <path d="M 44.39375 147.295 
L 415.623092 147.295 
" clip-path="url(#pceec0393b4)" style="fill: none; stroke: #b0b0b0; stroke-width: 0.8; stroke-linecap: square"/>
     </g>
     <g id="line2d_26">
      <g>
       <use xlink:href="#m1f02265221" x="44.39375" y="147.295" style="stroke: #000000; stroke-width: 0.8"/>
      </g>
     </g>
     <g id="text_14">
      <!-- 6 -->
      <g transform="translate(31.03125 151.094219)scale(0.1 -0.1)">
       <defs>
        <path id="DejaVuSans-36" d="M 2113 2584 
Q 1688 2584 1439 2293 
Q 1191 2003 1191 1497 
Q 1191 994 1439 701 
Q 1688 409 2113 409 
Q 2538 409 2786 701 
Q 3034 994 3034 1497 
Q 3034 2003 2786 2293 
Q 2538 2584 2113 2584 
z
M 3366 4563 
L 3366 3988 
Q 3128 4100 2886 4159 
Q 2644 4219 2406 4219 
Q 1781 4219 1451 3797 
Q 1122 3375 1075 2522 
Q 1259 2794 1537 2939 
Q 1816 3084 2150 3084 
Q 2853 3084 3261 2657 
Q 3669 2231 3669 1497 
Q 3669 778 3244 343 
Q 2819 -91 2113 -91 
Q 1303 -91 875 529 
Q 447 1150 447 2328 
Q 447 3434 972 4092 
Q 1497 4750 2381 4750 
Q 2619 4750 2861 4703 
Q 3103 4656 3366 4563 
z
" transform="scale(0.015625)"/>
       </defs>
       <use xlink:href="#DejaVuSans-36"/>
      </g>
     </g>
    </g>
    <g id="ytick_5">
     <g id="line2d_27">
      <path d="M 44.39375 114.16 
L 415.623092 114.16 
" clip-path="url(#pceec0393b4)" style="fill: none; stroke: #b0b0b0; stroke-width: 0.8; stroke-linecap: square"/>
     </g>
     <g id="line2d_28">
      <g>
       <use xlink:href="#m1f02265221" x="44.39375" y="114.16" style="stroke: #000000; stroke-width: 0.8"/>
      </g>
     </g>
     <g id="text_15">
      <!-- 8 -->
      <g transform="translate(31.03125 117.959219)scale(0.1 -0.1)">
       <defs>
        <path id="DejaVuSans-38" d="M 2034 2216 
Q 1584 2216 1326 1975 
Q 1069 1734 1069 1313 
Q 1069 891 1326 650 
Q 1584 409 2034 409 
Q 2484 409 2743 651 
Q 3003 894 3003 1313 
Q 3003 1734 2745 1975 
Q 2488 2216 2034 2216 
z
M 1403 2484 
Q 997 2584 770 2862 
Q 544 3141 544 3541 
Q 544 4100 942 4425 
Q 1341 4750 2034 4750 
Q 2731 4750 3128 4425 
Q 3525 4100 3525 3541 
Q 3525 3141 3298 2862 
Q 3072 2584 2669 2484 
Q 3125 2378 3379 2068 
Q 3634 1759 3634 1313 
Q 3634 634 3220 271 
Q 2806 -91 2034 -91 
Q 1263 -91 848 271 
Q 434 634 434 1313 
Q 434 1759 690 2068 
Q 947 2378 1403 2484 
z
M 1172 3481 
Q 1172 3119 1398 2916 
Q 1625 2713 2034 2713 
Q 2441 2713 2670 2916 
Q 2900 3119 2900 3481 
Q 2900 3844 2670 4047 
Q 2441 4250 2034 4250 
Q 1625 4250 1398 4047 
Q 1172 3844 1172 3481 
z
" transform="scale(0.015625)"/>
       </defs>
       <use xlink:href="#DejaVuSans-38"/>
      </g>
     </g>
    </g>
    <g id="ytick_6">
     <g id="line2d_29">
      <path d="M 44.39375 81.025 
L 415.623092 81.025 
" clip-path="url(#pceec0393b4)" style="fill: none; stroke: #b0b0b0; stroke-width: 0.8; stroke-linecap: square"/>
     </g>
     <g id="line2d_30">
      <g>
       <use xlink:href="#m1f02265221" x="44.39375" y="81.025" style="stroke: #000000; stroke-width: 0.8"/>
      </g>
     </g>
     <g id="text_16">
      <!-- 10 -->
      <g transform="translate(24.66875 84.824219)scale(0.1 -0.1)">
       <use xlink:href="#DejaVuSans-31"/>
       <use xlink:href="#DejaVuSans-30" x="63.623047"/>
      </g>
     </g>
    </g>
    <g id="ytick_7">
     <g id="line2d_31">
      <path d="M 44.39375 47.89 
L 415.623092 47.89 
" clip-path="url(#pceec0393b4)" style="fill: none; stroke: #b0b0b0; stroke-width: 0.8; stroke-linecap: square"/>
     </g>
     <g id="line2d_32">
      <g>
       <use xlink:href="#m1f02265221" x="44.39375" y="47.89" style="stroke: #000000; stroke-width: 0.8"/>
      </g>
     </g>
     <g id="text_17">
      <!-- 12 -->
      <g transform="translate(24.66875 51.689219)scale(0.1 -0.1)">
       <use xlink:href="#DejaVuSans-31"/>
       <use xlink:href="#DejaVuSans-32" x="63.623047"/>
      </g>
     </g>
    </g>
    <g id="text_18">
     <!-- Paquetes -->
     <g transform="translate(18.589063 159.164844)rotate(-90)scale(0.1 -0.1)">
      <defs>
       <path id="DejaVuSans-50" d="M 1259 4147 
L 1259 2394 
L 2053 2394 
Q 2494 2394 2734 2622 
Q 2975 2850 2975 3272 
Q 2975 3691 2734 3919 
Q 2494 4147 2053 4147 
L 1259 4147 
z
M 628 4666 
L 2053 4666 
Q 2838 4666 3239 4311 
Q 3641 3956 3641 3272 
Q 3641 2581 3239 2228 
Q 2838 1875 2053 1875 
L 1259 1875 
L 1259 0 
L 628 0 
L 628 4666 
z
" transform="scale(0.015625)"/>
       <path id="DejaVuSans-61" d="M 2194 1759 
Q 1497 1759 1228 1600 
Q 959 1441 959 1056 
Q 959 750 1161 570 
Q 1363 391 1709 391 
Q 2188 391 2477 730 
Q 2766 1069 2766 1631 
L 2766 1759 
L 2194 1759 
z
M 3341 1997 
L 3341 0 
L 2766 0 
L 2766 531 
Q 2569 213 2275 61 
Q 1981 -91 1556 -91 
Q 1019 -91 701 211 
Q 384 513 384 1019 
Q 384 1609 779 1909 
Q 1175 2209 1959 2209 
L 2766 2209 
L 2766 2266 
Q 2766 2663 2505 2880 
Q 2244 3097 1772 3097 
Q 1472 3097 1187 3025 
Q 903 2953 641 2809 
L 641 3341 
Q 956 3463 1253 3523 
Q 1550 3584 1831 3584 
Q 2591 3584 2966 3190 
Q 3341 2797 3341 1997 
z
" transform="scale(0.015625)"/>
       <path id="DejaVuSans-71" d="M 947 1747 
Q 947 1113 1208 752 
Q 1469 391 1925 391 
Q 2381 391 2643 752 
Q 2906 1113 2906 1747 
Q 2906 2381 2643 2742 
Q 2381 3103 1925 3103 
Q 1469 3103 1208 2742 
Q 947 2381 947 1747 
z
M 2906 525 
Q 2725 213 2448 61 
Q 2172 -91 1784 -91 
Q 1150 -91 751 415 
Q 353 922 353 1747 
Q 353 2572 751 3078 
Q 1150 3584 1784 3584 
Q 2172 3584 2448 3432 
Q 2725 3281 2906 2969 
L 2906 3500 
L 3481 3500 
L 3481 -1331 
L 2906 -1331 
L 2906 525 
z
" transform="scale(0.015625)"/>
       <path id="DejaVuSans-75" d="M 544 1381 
L 544 3500 
L 1119 3500 
L 1119 1403 
Q 1119 906 1312 657 
Q 1506 409 1894 409 
Q 2359 409 2629 706 
Q 2900 1003 2900 1516 
L 2900 3500 
L 3475 3500 
L 3475 0 
L 2900 0 
L 2900 538 
Q 2691 219 2414 64 
Q 2138 -91 1772 -91 
Q 1169 -91 856 284 
Q 544 659 544 1381 
z
M 1991 3584 
L 1991 3584 
z
" transform="scale(0.015625)"/>
       <path id="DejaVuSans-74" d="M 1172 4494 
L 1172 3500 
L 2356 3500 
L 2356 3053 
L 1172 3053 
L 1172 1153 
Q 1172 725 1289 603 
Q 1406 481 1766 481 
L 2356 481 
L 2356 0 
L 1766 0 
Q 1100 0 847 248 
Q 594 497 594 1153 
L 594 3053 
L 172 3053 
L 172 3500 
L 594 3500 
L 594 4494 
L 1172 4494 
z
" transform="scale(0.015625)"/>
       <path id="DejaVuSans-73" d="M 2834 3397 
L 2834 2853 
Q 2591 2978 2328 3040 
Q 2066 3103 1784 3103 
Q 1356 3103 1142 2972 
Q 928 2841 928 2578 
Q 928 2378 1081 2264 
Q 1234 2150 1697 2047 
L 1894 2003 
Q 2506 1872 2764 1633 
Q 3022 1394 3022 966 
Q 3022 478 2636 193 
Q 2250 -91 1575 -91 
Q 1294 -91 989 -36 
Q 684 19 347 128 
L 347 722 
Q 666 556 975 473 
Q 1284 391 1588 391 
Q 1994 391 2212 530 
Q 2431 669 2431 922 
Q 2431 1156 2273 1281 
Q 2116 1406 1581 1522 
L 1381 1569 
Q 847 1681 609 1914 
Q 372 2147 372 2553 
Q 372 3047 722 3315 
Q 1072 3584 1716 3584 
Q 2034 3584 2315 3537 
Q 2597 3491 2834 3397 
z
" transform="scale(0.015625)"/>
      </defs>
      <use xlink:href="#DejaVuSans-50"/>
      <use xlink:href="#DejaVuSans-61" x="55.802734"/>
      <use xlink:href="#DejaVuSans-71" x="117.082031"/>
      <use xlink:href="#DejaVuSans-75" x="180.558594"/>
      <use xlink:href="#DejaVuSans-65" x="243.9375"/>
      <use xlink:href="#DejaVuSans-74" x="305.460938"/>
      <use xlink:href="#DejaVuSans-65" x="344.669922"/>
      <use xlink:href="#DejaVuSans-73" x="406.193359"/>
     </g>
    </g>
   </g>
   <g id="line2d_33">
    <path d="M 44.39375 230.1325 
L 44.39375 246.7 
L 44.395241 246.7 
L 46.043915 230.1325 
L 46.043915 246.7 
L 47.739372 230.1325 
L 47.88037 246.7 
L 51.323296 230.1325 
L 51.323296 246.7 
L 52.335272 230.1325 
L 53.159751 246.7 
L 54.1295 230.1325 
L 54.996205 246.7 
L 55.020415 230.1325 
L 55.668976 213.565 
L 55.776197 196.9975 
L 56.83266 213.565 
L 60.505569 246.7 
L 61.863882 230.1325 
L 62.342023 246.7 
L 64.745089 230.1325 
L 64.745089 246.7 
L 66.12734 230.1325 
L 66.581543 246.7 
L 67.66892 230.1325 
L 68.417997 246.7 
L 70.989908 230.1325 
L 70.989908 246.7 
L 71.125228 230.1325 
L 71.881072 213.565 
L 72.048485 196.9975 
L 72.826363 213.565 
L 73.966869 196.9975 
L 74.662817 213.565 
L 78.335726 246.7 
L 79.752012 230.1325 
L 80.17218 246.7 
L 83.500018 230.1325 
L 83.500018 246.7 
L 84.678487 230.1325 
L 85.336472 246.7 
L 87.626437 230.1325 
L 87.626437 246.7 
L 90.590478 230.1325 
L 90.590478 246.7 
L 91.940206 230.1325 
L 92.426932 246.7 
L 94.026307 230.1325 
L 94.257469 213.565 
L 94.263387 230.1325 
L 96.099841 246.7 
L 96.599367 230.1325 
L 96.883521 213.565 
L 97.936296 230.1325 
L 98.299124 213.565 
L 99.77275 230.1325 
L 100.909395 213.565 
L 101.609204 230.1325 
L 102.264381 213.565 
L 102.469965 196.9975 
L 103.445659 213.565 
L 103.453507 196.9975 
L 104.017814 180.43 
L 104.396497 163.8625 
L 105.282113 180.43 
L 106.848696 163.8625 
L 107.118568 180.43 
L 107.967248 163.8625 
L 108.234045 147.295 
L 108.26888 130.7275 
L 108.955022 147.295 
L 108.988349 130.7275 
L 110.753881 114.16 
L 110.791477 130.7275 
L 111.215643 114.16 
L 112.112856 97.5925 
L 112.627931 114.16 
L 116.30084 147.295 
L 117.398015 130.7275 
L 118.137294 147.295 
L 118.495749 130.7275 
L 119.313923 114.16 
L 119.973749 130.7275 
L 120.369026 114.16 
L 121.810203 130.7275 
L 123.646658 147.295 
L 124.641263 130.7275 
L 125.483112 147.295 
L 126.659366 130.7275 
L 127.319566 147.295 
L 128.603867 130.7275 
L 129.156021 147.295 
L 130.643428 130.7275 
L 130.896912 114.16 
L 130.992475 130.7275 
L 132.82893 147.295 
L 133.447825 130.7275 
L 134.27809 114.16 
L 134.665384 130.7275 
L 135.828843 114.16 
L 136.501839 130.7275 
L 143.847656 196.9975 
L 144.009324 180.43 
L 144.439608 163.8625 
L 145.684111 180.43 
L 146.290789 163.8625 
L 147.520565 180.43 
L 148.235122 163.8625 
L 149.35702 180.43 
L 150.372748 147.295 
L 151.193474 163.8625 
L 151.35537 147.295 
L 152.508556 130.7275 
L 153.029929 147.295 
L 153.690831 130.7275 
L 154.205547 114.16 
L 154.866383 130.7275 
L 155.999513 114.16 
L 156.702837 130.7275 
L 156.757053 114.16 
L 158.539292 130.7275 
L 158.991622 97.5925 
L 160.375746 114.16 
L 161.758489 97.5925 
L 162.212201 114.16 
L 162.603284 97.5925 
L 164.048655 114.16 
L 164.598168 97.5925 
L 165.88511 114.16 
L 167.721564 130.7275 
L 167.757479 114.16 
L 169.558018 130.7275 
L 169.999513 97.5925 
L 171.394473 114.16 
L 175.067382 147.295 
L 176.562245 130.7275 
L 176.903836 147.295 
L 178.740291 163.8625 
L 180.428572 147.295 
L 180.53385 130.7275 
L 180.576745 147.295 
L 182.238958 130.7275 
L 182.413199 147.295 
L 183.340733 130.7275 
L 184.249654 147.295 
L 185.809379 130.7275 
L 185.919871 97.5925 
L 186.086108 114.16 
L 186.990301 97.5925 
L 187.922563 114.16 
L 193.431926 163.8625 
L 194.136992 147.295 
L 195.119283 130.7275 
L 195.26838 147.295 
L 198.941289 180.43 
L 199.717603 163.8625 
L 200.777744 180.43 
L 201.247082 163.8625 
L 202.614198 180.43 
L 204.450653 196.9975 
L 204.925942 180.43 
L 205.107109 163.8625 
L 206.287107 180.43 
L 208.123561 196.9975 
L 209.772262 180.43 
L 209.931612 163.8625 
L 209.960016 180.43 
L 213.632925 213.565 
L 214.79685 196.9975 
L 215.056398 180.43 
L 215.469379 196.9975 
L 216.96958 180.43 
L 217.305834 196.9975 
L 219.142288 213.565 
L 219.283391 196.9975 
L 220.475566 163.8625 
L 220.847173 147.295 
L 220.978742 163.8625 
L 222.468999 147.295 
L 222.506302 130.7275 
L 222.815197 147.295 
L 222.837327 130.7275 
L 224.651651 147.295 
L 226.08003 130.7275 
L 226.488106 147.295 
L 227.628314 130.7275 
L 228.32456 147.295 
L 230.068517 130.7275 
L 230.161015 147.295 
L 231.111447 130.7275 
L 231.636712 114.16 
L 231.997469 130.7275 
L 233.833923 147.295 
L 234.227994 130.7275 
L 235.670378 147.295 
L 235.804393 130.7275 
L 236.730598 114.16 
L 237.506832 130.7275 
L 239.343287 147.295 
L 240.887841 130.7275 
L 241.179741 147.295 
L 241.351399 130.7275 
L 243.016196 147.295 
L 246.689105 180.43 
L 246.956775 163.8625 
L 248.045102 147.295 
L 248.525559 163.8625 
L 250.362013 180.43 
L 251.485626 163.8625 
L 252.198468 180.43 
L 253.693483 163.8625 
L 253.920334 147.295 
L 254.034922 163.8625 
L 254.568639 147.295 
L 255.871377 163.8625 
L 257.24402 147.295 
L 257.707831 163.8625 
L 258.218668 147.295 
L 259.146111 130.7275 
L 259.544286 147.295 
L 261.38074 163.8625 
L 263.05684 147.295 
L 263.217194 163.8625 
L 266.890103 196.9975 
L 266.977359 180.43 
L 268.726558 196.9975 
L 269.143242 180.43 
L 270.563012 196.9975 
L 270.773759 180.43 
L 272.399467 196.9975 
L 272.753154 180.43 
L 274.152289 163.8625 
L 274.235921 180.43 
L 274.633545 163.8625 
L 276.072375 180.43 
L 276.53023 163.8625 
L 277.452701 147.295 
L 277.90883 163.8625 
L 278.465314 147.295 
L 279.745284 163.8625 
L 280.236489 147.295 
L 281.419358 130.7275 
L 281.581739 147.295 
L 282.078512 130.7275 
L 283.418193 147.295 
L 284.689803 114.16 
L 285.254648 130.7275 
L 286.457161 114.16 
L 287.091102 130.7275 
L 287.485504 114.16 
L 288.927556 130.7275 
L 290.764011 147.295 
L 291.355735 130.7275 
L 292.600465 147.295 
L 292.997028 130.7275 
L 294.43692 147.295 
L 294.565506 130.7275 
L 296.273374 147.295 
L 299.946283 180.43 
L 300.94266 163.8625 
L 301.22234 147.295 
L 301.782737 163.8625 
L 302.251661 130.7275 
L 303.30296 114.16 
L 303.619192 130.7275 
L 309.128555 180.43 
L 310.901859 163.8625 
L 310.96501 180.43 
L 312.31607 163.8625 
L 312.801464 180.43 
L 313.407059 163.8625 
L 313.601012 147.295 
L 314.637918 163.8625 
L 316.474373 180.43 
L 318.227559 163.8625 
L 318.310827 180.43 
L 320.147282 196.9975 
L 321.606144 180.43 
L 321.903411 163.8625 
L 321.983736 180.43 
L 325.656645 213.565 
L 326.219405 196.9975 
L 327.4931 213.565 
L 329.329554 230.1325 
L 329.939894 213.565 
L 330.010199 196.9975 
L 330.335849 180.43 
L 331.166008 196.9975 
L 332.091438 180.43 
L 333.002463 196.9975 
L 334.838917 213.565 
L 334.86416 196.9975 
L 338.511826 230.1325 
L 338.540717 213.565 
L 339.514043 196.9975 
L 339.790964 180.43 
L 340.348281 196.9975 
L 340.751191 180.43 
L 342.184735 196.9975 
L 343.804684 163.8625 
L 344.021189 180.43 
L 344.914452 163.8625 
L 345.857644 180.43 
L 345.915057 163.8625 
L 347.694098 180.43 
L 348.266333 163.8625 
L 349.101757 147.295 
L 349.530553 163.8625 
L 355.039916 213.565 
L 356.734454 180.43 
L 356.87637 196.9975 
L 360.549279 230.1325 
L 362.031912 213.565 
L 362.377707 196.9975 
L 362.385734 213.565 
L 363.139124 196.9975 
L 364.222188 213.565 
L 364.490995 196.9975 
L 364.593598 180.43 
L 365.366688 147.295 
L 366.058643 163.8625 
L 367.895097 180.43 
L 368.265371 163.8625 
L 369.043398 147.295 
L 369.731551 163.8625 
L 373.40446 196.9975 
L 374.340732 180.43 
L 375.240915 196.9975 
L 376.061745 180.43 
L 377.077369 196.9975 
L 377.729179 180.43 
L 377.788601 163.8625 
L 378.913824 180.43 
L 380.599903 163.8625 
L 380.694816 147.295 
L 380.750278 163.8625 
L 382.275863 147.295 
L 382.586732 163.8625 
L 382.774769 147.295 
L 384.423187 163.8625 
L 389.93255 213.565 
L 391.735075 196.9975 
L 391.769005 213.565 
L 393.143781 196.9975 
L 393.605459 213.565 
L 395.441913 230.1325 
L 396.811497 213.565 
L 397.278368 230.1325 
L 399.114822 246.7 
L 399.216858 230.1325 
L 399.903483 213.565 
L 400.951277 230.1325 
L 401.387302 213.565 
L 402.319973 196.9975 
L 402.758432 180.43 
L 402.787731 196.9975 
L 404.106357 147.295 
L 404.624186 163.8625 
L 405.654449 147.295 
L 406.46064 163.8625 
L 408.125118 147.295 
L 408.297095 163.8625 
L 409.230075 147.295 
L 410.133549 163.8625 
L 410.133549 163.8625 
" clip-path="url(#pceec0393b4)" style="fill: none; stroke: #1f77b4; stroke-width: 1.5; stroke-linecap: square"/>
   </g>
   <g id="line2d_34">
    <path d="M 44.39375 230.1325 
L 44.39375 246.7 
L 44.393963 230.1325 
L 44.393963 246.7 
L 44.394176 230.1325 
L 44.394176 246.7 
L 44.394389 230.1325 
L 44.394389 246.7 
L 44.394602 230.1325 
L 44.394602 246.7 
L 44.394815 230.1325 
L 44.394815 246.7 
L 44.395028 230.1325 
L 44.395028 246.7 
L 44.395241 230.1325 
L 44.395241 246.7 
" clip-path="url(#pceec0393b4)" style="fill: none; stroke: #ff7f0e; stroke-width: 1.5; stroke-linecap: square"/>
   </g>
   <g id="line2d_35">
    <path d="M 44.39375 230.1325 
L 44.39375 246.7 
L 44.393963 230.1325 
L 44.393963 246.7 
L 44.394176 230.1325 
L 44.394176 246.7 
L 44.394389 230.1325 
L 44.394389 246.7 
L 44.394602 230.1325 
L 44.394602 246.7 
L 44.394815 230.1325 
L 44.394815 246.7 
L 44.395028 230.1325 
L 44.395028 246.7 
L 44.395241 230.1325 
L 44.395241 246.7 
" clip-path="url(#pceec0393b4)" style="fill: none; stroke: #2ca02c; stroke-width: 1.5; stroke-linecap: square"/>
   </g>
   <g id="line2d_36">
    <path d="M 47.808828 230.1325 
L 47.808828 246.7 
L 49.254487 230.1325 
L 49.645283 246.7 
L 52.705119 230.1325 
L 52.705119 246.7 
L 54.611652 230.1325 
L 54.611652 246.7 
L 55.668566 230.1325 
L 56.448106 246.7 
L 59.751968 230.1325 
L 59.751968 246.7 
L 60.336614 230.1325 
L 61.224727 213.565 
L 61.588422 230.1325 
L 62.417406 213.565 
L 63.424876 230.1325 
L 65.261331 246.7 
L 65.488346 230.1325 
L 66.689171 213.565 
L 67.097785 230.1325 
L 67.605327 213.565 
L 68.93424 230.1325 
L 70.770694 246.7 
L 72.376902 230.1325 
L 72.414413 213.565 
L 72.607149 230.1325 
L 73.257801 213.565 
L 74.443603 230.1325 
L 76.280057 246.7 
L 76.540441 230.1325 
L 78.116512 246.7 
L 79.305745 230.1325 
L 79.583473 213.565 
L 79.952966 230.1325 
L 81.789421 246.7 
L 83.330418 230.1325 
L 83.625875 246.7 
L 90.391992 230.1325 
L 90.391992 246.7 
L 91.528628 230.1325 
L 92.228447 246.7 
L 94.313677 230.1325 
L 94.313677 246.7 
L 96.18949 230.1325 
L 96.18949 246.7 
L 97.791469 230.1325 
L 98.025945 246.7 
L 103.10694 230.1325 
L 103.10694 246.7 
L 104.285383 230.1325 
L 104.943394 246.7 
L 107.018495 230.1325 
L 107.018495 246.7 
L 107.466679 230.1325 
L 108.85495 246.7 
L 109.009915 230.1325 
L 109.307672 213.565 
L 110.691404 230.1325 
L 111.046788 213.565 
L 112.527858 230.1325 
L 112.808954 213.565 
L 114.364313 230.1325 
L 116.200767 246.7 
L 117.085897 230.1325 
L 118.037222 246.7 
L 119.188893 230.1325 
L 119.873676 246.7 
L 120.932596 230.1325 
L 121.710131 246.7 
L 123.129194 230.1325 
L 123.435288 196.9975 
L 123.546585 213.565 
L 127.219494 246.7 
L 129.863271 230.1325 
L 129.863271 246.7 
L 130.641253 213.565 
L 131.455544 196.9975 
L 131.699725 213.565 
L 132.151491 196.9975 
L 133.53618 213.565 
L 133.870525 196.9975 
L 134.592458 180.43 
L 134.664416 163.8625 
L 135.372634 180.43 
L 135.724646 163.8625 
L 137.209088 180.43 
L 137.571882 163.8625 
L 139.045543 180.43 
L 142.718452 213.565 
L 143.435583 196.9975 
L 143.63325 180.43 
L 144.554906 196.9975 
L 145.5759 180.43 
L 145.898958 163.8625 
L 146.391361 180.43 
L 153.737178 246.7 
L 155.742538 230.1325 
L 155.742538 246.7 
L 156.275262 213.565 
L 157.578992 230.1325 
L 159.038619 196.9975 
L 159.415447 213.565 
L 159.440583 196.9975 
L 164.92481 246.7 
L 164.951516 213.565 
L 165.1391 196.9975 
L 166.761264 213.565 
L 166.92983 196.9975 
L 168.597719 213.565 
L 170.271845 196.9975 
L 170.434173 213.565 
L 174.107082 246.7 
L 177.15677 230.1325 
L 177.15677 246.7 
L 178.318028 230.1325 
L 178.993225 246.7 
L 179.626655 230.1325 
L 180.829679 246.7 
L 186.535263 230.1325 
L 186.535263 246.7 
L 187.145719 230.1325 
L 187.38089 213.565 
L 188.198882 196.9975 
L 188.371717 213.565 
L 188.843801 196.9975 
L 190.047866 180.43 
L 190.208172 196.9975 
L 190.279973 180.43 
L 192.044626 196.9975 
L 192.422883 180.43 
L 193.125696 163.8625 
L 193.881081 180.43 
L 195.717535 196.9975 
L 197.02676 180.43 
L 197.148513 163.8625 
L 197.55399 180.43 
L 197.597334 163.8625 
L 199.390444 180.43 
L 199.762861 163.8625 
L 201.226898 180.43 
L 201.298316 163.8625 
L 201.864706 147.295 
L 203.063353 163.8625 
L 203.170881 147.295 
L 204.531251 130.7275 
L 204.899807 147.295 
L 208.572716 180.43 
L 209.095909 163.8625 
L 210.409171 180.43 
L 210.671396 163.8625 
L 211.973259 130.7275 
L 211.990523 114.16 
L 212.245625 130.7275 
L 214.012177 114.16 
L 214.08208 130.7275 
L 215.918534 147.295 
L 217.40471 130.7275 
L 217.754988 147.295 
L 219.591443 163.8625 
L 220.786141 147.295 
L 221.427897 163.8625 
L 221.717591 147.295 
L 223.195565 130.7275 
L 223.264352 147.295 
L 224.043513 130.7275 
L 224.052156 114.16 
L 224.342943 97.5925 
L 225.100806 114.16 
L 226.422974 97.5925 
L 226.937261 114.16 
L 227.000946 97.5925 
L 228.773715 114.16 
L 229.235009 97.5925 
L 229.86004 81.025 
L 230.610169 97.5925 
L 234.283078 130.7275 
L 235.874691 114.16 
L 236.119533 130.7275 
L 237.521239 114.16 
L 237.955987 130.7275 
L 239.080795 114.16 
L 239.792442 130.7275 
L 240.951515 114.16 
L 241.628896 130.7275 
L 243.46535 147.295 
L 245.031211 130.7275 
L 245.301805 147.295 
L 247.124049 130.7275 
L 247.138259 147.295 
L 248.219273 130.7275 
L 248.974714 147.295 
L 254.484077 196.9975 
L 255.276779 180.43 
L 256.320531 196.9975 
L 258.156986 213.565 
L 258.363716 196.9975 
L 259.99344 213.565 
L 260.958062 180.43 
L 261.829895 196.9975 
L 263.246788 163.8625 
L 263.666349 180.43 
L 269.175712 230.1325 
L 269.425301 213.565 
L 271.012167 230.1325 
L 271.797834 213.565 
L 272.848621 230.1325 
L 273.075638 213.565 
L 274.685076 230.1325 
L 276.52153 246.7 
L 278.815418 230.1325 
L 278.815418 246.7 
L 280.527734 230.1325 
L 280.563324 213.565 
L 280.651873 230.1325 
L 281.729707 213.565 
L 282.488327 230.1325 
L 284.041883 213.565 
L 284.324782 230.1325 
L 284.665662 213.565 
L 285.553837 196.9975 
L 286.161236 213.565 
L 287.99769 230.1325 
L 288.093615 213.565 
L 288.560297 180.43 
L 289.210813 163.8625 
L 289.388807 147.295 
L 289.834145 163.8625 
L 290.93857 147.295 
L 291.670599 163.8625 
L 291.741152 147.295 
L 293.215002 130.7275 
L 293.277815 114.16 
L 293.507054 130.7275 
L 295.222638 114.16 
L 295.343508 130.7275 
L 297.161657 114.16 
L 297.179963 130.7275 
L 297.872604 114.16 
L 298.909486 97.5925 
L 299.016417 114.16 
L 299.368749 97.5925 
L 300.852871 114.16 
L 302.689326 130.7275 
L 303.534992 114.16 
L 304.52578 130.7275 
L 306.362235 147.295 
L 307.620946 130.7275 
L 308.174758 114.16 
L 308.198689 130.7275 
L 310.035144 147.295 
L 311.188192 130.7275 
L 311.871598 147.295 
L 313.423193 130.7275 
L 313.615804 114.16 
L 313.708052 130.7275 
L 314.41346 114.16 
L 315.544507 130.7275 
L 316.713816 114.16 
L 317.380961 130.7275 
L 317.877141 114.16 
L 319.217416 130.7275 
L 330.236142 230.1325 
L 330.301473 213.565 
L 331.605205 196.9975 
L 331.940429 180.43 
L 332.072597 196.9975 
L 332.183178 180.43 
L 333.909051 196.9975 
L 335.642927 180.43 
L 335.745506 196.9975 
L 337.58196 213.565 
L 338.667052 196.9975 
L 339.418414 213.565 
L 340.213128 196.9975 
L 340.406805 163.8625 
L 341.254869 180.43 
L 346.764232 230.1325 
L 347.844164 213.565 
L 347.939499 196.9975 
L 348.600687 213.565 
L 350.437141 230.1325 
L 351.635864 213.565 
L 351.666657 196.9975 
L 352.273595 213.565 
L 354.11005 230.1325 
L 355.223093 213.565 
L 355.704849 196.9975 
L 355.726488 180.43 
L 355.946504 196.9975 
L 357.782959 213.565 
L 358.385296 196.9975 
L 359.619413 213.565 
L 360.789763 196.9975 
L 361.455868 213.565 
L 363.292322 230.1325 
L 363.335624 213.565 
L 364.570567 196.9975 
L 365.128777 213.565 
L 365.330821 196.9975 
L 365.365154 180.43 
L 365.709524 163.8625 
L 366.852896 147.295 
L 366.965231 163.8625 
L 367.318447 147.295 
L 368.801685 163.8625 
L 370.63814 180.43 
L 371.130984 163.8625 
L 372.474594 180.43 
L 374.311049 196.9975 
L 375.964934 180.43 
L 376.147503 196.9975 
L 377.983958 213.565 
L 378.203198 196.9975 
L 378.533682 180.43 
L 379.806712 163.8625 
L 379.820412 180.43 
L 381.590794 163.8625 
L 381.656866 180.43 
L 383.493321 196.9975 
L 383.796323 180.43 
L 385.329775 196.9975 
L 387.16623 213.565 
L 388.793955 196.9975 
L 389.002684 213.565 
L 389.365033 196.9975 
L 390.839139 213.565 
L 391.113025 196.9975 
L 392.675593 213.565 
L 393.200333 196.9975 
L 394.512047 213.565 
L 394.837309 196.9975 
L 396.348502 213.565 
L 397.389387 196.9975 
L 398.184956 213.565 
L 401.857865 246.7 
L 403.519352 230.1325 
L 403.69432 246.7 
L 403.89772 230.1325 
L 405.530774 246.7 
L 409.203376 230.1325 
L 409.203376 246.7 
L 410.441595 230.1325 
L 410.915424 213.565 
L 411.03983 230.1325 
L 411.03983 230.1325 
" clip-path="url(#pceec0393b4)" style="fill: none; stroke: #d62728; stroke-width: 1.5; stroke-linecap: square"/>
   </g>
   <g id="line2d_37">
    <path d="M 44.39375 230.1325 
L 44.39375 246.7 
L 44.393963 230.1325 
L 44.393963 246.7 
L 44.394176 230.1325 
L 44.394176 246.7 
L 44.394389 230.1325 
L 44.394389 246.7 
L 44.394602 230.1325 
L 44.394602 246.7 
L 44.394815 230.1325 
L 44.394815 246.7 
L 44.395028 230.1325 
L 44.395028 246.7 
L 44.395241 230.1325 
L 44.395241 246.7 
" clip-path="url(#pceec0393b4)" style="fill: none; stroke: #9467bd; stroke-width: 1.5; stroke-linecap: square"/>
   </g>
   <g id="line2d_38">
    <path d="M 49.645466 230.1325 
L 49.645466 246.7 
L 51.481921 230.1325 
L 51.481921 246.7 
L 54.541757 230.1325 
L 54.541757 246.7 
L 56.44829 230.1325 
L 56.44829 246.7 
L 58.284744 230.1325 
L 58.284744 246.7 
L 61.588606 230.1325 
L 61.588606 246.7 
L 63.42506 230.1325 
L 63.42506 246.7 
L 65.261515 230.1325 
L 65.261515 246.7 
L 67.097969 230.1325 
L 67.097969 246.7 
L 68.934423 230.1325 
L 68.934423 246.7 
L 70.770878 230.1325 
L 70.770878 246.7 
L 72.607332 230.1325 
L 72.607332 246.7 
L 74.443787 230.1325 
L 74.443787 246.7 
L 76.280241 230.1325 
L 76.280241 246.7 
L 78.116696 230.1325 
L 78.116696 246.7 
L 79.95315 230.1325 
L 79.95315 246.7 
L 81.789604 230.1325 
L 81.789604 246.7 
L 83.626059 230.1325 
L 83.626059 246.7 
L 85.462513 230.1325 
L 85.462513 246.7 
L 92.22863 230.1325 
L 92.22863 246.7 
L 94.065085 230.1325 
L 94.065085 246.7 
L 96.150315 230.1325 
L 96.150315 246.7 
L 98.026128 230.1325 
L 98.026128 246.7 
L 99.862583 230.1325 
L 99.862583 246.7 
L 104.943578 230.1325 
L 104.943578 246.7 
L 106.780032 230.1325 
L 106.780032 246.7 
L 108.855133 230.1325 
L 108.855133 246.7 
L 110.691588 230.1325 
L 110.691588 246.7 
L 112.528042 230.1325 
L 112.528042 246.7 
L 114.364496 230.1325 
L 114.364496 246.7 
L 116.200951 230.1325 
L 116.200951 246.7 
L 118.037405 230.1325 
L 118.037405 246.7 
L 119.87386 230.1325 
L 119.87386 246.7 
L 121.710314 230.1325 
L 121.710314 246.7 
L 123.546769 230.1325 
L 123.546769 246.7 
L 125.383223 230.1325 
L 125.383223 246.7 
L 127.219678 230.1325 
L 127.219678 246.7 
L 129.056132 230.1325 
L 129.056132 246.7 
L 131.699909 230.1325 
L 131.699909 246.7 
L 133.536363 230.1325 
L 133.536363 246.7 
L 135.372818 230.1325 
L 135.372818 246.7 
L 137.209272 230.1325 
L 137.209272 246.7 
L 139.045726 230.1325 
L 139.045726 246.7 
L 140.882181 230.1325 
L 140.882181 246.7 
L 142.718635 230.1325 
L 142.718635 246.7 
L 144.55509 230.1325 
L 144.55509 246.7 
L 146.391544 230.1325 
L 146.391544 246.7 
L 148.227999 230.1325 
L 148.227999 246.7 
L 150.064453 230.1325 
L 150.064453 246.7 
L 151.900907 230.1325 
L 151.900907 246.7 
L 153.737362 230.1325 
L 153.737362 246.7 
L 155.573816 230.1325 
L 155.573816 246.7 
L 157.579176 230.1325 
L 157.579176 246.7 
L 159.41563 230.1325 
L 159.41563 246.7 
L 161.252085 230.1325 
L 161.252085 246.7 
L 163.088539 230.1325 
L 163.088539 246.7 
L 164.924993 230.1325 
L 164.924993 246.7 
L 166.761448 230.1325 
L 166.761448 246.7 
L 168.597902 230.1325 
L 168.597902 246.7 
L 170.434357 230.1325 
L 170.434357 246.7 
L 172.270811 230.1325 
L 172.270811 246.7 
L 174.107266 230.1325 
L 174.107266 246.7 
L 175.94372 230.1325 
L 175.94372 246.7 
L 178.993408 230.1325 
L 178.993408 246.7 
L 180.829863 230.1325 
L 180.829863 246.7 
L 182.666317 230.1325 
L 182.666317 246.7 
L 188.371901 230.1325 
L 188.371901 246.7 
L 190.208356 230.1325 
L 190.208356 246.7 
L 192.04481 230.1325 
L 192.04481 246.7 
L 193.881264 230.1325 
L 193.881264 246.7 
L 195.717719 230.1325 
L 195.717719 246.7 
L 197.554173 230.1325 
L 197.554173 246.7 
L 199.390628 230.1325 
L 199.390628 246.7 
L 201.227082 230.1325 
L 201.227082 246.7 
L 203.063537 230.1325 
L 203.063537 246.7 
L 204.899991 230.1325 
L 204.899991 246.7 
L 206.736445 230.1325 
L 206.736445 246.7 
L 208.5729 230.1325 
L 208.5729 246.7 
L 210.409354 230.1325 
L 210.409354 246.7 
L 212.245809 230.1325 
L 212.245809 246.7 
L 214.082263 230.1325 
L 214.082263 246.7 
L 215.918718 230.1325 
L 215.918718 246.7 
L 217.755172 230.1325 
L 217.755172 246.7 
L 219.591626 230.1325 
L 219.591626 246.7 
L 221.428081 230.1325 
L 221.428081 246.7 
L 223.264535 230.1325 
L 223.264535 246.7 
L 225.10099 230.1325 
L 225.10099 246.7 
L 226.937444 230.1325 
L 226.937444 246.7 
L 228.773899 230.1325 
L 228.773899 246.7 
L 230.610353 230.1325 
L 230.610353 246.7 
L 232.446807 230.1325 
L 232.446807 246.7 
L 234.283262 230.1325 
L 234.283262 246.7 
L 236.119716 230.1325 
L 236.119716 246.7 
L 237.956171 230.1325 
L 237.956171 246.7 
L 239.792625 230.1325 
L 239.792625 246.7 
L 241.62908 230.1325 
L 241.62908 246.7 
L 243.465534 230.1325 
L 243.465534 246.7 
L 245.301988 230.1325 
L 245.301988 246.7 
L 247.138443 230.1325 
L 247.138443 246.7 
L 248.974897 230.1325 
L 248.974897 246.7 
L 250.811352 230.1325 
L 250.811352 246.7 
L 252.647806 230.1325 
L 252.647806 246.7 
L 254.484261 230.1325 
L 254.484261 246.7 
L 256.320715 230.1325 
L 256.320715 246.7 
L 258.15717 230.1325 
L 258.15717 246.7 
L 259.993624 230.1325 
L 259.993624 246.7 
L 261.830078 230.1325 
L 261.830078 246.7 
L 263.666533 230.1325 
L 263.666533 246.7 
L 265.502987 230.1325 
L 265.502987 246.7 
L 267.339442 230.1325 
L 267.339442 246.7 
L 269.175896 230.1325 
L 269.175896 246.7 
L 271.012351 230.1325 
L 271.012351 246.7 
L 272.848805 230.1325 
L 272.848805 246.7 
L 274.685259 230.1325 
L 274.685259 246.7 
L 276.521714 230.1325 
L 276.521714 246.7 
L 278.358168 230.1325 
L 278.358168 246.7 
L 280.652056 230.1325 
L 280.652056 246.7 
L 282.488511 230.1325 
L 282.488511 246.7 
L 284.324965 230.1325 
L 284.324965 246.7 
L 286.16142 230.1325 
L 286.16142 246.7 
L 287.997874 230.1325 
L 287.997874 246.7 
L 289.834328 230.1325 
L 289.834328 246.7 
L 291.670783 230.1325 
L 291.670783 246.7 
L 293.507237 230.1325 
L 293.507237 246.7 
L 295.343692 230.1325 
L 295.343692 246.7 
L 297.180146 230.1325 
L 297.180146 246.7 
L 299.016601 230.1325 
L 299.016601 246.7 
L 300.853055 230.1325 
L 300.853055 246.7 
L 302.689509 230.1325 
L 302.689509 246.7 
L 304.525964 230.1325 
L 304.525964 246.7 
L 306.362418 230.1325 
L 306.362418 246.7 
L 308.198873 230.1325 
L 308.198873 246.7 
L 310.035327 230.1325 
L 310.035327 246.7 
L 311.871782 230.1325 
L 311.871782 246.7 
L 313.708236 230.1325 
L 313.708236 246.7 
L 315.544691 230.1325 
L 315.544691 246.7 
L 317.381145 230.1325 
L 317.381145 246.7 
L 319.217599 230.1325 
L 319.217599 246.7 
L 321.054054 230.1325 
L 321.054054 246.7 
L 322.890508 230.1325 
L 322.890508 246.7 
L 324.726963 230.1325 
L 324.726963 246.7 
L 326.563417 230.1325 
L 326.563417 246.7 
L 328.399872 230.1325 
L 328.399872 246.7 
L 330.236326 230.1325 
L 330.236326 246.7 
L 332.07278 230.1325 
L 332.07278 246.7 
L 333.909235 230.1325 
L 333.909235 246.7 
L 335.745689 230.1325 
L 335.745689 246.7 
L 337.582144 230.1325 
L 337.582144 246.7 
L 339.418598 230.1325 
L 339.418598 246.7 
L 341.255053 230.1325 
L 341.255053 246.7 
L 343.091507 230.1325 
L 343.091507 246.7 
L 344.927961 230.1325 
L 344.927961 246.7 
L 346.764416 230.1325 
L 346.764416 246.7 
L 348.60087 230.1325 
L 348.60087 246.7 
L 350.437325 230.1325 
L 350.437325 246.7 
L 352.273779 230.1325 
L 352.273779 246.7 
L 354.110234 230.1325 
L 354.110234 246.7 
L 355.946688 230.1325 
L 355.946688 246.7 
L 357.783142 230.1325 
L 357.783142 246.7 
L 359.619597 230.1325 
L 359.619597 246.7 
L 361.456051 230.1325 
L 361.456051 246.7 
L 363.292506 230.1325 
L 363.292506 246.7 
L 365.12896 230.1325 
L 365.12896 246.7 
L 366.965415 230.1325 
L 366.965415 246.7 
L 368.801869 230.1325 
L 368.801869 246.7 
L 370.638323 230.1325 
L 370.638323 246.7 
L 372.474778 230.1325 
L 372.474778 246.7 
L 374.311232 230.1325 
L 374.311232 246.7 
L 376.147687 230.1325 
L 376.147687 246.7 
L 377.984141 230.1325 
L 377.984141 246.7 
L 379.820596 230.1325 
L 379.820596 246.7 
L 381.65705 230.1325 
L 381.65705 246.7 
L 383.493504 230.1325 
L 383.493504 246.7 
L 385.329959 230.1325 
L 385.329959 246.7 
L 387.166413 230.1325 
L 387.166413 246.7 
L 389.002868 230.1325 
L 389.002868 246.7 
L 390.839322 230.1325 
L 390.839322 246.7 
L 392.675777 230.1325 
L 392.675777 246.7 
L 394.512231 230.1325 
L 394.512231 246.7 
L 396.348685 230.1325 
L 396.348685 246.7 
L 398.18514 230.1325 
L 398.18514 246.7 
L 400.021594 230.1325 
L 400.021594 246.7 
L 401.858049 230.1325 
L 401.858049 246.7 
L 403.694503 230.1325 
L 403.694503 246.7 
L 405.530958 230.1325 
L 405.530958 246.7 
L 407.367412 230.1325 
L 407.367412 246.7 
L 411.040014 230.1325 
L 411.040014 246.7 
L 411.040014 246.7 
" clip-path="url(#pceec0393b4)" style="fill: none; stroke: #8c564b; stroke-width: 1.5; stroke-linecap: square"/>
   </g>
   <g id="line2d_39">
    <path d="M 44.39375 230.1325 
L 44.39375 246.7 
L 44.393963 230.1325 
L 44.393963 246.7 
L 44.394176 230.1325 
L 44.394176 246.7 
L 44.394389 230.1325 
L 44.394389 246.7 
L 44.394602 230.1325 
L 44.394602 246.7 
L 44.394815 230.1325 
L 44.394815 246.7 
L 44.395028 230.1325 
L 44.395028 246.7 
L 44.395241 230.1325 
L 44.395241 246.7 
" clip-path="url(#pceec0393b4)" style="fill: none; stroke: #e377c2; stroke-width: 1.5; stroke-linecap: square"/>
   </g>
   <g id="line2d_40">
    <path d="M 51.482105 230.1325 
L 51.482105 246.7 
L 53.318559 230.1325 
L 53.318559 246.7 
L 56.378395 230.1325 
L 56.378395 246.7 
L 58.284928 230.1325 
L 58.284928 246.7 
L 60.121382 230.1325 
L 60.121382 246.7 
L 63.425244 230.1325 
L 63.425244 246.7 
L 65.261698 230.1325 
L 65.261698 246.7 
L 67.098153 230.1325 
L 67.098153 246.7 
L 68.934607 230.1325 
L 68.934607 246.7 
L 70.771061 230.1325 
L 70.771061 246.7 
L 72.607516 230.1325 
L 72.607516 246.7 
L 74.44397 230.1325 
L 74.44397 246.7 
L 76.280425 230.1325 
L 76.280425 246.7 
L 78.116879 230.1325 
L 78.116879 246.7 
L 79.953334 230.1325 
L 79.953334 246.7 
L 81.789788 230.1325 
L 81.789788 246.7 
L 83.626242 230.1325 
L 83.626242 246.7 
L 85.462697 230.1325 
L 85.462697 246.7 
L 87.299151 230.1325 
L 87.299151 246.7 
L 94.065269 230.1325 
L 94.065269 246.7 
L 95.901723 230.1325 
L 95.901723 246.7 
L 97.986953 230.1325 
L 97.986953 246.7 
L 99.862767 230.1325 
L 99.862767 246.7 
L 101.699221 230.1325 
L 101.699221 246.7 
L 106.780216 230.1325 
L 106.780216 246.7 
L 108.61667 230.1325 
L 108.61667 246.7 
L 110.691771 230.1325 
L 110.691771 246.7 
L 112.528226 230.1325 
L 112.528226 246.7 
L 114.36468 230.1325 
L 114.36468 246.7 
L 116.201135 230.1325 
L 116.201135 246.7 
L 118.037589 230.1325 
L 118.037589 246.7 
L 119.874043 230.1325 
L 119.874043 246.7 
L 121.710498 230.1325 
L 121.710498 246.7 
L 123.546952 230.1325 
L 123.546952 246.7 
L 125.383407 230.1325 
L 125.383407 246.7 
L 127.219861 230.1325 
L 127.219861 246.7 
L 129.056316 230.1325 
L 129.056316 246.7 
L 130.89277 230.1325 
L 130.89277 246.7 
L 133.536547 230.1325 
L 133.536547 246.7 
L 135.373001 230.1325 
L 135.373001 246.7 
L 137.209456 230.1325 
L 137.209456 246.7 
L 139.04591 230.1325 
L 139.04591 246.7 
L 140.882365 230.1325 
L 140.882365 246.7 
L 142.718819 230.1325 
L 142.718819 246.7 
L 144.555273 230.1325 
L 144.555273 246.7 
L 146.391728 230.1325 
L 146.391728 246.7 
L 148.228182 230.1325 
L 148.228182 246.7 
L 150.064637 230.1325 
L 150.064637 246.7 
L 151.901091 230.1325 
L 151.901091 246.7 
L 153.737546 230.1325 
L 153.737546 246.7 
L 155.574 230.1325 
L 155.574 246.7 
L 157.410454 230.1325 
L 157.410454 246.7 
L 159.415814 230.1325 
L 159.415814 246.7 
L 161.252268 230.1325 
L 161.252268 246.7 
L 163.088723 230.1325 
L 163.088723 246.7 
L 164.925177 230.1325 
L 164.925177 246.7 
L 166.761632 230.1325 
L 166.761632 246.7 
L 168.598086 230.1325 
L 168.598086 246.7 
L 170.43454 230.1325 
L 170.43454 246.7 
L 172.270995 230.1325 
L 172.270995 246.7 
L 174.107449 230.1325 
L 174.107449 246.7 
L 175.943904 230.1325 
L 175.943904 246.7 
L 177.780358 230.1325 
L 177.780358 246.7 
L 180.830047 230.1325 
L 180.830047 246.7 
L 182.666501 230.1325 
L 182.666501 246.7 
L 184.502955 230.1325 
L 184.502955 246.7 
L 190.208539 230.1325 
L 190.208539 246.7 
L 192.044994 230.1325 
L 192.044994 246.7 
L 193.881448 230.1325 
L 193.881448 246.7 
L 195.717902 230.1325 
L 195.717902 246.7 
L 197.554357 230.1325 
L 197.554357 246.7 
L 199.390811 230.1325 
L 199.390811 246.7 
L 201.227266 230.1325 
L 201.227266 246.7 
L 203.06372 230.1325 
L 203.06372 246.7 
L 204.900175 230.1325 
L 204.900175 246.7 
L 206.736629 230.1325 
L 206.736629 246.7 
L 208.573083 230.1325 
L 208.573083 246.7 
L 210.409538 230.1325 
L 210.409538 246.7 
L 212.245992 230.1325 
L 212.245992 246.7 
L 214.082447 230.1325 
L 214.082447 246.7 
L 215.918901 230.1325 
L 215.918901 246.7 
L 217.755356 230.1325 
L 217.755356 246.7 
L 219.59181 230.1325 
L 219.59181 246.7 
L 221.428265 230.1325 
L 221.428265 246.7 
L 223.264719 230.1325 
L 223.264719 246.7 
L 225.101173 230.1325 
L 225.101173 246.7 
L 226.937628 230.1325 
L 226.937628 246.7 
L 228.774082 230.1325 
L 228.774082 246.7 
L 230.610537 230.1325 
L 230.610537 246.7 
L 232.446991 230.1325 
L 232.446991 246.7 
L 234.283446 230.1325 
L 234.283446 246.7 
L 236.1199 230.1325 
L 236.1199 246.7 
L 237.956354 230.1325 
L 237.956354 246.7 
L 239.792809 230.1325 
L 239.792809 246.7 
L 241.629263 230.1325 
L 241.629263 246.7 
L 243.465718 230.1325 
L 243.465718 246.7 
L 245.302172 230.1325 
L 245.302172 246.7 
L 247.138627 230.1325 
L 247.138627 246.7 
L 248.975081 230.1325 
L 248.975081 246.7 
L 250.811535 230.1325 
L 250.811535 246.7 
L 252.64799 230.1325 
L 252.64799 246.7 
L 254.484444 230.1325 
L 254.484444 246.7 
L 256.320899 230.1325 
L 256.320899 246.7 
L 258.157353 230.1325 
L 258.157353 246.7 
L 259.993808 230.1325 
L 259.993808 246.7 
L 261.830262 230.1325 
L 261.830262 246.7 
L 263.666716 230.1325 
L 263.666716 246.7 
L 265.503171 230.1325 
L 265.503171 246.7 
L 267.339625 230.1325 
L 267.339625 246.7 
L 269.17608 230.1325 
L 269.17608 246.7 
L 271.012534 230.1325 
L 271.012534 246.7 
L 272.848989 230.1325 
L 272.848989 246.7 
L 274.685443 230.1325 
L 274.685443 246.7 
L 276.521897 230.1325 
L 276.521897 246.7 
L 278.358352 230.1325 
L 278.358352 246.7 
L 280.194806 230.1325 
L 280.194806 246.7 
L 282.488694 230.1325 
L 282.488694 246.7 
L 284.325149 230.1325 
L 284.325149 246.7 
L 286.161603 230.1325 
L 286.161603 246.7 
L 287.998058 230.1325 
L 287.998058 246.7 
L 289.834512 230.1325 
L 289.834512 246.7 
L 291.670967 230.1325 
L 291.670967 246.7 
L 293.507421 230.1325 
L 293.507421 246.7 
L 295.343875 230.1325 
L 295.343875 246.7 
L 297.18033 230.1325 
L 297.18033 246.7 
L 299.016784 230.1325 
L 299.016784 246.7 
L 300.853239 230.1325 
L 300.853239 246.7 
L 302.689693 230.1325 
L 302.689693 246.7 
L 304.526148 230.1325 
L 304.526148 246.7 
L 306.362602 230.1325 
L 306.362602 246.7 
L 308.199056 230.1325 
L 308.199056 246.7 
L 310.035511 230.1325 
L 310.035511 246.7 
L 311.871965 230.1325 
L 311.871965 246.7 
L 313.70842 230.1325 
L 313.70842 246.7 
L 315.544874 230.1325 
L 315.544874 246.7 
L 317.381329 230.1325 
L 317.381329 246.7 
L 319.217783 230.1325 
L 319.217783 246.7 
L 321.054237 230.1325 
L 321.054237 246.7 
L 322.890692 230.1325 
L 322.890692 246.7 
L 324.727146 230.1325 
L 324.727146 246.7 
L 326.563601 230.1325 
L 326.563601 246.7 
L 328.400055 230.1325 
L 328.400055 246.7 
L 330.23651 230.1325 
L 330.23651 246.7 
L 332.072964 230.1325 
L 332.072964 246.7 
L 333.909418 230.1325 
L 333.909418 246.7 
L 335.745873 230.1325 
L 335.745873 246.7 
L 337.582327 230.1325 
L 337.582327 246.7 
L 339.418782 230.1325 
L 339.418782 246.7 
L 341.255236 230.1325 
L 341.255236 246.7 
L 343.091691 230.1325 
L 343.091691 246.7 
L 344.928145 230.1325 
L 344.928145 246.7 
L 346.764599 230.1325 
L 346.764599 246.7 
L 348.601054 230.1325 
L 348.601054 246.7 
L 350.437508 230.1325 
L 350.437508 246.7 
L 352.273963 230.1325 
L 352.273963 246.7 
L 354.110417 230.1325 
L 354.110417 246.7 
L 355.946872 230.1325 
L 355.946872 246.7 
L 357.783326 230.1325 
L 357.783326 246.7 
L 359.619781 230.1325 
L 359.619781 246.7 
L 361.456235 230.1325 
L 361.456235 246.7 
L 363.292689 230.1325 
L 363.292689 246.7 
L 365.129144 230.1325 
L 365.129144 246.7 
L 366.965598 230.1325 
L 366.965598 246.7 
L 368.802053 230.1325 
L 368.802053 246.7 
L 370.638507 230.1325 
L 370.638507 246.7 
L 372.474962 230.1325 
L 372.474962 246.7 
L 374.311416 230.1325 
L 374.311416 246.7 
L 376.14787 230.1325 
L 376.14787 246.7 
L 377.984325 230.1325 
L 377.984325 246.7 
L 379.820779 230.1325 
L 379.820779 246.7 
L 381.657234 230.1325 
L 381.657234 246.7 
L 383.493688 230.1325 
L 383.493688 246.7 
L 385.330143 230.1325 
L 385.330143 246.7 
L 387.166597 230.1325 
L 387.166597 246.7 
L 389.003051 230.1325 
L 389.003051 246.7 
L 390.839506 230.1325 
L 390.839506 246.7 
L 392.67596 230.1325 
L 392.67596 246.7 
L 394.512415 230.1325 
L 394.512415 246.7 
L 396.348869 230.1325 
L 396.348869 246.7 
L 398.185324 230.1325 
L 398.185324 246.7 
L 400.021778 230.1325 
L 400.021778 246.7 
L 401.858232 230.1325 
L 401.858232 246.7 
L 403.694687 230.1325 
L 403.694687 246.7 
L 405.531141 230.1325 
L 405.531141 246.7 
L 407.367596 230.1325 
L 407.367596 246.7 
L 409.20405 230.1325 
L 409.20405 246.7 
L 409.20405 246.7 
" clip-path="url(#pceec0393b4)" style="fill: none; stroke: #7f7f7f; stroke-width: 1.5; stroke-linecap: square"/>
   </g>
   <g id="line2d_41">
    <path d="M 44.39375 230.1325 
L 44.39375 246.7 
L 44.393963 230.1325 
L 44.393963 246.7 
L 44.394176 230.1325 
L 44.394176 246.7 
L 44.394389 230.1325 
L 44.394389 246.7 
L 44.394602 230.1325 
L 44.394602 246.7 
L 44.394815 230.1325 
L 44.394815 246.7 
L 44.395028 230.1325 
L 44.395028 246.7 
L 44.395241 230.1325 
L 44.395241 246.7 
" clip-path="url(#pceec0393b4)" style="fill: none; stroke: #bcbd22; stroke-width: 1.5; stroke-linecap: square"/>
   </g>
   <g id="line2d_42">
    <path d="M 44.39375 230.1325 
L 44.39375 246.7 
L 44.395241 246.7 
L 49.717191 230.1325 
L 49.717191 246.7 
L 51.553646 230.1325 
L 51.553646 246.7 
L 54.996573 230.1325 
L 54.996573 246.7 
L 56.833027 230.1325 
L 56.833027 246.7 
L 58.669482 230.1325 
L 58.669482 246.7 
L 60.505936 230.1325 
L 60.505936 246.7 
L 62.34239 230.1325 
L 62.34239 246.7 
L 64.178845 230.1325 
L 64.178845 246.7 
L 66.015299 230.1325 
L 66.015299 246.7 
L 68.418365 230.1325 
L 68.418365 246.7 
L 70.254819 230.1325 
L 70.254819 246.7 
L 72.091274 230.1325 
L 72.091274 246.7 
L 74.663184 230.1325 
L 74.663184 246.7 
L 76.499639 230.1325 
L 76.499639 246.7 
L 78.336093 230.1325 
L 78.336093 246.7 
L 80.172548 230.1325 
L 80.172548 246.7 
L 82.009002 230.1325 
L 82.009002 246.7 
L 83.845456 230.1325 
L 83.845456 246.7 
L 87.173294 230.1325 
L 87.173294 246.7 
L 89.009748 230.1325 
L 89.009748 246.7 
L 91.299713 230.1325 
L 91.299713 246.7 
L 94.263754 230.1325 
L 94.263754 246.7 
L 96.100208 230.1325 
L 96.100208 246.7 
L 97.936663 230.1325 
L 97.936663 246.7 
L 99.773117 230.1325 
L 99.773117 246.7 
L 101.609572 230.1325 
L 101.609572 246.7 
L 103.446026 230.1325 
L 103.446026 246.7 
L 105.282481 230.1325 
L 105.282481 246.7 
L 107.118935 230.1325 
L 107.118935 246.7 
L 108.955389 230.1325 
L 108.955389 246.7 
L 110.791844 230.1325 
L 110.791844 246.7 
L 112.628298 230.1325 
L 112.628298 246.7 
L 114.464753 230.1325 
L 114.464753 246.7 
L 116.301207 230.1325 
L 116.301207 246.7 
L 118.137662 230.1325 
L 118.137662 246.7 
L 119.974116 230.1325 
L 119.974116 246.7 
L 121.81057 230.1325 
L 121.81057 246.7 
L 123.647025 230.1325 
L 123.647025 246.7 
L 125.483479 230.1325 
L 125.483479 246.7 
L 127.319934 230.1325 
L 127.319934 246.7 
L 129.156388 230.1325 
L 129.156388 246.7 
L 130.992843 230.1325 
L 130.992843 246.7 
L 132.829297 230.1325 
L 132.829297 246.7 
L 134.665751 230.1325 
L 134.665751 246.7 
L 136.502206 230.1325 
L 136.502206 246.7 
L 138.33866 230.1325 
L 138.33866 246.7 
L 140.175115 230.1325 
L 140.175115 246.7 
L 142.011569 230.1325 
L 142.011569 246.7 
L 143.848024 230.1325 
L 143.848024 246.7 
L 145.684478 230.1325 
L 145.684478 246.7 
L 147.520932 230.1325 
L 147.520932 246.7 
L 149.357387 230.1325 
L 149.357387 246.7 
L 151.193841 230.1325 
L 151.193841 246.7 
L 153.030296 230.1325 
L 153.030296 246.7 
L 154.86675 230.1325 
L 154.86675 246.7 
L 156.703205 230.1325 
L 156.703205 246.7 
L 158.539659 230.1325 
L 158.539659 246.7 
L 160.376114 230.1325 
L 160.376114 246.7 
L 162.212568 230.1325 
L 162.212568 246.7 
L 164.049022 230.1325 
L 164.049022 246.7 
L 165.885477 230.1325 
L 165.885477 246.7 
L 167.721931 230.1325 
L 167.721931 246.7 
L 169.558386 230.1325 
L 169.558386 246.7 
L 171.39484 230.1325 
L 171.39484 246.7 
L 173.231295 230.1325 
L 173.231295 246.7 
L 175.067749 230.1325 
L 175.067749 246.7 
L 176.904203 230.1325 
L 176.904203 246.7 
L 178.740658 230.1325 
L 178.740658 246.7 
L 180.577112 230.1325 
L 180.577112 246.7 
L 182.413567 230.1325 
L 182.413567 246.7 
L 184.250021 230.1325 
L 184.250021 246.7 
L 186.086476 230.1325 
L 186.086476 246.7 
L 187.92293 230.1325 
L 187.92293 246.7 
L 189.759384 230.1325 
L 189.759384 246.7 
L 191.595839 230.1325 
L 191.595839 246.7 
L 193.432293 230.1325 
L 193.432293 246.7 
L 195.268748 230.1325 
L 195.268748 246.7 
L 197.105202 230.1325 
L 197.105202 246.7 
L 198.941657 230.1325 
L 198.941657 246.7 
L 200.778111 230.1325 
L 200.778111 246.7 
L 202.614565 230.1325 
L 202.614565 246.7 
L 204.45102 230.1325 
L 204.45102 246.7 
L 206.287474 230.1325 
L 206.287474 246.7 
L 208.123929 230.1325 
L 208.123929 246.7 
L 209.960383 230.1325 
L 209.960383 246.7 
L 211.796838 230.1325 
L 211.796838 246.7 
L 213.633292 230.1325 
L 213.633292 246.7 
L 215.469746 230.1325 
L 215.469746 246.7 
L 217.306201 230.1325 
L 217.306201 246.7 
L 219.142655 230.1325 
L 219.142655 246.7 
L 220.97911 230.1325 
L 220.97911 246.7 
L 222.815564 230.1325 
L 222.815564 246.7 
L 224.652019 230.1325 
L 224.652019 246.7 
L 226.488473 230.1325 
L 226.488473 246.7 
L 228.324927 230.1325 
L 228.324927 246.7 
L 230.161382 230.1325 
L 230.161382 246.7 
L 231.997836 230.1325 
L 231.997836 246.7 
L 233.834291 230.1325 
L 233.834291 246.7 
L 235.670745 230.1325 
L 235.670745 246.7 
L 237.5072 230.1325 
L 237.5072 246.7 
L 239.343654 230.1325 
L 239.343654 246.7 
L 241.180109 230.1325 
L 241.180109 246.7 
L 243.016563 230.1325 
L 243.016563 246.7 
L 244.853017 230.1325 
L 244.853017 246.7 
L 246.689472 230.1325 
L 246.689472 246.7 
L 248.525926 230.1325 
L 248.525926 246.7 
L 250.362381 230.1325 
L 250.362381 246.7 
L 252.198835 230.1325 
L 252.198835 246.7 
L 254.03529 230.1325 
L 254.03529 246.7 
L 255.871744 230.1325 
L 255.871744 246.7 
L 257.708198 230.1325 
L 257.708198 246.7 
L 259.544653 230.1325 
L 259.544653 246.7 
L 261.381107 230.1325 
L 261.381107 246.7 
L 263.217562 230.1325 
L 263.217562 246.7 
L 265.054016 230.1325 
L 265.054016 246.7 
L 266.890471 230.1325 
L 266.890471 246.7 
L 268.726925 230.1325 
L 268.726925 246.7 
L 270.563379 230.1325 
L 270.563379 246.7 
L 272.399834 230.1325 
L 272.399834 246.7 
L 274.236288 230.1325 
L 274.236288 246.7 
L 276.072743 230.1325 
L 276.072743 246.7 
L 277.909197 230.1325 
L 277.909197 246.7 
L 279.745652 230.1325 
L 279.745652 246.7 
L 281.582106 230.1325 
L 281.582106 246.7 
L 283.41856 230.1325 
L 283.41856 246.7 
L 285.255015 230.1325 
L 285.255015 246.7 
L 287.091469 230.1325 
L 287.091469 246.7 
L 288.927924 230.1325 
L 288.927924 246.7 
L 290.764378 230.1325 
L 290.764378 246.7 
L 292.600833 230.1325 
L 292.600833 246.7 
L 294.437287 230.1325 
L 294.437287 246.7 
L 296.273741 230.1325 
L 296.273741 246.7 
L 298.110196 230.1325 
L 298.110196 246.7 
L 299.94665 230.1325 
L 299.94665 246.7 
L 301.783105 230.1325 
L 301.783105 246.7 
L 303.619559 230.1325 
L 303.619559 246.7 
L 305.456014 230.1325 
L 305.456014 246.7 
L 307.292468 230.1325 
L 307.292468 246.7 
L 309.128922 230.1325 
L 309.128922 246.7 
L 310.965377 230.1325 
L 310.965377 246.7 
L 312.801831 230.1325 
L 312.801831 246.7 
L 314.638286 230.1325 
L 314.638286 246.7 
L 316.47474 230.1325 
L 316.47474 246.7 
L 318.311195 230.1325 
L 318.311195 246.7 
L 320.147649 230.1325 
L 320.147649 246.7 
L 321.984104 230.1325 
L 321.984104 246.7 
L 323.820558 230.1325 
L 323.820558 246.7 
L 325.657012 230.1325 
L 325.657012 246.7 
L 327.493467 230.1325 
L 327.493467 246.7 
L 329.329921 230.1325 
L 329.329921 246.7 
L 331.166376 230.1325 
L 331.166376 246.7 
L 333.00283 230.1325 
L 333.00283 246.7 
L 334.839285 230.1325 
L 334.839285 246.7 
L 336.675739 230.1325 
L 336.675739 246.7 
L 338.512193 230.1325 
L 338.512193 246.7 
L 340.348648 230.1325 
L 340.348648 246.7 
L 342.185102 230.1325 
L 342.185102 246.7 
L 344.021557 230.1325 
L 344.021557 246.7 
L 345.858011 230.1325 
L 345.858011 246.7 
L 347.694466 230.1325 
L 347.694466 246.7 
L 349.53092 230.1325 
L 349.53092 246.7 
L 351.367374 230.1325 
L 351.367374 246.7 
L 353.203829 230.1325 
L 353.203829 246.7 
L 355.040283 230.1325 
L 355.040283 246.7 
L 356.876738 230.1325 
L 356.876738 246.7 
L 358.713192 230.1325 
L 358.713192 246.7 
L 360.549647 230.1325 
L 360.549647 246.7 
L 362.386101 230.1325 
L 362.386101 246.7 
L 364.222555 230.1325 
L 364.222555 246.7 
L 366.05901 230.1325 
L 366.05901 246.7 
L 367.895464 230.1325 
L 367.895464 246.7 
L 369.731919 230.1325 
L 369.731919 246.7 
L 371.568373 230.1325 
L 371.568373 246.7 
L 373.404828 230.1325 
L 373.404828 246.7 
L 375.241282 230.1325 
L 375.241282 246.7 
L 377.077736 230.1325 
L 377.077736 246.7 
L 378.914191 230.1325 
L 378.914191 246.7 
L 380.750645 230.1325 
L 380.750645 246.7 
L 382.5871 230.1325 
L 382.5871 246.7 
L 384.423554 230.1325 
L 384.423554 246.7 
L 386.260009 230.1325 
L 386.260009 246.7 
L 388.096463 230.1325 
L 388.096463 246.7 
L 389.932917 230.1325 
L 389.932917 246.7 
L 391.769372 230.1325 
L 391.769372 246.7 
L 393.605826 230.1325 
L 393.605826 246.7 
L 395.442281 230.1325 
L 395.442281 246.7 
L 397.278735 230.1325 
L 397.278735 246.7 
L 399.11519 230.1325 
L 399.11519 246.7 
L 400.951644 230.1325 
L 400.951644 246.7 
L 402.788099 230.1325 
L 402.788099 246.7 
L 404.624553 230.1325 
L 404.624553 246.7 
L 406.461007 230.1325 
L 406.461007 246.7 
L 408.297462 230.1325 
L 408.297462 246.7 
L 410.133916 230.1325 
L 410.133916 246.7 
L 410.133916 246.7 
" clip-path="url(#pceec0393b4)" style="fill: none; stroke: #17becf; stroke-width: 1.5; stroke-linecap: square"/>
   </g>
   <g id="line2d_43">
    <path d="M 44.39375 230.1325 
L 44.39375 246.7 
L 44.395241 246.7 
L 47.880553 230.1325 
L 47.880553 246.7 
L 49.717008 230.1325 
L 49.717008 246.7 
L 53.159935 230.1325 
L 53.159935 246.7 
L 54.996389 230.1325 
L 54.996389 246.7 
L 56.832843 230.1325 
L 56.832843 246.7 
L 58.669298 230.1325 
L 58.669298 246.7 
L 60.505752 230.1325 
L 60.505752 246.7 
L 62.342207 230.1325 
L 62.342207 246.7 
L 64.178661 230.1325 
L 64.178661 246.7 
L 66.581727 230.1325 
L 66.581727 246.7 
L 68.418181 230.1325 
L 68.418181 246.7 
L 70.254635 230.1325 
L 70.254635 246.7 
L 72.826546 230.1325 
L 72.826546 246.7 
L 74.663001 230.1325 
L 74.663001 246.7 
L 76.499455 230.1325 
L 76.499455 246.7 
L 78.33591 230.1325 
L 78.33591 246.7 
L 80.172364 230.1325 
L 80.172364 246.7 
L 82.008818 230.1325 
L 82.008818 246.7 
L 85.336656 230.1325 
L 85.336656 246.7 
L 87.17311 230.1325 
L 87.17311 246.7 
L 89.463075 230.1325 
L 89.463075 246.7 
L 92.427116 230.1325 
L 92.427116 246.7 
L 94.26357 230.1325 
L 94.26357 246.7 
L 96.100025 230.1325 
L 96.100025 246.7 
L 97.936479 230.1325 
L 97.936479 246.7 
L 99.772934 230.1325 
L 99.772934 246.7 
L 101.609388 230.1325 
L 101.609388 246.7 
L 103.445842 230.1325 
L 103.445842 246.7 
L 105.282297 230.1325 
L 105.282297 246.7 
L 107.118751 230.1325 
L 107.118751 246.7 
L 108.955206 230.1325 
L 108.955206 246.7 
L 110.79166 230.1325 
L 110.79166 246.7 
L 112.628115 230.1325 
L 112.628115 246.7 
L 114.464569 230.1325 
L 114.464569 246.7 
L 116.301024 230.1325 
L 116.301024 246.7 
L 118.137478 230.1325 
L 118.137478 246.7 
L 119.973932 230.1325 
L 119.973932 246.7 
L 121.810387 230.1325 
L 121.810387 246.7 
L 123.646841 230.1325 
L 123.646841 246.7 
L 125.483296 230.1325 
L 125.483296 246.7 
L 127.31975 230.1325 
L 127.31975 246.7 
L 129.156205 230.1325 
L 129.156205 246.7 
L 130.992659 230.1325 
L 130.992659 246.7 
L 132.829113 230.1325 
L 132.829113 246.7 
L 134.665568 230.1325 
L 134.665568 246.7 
L 136.502022 230.1325 
L 136.502022 246.7 
L 138.338477 230.1325 
L 138.338477 246.7 
L 140.174931 230.1325 
L 140.174931 246.7 
L 142.011386 230.1325 
L 142.011386 246.7 
L 143.84784 230.1325 
L 143.84784 246.7 
L 145.684294 230.1325 
L 145.684294 246.7 
L 147.520749 230.1325 
L 147.520749 246.7 
L 149.357203 230.1325 
L 149.357203 246.7 
L 151.193658 230.1325 
L 151.193658 246.7 
L 153.030112 230.1325 
L 153.030112 246.7 
L 154.866567 230.1325 
L 154.866567 246.7 
L 156.703021 230.1325 
L 156.703021 246.7 
L 158.539475 230.1325 
L 158.539475 246.7 
L 160.37593 230.1325 
L 160.37593 246.7 
L 162.212384 230.1325 
L 162.212384 246.7 
L 164.048839 230.1325 
L 164.048839 246.7 
L 165.885293 230.1325 
L 165.885293 246.7 
L 167.721748 230.1325 
L 167.721748 246.7 
L 169.558202 230.1325 
L 169.558202 246.7 
L 171.394656 230.1325 
L 171.394656 246.7 
L 173.231111 230.1325 
L 173.231111 246.7 
L 175.067565 230.1325 
L 175.067565 246.7 
L 176.90402 230.1325 
L 176.90402 246.7 
L 178.740474 230.1325 
L 178.740474 246.7 
L 180.576929 230.1325 
L 180.576929 246.7 
L 182.413383 230.1325 
L 182.413383 246.7 
L 184.249837 230.1325 
L 184.249837 246.7 
L 186.086292 230.1325 
L 186.086292 246.7 
L 187.922746 230.1325 
L 187.922746 246.7 
L 189.759201 230.1325 
L 189.759201 246.7 
L 191.595655 230.1325 
L 191.595655 246.7 
L 193.43211 230.1325 
L 193.43211 246.7 
L 195.268564 230.1325 
L 195.268564 246.7 
L 197.105019 230.1325 
L 197.105019 246.7 
L 198.941473 230.1325 
L 198.941473 246.7 
L 200.777927 230.1325 
L 200.777927 246.7 
L 202.614382 230.1325 
L 202.614382 246.7 
L 204.450836 230.1325 
L 204.450836 246.7 
L 206.287291 230.1325 
L 206.287291 246.7 
L 208.123745 230.1325 
L 208.123745 246.7 
L 209.9602 230.1325 
L 209.9602 246.7 
L 211.796654 230.1325 
L 211.796654 246.7 
L 213.633108 230.1325 
L 213.633108 246.7 
L 215.469563 230.1325 
L 215.469563 246.7 
L 217.306017 230.1325 
L 217.306017 246.7 
L 219.142472 230.1325 
L 219.142472 246.7 
L 220.978926 230.1325 
L 220.978926 246.7 
L 222.815381 230.1325 
L 222.815381 246.7 
L 224.651835 230.1325 
L 224.651835 246.7 
L 226.488289 230.1325 
L 226.488289 246.7 
L 228.324744 230.1325 
L 228.324744 246.7 
L 230.161198 230.1325 
L 230.161198 246.7 
L 231.997653 230.1325 
L 231.997653 246.7 
L 233.834107 230.1325 
L 233.834107 246.7 
L 235.670562 230.1325 
L 235.670562 246.7 
L 237.507016 230.1325 
L 237.507016 246.7 
L 239.34347 230.1325 
L 239.34347 246.7 
L 241.179925 230.1325 
L 241.179925 246.7 
L 243.016379 230.1325 
L 243.016379 246.7 
L 244.852834 230.1325 
L 244.852834 246.7 
L 246.689288 230.1325 
L 246.689288 246.7 
L 248.525743 230.1325 
L 248.525743 246.7 
L 250.362197 230.1325 
L 250.362197 246.7 
L 252.198651 230.1325 
L 252.198651 246.7 
L 254.035106 230.1325 
L 254.035106 246.7 
L 255.87156 230.1325 
L 255.87156 246.7 
L 257.708015 230.1325 
L 257.708015 246.7 
L 259.544469 230.1325 
L 259.544469 246.7 
L 261.380924 230.1325 
L 261.380924 246.7 
L 263.217378 230.1325 
L 263.217378 246.7 
L 265.053832 230.1325 
L 265.053832 246.7 
L 266.890287 230.1325 
L 266.890287 246.7 
L 268.726741 230.1325 
L 268.726741 246.7 
L 270.563196 230.1325 
L 270.563196 246.7 
L 272.39965 230.1325 
L 272.39965 246.7 
L 274.236105 230.1325 
L 274.236105 246.7 
L 276.072559 230.1325 
L 276.072559 246.7 
L 277.909014 230.1325 
L 277.909014 246.7 
L 279.745468 230.1325 
L 279.745468 246.7 
L 281.581922 230.1325 
L 281.581922 246.7 
L 283.418377 230.1325 
L 283.418377 246.7 
L 285.254831 230.1325 
L 285.254831 246.7 
L 287.091286 230.1325 
L 287.091286 246.7 
L 288.92774 230.1325 
L 288.92774 246.7 
L 290.764195 230.1325 
L 290.764195 246.7 
L 292.600649 230.1325 
L 292.600649 246.7 
L 294.437103 230.1325 
L 294.437103 246.7 
L 296.273558 230.1325 
L 296.273558 246.7 
L 298.110012 230.1325 
L 298.110012 246.7 
L 299.946467 230.1325 
L 299.946467 246.7 
L 301.782921 230.1325 
L 301.782921 246.7 
L 303.619376 230.1325 
L 303.619376 246.7 
L 305.45583 230.1325 
L 305.45583 246.7 
L 307.292284 230.1325 
L 307.292284 246.7 
L 309.128739 230.1325 
L 309.128739 246.7 
L 310.965193 230.1325 
L 310.965193 246.7 
L 312.801648 230.1325 
L 312.801648 246.7 
L 314.638102 230.1325 
L 314.638102 246.7 
L 316.474557 230.1325 
L 316.474557 246.7 
L 318.311011 230.1325 
L 318.311011 246.7 
L 320.147465 230.1325 
L 320.147465 246.7 
L 321.98392 230.1325 
L 321.98392 246.7 
L 323.820374 230.1325 
L 323.820374 246.7 
L 325.656829 230.1325 
L 325.656829 246.7 
L 327.493283 230.1325 
L 327.493283 246.7 
L 329.329738 230.1325 
L 329.329738 246.7 
L 331.166192 230.1325 
L 331.166192 246.7 
L 333.002646 230.1325 
L 333.002646 246.7 
L 334.839101 230.1325 
L 334.839101 246.7 
L 336.675555 230.1325 
L 336.675555 246.7 
L 338.51201 230.1325 
L 338.51201 246.7 
L 340.348464 230.1325 
L 340.348464 246.7 
L 342.184919 230.1325 
L 342.184919 246.7 
L 344.021373 230.1325 
L 344.021373 246.7 
L 345.857827 230.1325 
L 345.857827 246.7 
L 347.694282 230.1325 
L 347.694282 246.7 
L 349.530736 230.1325 
L 349.530736 246.7 
L 351.367191 230.1325 
L 351.367191 246.7 
L 353.203645 230.1325 
L 353.203645 246.7 
L 355.0401 230.1325 
L 355.0401 246.7 
L 356.876554 230.1325 
L 356.876554 246.7 
L 358.713009 230.1325 
L 358.713009 246.7 
L 360.549463 230.1325 
L 360.549463 246.7 
L 362.385917 230.1325 
L 362.385917 246.7 
L 364.222372 230.1325 
L 364.222372 246.7 
L 366.058826 230.1325 
L 366.058826 246.7 
L 367.895281 230.1325 
L 367.895281 246.7 
L 369.731735 230.1325 
L 369.731735 246.7 
L 371.56819 230.1325 
L 371.56819 246.7 
L 373.404644 230.1325 
L 373.404644 246.7 
L 375.241098 230.1325 
L 375.241098 246.7 
L 377.077553 230.1325 
L 377.077553 246.7 
L 378.914007 230.1325 
L 378.914007 246.7 
L 380.750462 230.1325 
L 380.750462 246.7 
L 382.586916 230.1325 
L 382.586916 246.7 
L 384.423371 230.1325 
L 384.423371 246.7 
L 386.259825 230.1325 
L 386.259825 246.7 
L 388.096279 230.1325 
L 388.096279 246.7 
L 389.932734 230.1325 
L 389.932734 246.7 
L 391.769188 230.1325 
L 391.769188 246.7 
L 393.605643 230.1325 
L 393.605643 246.7 
L 395.442097 230.1325 
L 395.442097 246.7 
L 397.278552 230.1325 
L 397.278552 246.7 
L 399.115006 230.1325 
L 399.115006 246.7 
L 400.95146 230.1325 
L 400.95146 246.7 
L 402.787915 230.1325 
L 402.787915 246.7 
L 404.624369 230.1325 
L 404.624369 246.7 
L 406.460824 230.1325 
L 406.460824 246.7 
L 408.297278 230.1325 
L 408.297278 246.7 
L 410.133733 230.1325 
L 410.133733 246.7 
L 410.133733 246.7 
" clip-path="url(#pceec0393b4)" style="fill: none; stroke: #1f77b4; stroke-width: 1.5; stroke-linecap: square"/>
   </g>
   <g id="patch_3">
    <path d="M 44.39375 246.7 
L 44.39375 25.8 
" style="fill: none; stroke: #000000; stroke-width: 0.8; stroke-linejoin: miter; stroke-linecap: square"/>
   </g>
   <g id="patch_4">
    <path d="M 415.623092 246.7 
L 415.623092 25.8 
" style="fill: none; stroke: #000000; stroke-width: 0.8; stroke-linejoin: miter; stroke-linecap: square"/>
   </g>
   <g id="patch_5">
    <path d="M 44.39375 246.7 
L 415.623092 246.7 
" style="fill: none; stroke: #000000; stroke-width: 0.8; stroke-linejoin: miter; stroke-linecap: square"/>
   </g>
   <g id="patch_6">
    <path d="M 44.39375 25.8 
L 415.623092 25.8 
" style="fill: none; stroke: #000000; stroke-width: 0.8; stroke-linejoin: miter; stroke-linecap: square"/>
   </g>
   <g id="text_19">
    <!-- Tamaos de buffer -->
    <g transform="translate(174.227171 19.8)scale(0.12 -0.12)">
     <defs>
      <path id="DejaVuSans-f1" d="M 3513 2113 
L 3513 0 
L 2938 0 
L 2938 2094 
Q 2938 2591 2744 2837 
Q 2550 3084 2163 3084 
Q 1697 3084 1428 2787 
Q 1159 2491 1159 1978 
L 1159 0 
L 581 0 
L 581 3500 
L 1159 3500 
L 1159 2956 
Q 1366 3272 1645 3428 
Q 1925 3584 2291 3584 
Q 2894 3584 3203 3211 
Q 3513 2838 3513 2113 
z
M 2060 4281 
L 1881 4453 
Q 1813 4516 1761 4545 
Q 1710 4575 1669 4575 
Q 1550 4575 1494 4461 
Q 1438 4347 1431 4091 
L 1041 4091 
Q 1047 4513 1206 4742 
Q 1366 4972 1650 4972 
Q 1769 4972 1869 4928 
Q 1969 4884 2085 4781 
L 2263 4609 
Q 2331 4547 2383 4517 
Q 2435 4488 2475 4488 
Q 2594 4488 2650 4602 
Q 2706 4716 2713 4972 
L 3103 4972 
Q 3097 4550 2937 4320 
Q 2778 4091 2494 4091 
Q 2375 4091 2275 4134 
Q 2175 4178 2060 4281 
z
" transform="scale(0.015625)"/>
      <path id="DejaVuSans-20" transform="scale(0.015625)"/>
      <path id="DejaVuSans-64" d="M 2906 2969 
L 2906 4863 
L 3481 4863 
L 3481 0 
L 2906 0 
L 2906 525 
Q 2725 213 2448 61 
Q 2172 -91 1784 -91 
Q 1150 -91 751 415 
Q 353 922 353 1747 
Q 353 2572 751 3078 
Q 1150 3584 1784 3584 
Q 2172 3584 2448 3432 
Q 2725 3281 2906 2969 
z
M 947 1747 
Q 947 1113 1208 752 
Q 1469 391 1925 391 
Q 2381 391 2643 752 
Q 2906 1113 2906 1747 
Q 2906 2381 2643 2742 
Q 2381 3103 1925 3103 
Q 1469 3103 1208 2742 
Q 947 2381 947 1747 
z
" transform="scale(0.015625)"/>
      <path id="DejaVuSans-62" d="M 3116 1747 
Q 3116 2381 2855 2742 
Q 2594 3103 2138 3103 
Q 1681 3103 1420 2742 
Q 1159 2381 1159 1747 
Q 1159 1113 1420 752 
Q 1681 391 2138 391 
Q 2594 391 2855 752 
Q 3116 1113 3116 1747 
z
M 1159 2969 
Q 1341 3281 1617 3432 
Q 1894 3584 2278 3584 
Q 2916 3584 3314 3078 
Q 3713 2572 3713 1747 
Q 3713 922 3314 415 
Q 2916 -91 2278 -91 
Q 1894 -91 1617 61 
Q 1341 213 1159 525 
L 1159 0 
L 581 0 
L 581 4863 
L 1159 4863 
L 1159 2969 
z
" transform="scale(0.015625)"/>
      <path id="DejaVuSans-66" d="M 2375 4863 
L 2375 4384 
L 1825 4384 
Q 1516 4384 1395 4259 
Q 1275 4134 1275 3809 
L 1275 3500 
L 2222 3500 
L 2222 3053 
L 1275 3053 
L 1275 0 
L 697 0 
L 697 3053 
L 147 3053 
L 147 3500 
L 697 3500 
L 697 3744 
Q 697 4328 969 4595 
Q 1241 4863 1831 4863 
L 2375 4863 
z
" transform="scale(0.015625)"/>
      <path id="DejaVuSans-72" d="M 2631 2963 
Q 2534 3019 2420 3045 
Q 2306 3072 2169 3072 
Q 1681 3072 1420 2755 
Q 1159 2438 1159 1844 
L 1159 0 
L 581 0 
L 581 3500 
L 1159 3500 
L 1159 2956 
Q 1341 3275 1631 3429 
Q 1922 3584 2338 3584 
Q 2397 3584 2469 3576 
Q 2541 3569 2628 3553 
L 2631 2963 
z
" transform="scale(0.015625)"/>
     </defs>
     <use xlink:href="#DejaVuSans-54"/>
     <use xlink:href="#DejaVuSans-61" x="44.583984"/>
     <use xlink:href="#DejaVuSans-6d" x="105.863281"/>
     <use xlink:href="#DejaVuSans-61" x="203.275391"/>
     <use xlink:href="#DejaVuSans-f1" x="264.554688"/>
     <use xlink:href="#DejaVuSans-6f" x="327.933594"/>
     <use xlink:href="#DejaVuSans-73" x="389.115234"/>
     <use xlink:href="#DejaVuSans-20" x="441.214844"/>
     <use xlink:href="#DejaVuSans-64" x="473.001953"/>
     <use xlink:href="#DejaVuSans-65" x="536.478516"/>
     <use xlink:href="#DejaVuSans-20" x="598.001953"/>
     <use xlink:href="#DejaVuSans-62" x="629.789062"/>
     <use xlink:href="#DejaVuSans-75" x="693.265625"/>
     <use xlink:href="#DejaVuSans-66" x="756.644531"/>
     <use xlink:href="#DejaVuSans-66" x="791.849609"/>
     <use xlink:href="#DejaVuSans-65" x="827.054688"/>
     <use xlink:href="#DejaVuSans-72" x="888.578125"/>
    </g>
   </g>
   <g id="legend_1">
    <g id="patch_7">
     <path d="M 260.318405 195.259375 
L 408.623092 195.259375 
Q 410.623092 195.259375 410.623092 193.259375 
L 410.623092 32.8 
Q 410.623092 30.8 408.623092 30.8 
L 260.318405 30.8 
Q 258.318405 30.8 258.318405 32.8 
L 258.318405 193.259375 
Q 258.318405 195.259375 260.318405 195.259375 
z
" style="fill: #ffffff; opacity: 0.8; stroke: #cccccc; stroke-linejoin: miter"/>
    </g>
    <g id="line2d_44">
     <path d="M 262.318405 38.898437 
L 272.318405 38.898437 
L 282.318405 38.898437 
" style="fill: none; stroke: #1f77b4; stroke-width: 1.5; stroke-linecap: square"/>
    </g>
    <g id="text_20">
     <!-- Network.node[0].lnk[0] -->
     <g transform="translate(290.318405 42.398437)scale(0.1 -0.1)">
      <defs>
       <path id="DejaVuSans-4e" d="M 628 4666 
L 1478 4666 
L 3547 763 
L 3547 4666 
L 4159 4666 
L 4159 0 
L 3309 0 
L 1241 3903 
L 1241 0 
L 628 0 
L 628 4666 
z
" transform="scale(0.015625)"/>
       <path id="DejaVuSans-77" d="M 269 3500 
L 844 3500 
L 1563 769 
L 2278 3500 
L 2956 3500 
L 3675 769 
L 4391 3500 
L 4966 3500 
L 4050 0 
L 3372 0 
L 2619 2869 
L 1863 0 
L 1184 0 
L 269 3500 
z
" transform="scale(0.015625)"/>
       <path id="DejaVuSans-6b" d="M 581 4863 
L 1159 4863 
L 1159 1991 
L 2875 3500 
L 3609 3500 
L 1753 1863 
L 3688 0 
L 2938 0 
L 1159 1709 
L 1159 0 
L 581 0 
L 581 4863 
z
" transform="scale(0.015625)"/>
       <path id="DejaVuSans-2e" d="M 684 794 
L 1344 794 
L 1344 0 
L 684 0 
L 684 794 
z
" transform="scale(0.015625)"/>
       <path id="DejaVuSans-6e" d="M 3513 2113 
L 3513 0 
L 2938 0 
L 2938 2094 
Q 2938 2591 2744 2837 
Q 2550 3084 2163 3084 
Q 1697 3084 1428 2787 
Q 1159 2491 1159 1978 
L 1159 0 
L 581 0 
L 581 3500 
L 1159 3500 
L 1159 2956 
Q 1366 3272 1645 3428 
Q 1925 3584 2291 3584 
Q 2894 3584 3203 3211 
Q 3513 2838 3513 2113 
z
" transform="scale(0.015625)"/>
       <path id="DejaVuSans-5b" d="M 550 4863 
L 1875 4863 
L 1875 4416 
L 1125 4416 
L 1125 -397 
L 1875 -397 
L 1875 -844 
L 550 -844 
L 550 4863 
z
" transform="scale(0.015625)"/>
       <path id="DejaVuSans-5d" d="M 1947 4863 
L 1947 -844 
L 622 -844 
L 622 -397 
L 1369 -397 
L 1369 4416 
L 622 4416 
L 622 4863 
L 1947 4863 
z
" transform="scale(0.015625)"/>
       <path id="DejaVuSans-6c" d="M 603 4863 
L 1178 4863 
L 1178 0 
L 603 0 
L 603 4863 
z
" transform="scale(0.015625)"/>
      </defs>
      <use xlink:href="#DejaVuSans-4e"/>
      <use xlink:href="#DejaVuSans-65" x="74.804688"/>
      <use xlink:href="#DejaVuSans-74" x="136.328125"/>
      <use xlink:href="#DejaVuSans-77" x="175.537109"/>
      <use xlink:href="#DejaVuSans-6f" x="257.324219"/>
      <use xlink:href="#DejaVuSans-72" x="318.505859"/>
      <use xlink:href="#DejaVuSans-6b" x="359.619141"/>
      <use xlink:href="#DejaVuSans-2e" x="417.529297"/>
      <use xlink:href="#DejaVuSans-6e" x="449.316406"/>
      <use xlink:href="#DejaVuSans-6f" x="512.695312"/>
      <use xlink:href="#DejaVuSans-64" x="573.876953"/>
      <use xlink:href="#DejaVuSans-65" x="637.353516"/>
      <use xlink:href="#DejaVuSans-5b" x="698.876953"/>
      <use xlink:href="#DejaVuSans-30" x="737.890625"/>
      <use xlink:href="#DejaVuSans-5d" x="801.513672"/>
      <use xlink:href="#DejaVuSans-2e" x="840.527344"/>
      <use xlink:href="#DejaVuSans-6c" x="872.314453"/>
      <use xlink:href="#DejaVuSans-6e" x="900.097656"/>
      <use xlink:href="#DejaVuSans-6b" x="963.476562"/>
      <use xlink:href="#DejaVuSans-5b" x="1021.386719"/>
      <use xlink:href="#DejaVuSans-30" x="1060.400391"/>
      <use xlink:href="#DejaVuSans-5d" x="1124.023438"/>
     </g>
    </g>
    <g id="line2d_45">
     <path d="M 262.318405 53.576562 
L 272.318405 53.576562 
L 282.318405 53.576562 
" style="fill: none; stroke: #ff7f0e; stroke-width: 1.5; stroke-linecap: square"/>
    </g>
    <g id="text_21">
     <!-- Network.node[1].lnk[0] -->
     <g transform="translate(290.318405 57.076562)scale(0.1 -0.1)">
      <use xlink:href="#DejaVuSans-4e"/>
      <use xlink:href="#DejaVuSans-65" x="74.804688"/>
      <use xlink:href="#DejaVuSans-74" x="136.328125"/>
      <use xlink:href="#DejaVuSans-77" x="175.537109"/>
      <use xlink:href="#DejaVuSans-6f" x="257.324219"/>
      <use xlink:href="#DejaVuSans-72" x="318.505859"/>
      <use xlink:href="#DejaVuSans-6b" x="359.619141"/>
      <use xlink:href="#DejaVuSans-2e" x="417.529297"/>
      <use xlink:href="#DejaVuSans-6e" x="449.316406"/>
      <use xlink:href="#DejaVuSans-6f" x="512.695312"/>
      <use xlink:href="#DejaVuSans-64" x="573.876953"/>
      <use xlink:href="#DejaVuSans-65" x="637.353516"/>
      <use xlink:href="#DejaVuSans-5b" x="698.876953"/>
      <use xlink:href="#DejaVuSans-31" x="737.890625"/>
      <use xlink:href="#DejaVuSans-5d" x="801.513672"/>
      <use xlink:href="#DejaVuSans-2e" x="840.527344"/>
      <use xlink:href="#DejaVuSans-6c" x="872.314453"/>
      <use xlink:href="#DejaVuSans-6e" x="900.097656"/>
      <use xlink:href="#DejaVuSans-6b" x="963.476562"/>
      <use xlink:href="#DejaVuSans-5b" x="1021.386719"/>
      <use xlink:href="#DejaVuSans-30" x="1060.400391"/>
      <use xlink:href="#DejaVuSans-5d" x="1124.023438"/>
     </g>
    </g>
    <g id="line2d_46">
     <path d="M 262.318405 68.254687 
L 272.318405 68.254687 
L 282.318405 68.254687 
" style="fill: none; stroke: #2ca02c; stroke-width: 1.5; stroke-linecap: square"/>
    </g>
    <g id="text_22">
     <!-- Network.node[2].lnk[0] -->
     <g transform="translate(290.318405 71.754687)scale(0.1 -0.1)">
      <use xlink:href="#DejaVuSans-4e"/>
      <use xlink:href="#DejaVuSans-65" x="74.804688"/>
      <use xlink:href="#DejaVuSans-74" x="136.328125"/>
      <use xlink:href="#DejaVuSans-77" x="175.537109"/>
      <use xlink:href="#DejaVuSans-6f" x="257.324219"/>
      <use xlink:href="#DejaVuSans-72" x="318.505859"/>
      <use xlink:href="#DejaVuSans-6b" x="359.619141"/>
      <use xlink:href="#DejaVuSans-2e" x="417.529297"/>
      <use xlink:href="#DejaVuSans-6e" x="449.316406"/>
      <use xlink:href="#DejaVuSans-6f" x="512.695312"/>
      <use xlink:href="#DejaVuSans-64" x="573.876953"/>
      <use xlink:href="#DejaVuSans-65" x="637.353516"/>
      <use xlink:href="#DejaVuSans-5b" x="698.876953"/>
      <use xlink:href="#DejaVuSans-32" x="737.890625"/>
      <use xlink:href="#DejaVuSans-5d" x="801.513672"/>
      <use xlink:href="#DejaVuSans-2e" x="840.527344"/>
      <use xlink:href="#DejaVuSans-6c" x="872.314453"/>
      <use xlink:href="#DejaVuSans-6e" x="900.097656"/>
      <use xlink:href="#DejaVuSans-6b" x="963.476562"/>
      <use xlink:href="#DejaVuSans-5b" x="1021.386719"/>
      <use xlink:href="#DejaVuSans-30" x="1060.400391"/>
      <use xlink:href="#DejaVuSans-5d" x="1124.023438"/>
     </g>
    </g>
    <g id="line2d_47">
     <path d="M 262.318405 82.932812 
L 272.318405 82.932812 
L 282.318405 82.932812 
" style="fill: none; stroke: #d62728; stroke-width: 1.5; stroke-linecap: square"/>
    </g>
    <g id="text_23">
     <!-- Network.node[2].lnk[1] -->
     <g transform="translate(290.318405 86.432812)scale(0.1 -0.1)">
      <use xlink:href="#DejaVuSans-4e"/>
      <use xlink:href="#DejaVuSans-65" x="74.804688"/>
      <use xlink:href="#DejaVuSans-74" x="136.328125"/>
      <use xlink:href="#DejaVuSans-77" x="175.537109"/>
      <use xlink:href="#DejaVuSans-6f" x="257.324219"/>
      <use xlink:href="#DejaVuSans-72" x="318.505859"/>
      <use xlink:href="#DejaVuSans-6b" x="359.619141"/>
      <use xlink:href="#DejaVuSans-2e" x="417.529297"/>
      <use xlink:href="#DejaVuSans-6e" x="449.316406"/>
      <use xlink:href="#DejaVuSans-6f" x="512.695312"/>
      <use xlink:href="#DejaVuSans-64" x="573.876953"/>
      <use xlink:href="#DejaVuSans-65" x="637.353516"/>
      <use xlink:href="#DejaVuSans-5b" x="698.876953"/>
      <use xlink:href="#DejaVuSans-32" x="737.890625"/>
      <use xlink:href="#DejaVuSans-5d" x="801.513672"/>
      <use xlink:href="#DejaVuSans-2e" x="840.527344"/>
      <use xlink:href="#DejaVuSans-6c" x="872.314453"/>
      <use xlink:href="#DejaVuSans-6e" x="900.097656"/>
      <use xlink:href="#DejaVuSans-6b" x="963.476562"/>
      <use xlink:href="#DejaVuSans-5b" x="1021.386719"/>
      <use xlink:href="#DejaVuSans-31" x="1060.400391"/>
      <use xlink:href="#DejaVuSans-5d" x="1124.023438"/>
     </g>
    </g>
    <g id="line2d_48">
     <path d="M 262.318405 97.610937 
L 272.318405 97.610937 
L 282.318405 97.610937 
" style="fill: none; stroke: #9467bd; stroke-width: 1.5; stroke-linecap: square"/>
    </g>
    <g id="text_24">
     <!-- Network.node[3].lnk[0] -->
     <g transform="translate(290.318405 101.110937)scale(0.1 -0.1)">
      <defs>
       <path id="DejaVuSans-33" d="M 2597 2516 
Q 3050 2419 3304 2112 
Q 3559 1806 3559 1356 
Q 3559 666 3084 287 
Q 2609 -91 1734 -91 
Q 1441 -91 1130 -33 
Q 819 25 488 141 
L 488 750 
Q 750 597 1062 519 
Q 1375 441 1716 441 
Q 2309 441 2620 675 
Q 2931 909 2931 1356 
Q 2931 1769 2642 2001 
Q 2353 2234 1838 2234 
L 1294 2234 
L 1294 2753 
L 1863 2753 
Q 2328 2753 2575 2939 
Q 2822 3125 2822 3475 
Q 2822 3834 2567 4026 
Q 2313 4219 1838 4219 
Q 1578 4219 1281 4162 
Q 984 4106 628 3988 
L 628 4550 
Q 988 4650 1302 4700 
Q 1616 4750 1894 4750 
Q 2613 4750 3031 4423 
Q 3450 4097 3450 3541 
Q 3450 3153 3228 2886 
Q 3006 2619 2597 2516 
z
" transform="scale(0.015625)"/>
      </defs>
      <use xlink:href="#DejaVuSans-4e"/>
      <use xlink:href="#DejaVuSans-65" x="74.804688"/>
      <use xlink:href="#DejaVuSans-74" x="136.328125"/>
      <use xlink:href="#DejaVuSans-77" x="175.537109"/>
      <use xlink:href="#DejaVuSans-6f" x="257.324219"/>
      <use xlink:href="#DejaVuSans-72" x="318.505859"/>
      <use xlink:href="#DejaVuSans-6b" x="359.619141"/>
      <use xlink:href="#DejaVuSans-2e" x="417.529297"/>
      <use xlink:href="#DejaVuSans-6e" x="449.316406"/>
      <use xlink:href="#DejaVuSans-6f" x="512.695312"/>
      <use xlink:href="#DejaVuSans-64" x="573.876953"/>
      <use xlink:href="#DejaVuSans-65" x="637.353516"/>
      <use xlink:href="#DejaVuSans-5b" x="698.876953"/>
      <use xlink:href="#DejaVuSans-33" x="737.890625"/>
      <use xlink:href="#DejaVuSans-5d" x="801.513672"/>
      <use xlink:href="#DejaVuSans-2e" x="840.527344"/>
      <use xlink:href="#DejaVuSans-6c" x="872.314453"/>
      <use xlink:href="#DejaVuSans-6e" x="900.097656"/>
      <use xlink:href="#DejaVuSans-6b" x="963.476562"/>
      <use xlink:href="#DejaVuSans-5b" x="1021.386719"/>
      <use xlink:href="#DejaVuSans-30" x="1060.400391"/>
      <use xlink:href="#DejaVuSans-5d" x="1124.023438"/>
     </g>
    </g>
    <g id="line2d_49">
     <path d="M 262.318405 112.289062 
L 272.318405 112.289062 
L 282.318405 112.289062 
" style="fill: none; stroke: #8c564b; stroke-width: 1.5; stroke-linecap: square"/>
    </g>
    <g id="text_25">
     <!-- Network.node[3].lnk[1] -->
     <g transform="translate(290.318405 115.789062)scale(0.1 -0.1)">
      <use xlink:href="#DejaVuSans-4e"/>
      <use xlink:href="#DejaVuSans-65" x="74.804688"/>
      <use xlink:href="#DejaVuSans-74" x="136.328125"/>
      <use xlink:href="#DejaVuSans-77" x="175.537109"/>
      <use xlink:href="#DejaVuSans-6f" x="257.324219"/>
      <use xlink:href="#DejaVuSans-72" x="318.505859"/>
      <use xlink:href="#DejaVuSans-6b" x="359.619141"/>
      <use xlink:href="#DejaVuSans-2e" x="417.529297"/>
      <use xlink:href="#DejaVuSans-6e" x="449.316406"/>
      <use xlink:href="#DejaVuSans-6f" x="512.695312"/>
      <use xlink:href="#DejaVuSans-64" x="573.876953"/>
      <use xlink:href="#DejaVuSans-65" x="637.353516"/>
      <use xlink:href="#DejaVuSans-5b" x="698.876953"/>
      <use xlink:href="#DejaVuSans-33" x="737.890625"/>
      <use xlink:href="#DejaVuSans-5d" x="801.513672"/>
      <use xlink:href="#DejaVuSans-2e" x="840.527344"/>
      <use xlink:href="#DejaVuSans-6c" x="872.314453"/>
      <use xlink:href="#DejaVuSans-6e" x="900.097656"/>
      <use xlink:href="#DejaVuSans-6b" x="963.476562"/>
      <use xlink:href="#DejaVuSans-5b" x="1021.386719"/>
      <use xlink:href="#DejaVuSans-31" x="1060.400391"/>
      <use xlink:href="#DejaVuSans-5d" x="1124.023438"/>
     </g>
    </g>
    <g id="line2d_50">
     <path d="M 262.318405 126.967187 
L 272.318405 126.967187 
L 282.318405 126.967187 
" style="fill: none; stroke: #e377c2; stroke-width: 1.5; stroke-linecap: square"/>
    </g>
    <g id="text_26">
     <!-- Network.node[4].lnk[0] -->
     <g transform="translate(290.318405 130.467187)scale(0.1 -0.1)">
      <use xlink:href="#DejaVuSans-4e"/>
      <use xlink:href="#DejaVuSans-65" x="74.804688"/>
      <use xlink:href="#DejaVuSans-74" x="136.328125"/>
      <use xlink:href="#DejaVuSans-77" x="175.537109"/>
      <use xlink:href="#DejaVuSans-6f" x="257.324219"/>
      <use xlink:href="#DejaVuSans-72" x="318.505859"/>
      <use xlink:href="#DejaVuSans-6b" x="359.619141"/>
      <use xlink:href="#DejaVuSans-2e" x="417.529297"/>
      <use xlink:href="#DejaVuSans-6e" x="449.316406"/>
      <use xlink:href="#DejaVuSans-6f" x="512.695312"/>
      <use xlink:href="#DejaVuSans-64" x="573.876953"/>
      <use xlink:href="#DejaVuSans-65" x="637.353516"/>
      <use xlink:href="#DejaVuSans-5b" x="698.876953"/>
      <use xlink:href="#DejaVuSans-34" x="737.890625"/>
      <use xlink:href="#DejaVuSans-5d" x="801.513672"/>
      <use xlink:href="#DejaVuSans-2e" x="840.527344"/>
      <use xlink:href="#DejaVuSans-6c" x="872.314453"/>
      <use xlink:href="#DejaVuSans-6e" x="900.097656"/>
      <use xlink:href="#DejaVuSans-6b" x="963.476562"/>
      <use xlink:href="#DejaVuSans-5b" x="1021.386719"/>
      <use xlink:href="#DejaVuSans-30" x="1060.400391"/>
      <use xlink:href="#DejaVuSans-5d" x="1124.023438"/>
     </g>
    </g>
    <g id="line2d_51">
     <path d="M 262.318405 141.645312 
L 272.318405 141.645312 
L 282.318405 141.645312 
" style="fill: none; stroke: #7f7f7f; stroke-width: 1.5; stroke-linecap: square"/>
    </g>
    <g id="text_27">
     <!-- Network.node[4].lnk[1] -->
     <g transform="translate(290.318405 145.145312)scale(0.1 -0.1)">
      <use xlink:href="#DejaVuSans-4e"/>
      <use xlink:href="#DejaVuSans-65" x="74.804688"/>
      <use xlink:href="#DejaVuSans-74" x="136.328125"/>
      <use xlink:href="#DejaVuSans-77" x="175.537109"/>
      <use xlink:href="#DejaVuSans-6f" x="257.324219"/>
      <use xlink:href="#DejaVuSans-72" x="318.505859"/>
      <use xlink:href="#DejaVuSans-6b" x="359.619141"/>
      <use xlink:href="#DejaVuSans-2e" x="417.529297"/>
      <use xlink:href="#DejaVuSans-6e" x="449.316406"/>
      <use xlink:href="#DejaVuSans-6f" x="512.695312"/>
      <use xlink:href="#DejaVuSans-64" x="573.876953"/>
      <use xlink:href="#DejaVuSans-65" x="637.353516"/>
      <use xlink:href="#DejaVuSans-5b" x="698.876953"/>
      <use xlink:href="#DejaVuSans-34" x="737.890625"/>
      <use xlink:href="#DejaVuSans-5d" x="801.513672"/>
      <use xlink:href="#DejaVuSans-2e" x="840.527344"/>
      <use xlink:href="#DejaVuSans-6c" x="872.314453"/>
      <use xlink:href="#DejaVuSans-6e" x="900.097656"/>
      <use xlink:href="#DejaVuSans-6b" x="963.476562"/>
      <use xlink:href="#DejaVuSans-5b" x="1021.386719"/>
      <use xlink:href="#DejaVuSans-31" x="1060.400391"/>
      <use xlink:href="#DejaVuSans-5d" x="1124.023438"/>
     </g>
    </g>
    <g id="line2d_52">
     <path d="M 262.318405 156.323437 
L 272.318405 156.323437 
L 282.318405 156.323437 
" style="fill: none; stroke: #bcbd22; stroke-width: 1.5; stroke-linecap: square"/>
    </g>
    <g id="text_28">
     <!-- Network.node[5].lnk[0] -->
     <g transform="translate(290.318405 159.823437)scale(0.1 -0.1)">
      <use xlink:href="#DejaVuSans-4e"/>
      <use xlink:href="#DejaVuSans-65" x="74.804688"/>
      <use xlink:href="#DejaVuSans-74" x="136.328125"/>
      <use xlink:href="#DejaVuSans-77" x="175.537109"/>
      <use xlink:href="#DejaVuSans-6f" x="257.324219"/>
      <use xlink:href="#DejaVuSans-72" x="318.505859"/>
      <use xlink:href="#DejaVuSans-6b" x="359.619141"/>
      <use xlink:href="#DejaVuSans-2e" x="417.529297"/>
      <use xlink:href="#DejaVuSans-6e" x="449.316406"/>
      <use xlink:href="#DejaVuSans-6f" x="512.695312"/>
      <use xlink:href="#DejaVuSans-64" x="573.876953"/>
      <use xlink:href="#DejaVuSans-65" x="637.353516"/>
      <use xlink:href="#DejaVuSans-5b" x="698.876953"/>
      <use xlink:href="#DejaVuSans-35" x="737.890625"/>
      <use xlink:href="#DejaVuSans-5d" x="801.513672"/>
      <use xlink:href="#DejaVuSans-2e" x="840.527344"/>
      <use xlink:href="#DejaVuSans-6c" x="872.314453"/>
      <use xlink:href="#DejaVuSans-6e" x="900.097656"/>
      <use xlink:href="#DejaVuSans-6b" x="963.476562"/>
      <use xlink:href="#DejaVuSans-5b" x="1021.386719"/>
      <use xlink:href="#DejaVuSans-30" x="1060.400391"/>
      <use xlink:href="#DejaVuSans-5d" x="1124.023438"/>
     </g>
    </g>
    <g id="line2d_53">
     <path d="M 262.318405 171.001562 
L 272.318405 171.001562 
L 282.318405 171.001562 
" style="fill: none; stroke: #17becf; stroke-width: 1.5; stroke-linecap: square"/>
    </g>
    <g id="text_29">
     <!-- Network.node[6].lnk[0] -->
     <g transform="translate(290.318405 174.501562)scale(0.1 -0.1)">
      <use xlink:href="#DejaVuSans-4e"/>
      <use xlink:href="#DejaVuSans-65" x="74.804688"/>
      <use xlink:href="#DejaVuSans-74" x="136.328125"/>
      <use xlink:href="#DejaVuSans-77" x="175.537109"/>
      <use xlink:href="#DejaVuSans-6f" x="257.324219"/>
      <use xlink:href="#DejaVuSans-72" x="318.505859"/>
      <use xlink:href="#DejaVuSans-6b" x="359.619141"/>
      <use xlink:href="#DejaVuSans-2e" x="417.529297"/>
      <use xlink:href="#DejaVuSans-6e" x="449.316406"/>
      <use xlink:href="#DejaVuSans-6f" x="512.695312"/>
      <use xlink:href="#DejaVuSans-64" x="573.876953"/>
      <use xlink:href="#DejaVuSans-65" x="637.353516"/>
      <use xlink:href="#DejaVuSans-5b" x="698.876953"/>
      <use xlink:href="#DejaVuSans-36" x="737.890625"/>
      <use xlink:href="#DejaVuSans-5d" x="801.513672"/>
      <use xlink:href="#DejaVuSans-2e" x="840.527344"/>
      <use xlink:href="#DejaVuSans-6c" x="872.314453"/>
      <use xlink:href="#DejaVuSans-6e" x="900.097656"/>
      <use xlink:href="#DejaVuSans-6b" x="963.476562"/>
      <use xlink:href="#DejaVuSans-5b" x="1021.386719"/>
      <use xlink:href="#DejaVuSans-30" x="1060.400391"/>
      <use xlink:href="#DejaVuSans-5d" x="1124.023438"/>
     </g>
    </g>
    <g id="line2d_54">
     <path d="M 262.318405 185.679687 
L 272.318405 185.679687 
L 282.318405 185.679687 
" style="fill: none; stroke: #1f77b4; stroke-width: 1.5; stroke-linecap: square"/>
    </g>
    <g id="text_30">
     <!-- Network.node[7].lnk[0] -->
     <g transform="translate(290.318405 189.179687)scale(0.1 -0.1)">
      <use xlink:href="#DejaVuSans-4e"/>
      <use xlink:href="#DejaVuSans-65" x="74.804688"/>
      <use xlink:href="#DejaVuSans-74" x="136.328125"/>
      <use xlink:href="#DejaVuSans-77" x="175.537109"/>
      <use xlink:href="#DejaVuSans-6f" x="257.324219"/>
      <use xlink:href="#DejaVuSans-72" x="318.505859"/>
      <use xlink:href="#DejaVuSans-6b" x="359.619141"/>
      <use xlink:href="#DejaVuSans-2e" x="417.529297"/>
      <use xlink:href="#DejaVuSans-6e" x="449.316406"/>
      <use xlink:href="#DejaVuSans-6f" x="512.695312"/>
      <use xlink:href="#DejaVuSans-64" x="573.876953"/>
      <use xlink:href="#DejaVuSans-65" x="637.353516"/>
      <use xlink:href="#DejaVuSans-5b" x="698.876953"/>
      <use xlink:href="#DejaVuSans-37" x="737.890625"/>
      <use xlink:href="#DejaVuSans-5d" x="801.513672"/>
      <use xlink:href="#DejaVuSans-2e" x="840.527344"/>
      <use xlink:href="#DejaVuSans-6c" x="872.314453"/>
      <use xlink:href="#DejaVuSans-6e" x="900.097656"/>
      <use xlink:href="#DejaVuSans-6b" x="963.476562"/>
      <use xlink:href="#DejaVuSans-5b" x="1021.386719"/>
      <use xlink:href="#DejaVuSans-30" x="1060.400391"/>
      <use xlink:href="#DejaVuSans-5d" x="1124.023438"/>
     </g>
    </g>
   </g>
  </g>
 </g>
 <defs>
  <clipPath id="pceec0393b4">
   <rect x="44.39375" y="25.8" width="371.229342" height="220.9"/>
  </clipPath>
 </defs>
</svg>
