<?xml version="1.0" encoding="utf-8" standalone="no"?>
<!DOCTYPE svg PUBLIC "-//W3C//DTD SVG 1.1//EN"
  "http://www.w3.org/Graphics/SVG/1.1/DTD/svg11.dtd">
<svg xmlns:xlink="http://www.w3.org/1999/xlink" width="432pt" height="288pt" viewBox="0 0 432 288" xmlns="http://www.w3.org/2000/svg" version="1.1">
 <metadata>
  <rdf:RDF xmlns:dc="http://purl.org/dc/elements/1.1/" xmlns:cc="http://creativecommons.org/ns#" xmlns:rdf="http://www.w3.org/1999/02/22-rdf-syntax-ns#">
   <cc:Work>
    <dc:type rdf:resource="http://purl.org/dc/dcmitype/StillImage"/>
    <dc:date>2022-06-21T11:47:01.663399</dc:date>
    <dc:format>image/svg+xml</dc:format>
    <dc:creator>
     <cc:Agent>
      <dc:title>omnetpp.scave 6.0.0; Matplotlib 3.5.1 w/ backend GTK3Agg; Pandas 1.4.2; Python 3.8.10; Linux-5.4.0-109-generic-x86_64-with-glibc2.29</dc:title>
     </cc:Agent>
    </dc:creator>
   </cc:Work>
  </rdf:RDF>
 </metadata>
 <defs>
  <style type="text/css">*{stroke-linejoin: round; stroke-linecap: butt}</style>
 </defs>
 <g id="figure_1">
  <g id="patch_1">
   <path d="M 0 288 
L 432 288 
L 432 0 
L 0 0 
z
" style="fill: #ffffff"/>
  </g>
  <g id="axes_1">
   <g id="patch_2">
    <path d="M 50.76875 246.7 
L 416.088414 246.7 
L 416.088414 25.8 
L 50.76875 25.8 
z
" style="fill: #ffffff"/>
   </g>
   <g id="matplotlib.axis_1">
    <g id="xtick_1">
     <g id="line2d_1">
      <path d="M 50.76875 246.7 
L 50.76875 25.8 
" clip-path="url(#p84b27909d0)" style="fill: none; stroke: #b0b0b0; stroke-width: 0.8; stroke-linecap: square"/>
     </g>
     <g id="line2d_2">
      <defs>
       <path id="m25947ed904" d="M 0 0 
L 0 3.5 
" style="stroke: #000000; stroke-width: 0.8"/>
      </defs>
      <g>
       <use xlink:href="#m25947ed904" x="50.76875" y="246.7" style="stroke: #000000; stroke-width: 0.8"/>
      </g>
     </g>
     <g id="text_1">
      <!-- 0 -->
      <g transform="translate(47.5875 261.298437)scale(0.1 -0.1)">
       <defs>
        <path id="DejaVuSans-30" d="M 2034 4250 
Q 1547 4250 1301 3770 
Q 1056 3291 1056 2328 
Q 1056 1369 1301 889 
Q 1547 409 2034 409 
Q 2525 409 2770 889 
Q 3016 1369 3016 2328 
Q 3016 3291 2770 3770 
Q 2525 4250 2034 4250 
z
M 2034 4750 
Q 2819 4750 3233 4129 
Q 3647 3509 3647 2328 
Q 3647 1150 3233 529 
Q 2819 -91 2034 -91 
Q 1250 -91 836 529 
Q 422 1150 422 2328 
Q 422 3509 836 4129 
Q 1250 4750 2034 4750 
z
" transform="scale(0.015625)"/>
       </defs>
       <use xlink:href="#DejaVuSans-30"/>
      </g>
     </g>
    </g>
    <g id="xtick_2">
     <g id="line2d_3">
      <path d="M 95.879243 246.7 
L 95.879243 25.8 
" clip-path="url(#p84b27909d0)" style="fill: none; stroke: #b0b0b0; stroke-width: 0.8; stroke-linecap: square"/>
     </g>
     <g id="line2d_4">
      <g>
       <use xlink:href="#m25947ed904" x="95.879243" y="246.7" style="stroke: #000000; stroke-width: 0.8"/>
      </g>
     </g>
     <g id="text_2">
      <!-- 25 -->
      <g transform="translate(89.516743 261.298437)scale(0.1 -0.1)">
       <defs>
        <path id="DejaVuSans-32" d="M 1228 531 
L 3431 531 
L 3431 0 
L 469 0 
L 469 531 
Q 828 903 1448 1529 
Q 2069 2156 2228 2338 
Q 2531 2678 2651 2914 
Q 2772 3150 2772 3378 
Q 2772 3750 2511 3984 
Q 2250 4219 1831 4219 
Q 1534 4219 1204 4116 
Q 875 4013 500 3803 
L 500 4441 
Q 881 4594 1212 4672 
Q 1544 4750 1819 4750 
Q 2544 4750 2975 4387 
Q 3406 4025 3406 3419 
Q 3406 3131 3298 2873 
Q 3191 2616 2906 2266 
Q 2828 2175 2409 1742 
Q 1991 1309 1228 531 
z
" transform="scale(0.015625)"/>
        <path id="DejaVuSans-35" d="M 691 4666 
L 3169 4666 
L 3169 4134 
L 1269 4134 
L 1269 2991 
Q 1406 3038 1543 3061 
Q 1681 3084 1819 3084 
Q 2600 3084 3056 2656 
Q 3513 2228 3513 1497 
Q 3513 744 3044 326 
Q 2575 -91 1722 -91 
Q 1428 -91 1123 -41 
Q 819 9 494 109 
L 494 744 
Q 775 591 1075 516 
Q 1375 441 1709 441 
Q 2250 441 2565 725 
Q 2881 1009 2881 1497 
Q 2881 1984 2565 2268 
Q 2250 2553 1709 2553 
Q 1456 2553 1204 2497 
Q 953 2441 691 2322 
L 691 4666 
z
" transform="scale(0.015625)"/>
       </defs>
       <use xlink:href="#DejaVuSans-32"/>
       <use xlink:href="#DejaVuSans-35" x="63.623047"/>
      </g>
     </g>
    </g>
    <g id="xtick_3">
     <g id="line2d_5">
      <path d="M 140.989735 246.7 
L 140.989735 25.8 
" clip-path="url(#p84b27909d0)" style="fill: none; stroke: #b0b0b0; stroke-width: 0.8; stroke-linecap: square"/>
     </g>
     <g id="line2d_6">
      <g>
       <use xlink:href="#m25947ed904" x="140.989735" y="246.7" style="stroke: #000000; stroke-width: 0.8"/>
      </g>
     </g>
     <g id="text_3">
      <!-- 50 -->
      <g transform="translate(134.627235 261.298437)scale(0.1 -0.1)">
       <use xlink:href="#DejaVuSans-35"/>
       <use xlink:href="#DejaVuSans-30" x="63.623047"/>
      </g>
     </g>
    </g>
    <g id="xtick_4">
     <g id="line2d_7">
      <path d="M 186.100228 246.7 
L 186.100228 25.8 
" clip-path="url(#p84b27909d0)" style="fill: none; stroke: #b0b0b0; stroke-width: 0.8; stroke-linecap: square"/>
     </g>
     <g id="line2d_8">
      <g>
       <use xlink:href="#m25947ed904" x="186.100228" y="246.7" style="stroke: #000000; stroke-width: 0.8"/>
      </g>
     </g>
     <g id="text_4">
      <!-- 75 -->
      <g transform="translate(179.737728 261.298437)scale(0.1 -0.1)">
       <defs>
        <path id="DejaVuSans-37" d="M 525 4666 
L 3525 4666 
L 3525 4397 
L 1831 0 
L 1172 0 
L 2766 4134 
L 525 4134 
L 525 4666 
z
" transform="scale(0.015625)"/>
       </defs>
       <use xlink:href="#DejaVuSans-37"/>
       <use xlink:href="#DejaVuSans-35" x="63.623047"/>
      </g>
     </g>
    </g>
    <g id="xtick_5">
     <g id="line2d_9">
      <path d="M 231.21072 246.7 
L 231.21072 25.8 
" clip-path="url(#p84b27909d0)" style="fill: none; stroke: #b0b0b0; stroke-width: 0.8; stroke-linecap: square"/>
     </g>
     <g id="line2d_10">
      <g>
       <use xlink:href="#m25947ed904" x="231.21072" y="246.7" style="stroke: #000000; stroke-width: 0.8"/>
      </g>
     </g>
     <g id="text_5">
      <!-- 100 -->
      <g transform="translate(221.66697 261.298437)scale(0.1 -0.1)">
       <defs>
        <path id="DejaVuSans-31" d="M 794 531 
L 1825 531 
L 1825 4091 
L 703 3866 
L 703 4441 
L 1819 4666 
L 2450 4666 
L 2450 531 
L 3481 531 
L 3481 0 
L 794 0 
L 794 531 
z
" transform="scale(0.015625)"/>
       </defs>
       <use xlink:href="#DejaVuSans-31"/>
       <use xlink:href="#DejaVuSans-30" x="63.623047"/>
       <use xlink:href="#DejaVuSans-30" x="127.246094"/>
      </g>
     </g>
    </g>
    <g id="xtick_6">
     <g id="line2d_11">
      <path d="M 276.321213 246.7 
L 276.321213 25.8 
" clip-path="url(#p84b27909d0)" style="fill: none; stroke: #b0b0b0; stroke-width: 0.8; stroke-linecap: square"/>
     </g>
     <g id="line2d_12">
      <g>
       <use xlink:href="#m25947ed904" x="276.321213" y="246.7" style="stroke: #000000; stroke-width: 0.8"/>
      </g>
     </g>
     <g id="text_6">
      <!-- 125 -->
      <g transform="translate(266.777463 261.298437)scale(0.1 -0.1)">
       <use xlink:href="#DejaVuSans-31"/>
       <use xlink:href="#DejaVuSans-32" x="63.623047"/>
       <use xlink:href="#DejaVuSans-35" x="127.246094"/>
      </g>
     </g>
    </g>
    <g id="xtick_7">
     <g id="line2d_13">
      <path d="M 321.431705 246.7 
L 321.431705 25.8 
" clip-path="url(#p84b27909d0)" style="fill: none; stroke: #b0b0b0; stroke-width: 0.8; stroke-linecap: square"/>
     </g>
     <g id="line2d_14">
      <g>
       <use xlink:href="#m25947ed904" x="321.431705" y="246.7" style="stroke: #000000; stroke-width: 0.8"/>
      </g>
     </g>
     <g id="text_7">
      <!-- 150 -->
      <g transform="translate(311.887955 261.298437)scale(0.1 -0.1)">
       <use xlink:href="#DejaVuSans-31"/>
       <use xlink:href="#DejaVuSans-35" x="63.623047"/>
       <use xlink:href="#DejaVuSans-30" x="127.246094"/>
      </g>
     </g>
    </g>
    <g id="xtick_8">
     <g id="line2d_15">
      <path d="M 366.542198 246.7 
L 366.542198 25.8 
" clip-path="url(#p84b27909d0)" style="fill: none; stroke: #b0b0b0; stroke-width: 0.8; stroke-linecap: square"/>
     </g>
     <g id="line2d_16">
      <g>
       <use xlink:href="#m25947ed904" x="366.542198" y="246.7" style="stroke: #000000; stroke-width: 0.8"/>
      </g>
     </g>
     <g id="text_8">
      <!-- 175 -->
      <g transform="translate(356.998448 261.298437)scale(0.1 -0.1)">
       <use xlink:href="#DejaVuSans-31"/>
       <use xlink:href="#DejaVuSans-37" x="63.623047"/>
       <use xlink:href="#DejaVuSans-35" x="127.246094"/>
      </g>
     </g>
    </g>
    <g id="xtick_9">
     <g id="line2d_17">
      <path d="M 411.65269 246.7 
L 411.65269 25.8 
" clip-path="url(#p84b27909d0)" style="fill: none; stroke: #b0b0b0; stroke-width: 0.8; stroke-linecap: square"/>
     </g>
     <g id="line2d_18">
      <g>
       <use xlink:href="#m25947ed904" x="411.65269" y="246.7" style="stroke: #000000; stroke-width: 0.8"/>
      </g>
     </g>
     <g id="text_9">
      <!-- 200 -->
      <g transform="translate(402.10894 261.298437)scale(0.1 -0.1)">
       <use xlink:href="#DejaVuSans-32"/>
       <use xlink:href="#DejaVuSans-30" x="63.623047"/>
       <use xlink:href="#DejaVuSans-30" x="127.246094"/>
      </g>
     </g>
    </g>
    <g id="text_10">
     <!-- Tiempo -->
     <g transform="translate(214.961394 274.976562)scale(0.1 -0.1)">
      <defs>
       <path id="DejaVuSans-54" d="M -19 4666 
L 3928 4666 
L 3928 4134 
L 2272 4134 
L 2272 0 
L 1638 0 
L 1638 4134 
L -19 4134 
L -19 4666 
z
" transform="scale(0.015625)"/>
       <path id="DejaVuSans-69" d="M 603 3500 
L 1178 3500 
L 1178 0 
L 603 0 
L 603 3500 
z
M 603 4863 
L 1178 4863 
L 1178 4134 
L 603 4134 
L 603 4863 
z
" transform="scale(0.015625)"/>
       <path id="DejaVuSans-65" d="M 3597 1894 
L 3597 1613 
L 953 1613 
Q 991 1019 1311 708 
Q 1631 397 2203 397 
Q 2534 397 2845 478 
Q 3156 559 3463 722 
L 3463 178 
Q 3153 47 2828 -22 
Q 2503 -91 2169 -91 
Q 1331 -91 842 396 
Q 353 884 353 1716 
Q 353 2575 817 3079 
Q 1281 3584 2069 3584 
Q 2775 3584 3186 3129 
Q 3597 2675 3597 1894 
z
M 3022 2063 
Q 3016 2534 2758 2815 
Q 2500 3097 2075 3097 
Q 1594 3097 1305 2825 
Q 1016 2553 972 2059 
L 3022 2063 
z
" transform="scale(0.015625)"/>
       <path id="DejaVuSans-6d" d="M 3328 2828 
Q 3544 3216 3844 3400 
Q 4144 3584 4550 3584 
Q 5097 3584 5394 3201 
Q 5691 2819 5691 2113 
L 5691 0 
L 5113 0 
L 5113 2094 
Q 5113 2597 4934 2840 
Q 4756 3084 4391 3084 
Q 3944 3084 3684 2787 
Q 3425 2491 3425 1978 
L 3425 0 
L 2847 0 
L 2847 2094 
Q 2847 2600 2669 2842 
Q 2491 3084 2119 3084 
Q 1678 3084 1418 2786 
Q 1159 2488 1159 1978 
L 1159 0 
L 581 0 
L 581 3500 
L 1159 3500 
L 1159 2956 
Q 1356 3278 1631 3431 
Q 1906 3584 2284 3584 
Q 2666 3584 2933 3390 
Q 3200 3197 3328 2828 
z
" transform="scale(0.015625)"/>
       <path id="DejaVuSans-70" d="M 1159 525 
L 1159 -1331 
L 581 -1331 
L 581 3500 
L 1159 3500 
L 1159 2969 
Q 1341 3281 1617 3432 
Q 1894 3584 2278 3584 
Q 2916 3584 3314 3078 
Q 3713 2572 3713 1747 
Q 3713 922 3314 415 
Q 2916 -91 2278 -91 
Q 1894 -91 1617 61 
Q 1341 213 1159 525 
z
M 3116 1747 
Q 3116 2381 2855 2742 
Q 2594 3103 2138 3103 
Q 1681 3103 1420 2742 
Q 1159 2381 1159 1747 
Q 1159 1113 1420 752 
Q 1681 391 2138 391 
Q 2594 391 2855 752 
Q 3116 1113 3116 1747 
z
" transform="scale(0.015625)"/>
       <path id="DejaVuSans-6f" d="M 1959 3097 
Q 1497 3097 1228 2736 
Q 959 2375 959 1747 
Q 959 1119 1226 758 
Q 1494 397 1959 397 
Q 2419 397 2687 759 
Q 2956 1122 2956 1747 
Q 2956 2369 2687 2733 
Q 2419 3097 1959 3097 
z
M 1959 3584 
Q 2709 3584 3137 3096 
Q 3566 2609 3566 1747 
Q 3566 888 3137 398 
Q 2709 -91 1959 -91 
Q 1206 -91 779 398 
Q 353 888 353 1747 
Q 353 2609 779 3096 
Q 1206 3584 1959 3584 
z
" transform="scale(0.015625)"/>
      </defs>
      <use xlink:href="#DejaVuSans-54"/>
      <use xlink:href="#DejaVuSans-69" x="57.958984"/>
      <use xlink:href="#DejaVuSans-65" x="85.742188"/>
      <use xlink:href="#DejaVuSans-6d" x="147.265625"/>
      <use xlink:href="#DejaVuSans-70" x="244.677734"/>
      <use xlink:href="#DejaVuSans-6f" x="308.154297"/>
     </g>
    </g>
   </g>
   <g id="matplotlib.axis_2">
    <g id="ytick_1">
     <g id="line2d_19">
      <path d="M 50.76875 246.7 
L 416.088414 246.7 
" clip-path="url(#p84b27909d0)" style="fill: none; stroke: #b0b0b0; stroke-width: 0.8; stroke-linecap: square"/>
     </g>
     <g id="line2d_20">
      <defs>
       <path id="mf6cdc54e89" d="M 0 0 
L -3.5 0 
" style="stroke: #000000; stroke-width: 0.8"/>
      </defs>
      <g>
       <use xlink:href="#mf6cdc54e89" x="50.76875" y="246.7" style="stroke: #000000; stroke-width: 0.8"/>
      </g>
     </g>
     <g id="text_11">
      <!-- 0 -->
      <g transform="translate(37.40625 250.499219)scale(0.1 -0.1)">
       <use xlink:href="#DejaVuSans-30"/>
      </g>
     </g>
    </g>
    <g id="ytick_2">
     <g id="line2d_21">
      <path d="M 50.76875 221.642511 
L 416.088414 221.642511 
" clip-path="url(#p84b27909d0)" style="fill: none; stroke: #b0b0b0; stroke-width: 0.8; stroke-linecap: square"/>
     </g>
     <g id="line2d_22">
      <g>
       <use xlink:href="#mf6cdc54e89" x="50.76875" y="221.642511" style="stroke: #000000; stroke-width: 0.8"/>
      </g>
     </g>
     <g id="text_12">
      <!-- 25 -->
      <g transform="translate(31.04375 225.44173)scale(0.1 -0.1)">
       <use xlink:href="#DejaVuSans-32"/>
       <use xlink:href="#DejaVuSans-35" x="63.623047"/>
      </g>
     </g>
    </g>
    <g id="ytick_3">
     <g id="line2d_23">
      <path d="M 50.76875 196.585022 
L 416.088414 196.585022 
" clip-path="url(#p84b27909d0)" style="fill: none; stroke: #b0b0b0; stroke-width: 0.8; stroke-linecap: square"/>
     </g>
     <g id="line2d_24">
      <g>
       <use xlink:href="#mf6cdc54e89" x="50.76875" y="196.585022" style="stroke: #000000; stroke-width: 0.8"/>
      </g>
     </g>
     <g id="text_13">
      <!-- 50 -->
      <g transform="translate(31.04375 200.384241)scale(0.1 -0.1)">
       <use xlink:href="#DejaVuSans-35"/>
       <use xlink:href="#DejaVuSans-30" x="63.623047"/>
      </g>
     </g>
    </g>
    <g id="ytick_4">
     <g id="line2d_25">
      <path d="M 50.76875 171.527533 
L 416.088414 171.527533 
" clip-path="url(#p84b27909d0)" style="fill: none; stroke: #b0b0b0; stroke-width: 0.8; stroke-linecap: square"/>
     </g>
     <g id="line2d_26">
      <g>
       <use xlink:href="#mf6cdc54e89" x="50.76875" y="171.527533" style="stroke: #000000; stroke-width: 0.8"/>
      </g>
     </g>
     <g id="text_14">
      <!-- 75 -->
      <g transform="translate(31.04375 175.326752)scale(0.1 -0.1)">
       <use xlink:href="#DejaVuSans-37"/>
       <use xlink:href="#DejaVuSans-35" x="63.623047"/>
      </g>
     </g>
    </g>
    <g id="ytick_5">
     <g id="line2d_27">
      <path d="M 50.76875 146.470044 
L 416.088414 146.470044 
" clip-path="url(#p84b27909d0)" style="fill: none; stroke: #b0b0b0; stroke-width: 0.8; stroke-linecap: square"/>
     </g>
     <g id="line2d_28">
      <g>
       <use xlink:href="#mf6cdc54e89" x="50.76875" y="146.470044" style="stroke: #000000; stroke-width: 0.8"/>
      </g>
     </g>
     <g id="text_15">
      <!-- 100 -->
      <g transform="translate(24.68125 150.269263)scale(0.1 -0.1)">
       <use xlink:href="#DejaVuSans-31"/>
       <use xlink:href="#DejaVuSans-30" x="63.623047"/>
       <use xlink:href="#DejaVuSans-30" x="127.246094"/>
      </g>
     </g>
    </g>
    <g id="ytick_6">
     <g id="line2d_29">
      <path d="M 50.76875 121.412555 
L 416.088414 121.412555 
" clip-path="url(#p84b27909d0)" style="fill: none; stroke: #b0b0b0; stroke-width: 0.8; stroke-linecap: square"/>
     </g>
     <g id="line2d_30">
      <g>
       <use xlink:href="#mf6cdc54e89" x="50.76875" y="121.412555" style="stroke: #000000; stroke-width: 0.8"/>
      </g>
     </g>
     <g id="text_16">
      <!-- 125 -->
      <g transform="translate(24.68125 125.211773)scale(0.1 -0.1)">
       <use xlink:href="#DejaVuSans-31"/>
       <use xlink:href="#DejaVuSans-32" x="63.623047"/>
       <use xlink:href="#DejaVuSans-35" x="127.246094"/>
      </g>
     </g>
    </g>
    <g id="ytick_7">
     <g id="line2d_31">
      <path d="M 50.76875 96.355066 
L 416.088414 96.355066 
" clip-path="url(#p84b27909d0)" style="fill: none; stroke: #b0b0b0; stroke-width: 0.8; stroke-linecap: square"/>
     </g>
     <g id="line2d_32">
      <g>
       <use xlink:href="#mf6cdc54e89" x="50.76875" y="96.355066" style="stroke: #000000; stroke-width: 0.8"/>
      </g>
     </g>
     <g id="text_17">
      <!-- 150 -->
      <g transform="translate(24.68125 100.154284)scale(0.1 -0.1)">
       <use xlink:href="#DejaVuSans-31"/>
       <use xlink:href="#DejaVuSans-35" x="63.623047"/>
       <use xlink:href="#DejaVuSans-30" x="127.246094"/>
      </g>
     </g>
    </g>
    <g id="ytick_8">
     <g id="line2d_33">
      <path d="M 50.76875 71.297577 
L 416.088414 71.297577 
" clip-path="url(#p84b27909d0)" style="fill: none; stroke: #b0b0b0; stroke-width: 0.8; stroke-linecap: square"/>
     </g>
     <g id="line2d_34">
      <g>
       <use xlink:href="#mf6cdc54e89" x="50.76875" y="71.297577" style="stroke: #000000; stroke-width: 0.8"/>
      </g>
     </g>
     <g id="text_18">
      <!-- 175 -->
      <g transform="translate(24.68125 75.096795)scale(0.1 -0.1)">
       <use xlink:href="#DejaVuSans-31"/>
       <use xlink:href="#DejaVuSans-37" x="63.623047"/>
       <use xlink:href="#DejaVuSans-35" x="127.246094"/>
      </g>
     </g>
    </g>
    <g id="ytick_9">
     <g id="line2d_35">
      <path d="M 50.76875 46.240088 
L 416.088414 46.240088 
" clip-path="url(#p84b27909d0)" style="fill: none; stroke: #b0b0b0; stroke-width: 0.8; stroke-linecap: square"/>
     </g>
     <g id="line2d_36">
      <g>
       <use xlink:href="#mf6cdc54e89" x="50.76875" y="46.240088" style="stroke: #000000; stroke-width: 0.8"/>
      </g>
     </g>
     <g id="text_19">
      <!-- 200 -->
      <g transform="translate(24.68125 50.039306)scale(0.1 -0.1)">
       <use xlink:href="#DejaVuSans-32"/>
       <use xlink:href="#DejaVuSans-30" x="63.623047"/>
       <use xlink:href="#DejaVuSans-30" x="127.246094"/>
      </g>
     </g>
    </g>
    <g id="text_20">
     <!-- Tiempo -->
     <g transform="translate(18.601562 154.717187)rotate(-90)scale(0.1 -0.1)">
      <use xlink:href="#DejaVuSans-54"/>
      <use xlink:href="#DejaVuSans-69" x="57.958984"/>
      <use xlink:href="#DejaVuSans-65" x="85.742188"/>
      <use xlink:href="#DejaVuSans-6d" x="147.265625"/>
      <use xlink:href="#DejaVuSans-70" x="244.677734"/>
      <use xlink:href="#DejaVuSans-6f" x="308.154297"/>
     </g>
    </g>
   </g>
   <g id="line2d_37">
    <path d="M 53.448725 245.6976 
L 54.33628 245.6976 
L 55.253145 244.75382 
L 56.140699 245.180015 
L 57.057564 243.560729 
L 57.945119 244.597033 
L 58.861984 243.105084 
L 59.749539 244.74792 
L 60.666404 245.069456 
L 61.553959 243.836991 
L 62.470823 242.782467 
L 63.358378 242.855164 
L 64.275243 243.216436 
L 65.162798 242.313168 
L 66.079663 239.414974 
L 66.967218 240.240921 
L 67.884083 239.063615 
L 69.688502 242.254543 
L 70.576057 240.815517 
L 71.492922 241.988898 
L 72.380477 237.734042 
L 73.297342 236.811121 
L 74.184896 240.419848 
L 75.101761 241.008079 
L 77.793736 235.774158 
L 78.710601 239.540278 
L 79.598156 238.69111 
L 80.51502 232.040744 
L 81.402575 237.996797 
L 82.31944 238.874039 
L 84.12386 234.976815 
L 85.011415 237.483875 
L 85.92828 231.607552 
L 87.732699 233.846543 
L 88.620254 231.805946 
L 89.537119 237.749374 
L 91.341539 227.703003 
L 92.229093 235.808946 
L 93.145958 236.682989 
L 94.033513 234.994503 
L 94.950378 230.576869 
L 95.837933 234.13055 
L 96.754798 227.853518 
L 97.642353 228.314471 
L 98.559217 229.182753 
L 99.446772 233.518188 
L 100.363637 235.87408 
L 102.168057 226.44092 
L 103.055612 232.523926 
L 103.972477 227.139446 
L 105.776896 224.642998 
L 106.664451 231.055622 
L 107.581316 234.858941 
L 108.468871 230.334244 
L 109.385736 233.9141 
L 110.27329 222.723007 
L 111.190155 224.27802 
L 112.07771 228.743094 
L 112.994575 232.510827 
L 113.88213 228.123228 
L 114.798995 231.528764 
L 115.68655 227.269983 
L 116.603414 230.566533 
L 117.490969 226.487067 
L 118.407834 215.952087 
L 119.295389 217.874019 
L 120.212254 229.146152 
L 121.099809 224.94354 
L 122.016674 228.590297 
L 122.904228 223.954936 
L 123.821093 218.363362 
L 124.708648 223.055016 
L 125.625513 227.242851 
L 127.429933 216.595513 
L 128.317487 222.027762 
L 129.234352 215.973047 
L 130.121907 212.809396 
L 131.038772 226.745622 
L 131.926327 212.253639 
L 133.730747 207.595767 
L 134.647611 225.067112 
L 135.535166 207.478278 
L 136.452031 224.074235 
L 137.339586 220.773916 
L 138.256451 211.355566 
L 139.144006 219.838067 
L 140.060871 223.173013 
L 140.948425 219.080724 
L 141.86529 204.987229 
L 142.752845 208.571543 
L 143.66971 223.01393 
L 144.557265 218.258027 
L 145.47413 203.001642 
L 147.278549 202.392014 
L 148.166104 216.99589 
L 149.082969 201.641735 
L 149.970524 216.08056 
L 150.887389 208.804209 
L 151.774944 203.599318 
L 152.691808 221.285107 
L 153.579363 203.175671 
L 154.496228 196.833789 
L 155.383783 202.281254 
L 156.300648 220.740677 
L 157.188203 214.72671 
L 158.105068 197.119917 
L 159.909487 219.11268 
L 160.797042 213.85735 
L 161.713907 204.614415 
L 162.601462 199.332314 
L 163.518327 194.712139 
L 164.405882 213.26702 
L 165.322746 203.324039 
L 167.127166 218.475589 
L 168.014721 212.404649 
L 168.931586 189.570766 
L 169.819141 195.615868 
L 170.736005 217.435578 
L 171.62356 195.242954 
L 172.540425 200.662177 
L 173.42798 210.602754 
L 174.344845 216.276808 
L 175.2324 210.106634 
L 176.149265 186.403835 
L 177.036819 209.392406 
L 177.953684 215.330487 
L 178.841239 191.407282 
L 179.758104 214.630446 
L 180.645659 190.522206 
L 181.562524 196.820236 
L 183.366943 213.397695 
L 184.254498 207.522947 
L 185.171363 212.990835 
L 186.058918 183.874029 
L 186.975783 182.881103 
L 187.863338 206.55352 
L 188.780202 193.649058 
L 189.667757 205.910973 
L 190.584622 179.347193 
L 191.472177 205.393421 
L 192.389042 211.506712 
L 193.276597 184.576638 
L 194.193462 191.355043 
L 195.081016 179.306955 
L 195.997881 178.982757 
L 196.885436 204.498817 
L 197.802301 210.506404 
L 198.689856 182.658506 
L 199.606721 189.208012 
L 200.494276 202.596773 
L 201.41114 209.785083 
L 202.298695 180.755174 
L 203.21556 187.345069 
L 205.01998 208.227763 
L 205.907535 201.819906 
L 206.824399 171.278175 
L 207.711954 173.752184 
L 208.628819 185.382346 
L 210.433239 184.688272 
L 211.320794 179.325483 
L 212.237659 207.10981 
L 213.125213 171.806463 
L 214.042078 207.017562 
L 215.846498 168.803831 
L 216.734053 178.447706 
L 217.650918 205.707757 
L 218.538473 169.444825 
L 219.455337 204.97775 
L 220.342892 200.582457 
L 221.259757 179.481122 
L 222.147312 175.539684 
L 223.064177 178.794268 
L 223.951732 199.967337 
L 224.868596 164.027174 
L 225.756151 199.389669 
L 226.673016 177.130799 
L 228.477436 176.415178 
L 229.364991 198.324364 
L 230.281856 203.854305 
L 231.16941 197.354495 
L 232.086275 160.194293 
L 232.97383 162.55218 
L 233.890695 174.268646 
L 234.77825 195.530267 
L 235.695115 202.980972 
L 236.58267 170.067434 
L 237.499534 172.517047 
L 238.387089 194.499384 
L 239.303954 201.582344 
L 241.108374 154.193317 
L 241.995929 167.568902 
L 242.912793 200.834832 
L 243.800348 194.220092 
L 244.717213 199.980468 
L 245.604768 193.469969 
L 246.521633 157.548323 
L 247.409188 164.56672 
L 248.326053 168.729865 
L 249.213607 192.310288 
L 250.130472 198.397219 
L 251.018027 162.720827 
L 251.934892 197.788396 
L 252.822447 191.44945 
L 253.739312 154.852045 
L 255.543731 165.25261 
L 256.431286 160.55895 
L 257.348151 196.563729 
L 258.235706 160.125861 
L 260.040126 149.241974 
L 260.95699 195.724918 
L 261.844545 190.193263 
L 262.76141 154.306052 
L 263.648965 157.624465 
L 264.56583 194.013944 
L 265.453385 188.494972 
L 266.37025 193.388939 
L 268.174669 160.370909 
L 269.062224 155.638568 
L 269.979089 192.116247 
L 270.866644 187.626542 
L 271.783509 191.347007 
L 272.671064 186.998866 
L 273.587928 148.111711 
L 274.475483 186.316876 
L 275.392348 190.656395 
L 276.279903 152.22712 
L 277.196768 189.779416 
L 279.001187 155.120732 
L 279.888742 184.913375 
L 280.805607 188.900861 
L 281.693162 184.172315 
L 282.610027 144.543588 
L 284.414447 187.731556 
L 286.218866 152.078205 
L 287.106421 183.293044 
L 288.023286 142.421849 
L 289.827706 186.008026 
L 290.715261 182.33004 
L 291.632125 185.093036 
L 292.51968 147.058268 
L 293.436545 149.330945 
L 294.3241 181.055641 
L 295.240965 184.474934 
L 297.045384 147.764379 
L 297.932939 180.272844 
L 298.849804 183.603854 
L 299.737359 179.301542 
L 300.654224 182.933225 
L 302.458644 144.791763 
L 304.263063 181.813537 
L 305.150618 177.672146 
L 306.067483 133.730667 
L 306.955038 142.172527 
L 307.871903 142.846309 
L 308.759458 176.986199 
L 309.676322 132.577242 
L 310.563877 176.049162 
L 311.480742 141.300936 
L 313.285162 180.604787 
L 314.172717 174.857569 
L 315.089581 130.16433 
L 315.977136 138.017073 
L 316.894001 179.835904 
L 317.781556 137.26543 
L 318.698421 178.84696 
L 319.585976 136.415775 
L 321.390395 121.174471 
L 322.30726 136.931809 
L 323.194815 174.011599 
L 324.11168 136.564429 
L 324.999235 133.982654 
L 325.9161 125.32528 
L 327.720519 177.503535 
L 328.608074 172.613851 
L 329.524939 125.151571 
L 330.412494 172.302572 
L 331.329359 176.01283 
L 332.216914 131.193274 
L 333.133778 133.583499 
L 334.021333 130.29683 
L 334.938198 123.034575 
L 335.825753 170.783329 
L 336.742618 174.992379 
L 337.630173 128.397353 
L 338.547038 122.11029 
L 340.351457 174.47863 
L 342.155877 173.741209 
L 343.043432 126.645943 
L 343.960297 172.793943 
L 344.847852 169.983353 
L 345.764716 128.217908 
L 346.652271 124.679715 
L 347.569136 127.761718 
L 348.456691 168.509934 
L 349.373556 171.083165 
L 350.261111 167.953807 
L 351.177976 114.159969 
L 352.06553 167.357622 
L 352.982395 170.196018 
L 353.86995 120.84825 
L 354.786815 114.024141 
L 355.67437 165.437797 
L 356.591235 169.589495 
L 357.478789 164.795618 
L 358.395654 110.84817 
L 360.200074 168.255738 
L 361.087629 164.287083 
L 362.004494 110.355388 
L 362.892049 163.367836 
L 363.808913 167.44337 
L 364.696468 115.546003 
L 365.613333 166.673024 
L 366.500888 161.457328 
L 367.417753 120.454915 
L 368.305308 113.724362 
L 369.222173 107.732349 
L 370.109727 160.586709 
L 371.026592 165.177809 
L 371.914147 160.131322 
L 372.831012 105.060627 
L 374.635432 104.26427 
L 375.522986 93.341502 
L 376.439851 164.402113 
L 377.327406 159.099011 
L 378.244271 163.591549 
L 379.131826 109.598826 
L 380.048691 116.329996 
L 380.936246 109.202215 
L 381.85311 162.626581 
L 382.740665 158.011358 
L 383.65753 161.798877 
L 385.46195 99.146257 
L 386.349505 157.153079 
L 387.26637 159.94992 
L 388.153924 105.648975 
L 389.070789 100.187575 
L 389.958344 155.765816 
L 390.875209 159.091747 
L 391.762764 154.843779 
L 392.679629 111.315663 
L 393.567183 102.905008 
L 394.484048 157.954075 
L 395.371603 153.47457 
L 396.288468 95.794331 
L 397.176023 100.91222 
L 398.092888 157.240399 
L 398.980443 80.7744 
L 399.897307 156.748473 
L 400.784862 152.615699 
L 401.701727 106.813198 
L 402.589282 151.939318 
L 403.506147 106.413961 
L 404.393702 151.075289 
L 405.310567 154.947054 
L 406.198121 150.232367 
L 407.114986 90.215878 
L 408.919406 154.402365 
L 409.806961 95.347246 
L 410.723826 90.003944 
L 411.61138 94.533674 
L 411.61138 94.533674 
" clip-path="url(#p84b27909d0)" style="fill: none; stroke: #1f77b4; stroke-width: 1.5; stroke-linecap: square"/>
   </g>
   <g id="patch_3">
    <path d="M 50.76875 246.7 
L 50.76875 25.8 
" style="fill: none; stroke: #000000; stroke-width: 0.8; stroke-linejoin: miter; stroke-linecap: square"/>
   </g>
   <g id="patch_4">
    <path d="M 416.088414 246.7 
L 416.088414 25.8 
" style="fill: none; stroke: #000000; stroke-width: 0.8; stroke-linejoin: miter; stroke-linecap: square"/>
   </g>
   <g id="patch_5">
    <path d="M 50.76875 246.7 
L 416.088414 246.7 
" style="fill: none; stroke: #000000; stroke-width: 0.8; stroke-linejoin: miter; stroke-linecap: square"/>
   </g>
   <g id="patch_6">
    <path d="M 50.76875 25.8 
L 416.088414 25.8 
" style="fill: none; stroke: #000000; stroke-width: 0.8; stroke-linejoin: miter; stroke-linecap: square"/>
   </g>
   <g id="text_21">
    <!-- Demora -->
    <g transform="translate(209.457644 19.8)scale(0.12 -0.12)">
     <defs>
      <path id="DejaVuSans-44" d="M 1259 4147 
L 1259 519 
L 2022 519 
Q 2988 519 3436 956 
Q 3884 1394 3884 2338 
Q 3884 3275 3436 3711 
Q 2988 4147 2022 4147 
L 1259 4147 
z
M 628 4666 
L 1925 4666 
Q 3281 4666 3915 4102 
Q 4550 3538 4550 2338 
Q 4550 1131 3912 565 
Q 3275 0 1925 0 
L 628 0 
L 628 4666 
z
" transform="scale(0.015625)"/>
      <path id="DejaVuSans-72" d="M 2631 2963 
Q 2534 3019 2420 3045 
Q 2306 3072 2169 3072 
Q 1681 3072 1420 2755 
Q 1159 2438 1159 1844 
L 1159 0 
L 581 0 
L 581 3500 
L 1159 3500 
L 1159 2956 
Q 1341 3275 1631 3429 
Q 1922 3584 2338 3584 
Q 2397 3584 2469 3576 
Q 2541 3569 2628 3553 
L 2631 2963 
z
" transform="scale(0.015625)"/>
      <path id="DejaVuSans-61" d="M 2194 1759 
Q 1497 1759 1228 1600 
Q 959 1441 959 1056 
Q 959 750 1161 570 
Q 1363 391 1709 391 
Q 2188 391 2477 730 
Q 2766 1069 2766 1631 
L 2766 1759 
L 2194 1759 
z
M 3341 1997 
L 3341 0 
L 2766 0 
L 2766 531 
Q 2569 213 2275 61 
Q 1981 -91 1556 -91 
Q 1019 -91 701 211 
Q 384 513 384 1019 
Q 384 1609 779 1909 
Q 1175 2209 1959 2209 
L 2766 2209 
L 2766 2266 
Q 2766 2663 2505 2880 
Q 2244 3097 1772 3097 
Q 1472 3097 1187 3025 
Q 903 2953 641 2809 
L 641 3341 
Q 956 3463 1253 3523 
Q 1550 3584 1831 3584 
Q 2591 3584 2966 3190 
Q 3341 2797 3341 1997 
z
" transform="scale(0.015625)"/>
     </defs>
     <use xlink:href="#DejaVuSans-44"/>
     <use xlink:href="#DejaVuSans-65" x="77.001953"/>
     <use xlink:href="#DejaVuSans-6d" x="138.525391"/>
     <use xlink:href="#DejaVuSans-6f" x="235.9375"/>
     <use xlink:href="#DejaVuSans-72" x="297.119141"/>
     <use xlink:href="#DejaVuSans-61" x="338.232422"/>
    </g>
   </g>
   <g id="legend_1">
    <g id="patch_7">
     <path d="M 226.880601 48.478125 
L 409.088414 48.478125 
Q 411.088414 48.478125 411.088414 46.478125 
L 411.088414 32.8 
Q 411.088414 30.8 409.088414 30.8 
L 226.880601 30.8 
Q 224.880601 30.8 224.880601 32.8 
L 224.880601 46.478125 
Q 224.880601 48.478125 226.880601 48.478125 
z
" style="fill: #ffffff; opacity: 0.8; stroke: #cccccc; stroke-linejoin: miter"/>
    </g>
    <g id="line2d_38">
     <path d="M 228.880601 38.898437 
L 238.880601 38.898437 
L 248.880601 38.898437 
" style="fill: none; stroke: #1f77b4; stroke-width: 1.5; stroke-linecap: square"/>
    </g>
    <g id="text_22">
     <!-- Delay in Network.node[5].app -->
     <g transform="translate(256.880601 42.398437)scale(0.1 -0.1)">
      <defs>
       <path id="DejaVuSans-6c" d="M 603 4863 
L 1178 4863 
L 1178 0 
L 603 0 
L 603 4863 
z
" transform="scale(0.015625)"/>
       <path id="DejaVuSans-79" d="M 2059 -325 
Q 1816 -950 1584 -1140 
Q 1353 -1331 966 -1331 
L 506 -1331 
L 506 -850 
L 844 -850 
Q 1081 -850 1212 -737 
Q 1344 -625 1503 -206 
L 1606 56 
L 191 3500 
L 800 3500 
L 1894 763 
L 2988 3500 
L 3597 3500 
L 2059 -325 
z
" transform="scale(0.015625)"/>
       <path id="DejaVuSans-20" transform="scale(0.015625)"/>
       <path id="DejaVuSans-6e" d="M 3513 2113 
L 3513 0 
L 2938 0 
L 2938 2094 
Q 2938 2591 2744 2837 
Q 2550 3084 2163 3084 
Q 1697 3084 1428 2787 
Q 1159 2491 1159 1978 
L 1159 0 
L 581 0 
L 581 3500 
L 1159 3500 
L 1159 2956 
Q 1366 3272 1645 3428 
Q 1925 3584 2291 3584 
Q 2894 3584 3203 3211 
Q 3513 2838 3513 2113 
z
" transform="scale(0.015625)"/>
       <path id="DejaVuSans-4e" d="M 628 4666 
L 1478 4666 
L 3547 763 
L 3547 4666 
L 4159 4666 
L 4159 0 
L 3309 0 
L 1241 3903 
L 1241 0 
L 628 0 
L 628 4666 
z
" transform="scale(0.015625)"/>
       <path id="DejaVuSans-74" d="M 1172 4494 
L 1172 3500 
L 2356 3500 
L 2356 3053 
L 1172 3053 
L 1172 1153 
Q 1172 725 1289 603 
Q 1406 481 1766 481 
L 2356 481 
L 2356 0 
L 1766 0 
Q 1100 0 847 248 
Q 594 497 594 1153 
L 594 3053 
L 172 3053 
L 172 3500 
L 594 3500 
L 594 4494 
L 1172 4494 
z
" transform="scale(0.015625)"/>
       <path id="DejaVuSans-77" d="M 269 3500 
L 844 3500 
L 1563 769 
L 2278 3500 
L 2956 3500 
L 3675 769 
L 4391 3500 
L 4966 3500 
L 4050 0 
L 3372 0 
L 2619 2869 
L 1863 0 
L 1184 0 
L 269 3500 
z
" transform="scale(0.015625)"/>
       <path id="DejaVuSans-6b" d="M 581 4863 
L 1159 4863 
L 1159 1991 
L 2875 3500 
L 3609 3500 
L 1753 1863 
L 3688 0 
L 2938 0 
L 1159 1709 
L 1159 0 
L 581 0 
L 581 4863 
z
" transform="scale(0.015625)"/>
       <path id="DejaVuSans-2e" d="M 684 794 
L 1344 794 
L 1344 0 
L 684 0 
L 684 794 
z
" transform="scale(0.015625)"/>
       <path id="DejaVuSans-64" d="M 2906 2969 
L 2906 4863 
L 3481 4863 
L 3481 0 
L 2906 0 
L 2906 525 
Q 2725 213 2448 61 
Q 2172 -91 1784 -91 
Q 1150 -91 751 415 
Q 353 922 353 1747 
Q 353 2572 751 3078 
Q 1150 3584 1784 3584 
Q 2172 3584 2448 3432 
Q 2725 3281 2906 2969 
z
M 947 1747 
Q 947 1113 1208 752 
Q 1469 391 1925 391 
Q 2381 391 2643 752 
Q 2906 1113 2906 1747 
Q 2906 2381 2643 2742 
Q 2381 3103 1925 3103 
Q 1469 3103 1208 2742 
Q 947 2381 947 1747 
z
" transform="scale(0.015625)"/>
       <path id="DejaVuSans-5b" d="M 550 4863 
L 1875 4863 
L 1875 4416 
L 1125 4416 
L 1125 -397 
L 1875 -397 
L 1875 -844 
L 550 -844 
L 550 4863 
z
" transform="scale(0.015625)"/>
       <path id="DejaVuSans-5d" d="M 1947 4863 
L 1947 -844 
L 622 -844 
L 622 -397 
L 1369 -397 
L 1369 4416 
L 622 4416 
L 622 4863 
L 1947 4863 
z
" transform="scale(0.015625)"/>
      </defs>
      <use xlink:href="#DejaVuSans-44"/>
      <use xlink:href="#DejaVuSans-65" x="77.001953"/>
      <use xlink:href="#DejaVuSans-6c" x="138.525391"/>
      <use xlink:href="#DejaVuSans-61" x="166.308594"/>
      <use xlink:href="#DejaVuSans-79" x="227.587891"/>
      <use xlink:href="#DejaVuSans-20" x="286.767578"/>
      <use xlink:href="#DejaVuSans-69" x="318.554688"/>
      <use xlink:href="#DejaVuSans-6e" x="346.337891"/>
      <use xlink:href="#DejaVuSans-20" x="409.716797"/>
      <use xlink:href="#DejaVuSans-4e" x="441.503906"/>
      <use xlink:href="#DejaVuSans-65" x="516.308594"/>
      <use xlink:href="#DejaVuSans-74" x="577.832031"/>
      <use xlink:href="#DejaVuSans-77" x="617.041016"/>
      <use xlink:href="#DejaVuSans-6f" x="698.828125"/>
      <use xlink:href="#DejaVuSans-72" x="760.009766"/>
      <use xlink:href="#DejaVuSans-6b" x="801.123047"/>
      <use xlink:href="#DejaVuSans-2e" x="859.033203"/>
      <use xlink:href="#DejaVuSans-6e" x="890.820312"/>
      <use xlink:href="#DejaVuSans-6f" x="954.199219"/>
      <use xlink:href="#DejaVuSans-64" x="1015.380859"/>
      <use xlink:href="#DejaVuSans-65" x="1078.857422"/>
      <use xlink:href="#DejaVuSans-5b" x="1140.380859"/>
      <use xlink:href="#DejaVuSans-35" x="1179.394531"/>
      <use xlink:href="#DejaVuSans-5d" x="1243.017578"/>
      <use xlink:href="#DejaVuSans-2e" x="1282.03125"/>
      <use xlink:href="#DejaVuSans-61" x="1313.818359"/>
      <use xlink:href="#DejaVuSans-70" x="1375.097656"/>
      <use xlink:href="#DejaVuSans-70" x="1438.574219"/>
     </g>
    </g>
   </g>
  </g>
 </g>
 <defs>
  <clipPath id="p84b27909d0">
   <rect x="50.76875" y="25.8" width="365.319664" height="220.9"/>
  </clipPath>
 </defs>
</svg>
