<?xml version="1.0" encoding="utf-8" standalone="no"?>
<!DOCTYPE svg PUBLIC "-//W3C//DTD SVG 1.1//EN"
  "http://www.w3.org/Graphics/SVG/1.1/DTD/svg11.dtd">
<svg xmlns:xlink="http://www.w3.org/1999/xlink" width="432pt" height="288pt" viewBox="0 0 432 288" xmlns="http://www.w3.org/2000/svg" version="1.1">
 <metadata>
  <rdf:RDF xmlns:dc="http://purl.org/dc/elements/1.1/" xmlns:cc="http://creativecommons.org/ns#" xmlns:rdf="http://www.w3.org/1999/02/22-rdf-syntax-ns#">
   <cc:Work>
    <dc:type rdf:resource="http://purl.org/dc/dcmitype/StillImage"/>
    <dc:date>2022-06-05T09:03:33.288861</dc:date>
    <dc:format>image/svg+xml</dc:format>
    <dc:creator>
     <cc:Agent>
      <dc:title>omnetpp.scave 6.0.0; Matplotlib 3.5.1 w/ backend GTK3Agg; Pandas 1.4.2; Python 3.8.10; Linux-5.4.0-109-generic-x86_64-with-glibc2.29</dc:title>
     </cc:Agent>
    </dc:creator>
   </cc:Work>
  </rdf:RDF>
 </metadata>
 <defs>
  <style type="text/css">*{stroke-linejoin: round; stroke-linecap: butt}</style>
 </defs>
 <g id="figure_1">
  <g id="patch_1">
   <path d="M 0 288 
L 432 288 
L 432 0 
L 0 0 
z
" style="fill: #ffffff"/>
  </g>
  <g id="axes_1">
   <g id="patch_2">
    <path d="M 37.01875 260.45 
L 416.255367 260.45 
L 416.255367 25.8 
L 37.01875 25.8 
z
" style="fill: #ffffff"/>
   </g>
   <g id="matplotlib.axis_1">
    <g id="xtick_1">
     <g id="line2d_1">
      <path d="M 37.01875 260.45 
L 37.01875 25.8 
" clip-path="url(#p153d13f40e)" style="fill: none; stroke: #b0b0b0; stroke-width: 0.8; stroke-linecap: square"/>
     </g>
     <g id="line2d_2">
      <defs>
       <path id="m868348bf60" d="M 0 0 
L 0 3.5 
" style="stroke: #000000; stroke-width: 0.8"/>
      </defs>
      <g>
       <use xlink:href="#m868348bf60" x="37.01875" y="260.45" style="stroke: #000000; stroke-width: 0.8"/>
      </g>
     </g>
     <g id="text_1">
      <!-- 0 -->
      <g transform="translate(33.8375 275.048437)scale(0.1 -0.1)">
       <defs>
        <path id="DejaVuSans-30" d="M 2034 4250 
Q 1547 4250 1301 3770 
Q 1056 3291 1056 2328 
Q 1056 1369 1301 889 
Q 1547 409 2034 409 
Q 2525 409 2770 889 
Q 3016 1369 3016 2328 
Q 3016 3291 2770 3770 
Q 2525 4250 2034 4250 
z
M 2034 4750 
Q 2819 4750 3233 4129 
Q 3647 3509 3647 2328 
Q 3647 1150 3233 529 
Q 2819 -91 2034 -91 
Q 1250 -91 836 529 
Q 422 1150 422 2328 
Q 422 3509 836 4129 
Q 1250 4750 2034 4750 
z
" transform="scale(0.015625)"/>
       </defs>
       <use xlink:href="#DejaVuSans-30"/>
      </g>
     </g>
    </g>
    <g id="xtick_2">
     <g id="line2d_3">
      <path d="M 83.847739 260.45 
L 83.847739 25.8 
" clip-path="url(#p153d13f40e)" style="fill: none; stroke: #b0b0b0; stroke-width: 0.8; stroke-linecap: square"/>
     </g>
     <g id="line2d_4">
      <g>
       <use xlink:href="#m868348bf60" x="83.847739" y="260.45" style="stroke: #000000; stroke-width: 0.8"/>
      </g>
     </g>
     <g id="text_2">
      <!-- 25 -->
      <g transform="translate(77.485239 275.048437)scale(0.1 -0.1)">
       <defs>
        <path id="DejaVuSans-32" d="M 1228 531 
L 3431 531 
L 3431 0 
L 469 0 
L 469 531 
Q 828 903 1448 1529 
Q 2069 2156 2228 2338 
Q 2531 2678 2651 2914 
Q 2772 3150 2772 3378 
Q 2772 3750 2511 3984 
Q 2250 4219 1831 4219 
Q 1534 4219 1204 4116 
Q 875 4013 500 3803 
L 500 4441 
Q 881 4594 1212 4672 
Q 1544 4750 1819 4750 
Q 2544 4750 2975 4387 
Q 3406 4025 3406 3419 
Q 3406 3131 3298 2873 
Q 3191 2616 2906 2266 
Q 2828 2175 2409 1742 
Q 1991 1309 1228 531 
z
" transform="scale(0.015625)"/>
        <path id="DejaVuSans-35" d="M 691 4666 
L 3169 4666 
L 3169 4134 
L 1269 4134 
L 1269 2991 
Q 1406 3038 1543 3061 
Q 1681 3084 1819 3084 
Q 2600 3084 3056 2656 
Q 3513 2228 3513 1497 
Q 3513 744 3044 326 
Q 2575 -91 1722 -91 
Q 1428 -91 1123 -41 
Q 819 9 494 109 
L 494 744 
Q 775 591 1075 516 
Q 1375 441 1709 441 
Q 2250 441 2565 725 
Q 2881 1009 2881 1497 
Q 2881 1984 2565 2268 
Q 2250 2553 1709 2553 
Q 1456 2553 1204 2497 
Q 953 2441 691 2322 
L 691 4666 
z
" transform="scale(0.015625)"/>
       </defs>
       <use xlink:href="#DejaVuSans-32"/>
       <use xlink:href="#DejaVuSans-35" x="63.623047"/>
      </g>
     </g>
    </g>
    <g id="xtick_3">
     <g id="line2d_5">
      <path d="M 130.676728 260.45 
L 130.676728 25.8 
" clip-path="url(#p153d13f40e)" style="fill: none; stroke: #b0b0b0; stroke-width: 0.8; stroke-linecap: square"/>
     </g>
     <g id="line2d_6">
      <g>
       <use xlink:href="#m868348bf60" x="130.676728" y="260.45" style="stroke: #000000; stroke-width: 0.8"/>
      </g>
     </g>
     <g id="text_3">
      <!-- 50 -->
      <g transform="translate(124.314228 275.048437)scale(0.1 -0.1)">
       <use xlink:href="#DejaVuSans-35"/>
       <use xlink:href="#DejaVuSans-30" x="63.623047"/>
      </g>
     </g>
    </g>
    <g id="xtick_4">
     <g id="line2d_7">
      <path d="M 177.505717 260.45 
L 177.505717 25.8 
" clip-path="url(#p153d13f40e)" style="fill: none; stroke: #b0b0b0; stroke-width: 0.8; stroke-linecap: square"/>
     </g>
     <g id="line2d_8">
      <g>
       <use xlink:href="#m868348bf60" x="177.505717" y="260.45" style="stroke: #000000; stroke-width: 0.8"/>
      </g>
     </g>
     <g id="text_4">
      <!-- 75 -->
      <g transform="translate(171.143217 275.048437)scale(0.1 -0.1)">
       <defs>
        <path id="DejaVuSans-37" d="M 525 4666 
L 3525 4666 
L 3525 4397 
L 1831 0 
L 1172 0 
L 2766 4134 
L 525 4134 
L 525 4666 
z
" transform="scale(0.015625)"/>
       </defs>
       <use xlink:href="#DejaVuSans-37"/>
       <use xlink:href="#DejaVuSans-35" x="63.623047"/>
      </g>
     </g>
    </g>
    <g id="xtick_5">
     <g id="line2d_9">
      <path d="M 224.334706 260.45 
L 224.334706 25.8 
" clip-path="url(#p153d13f40e)" style="fill: none; stroke: #b0b0b0; stroke-width: 0.8; stroke-linecap: square"/>
     </g>
     <g id="line2d_10">
      <g>
       <use xlink:href="#m868348bf60" x="224.334706" y="260.45" style="stroke: #000000; stroke-width: 0.8"/>
      </g>
     </g>
     <g id="text_5">
      <!-- 100 -->
      <g transform="translate(214.790956 275.048437)scale(0.1 -0.1)">
       <defs>
        <path id="DejaVuSans-31" d="M 794 531 
L 1825 531 
L 1825 4091 
L 703 3866 
L 703 4441 
L 1819 4666 
L 2450 4666 
L 2450 531 
L 3481 531 
L 3481 0 
L 794 0 
L 794 531 
z
" transform="scale(0.015625)"/>
       </defs>
       <use xlink:href="#DejaVuSans-31"/>
       <use xlink:href="#DejaVuSans-30" x="63.623047"/>
       <use xlink:href="#DejaVuSans-30" x="127.246094"/>
      </g>
     </g>
    </g>
    <g id="xtick_6">
     <g id="line2d_11">
      <path d="M 271.163696 260.45 
L 271.163696 25.8 
" clip-path="url(#p153d13f40e)" style="fill: none; stroke: #b0b0b0; stroke-width: 0.8; stroke-linecap: square"/>
     </g>
     <g id="line2d_12">
      <g>
       <use xlink:href="#m868348bf60" x="271.163696" y="260.45" style="stroke: #000000; stroke-width: 0.8"/>
      </g>
     </g>
     <g id="text_6">
      <!-- 125 -->
      <g transform="translate(261.619946 275.048437)scale(0.1 -0.1)">
       <use xlink:href="#DejaVuSans-31"/>
       <use xlink:href="#DejaVuSans-32" x="63.623047"/>
       <use xlink:href="#DejaVuSans-35" x="127.246094"/>
      </g>
     </g>
    </g>
    <g id="xtick_7">
     <g id="line2d_13">
      <path d="M 317.992685 260.45 
L 317.992685 25.8 
" clip-path="url(#p153d13f40e)" style="fill: none; stroke: #b0b0b0; stroke-width: 0.8; stroke-linecap: square"/>
     </g>
     <g id="line2d_14">
      <g>
       <use xlink:href="#m868348bf60" x="317.992685" y="260.45" style="stroke: #000000; stroke-width: 0.8"/>
      </g>
     </g>
     <g id="text_7">
      <!-- 150 -->
      <g transform="translate(308.448935 275.048437)scale(0.1 -0.1)">
       <use xlink:href="#DejaVuSans-31"/>
       <use xlink:href="#DejaVuSans-35" x="63.623047"/>
       <use xlink:href="#DejaVuSans-30" x="127.246094"/>
      </g>
     </g>
    </g>
    <g id="xtick_8">
     <g id="line2d_15">
      <path d="M 364.821674 260.45 
L 364.821674 25.8 
" clip-path="url(#p153d13f40e)" style="fill: none; stroke: #b0b0b0; stroke-width: 0.8; stroke-linecap: square"/>
     </g>
     <g id="line2d_16">
      <g>
       <use xlink:href="#m868348bf60" x="364.821674" y="260.45" style="stroke: #000000; stroke-width: 0.8"/>
      </g>
     </g>
     <g id="text_8">
      <!-- 175 -->
      <g transform="translate(355.277924 275.048437)scale(0.1 -0.1)">
       <use xlink:href="#DejaVuSans-31"/>
       <use xlink:href="#DejaVuSans-37" x="63.623047"/>
       <use xlink:href="#DejaVuSans-35" x="127.246094"/>
      </g>
     </g>
    </g>
    <g id="xtick_9">
     <g id="line2d_17">
      <path d="M 411.650663 260.45 
L 411.650663 25.8 
" clip-path="url(#p153d13f40e)" style="fill: none; stroke: #b0b0b0; stroke-width: 0.8; stroke-linecap: square"/>
     </g>
     <g id="line2d_18">
      <g>
       <use xlink:href="#m868348bf60" x="411.650663" y="260.45" style="stroke: #000000; stroke-width: 0.8"/>
      </g>
     </g>
     <g id="text_9">
      <!-- 200 -->
      <g transform="translate(402.106913 275.048437)scale(0.1 -0.1)">
       <use xlink:href="#DejaVuSans-32"/>
       <use xlink:href="#DejaVuSans-30" x="63.623047"/>
       <use xlink:href="#DejaVuSans-30" x="127.246094"/>
      </g>
     </g>
    </g>
   </g>
   <g id="matplotlib.axis_2">
    <g id="ytick_1">
     <g id="line2d_19">
      <path d="M 37.01875 260.45 
L 416.255367 260.45 
" clip-path="url(#p153d13f40e)" style="fill: none; stroke: #b0b0b0; stroke-width: 0.8; stroke-linecap: square"/>
     </g>
     <g id="line2d_20">
      <defs>
       <path id="ma06dde882f" d="M 0 0 
L -3.5 0 
" style="stroke: #000000; stroke-width: 0.8"/>
      </defs>
      <g>
       <use xlink:href="#ma06dde882f" x="37.01875" y="260.45" style="stroke: #000000; stroke-width: 0.8"/>
      </g>
     </g>
     <g id="text_10">
      <!-- 0 -->
      <g transform="translate(23.65625 264.249219)scale(0.1 -0.1)">
       <use xlink:href="#DejaVuSans-30"/>
      </g>
     </g>
    </g>
    <g id="ytick_2">
     <g id="line2d_21">
      <path d="M 37.01875 233.587882 
L 416.255367 233.587882 
" clip-path="url(#p153d13f40e)" style="fill: none; stroke: #b0b0b0; stroke-width: 0.8; stroke-linecap: square"/>
     </g>
     <g id="line2d_22">
      <g>
       <use xlink:href="#ma06dde882f" x="37.01875" y="233.587882" style="stroke: #000000; stroke-width: 0.8"/>
      </g>
     </g>
     <g id="text_11">
      <!-- 25 -->
      <g transform="translate(17.29375 237.387101)scale(0.1 -0.1)">
       <use xlink:href="#DejaVuSans-32"/>
       <use xlink:href="#DejaVuSans-35" x="63.623047"/>
      </g>
     </g>
    </g>
    <g id="ytick_3">
     <g id="line2d_23">
      <path d="M 37.01875 206.725764 
L 416.255367 206.725764 
" clip-path="url(#p153d13f40e)" style="fill: none; stroke: #b0b0b0; stroke-width: 0.8; stroke-linecap: square"/>
     </g>
     <g id="line2d_24">
      <g>
       <use xlink:href="#ma06dde882f" x="37.01875" y="206.725764" style="stroke: #000000; stroke-width: 0.8"/>
      </g>
     </g>
     <g id="text_12">
      <!-- 50 -->
      <g transform="translate(17.29375 210.524983)scale(0.1 -0.1)">
       <use xlink:href="#DejaVuSans-35"/>
       <use xlink:href="#DejaVuSans-30" x="63.623047"/>
      </g>
     </g>
    </g>
    <g id="ytick_4">
     <g id="line2d_25">
      <path d="M 37.01875 179.863646 
L 416.255367 179.863646 
" clip-path="url(#p153d13f40e)" style="fill: none; stroke: #b0b0b0; stroke-width: 0.8; stroke-linecap: square"/>
     </g>
     <g id="line2d_26">
      <g>
       <use xlink:href="#ma06dde882f" x="37.01875" y="179.863646" style="stroke: #000000; stroke-width: 0.8"/>
      </g>
     </g>
     <g id="text_13">
      <!-- 75 -->
      <g transform="translate(17.29375 183.662865)scale(0.1 -0.1)">
       <use xlink:href="#DejaVuSans-37"/>
       <use xlink:href="#DejaVuSans-35" x="63.623047"/>
      </g>
     </g>
    </g>
    <g id="ytick_5">
     <g id="line2d_27">
      <path d="M 37.01875 153.001528 
L 416.255367 153.001528 
" clip-path="url(#p153d13f40e)" style="fill: none; stroke: #b0b0b0; stroke-width: 0.8; stroke-linecap: square"/>
     </g>
     <g id="line2d_28">
      <g>
       <use xlink:href="#ma06dde882f" x="37.01875" y="153.001528" style="stroke: #000000; stroke-width: 0.8"/>
      </g>
     </g>
     <g id="text_14">
      <!-- 100 -->
      <g transform="translate(10.93125 156.800747)scale(0.1 -0.1)">
       <use xlink:href="#DejaVuSans-31"/>
       <use xlink:href="#DejaVuSans-30" x="63.623047"/>
       <use xlink:href="#DejaVuSans-30" x="127.246094"/>
      </g>
     </g>
    </g>
    <g id="ytick_6">
     <g id="line2d_29">
      <path d="M 37.01875 126.139411 
L 416.255367 126.139411 
" clip-path="url(#p153d13f40e)" style="fill: none; stroke: #b0b0b0; stroke-width: 0.8; stroke-linecap: square"/>
     </g>
     <g id="line2d_30">
      <g>
       <use xlink:href="#ma06dde882f" x="37.01875" y="126.139411" style="stroke: #000000; stroke-width: 0.8"/>
      </g>
     </g>
     <g id="text_15">
      <!-- 125 -->
      <g transform="translate(10.93125 129.938629)scale(0.1 -0.1)">
       <use xlink:href="#DejaVuSans-31"/>
       <use xlink:href="#DejaVuSans-32" x="63.623047"/>
       <use xlink:href="#DejaVuSans-35" x="127.246094"/>
      </g>
     </g>
    </g>
    <g id="ytick_7">
     <g id="line2d_31">
      <path d="M 37.01875 99.277293 
L 416.255367 99.277293 
" clip-path="url(#p153d13f40e)" style="fill: none; stroke: #b0b0b0; stroke-width: 0.8; stroke-linecap: square"/>
     </g>
     <g id="line2d_32">
      <g>
       <use xlink:href="#ma06dde882f" x="37.01875" y="99.277293" style="stroke: #000000; stroke-width: 0.8"/>
      </g>
     </g>
     <g id="text_16">
      <!-- 150 -->
      <g transform="translate(10.93125 103.076511)scale(0.1 -0.1)">
       <use xlink:href="#DejaVuSans-31"/>
       <use xlink:href="#DejaVuSans-35" x="63.623047"/>
       <use xlink:href="#DejaVuSans-30" x="127.246094"/>
      </g>
     </g>
    </g>
    <g id="ytick_8">
     <g id="line2d_33">
      <path d="M 37.01875 72.415175 
L 416.255367 72.415175 
" clip-path="url(#p153d13f40e)" style="fill: none; stroke: #b0b0b0; stroke-width: 0.8; stroke-linecap: square"/>
     </g>
     <g id="line2d_34">
      <g>
       <use xlink:href="#ma06dde882f" x="37.01875" y="72.415175" style="stroke: #000000; stroke-width: 0.8"/>
      </g>
     </g>
     <g id="text_17">
      <!-- 175 -->
      <g transform="translate(10.93125 76.214394)scale(0.1 -0.1)">
       <use xlink:href="#DejaVuSans-31"/>
       <use xlink:href="#DejaVuSans-37" x="63.623047"/>
       <use xlink:href="#DejaVuSans-35" x="127.246094"/>
      </g>
     </g>
    </g>
    <g id="ytick_9">
     <g id="line2d_35">
      <path d="M 37.01875 45.553057 
L 416.255367 45.553057 
" clip-path="url(#p153d13f40e)" style="fill: none; stroke: #b0b0b0; stroke-width: 0.8; stroke-linecap: square"/>
     </g>
     <g id="line2d_36">
      <g>
       <use xlink:href="#ma06dde882f" x="37.01875" y="45.553057" style="stroke: #000000; stroke-width: 0.8"/>
      </g>
     </g>
     <g id="text_18">
      <!-- 200 -->
      <g transform="translate(10.93125 49.352276)scale(0.1 -0.1)">
       <use xlink:href="#DejaVuSans-32"/>
       <use xlink:href="#DejaVuSans-30" x="63.623047"/>
       <use xlink:href="#DejaVuSans-30" x="127.246094"/>
      </g>
     </g>
    </g>
   </g>
   <g id="line2d_37">
    <path d="M 39.800819 259.375408 
L 40.722186 259.375408 
L 41.673979 258.363657 
L 42.595345 258.820546 
L 43.547138 257.08464 
L 44.468505 258.195578 
L 45.420298 256.59618 
L 46.341665 258.357332 
L 47.293458 258.702025 
L 48.214824 257.380798 
L 49.166617 256.250329 
L 50.087984 256.32826 
L 51.039777 256.715551 
L 51.961143 255.747231 
L 52.912936 252.64031 
L 53.834303 253.525741 
L 54.786096 252.263646 
L 56.659255 255.684383 
L 57.580622 254.141719 
L 58.532415 255.399606 
L 59.453781 250.838318 
L 60.405575 249.848928 
L 61.326941 253.717555 
L 62.278734 254.34815 
L 65.07326 248.737284 
L 66.025053 252.774638 
L 66.94642 251.864313 
L 67.898213 244.734991 
L 68.819579 251.119997 
L 69.771372 252.060417 
L 71.644532 247.882517 
L 72.565898 250.570134 
L 73.517692 244.270601 
L 75.390851 246.670843 
L 76.312218 244.483283 
L 77.264011 250.854754 
L 78.185377 240.630817 
L 79.13717 245.314658 
L 80.058537 248.774577 
L 81.01033 249.711568 
L 81.931696 247.901479 
L 82.883489 241.320688 
L 83.804856 246.975304 
L 84.756649 242.745654 
L 85.678015 240.740354 
L 86.629808 240.88084 
L 87.551175 246.31884 
L 88.502968 248.844402 
L 90.376128 240.555189 
L 91.297494 245.252971 
L 92.249287 237.878948 
L 94.122447 239.636653 
L 95.995606 247.756153 
L 96.916973 242.905589 
L 97.868766 246.743265 
L 98.790132 234.746196 
L 99.741925 231.95183 
L 100.663292 241.199846 
L 101.615085 245.238929 
L 102.536451 240.535337 
L 103.488245 244.186139 
L 104.409611 239.620642 
L 105.361404 243.154608 
L 106.282771 238.781341 
L 107.234564 233.296025 
L 108.15593 229.547985 
L 109.107723 241.631932 
L 110.02909 237.12665 
L 110.980883 241.036044 
L 112.854042 230.326371 
L 114.727202 239.591557 
L 116.600361 224.172873 
L 117.521728 234.000878 
L 118.473521 227.510106 
L 119.394888 224.11861 
L 120.346681 239.058517 
L 121.268047 223.522828 
L 122.21984 225.78353 
L 124.093 237.259121 
L 125.014366 217.288758 
L 125.966159 236.194738 
L 126.887526 232.656732 
L 127.839319 217.882064 
L 128.760685 231.653483 
L 129.712478 235.22861 
L 130.633845 230.841597 
L 131.585638 215.753476 
L 132.507004 219.575549 
L 133.458798 235.058071 
L 134.380164 229.959649 
L 135.331957 214.025458 
L 136.253324 211.836355 
L 137.205117 213.221144 
L 138.126483 228.606613 
L 139.078276 220.899456 
L 139.999643 227.625362 
L 140.951436 209.261701 
L 141.872802 214.245227 
L 142.824595 233.204738 
L 143.745962 213.791068 
L 144.697755 209.448152 
L 145.619121 212.832236 
L 146.570915 232.621098 
L 147.492281 226.174008 
L 148.444074 217.4824 
L 149.365441 205.124737 
L 150.317234 230.875854 
L 151.2386 225.242037 
L 152.190393 205.792482 
L 153.11176 209.670915 
L 154.063553 215.024606 
L 154.984919 224.609192 
L 155.936712 202.258241 
L 157.809872 230.19288 
L 158.731238 223.684714 
L 159.683031 213.245523 
L 160.604398 205.686813 
L 161.556191 229.077968 
L 162.477558 205.287041 
L 163.429351 198.991322 
L 164.350717 221.753046 
L 165.30251 227.835744 
L 166.223877 221.221197 
L 167.17567 198.481804 
L 168.097036 220.45553 
L 169.048829 226.821269 
L 169.970196 201.175125 
L 170.921989 226.070812 
L 171.843355 200.226307 
L 172.795148 206.977918 
L 174.668308 224.749278 
L 175.589674 218.451434 
L 176.541468 224.313116 
L 178.414627 204.652838 
L 179.335994 217.412189 
L 180.287787 190.341177 
L 181.209153 216.723366 
L 182.160946 203.268094 
L 183.082313 216.168541 
L 184.034106 222.722108 
L 184.955472 193.852542 
L 185.907265 188.930277 
L 187.780425 200.966435 
L 188.701791 215.209507 
L 189.653585 221.649758 
L 190.574951 191.796267 
L 191.526744 198.969323 
L 192.448111 213.170479 
L 193.399904 220.876488 
L 194.32127 189.755858 
L 195.273063 182.883 
L 197.146223 219.20701 
L 198.067589 212.337662 
L 199.019382 195.790762 
L 199.940749 182.248516 
L 200.892542 195.0467 
L 202.765701 180.167239 
L 203.687068 188.223201 
L 204.638861 218.008542 
L 206.512021 217.909651 
L 208.38518 191.613504 
L 209.306547 187.282207 
L 210.25834 216.505514 
L 211.179706 178.83777 
L 212.131499 215.722933 
L 213.052866 211.011093 
L 214.004659 173.972084 
L 214.926025 184.164751 
L 215.877818 187.653729 
L 216.799185 210.351672 
L 217.750978 186.944941 
L 218.672344 209.732401 
L 219.624138 186.177782 
L 221.497297 169.863162 
L 222.418664 208.590373 
L 223.370457 214.518578 
L 224.291823 207.550655 
L 225.243616 183.876658 
L 227.116776 183.073395 
L 228.038142 205.595047 
L 228.989935 213.582348 
L 229.911302 178.298392 
L 230.863095 162.944221 
L 231.784461 204.48992 
L 232.736254 212.082991 
L 234.609414 161.281029 
L 235.530781 175.619916 
L 236.482574 211.281644 
L 237.40394 204.190513 
L 238.355733 210.365749 
L 239.2771 203.386367 
L 240.228893 160.27597 
L 241.150259 172.401519 
L 242.102052 176.864492 
L 243.023419 202.143165 
L 243.975212 208.668475 
L 244.896578 170.422686 
L 245.848371 208.015804 
L 246.769738 201.220331 
L 247.721531 174.211291 
L 249.594691 155.59528 
L 250.516057 168.105111 
L 251.46785 206.702938 
L 252.389217 167.640831 
L 253.34101 157.356267 
L 255.214169 205.803716 
L 256.135536 199.873674 
L 257.087329 171.126982 
L 258.008695 164.959286 
L 258.960488 203.969518 
L 259.881855 198.053072 
L 260.833648 203.299501 
L 262.706808 151.129184 
L 263.628174 162.830365 
L 264.579967 201.93515 
L 265.501334 197.122099 
L 266.453127 201.11051 
L 267.374493 196.449217 
L 268.326286 165.498689 
L 269.247653 195.718111 
L 270.199446 200.370161 
L 271.120812 159.173227 
L 272.072605 199.430021 
L 273.945765 146.944411 
L 274.867131 194.213531 
L 275.818924 198.488193 
L 276.740291 193.4191 
L 277.692084 161.162556 
L 279.565244 197.234676 
L 281.438403 145.28113 
L 282.35977 192.476504 
L 283.311563 159.291925 
L 285.184722 195.387018 
L 286.106089 191.444146 
L 287.057882 194.40613 
L 287.979248 153.632117 
L 288.931041 143.135643 
L 289.852408 190.077964 
L 290.804201 193.743513 
L 292.677361 154.389081 
L 293.598727 189.238791 
L 294.55052 192.809698 
L 295.471887 188.197536 
L 296.42368 192.090771 
L 298.296839 151.202378 
L 300.169999 190.890444 
L 301.091365 186.450792 
L 302.043158 135.008573 
L 302.964525 148.394507 
L 303.916318 149.116813 
L 304.837684 185.715443 
L 305.789478 148.534628 
L 306.710844 184.710921 
L 307.662637 133.744575 
L 309.535797 189.594641 
L 310.457163 183.43351 
L 311.408956 130.048279 
L 312.330323 143.939779 
L 313.282116 188.770382 
L 314.203482 143.134003 
L 315.155275 187.710215 
L 316.076642 142.223155 
L 317.028435 143.85084 
L 318.901594 143.457001 
L 319.822961 182.526614 
L 320.774754 127.172091 
L 321.69612 139.614802 
L 322.647914 127.525336 
L 324.521073 186.270038 
L 325.44244 181.028201 
L 326.394233 141.33587 
L 327.315599 180.694503 
L 328.267392 184.671972 
L 329.188759 136.624532 
L 330.140552 124.139872 
L 331.061918 135.663527 
L 332.013711 122.017115 
L 332.935078 179.065845 
L 333.886871 183.578029 
L 334.808237 133.627251 
L 335.760031 137.732821 
L 336.681397 117.536387 
L 337.63319 183.02728 
L 339.50635 182.23675 
L 340.427716 131.749705 
L 341.379509 181.221262 
L 342.300876 178.208255 
L 343.252669 117.255244 
L 344.174035 129.64187 
L 345.125828 132.945838 
L 346.047195 176.628721 
L 346.998988 179.387276 
L 347.920354 176.032543 
L 348.872147 114.7791 
L 349.793514 175.393421 
L 350.745307 178.436236 
L 351.666674 125.534465 
L 352.618467 113.895825 
L 353.539833 173.335331 
L 354.491626 177.786032 
L 355.412993 172.646902 
L 356.364786 110.613889 
L 357.286152 106.213178 
L 358.237945 176.356218 
L 359.159312 172.101743 
L 360.111105 128.336256 
L 361.032471 171.116292 
L 361.984264 175.485344 
L 362.905631 119.850352 
L 363.857424 174.659518 
L 364.77879 169.06819 
L 365.730584 107.58353 
L 366.65195 117.897518 
L 367.603743 104.546295 
L 368.52511 168.134869 
L 369.476903 173.056618 
L 370.398269 167.646686 
L 371.350062 105.314069 
L 373.223222 123.914262 
L 375.096381 172.225057 
L 376.017748 166.540028 
L 376.969541 171.356117 
L 377.890907 113.474862 
L 378.842701 99.905512 
L 379.764067 113.049688 
L 380.71586 170.321652 
L 381.637227 165.374043 
L 382.58902 169.434337 
L 384.462179 98.950794 
L 385.383546 164.453951 
L 386.335339 167.45222 
L 387.256705 109.240545 
L 388.208498 117.464315 
L 389.129865 162.966778 
L 390.081658 166.532241 
L 391.003024 161.978337 
L 391.954817 93.651348 
L 392.876184 106.298959 
L 393.827977 165.312634 
L 394.749344 160.510518 
L 395.701137 113.712069 
L 396.622503 104.162651 
L 397.574296 164.54756 
L 399.447456 164.020206 
L 400.368822 159.589791 
L 401.320615 111.13511 
L 402.241982 158.864698 
L 403.193775 89.207799 
L 404.115141 157.938442 
L 405.066934 162.089049 
L 405.988301 157.034813 
L 406.940094 87.423794 
L 408.813254 161.505131 
L 409.73462 98.19689 
L 410.686413 84.193852 
L 411.60778 97.324726 
L 411.60778 97.324726 
" clip-path="url(#p153d13f40e)" style="fill: none; stroke: #1f77b4; stroke-width: 1.5; stroke-linecap: square"/>
   </g>
   <g id="patch_3">
    <path d="M 37.01875 260.45 
L 37.01875 25.8 
" style="fill: none; stroke: #000000; stroke-width: 0.8; stroke-linejoin: miter; stroke-linecap: square"/>
   </g>
   <g id="patch_4">
    <path d="M 416.255367 260.45 
L 416.255367 25.8 
" style="fill: none; stroke: #000000; stroke-width: 0.8; stroke-linejoin: miter; stroke-linecap: square"/>
   </g>
   <g id="patch_5">
    <path d="M 37.01875 260.45 
L 416.255367 260.45 
" style="fill: none; stroke: #000000; stroke-width: 0.8; stroke-linejoin: miter; stroke-linecap: square"/>
   </g>
   <g id="patch_6">
    <path d="M 37.01875 25.8 
L 416.255367 25.8 
" style="fill: none; stroke: #000000; stroke-width: 0.8; stroke-linejoin: miter; stroke-linecap: square"/>
   </g>
   <g id="text_19">
    <!-- Demora -->
    <g transform="translate(202.666121 19.8)scale(0.12 -0.12)">
     <defs>
      <path id="DejaVuSans-44" d="M 1259 4147 
L 1259 519 
L 2022 519 
Q 2988 519 3436 956 
Q 3884 1394 3884 2338 
Q 3884 3275 3436 3711 
Q 2988 4147 2022 4147 
L 1259 4147 
z
M 628 4666 
L 1925 4666 
Q 3281 4666 3915 4102 
Q 4550 3538 4550 2338 
Q 4550 1131 3912 565 
Q 3275 0 1925 0 
L 628 0 
L 628 4666 
z
" transform="scale(0.015625)"/>
      <path id="DejaVuSans-65" d="M 3597 1894 
L 3597 1613 
L 953 1613 
Q 991 1019 1311 708 
Q 1631 397 2203 397 
Q 2534 397 2845 478 
Q 3156 559 3463 722 
L 3463 178 
Q 3153 47 2828 -22 
Q 2503 -91 2169 -91 
Q 1331 -91 842 396 
Q 353 884 353 1716 
Q 353 2575 817 3079 
Q 1281 3584 2069 3584 
Q 2775 3584 3186 3129 
Q 3597 2675 3597 1894 
z
M 3022 2063 
Q 3016 2534 2758 2815 
Q 2500 3097 2075 3097 
Q 1594 3097 1305 2825 
Q 1016 2553 972 2059 
L 3022 2063 
z
" transform="scale(0.015625)"/>
      <path id="DejaVuSans-6d" d="M 3328 2828 
Q 3544 3216 3844 3400 
Q 4144 3584 4550 3584 
Q 5097 3584 5394 3201 
Q 5691 2819 5691 2113 
L 5691 0 
L 5113 0 
L 5113 2094 
Q 5113 2597 4934 2840 
Q 4756 3084 4391 3084 
Q 3944 3084 3684 2787 
Q 3425 2491 3425 1978 
L 3425 0 
L 2847 0 
L 2847 2094 
Q 2847 2600 2669 2842 
Q 2491 3084 2119 3084 
Q 1678 3084 1418 2786 
Q 1159 2488 1159 1978 
L 1159 0 
L 581 0 
L 581 3500 
L 1159 3500 
L 1159 2956 
Q 1356 3278 1631 3431 
Q 1906 3584 2284 3584 
Q 2666 3584 2933 3390 
Q 3200 3197 3328 2828 
z
" transform="scale(0.015625)"/>
      <path id="DejaVuSans-6f" d="M 1959 3097 
Q 1497 3097 1228 2736 
Q 959 2375 959 1747 
Q 959 1119 1226 758 
Q 1494 397 1959 397 
Q 2419 397 2687 759 
Q 2956 1122 2956 1747 
Q 2956 2369 2687 2733 
Q 2419 3097 1959 3097 
z
M 1959 3584 
Q 2709 3584 3137 3096 
Q 3566 2609 3566 1747 
Q 3566 888 3137 398 
Q 2709 -91 1959 -91 
Q 1206 -91 779 398 
Q 353 888 353 1747 
Q 353 2609 779 3096 
Q 1206 3584 1959 3584 
z
" transform="scale(0.015625)"/>
      <path id="DejaVuSans-72" d="M 2631 2963 
Q 2534 3019 2420 3045 
Q 2306 3072 2169 3072 
Q 1681 3072 1420 2755 
Q 1159 2438 1159 1844 
L 1159 0 
L 581 0 
L 581 3500 
L 1159 3500 
L 1159 2956 
Q 1341 3275 1631 3429 
Q 1922 3584 2338 3584 
Q 2397 3584 2469 3576 
Q 2541 3569 2628 3553 
L 2631 2963 
z
" transform="scale(0.015625)"/>
      <path id="DejaVuSans-61" d="M 2194 1759 
Q 1497 1759 1228 1600 
Q 959 1441 959 1056 
Q 959 750 1161 570 
Q 1363 391 1709 391 
Q 2188 391 2477 730 
Q 2766 1069 2766 1631 
L 2766 1759 
L 2194 1759 
z
M 3341 1997 
L 3341 0 
L 2766 0 
L 2766 531 
Q 2569 213 2275 61 
Q 1981 -91 1556 -91 
Q 1019 -91 701 211 
Q 384 513 384 1019 
Q 384 1609 779 1909 
Q 1175 2209 1959 2209 
L 2766 2209 
L 2766 2266 
Q 2766 2663 2505 2880 
Q 2244 3097 1772 3097 
Q 1472 3097 1187 3025 
Q 903 2953 641 2809 
L 641 3341 
Q 956 3463 1253 3523 
Q 1550 3584 1831 3584 
Q 2591 3584 2966 3190 
Q 3341 2797 3341 1997 
z
" transform="scale(0.015625)"/>
     </defs>
     <use xlink:href="#DejaVuSans-44"/>
     <use xlink:href="#DejaVuSans-65" x="77.001953"/>
     <use xlink:href="#DejaVuSans-6d" x="138.525391"/>
     <use xlink:href="#DejaVuSans-6f" x="235.9375"/>
     <use xlink:href="#DejaVuSans-72" x="297.119141"/>
     <use xlink:href="#DejaVuSans-61" x="338.232422"/>
    </g>
   </g>
   <g id="legend_1">
    <g id="patch_7">
     <path d="M 227.047554 48.478125 
L 409.255367 48.478125 
Q 411.255367 48.478125 411.255367 46.478125 
L 411.255367 32.8 
Q 411.255367 30.8 409.255367 30.8 
L 227.047554 30.8 
Q 225.047554 30.8 225.047554 32.8 
L 225.047554 46.478125 
Q 225.047554 48.478125 227.047554 48.478125 
z
" style="fill: #ffffff; opacity: 0.8; stroke: #cccccc; stroke-linejoin: miter"/>
    </g>
    <g id="line2d_38">
     <path d="M 229.047554 38.898437 
L 239.047554 38.898437 
L 249.047554 38.898437 
" style="fill: none; stroke: #1f77b4; stroke-width: 1.5; stroke-linecap: square"/>
    </g>
    <g id="text_20">
     <!-- Delay in Network.node[5].app -->
     <g transform="translate(257.047554 42.398437)scale(0.1 -0.1)">
      <defs>
       <path id="DejaVuSans-6c" d="M 603 4863 
L 1178 4863 
L 1178 0 
L 603 0 
L 603 4863 
z
" transform="scale(0.015625)"/>
       <path id="DejaVuSans-79" d="M 2059 -325 
Q 1816 -950 1584 -1140 
Q 1353 -1331 966 -1331 
L 506 -1331 
L 506 -850 
L 844 -850 
Q 1081 -850 1212 -737 
Q 1344 -625 1503 -206 
L 1606 56 
L 191 3500 
L 800 3500 
L 1894 763 
L 2988 3500 
L 3597 3500 
L 2059 -325 
z
" transform="scale(0.015625)"/>
       <path id="DejaVuSans-20" transform="scale(0.015625)"/>
       <path id="DejaVuSans-69" d="M 603 3500 
L 1178 3500 
L 1178 0 
L 603 0 
L 603 3500 
z
M 603 4863 
L 1178 4863 
L 1178 4134 
L 603 4134 
L 603 4863 
z
" transform="scale(0.015625)"/>
       <path id="DejaVuSans-6e" d="M 3513 2113 
L 3513 0 
L 2938 0 
L 2938 2094 
Q 2938 2591 2744 2837 
Q 2550 3084 2163 3084 
Q 1697 3084 1428 2787 
Q 1159 2491 1159 1978 
L 1159 0 
L 581 0 
L 581 3500 
L 1159 3500 
L 1159 2956 
Q 1366 3272 1645 3428 
Q 1925 3584 2291 3584 
Q 2894 3584 3203 3211 
Q 3513 2838 3513 2113 
z
" transform="scale(0.015625)"/>
       <path id="DejaVuSans-4e" d="M 628 4666 
L 1478 4666 
L 3547 763 
L 3547 4666 
L 4159 4666 
L 4159 0 
L 3309 0 
L 1241 3903 
L 1241 0 
L 628 0 
L 628 4666 
z
" transform="scale(0.015625)"/>
       <path id="DejaVuSans-74" d="M 1172 4494 
L 1172 3500 
L 2356 3500 
L 2356 3053 
L 1172 3053 
L 1172 1153 
Q 1172 725 1289 603 
Q 1406 481 1766 481 
L 2356 481 
L 2356 0 
L 1766 0 
Q 1100 0 847 248 
Q 594 497 594 1153 
L 594 3053 
L 172 3053 
L 172 3500 
L 594 3500 
L 594 4494 
L 1172 4494 
z
" transform="scale(0.015625)"/>
       <path id="DejaVuSans-77" d="M 269 3500 
L 844 3500 
L 1563 769 
L 2278 3500 
L 2956 3500 
L 3675 769 
L 4391 3500 
L 4966 3500 
L 4050 0 
L 3372 0 
L 2619 2869 
L 1863 0 
L 1184 0 
L 269 3500 
z
" transform="scale(0.015625)"/>
       <path id="DejaVuSans-6b" d="M 581 4863 
L 1159 4863 
L 1159 1991 
L 2875 3500 
L 3609 3500 
L 1753 1863 
L 3688 0 
L 2938 0 
L 1159 1709 
L 1159 0 
L 581 0 
L 581 4863 
z
" transform="scale(0.015625)"/>
       <path id="DejaVuSans-2e" d="M 684 794 
L 1344 794 
L 1344 0 
L 684 0 
L 684 794 
z
" transform="scale(0.015625)"/>
       <path id="DejaVuSans-64" d="M 2906 2969 
L 2906 4863 
L 3481 4863 
L 3481 0 
L 2906 0 
L 2906 525 
Q 2725 213 2448 61 
Q 2172 -91 1784 -91 
Q 1150 -91 751 415 
Q 353 922 353 1747 
Q 353 2572 751 3078 
Q 1150 3584 1784 3584 
Q 2172 3584 2448 3432 
Q 2725 3281 2906 2969 
z
M 947 1747 
Q 947 1113 1208 752 
Q 1469 391 1925 391 
Q 2381 391 2643 752 
Q 2906 1113 2906 1747 
Q 2906 2381 2643 2742 
Q 2381 3103 1925 3103 
Q 1469 3103 1208 2742 
Q 947 2381 947 1747 
z
" transform="scale(0.015625)"/>
       <path id="DejaVuSans-5b" d="M 550 4863 
L 1875 4863 
L 1875 4416 
L 1125 4416 
L 1125 -397 
L 1875 -397 
L 1875 -844 
L 550 -844 
L 550 4863 
z
" transform="scale(0.015625)"/>
       <path id="DejaVuSans-5d" d="M 1947 4863 
L 1947 -844 
L 622 -844 
L 622 -397 
L 1369 -397 
L 1369 4416 
L 622 4416 
L 622 4863 
L 1947 4863 
z
" transform="scale(0.015625)"/>
       <path id="DejaVuSans-70" d="M 1159 525 
L 1159 -1331 
L 581 -1331 
L 581 3500 
L 1159 3500 
L 1159 2969 
Q 1341 3281 1617 3432 
Q 1894 3584 2278 3584 
Q 2916 3584 3314 3078 
Q 3713 2572 3713 1747 
Q 3713 922 3314 415 
Q 2916 -91 2278 -91 
Q 1894 -91 1617 61 
Q 1341 213 1159 525 
z
M 3116 1747 
Q 3116 2381 2855 2742 
Q 2594 3103 2138 3103 
Q 1681 3103 1420 2742 
Q 1159 2381 1159 1747 
Q 1159 1113 1420 752 
Q 1681 391 2138 391 
Q 2594 391 2855 752 
Q 3116 1113 3116 1747 
z
" transform="scale(0.015625)"/>
      </defs>
      <use xlink:href="#DejaVuSans-44"/>
      <use xlink:href="#DejaVuSans-65" x="77.001953"/>
      <use xlink:href="#DejaVuSans-6c" x="138.525391"/>
      <use xlink:href="#DejaVuSans-61" x="166.308594"/>
      <use xlink:href="#DejaVuSans-79" x="227.587891"/>
      <use xlink:href="#DejaVuSans-20" x="286.767578"/>
      <use xlink:href="#DejaVuSans-69" x="318.554688"/>
      <use xlink:href="#DejaVuSans-6e" x="346.337891"/>
      <use xlink:href="#DejaVuSans-20" x="409.716797"/>
      <use xlink:href="#DejaVuSans-4e" x="441.503906"/>
      <use xlink:href="#DejaVuSans-65" x="516.308594"/>
      <use xlink:href="#DejaVuSans-74" x="577.832031"/>
      <use xlink:href="#DejaVuSans-77" x="617.041016"/>
      <use xlink:href="#DejaVuSans-6f" x="698.828125"/>
      <use xlink:href="#DejaVuSans-72" x="760.009766"/>
      <use xlink:href="#DejaVuSans-6b" x="801.123047"/>
      <use xlink:href="#DejaVuSans-2e" x="859.033203"/>
      <use xlink:href="#DejaVuSans-6e" x="890.820312"/>
      <use xlink:href="#DejaVuSans-6f" x="954.199219"/>
      <use xlink:href="#DejaVuSans-64" x="1015.380859"/>
      <use xlink:href="#DejaVuSans-65" x="1078.857422"/>
      <use xlink:href="#DejaVuSans-5b" x="1140.380859"/>
      <use xlink:href="#DejaVuSans-35" x="1179.394531"/>
      <use xlink:href="#DejaVuSans-5d" x="1243.017578"/>
      <use xlink:href="#DejaVuSans-2e" x="1282.03125"/>
      <use xlink:href="#DejaVuSans-61" x="1313.818359"/>
      <use xlink:href="#DejaVuSans-70" x="1375.097656"/>
      <use xlink:href="#DejaVuSans-70" x="1438.574219"/>
     </g>
    </g>
   </g>
  </g>
 </g>
 <defs>
  <clipPath id="p153d13f40e">
   <rect x="37.01875" y="25.8" width="379.236617" height="234.65"/>
  </clipPath>
 </defs>
</svg>
