<?xml version="1.0" encoding="utf-8" standalone="no"?>
<!DOCTYPE svg PUBLIC "-//W3C//DTD SVG 1.1//EN"
  "http://www.w3.org/Graphics/SVG/1.1/DTD/svg11.dtd">
<svg xmlns:xlink="http://www.w3.org/1999/xlink" width="432pt" height="288pt" viewBox="0 0 432 288" xmlns="http://www.w3.org/2000/svg" version="1.1">
 <metadata>
  <rdf:RDF xmlns:dc="http://purl.org/dc/elements/1.1/" xmlns:cc="http://creativecommons.org/ns#" xmlns:rdf="http://www.w3.org/1999/02/22-rdf-syntax-ns#">
   <cc:Work>
    <dc:type rdf:resource="http://purl.org/dc/dcmitype/StillImage"/>
    <dc:date>2022-06-20T20:22:58.732429</dc:date>
    <dc:format>image/svg+xml</dc:format>
    <dc:creator>
     <cc:Agent>
      <dc:title>omnetpp.scave 6.0.0; Matplotlib 3.5.1 w/ backend GTK3Agg; Pandas 1.4.2; Python 3.8.10; Linux-5.4.0-109-generic-x86_64-with-glibc2.29</dc:title>
     </cc:Agent>
    </dc:creator>
   </cc:Work>
  </rdf:RDF>
 </metadata>
 <defs>
  <style type="text/css">*{stroke-linejoin: round; stroke-linecap: butt}</style>
 </defs>
 <g id="figure_1">
  <g id="patch_1">
   <path d="M 0 288 
L 432 288 
L 432 0 
L 0 0 
z
" style="fill: #ffffff"/>
  </g>
  <g id="axes_1">
   <g id="patch_2">
    <path d="M 50.76875 246.7 
L 416.088414 246.7 
L 416.088414 25.8 
L 50.76875 25.8 
z
" style="fill: #ffffff"/>
   </g>
   <g id="matplotlib.axis_1">
    <g id="xtick_1">
     <g id="line2d_1">
      <path d="M 50.76875 246.7 
L 50.76875 25.8 
" clip-path="url(#p458ec25e9d)" style="fill: none; stroke: #b0b0b0; stroke-width: 0.8; stroke-linecap: square"/>
     </g>
     <g id="line2d_2">
      <defs>
       <path id="ma86651987b" d="M 0 0 
L 0 3.5 
" style="stroke: #000000; stroke-width: 0.8"/>
      </defs>
      <g>
       <use xlink:href="#ma86651987b" x="50.76875" y="246.7" style="stroke: #000000; stroke-width: 0.8"/>
      </g>
     </g>
     <g id="text_1">
      <!-- 0 -->
      <g transform="translate(47.5875 261.298437)scale(0.1 -0.1)">
       <defs>
        <path id="DejaVuSans-30" d="M 2034 4250 
Q 1547 4250 1301 3770 
Q 1056 3291 1056 2328 
Q 1056 1369 1301 889 
Q 1547 409 2034 409 
Q 2525 409 2770 889 
Q 3016 1369 3016 2328 
Q 3016 3291 2770 3770 
Q 2525 4250 2034 4250 
z
M 2034 4750 
Q 2819 4750 3233 4129 
Q 3647 3509 3647 2328 
Q 3647 1150 3233 529 
Q 2819 -91 2034 -91 
Q 1250 -91 836 529 
Q 422 1150 422 2328 
Q 422 3509 836 4129 
Q 1250 4750 2034 4750 
z
" transform="scale(0.015625)"/>
       </defs>
       <use xlink:href="#DejaVuSans-30"/>
      </g>
     </g>
    </g>
    <g id="xtick_2">
     <g id="line2d_3">
      <path d="M 95.879243 246.7 
L 95.879243 25.8 
" clip-path="url(#p458ec25e9d)" style="fill: none; stroke: #b0b0b0; stroke-width: 0.8; stroke-linecap: square"/>
     </g>
     <g id="line2d_4">
      <g>
       <use xlink:href="#ma86651987b" x="95.879243" y="246.7" style="stroke: #000000; stroke-width: 0.8"/>
      </g>
     </g>
     <g id="text_2">
      <!-- 25 -->
      <g transform="translate(89.516743 261.298437)scale(0.1 -0.1)">
       <defs>
        <path id="DejaVuSans-32" d="M 1228 531 
L 3431 531 
L 3431 0 
L 469 0 
L 469 531 
Q 828 903 1448 1529 
Q 2069 2156 2228 2338 
Q 2531 2678 2651 2914 
Q 2772 3150 2772 3378 
Q 2772 3750 2511 3984 
Q 2250 4219 1831 4219 
Q 1534 4219 1204 4116 
Q 875 4013 500 3803 
L 500 4441 
Q 881 4594 1212 4672 
Q 1544 4750 1819 4750 
Q 2544 4750 2975 4387 
Q 3406 4025 3406 3419 
Q 3406 3131 3298 2873 
Q 3191 2616 2906 2266 
Q 2828 2175 2409 1742 
Q 1991 1309 1228 531 
z
" transform="scale(0.015625)"/>
        <path id="DejaVuSans-35" d="M 691 4666 
L 3169 4666 
L 3169 4134 
L 1269 4134 
L 1269 2991 
Q 1406 3038 1543 3061 
Q 1681 3084 1819 3084 
Q 2600 3084 3056 2656 
Q 3513 2228 3513 1497 
Q 3513 744 3044 326 
Q 2575 -91 1722 -91 
Q 1428 -91 1123 -41 
Q 819 9 494 109 
L 494 744 
Q 775 591 1075 516 
Q 1375 441 1709 441 
Q 2250 441 2565 725 
Q 2881 1009 2881 1497 
Q 2881 1984 2565 2268 
Q 2250 2553 1709 2553 
Q 1456 2553 1204 2497 
Q 953 2441 691 2322 
L 691 4666 
z
" transform="scale(0.015625)"/>
       </defs>
       <use xlink:href="#DejaVuSans-32"/>
       <use xlink:href="#DejaVuSans-35" x="63.623047"/>
      </g>
     </g>
    </g>
    <g id="xtick_3">
     <g id="line2d_5">
      <path d="M 140.989735 246.7 
L 140.989735 25.8 
" clip-path="url(#p458ec25e9d)" style="fill: none; stroke: #b0b0b0; stroke-width: 0.8; stroke-linecap: square"/>
     </g>
     <g id="line2d_6">
      <g>
       <use xlink:href="#ma86651987b" x="140.989735" y="246.7" style="stroke: #000000; stroke-width: 0.8"/>
      </g>
     </g>
     <g id="text_3">
      <!-- 50 -->
      <g transform="translate(134.627235 261.298437)scale(0.1 -0.1)">
       <use xlink:href="#DejaVuSans-35"/>
       <use xlink:href="#DejaVuSans-30" x="63.623047"/>
      </g>
     </g>
    </g>
    <g id="xtick_4">
     <g id="line2d_7">
      <path d="M 186.100228 246.7 
L 186.100228 25.8 
" clip-path="url(#p458ec25e9d)" style="fill: none; stroke: #b0b0b0; stroke-width: 0.8; stroke-linecap: square"/>
     </g>
     <g id="line2d_8">
      <g>
       <use xlink:href="#ma86651987b" x="186.100228" y="246.7" style="stroke: #000000; stroke-width: 0.8"/>
      </g>
     </g>
     <g id="text_4">
      <!-- 75 -->
      <g transform="translate(179.737728 261.298437)scale(0.1 -0.1)">
       <defs>
        <path id="DejaVuSans-37" d="M 525 4666 
L 3525 4666 
L 3525 4397 
L 1831 0 
L 1172 0 
L 2766 4134 
L 525 4134 
L 525 4666 
z
" transform="scale(0.015625)"/>
       </defs>
       <use xlink:href="#DejaVuSans-37"/>
       <use xlink:href="#DejaVuSans-35" x="63.623047"/>
      </g>
     </g>
    </g>
    <g id="xtick_5">
     <g id="line2d_9">
      <path d="M 231.21072 246.7 
L 231.21072 25.8 
" clip-path="url(#p458ec25e9d)" style="fill: none; stroke: #b0b0b0; stroke-width: 0.8; stroke-linecap: square"/>
     </g>
     <g id="line2d_10">
      <g>
       <use xlink:href="#ma86651987b" x="231.21072" y="246.7" style="stroke: #000000; stroke-width: 0.8"/>
      </g>
     </g>
     <g id="text_5">
      <!-- 100 -->
      <g transform="translate(221.66697 261.298437)scale(0.1 -0.1)">
       <defs>
        <path id="DejaVuSans-31" d="M 794 531 
L 1825 531 
L 1825 4091 
L 703 3866 
L 703 4441 
L 1819 4666 
L 2450 4666 
L 2450 531 
L 3481 531 
L 3481 0 
L 794 0 
L 794 531 
z
" transform="scale(0.015625)"/>
       </defs>
       <use xlink:href="#DejaVuSans-31"/>
       <use xlink:href="#DejaVuSans-30" x="63.623047"/>
       <use xlink:href="#DejaVuSans-30" x="127.246094"/>
      </g>
     </g>
    </g>
    <g id="xtick_6">
     <g id="line2d_11">
      <path d="M 276.321213 246.7 
L 276.321213 25.8 
" clip-path="url(#p458ec25e9d)" style="fill: none; stroke: #b0b0b0; stroke-width: 0.8; stroke-linecap: square"/>
     </g>
     <g id="line2d_12">
      <g>
       <use xlink:href="#ma86651987b" x="276.321213" y="246.7" style="stroke: #000000; stroke-width: 0.8"/>
      </g>
     </g>
     <g id="text_6">
      <!-- 125 -->
      <g transform="translate(266.777463 261.298437)scale(0.1 -0.1)">
       <use xlink:href="#DejaVuSans-31"/>
       <use xlink:href="#DejaVuSans-32" x="63.623047"/>
       <use xlink:href="#DejaVuSans-35" x="127.246094"/>
      </g>
     </g>
    </g>
    <g id="xtick_7">
     <g id="line2d_13">
      <path d="M 321.431705 246.7 
L 321.431705 25.8 
" clip-path="url(#p458ec25e9d)" style="fill: none; stroke: #b0b0b0; stroke-width: 0.8; stroke-linecap: square"/>
     </g>
     <g id="line2d_14">
      <g>
       <use xlink:href="#ma86651987b" x="321.431705" y="246.7" style="stroke: #000000; stroke-width: 0.8"/>
      </g>
     </g>
     <g id="text_7">
      <!-- 150 -->
      <g transform="translate(311.887955 261.298437)scale(0.1 -0.1)">
       <use xlink:href="#DejaVuSans-31"/>
       <use xlink:href="#DejaVuSans-35" x="63.623047"/>
       <use xlink:href="#DejaVuSans-30" x="127.246094"/>
      </g>
     </g>
    </g>
    <g id="xtick_8">
     <g id="line2d_15">
      <path d="M 366.542198 246.7 
L 366.542198 25.8 
" clip-path="url(#p458ec25e9d)" style="fill: none; stroke: #b0b0b0; stroke-width: 0.8; stroke-linecap: square"/>
     </g>
     <g id="line2d_16">
      <g>
       <use xlink:href="#ma86651987b" x="366.542198" y="246.7" style="stroke: #000000; stroke-width: 0.8"/>
      </g>
     </g>
     <g id="text_8">
      <!-- 175 -->
      <g transform="translate(356.998448 261.298437)scale(0.1 -0.1)">
       <use xlink:href="#DejaVuSans-31"/>
       <use xlink:href="#DejaVuSans-37" x="63.623047"/>
       <use xlink:href="#DejaVuSans-35" x="127.246094"/>
      </g>
     </g>
    </g>
    <g id="xtick_9">
     <g id="line2d_17">
      <path d="M 411.65269 246.7 
L 411.65269 25.8 
" clip-path="url(#p458ec25e9d)" style="fill: none; stroke: #b0b0b0; stroke-width: 0.8; stroke-linecap: square"/>
     </g>
     <g id="line2d_18">
      <g>
       <use xlink:href="#ma86651987b" x="411.65269" y="246.7" style="stroke: #000000; stroke-width: 0.8"/>
      </g>
     </g>
     <g id="text_9">
      <!-- 200 -->
      <g transform="translate(402.10894 261.298437)scale(0.1 -0.1)">
       <use xlink:href="#DejaVuSans-32"/>
       <use xlink:href="#DejaVuSans-30" x="63.623047"/>
       <use xlink:href="#DejaVuSans-30" x="127.246094"/>
      </g>
     </g>
    </g>
    <g id="text_10">
     <!-- Tiempo -->
     <g transform="translate(214.961394 274.976562)scale(0.1 -0.1)">
      <defs>
       <path id="DejaVuSans-54" d="M -19 4666 
L 3928 4666 
L 3928 4134 
L 2272 4134 
L 2272 0 
L 1638 0 
L 1638 4134 
L -19 4134 
L -19 4666 
z
" transform="scale(0.015625)"/>
       <path id="DejaVuSans-69" d="M 603 3500 
L 1178 3500 
L 1178 0 
L 603 0 
L 603 3500 
z
M 603 4863 
L 1178 4863 
L 1178 4134 
L 603 4134 
L 603 4863 
z
" transform="scale(0.015625)"/>
       <path id="DejaVuSans-65" d="M 3597 1894 
L 3597 1613 
L 953 1613 
Q 991 1019 1311 708 
Q 1631 397 2203 397 
Q 2534 397 2845 478 
Q 3156 559 3463 722 
L 3463 178 
Q 3153 47 2828 -22 
Q 2503 -91 2169 -91 
Q 1331 -91 842 396 
Q 353 884 353 1716 
Q 353 2575 817 3079 
Q 1281 3584 2069 3584 
Q 2775 3584 3186 3129 
Q 3597 2675 3597 1894 
z
M 3022 2063 
Q 3016 2534 2758 2815 
Q 2500 3097 2075 3097 
Q 1594 3097 1305 2825 
Q 1016 2553 972 2059 
L 3022 2063 
z
" transform="scale(0.015625)"/>
       <path id="DejaVuSans-6d" d="M 3328 2828 
Q 3544 3216 3844 3400 
Q 4144 3584 4550 3584 
Q 5097 3584 5394 3201 
Q 5691 2819 5691 2113 
L 5691 0 
L 5113 0 
L 5113 2094 
Q 5113 2597 4934 2840 
Q 4756 3084 4391 3084 
Q 3944 3084 3684 2787 
Q 3425 2491 3425 1978 
L 3425 0 
L 2847 0 
L 2847 2094 
Q 2847 2600 2669 2842 
Q 2491 3084 2119 3084 
Q 1678 3084 1418 2786 
Q 1159 2488 1159 1978 
L 1159 0 
L 581 0 
L 581 3500 
L 1159 3500 
L 1159 2956 
Q 1356 3278 1631 3431 
Q 1906 3584 2284 3584 
Q 2666 3584 2933 3390 
Q 3200 3197 3328 2828 
z
" transform="scale(0.015625)"/>
       <path id="DejaVuSans-70" d="M 1159 525 
L 1159 -1331 
L 581 -1331 
L 581 3500 
L 1159 3500 
L 1159 2969 
Q 1341 3281 1617 3432 
Q 1894 3584 2278 3584 
Q 2916 3584 3314 3078 
Q 3713 2572 3713 1747 
Q 3713 922 3314 415 
Q 2916 -91 2278 -91 
Q 1894 -91 1617 61 
Q 1341 213 1159 525 
z
M 3116 1747 
Q 3116 2381 2855 2742 
Q 2594 3103 2138 3103 
Q 1681 3103 1420 2742 
Q 1159 2381 1159 1747 
Q 1159 1113 1420 752 
Q 1681 391 2138 391 
Q 2594 391 2855 752 
Q 3116 1113 3116 1747 
z
" transform="scale(0.015625)"/>
       <path id="DejaVuSans-6f" d="M 1959 3097 
Q 1497 3097 1228 2736 
Q 959 2375 959 1747 
Q 959 1119 1226 758 
Q 1494 397 1959 397 
Q 2419 397 2687 759 
Q 2956 1122 2956 1747 
Q 2956 2369 2687 2733 
Q 2419 3097 1959 3097 
z
M 1959 3584 
Q 2709 3584 3137 3096 
Q 3566 2609 3566 1747 
Q 3566 888 3137 398 
Q 2709 -91 1959 -91 
Q 1206 -91 779 398 
Q 353 888 353 1747 
Q 353 2609 779 3096 
Q 1206 3584 1959 3584 
z
" transform="scale(0.015625)"/>
      </defs>
      <use xlink:href="#DejaVuSans-54"/>
      <use xlink:href="#DejaVuSans-69" x="57.958984"/>
      <use xlink:href="#DejaVuSans-65" x="85.742188"/>
      <use xlink:href="#DejaVuSans-6d" x="147.265625"/>
      <use xlink:href="#DejaVuSans-70" x="244.677734"/>
      <use xlink:href="#DejaVuSans-6f" x="308.154297"/>
     </g>
    </g>
   </g>
   <g id="matplotlib.axis_2">
    <g id="ytick_1">
     <g id="line2d_19">
      <path d="M 50.76875 246.7 
L 416.088414 246.7 
" clip-path="url(#p458ec25e9d)" style="fill: none; stroke: #b0b0b0; stroke-width: 0.8; stroke-linecap: square"/>
     </g>
     <g id="line2d_20">
      <defs>
       <path id="m9fc9865ec2" d="M 0 0 
L -3.5 0 
" style="stroke: #000000; stroke-width: 0.8"/>
      </defs>
      <g>
       <use xlink:href="#m9fc9865ec2" x="50.76875" y="246.7" style="stroke: #000000; stroke-width: 0.8"/>
      </g>
     </g>
     <g id="text_11">
      <!-- 0 -->
      <g transform="translate(37.40625 250.499219)scale(0.1 -0.1)">
       <use xlink:href="#DejaVuSans-30"/>
      </g>
     </g>
    </g>
    <g id="ytick_2">
     <g id="line2d_21">
      <path d="M 50.76875 197.706452 
L 416.088414 197.706452 
" clip-path="url(#p458ec25e9d)" style="fill: none; stroke: #b0b0b0; stroke-width: 0.8; stroke-linecap: square"/>
     </g>
     <g id="line2d_22">
      <g>
       <use xlink:href="#m9fc9865ec2" x="50.76875" y="197.706452" style="stroke: #000000; stroke-width: 0.8"/>
      </g>
     </g>
     <g id="text_12">
      <!-- 50 -->
      <g transform="translate(31.04375 201.505671)scale(0.1 -0.1)">
       <use xlink:href="#DejaVuSans-35"/>
       <use xlink:href="#DejaVuSans-30" x="63.623047"/>
      </g>
     </g>
    </g>
    <g id="ytick_3">
     <g id="line2d_23">
      <path d="M 50.76875 148.712904 
L 416.088414 148.712904 
" clip-path="url(#p458ec25e9d)" style="fill: none; stroke: #b0b0b0; stroke-width: 0.8; stroke-linecap: square"/>
     </g>
     <g id="line2d_24">
      <g>
       <use xlink:href="#m9fc9865ec2" x="50.76875" y="148.712904" style="stroke: #000000; stroke-width: 0.8"/>
      </g>
     </g>
     <g id="text_13">
      <!-- 100 -->
      <g transform="translate(24.68125 152.512123)scale(0.1 -0.1)">
       <use xlink:href="#DejaVuSans-31"/>
       <use xlink:href="#DejaVuSans-30" x="63.623047"/>
       <use xlink:href="#DejaVuSans-30" x="127.246094"/>
      </g>
     </g>
    </g>
    <g id="ytick_4">
     <g id="line2d_25">
      <path d="M 50.76875 99.719356 
L 416.088414 99.719356 
" clip-path="url(#p458ec25e9d)" style="fill: none; stroke: #b0b0b0; stroke-width: 0.8; stroke-linecap: square"/>
     </g>
     <g id="line2d_26">
      <g>
       <use xlink:href="#m9fc9865ec2" x="50.76875" y="99.719356" style="stroke: #000000; stroke-width: 0.8"/>
      </g>
     </g>
     <g id="text_14">
      <!-- 150 -->
      <g transform="translate(24.68125 103.518575)scale(0.1 -0.1)">
       <use xlink:href="#DejaVuSans-31"/>
       <use xlink:href="#DejaVuSans-35" x="63.623047"/>
       <use xlink:href="#DejaVuSans-30" x="127.246094"/>
      </g>
     </g>
    </g>
    <g id="ytick_5">
     <g id="line2d_27">
      <path d="M 50.76875 50.725808 
L 416.088414 50.725808 
" clip-path="url(#p458ec25e9d)" style="fill: none; stroke: #b0b0b0; stroke-width: 0.8; stroke-linecap: square"/>
     </g>
     <g id="line2d_28">
      <g>
       <use xlink:href="#m9fc9865ec2" x="50.76875" y="50.725808" style="stroke: #000000; stroke-width: 0.8"/>
      </g>
     </g>
     <g id="text_15">
      <!-- 200 -->
      <g transform="translate(24.68125 54.525027)scale(0.1 -0.1)">
       <use xlink:href="#DejaVuSans-32"/>
       <use xlink:href="#DejaVuSans-30" x="63.623047"/>
       <use xlink:href="#DejaVuSans-30" x="127.246094"/>
      </g>
     </g>
    </g>
    <g id="text_16">
     <!-- Tiempo -->
     <g transform="translate(18.601562 154.717187)rotate(-90)scale(0.1 -0.1)">
      <use xlink:href="#DejaVuSans-54"/>
      <use xlink:href="#DejaVuSans-69" x="57.958984"/>
      <use xlink:href="#DejaVuSans-65" x="85.742188"/>
      <use xlink:href="#DejaVuSans-6d" x="147.265625"/>
      <use xlink:href="#DejaVuSans-70" x="244.677734"/>
      <use xlink:href="#DejaVuSans-6f" x="308.154297"/>
     </g>
    </g>
   </g>
   <g id="line2d_29">
    <path d="M 53.448725 245.720031 
L 54.33628 245.720031 
L 55.253145 244.79737 
L 56.140699 245.214028 
L 57.057564 243.630977 
L 57.945119 244.644091 
L 58.861984 243.185528 
L 59.749539 244.791602 
L 60.666404 245.105943 
L 61.553959 243.901057 
L 62.470823 242.870131 
L 63.358378 242.9412 
L 64.275243 243.294388 
L 65.162798 242.411333 
L 66.079663 239.577992 
L 66.967218 240.385457 
L 67.884083 239.234495 
L 69.688502 242.35402 
L 70.576057 240.947194 
L 71.492922 242.094319 
L 72.380477 237.934674 
L 73.297342 237.032406 
L 74.184896 240.56038 
L 75.101761 241.135448 
L 77.793736 236.018647 
L 78.710601 239.700492 
L 79.598156 238.870326 
L 80.51502 232.368776 
L 81.402575 238.19155 
L 82.31944 239.049162 
L 84.12386 235.239147 
L 85.011415 237.690106 
L 85.92828 231.945278 
L 87.732699 234.134167 
L 88.620254 232.139232 
L 89.537119 237.949663 
L 90.424674 228.625995 
L 91.341539 232.897401 
L 92.229093 236.052657 
L 93.145958 236.907141 
L 94.033513 235.256439 
L 94.950378 229.255119 
L 95.837933 234.411818 
L 96.754798 230.55461 
L 97.642353 228.725887 
L 98.559217 228.854002 
L 99.446772 233.813159 
L 100.363637 236.116333 
L 102.168057 228.557026 
L 103.055612 232.841146 
L 103.972477 226.116442 
L 105.776896 227.719373 
L 107.581316 235.12391 
L 108.468871 230.700463 
L 109.385736 234.200212 
L 110.27329 223.259544 
L 111.190155 220.559621 
L 112.07771 229.144919 
L 112.994575 232.82834 
L 113.88213 228.538923 
L 114.798995 231.868253 
L 115.68655 227.704771 
L 116.603414 230.927554 
L 117.490969 226.939375 
L 118.407834 221.937068 
L 119.295389 218.519062 
L 120.212254 229.538957 
L 121.099809 225.430387 
L 122.016674 228.99554 
L 123.821093 219.228908 
L 125.625513 227.678247 
L 127.429933 213.617255 
L 128.317487 222.579856 
L 129.234352 216.660629 
L 130.121907 213.567771 
L 131.038772 227.192144 
L 131.926327 213.024451 
L 132.843192 215.086086 
L 134.647611 225.551194 
L 135.535166 208.246255 
L 136.452031 224.580535 
L 137.339586 221.354068 
L 138.256451 207.880383 
L 139.144006 220.43916 
L 140.060871 223.69948 
L 140.948425 219.698765 
L 141.86529 205.939228 
L 142.752845 209.424749 
L 143.66971 223.543957 
L 144.557265 218.894477 
L 145.47413 204.363371 
L 146.361684 203.1055 
L 147.278549 203.629881 
L 148.166104 217.660583 
L 149.082969 210.63208 
L 149.970524 216.765736 
L 150.887389 199.154075 
L 151.774944 204.563788 
L 152.691808 221.85382 
L 153.579363 204.149621 
L 154.496228 200.18912 
L 155.383783 203.275218 
L 156.300648 221.321572 
L 157.188203 215.442181 
L 158.105068 207.515913 
L 159.909487 219.730006 
L 160.797042 214.592274 
L 161.713907 196.85535 
L 162.601462 200.392268 
L 163.518327 205.27454 
L 164.405882 214.015154 
L 165.322746 192.180119 
L 166.210301 193.150339 
L 167.127166 219.107171 
L 168.014721 213.172081 
L 168.931586 203.652114 
L 169.819141 196.758985 
L 170.736005 218.090432 
L 171.62356 196.394416 
L 172.540425 190.653066 
L 173.42798 211.410507 
L 174.344845 216.957592 
L 175.2324 210.925489 
L 176.149265 190.188414 
L 177.036819 210.227243 
L 177.953684 216.032447 
L 178.841239 192.644575 
L 179.758104 215.348071 
L 180.645659 191.779305 
L 181.562524 197.936402 
L 183.366943 214.142905 
L 184.254498 208.399618 
L 185.171363 213.74515 
L 186.975783 195.816057 
L 187.863338 207.451884 
L 188.780202 182.764609 
L 189.667757 206.823715 
L 190.584622 194.553247 
L 191.472177 206.317745 
L 192.389042 212.294237 
L 193.276597 185.966781 
L 194.193462 181.477946 
L 195.997881 192.454261 
L 196.885436 205.443159 
L 197.802301 211.316313 
L 198.689856 184.091572 
L 199.606721 190.633005 
L 200.494276 203.583678 
L 201.41114 210.611133 
L 202.298695 182.230831 
L 203.21556 177.406022 
L 204.103115 175.481185 
L 205.01998 209.088662 
L 205.907535 202.824194 
L 207.711954 173.955922 
L 208.628819 187.055788 
L 210.433239 173.716123 
L 211.320794 180.833132 
L 212.237659 207.995725 
L 213.125213 171.459311 
L 214.042078 207.905542 
L 215.846498 183.924902 
L 216.734053 179.974997 
L 217.650918 206.625046 
L 218.538473 169.505322 
L 219.455337 205.911375 
L 220.342892 201.614436 
L 221.259757 168.00927 
L 222.147312 177.132049 
L 223.064177 180.313805 
L 223.951732 201.013081 
L 224.868596 179.66743 
L 225.756151 200.448339 
L 226.673016 178.967822 
L 228.477436 165.776327 
L 229.364991 199.406872 
L 230.281856 204.81307 
L 231.16941 198.458707 
L 232.086275 176.869324 
L 232.97383 162.703785 
L 233.890695 176.136792 
L 234.77825 196.6753 
L 235.695115 203.959279 
L 236.58267 171.782252 
L 237.499534 161.977532 
L 238.387089 195.667485 
L 239.303954 202.591948 
L 241.108374 162.482896 
L 241.995929 169.33963 
L 242.912793 201.861164 
L 243.800348 195.394442 
L 244.717213 201.025918 
L 245.604768 194.661105 
L 246.521633 158.76388 
L 247.409188 166.404629 
L 248.326053 170.474614 
L 249.213607 193.527374 
L 250.130472 199.478098 
L 251.018027 164.600041 
L 251.934892 198.882898 
L 252.822447 192.6858 
L 253.739312 168.055041 
L 255.543731 158.330132 
L 256.431286 162.486541 
L 257.348151 197.685636 
L 258.235706 162.063142 
L 259.152571 158.333307 
L 260.95699 196.865595 
L 261.844545 191.457722 
L 262.76141 165.242321 
L 263.648965 159.617721 
L 264.56583 195.192907 
L 265.453385 189.797434 
L 266.37025 194.581889 
L 268.174669 152.881609 
L 269.062224 157.676263 
L 269.979089 193.337676 
L 270.866644 188.948438 
L 271.783509 192.585649 
L 272.671064 188.334806 
L 273.587928 160.109627 
L 274.475483 187.668077 
L 275.392348 191.910491 
L 276.279903 154.341154 
L 277.196768 191.053136 
L 279.001187 148.789299 
L 279.888742 186.295983 
L 280.805607 190.19424 
L 281.693162 185.571506 
L 282.610027 156.155312 
L 284.414447 189.051101 
L 286.218866 145.735168 
L 287.106421 184.711911 
L 288.023286 154.4494 
L 289.827706 187.366139 
L 290.715261 183.770456 
L 291.632125 186.471623 
L 292.51968 149.287966 
L 293.436545 141.349397 
L 294.3241 182.524574 
L 295.240965 185.867353 
L 296.12852 133.88833 
L 297.045384 149.978276 
L 297.932939 181.759294 
L 298.849804 185.015765 
L 299.737359 180.809727 
L 300.654224 184.360143 
L 302.458644 147.072178 
L 304.263063 183.26551 
L 305.150618 179.216793 
L 306.067483 136.258598 
L 306.955038 144.511554 
L 307.871903 145.170258 
L 308.759458 178.546195 
L 309.676322 144.639337 
L 310.563877 177.630126 
L 311.480742 132.003124 
L 313.285162 182.083809 
L 314.172717 176.465198 
L 315.089581 132.19137 
L 315.977136 140.449087 
L 316.894001 181.332131 
L 317.781556 139.714263 
L 318.698421 180.365317 
L 319.585976 138.88362 
L 320.502841 140.367979 
L 322.30726 140.00882 
L 323.194815 175.638158 
L 324.11168 127.87271 
L 324.999235 136.504946 
L 325.9161 127.695385 
L 327.720519 179.051954 
L 328.608074 174.271688 
L 329.524939 138.074465 
L 330.412494 173.967374 
L 331.329359 177.594607 
L 332.216914 133.777984 
L 333.133778 124.809105 
L 334.021333 132.9016 
L 334.938198 124.931865 
L 335.825753 172.482127 
L 336.742618 176.596991 
L 337.630173 131.044629 
L 338.547038 134.788682 
L 339.434592 114.560503 
L 340.351457 176.094738 
L 342.155877 175.373818 
L 343.043432 129.33241 
L 343.960297 174.447749 
L 344.847852 171.700052 
L 345.764716 118.909806 
L 346.652271 127.41018 
L 347.569136 130.423217 
L 348.456691 170.259604 
L 349.373556 172.775254 
L 350.261111 169.715922 
L 351.177976 116.983016 
L 352.06553 169.133078 
L 352.982395 171.907958 
L 353.86995 123.664452 
L 354.786815 116.079413 
L 355.67437 167.256213 
L 356.591235 171.315008 
L 357.478789 166.628404 
L 358.395654 113.206352 
L 360.200074 170.011096 
L 361.087629 166.131249 
L 362.004494 126.219532 
L 362.892049 165.232572 
L 363.808913 169.216907 
L 364.696468 118.480855 
L 365.613333 168.463799 
L 366.500888 163.364815 
L 367.417753 110.133951 
L 368.305308 116.699977 
L 369.222173 108.00892 
L 370.109727 162.513678 
L 371.026592 167.002043 
L 371.914147 162.068482 
L 372.831012 107.527165 
L 374.635432 122.186917 
L 376.439851 166.243705 
L 377.327406 161.059271 
L 378.244271 165.451279 
L 379.131826 112.666758 
L 380.048691 102.621894 
L 380.936246 112.279023 
L 381.85311 164.507904 
L 382.740665 159.995956 
L 383.65753 163.698721 
L 385.46195 102.02321 
L 386.349505 159.156884 
L 387.26637 161.891139 
L 388.153924 108.805294 
L 389.070789 116.30492 
L 389.958344 157.800663 
L 390.875209 161.052169 
L 391.762764 156.899259 
L 392.679629 96.393937 
L 393.567183 106.12273 
L 394.484048 159.939955 
L 395.371603 155.560689 
L 396.288468 112.883078 
L 397.176023 104.174534 
L 398.092888 159.24225 
L 399.897307 158.761332 
L 400.784862 154.721037 
L 401.701727 110.533033 
L 402.589282 154.059792 
L 403.506147 91.572305 
L 404.393702 153.215097 
L 405.310567 157.000223 
L 406.198121 152.391037 
L 407.114986 89.718926 
L 408.002541 80.780008 
L 408.919406 156.467722 
L 409.806961 98.734088 
L 410.723826 87.854156 
L 411.61138 97.938722 
L 411.61138 97.938722 
" clip-path="url(#p458ec25e9d)" style="fill: none; stroke: #1f77b4; stroke-width: 1.5; stroke-linecap: square"/>
   </g>
   <g id="patch_3">
    <path d="M 50.76875 246.7 
L 50.76875 25.8 
" style="fill: none; stroke: #000000; stroke-width: 0.8; stroke-linejoin: miter; stroke-linecap: square"/>
   </g>
   <g id="patch_4">
    <path d="M 416.088414 246.7 
L 416.088414 25.8 
" style="fill: none; stroke: #000000; stroke-width: 0.8; stroke-linejoin: miter; stroke-linecap: square"/>
   </g>
   <g id="patch_5">
    <path d="M 50.76875 246.7 
L 416.088414 246.7 
" style="fill: none; stroke: #000000; stroke-width: 0.8; stroke-linejoin: miter; stroke-linecap: square"/>
   </g>
   <g id="patch_6">
    <path d="M 50.76875 25.8 
L 416.088414 25.8 
" style="fill: none; stroke: #000000; stroke-width: 0.8; stroke-linejoin: miter; stroke-linecap: square"/>
   </g>
   <g id="text_17">
    <!-- Demora -->
    <g transform="translate(209.457644 19.8)scale(0.12 -0.12)">
     <defs>
      <path id="DejaVuSans-44" d="M 1259 4147 
L 1259 519 
L 2022 519 
Q 2988 519 3436 956 
Q 3884 1394 3884 2338 
Q 3884 3275 3436 3711 
Q 2988 4147 2022 4147 
L 1259 4147 
z
M 628 4666 
L 1925 4666 
Q 3281 4666 3915 4102 
Q 4550 3538 4550 2338 
Q 4550 1131 3912 565 
Q 3275 0 1925 0 
L 628 0 
L 628 4666 
z
" transform="scale(0.015625)"/>
      <path id="DejaVuSans-72" d="M 2631 2963 
Q 2534 3019 2420 3045 
Q 2306 3072 2169 3072 
Q 1681 3072 1420 2755 
Q 1159 2438 1159 1844 
L 1159 0 
L 581 0 
L 581 3500 
L 1159 3500 
L 1159 2956 
Q 1341 3275 1631 3429 
Q 1922 3584 2338 3584 
Q 2397 3584 2469 3576 
Q 2541 3569 2628 3553 
L 2631 2963 
z
" transform="scale(0.015625)"/>
      <path id="DejaVuSans-61" d="M 2194 1759 
Q 1497 1759 1228 1600 
Q 959 1441 959 1056 
Q 959 750 1161 570 
Q 1363 391 1709 391 
Q 2188 391 2477 730 
Q 2766 1069 2766 1631 
L 2766 1759 
L 2194 1759 
z
M 3341 1997 
L 3341 0 
L 2766 0 
L 2766 531 
Q 2569 213 2275 61 
Q 1981 -91 1556 -91 
Q 1019 -91 701 211 
Q 384 513 384 1019 
Q 384 1609 779 1909 
Q 1175 2209 1959 2209 
L 2766 2209 
L 2766 2266 
Q 2766 2663 2505 2880 
Q 2244 3097 1772 3097 
Q 1472 3097 1187 3025 
Q 903 2953 641 2809 
L 641 3341 
Q 956 3463 1253 3523 
Q 1550 3584 1831 3584 
Q 2591 3584 2966 3190 
Q 3341 2797 3341 1997 
z
" transform="scale(0.015625)"/>
     </defs>
     <use xlink:href="#DejaVuSans-44"/>
     <use xlink:href="#DejaVuSans-65" x="77.001953"/>
     <use xlink:href="#DejaVuSans-6d" x="138.525391"/>
     <use xlink:href="#DejaVuSans-6f" x="235.9375"/>
     <use xlink:href="#DejaVuSans-72" x="297.119141"/>
     <use xlink:href="#DejaVuSans-61" x="338.232422"/>
    </g>
   </g>
   <g id="legend_1">
    <g id="patch_7">
     <path d="M 226.880601 48.478125 
L 409.088414 48.478125 
Q 411.088414 48.478125 411.088414 46.478125 
L 411.088414 32.8 
Q 411.088414 30.8 409.088414 30.8 
L 226.880601 30.8 
Q 224.880601 30.8 224.880601 32.8 
L 224.880601 46.478125 
Q 224.880601 48.478125 226.880601 48.478125 
z
" style="fill: #ffffff; opacity: 0.8; stroke: #cccccc; stroke-linejoin: miter"/>
    </g>
    <g id="line2d_30">
     <path d="M 228.880601 38.898437 
L 238.880601 38.898437 
L 248.880601 38.898437 
" style="fill: none; stroke: #1f77b4; stroke-width: 1.5; stroke-linecap: square"/>
    </g>
    <g id="text_18">
     <!-- Delay in Network.node[5].app -->
     <g transform="translate(256.880601 42.398437)scale(0.1 -0.1)">
      <defs>
       <path id="DejaVuSans-6c" d="M 603 4863 
L 1178 4863 
L 1178 0 
L 603 0 
L 603 4863 
z
" transform="scale(0.015625)"/>
       <path id="DejaVuSans-79" d="M 2059 -325 
Q 1816 -950 1584 -1140 
Q 1353 -1331 966 -1331 
L 506 -1331 
L 506 -850 
L 844 -850 
Q 1081 -850 1212 -737 
Q 1344 -625 1503 -206 
L 1606 56 
L 191 3500 
L 800 3500 
L 1894 763 
L 2988 3500 
L 3597 3500 
L 2059 -325 
z
" transform="scale(0.015625)"/>
       <path id="DejaVuSans-20" transform="scale(0.015625)"/>
       <path id="DejaVuSans-6e" d="M 3513 2113 
L 3513 0 
L 2938 0 
L 2938 2094 
Q 2938 2591 2744 2837 
Q 2550 3084 2163 3084 
Q 1697 3084 1428 2787 
Q 1159 2491 1159 1978 
L 1159 0 
L 581 0 
L 581 3500 
L 1159 3500 
L 1159 2956 
Q 1366 3272 1645 3428 
Q 1925 3584 2291 3584 
Q 2894 3584 3203 3211 
Q 3513 2838 3513 2113 
z
" transform="scale(0.015625)"/>
       <path id="DejaVuSans-4e" d="M 628 4666 
L 1478 4666 
L 3547 763 
L 3547 4666 
L 4159 4666 
L 4159 0 
L 3309 0 
L 1241 3903 
L 1241 0 
L 628 0 
L 628 4666 
z
" transform="scale(0.015625)"/>
       <path id="DejaVuSans-74" d="M 1172 4494 
L 1172 3500 
L 2356 3500 
L 2356 3053 
L 1172 3053 
L 1172 1153 
Q 1172 725 1289 603 
Q 1406 481 1766 481 
L 2356 481 
L 2356 0 
L 1766 0 
Q 1100 0 847 248 
Q 594 497 594 1153 
L 594 3053 
L 172 3053 
L 172 3500 
L 594 3500 
L 594 4494 
L 1172 4494 
z
" transform="scale(0.015625)"/>
       <path id="DejaVuSans-77" d="M 269 3500 
L 844 3500 
L 1563 769 
L 2278 3500 
L 2956 3500 
L 3675 769 
L 4391 3500 
L 4966 3500 
L 4050 0 
L 3372 0 
L 2619 2869 
L 1863 0 
L 1184 0 
L 269 3500 
z
" transform="scale(0.015625)"/>
       <path id="DejaVuSans-6b" d="M 581 4863 
L 1159 4863 
L 1159 1991 
L 2875 3500 
L 3609 3500 
L 1753 1863 
L 3688 0 
L 2938 0 
L 1159 1709 
L 1159 0 
L 581 0 
L 581 4863 
z
" transform="scale(0.015625)"/>
       <path id="DejaVuSans-2e" d="M 684 794 
L 1344 794 
L 1344 0 
L 684 0 
L 684 794 
z
" transform="scale(0.015625)"/>
       <path id="DejaVuSans-64" d="M 2906 2969 
L 2906 4863 
L 3481 4863 
L 3481 0 
L 2906 0 
L 2906 525 
Q 2725 213 2448 61 
Q 2172 -91 1784 -91 
Q 1150 -91 751 415 
Q 353 922 353 1747 
Q 353 2572 751 3078 
Q 1150 3584 1784 3584 
Q 2172 3584 2448 3432 
Q 2725 3281 2906 2969 
z
M 947 1747 
Q 947 1113 1208 752 
Q 1469 391 1925 391 
Q 2381 391 2643 752 
Q 2906 1113 2906 1747 
Q 2906 2381 2643 2742 
Q 2381 3103 1925 3103 
Q 1469 3103 1208 2742 
Q 947 2381 947 1747 
z
" transform="scale(0.015625)"/>
       <path id="DejaVuSans-5b" d="M 550 4863 
L 1875 4863 
L 1875 4416 
L 1125 4416 
L 1125 -397 
L 1875 -397 
L 1875 -844 
L 550 -844 
L 550 4863 
z
" transform="scale(0.015625)"/>
       <path id="DejaVuSans-5d" d="M 1947 4863 
L 1947 -844 
L 622 -844 
L 622 -397 
L 1369 -397 
L 1369 4416 
L 622 4416 
L 622 4863 
L 1947 4863 
z
" transform="scale(0.015625)"/>
      </defs>
      <use xlink:href="#DejaVuSans-44"/>
      <use xlink:href="#DejaVuSans-65" x="77.001953"/>
      <use xlink:href="#DejaVuSans-6c" x="138.525391"/>
      <use xlink:href="#DejaVuSans-61" x="166.308594"/>
      <use xlink:href="#DejaVuSans-79" x="227.587891"/>
      <use xlink:href="#DejaVuSans-20" x="286.767578"/>
      <use xlink:href="#DejaVuSans-69" x="318.554688"/>
      <use xlink:href="#DejaVuSans-6e" x="346.337891"/>
      <use xlink:href="#DejaVuSans-20" x="409.716797"/>
      <use xlink:href="#DejaVuSans-4e" x="441.503906"/>
      <use xlink:href="#DejaVuSans-65" x="516.308594"/>
      <use xlink:href="#DejaVuSans-74" x="577.832031"/>
      <use xlink:href="#DejaVuSans-77" x="617.041016"/>
      <use xlink:href="#DejaVuSans-6f" x="698.828125"/>
      <use xlink:href="#DejaVuSans-72" x="760.009766"/>
      <use xlink:href="#DejaVuSans-6b" x="801.123047"/>
      <use xlink:href="#DejaVuSans-2e" x="859.033203"/>
      <use xlink:href="#DejaVuSans-6e" x="890.820312"/>
      <use xlink:href="#DejaVuSans-6f" x="954.199219"/>
      <use xlink:href="#DejaVuSans-64" x="1015.380859"/>
      <use xlink:href="#DejaVuSans-65" x="1078.857422"/>
      <use xlink:href="#DejaVuSans-5b" x="1140.380859"/>
      <use xlink:href="#DejaVuSans-35" x="1179.394531"/>
      <use xlink:href="#DejaVuSans-5d" x="1243.017578"/>
      <use xlink:href="#DejaVuSans-2e" x="1282.03125"/>
      <use xlink:href="#DejaVuSans-61" x="1313.818359"/>
      <use xlink:href="#DejaVuSans-70" x="1375.097656"/>
      <use xlink:href="#DejaVuSans-70" x="1438.574219"/>
     </g>
    </g>
   </g>
  </g>
 </g>
 <defs>
  <clipPath id="p458ec25e9d">
   <rect x="50.76875" y="25.8" width="365.319664" height="220.9"/>
  </clipPath>
 </defs>
</svg>
