<?xml version="1.0" encoding="utf-8" standalone="no"?>
<!DOCTYPE svg PUBLIC "-//W3C//DTD SVG 1.1//EN"
  "http://www.w3.org/Graphics/SVG/1.1/DTD/svg11.dtd">
<svg xmlns:xlink="http://www.w3.org/1999/xlink" width="432pt" height="288pt" viewBox="0 0 432 288" xmlns="http://www.w3.org/2000/svg" version="1.1">
 <metadata>
  <rdf:RDF xmlns:dc="http://purl.org/dc/elements/1.1/" xmlns:cc="http://creativecommons.org/ns#" xmlns:rdf="http://www.w3.org/1999/02/22-rdf-syntax-ns#">
   <cc:Work>
    <dc:type rdf:resource="http://purl.org/dc/dcmitype/StillImage"/>
    <dc:date>2022-06-21T15:34:51.771526</dc:date>
    <dc:format>image/svg+xml</dc:format>
    <dc:creator>
     <cc:Agent>
      <dc:title>omnetpp.scave 6.0.0; Matplotlib 3.5.1 w/ backend GTK3Agg; Pandas 1.4.2; Python 3.8.10; Linux-5.4.0-109-generic-x86_64-with-glibc2.29</dc:title>
     </cc:Agent>
    </dc:creator>
   </cc:Work>
  </rdf:RDF>
 </metadata>
 <defs>
  <style type="text/css">*{stroke-linejoin: round; stroke-linecap: butt}</style>
 </defs>
 <g id="figure_1">
  <g id="patch_1">
   <path d="M 0 288 
L 432 288 
L 432 0 
L 0 0 
z
" style="fill: #ffffff"/>
  </g>
  <g id="axes_1">
   <g id="patch_2">
    <path d="M 50.76875 246.7 
L 416.088414 246.7 
L 416.088414 25.8 
L 50.76875 25.8 
z
" style="fill: #ffffff"/>
   </g>
   <g id="matplotlib.axis_1">
    <g id="xtick_1">
     <g id="line2d_1">
      <path d="M 50.76875 246.7 
L 50.76875 25.8 
" clip-path="url(#p0f14d49579)" style="fill: none; stroke: #b0b0b0; stroke-width: 0.8; stroke-linecap: square"/>
     </g>
     <g id="line2d_2">
      <defs>
       <path id="mbb63e67196" d="M 0 0 
L 0 3.5 
" style="stroke: #000000; stroke-width: 0.8"/>
      </defs>
      <g>
       <use xlink:href="#mbb63e67196" x="50.76875" y="246.7" style="stroke: #000000; stroke-width: 0.8"/>
      </g>
     </g>
     <g id="text_1">
      <!-- 0 -->
      <g transform="translate(47.5875 261.298437)scale(0.1 -0.1)">
       <defs>
        <path id="DejaVuSans-30" d="M 2034 4250 
Q 1547 4250 1301 3770 
Q 1056 3291 1056 2328 
Q 1056 1369 1301 889 
Q 1547 409 2034 409 
Q 2525 409 2770 889 
Q 3016 1369 3016 2328 
Q 3016 3291 2770 3770 
Q 2525 4250 2034 4250 
z
M 2034 4750 
Q 2819 4750 3233 4129 
Q 3647 3509 3647 2328 
Q 3647 1150 3233 529 
Q 2819 -91 2034 -91 
Q 1250 -91 836 529 
Q 422 1150 422 2328 
Q 422 3509 836 4129 
Q 1250 4750 2034 4750 
z
" transform="scale(0.015625)"/>
       </defs>
       <use xlink:href="#DejaVuSans-30"/>
      </g>
     </g>
    </g>
    <g id="xtick_2">
     <g id="line2d_3">
      <path d="M 95.879243 246.7 
L 95.879243 25.8 
" clip-path="url(#p0f14d49579)" style="fill: none; stroke: #b0b0b0; stroke-width: 0.8; stroke-linecap: square"/>
     </g>
     <g id="line2d_4">
      <g>
       <use xlink:href="#mbb63e67196" x="95.879243" y="246.7" style="stroke: #000000; stroke-width: 0.8"/>
      </g>
     </g>
     <g id="text_2">
      <!-- 25 -->
      <g transform="translate(89.516743 261.298437)scale(0.1 -0.1)">
       <defs>
        <path id="DejaVuSans-32" d="M 1228 531 
L 3431 531 
L 3431 0 
L 469 0 
L 469 531 
Q 828 903 1448 1529 
Q 2069 2156 2228 2338 
Q 2531 2678 2651 2914 
Q 2772 3150 2772 3378 
Q 2772 3750 2511 3984 
Q 2250 4219 1831 4219 
Q 1534 4219 1204 4116 
Q 875 4013 500 3803 
L 500 4441 
Q 881 4594 1212 4672 
Q 1544 4750 1819 4750 
Q 2544 4750 2975 4387 
Q 3406 4025 3406 3419 
Q 3406 3131 3298 2873 
Q 3191 2616 2906 2266 
Q 2828 2175 2409 1742 
Q 1991 1309 1228 531 
z
" transform="scale(0.015625)"/>
        <path id="DejaVuSans-35" d="M 691 4666 
L 3169 4666 
L 3169 4134 
L 1269 4134 
L 1269 2991 
Q 1406 3038 1543 3061 
Q 1681 3084 1819 3084 
Q 2600 3084 3056 2656 
Q 3513 2228 3513 1497 
Q 3513 744 3044 326 
Q 2575 -91 1722 -91 
Q 1428 -91 1123 -41 
Q 819 9 494 109 
L 494 744 
Q 775 591 1075 516 
Q 1375 441 1709 441 
Q 2250 441 2565 725 
Q 2881 1009 2881 1497 
Q 2881 1984 2565 2268 
Q 2250 2553 1709 2553 
Q 1456 2553 1204 2497 
Q 953 2441 691 2322 
L 691 4666 
z
" transform="scale(0.015625)"/>
       </defs>
       <use xlink:href="#DejaVuSans-32"/>
       <use xlink:href="#DejaVuSans-35" x="63.623047"/>
      </g>
     </g>
    </g>
    <g id="xtick_3">
     <g id="line2d_5">
      <path d="M 140.989735 246.7 
L 140.989735 25.8 
" clip-path="url(#p0f14d49579)" style="fill: none; stroke: #b0b0b0; stroke-width: 0.8; stroke-linecap: square"/>
     </g>
     <g id="line2d_6">
      <g>
       <use xlink:href="#mbb63e67196" x="140.989735" y="246.7" style="stroke: #000000; stroke-width: 0.8"/>
      </g>
     </g>
     <g id="text_3">
      <!-- 50 -->
      <g transform="translate(134.627235 261.298437)scale(0.1 -0.1)">
       <use xlink:href="#DejaVuSans-35"/>
       <use xlink:href="#DejaVuSans-30" x="63.623047"/>
      </g>
     </g>
    </g>
    <g id="xtick_4">
     <g id="line2d_7">
      <path d="M 186.100228 246.7 
L 186.100228 25.8 
" clip-path="url(#p0f14d49579)" style="fill: none; stroke: #b0b0b0; stroke-width: 0.8; stroke-linecap: square"/>
     </g>
     <g id="line2d_8">
      <g>
       <use xlink:href="#mbb63e67196" x="186.100228" y="246.7" style="stroke: #000000; stroke-width: 0.8"/>
      </g>
     </g>
     <g id="text_4">
      <!-- 75 -->
      <g transform="translate(179.737728 261.298437)scale(0.1 -0.1)">
       <defs>
        <path id="DejaVuSans-37" d="M 525 4666 
L 3525 4666 
L 3525 4397 
L 1831 0 
L 1172 0 
L 2766 4134 
L 525 4134 
L 525 4666 
z
" transform="scale(0.015625)"/>
       </defs>
       <use xlink:href="#DejaVuSans-37"/>
       <use xlink:href="#DejaVuSans-35" x="63.623047"/>
      </g>
     </g>
    </g>
    <g id="xtick_5">
     <g id="line2d_9">
      <path d="M 231.21072 246.7 
L 231.21072 25.8 
" clip-path="url(#p0f14d49579)" style="fill: none; stroke: #b0b0b0; stroke-width: 0.8; stroke-linecap: square"/>
     </g>
     <g id="line2d_10">
      <g>
       <use xlink:href="#mbb63e67196" x="231.21072" y="246.7" style="stroke: #000000; stroke-width: 0.8"/>
      </g>
     </g>
     <g id="text_5">
      <!-- 100 -->
      <g transform="translate(221.66697 261.298437)scale(0.1 -0.1)">
       <defs>
        <path id="DejaVuSans-31" d="M 794 531 
L 1825 531 
L 1825 4091 
L 703 3866 
L 703 4441 
L 1819 4666 
L 2450 4666 
L 2450 531 
L 3481 531 
L 3481 0 
L 794 0 
L 794 531 
z
" transform="scale(0.015625)"/>
       </defs>
       <use xlink:href="#DejaVuSans-31"/>
       <use xlink:href="#DejaVuSans-30" x="63.623047"/>
       <use xlink:href="#DejaVuSans-30" x="127.246094"/>
      </g>
     </g>
    </g>
    <g id="xtick_6">
     <g id="line2d_11">
      <path d="M 276.321213 246.7 
L 276.321213 25.8 
" clip-path="url(#p0f14d49579)" style="fill: none; stroke: #b0b0b0; stroke-width: 0.8; stroke-linecap: square"/>
     </g>
     <g id="line2d_12">
      <g>
       <use xlink:href="#mbb63e67196" x="276.321213" y="246.7" style="stroke: #000000; stroke-width: 0.8"/>
      </g>
     </g>
     <g id="text_6">
      <!-- 125 -->
      <g transform="translate(266.777463 261.298437)scale(0.1 -0.1)">
       <use xlink:href="#DejaVuSans-31"/>
       <use xlink:href="#DejaVuSans-32" x="63.623047"/>
       <use xlink:href="#DejaVuSans-35" x="127.246094"/>
      </g>
     </g>
    </g>
    <g id="xtick_7">
     <g id="line2d_13">
      <path d="M 321.431705 246.7 
L 321.431705 25.8 
" clip-path="url(#p0f14d49579)" style="fill: none; stroke: #b0b0b0; stroke-width: 0.8; stroke-linecap: square"/>
     </g>
     <g id="line2d_14">
      <g>
       <use xlink:href="#mbb63e67196" x="321.431705" y="246.7" style="stroke: #000000; stroke-width: 0.8"/>
      </g>
     </g>
     <g id="text_7">
      <!-- 150 -->
      <g transform="translate(311.887955 261.298437)scale(0.1 -0.1)">
       <use xlink:href="#DejaVuSans-31"/>
       <use xlink:href="#DejaVuSans-35" x="63.623047"/>
       <use xlink:href="#DejaVuSans-30" x="127.246094"/>
      </g>
     </g>
    </g>
    <g id="xtick_8">
     <g id="line2d_15">
      <path d="M 366.542198 246.7 
L 366.542198 25.8 
" clip-path="url(#p0f14d49579)" style="fill: none; stroke: #b0b0b0; stroke-width: 0.8; stroke-linecap: square"/>
     </g>
     <g id="line2d_16">
      <g>
       <use xlink:href="#mbb63e67196" x="366.542198" y="246.7" style="stroke: #000000; stroke-width: 0.8"/>
      </g>
     </g>
     <g id="text_8">
      <!-- 175 -->
      <g transform="translate(356.998448 261.298437)scale(0.1 -0.1)">
       <use xlink:href="#DejaVuSans-31"/>
       <use xlink:href="#DejaVuSans-37" x="63.623047"/>
       <use xlink:href="#DejaVuSans-35" x="127.246094"/>
      </g>
     </g>
    </g>
    <g id="xtick_9">
     <g id="line2d_17">
      <path d="M 411.65269 246.7 
L 411.65269 25.8 
" clip-path="url(#p0f14d49579)" style="fill: none; stroke: #b0b0b0; stroke-width: 0.8; stroke-linecap: square"/>
     </g>
     <g id="line2d_18">
      <g>
       <use xlink:href="#mbb63e67196" x="411.65269" y="246.7" style="stroke: #000000; stroke-width: 0.8"/>
      </g>
     </g>
     <g id="text_9">
      <!-- 200 -->
      <g transform="translate(402.10894 261.298437)scale(0.1 -0.1)">
       <use xlink:href="#DejaVuSans-32"/>
       <use xlink:href="#DejaVuSans-30" x="63.623047"/>
       <use xlink:href="#DejaVuSans-30" x="127.246094"/>
      </g>
     </g>
    </g>
    <g id="text_10">
     <!-- Tiempo -->
     <g transform="translate(214.961394 274.976562)scale(0.1 -0.1)">
      <defs>
       <path id="DejaVuSans-54" d="M -19 4666 
L 3928 4666 
L 3928 4134 
L 2272 4134 
L 2272 0 
L 1638 0 
L 1638 4134 
L -19 4134 
L -19 4666 
z
" transform="scale(0.015625)"/>
       <path id="DejaVuSans-69" d="M 603 3500 
L 1178 3500 
L 1178 0 
L 603 0 
L 603 3500 
z
M 603 4863 
L 1178 4863 
L 1178 4134 
L 603 4134 
L 603 4863 
z
" transform="scale(0.015625)"/>
       <path id="DejaVuSans-65" d="M 3597 1894 
L 3597 1613 
L 953 1613 
Q 991 1019 1311 708 
Q 1631 397 2203 397 
Q 2534 397 2845 478 
Q 3156 559 3463 722 
L 3463 178 
Q 3153 47 2828 -22 
Q 2503 -91 2169 -91 
Q 1331 -91 842 396 
Q 353 884 353 1716 
Q 353 2575 817 3079 
Q 1281 3584 2069 3584 
Q 2775 3584 3186 3129 
Q 3597 2675 3597 1894 
z
M 3022 2063 
Q 3016 2534 2758 2815 
Q 2500 3097 2075 3097 
Q 1594 3097 1305 2825 
Q 1016 2553 972 2059 
L 3022 2063 
z
" transform="scale(0.015625)"/>
       <path id="DejaVuSans-6d" d="M 3328 2828 
Q 3544 3216 3844 3400 
Q 4144 3584 4550 3584 
Q 5097 3584 5394 3201 
Q 5691 2819 5691 2113 
L 5691 0 
L 5113 0 
L 5113 2094 
Q 5113 2597 4934 2840 
Q 4756 3084 4391 3084 
Q 3944 3084 3684 2787 
Q 3425 2491 3425 1978 
L 3425 0 
L 2847 0 
L 2847 2094 
Q 2847 2600 2669 2842 
Q 2491 3084 2119 3084 
Q 1678 3084 1418 2786 
Q 1159 2488 1159 1978 
L 1159 0 
L 581 0 
L 581 3500 
L 1159 3500 
L 1159 2956 
Q 1356 3278 1631 3431 
Q 1906 3584 2284 3584 
Q 2666 3584 2933 3390 
Q 3200 3197 3328 2828 
z
" transform="scale(0.015625)"/>
       <path id="DejaVuSans-70" d="M 1159 525 
L 1159 -1331 
L 581 -1331 
L 581 3500 
L 1159 3500 
L 1159 2969 
Q 1341 3281 1617 3432 
Q 1894 3584 2278 3584 
Q 2916 3584 3314 3078 
Q 3713 2572 3713 1747 
Q 3713 922 3314 415 
Q 2916 -91 2278 -91 
Q 1894 -91 1617 61 
Q 1341 213 1159 525 
z
M 3116 1747 
Q 3116 2381 2855 2742 
Q 2594 3103 2138 3103 
Q 1681 3103 1420 2742 
Q 1159 2381 1159 1747 
Q 1159 1113 1420 752 
Q 1681 391 2138 391 
Q 2594 391 2855 752 
Q 3116 1113 3116 1747 
z
" transform="scale(0.015625)"/>
       <path id="DejaVuSans-6f" d="M 1959 3097 
Q 1497 3097 1228 2736 
Q 959 2375 959 1747 
Q 959 1119 1226 758 
Q 1494 397 1959 397 
Q 2419 397 2687 759 
Q 2956 1122 2956 1747 
Q 2956 2369 2687 2733 
Q 2419 3097 1959 3097 
z
M 1959 3584 
Q 2709 3584 3137 3096 
Q 3566 2609 3566 1747 
Q 3566 888 3137 398 
Q 2709 -91 1959 -91 
Q 1206 -91 779 398 
Q 353 888 353 1747 
Q 353 2609 779 3096 
Q 1206 3584 1959 3584 
z
" transform="scale(0.015625)"/>
      </defs>
      <use xlink:href="#DejaVuSans-54"/>
      <use xlink:href="#DejaVuSans-69" x="57.958984"/>
      <use xlink:href="#DejaVuSans-65" x="85.742188"/>
      <use xlink:href="#DejaVuSans-6d" x="147.265625"/>
      <use xlink:href="#DejaVuSans-70" x="244.677734"/>
      <use xlink:href="#DejaVuSans-6f" x="308.154297"/>
     </g>
    </g>
   </g>
   <g id="matplotlib.axis_2">
    <g id="ytick_1">
     <g id="line2d_19">
      <path d="M 50.76875 246.7 
L 416.088414 246.7 
" clip-path="url(#p0f14d49579)" style="fill: none; stroke: #b0b0b0; stroke-width: 0.8; stroke-linecap: square"/>
     </g>
     <g id="line2d_20">
      <defs>
       <path id="ma4f8a77e52" d="M 0 0 
L -3.5 0 
" style="stroke: #000000; stroke-width: 0.8"/>
      </defs>
      <g>
       <use xlink:href="#ma4f8a77e52" x="50.76875" y="246.7" style="stroke: #000000; stroke-width: 0.8"/>
      </g>
     </g>
     <g id="text_11">
      <!-- 0 -->
      <g transform="translate(37.40625 250.499219)scale(0.1 -0.1)">
       <use xlink:href="#DejaVuSans-30"/>
      </g>
     </g>
    </g>
    <g id="ytick_2">
     <g id="line2d_21">
      <path d="M 50.76875 221.110585 
L 416.088414 221.110585 
" clip-path="url(#p0f14d49579)" style="fill: none; stroke: #b0b0b0; stroke-width: 0.8; stroke-linecap: square"/>
     </g>
     <g id="line2d_22">
      <g>
       <use xlink:href="#ma4f8a77e52" x="50.76875" y="221.110585" style="stroke: #000000; stroke-width: 0.8"/>
      </g>
     </g>
     <g id="text_12">
      <!-- 25 -->
      <g transform="translate(31.04375 224.909804)scale(0.1 -0.1)">
       <use xlink:href="#DejaVuSans-32"/>
       <use xlink:href="#DejaVuSans-35" x="63.623047"/>
      </g>
     </g>
    </g>
    <g id="ytick_3">
     <g id="line2d_23">
      <path d="M 50.76875 195.52117 
L 416.088414 195.52117 
" clip-path="url(#p0f14d49579)" style="fill: none; stroke: #b0b0b0; stroke-width: 0.8; stroke-linecap: square"/>
     </g>
     <g id="line2d_24">
      <g>
       <use xlink:href="#ma4f8a77e52" x="50.76875" y="195.52117" style="stroke: #000000; stroke-width: 0.8"/>
      </g>
     </g>
     <g id="text_13">
      <!-- 50 -->
      <g transform="translate(31.04375 199.320389)scale(0.1 -0.1)">
       <use xlink:href="#DejaVuSans-35"/>
       <use xlink:href="#DejaVuSans-30" x="63.623047"/>
      </g>
     </g>
    </g>
    <g id="ytick_4">
     <g id="line2d_25">
      <path d="M 50.76875 169.931755 
L 416.088414 169.931755 
" clip-path="url(#p0f14d49579)" style="fill: none; stroke: #b0b0b0; stroke-width: 0.8; stroke-linecap: square"/>
     </g>
     <g id="line2d_26">
      <g>
       <use xlink:href="#ma4f8a77e52" x="50.76875" y="169.931755" style="stroke: #000000; stroke-width: 0.8"/>
      </g>
     </g>
     <g id="text_14">
      <!-- 75 -->
      <g transform="translate(31.04375 173.730974)scale(0.1 -0.1)">
       <use xlink:href="#DejaVuSans-37"/>
       <use xlink:href="#DejaVuSans-35" x="63.623047"/>
      </g>
     </g>
    </g>
    <g id="ytick_5">
     <g id="line2d_27">
      <path d="M 50.76875 144.34234 
L 416.088414 144.34234 
" clip-path="url(#p0f14d49579)" style="fill: none; stroke: #b0b0b0; stroke-width: 0.8; stroke-linecap: square"/>
     </g>
     <g id="line2d_28">
      <g>
       <use xlink:href="#ma4f8a77e52" x="50.76875" y="144.34234" style="stroke: #000000; stroke-width: 0.8"/>
      </g>
     </g>
     <g id="text_15">
      <!-- 100 -->
      <g transform="translate(24.68125 148.141559)scale(0.1 -0.1)">
       <use xlink:href="#DejaVuSans-31"/>
       <use xlink:href="#DejaVuSans-30" x="63.623047"/>
       <use xlink:href="#DejaVuSans-30" x="127.246094"/>
      </g>
     </g>
    </g>
    <g id="ytick_6">
     <g id="line2d_29">
      <path d="M 50.76875 118.752925 
L 416.088414 118.752925 
" clip-path="url(#p0f14d49579)" style="fill: none; stroke: #b0b0b0; stroke-width: 0.8; stroke-linecap: square"/>
     </g>
     <g id="line2d_30">
      <g>
       <use xlink:href="#ma4f8a77e52" x="50.76875" y="118.752925" style="stroke: #000000; stroke-width: 0.8"/>
      </g>
     </g>
     <g id="text_16">
      <!-- 125 -->
      <g transform="translate(24.68125 122.552143)scale(0.1 -0.1)">
       <use xlink:href="#DejaVuSans-31"/>
       <use xlink:href="#DejaVuSans-32" x="63.623047"/>
       <use xlink:href="#DejaVuSans-35" x="127.246094"/>
      </g>
     </g>
    </g>
    <g id="ytick_7">
     <g id="line2d_31">
      <path d="M 50.76875 93.16351 
L 416.088414 93.16351 
" clip-path="url(#p0f14d49579)" style="fill: none; stroke: #b0b0b0; stroke-width: 0.8; stroke-linecap: square"/>
     </g>
     <g id="line2d_32">
      <g>
       <use xlink:href="#ma4f8a77e52" x="50.76875" y="93.16351" style="stroke: #000000; stroke-width: 0.8"/>
      </g>
     </g>
     <g id="text_17">
      <!-- 150 -->
      <g transform="translate(24.68125 96.962728)scale(0.1 -0.1)">
       <use xlink:href="#DejaVuSans-31"/>
       <use xlink:href="#DejaVuSans-35" x="63.623047"/>
       <use xlink:href="#DejaVuSans-30" x="127.246094"/>
      </g>
     </g>
    </g>
    <g id="ytick_8">
     <g id="line2d_33">
      <path d="M 50.76875 67.574095 
L 416.088414 67.574095 
" clip-path="url(#p0f14d49579)" style="fill: none; stroke: #b0b0b0; stroke-width: 0.8; stroke-linecap: square"/>
     </g>
     <g id="line2d_34">
      <g>
       <use xlink:href="#ma4f8a77e52" x="50.76875" y="67.574095" style="stroke: #000000; stroke-width: 0.8"/>
      </g>
     </g>
     <g id="text_18">
      <!-- 175 -->
      <g transform="translate(24.68125 71.373313)scale(0.1 -0.1)">
       <use xlink:href="#DejaVuSans-31"/>
       <use xlink:href="#DejaVuSans-37" x="63.623047"/>
       <use xlink:href="#DejaVuSans-35" x="127.246094"/>
      </g>
     </g>
    </g>
    <g id="ytick_9">
     <g id="line2d_35">
      <path d="M 50.76875 41.98468 
L 416.088414 41.98468 
" clip-path="url(#p0f14d49579)" style="fill: none; stroke: #b0b0b0; stroke-width: 0.8; stroke-linecap: square"/>
     </g>
     <g id="line2d_36">
      <g>
       <use xlink:href="#ma4f8a77e52" x="50.76875" y="41.98468" style="stroke: #000000; stroke-width: 0.8"/>
      </g>
     </g>
     <g id="text_19">
      <!-- 200 -->
      <g transform="translate(24.68125 45.783898)scale(0.1 -0.1)">
       <use xlink:href="#DejaVuSans-32"/>
       <use xlink:href="#DejaVuSans-30" x="63.623047"/>
       <use xlink:href="#DejaVuSans-30" x="127.246094"/>
      </g>
     </g>
    </g>
    <g id="text_20">
     <!-- Tiempo -->
     <g transform="translate(18.601562 154.717187)rotate(-90)scale(0.1 -0.1)">
      <use xlink:href="#DejaVuSans-54"/>
      <use xlink:href="#DejaVuSans-69" x="57.958984"/>
      <use xlink:href="#DejaVuSans-65" x="85.742188"/>
      <use xlink:href="#DejaVuSans-6d" x="147.265625"/>
      <use xlink:href="#DejaVuSans-70" x="244.677734"/>
      <use xlink:href="#DejaVuSans-6f" x="308.154297"/>
     </g>
    </g>
   </g>
   <g id="line2d_37">
    <path d="M 53.448725 245.676321 
L 54.33628 245.676321 
L 55.253145 244.712506 
L 56.140699 245.147748 
L 57.057564 243.494087 
L 57.945119 244.552391 
L 58.861984 243.028771 
L 59.749539 244.70648 
L 60.666404 245.034842 
L 61.553959 243.776214 
L 62.470823 242.699305 
L 63.358378 242.773545 
L 64.275243 243.142486 
L 65.162798 242.220044 
L 66.079663 239.260326 
L 66.967218 240.103806 
L 67.884083 238.901508 
L 69.688502 242.160174 
L 70.576057 240.690599 
L 71.492922 241.88889 
L 72.380477 237.54371 
L 73.297342 236.601198 
L 74.184896 240.286532 
L 75.101761 240.88725 
L 77.793736 235.542221 
L 78.710601 239.388289 
L 79.598156 238.521095 
L 80.51502 231.729554 
L 81.402575 237.812044 
L 82.31944 238.707908 
L 84.12386 234.727953 
L 85.011415 237.288233 
L 85.92828 231.287166 
L 87.732699 233.573687 
L 88.620254 231.489771 
L 89.537119 237.559368 
L 90.424674 227.819832 
L 91.341539 232.281757 
L 92.229093 235.577748 
L 93.145958 236.470346 
L 94.033513 234.746016 
L 94.950378 228.605859 
L 95.837933 233.863723 
L 96.754798 229.834469 
L 97.642353 227.924179 
L 98.559217 228.058009 
L 99.446772 233.238361 
L 100.363637 235.644265 
L 102.168057 227.747787 
L 103.055612 232.222993 
L 103.972477 225.198344 
L 105.776896 226.872771 
L 107.581316 234.607576 
L 108.468871 229.986828 
L 109.385736 233.642678 
L 110.27329 222.214019 
L 111.190155 221.35384 
L 112.07771 228.361901 
L 112.994575 232.209616 
L 113.88213 227.728876 
L 114.798995 231.206706 
L 115.68655 226.857518 
L 116.603414 230.224048 
L 117.490969 226.057982 
L 118.407834 220.832556 
L 119.295389 217.262095 
L 120.212254 228.773515 
L 121.099809 224.481689 
L 122.016674 228.20586 
L 123.821093 218.003602 
L 125.625513 226.829811 
L 127.429933 210.339858 
L 128.317487 221.504014 
L 129.234352 215.320768 
L 130.121907 212.089959 
L 131.038772 226.322026 
L 131.926327 211.522404 
L 132.843192 213.675996 
L 134.647611 224.607884 
L 135.535166 205.454857 
L 136.452031 223.59393 
L 137.339586 220.223552 
L 138.256451 206.148894 
L 139.144006 219.267835 
L 140.060871 222.673577 
L 140.948425 218.494416 
L 141.86529 204.121156 
L 142.752845 207.762143 
L 143.66971 222.511117 
L 144.557265 217.654254 
L 145.47413 202.475011 
L 146.361684 201.161035 
L 147.278549 201.708804 
L 148.166104 216.365324 
L 149.082969 209.023325 
L 149.970524 215.430564 
L 150.887389 197.822371 
L 151.774944 202.684367 
L 152.691808 220.745594 
L 153.579363 202.251726 
L 154.496228 198.114573 
L 155.383783 201.338322 
L 156.300648 220.189606 
L 157.188203 214.047974 
L 158.105068 205.768166 
L 159.909487 218.527051 
L 160.797042 213.160158 
L 161.713907 194.632106 
L 162.601462 198.326782 
L 163.518327 203.42682 
L 164.405882 212.557297 
L 165.322746 189.748343 
L 166.210301 190.761839 
L 167.127166 217.876435 
L 168.014721 211.67662 
L 168.931586 201.732029 
L 169.819141 194.531443 
L 170.736005 216.814346 
L 171.62356 194.150612 
L 172.540425 188.153178 
L 173.42798 209.836473 
L 174.344845 215.630978 
L 175.2324 209.329822 
L 176.149265 198.832107 
L 177.036819 208.600432 
L 177.953684 214.664568 
L 178.841239 190.233515 
L 179.758104 213.949667 
L 180.645659 189.329652 
L 181.562524 184.597071 
L 183.366943 212.690746 
L 184.254498 206.691288 
L 185.171363 212.275249 
L 186.975783 193.546457 
L 187.863338 205.701282 
L 188.780202 179.912869 
L 189.667757 205.045095 
L 190.584622 192.227321 
L 191.472177 204.516556 
L 192.389042 210.759621 
L 193.276597 183.257869 
L 194.193462 178.568816 
L 195.997881 190.034713 
L 196.885436 203.60296 
L 197.802301 209.738078 
L 198.689856 181.299019 
L 199.606721 188.132222 
L 200.494276 201.66054 
L 201.41114 209.001445 
L 202.298695 179.355283 
L 203.21556 174.31527 
L 204.103115 172.758437 
L 205.01998 207.411066 
L 205.907535 200.867181 
L 206.824399 185.104258 
L 208.628819 184.395449 
L 210.433239 168.713748 
L 211.320794 177.895241 
L 212.237659 206.26938 
L 214.042078 206.175174 
L 214.929633 169.851988 
L 215.846498 181.124915 
L 216.734053 176.998831 
L 217.650918 204.837564 
L 219.455337 204.092061 
L 220.342892 199.603464 
L 221.259757 178.376327 
L 222.147312 174.029077 
L 223.064177 163.295753 
L 223.951732 198.975286 
L 224.868596 176.677545 
L 225.756151 198.385355 
L 226.673016 175.946732 
L 227.560571 163.836601 
L 228.477436 160.405084 
L 229.364991 197.297435 
L 230.281856 202.944767 
L 231.16941 196.306978 
L 232.086275 173.754633 
L 233.890695 172.989428 
L 234.77825 194.444025 
L 235.695115 202.052894 
L 236.58267 168.440661 
L 237.499534 154.276718 
L 238.387089 193.391258 
L 239.303954 200.624576 
L 241.108374 153.259151 
L 241.995929 165.889089 
L 242.912793 199.861196 
L 243.800348 193.106036 
L 244.717213 198.988696 
L 245.604768 192.33999 
L 246.521633 168.098274 
L 247.409188 162.823177 
L 248.326053 150.248549 
L 249.213607 191.15569 
L 250.130472 197.371837 
L 251.018027 160.938098 
L 251.934892 196.750089 
L 252.822447 190.276579 
L 253.739312 164.547203 
L 254.626867 150.243843 
L 255.543731 150.537908 
L 256.431286 158.730328 
L 257.348151 195.499425 
L 258.235706 158.288045 
L 259.152571 149.831546 
L 260.95699 194.642807 
L 261.844545 188.993725 
L 262.76141 161.609026 
L 263.648965 155.73355 
L 264.56583 192.895513 
L 265.453385 187.259382 
L 266.37025 192.25724 
L 268.174669 147.223493 
L 269.062224 153.705495 
L 269.979089 190.957531 
L 270.866644 186.372518 
L 271.783509 190.171962 
L 272.671064 185.731517 
L 273.587928 156.247396 
L 274.475483 185.035049 
L 275.392348 189.466689 
L 276.279903 150.221629 
L 277.196768 188.571093 
L 279.001187 143.132503 
L 279.888742 183.601755 
L 280.805607 187.673887 
L 281.693162 182.844963 
L 282.610027 152.116705 
L 284.414447 186.479761 
L 286.218866 138.461217 
L 287.106421 181.947027 
L 288.023286 150.334703 
L 289.827706 184.719643 
L 290.715261 180.963581 
L 291.632125 183.785229 
L 292.51968 144.943051 
L 293.436545 147.711305 
L 294.3241 179.662127 
L 295.240965 183.154006 
L 297.045384 134.186376 
L 297.932939 178.862713 
L 298.849804 182.264435 
L 299.737359 177.870792 
L 300.654224 181.57957 
L 302.458644 142.628432 
L 304.263063 180.436112 
L 305.150618 176.206808 
L 306.067483 127.594478 
L 306.955038 139.953595 
L 307.871903 140.641679 
L 308.759458 175.506299 
L 309.676322 140.087077 
L 310.563877 174.54937 
L 311.480742 126.901714 
L 313.285162 179.201703 
L 314.172717 173.332482 
L 315.089581 124.840093 
L 315.977136 135.709928 
L 316.894001 178.416498 
L 317.781556 134.942329 
L 318.698421 177.406561 
L 319.585976 134.074636 
L 320.502841 135.625202 
L 322.30726 135.250023 
L 323.194815 172.468554 
L 324.11168 121.096763 
L 324.999235 131.589865 
L 325.9161 120.942429 
L 327.720519 176.034617 
L 328.608074 171.041134 
L 329.524939 133.22939 
L 330.412494 170.723246 
L 331.329359 174.512267 
L 332.216914 128.741271 
L 333.133778 117.454718 
L 334.021333 127.825797 
L 334.938198 118.348772 
L 335.825753 169.171752 
L 336.742618 173.470153 
L 337.630173 125.885998 
L 338.547038 129.79705 
L 340.351457 172.945499 
L 342.155877 172.192423 
L 343.043432 124.097408 
L 343.960297 171.225048 
L 344.847852 168.354794 
L 345.764716 111.489367 
L 346.652271 122.089441 
L 347.569136 125.23687 
L 348.456691 166.850097 
L 349.373556 169.477954 
L 350.261111 166.282165 
L 351.177976 110.288394 
L 352.06553 165.673324 
L 352.982395 168.571974 
L 353.86995 118.17664 
L 354.786815 108.092037 
L 355.67437 163.712745 
L 356.591235 167.952576 
L 357.478789 163.056933 
L 358.395654 107.102882 
L 359.283209 99.298162 
L 360.200074 166.590506 
L 361.087629 162.537603 
L 362.004494 120.845686 
L 362.892049 161.598842 
L 363.808913 165.760893 
L 364.696468 112.761836 
L 365.613333 164.974193 
L 366.500888 159.647777 
L 367.417753 103.088246 
L 368.305308 110.901525 
L 369.222173 101.110613 
L 370.109727 158.758677 
L 371.026592 163.447237 
L 371.914147 158.293623 
L 372.831012 100.971902 
L 374.635432 116.633202 
L 376.439851 162.655075 
L 377.327406 157.239398 
L 378.244271 161.827305 
L 379.131826 106.688411 
L 380.048691 95.681357 
L 380.936246 106.283381 
L 381.85311 160.841851 
L 382.740665 156.128655 
L 383.65753 159.996577 
L 384.545085 86.685897 
L 385.46195 94.154538 
L 386.349505 155.252157 
L 387.26637 158.10837 
L 388.153924 102.654712 
L 389.070789 110.488847 
L 389.958344 153.835445 
L 390.875209 157.231979 
L 391.762764 152.893835 
L 392.679629 89.030475 
L 393.567183 99.852496 
L 394.484048 156.070156 
L 395.371603 151.49556 
L 396.288468 106.91438 
L 397.176023 97.817404 
L 398.092888 155.341331 
L 398.980443 80.814389 
L 399.897307 154.838962 
L 400.784862 150.618457 
L 401.701727 104.459514 
L 402.589282 149.927717 
L 403.506147 85.334358 
L 404.393702 149.045346 
L 405.310567 152.999302 
L 406.198121 148.184531 
L 407.114986 82.717026 
L 408.919406 152.44305 
L 409.806961 92.134296 
L 410.723826 80.76908 
L 411.61138 91.303454 
L 411.61138 91.303454 
" clip-path="url(#p0f14d49579)" style="fill: none; stroke: #1f77b4; stroke-width: 1.5; stroke-linecap: square"/>
   </g>
   <g id="patch_3">
    <path d="M 50.76875 246.7 
L 50.76875 25.8 
" style="fill: none; stroke: #000000; stroke-width: 0.8; stroke-linejoin: miter; stroke-linecap: square"/>
   </g>
   <g id="patch_4">
    <path d="M 416.088414 246.7 
L 416.088414 25.8 
" style="fill: none; stroke: #000000; stroke-width: 0.8; stroke-linejoin: miter; stroke-linecap: square"/>
   </g>
   <g id="patch_5">
    <path d="M 50.76875 246.7 
L 416.088414 246.7 
" style="fill: none; stroke: #000000; stroke-width: 0.8; stroke-linejoin: miter; stroke-linecap: square"/>
   </g>
   <g id="patch_6">
    <path d="M 50.76875 25.8 
L 416.088414 25.8 
" style="fill: none; stroke: #000000; stroke-width: 0.8; stroke-linejoin: miter; stroke-linecap: square"/>
   </g>
   <g id="text_21">
    <!-- Demora -->
    <g transform="translate(209.457644 19.8)scale(0.12 -0.12)">
     <defs>
      <path id="DejaVuSans-44" d="M 1259 4147 
L 1259 519 
L 2022 519 
Q 2988 519 3436 956 
Q 3884 1394 3884 2338 
Q 3884 3275 3436 3711 
Q 2988 4147 2022 4147 
L 1259 4147 
z
M 628 4666 
L 1925 4666 
Q 3281 4666 3915 4102 
Q 4550 3538 4550 2338 
Q 4550 1131 3912 565 
Q 3275 0 1925 0 
L 628 0 
L 628 4666 
z
" transform="scale(0.015625)"/>
      <path id="DejaVuSans-72" d="M 2631 2963 
Q 2534 3019 2420 3045 
Q 2306 3072 2169 3072 
Q 1681 3072 1420 2755 
Q 1159 2438 1159 1844 
L 1159 0 
L 581 0 
L 581 3500 
L 1159 3500 
L 1159 2956 
Q 1341 3275 1631 3429 
Q 1922 3584 2338 3584 
Q 2397 3584 2469 3576 
Q 2541 3569 2628 3553 
L 2631 2963 
z
" transform="scale(0.015625)"/>
      <path id="DejaVuSans-61" d="M 2194 1759 
Q 1497 1759 1228 1600 
Q 959 1441 959 1056 
Q 959 750 1161 570 
Q 1363 391 1709 391 
Q 2188 391 2477 730 
Q 2766 1069 2766 1631 
L 2766 1759 
L 2194 1759 
z
M 3341 1997 
L 3341 0 
L 2766 0 
L 2766 531 
Q 2569 213 2275 61 
Q 1981 -91 1556 -91 
Q 1019 -91 701 211 
Q 384 513 384 1019 
Q 384 1609 779 1909 
Q 1175 2209 1959 2209 
L 2766 2209 
L 2766 2266 
Q 2766 2663 2505 2880 
Q 2244 3097 1772 3097 
Q 1472 3097 1187 3025 
Q 903 2953 641 2809 
L 641 3341 
Q 956 3463 1253 3523 
Q 1550 3584 1831 3584 
Q 2591 3584 2966 3190 
Q 3341 2797 3341 1997 
z
" transform="scale(0.015625)"/>
     </defs>
     <use xlink:href="#DejaVuSans-44"/>
     <use xlink:href="#DejaVuSans-65" x="77.001953"/>
     <use xlink:href="#DejaVuSans-6d" x="138.525391"/>
     <use xlink:href="#DejaVuSans-6f" x="235.9375"/>
     <use xlink:href="#DejaVuSans-72" x="297.119141"/>
     <use xlink:href="#DejaVuSans-61" x="338.232422"/>
    </g>
   </g>
   <g id="legend_1">
    <g id="patch_7">
     <path d="M 226.880601 48.478125 
L 409.088414 48.478125 
Q 411.088414 48.478125 411.088414 46.478125 
L 411.088414 32.8 
Q 411.088414 30.8 409.088414 30.8 
L 226.880601 30.8 
Q 224.880601 30.8 224.880601 32.8 
L 224.880601 46.478125 
Q 224.880601 48.478125 226.880601 48.478125 
z
" style="fill: #ffffff; opacity: 0.8; stroke: #cccccc; stroke-linejoin: miter"/>
    </g>
    <g id="line2d_38">
     <path d="M 228.880601 38.898437 
L 238.880601 38.898437 
L 248.880601 38.898437 
" style="fill: none; stroke: #1f77b4; stroke-width: 1.5; stroke-linecap: square"/>
    </g>
    <g id="text_22">
     <!-- Delay in Network.node[5].app -->
     <g transform="translate(256.880601 42.398437)scale(0.1 -0.1)">
      <defs>
       <path id="DejaVuSans-6c" d="M 603 4863 
L 1178 4863 
L 1178 0 
L 603 0 
L 603 4863 
z
" transform="scale(0.015625)"/>
       <path id="DejaVuSans-79" d="M 2059 -325 
Q 1816 -950 1584 -1140 
Q 1353 -1331 966 -1331 
L 506 -1331 
L 506 -850 
L 844 -850 
Q 1081 -850 1212 -737 
Q 1344 -625 1503 -206 
L 1606 56 
L 191 3500 
L 800 3500 
L 1894 763 
L 2988 3500 
L 3597 3500 
L 2059 -325 
z
" transform="scale(0.015625)"/>
       <path id="DejaVuSans-20" transform="scale(0.015625)"/>
       <path id="DejaVuSans-6e" d="M 3513 2113 
L 3513 0 
L 2938 0 
L 2938 2094 
Q 2938 2591 2744 2837 
Q 2550 3084 2163 3084 
Q 1697 3084 1428 2787 
Q 1159 2491 1159 1978 
L 1159 0 
L 581 0 
L 581 3500 
L 1159 3500 
L 1159 2956 
Q 1366 3272 1645 3428 
Q 1925 3584 2291 3584 
Q 2894 3584 3203 3211 
Q 3513 2838 3513 2113 
z
" transform="scale(0.015625)"/>
       <path id="DejaVuSans-4e" d="M 628 4666 
L 1478 4666 
L 3547 763 
L 3547 4666 
L 4159 4666 
L 4159 0 
L 3309 0 
L 1241 3903 
L 1241 0 
L 628 0 
L 628 4666 
z
" transform="scale(0.015625)"/>
       <path id="DejaVuSans-74" d="M 1172 4494 
L 1172 3500 
L 2356 3500 
L 2356 3053 
L 1172 3053 
L 1172 1153 
Q 1172 725 1289 603 
Q 1406 481 1766 481 
L 2356 481 
L 2356 0 
L 1766 0 
Q 1100 0 847 248 
Q 594 497 594 1153 
L 594 3053 
L 172 3053 
L 172 3500 
L 594 3500 
L 594 4494 
L 1172 4494 
z
" transform="scale(0.015625)"/>
       <path id="DejaVuSans-77" d="M 269 3500 
L 844 3500 
L 1563 769 
L 2278 3500 
L 2956 3500 
L 3675 769 
L 4391 3500 
L 4966 3500 
L 4050 0 
L 3372 0 
L 2619 2869 
L 1863 0 
L 1184 0 
L 269 3500 
z
" transform="scale(0.015625)"/>
       <path id="DejaVuSans-6b" d="M 581 4863 
L 1159 4863 
L 1159 1991 
L 2875 3500 
L 3609 3500 
L 1753 1863 
L 3688 0 
L 2938 0 
L 1159 1709 
L 1159 0 
L 581 0 
L 581 4863 
z
" transform="scale(0.015625)"/>
       <path id="DejaVuSans-2e" d="M 684 794 
L 1344 794 
L 1344 0 
L 684 0 
L 684 794 
z
" transform="scale(0.015625)"/>
       <path id="DejaVuSans-64" d="M 2906 2969 
L 2906 4863 
L 3481 4863 
L 3481 0 
L 2906 0 
L 2906 525 
Q 2725 213 2448 61 
Q 2172 -91 1784 -91 
Q 1150 -91 751 415 
Q 353 922 353 1747 
Q 353 2572 751 3078 
Q 1150 3584 1784 3584 
Q 2172 3584 2448 3432 
Q 2725 3281 2906 2969 
z
M 947 1747 
Q 947 1113 1208 752 
Q 1469 391 1925 391 
Q 2381 391 2643 752 
Q 2906 1113 2906 1747 
Q 2906 2381 2643 2742 
Q 2381 3103 1925 3103 
Q 1469 3103 1208 2742 
Q 947 2381 947 1747 
z
" transform="scale(0.015625)"/>
       <path id="DejaVuSans-5b" d="M 550 4863 
L 1875 4863 
L 1875 4416 
L 1125 4416 
L 1125 -397 
L 1875 -397 
L 1875 -844 
L 550 -844 
L 550 4863 
z
" transform="scale(0.015625)"/>
       <path id="DejaVuSans-5d" d="M 1947 4863 
L 1947 -844 
L 622 -844 
L 622 -397 
L 1369 -397 
L 1369 4416 
L 622 4416 
L 622 4863 
L 1947 4863 
z
" transform="scale(0.015625)"/>
      </defs>
      <use xlink:href="#DejaVuSans-44"/>
      <use xlink:href="#DejaVuSans-65" x="77.001953"/>
      <use xlink:href="#DejaVuSans-6c" x="138.525391"/>
      <use xlink:href="#DejaVuSans-61" x="166.308594"/>
      <use xlink:href="#DejaVuSans-79" x="227.587891"/>
      <use xlink:href="#DejaVuSans-20" x="286.767578"/>
      <use xlink:href="#DejaVuSans-69" x="318.554688"/>
      <use xlink:href="#DejaVuSans-6e" x="346.337891"/>
      <use xlink:href="#DejaVuSans-20" x="409.716797"/>
      <use xlink:href="#DejaVuSans-4e" x="441.503906"/>
      <use xlink:href="#DejaVuSans-65" x="516.308594"/>
      <use xlink:href="#DejaVuSans-74" x="577.832031"/>
      <use xlink:href="#DejaVuSans-77" x="617.041016"/>
      <use xlink:href="#DejaVuSans-6f" x="698.828125"/>
      <use xlink:href="#DejaVuSans-72" x="760.009766"/>
      <use xlink:href="#DejaVuSans-6b" x="801.123047"/>
      <use xlink:href="#DejaVuSans-2e" x="859.033203"/>
      <use xlink:href="#DejaVuSans-6e" x="890.820312"/>
      <use xlink:href="#DejaVuSans-6f" x="954.199219"/>
      <use xlink:href="#DejaVuSans-64" x="1015.380859"/>
      <use xlink:href="#DejaVuSans-65" x="1078.857422"/>
      <use xlink:href="#DejaVuSans-5b" x="1140.380859"/>
      <use xlink:href="#DejaVuSans-35" x="1179.394531"/>
      <use xlink:href="#DejaVuSans-5d" x="1243.017578"/>
      <use xlink:href="#DejaVuSans-2e" x="1282.03125"/>
      <use xlink:href="#DejaVuSans-61" x="1313.818359"/>
      <use xlink:href="#DejaVuSans-70" x="1375.097656"/>
      <use xlink:href="#DejaVuSans-70" x="1438.574219"/>
     </g>
    </g>
   </g>
  </g>
 </g>
 <defs>
  <clipPath id="p0f14d49579">
   <rect x="50.76875" y="25.8" width="365.319664" height="220.9"/>
  </clipPath>
 </defs>
</svg>
